%TF.GenerationSoftware,KiCad,Pcbnew,(5.1.8-0-10_14)*%
%TF.CreationDate,2021-05-08T00:18:42-07:00*%
%TF.ProjectId,TEC,5445432e-6b69-4636-9164-5f7063625858,A*%
%TF.SameCoordinates,Original*%
%TF.FileFunction,Soldermask,Bot*%
%TF.FilePolarity,Negative*%
%FSLAX46Y46*%
G04 Gerber Fmt 4.6, Leading zero omitted, Abs format (unit mm)*
G04 Created by KiCad (PCBNEW (5.1.8-0-10_14)) date 2021-05-08 00:18:42*
%MOMM*%
%LPD*%
G01*
G04 APERTURE LIST*
%ADD10C,1.700000*%
%ADD11O,1.700000X2.200000*%
%ADD12C,0.800000*%
%ADD13C,6.000000*%
%ADD14O,6.500000X3.500000*%
%ADD15O,3.500000X6.500000*%
G04 APERTURE END LIST*
D10*
%TO.C,J2*%
X82240000Y-76327000D03*
X79700000Y-76327000D03*
X77160000Y-76327000D03*
X74620000Y-76327000D03*
X72080000Y-76327000D03*
X69540000Y-76327000D03*
X67000000Y-76327000D03*
X82240000Y-78867000D03*
X79700000Y-78867000D03*
X77160000Y-78867000D03*
X74620000Y-78867000D03*
X72080000Y-78867000D03*
X69540000Y-78867000D03*
G36*
G01*
X67600000Y-79717000D02*
X66400000Y-79717000D01*
G75*
G02*
X66150000Y-79467000I0J250000D01*
G01*
X66150000Y-78267000D01*
G75*
G02*
X66400000Y-78017000I250000J0D01*
G01*
X67600000Y-78017000D01*
G75*
G02*
X67850000Y-78267000I0J-250000D01*
G01*
X67850000Y-79467000D01*
G75*
G02*
X67600000Y-79717000I-250000J0D01*
G01*
G37*
%TD*%
%TO.C,J6*%
X200413000Y-68766000D03*
X192913000Y-68766000D03*
D11*
X200413000Y-75946000D03*
X197913000Y-75946000D03*
X195413000Y-75946000D03*
G36*
G01*
X193513000Y-77046000D02*
X192313000Y-77046000D01*
G75*
G02*
X192063000Y-76796000I0J250000D01*
G01*
X192063000Y-75096000D01*
G75*
G02*
X192313000Y-74846000I250000J0D01*
G01*
X193513000Y-74846000D01*
G75*
G02*
X193763000Y-75096000I0J-250000D01*
G01*
X193763000Y-76796000D01*
G75*
G02*
X193513000Y-77046000I-250000J0D01*
G01*
G37*
%TD*%
D10*
%TO.C,J5*%
X169298000Y-68766000D03*
X161798000Y-68766000D03*
D11*
X169298000Y-75946000D03*
X166798000Y-75946000D03*
X164298000Y-75946000D03*
G36*
G01*
X162398000Y-77046000D02*
X161198000Y-77046000D01*
G75*
G02*
X160948000Y-76796000I0J250000D01*
G01*
X160948000Y-75096000D01*
G75*
G02*
X161198000Y-74846000I250000J0D01*
G01*
X162398000Y-74846000D01*
G75*
G02*
X162648000Y-75096000I0J-250000D01*
G01*
X162648000Y-76796000D01*
G75*
G02*
X162398000Y-77046000I-250000J0D01*
G01*
G37*
%TD*%
D10*
%TO.C,J4*%
X137548000Y-68782000D03*
X130048000Y-68782000D03*
D11*
X137548000Y-75962000D03*
X135048000Y-75962000D03*
X132548000Y-75962000D03*
G36*
G01*
X130648000Y-77062000D02*
X129448000Y-77062000D01*
G75*
G02*
X129198000Y-76812000I0J250000D01*
G01*
X129198000Y-75112000D01*
G75*
G02*
X129448000Y-74862000I250000J0D01*
G01*
X130648000Y-74862000D01*
G75*
G02*
X130898000Y-75112000I0J-250000D01*
G01*
X130898000Y-76812000D01*
G75*
G02*
X130648000Y-77062000I-250000J0D01*
G01*
G37*
%TD*%
D12*
%TO.C,H4*%
X218590990Y-143409010D03*
X217000000Y-142750000D03*
X215409010Y-143409010D03*
X214750000Y-145000000D03*
X215409010Y-146590990D03*
X217000000Y-147250000D03*
X218590990Y-146590990D03*
X219250000Y-145000000D03*
D13*
X217000000Y-145000000D03*
%TD*%
D12*
%TO.C,H3*%
X56590990Y-143409010D03*
X55000000Y-142750000D03*
X53409010Y-143409010D03*
X52750000Y-145000000D03*
X53409010Y-146590990D03*
X55000000Y-147250000D03*
X56590990Y-146590990D03*
X57250000Y-145000000D03*
D13*
X55000000Y-145000000D03*
%TD*%
D12*
%TO.C,H2*%
X56590990Y-68409010D03*
X55000000Y-67750000D03*
X53409010Y-68409010D03*
X52750000Y-70000000D03*
X53409010Y-71590990D03*
X55000000Y-72250000D03*
X56590990Y-71590990D03*
X57250000Y-70000000D03*
D13*
X55000000Y-70000000D03*
%TD*%
D12*
%TO.C,H1*%
X218590990Y-68409010D03*
X217000000Y-67750000D03*
X215409010Y-68409010D03*
X214750000Y-70000000D03*
X215409010Y-71590990D03*
X217000000Y-72250000D03*
X218590990Y-71590990D03*
X219250000Y-70000000D03*
D13*
X217000000Y-70000000D03*
%TD*%
D10*
%TO.C,J3*%
X106941000Y-68782000D03*
X99441000Y-68782000D03*
D11*
X106941000Y-75962000D03*
X104441000Y-75962000D03*
X101941000Y-75962000D03*
G36*
G01*
X100041000Y-77062000D02*
X98841000Y-77062000D01*
G75*
G02*
X98591000Y-76812000I0J250000D01*
G01*
X98591000Y-75112000D01*
G75*
G02*
X98841000Y-74862000I250000J0D01*
G01*
X100041000Y-74862000D01*
G75*
G02*
X100291000Y-75112000I0J-250000D01*
G01*
X100291000Y-76812000D01*
G75*
G02*
X100041000Y-77062000I-250000J0D01*
G01*
G37*
%TD*%
D14*
%TO.C,J1*%
X69850000Y-104530400D03*
D15*
X70485000Y-110561000D03*
%TD*%
M02*
