M48
; DRILL file {KiCad (5.1.8-0-10_14)} date Saturday, May 08, 2021 at 12:18:46 AM
; FORMAT={-:-/ absolute / inch / decimal}
; #@! TF.CreationDate,2021-05-08T00:18:46-07:00
; #@! TF.GenerationSoftware,Kicad,Pcbnew,(5.1.8-0-10_14)
; #@! TF.FileFunction,Plated,1,4,PTH
FMAT,2
INCH
T1C0.0079
T2C0.0157
T3C0.0197
T4C0.0394
T5C0.0472
T6C0.0591
T7C0.1181
%
G90
G05
T1
X2.255Y-4.3133
X2.255Y-4.3567
X7.5458Y-4.7963
X7.5458Y-4.8356
X7.5458Y-4.875
X7.5852Y-4.7963
X7.5852Y-4.8356
X7.5852Y-4.875
X7.6245Y-4.7963
X7.6245Y-4.8356
X7.6245Y-4.875
X2.7637Y-4.8687
X2.7637Y-4.91
X2.7637Y-4.9513
X2.805Y-4.8687
X2.805Y-4.91
X2.805Y-4.9513
X2.8463Y-4.8687
X2.8463Y-4.91
X2.8463Y-4.9513
X6.3106Y-4.7963
X6.3106Y-4.8356
X6.3106Y-4.875
X6.35Y-4.7963
X6.35Y-4.8356
X6.35Y-4.875
X6.3894Y-4.7963
X6.3894Y-4.8356
X6.3894Y-4.875
X5.0656Y-4.7963
X5.0656Y-4.8356
X5.0656Y-4.875
X5.105Y-4.7963
X5.105Y-4.8356
X5.105Y-4.875
X5.1444Y-4.7963
X5.1444Y-4.8356
X5.1444Y-4.875
X3.8656Y-4.7963
X3.8656Y-4.8356
X3.8656Y-4.875
X3.905Y-4.7963
X3.905Y-4.8356
X3.905Y-4.875
X3.9444Y-4.7963
X3.9444Y-4.8356
X3.9444Y-4.875
T2
X2.13Y-4.28
X2.13Y-4.47
X2.17Y-4.235
X2.245Y-4.985
X2.245Y-5.11
X2.245Y-5.235
X2.4Y-4.455
X2.405Y-4.985
X2.475Y-5.19
X2.53Y-4.72
X2.545Y-4.895
X2.545Y-5.19
X2.58Y-4.92
X2.5803Y-5.2453
X2.5806Y-3.2944
X2.585Y-4.77
X2.585Y-4.605
X2.6178Y-4.942
X2.62Y-5.31
X2.635Y-3.45
X2.65Y-5.385
X2.6523Y-4.9613
X2.6856Y-3.2944
X2.69Y-4.575
X2.715Y-5.025
X2.735Y-3.45
X2.7856Y-3.2944
X2.835Y-3.45
X2.88Y-4.97
X2.8856Y-3.2944
X2.8941Y-5.1459
X2.895Y-4.645
X2.9288Y-4.871
X2.93Y-4.505
X2.93Y-4.195
X2.93Y-4.915
X2.9301Y-4.8315
X2.935Y-3.45
X2.98Y-4.68
X2.98Y-4.77
X2.9856Y-3.2944
X3.02Y-4.805
X3.035Y-3.45
X3.035Y-5.19
X3.035Y-5.25
X3.035Y-5.31
X3.035Y-5.375
X3.0371Y-4.8979
X3.065Y-4.825
X3.0856Y-3.2944
X3.1294Y-3.5606
X3.135Y-3.45
X3.185Y-3.295
X3.2359Y-3.7841
X3.25Y-4.03
X3.25Y-4.07
X3.25Y-4.11
X3.25Y-4.15
X3.25Y-4.19
X3.25Y-4.23
X3.25Y-4.27
X3.25Y-4.31
X3.25Y-4.35
X3.25Y-4.39
X3.25Y-4.43
X3.25Y-4.47
X3.26Y-4.785
X3.26Y-5.035
X3.29Y-3.295
X3.29Y-4.03
X3.29Y-4.07
X3.29Y-4.11
X3.29Y-4.15
X3.29Y-4.19
X3.29Y-4.23
X3.29Y-4.27
X3.29Y-4.31
X3.29Y-4.35
X3.29Y-4.39
X3.29Y-4.43
X3.29Y-4.47
X3.33Y-4.03
X3.33Y-4.07
X3.33Y-4.11
X3.33Y-4.15
X3.33Y-4.19
X3.33Y-4.23
X3.33Y-4.27
X3.33Y-4.31
X3.33Y-4.35
X3.33Y-4.39
X3.33Y-4.43
X3.33Y-4.47
X3.37Y-4.03
X3.37Y-4.07
X3.37Y-4.11
X3.37Y-4.15
X3.37Y-4.19
X3.37Y-4.23
X3.37Y-4.27
X3.37Y-4.31
X3.37Y-4.35
X3.37Y-4.39
X3.37Y-4.43
X3.37Y-4.47
X3.435Y-3.9
X3.5Y-4.05
X3.5Y-4.18
X3.51Y-4.285
X3.535Y-4.45
X3.545Y-4.285
X3.555Y-3.97
X3.555Y-4.005
X3.56Y-3.115
X3.56Y-3.355
X3.56Y-3.455
X3.56Y-3.555
X3.56Y-3.655
X3.56Y-3.755
X3.56Y-3.855
X3.575Y-4.985
X3.58Y-4.285
X3.585Y-3.405
X3.585Y-3.505
X3.585Y-3.605
X3.585Y-3.705
X3.585Y-3.805
X3.585Y-3.905
X3.59Y-3.97
X3.59Y-4.005
X3.595Y-4.75
X3.595Y-4.84
X3.595Y-4.93
X3.61Y-3.355
X3.61Y-3.455
X3.61Y-3.555
X3.61Y-3.655
X3.61Y-3.755
X3.61Y-3.855
X3.615Y-4.285
X3.625Y-3.97
X3.625Y-4.005
X3.625Y-4.45
X3.635Y-3.405
X3.635Y-3.505
X3.635Y-3.605
X3.635Y-3.705
X3.635Y-3.805
X3.635Y-3.905
X3.65Y-4.285
X3.66Y-3.355
X3.66Y-3.455
X3.66Y-3.555
X3.66Y-3.655
X3.66Y-3.755
X3.66Y-3.855
X3.66Y-3.97
X3.66Y-4.005
X3.685Y-3.405
X3.685Y-3.505
X3.685Y-3.605
X3.695Y-5.66
X3.71Y-3.355
X3.71Y-3.455
X3.71Y-3.555
X3.71Y-3.78
X3.71Y-4.255
X3.735Y-3.405
X3.735Y-3.505
X3.735Y-3.605
X3.755Y-5.135
X3.76Y-3.355
X3.76Y-3.455
X3.76Y-3.555
X3.76Y-3.78
X3.7609Y-4.797
X3.765Y-4.335
X3.7726Y-4.6024
X3.785Y-3.405
X3.785Y-3.505
X3.785Y-3.605
X3.795Y-4.095
X3.795Y-4.13
X3.8Y-4.945
X3.81Y-4.51
X3.81Y-3.355
X3.81Y-3.455
X3.81Y-3.555
X3.81Y-3.78
X3.83Y-4.095
X3.83Y-4.13
X3.83Y-5.2787
X3.835Y-3.405
X3.835Y-3.505
X3.835Y-3.605
X3.845Y-5.66
X3.8474Y-4.6026
X3.855Y-5.505
X3.855Y-5.58
X3.86Y-3.355
X3.86Y-3.455
X3.86Y-3.555
X3.86Y-3.78
X3.865Y-4.335
X3.87Y-4.475
X3.885Y-3.405
X3.885Y-3.505
X3.885Y-3.605
X3.9Y-5.135
X3.91Y-3.355
X3.91Y-3.455
X3.91Y-3.555
X3.91Y-3.655
X3.91Y-3.755
X3.91Y-3.855
X3.91Y-3.955
X3.9226Y-4.6024
X3.935Y-3.405
X3.935Y-3.505
X3.935Y-3.605
X3.935Y-3.705
X3.935Y-3.805
X3.935Y-3.905
X3.935Y-4.37
X3.935Y-5.1613
X3.94Y-4.215
X3.96Y-3.355
X3.96Y-3.455
X3.96Y-3.555
X3.96Y-3.655
X3.96Y-3.755
X3.96Y-3.855
X3.96Y-3.955
X3.985Y-3.405
X3.985Y-3.505
X3.985Y-3.605
X3.985Y-3.705
X3.985Y-3.805
X3.985Y-3.905
X3.985Y-5.5566
X3.9974Y-4.6026
X4.01Y-3.355
X4.01Y-3.455
X4.01Y-3.555
X4.01Y-3.655
X4.01Y-3.755
X4.01Y-3.855
X4.01Y-3.955
X4.01Y-5.6
X4.015Y-4.935
X4.015Y-4.975
X4.02Y-4.37
X4.02Y-5.135
X4.03Y-4.1
X4.03Y-4.215
X4.055Y-5.36
X4.065Y-4.4813
X4.08Y-4.655
X4.08Y-4.7
X4.1Y-4.17
X4.1Y-4.205
X4.105Y-4.03
X4.105Y-4.065
X4.105Y-4.3683
X4.11Y-3.355
X4.11Y-3.455
X4.11Y-3.555
X4.11Y-3.655
X4.11Y-3.755
X4.11Y-3.855
X4.11Y-3.955
X4.11Y-5.135
X4.135Y-3.405
X4.135Y-3.505
X4.135Y-3.605
X4.135Y-3.705
X4.135Y-3.805
X4.135Y-3.905
X4.135Y-4.17
X4.135Y-4.205
X4.14Y-4.03
X4.14Y-4.065
X4.16Y-3.355
X4.16Y-3.455
X4.16Y-3.555
X4.16Y-3.655
X4.16Y-3.755
X4.16Y-3.855
X4.16Y-3.955
X4.17Y-4.17
X4.17Y-4.205
X4.175Y-4.03
X4.175Y-4.065
X4.185Y-3.405
X4.185Y-3.505
X4.185Y-3.605
X4.185Y-3.705
X4.185Y-3.805
X4.185Y-3.905
X4.185Y-4.3683
X4.205Y-4.17
X4.205Y-4.205
X4.21Y-3.355
X4.21Y-3.455
X4.21Y-3.555
X4.21Y-3.655
X4.21Y-3.755
X4.21Y-3.855
X4.21Y-3.955
X4.21Y-4.03
X4.21Y-4.065
X4.235Y-3.405
X4.235Y-3.505
X4.235Y-3.605
X4.26Y-3.355
X4.26Y-3.455
X4.26Y-3.555
X4.26Y-3.78
X4.265Y-4.675
X4.285Y-3.405
X4.285Y-3.505
X4.285Y-3.605
X4.31Y-3.355
X4.31Y-3.455
X4.31Y-3.555
X4.31Y-3.78
X4.31Y-4.335
X4.315Y-4.76
X4.335Y-3.405
X4.335Y-3.505
X4.335Y-3.605
X4.345Y-4.095
X4.345Y-4.135
X4.36Y-3.355
X4.36Y-3.455
X4.36Y-3.555
X4.36Y-3.78
X4.365Y-4.51
X4.38Y-4.095
X4.38Y-4.135
X4.385Y-3.405
X4.385Y-3.505
X4.385Y-3.605
X4.3859Y-5.4441
X4.39Y-4.835
X4.41Y-3.355
X4.41Y-3.455
X4.41Y-3.555
X4.41Y-3.78
X4.41Y-4.335
X4.435Y-3.405
X4.435Y-3.505
X4.435Y-3.605
X4.46Y-3.355
X4.46Y-3.455
X4.46Y-3.555
X4.46Y-3.655
X4.46Y-3.755
X4.46Y-3.855
X4.46Y-3.955
X4.465Y-4.675
X4.4778Y-2.6372
X4.4809Y-5.4441
X4.485Y-3.405
X4.485Y-3.505
X4.485Y-3.605
X4.485Y-3.705
X4.485Y-3.805
X4.485Y-3.905
X4.495Y-4.215
X4.495Y-4.375
X4.51Y-3.355
X4.51Y-3.455
X4.51Y-3.555
X4.51Y-3.655
X4.51Y-3.755
X4.51Y-3.855
X4.51Y-3.955
X4.535Y-3.405
X4.535Y-3.505
X4.535Y-3.605
X4.535Y-3.705
X4.535Y-3.805
X4.535Y-3.905
X4.56Y-3.355
X4.56Y-3.455
X4.56Y-3.555
X4.56Y-3.655
X4.56Y-3.755
X4.56Y-3.855
X4.56Y-3.955
X4.57Y-3.115
X4.585Y-4.215
X4.585Y-4.375
X4.59Y-4.835
X4.5913Y-2.935
X4.6837Y-2.935
X4.71Y-4.05
X4.71Y-4.18
X4.72Y-4.285
X4.74Y-4.45
X4.755Y-3.115
X4.755Y-3.97
X4.755Y-4.005
X4.755Y-4.285
X4.76Y-3.355
X4.76Y-3.455
X4.76Y-3.555
X4.76Y-3.655
X4.76Y-3.755
X4.76Y-3.855
X4.77Y-4.985
X4.785Y-3.405
X4.785Y-3.505
X4.785Y-3.605
X4.785Y-3.705
X4.785Y-3.805
X4.785Y-3.905
X4.79Y-3.97
X4.79Y-4.005
X4.79Y-4.285
X4.795Y-4.75
X4.795Y-4.84
X4.795Y-4.93
X4.81Y-3.355
X4.81Y-3.455
X4.81Y-3.555
X4.81Y-3.655
X4.81Y-3.755
X4.81Y-3.855
X4.825Y-3.97
X4.825Y-4.005
X4.825Y-4.285
X4.83Y-4.45
X4.835Y-3.405
X4.835Y-3.505
X4.835Y-3.605
X4.835Y-3.705
X4.835Y-3.805
X4.835Y-3.905
X4.86Y-3.355
X4.86Y-3.455
X4.86Y-3.555
X4.86Y-3.655
X4.86Y-3.755
X4.86Y-3.855
X4.86Y-3.97
X4.86Y-4.005
X4.86Y-4.285
X4.885Y-3.405
X4.885Y-3.505
X4.885Y-3.605
X4.89Y-5.66
X4.91Y-3.355
X4.91Y-3.455
X4.91Y-3.555
X4.91Y-3.78
X4.915Y-4.255
X4.935Y-3.405
X4.935Y-3.505
X4.935Y-3.605
X4.95Y-5.135
X4.9593Y-4.7757
X4.96Y-3.355
X4.96Y-3.455
X4.96Y-3.555
X4.96Y-3.78
X4.965Y-4.335
X4.9726Y-4.5974
X4.985Y-3.405
X4.985Y-3.505
X4.985Y-3.605
X5.0Y-4.095
X5.0Y-4.135
X5.0Y-4.945
X5.01Y-3.355
X5.01Y-3.455
X5.01Y-3.555
X5.01Y-3.78
X5.015Y-4.51
X5.025Y-5.2787
X5.035Y-3.405
X5.035Y-3.505
X5.035Y-3.605
X5.035Y-4.095
X5.035Y-4.135
X5.0474Y-4.5976
X5.05Y-5.66
X5.055Y-5.505
X5.055Y-5.58
X5.06Y-3.355
X5.06Y-3.455
X5.06Y-3.555
X5.06Y-3.78
X5.065Y-4.335
X5.08Y-4.475
X5.085Y-3.405
X5.085Y-3.505
X5.085Y-3.605
X5.1Y-5.135
X5.11Y-3.355
X5.11Y-3.455
X5.11Y-3.555
X5.11Y-3.655
X5.11Y-3.755
X5.11Y-3.855
X5.11Y-3.955
X5.1226Y-4.5974
X5.135Y-3.405
X5.135Y-3.505
X5.135Y-3.605
X5.135Y-3.705
X5.135Y-3.805
X5.135Y-3.905
X5.135Y-5.17
X5.14Y-4.215
X5.14Y-4.37
X5.16Y-3.355
X5.16Y-3.455
X5.16Y-3.555
X5.16Y-3.655
X5.16Y-3.755
X5.16Y-3.855
X5.16Y-3.955
X5.18Y-5.5566
X5.185Y-3.405
X5.185Y-3.505
X5.185Y-3.605
X5.185Y-3.705
X5.185Y-3.805
X5.185Y-3.905
X5.1974Y-4.5976
X5.21Y-3.355
X5.21Y-3.455
X5.21Y-3.555
X5.21Y-3.655
X5.21Y-3.755
X5.21Y-3.855
X5.21Y-3.955
X5.215Y-5.6
X5.22Y-4.935
X5.22Y-4.975
X5.22Y-5.135
X5.225Y-4.37
X5.235Y-4.095
X5.235Y-4.215
X5.245Y-4.48
X5.245Y-5.365
X5.275Y-4.655
X5.275Y-4.7
X5.31Y-4.37
X5.31Y-5.135
X5.315Y-3.355
X5.315Y-3.455
X5.315Y-3.555
X5.315Y-3.655
X5.315Y-3.755
X5.315Y-3.855
X5.315Y-3.955
X5.315Y-4.03
X5.315Y-4.065
X5.315Y-4.17
X5.315Y-4.205
X5.34Y-3.405
X5.34Y-3.505
X5.34Y-3.605
X5.34Y-3.705
X5.34Y-3.805
X5.34Y-3.905
X5.35Y-4.03
X5.35Y-4.065
X5.35Y-4.17
X5.35Y-4.205
X5.365Y-3.355
X5.365Y-3.455
X5.365Y-3.555
X5.365Y-3.655
X5.365Y-3.755
X5.365Y-3.855
X5.365Y-3.955
X5.385Y-4.03
X5.385Y-4.065
X5.385Y-4.17
X5.385Y-4.205
X5.39Y-3.405
X5.39Y-3.505
X5.39Y-3.605
X5.39Y-3.705
X5.39Y-3.805
X5.39Y-3.905
X5.395Y-4.37
X5.415Y-3.355
X5.415Y-3.455
X5.415Y-3.555
X5.415Y-3.655
X5.415Y-3.755
X5.415Y-3.855
X5.415Y-3.955
X5.42Y-4.03
X5.42Y-4.065
X5.42Y-4.17
X5.42Y-4.205
X5.44Y-3.405
X5.44Y-3.505
X5.44Y-3.605
X5.465Y-3.355
X5.465Y-3.455
X5.465Y-3.555
X5.465Y-3.78
X5.48Y-4.675
X5.49Y-3.405
X5.49Y-3.505
X5.49Y-3.605
X5.515Y-3.355
X5.515Y-3.455
X5.515Y-3.555
X5.515Y-3.78
X5.52Y-4.335
X5.53Y-4.765
X5.54Y-3.405
X5.54Y-3.505
X5.54Y-3.605
X5.555Y-4.095
X5.555Y-4.13
X5.565Y-3.355
X5.565Y-3.455
X5.565Y-3.555
X5.565Y-3.78
X5.57Y-4.51
X5.59Y-3.405
X5.59Y-3.505
X5.59Y-3.605
X5.59Y-4.095
X5.59Y-4.13
X5.605Y-4.835
X5.6084Y-5.4466
X5.615Y-3.355
X5.615Y-3.455
X5.615Y-3.555
X5.615Y-3.78
X5.62Y-4.335
X5.64Y-3.405
X5.64Y-3.505
X5.64Y-3.605
X5.665Y-3.355
X5.665Y-3.455
X5.665Y-3.555
X5.665Y-3.655
X5.665Y-3.755
X5.665Y-3.855
X5.665Y-3.955
X5.68Y-4.675
X5.6853Y-2.6397
X5.69Y-3.405
X5.69Y-3.505
X5.69Y-3.605
X5.69Y-3.705
X5.69Y-3.805
X5.69Y-3.905
X5.7Y-4.215
X5.7Y-4.375
X5.7034Y-5.4466
X5.715Y-3.355
X5.715Y-3.455
X5.715Y-3.555
X5.715Y-3.655
X5.715Y-3.755
X5.715Y-3.855
X5.715Y-3.955
X5.74Y-3.405
X5.74Y-3.505
X5.74Y-3.605
X5.74Y-3.705
X5.74Y-3.805
X5.74Y-3.905
X5.765Y-3.355
X5.765Y-3.455
X5.765Y-3.555
X5.765Y-3.655
X5.765Y-3.755
X5.765Y-3.855
X5.765Y-3.955
X5.775Y-3.115
X5.79Y-2.935
X5.79Y-4.215
X5.79Y-4.375
X5.805Y-4.835
X5.8837Y-2.935
X5.955Y-4.05
X5.955Y-4.18
X5.965Y-4.285
X5.985Y-4.45
X5.995Y-3.115
X6.0Y-3.97
X6.0Y-4.005
X6.0Y-4.285
X6.005Y-3.355
X6.005Y-3.455
X6.005Y-3.555
X6.005Y-3.655
X6.005Y-3.755
X6.005Y-3.855
X6.015Y-4.9863
X6.03Y-3.405
X6.03Y-3.505
X6.03Y-3.605
X6.03Y-3.705
X6.03Y-3.805
X6.03Y-3.905
X6.035Y-3.97
X6.035Y-4.005
X6.035Y-4.285
X6.04Y-4.75
X6.04Y-4.84
X6.04Y-4.93
X6.055Y-3.355
X6.055Y-3.455
X6.055Y-3.555
X6.055Y-3.655
X6.055Y-3.755
X6.055Y-3.855
X6.07Y-3.97
X6.07Y-4.005
X6.07Y-4.285
X6.075Y-4.45
X6.08Y-3.405
X6.08Y-3.505
X6.08Y-3.605
X6.08Y-3.705
X6.08Y-3.805
X6.08Y-3.905
X6.105Y-3.355
X6.105Y-3.455
X6.105Y-3.555
X6.105Y-3.655
X6.105Y-3.755
X6.105Y-3.855
X6.105Y-3.97
X6.105Y-4.005
X6.105Y-4.285
X6.13Y-3.405
X6.13Y-3.505
X6.13Y-3.605
X6.135Y-5.66
X6.155Y-3.355
X6.155Y-3.455
X6.155Y-3.555
X6.155Y-3.78
X6.16Y-4.255
X6.18Y-3.405
X6.18Y-3.505
X6.18Y-3.605
X6.195Y-5.14
X6.2025Y-4.7775
X6.205Y-3.355
X6.205Y-3.455
X6.205Y-3.555
X6.205Y-3.78
X6.21Y-4.335
X6.2176Y-4.6024
X6.23Y-3.405
X6.23Y-3.505
X6.23Y-3.605
X6.245Y-4.095
X6.245Y-4.13
X6.25Y-4.945
X6.255Y-3.355
X6.255Y-3.455
X6.255Y-3.555
X6.255Y-3.78
X6.255Y-4.51
X6.275Y-5.275
X6.28Y-3.405
X6.28Y-3.505
X6.28Y-3.605
X6.28Y-4.095
X6.28Y-4.13
X6.2924Y-4.6026
X6.295Y-5.66
X6.3Y-5.505
X6.3Y-5.585
X6.305Y-3.355
X6.305Y-3.455
X6.305Y-3.555
X6.305Y-3.78
X6.31Y-4.335
X6.33Y-3.405
X6.33Y-3.505
X6.33Y-3.605
X6.33Y-4.475
X6.345Y-5.14
X6.355Y-3.355
X6.355Y-3.455
X6.355Y-3.555
X6.355Y-3.655
X6.355Y-3.755
X6.355Y-3.855
X6.355Y-3.955
X6.3676Y-4.6024
X6.38Y-3.405
X6.38Y-3.505
X6.38Y-3.605
X6.38Y-3.705
X6.38Y-3.805
X6.38Y-3.905
X6.385Y-4.215
X6.385Y-4.37
X6.385Y-5.17
X6.405Y-3.355
X6.405Y-3.455
X6.405Y-3.555
X6.405Y-3.655
X6.405Y-3.755
X6.405Y-3.855
X6.405Y-3.955
X6.43Y-3.405
X6.43Y-3.505
X6.43Y-3.605
X6.43Y-3.705
X6.43Y-3.805
X6.43Y-3.905
X6.435Y-5.565
X6.4424Y-4.6026
X6.455Y-3.355
X6.455Y-3.455
X6.455Y-3.555
X6.455Y-3.655
X6.455Y-3.755
X6.455Y-3.855
X6.455Y-3.955
X6.46Y-4.97
X6.465Y-5.14
X6.465Y-5.6
X6.47Y-4.37
X6.4777Y-4.9347
X6.48Y-4.095
X6.48Y-4.215
X6.485Y-4.475
X6.495Y-5.365
X6.525Y-4.7
X6.525Y-4.655
X6.555Y-4.03
X6.555Y-4.065
X6.555Y-4.17
X6.555Y-4.205
X6.555Y-4.37
X6.555Y-5.14
X6.56Y-3.355
X6.56Y-3.455
X6.56Y-3.555
X6.56Y-3.655
X6.56Y-3.755
X6.56Y-3.855
X6.56Y-3.955
X6.585Y-3.405
X6.585Y-3.505
X6.585Y-3.605
X6.585Y-3.705
X6.585Y-3.805
X6.585Y-3.905
X6.59Y-4.03
X6.59Y-4.065
X6.59Y-4.17
X6.59Y-4.205
X6.61Y-3.355
X6.61Y-3.455
X6.61Y-3.555
X6.61Y-3.655
X6.61Y-3.755
X6.61Y-3.855
X6.61Y-3.955
X6.625Y-4.03
X6.625Y-4.065
X6.625Y-4.17
X6.625Y-4.205
X6.635Y-3.405
X6.635Y-3.505
X6.635Y-3.605
X6.635Y-3.705
X6.635Y-3.805
X6.635Y-3.905
X6.64Y-4.37
X6.66Y-3.355
X6.66Y-3.455
X6.66Y-3.555
X6.66Y-3.655
X6.66Y-3.755
X6.66Y-3.855
X6.66Y-3.955
X6.66Y-4.03
X6.66Y-4.065
X6.66Y-4.17
X6.66Y-4.205
X6.685Y-3.405
X6.685Y-3.505
X6.685Y-3.605
X6.71Y-3.355
X6.71Y-3.455
X6.71Y-3.555
X6.71Y-3.78
X6.72Y-4.675
X6.735Y-3.405
X6.735Y-3.505
X6.735Y-3.605
X6.76Y-3.355
X6.76Y-3.455
X6.76Y-3.555
X6.76Y-3.78
X6.765Y-4.335
X6.77Y-4.765
X6.785Y-3.405
X6.785Y-3.505
X6.785Y-3.605
X6.8Y-4.095
X6.8Y-4.13
X6.81Y-3.355
X6.81Y-3.455
X6.81Y-3.555
X6.81Y-3.78
X6.815Y-4.51
X6.835Y-3.405
X6.835Y-3.505
X6.835Y-3.605
X6.835Y-4.095
X6.835Y-4.13
X6.845Y-4.835
X6.8484Y-5.4466
X6.86Y-3.355
X6.86Y-3.455
X6.86Y-3.555
X6.86Y-3.78
X6.865Y-4.335
X6.885Y-3.405
X6.885Y-3.505
X6.885Y-3.605
X6.91Y-3.355
X6.91Y-3.455
X6.91Y-3.555
X6.91Y-3.655
X6.91Y-3.755
X6.91Y-3.855
X6.91Y-3.955
X6.92Y-4.675
X6.935Y-3.405
X6.935Y-3.505
X6.935Y-3.605
X6.935Y-3.705
X6.935Y-3.805
X6.935Y-3.905
X6.9353Y-2.6397
X6.9434Y-5.4466
X6.95Y-4.215
X6.95Y-4.375
X6.96Y-3.355
X6.96Y-3.455
X6.96Y-3.555
X6.96Y-3.655
X6.96Y-3.755
X6.96Y-3.855
X6.96Y-3.955
X6.985Y-3.405
X6.985Y-3.505
X6.985Y-3.605
X6.985Y-3.705
X6.985Y-3.805
X6.985Y-3.905
X7.01Y-3.355
X7.01Y-3.455
X7.01Y-3.555
X7.01Y-3.655
X7.01Y-3.755
X7.01Y-3.855
X7.01Y-3.955
X7.02Y-3.115
X7.045Y-4.215
X7.045Y-4.375
X7.045Y-4.835
X7.05Y-2.935
X7.14Y-2.935
X7.19Y-4.05
X7.19Y-4.18
X7.195Y-4.285
X7.215Y-4.45
X7.23Y-4.285
X7.235Y-3.115
X7.235Y-3.97
X7.235Y-4.005
X7.24Y-3.355
X7.24Y-3.455
X7.24Y-3.555
X7.24Y-3.655
X7.24Y-3.755
X7.24Y-3.855
X7.255Y-4.985
X7.265Y-3.405
X7.265Y-3.505
X7.265Y-3.605
X7.265Y-3.705
X7.265Y-3.805
X7.265Y-3.905
X7.265Y-4.285
X7.27Y-3.97
X7.27Y-4.005
X7.28Y-4.75
X7.28Y-4.84
X7.28Y-4.93
X7.29Y-3.355
X7.29Y-3.455
X7.29Y-3.555
X7.29Y-3.655
X7.29Y-3.755
X7.29Y-3.855
X7.3Y-4.285
X7.305Y-3.97
X7.305Y-4.005
X7.31Y-4.45
X7.315Y-3.405
X7.315Y-3.505
X7.315Y-3.605
X7.315Y-3.705
X7.315Y-3.805
X7.315Y-3.905
X7.335Y-4.285
X7.34Y-3.355
X7.34Y-3.455
X7.34Y-3.555
X7.34Y-3.655
X7.34Y-3.755
X7.34Y-3.855
X7.34Y-3.97
X7.34Y-4.005
X7.365Y-3.405
X7.365Y-3.505
X7.365Y-3.605
X7.375Y-5.66
X7.39Y-3.355
X7.39Y-3.455
X7.39Y-3.555
X7.39Y-3.78
X7.395Y-4.255
X7.415Y-3.405
X7.415Y-3.505
X7.415Y-3.605
X7.435Y-5.14
X7.44Y-3.355
X7.44Y-3.455
X7.44Y-3.555
X7.44Y-3.78
X7.4418Y-4.7782
X7.445Y-4.335
X7.4526Y-4.5974
X7.465Y-3.405
X7.465Y-3.505
X7.465Y-3.605
X7.48Y-4.095
X7.48Y-4.13
X7.485Y-4.945
X7.49Y-3.355
X7.49Y-3.455
X7.49Y-3.555
X7.49Y-3.78
X7.49Y-4.51
X7.515Y-3.405
X7.515Y-3.505
X7.515Y-3.605
X7.515Y-4.095
X7.515Y-4.13
X7.515Y-5.2363
X7.5274Y-4.5976
X7.53Y-5.66
X7.54Y-3.355
X7.54Y-3.455
X7.54Y-3.555
X7.54Y-3.78
X7.545Y-4.335
X7.545Y-5.5
X7.545Y-5.58
X7.565Y-3.405
X7.565Y-3.505
X7.565Y-3.605
X7.565Y-4.475
X7.585Y-5.14
X7.59Y-3.355
X7.59Y-3.455
X7.59Y-3.555
X7.59Y-3.655
X7.59Y-3.755
X7.59Y-3.855
X7.59Y-3.955
X7.6026Y-4.5974
X7.615Y-3.405
X7.615Y-3.505
X7.615Y-3.605
X7.615Y-3.705
X7.615Y-3.805
X7.615Y-3.905
X7.62Y-4.215
X7.62Y-4.37
X7.62Y-5.17
X7.64Y-3.355
X7.64Y-3.455
X7.64Y-3.555
X7.64Y-3.655
X7.64Y-3.755
X7.64Y-3.855
X7.64Y-3.955
X7.665Y-3.405
X7.665Y-3.505
X7.665Y-3.605
X7.665Y-3.705
X7.665Y-3.805
X7.665Y-3.905
X7.6774Y-4.5976
X7.6894Y-5.5637
X7.69Y-3.355
X7.69Y-3.455
X7.69Y-3.555
X7.69Y-3.655
X7.69Y-3.755
X7.69Y-3.855
X7.69Y-3.955
X7.695Y-4.97
X7.705Y-4.37
X7.705Y-5.14
X7.705Y-5.6
X7.715Y-4.095
X7.715Y-4.215
X7.72Y-4.475
X7.72Y-4.935
X7.735Y-5.365
X7.765Y-4.655
X7.765Y-4.7
X7.785Y-4.17
X7.785Y-4.205
X7.79Y-4.37
X7.795Y-4.03
X7.795Y-4.065
X7.795Y-5.14
X7.8Y-3.355
X7.8Y-3.455
X7.8Y-3.555
X7.8Y-3.655
X7.8Y-3.755
X7.8Y-3.855
X7.8Y-3.955
X7.82Y-4.17
X7.82Y-4.205
X7.825Y-3.405
X7.825Y-3.505
X7.825Y-3.605
X7.825Y-3.705
X7.825Y-3.805
X7.825Y-3.905
X7.83Y-4.03
X7.83Y-4.065
X7.85Y-3.355
X7.85Y-3.455
X7.85Y-3.555
X7.85Y-3.655
X7.85Y-3.755
X7.85Y-3.855
X7.85Y-3.955
X7.855Y-4.17
X7.855Y-4.205
X7.865Y-4.03
X7.865Y-4.065
X7.875Y-3.405
X7.875Y-3.505
X7.875Y-3.605
X7.875Y-3.705
X7.875Y-3.805
X7.875Y-3.905
X7.875Y-4.37
X7.89Y-4.17
X7.89Y-4.205
X7.9Y-3.355
X7.9Y-3.455
X7.9Y-3.555
X7.9Y-3.655
X7.9Y-3.755
X7.9Y-3.855
X7.9Y-3.955
X7.9Y-4.03
X7.9Y-4.065
X7.925Y-3.405
X7.925Y-3.505
X7.925Y-3.605
X7.95Y-3.355
X7.95Y-3.455
X7.95Y-3.555
X7.95Y-3.78
X7.96Y-4.675
X7.975Y-3.405
X7.975Y-3.505
X7.975Y-3.605
X8.0Y-3.355
X8.0Y-3.455
X8.0Y-3.555
X8.0Y-3.78
X8.0Y-4.335
X8.01Y-4.765
X8.025Y-3.405
X8.025Y-3.505
X8.025Y-3.605
X8.035Y-4.095
X8.035Y-4.13
X8.05Y-3.355
X8.05Y-3.455
X8.05Y-3.555
X8.05Y-3.78
X8.05Y-4.505
X8.07Y-4.095
X8.07Y-4.13
X8.075Y-3.405
X8.075Y-3.505
X8.075Y-3.605
X8.085Y-4.835
X8.0884Y-5.4466
X8.1Y-3.355
X8.1Y-3.455
X8.1Y-3.555
X8.1Y-3.78
X8.1Y-4.335
X8.125Y-3.405
X8.125Y-3.505
X8.125Y-3.605
X8.15Y-3.355
X8.15Y-3.455
X8.15Y-3.555
X8.15Y-3.655
X8.15Y-3.755
X8.15Y-3.855
X8.15Y-3.955
X8.16Y-4.675
X8.1747Y-2.6397
X8.175Y-3.405
X8.175Y-3.505
X8.175Y-3.605
X8.175Y-3.705
X8.175Y-3.805
X8.175Y-3.905
X8.1834Y-5.4466
X8.185Y-4.215
X8.185Y-4.375
X8.2Y-3.355
X8.2Y-3.455
X8.2Y-3.555
X8.2Y-3.655
X8.2Y-3.755
X8.2Y-3.855
X8.2Y-3.955
X8.225Y-3.405
X8.225Y-3.505
X8.225Y-3.605
X8.225Y-3.705
X8.225Y-3.805
X8.225Y-3.905
X8.25Y-3.355
X8.25Y-3.455
X8.25Y-3.555
X8.25Y-3.655
X8.25Y-3.755
X8.25Y-3.855
X8.25Y-3.955
X8.26Y-3.115
X8.275Y-2.935
X8.28Y-4.215
X8.28Y-4.375
X8.285Y-4.835
X8.3787Y-2.935
T3
X8.4547Y-5.7087
X8.4807Y-5.646
X8.4807Y-5.7713
X8.5433Y-5.6201
X8.5433Y-5.7972
X8.6059Y-5.646
X8.6059Y-5.7713
X8.6319Y-5.7087
X2.0768Y-2.7559
X2.1027Y-2.6933
X2.1027Y-2.8185
X2.1654Y-2.6673
X2.1654Y-2.8445
X2.228Y-2.6933
X2.228Y-2.8185
X2.2539Y-2.7559
X8.4547Y-2.7559
X8.4807Y-2.6933
X8.4807Y-2.8185
X8.5433Y-2.6673
X8.5433Y-2.8445
X8.6059Y-2.6933
X8.6059Y-2.8185
X8.6319Y-2.7559
X2.0768Y-5.7087
X2.1027Y-5.646
X2.1027Y-5.7713
X2.1654Y-5.6201
X2.1654Y-5.7972
X2.228Y-5.646
X2.228Y-5.7713
X2.2539Y-5.7087
T4
X2.6378Y-3.005
X2.6378Y-3.105
X2.7378Y-3.005
X2.7378Y-3.105
X2.8378Y-3.005
X2.8378Y-3.105
X2.9378Y-3.005
X2.9378Y-3.105
X3.0378Y-3.005
X3.0378Y-3.105
X3.1378Y-3.005
X3.1378Y-3.105
X3.2378Y-3.005
X3.2378Y-3.105
T5
X7.595Y-2.99
X7.6934Y-2.99
X7.7919Y-2.99
X7.8903Y-2.99
X6.37Y-2.99
X6.4684Y-2.99
X6.5669Y-2.99
X6.6653Y-2.99
X5.12Y-2.9906
X5.2184Y-2.9906
X5.3169Y-2.9906
X5.4153Y-2.9906
X3.915Y-2.9906
X4.0134Y-2.9906
X4.1119Y-2.9906
X4.2103Y-2.9906
T7
X8.5433Y-5.7087
X2.1654Y-2.7559
X8.5433Y-2.7559
X2.1654Y-5.7087
T6
G00X2.6909Y-4.1154
M15
G01X2.8091Y-4.1154
M16
G05
G00X2.775Y-4.4119
M15
G01X2.775Y-4.2937
M16
G05
T0
M30
