%TF.GenerationSoftware,KiCad,Pcbnew,(5.1.8-0-10_14)*%
%TF.CreationDate,2021-12-04T19:42:54-08:00*%
%TF.ProjectId,Control,436f6e74-726f-46c2-9e6b-696361645f70,rev?*%
%TF.SameCoordinates,Original*%
%TF.FileFunction,Copper,L4,Bot*%
%TF.FilePolarity,Positive*%
%FSLAX46Y46*%
G04 Gerber Fmt 4.6, Leading zero omitted, Abs format (unit mm)*
G04 Created by KiCad (PCBNEW (5.1.8-0-10_14)) date 2021-12-04 19:42:54*
%MOMM*%
%LPD*%
G01*
G04 APERTURE LIST*
%TA.AperFunction,ComponentPad*%
%ADD10O,4.000000X7.000000*%
%TD*%
%TA.AperFunction,ComponentPad*%
%ADD11C,2.000000*%
%TD*%
%TA.AperFunction,ComponentPad*%
%ADD12C,0.800000*%
%TD*%
%TA.AperFunction,ComponentPad*%
%ADD13C,6.000000*%
%TD*%
%TA.AperFunction,ComponentPad*%
%ADD14C,4.000000*%
%TD*%
%TA.AperFunction,SMDPad,CuDef*%
%ADD15R,1.100000X1.500000*%
%TD*%
%TA.AperFunction,ComponentPad*%
%ADD16O,1.700000X1.700000*%
%TD*%
%TA.AperFunction,ComponentPad*%
%ADD17R,1.700000X1.700000*%
%TD*%
%TA.AperFunction,ComponentPad*%
%ADD18C,1.700000*%
%TD*%
%TA.AperFunction,ComponentPad*%
%ADD19C,1.485900*%
%TD*%
%TA.AperFunction,ComponentPad*%
%ADD20R,2.000000X2.000000*%
%TD*%
%TA.AperFunction,ViaPad*%
%ADD21C,0.800000*%
%TD*%
%TA.AperFunction,Conductor*%
%ADD22C,0.381000*%
%TD*%
%TA.AperFunction,Conductor*%
%ADD23C,0.254000*%
%TD*%
%TA.AperFunction,Conductor*%
%ADD24C,0.100000*%
%TD*%
G04 APERTURE END LIST*
D10*
%TO.P,SW1,MP*%
%TO.N,N/C*%
X112290000Y-101600000D03*
X121390000Y-101600000D03*
D11*
%TO.P,SW1,S2*%
%TO.N,GND*%
X114340000Y-94600000D03*
%TO.P,SW1,S1*%
%TO.N,ENC_SEL_SW*%
X119340000Y-94600000D03*
%TO.P,SW1,A*%
%TO.N,ENC_A_SW*%
X119340000Y-109100000D03*
%TO.P,SW1,B*%
%TO.N,ENC_B_SW*%
X114340000Y-109100000D03*
%TO.P,SW1,C*%
%TO.N,GND*%
X116840000Y-109100000D03*
%TD*%
D12*
%TO.P,H4,1*%
%TO.N,Net-(H4-Pad1)*%
X230190990Y-127949010D03*
X228600000Y-127290000D03*
X227009010Y-127949010D03*
X226350000Y-129540000D03*
X227009010Y-131130990D03*
X228600000Y-131790000D03*
X230190990Y-131130990D03*
X230850000Y-129540000D03*
D13*
X228600000Y-129540000D03*
%TD*%
D12*
%TO.P,H3,1*%
%TO.N,Net-(H3-Pad1)*%
X61280990Y-129219010D03*
X59690000Y-128560000D03*
X58099010Y-129219010D03*
X57440000Y-130810000D03*
X58099010Y-132400990D03*
X59690000Y-133060000D03*
X61280990Y-132400990D03*
X61940000Y-130810000D03*
D13*
X59690000Y-130810000D03*
%TD*%
D12*
%TO.P,H2,1*%
%TO.N,Net-(H2-Pad1)*%
X230190990Y-66989010D03*
X228600000Y-66330000D03*
X227009010Y-66989010D03*
X226350000Y-68580000D03*
X227009010Y-70170990D03*
X228600000Y-70830000D03*
X230190990Y-70170990D03*
X230850000Y-68580000D03*
D13*
X228600000Y-68580000D03*
%TD*%
D12*
%TO.P,H1,1*%
%TO.N,Net-(H1-Pad1)*%
X61280990Y-66989010D03*
X59690000Y-66330000D03*
X58099010Y-66989010D03*
X57440000Y-68580000D03*
X58099010Y-70170990D03*
X59690000Y-70830000D03*
X61280990Y-70170990D03*
X61940000Y-68580000D03*
D13*
X59690000Y-68580000D03*
%TD*%
D14*
%TO.P,USB1,5*%
%TO.N,GND*%
X133134000Y-118943000D03*
X133134000Y-132083000D03*
%TO.P,USB1,4*%
%TA.AperFunction,ComponentPad*%
G36*
G01*
X135219000Y-128263000D02*
X136469000Y-128263000D01*
G75*
G02*
X136844000Y-128638000I0J-375000D01*
G01*
X136844000Y-129388000D01*
G75*
G02*
X136469000Y-129763000I-375000J0D01*
G01*
X135219000Y-129763000D01*
G75*
G02*
X134844000Y-129388000I0J375000D01*
G01*
X134844000Y-128638000D01*
G75*
G02*
X135219000Y-128263000I375000J0D01*
G01*
G37*
%TD.AperFunction*%
%TO.P,USB1,3*%
%TO.N,Net-(R6-Pad1)*%
%TA.AperFunction,ComponentPad*%
G36*
G01*
X135219000Y-125763000D02*
X136469000Y-125763000D01*
G75*
G02*
X136844000Y-126138000I0J-375000D01*
G01*
X136844000Y-126888000D01*
G75*
G02*
X136469000Y-127263000I-375000J0D01*
G01*
X135219000Y-127263000D01*
G75*
G02*
X134844000Y-126888000I0J375000D01*
G01*
X134844000Y-126138000D01*
G75*
G02*
X135219000Y-125763000I375000J0D01*
G01*
G37*
%TD.AperFunction*%
%TO.P,USB1,2*%
%TO.N,Net-(R7-Pad1)*%
%TA.AperFunction,ComponentPad*%
G36*
G01*
X135219000Y-123763000D02*
X136469000Y-123763000D01*
G75*
G02*
X136844000Y-124138000I0J-375000D01*
G01*
X136844000Y-124888000D01*
G75*
G02*
X136469000Y-125263000I-375000J0D01*
G01*
X135219000Y-125263000D01*
G75*
G02*
X134844000Y-124888000I0J375000D01*
G01*
X134844000Y-124138000D01*
G75*
G02*
X135219000Y-123763000I375000J0D01*
G01*
G37*
%TD.AperFunction*%
%TO.P,USB1,1*%
%TO.N,Net-(U5-Pad5)*%
%TA.AperFunction,ComponentPad*%
G36*
G01*
X135219000Y-121263000D02*
X136469000Y-121263000D01*
G75*
G02*
X136844000Y-121638000I0J-375000D01*
G01*
X136844000Y-122388000D01*
G75*
G02*
X136469000Y-122763000I-375000J0D01*
G01*
X135219000Y-122763000D01*
G75*
G02*
X134844000Y-122388000I0J375000D01*
G01*
X134844000Y-121638000D01*
G75*
G02*
X135219000Y-121263000I375000J0D01*
G01*
G37*
%TD.AperFunction*%
%TD*%
D15*
%TO.P,D1,4*%
%TO.N,Net-(D1-Pad4)*%
X76950000Y-72160000D03*
%TO.P,D1,3*%
%TO.N,Net-(D1-Pad3)*%
X76950000Y-75160000D03*
%TO.P,D1,2*%
%TO.N,GND*%
X75450000Y-75160000D03*
%TO.P,D1,1*%
%TO.N,Net-(D1-Pad1)*%
X75450000Y-72160000D03*
%TD*%
D16*
%TO.P,SW3,3*%
%TO.N,FIRE_LATCH_SW*%
X101600000Y-104140000D03*
%TO.P,SW3,2*%
%TO.N,GND*%
X101600000Y-101600000D03*
D17*
%TO.P,SW3,1*%
%TO.N,FIRE_MOM_SW*%
X101600000Y-99060000D03*
%TD*%
D16*
%TO.P,SW2,2*%
%TO.N,GND*%
X229870000Y-101600000D03*
D17*
%TO.P,SW2,1*%
%TO.N,INTERLOCK_SW*%
X229870000Y-99060000D03*
%TD*%
%TO.P,R10,2*%
%TO.N,LED_R*%
%TA.AperFunction,SMDPad,CuDef*%
G36*
G01*
X83585000Y-71570001D02*
X83585000Y-70669999D01*
G75*
G02*
X83834999Y-70420000I249999J0D01*
G01*
X84360001Y-70420000D01*
G75*
G02*
X84610000Y-70669999I0J-249999D01*
G01*
X84610000Y-71570001D01*
G75*
G02*
X84360001Y-71820000I-249999J0D01*
G01*
X83834999Y-71820000D01*
G75*
G02*
X83585000Y-71570001I0J249999D01*
G01*
G37*
%TD.AperFunction*%
%TO.P,R10,1*%
%TO.N,Net-(D1-Pad1)*%
%TA.AperFunction,SMDPad,CuDef*%
G36*
G01*
X81760000Y-71570001D02*
X81760000Y-70669999D01*
G75*
G02*
X82009999Y-70420000I249999J0D01*
G01*
X82535001Y-70420000D01*
G75*
G02*
X82785000Y-70669999I0J-249999D01*
G01*
X82785000Y-71570001D01*
G75*
G02*
X82535001Y-71820000I-249999J0D01*
G01*
X82009999Y-71820000D01*
G75*
G02*
X81760000Y-71570001I0J249999D01*
G01*
G37*
%TD.AperFunction*%
%TD*%
%TO.P,R9,2*%
%TO.N,LED_G*%
%TA.AperFunction,SMDPad,CuDef*%
G36*
G01*
X83585000Y-76650001D02*
X83585000Y-75749999D01*
G75*
G02*
X83834999Y-75500000I249999J0D01*
G01*
X84360001Y-75500000D01*
G75*
G02*
X84610000Y-75749999I0J-249999D01*
G01*
X84610000Y-76650001D01*
G75*
G02*
X84360001Y-76900000I-249999J0D01*
G01*
X83834999Y-76900000D01*
G75*
G02*
X83585000Y-76650001I0J249999D01*
G01*
G37*
%TD.AperFunction*%
%TO.P,R9,1*%
%TO.N,Net-(D1-Pad3)*%
%TA.AperFunction,SMDPad,CuDef*%
G36*
G01*
X81760000Y-76650001D02*
X81760000Y-75749999D01*
G75*
G02*
X82009999Y-75500000I249999J0D01*
G01*
X82535001Y-75500000D01*
G75*
G02*
X82785000Y-75749999I0J-249999D01*
G01*
X82785000Y-76650001D01*
G75*
G02*
X82535001Y-76900000I-249999J0D01*
G01*
X82009999Y-76900000D01*
G75*
G02*
X81760000Y-76650001I0J249999D01*
G01*
G37*
%TD.AperFunction*%
%TD*%
%TO.P,R8,2*%
%TO.N,LED_B*%
%TA.AperFunction,SMDPad,CuDef*%
G36*
G01*
X83585000Y-74110001D02*
X83585000Y-73209999D01*
G75*
G02*
X83834999Y-72960000I249999J0D01*
G01*
X84360001Y-72960000D01*
G75*
G02*
X84610000Y-73209999I0J-249999D01*
G01*
X84610000Y-74110001D01*
G75*
G02*
X84360001Y-74360000I-249999J0D01*
G01*
X83834999Y-74360000D01*
G75*
G02*
X83585000Y-74110001I0J249999D01*
G01*
G37*
%TD.AperFunction*%
%TO.P,R8,1*%
%TO.N,Net-(D1-Pad4)*%
%TA.AperFunction,SMDPad,CuDef*%
G36*
G01*
X81760000Y-74110001D02*
X81760000Y-73209999D01*
G75*
G02*
X82009999Y-72960000I249999J0D01*
G01*
X82535001Y-72960000D01*
G75*
G02*
X82785000Y-73209999I0J-249999D01*
G01*
X82785000Y-74110001D01*
G75*
G02*
X82535001Y-74360000I-249999J0D01*
G01*
X82009999Y-74360000D01*
G75*
G02*
X81760000Y-74110001I0J249999D01*
G01*
G37*
%TD.AperFunction*%
%TD*%
D18*
%TO.P,MCU1,14*%
%TO.N,GND*%
X190500000Y-71120000D03*
%TO.P,MCU1,12*%
%TO.N,INTERLOCK_SW*%
X193040000Y-71120000D03*
%TO.P,MCU1,10*%
%TO.N,TEC_ENABLE*%
X195580000Y-71120000D03*
%TO.P,MCU1,8*%
%TO.N,CS_TEC_SET*%
X198120000Y-71120000D03*
%TO.P,MCU1,6*%
%TO.N,RST_LASER*%
X200660000Y-71120000D03*
%TO.P,MCU1,4*%
%TO.N,SCK*%
X203200000Y-71120000D03*
%TO.P,MCU1,2*%
%TO.N,MOSI*%
X205740000Y-71120000D03*
%TO.P,MCU1,13*%
%TO.N,INTERLOCK_EN*%
X190500000Y-68580000D03*
%TO.P,MCU1,11*%
%TO.N,CS_CHARGE*%
X193040000Y-68580000D03*
%TO.P,MCU1,9*%
%TO.N,CS_TEC_READ*%
X195580000Y-68580000D03*
%TO.P,MCU1,7*%
%TO.N,TMP_LASER*%
X198120000Y-68580000D03*
%TO.P,MCU1,5*%
%TO.N,CS_LASER*%
X200660000Y-68580000D03*
%TO.P,MCU1,3*%
%TO.N,MISO*%
X203200000Y-68580000D03*
%TO.P,MCU1,1*%
%TO.N,+3V0*%
%TA.AperFunction,ComponentPad*%
G36*
G01*
X205140000Y-67730000D02*
X206340000Y-67730000D01*
G75*
G02*
X206590000Y-67980000I0J-250000D01*
G01*
X206590000Y-69180000D01*
G75*
G02*
X206340000Y-69430000I-250000J0D01*
G01*
X205140000Y-69430000D01*
G75*
G02*
X204890000Y-69180000I0J250000D01*
G01*
X204890000Y-67980000D01*
G75*
G02*
X205140000Y-67730000I250000J0D01*
G01*
G37*
%TD.AperFunction*%
%TD*%
D19*
%TO.P,ISP1,6*%
%TO.N,RXD*%
X186436000Y-86360000D03*
%TO.P,ISP1,5*%
%TO.N,RESET*%
X186436000Y-84328000D03*
%TD*%
D11*
%TO.P,DISP1,20*%
%TO.N,GND*%
X158750000Y-120650000D03*
%TO.P,DISP1,19*%
X161290000Y-120650000D03*
%TO.P,DISP1,18*%
%TO.N,N/C*%
X163830000Y-120650000D03*
%TO.P,DISP1,17*%
%TO.N,DISP_CS*%
X166370000Y-120650000D03*
%TO.P,DISP1,16*%
%TO.N,DISP_RES*%
X168910000Y-120650000D03*
%TO.P,DISP1,15*%
%TO.N,N/C*%
X171450000Y-120650000D03*
%TO.P,DISP1,14*%
%TO.N,GND*%
X173990000Y-120650000D03*
%TO.P,DISP1,13*%
X176530000Y-120650000D03*
%TO.P,DISP1,12*%
X179070000Y-120650000D03*
%TO.P,DISP1,11*%
X181610000Y-120650000D03*
D20*
%TO.P,DISP1,1*%
X207010000Y-120650000D03*
D11*
%TO.P,DISP1,2*%
%TO.N,+3V0*%
X204470000Y-120650000D03*
%TO.P,DISP1,3*%
%TO.N,N/C*%
X201930000Y-120650000D03*
%TO.P,DISP1,4*%
%TO.N,DISP_DC*%
X199390000Y-120650000D03*
%TO.P,DISP1,5*%
%TO.N,GND*%
X196850000Y-120650000D03*
%TO.P,DISP1,6*%
X194310000Y-120650000D03*
%TO.P,DISP1,7*%
%TO.N,SCK*%
X191770000Y-120650000D03*
%TO.P,DISP1,8*%
%TO.N,MOSI*%
X189230000Y-120650000D03*
%TO.P,DISP1,9*%
%TO.N,N/C*%
X186690000Y-120650000D03*
%TO.P,DISP1,10*%
%TO.N,GND*%
X184150000Y-120650000D03*
%TD*%
D21*
%TO.N,GND*%
X74295000Y-74930000D03*
X211455000Y-97155000D03*
X211455000Y-104775000D03*
X195072000Y-86360000D03*
X214884000Y-73152000D03*
X207518000Y-114300000D03*
X206502000Y-116840000D03*
X190500000Y-99060000D03*
X190500000Y-101600000D03*
X194564000Y-102108000D03*
X189230000Y-95250000D03*
X182880000Y-81915000D03*
X173990000Y-89535000D03*
X117540000Y-84328000D03*
X125160000Y-80264000D03*
X117540000Y-92456000D03*
X146170546Y-121414467D03*
X147955000Y-124369798D03*
X144800000Y-129520000D03*
X144145000Y-123190000D03*
X139700000Y-128905000D03*
X139700000Y-117475000D03*
X190881000Y-82550000D03*
X206756000Y-103632000D03*
%TO.N,+3V0*%
X207645000Y-104775000D03*
X214884000Y-68072000D03*
X202438000Y-114300000D03*
X202438000Y-116840000D03*
X194532000Y-99600000D03*
X200660000Y-112268000D03*
X194310000Y-95250000D03*
X179900500Y-82989500D03*
X171704000Y-81280000D03*
X125160000Y-84328000D03*
X146700000Y-129525000D03*
X147955000Y-121920000D03*
X191734721Y-83728276D03*
X206756000Y-101600000D03*
%TO.N,DISP_CS*%
X197612000Y-117348000D03*
%TO.N,DISP_RES*%
X199450500Y-107696000D03*
X196596000Y-118364000D03*
X196596000Y-107696000D03*
%TO.N,SCK*%
X203200000Y-80264000D03*
X194564000Y-103632000D03*
X196410000Y-97350000D03*
X189992000Y-88900000D03*
X177165000Y-80645000D03*
%TO.N,MOSI*%
X205740000Y-77724000D03*
X195580000Y-77724000D03*
X193040000Y-104902003D03*
X173355000Y-77470000D03*
X198120000Y-101600000D03*
%TO.N,MISO*%
X204440501Y-78740000D03*
X191896974Y-78740000D03*
X179070000Y-78740000D03*
X191928710Y-86868000D03*
X191897000Y-81280000D03*
%TO.N,RXD*%
X201850500Y-107696000D03*
X186436000Y-99547865D03*
%TO.N,TXD*%
X202692000Y-109728000D03*
X186436000Y-81108500D03*
X185356500Y-103568500D03*
%TO.N,RESET*%
X201060000Y-108604000D03*
%TO.N,TEC_ENABLE*%
X200660000Y-104140000D03*
X196850000Y-88265000D03*
%TO.N,CS_TEC_SET*%
X200660000Y-99060000D03*
X198120000Y-86995000D03*
%TO.N,RST_LASER*%
X200660000Y-84455000D03*
X200152000Y-102870000D03*
%TO.N,TMP_LASER*%
X202184008Y-99060000D03*
X199390000Y-85725000D03*
%TO.N,CS_LASER*%
X201900501Y-83155501D03*
X201908687Y-101875313D03*
%TO.N,LED_R*%
X203200000Y-104449998D03*
X208915004Y-74295000D03*
X205232000Y-89915984D03*
%TO.N,LED_G*%
X211455000Y-76835000D03*
%TO.N,LED_B*%
X210185000Y-75565000D03*
%TO.N,BUTTON_IRQ*%
X202184000Y-92456000D03*
X177800000Y-85852000D03*
%TO.N,CS_BUTTONS*%
X203708000Y-111252000D03*
X175895000Y-84455000D03*
%TO.N,Net-(R6-Pad1)*%
X139065014Y-121285000D03*
%TD*%
D22*
%TO.N,GND*%
X74525000Y-75160000D02*
X74295000Y-74930000D01*
X75450000Y-75160000D02*
X74525000Y-75160000D01*
%TO.N,Net-(D1-Pad4)*%
X78450000Y-73660000D02*
X76950000Y-72160000D01*
X78450000Y-73660000D02*
X82272500Y-73660000D01*
%TO.N,Net-(D1-Pad3)*%
X77990000Y-76200000D02*
X76950000Y-75160000D01*
X79732500Y-76200000D02*
X77990000Y-76200000D01*
X79732500Y-76200000D02*
X82272500Y-76200000D01*
%TO.N,DISP_CS*%
X193701954Y-117348000D02*
X197612000Y-117348000D01*
X169672000Y-117348000D02*
X193701954Y-117348000D01*
X166370000Y-120650000D02*
X169672000Y-117348000D01*
%TO.N,DISP_RES*%
X168910000Y-120142000D02*
X168910000Y-120650000D01*
X170688000Y-118364000D02*
X168910000Y-120142000D01*
X196596000Y-118364000D02*
X170688000Y-118364000D01*
X199450500Y-107696000D02*
X196596000Y-107696000D01*
%TO.N,SCK*%
X196410000Y-101786000D02*
X196410000Y-97350000D01*
X194564000Y-103632000D02*
X196410000Y-101786000D01*
X189992000Y-80645000D02*
X189992000Y-88900000D01*
X190373000Y-80264000D02*
X189992000Y-80645000D01*
X203200000Y-80264000D02*
X190373000Y-80264000D01*
X177546000Y-80264000D02*
X177165000Y-80645000D01*
X190373000Y-80264000D02*
X177546000Y-80264000D01*
%TO.N,MOSI*%
X205740000Y-77724000D02*
X195580000Y-77724000D01*
X195580000Y-77724000D02*
X173609000Y-77724000D01*
X173609000Y-77724000D02*
X173355000Y-77470000D01*
X193040000Y-104902003D02*
X194817997Y-104902003D01*
X194817997Y-104902003D02*
X198120000Y-101600000D01*
%TO.N,MISO*%
X179518328Y-78740000D02*
X191896974Y-78740000D01*
X204440501Y-78740000D02*
X191896974Y-78740000D01*
X179518328Y-78740000D02*
X179070000Y-78740000D01*
X191897000Y-82804000D02*
X191897000Y-81280000D01*
X192538301Y-83445301D02*
X191897000Y-82804000D01*
X192538301Y-86258409D02*
X192538301Y-83445301D01*
X191928710Y-86868000D02*
X192538301Y-86258409D01*
%TO.N,RXD*%
X195428636Y-108540501D02*
X186436000Y-99547865D01*
X186436000Y-99547865D02*
X186436000Y-86360000D01*
X199855861Y-108540501D02*
X195428636Y-108540501D01*
X200700362Y-107696000D02*
X199855861Y-108540501D01*
X201850500Y-107696000D02*
X200700362Y-107696000D01*
%TO.N,TXD*%
X183896000Y-83648500D02*
X186436000Y-81108500D01*
X202292001Y-110127999D02*
X191915999Y-110127999D01*
X183896000Y-102108000D02*
X183896000Y-83648500D01*
X202692000Y-109728000D02*
X202292001Y-110127999D01*
X185356500Y-103568500D02*
X183896000Y-102108000D01*
X191915999Y-110127999D02*
X185356500Y-103568500D01*
%TO.N,RESET*%
X186436000Y-84328000D02*
X185248549Y-85515451D01*
X185248549Y-85515451D02*
X185248549Y-100920549D01*
X185248549Y-100920549D02*
X193547999Y-109219999D01*
X200444001Y-109219999D02*
X201060000Y-108604000D01*
X193547999Y-109219999D02*
X200444001Y-109219999D01*
%TO.N,TEC_ENABLE*%
X199411499Y-103457184D02*
X200094315Y-104140000D01*
X198120000Y-89535000D02*
X198120000Y-99695000D01*
X200094315Y-104140000D02*
X200660000Y-104140000D01*
X198120000Y-99695000D02*
X199411499Y-100986499D01*
X196850000Y-88265000D02*
X198120000Y-89535000D01*
X199411499Y-100986499D02*
X199411499Y-103457184D01*
%TO.N,CS_TEC_SET*%
X199390000Y-88265000D02*
X199390000Y-97790000D01*
X198120000Y-86995000D02*
X199390000Y-88265000D01*
X199390000Y-97790000D02*
X200660000Y-99060000D01*
%TO.N,RST_LASER*%
X200152000Y-102304315D02*
X200152000Y-102870000D01*
X203200000Y-86995000D02*
X203200000Y-99256315D01*
X203200000Y-99256315D02*
X200152000Y-102304315D01*
X200660000Y-84455000D02*
X203200000Y-86995000D01*
%TO.N,TMP_LASER*%
X200660000Y-86995000D02*
X200660000Y-97535992D01*
X199390000Y-85725000D02*
X200660000Y-86995000D01*
X200660000Y-97535992D02*
X202184008Y-99060000D01*
%TO.N,CS_LASER*%
X204289011Y-99494989D02*
X201908687Y-101875313D01*
X201900501Y-83155501D02*
X204289011Y-85544011D01*
X204289011Y-85544011D02*
X204289011Y-99494989D01*
%TO.N,LED_R*%
X84097500Y-71120000D02*
X85367500Y-72390000D01*
X203200000Y-104140000D02*
X205232000Y-102108000D01*
X205232000Y-102108000D02*
X205232000Y-89915984D01*
X203200000Y-104449998D02*
X203200000Y-104140000D01*
X183515000Y-72390000D02*
X185420000Y-74295000D01*
X185420000Y-74295000D02*
X208915004Y-74295000D01*
X85344000Y-72390000D02*
X183515000Y-72390000D01*
%TO.N,LED_G*%
X85367500Y-74930000D02*
X84097500Y-76200000D01*
X182245000Y-74930000D02*
X85344000Y-74930000D01*
X184150000Y-76835000D02*
X182245000Y-74930000D01*
X211455000Y-76835000D02*
X184150000Y-76835000D01*
%TO.N,LED_B*%
X182880000Y-73660000D02*
X180340000Y-73660000D01*
X180340000Y-73660000D02*
X84328000Y-73660000D01*
X184785000Y-75565000D02*
X182880000Y-73660000D01*
X210185000Y-75565000D02*
X184785000Y-75565000D01*
%TO.N,CS_BUTTONS*%
X175895000Y-96647000D02*
X190500000Y-111252000D01*
X190500000Y-111252000D02*
X203708000Y-111252000D01*
X175895000Y-84455000D02*
X175895000Y-96647000D01*
%TO.N,Net-(D1-Pad1)*%
X76006299Y-71100799D02*
X75450000Y-71657098D01*
X75450000Y-71657098D02*
X75450000Y-72160000D01*
X76006299Y-71095039D02*
X76006299Y-71100799D01*
X76085039Y-71016299D02*
X76006299Y-71095039D01*
X77814961Y-71016299D02*
X76085039Y-71016299D01*
X77818161Y-71019499D02*
X77814961Y-71016299D01*
X82171999Y-71019499D02*
X82272500Y-71120000D01*
X77818161Y-71019499D02*
X82171999Y-71019499D01*
%TO.N,Net-(R6-Pad1)*%
X139065014Y-124291986D02*
X139065014Y-121285000D01*
X136844000Y-126513000D02*
X139065014Y-124291986D01*
X135844000Y-126513000D02*
X136844000Y-126513000D01*
%TD*%
D23*
%TO.N,GND*%
X231922249Y-61692437D02*
X232679774Y-61899672D01*
X233388625Y-62237777D01*
X234026404Y-62696067D01*
X234572946Y-63260055D01*
X235010977Y-63911913D01*
X235326651Y-64631038D01*
X235511206Y-65399768D01*
X235560000Y-66064207D01*
X235560001Y-132050597D01*
X235487563Y-132862249D01*
X235280328Y-133619774D01*
X234942221Y-134328627D01*
X234483928Y-134966410D01*
X233919945Y-135512946D01*
X233268085Y-135950978D01*
X232548963Y-136266651D01*
X231780232Y-136451206D01*
X231115792Y-136500000D01*
X57179392Y-136500000D01*
X56367751Y-136427563D01*
X55610226Y-136220328D01*
X54901373Y-135882221D01*
X54263590Y-135423928D01*
X53717054Y-134859945D01*
X53279022Y-134208085D01*
X52963349Y-133488963D01*
X52778794Y-132720232D01*
X52730000Y-132055792D01*
X52730000Y-130451984D01*
X56055000Y-130451984D01*
X56055000Y-131168016D01*
X56194691Y-131870290D01*
X56468705Y-132531818D01*
X56866511Y-133127177D01*
X57372823Y-133633489D01*
X57968182Y-134031295D01*
X58629710Y-134305309D01*
X59331984Y-134445000D01*
X60048016Y-134445000D01*
X60750290Y-134305309D01*
X61411818Y-134031295D01*
X61562669Y-133930499D01*
X131466106Y-133930499D01*
X131682228Y-134297258D01*
X132142105Y-134537938D01*
X132640098Y-134684275D01*
X133157071Y-134730648D01*
X133673159Y-134675273D01*
X134168526Y-134520279D01*
X134585772Y-134297258D01*
X134801894Y-133930499D01*
X133134000Y-132262605D01*
X131466106Y-133930499D01*
X61562669Y-133930499D01*
X62007177Y-133633489D01*
X62513489Y-133127177D01*
X62911295Y-132531818D01*
X63087645Y-132106071D01*
X130486352Y-132106071D01*
X130541727Y-132622159D01*
X130696721Y-133117526D01*
X130919742Y-133534772D01*
X131286501Y-133750894D01*
X132954395Y-132083000D01*
X131286501Y-130415106D01*
X130919742Y-130631228D01*
X130679062Y-131091105D01*
X130532725Y-131589098D01*
X130486352Y-132106071D01*
X63087645Y-132106071D01*
X63185309Y-131870290D01*
X63325000Y-131168016D01*
X63325000Y-130451984D01*
X63281939Y-130235501D01*
X131466106Y-130235501D01*
X133134000Y-131903395D01*
X133148143Y-131889253D01*
X133327748Y-132068858D01*
X133313605Y-132083000D01*
X134981499Y-133750894D01*
X135348258Y-133534772D01*
X135588938Y-133074895D01*
X135735275Y-132576902D01*
X135781648Y-132059929D01*
X135726273Y-131543841D01*
X135571279Y-131048474D01*
X135348258Y-130631228D01*
X134981501Y-130415107D01*
X134996191Y-130400417D01*
X135558250Y-130398000D01*
X135717000Y-130239250D01*
X135717000Y-129140000D01*
X135971000Y-129140000D01*
X135971000Y-130239250D01*
X136129750Y-130398000D01*
X136844000Y-130401072D01*
X136968482Y-130388812D01*
X137088180Y-130352502D01*
X137198494Y-130293537D01*
X137295185Y-130214185D01*
X137374537Y-130117494D01*
X137433502Y-130007180D01*
X137469812Y-129887482D01*
X137482072Y-129763000D01*
X137479823Y-129423061D01*
X145665000Y-129423061D01*
X145665000Y-129626939D01*
X145704774Y-129826898D01*
X145782795Y-130015256D01*
X145896063Y-130184774D01*
X146040226Y-130328937D01*
X146209744Y-130442205D01*
X146398102Y-130520226D01*
X146598061Y-130560000D01*
X146801939Y-130560000D01*
X147001898Y-130520226D01*
X147190256Y-130442205D01*
X147359774Y-130328937D01*
X147503937Y-130184774D01*
X147617205Y-130015256D01*
X147695226Y-129826898D01*
X147735000Y-129626939D01*
X147735000Y-129423061D01*
X147695226Y-129223102D01*
X147678195Y-129181984D01*
X224965000Y-129181984D01*
X224965000Y-129898016D01*
X225104691Y-130600290D01*
X225378705Y-131261818D01*
X225776511Y-131857177D01*
X226282823Y-132363489D01*
X226878182Y-132761295D01*
X227539710Y-133035309D01*
X228241984Y-133175000D01*
X228958016Y-133175000D01*
X229660290Y-133035309D01*
X230321818Y-132761295D01*
X230917177Y-132363489D01*
X231423489Y-131857177D01*
X231821295Y-131261818D01*
X232095309Y-130600290D01*
X232235000Y-129898016D01*
X232235000Y-129181984D01*
X232095309Y-128479710D01*
X231821295Y-127818182D01*
X231423489Y-127222823D01*
X230917177Y-126716511D01*
X230321818Y-126318705D01*
X229660290Y-126044691D01*
X228958016Y-125905000D01*
X228241984Y-125905000D01*
X227539710Y-126044691D01*
X226878182Y-126318705D01*
X226282823Y-126716511D01*
X225776511Y-127222823D01*
X225378705Y-127818182D01*
X225104691Y-128479710D01*
X224965000Y-129181984D01*
X147678195Y-129181984D01*
X147617205Y-129034744D01*
X147503937Y-128865226D01*
X147359774Y-128721063D01*
X147190256Y-128607795D01*
X147001898Y-128529774D01*
X146801939Y-128490000D01*
X146598061Y-128490000D01*
X146398102Y-128529774D01*
X146209744Y-128607795D01*
X146040226Y-128721063D01*
X145896063Y-128865226D01*
X145782795Y-129034744D01*
X145704774Y-129223102D01*
X145665000Y-129423061D01*
X137479823Y-129423061D01*
X137479000Y-129298750D01*
X137320250Y-129140000D01*
X135971000Y-129140000D01*
X135717000Y-129140000D01*
X134367750Y-129140000D01*
X134209000Y-129298750D01*
X134206542Y-129670269D01*
X134125895Y-129628062D01*
X133627902Y-129481725D01*
X133110929Y-129435352D01*
X132594841Y-129490727D01*
X132099474Y-129645721D01*
X131682228Y-129868742D01*
X131466106Y-130235501D01*
X63281939Y-130235501D01*
X63185309Y-129749710D01*
X62911295Y-129088182D01*
X62513489Y-128492823D01*
X62007177Y-127986511D01*
X61411818Y-127588705D01*
X60750290Y-127314691D01*
X60048016Y-127175000D01*
X59331984Y-127175000D01*
X58629710Y-127314691D01*
X57968182Y-127588705D01*
X57372823Y-127986511D01*
X56866511Y-128492823D01*
X56468705Y-129088182D01*
X56194691Y-129749710D01*
X56055000Y-130451984D01*
X52730000Y-130451984D01*
X52730000Y-120790499D01*
X131466106Y-120790499D01*
X131682228Y-121157258D01*
X132142105Y-121397938D01*
X132640098Y-121544275D01*
X133157071Y-121590648D01*
X133673159Y-121535273D01*
X134168526Y-121380279D01*
X134258151Y-121332374D01*
X134225394Y-121440359D01*
X134205928Y-121638000D01*
X134205928Y-122388000D01*
X134225394Y-122585641D01*
X134283044Y-122775686D01*
X134376661Y-122950833D01*
X134502650Y-123104350D01*
X134656167Y-123230339D01*
X134717272Y-123263000D01*
X134656167Y-123295661D01*
X134502650Y-123421650D01*
X134376661Y-123575167D01*
X134283044Y-123750314D01*
X134225394Y-123940359D01*
X134205928Y-124138000D01*
X134205928Y-124888000D01*
X134225394Y-125085641D01*
X134283044Y-125275686D01*
X134376661Y-125450833D01*
X134427680Y-125513000D01*
X134376661Y-125575167D01*
X134283044Y-125750314D01*
X134225394Y-125940359D01*
X134205928Y-126138000D01*
X134205928Y-126888000D01*
X134225394Y-127085641D01*
X134283044Y-127275686D01*
X134376661Y-127450833D01*
X134502650Y-127604350D01*
X134592000Y-127677678D01*
X134489506Y-127732463D01*
X134392815Y-127811815D01*
X134313463Y-127908506D01*
X134254498Y-128018820D01*
X134218188Y-128138518D01*
X134205928Y-128263000D01*
X134209000Y-128727250D01*
X134367750Y-128886000D01*
X135717000Y-128886000D01*
X135717000Y-128866000D01*
X135971000Y-128866000D01*
X135971000Y-128886000D01*
X137320250Y-128886000D01*
X137479000Y-128727250D01*
X137482072Y-128263000D01*
X137469812Y-128138518D01*
X137433502Y-128018820D01*
X137374537Y-127908506D01*
X137295185Y-127811815D01*
X137198494Y-127732463D01*
X137096000Y-127677678D01*
X137185350Y-127604350D01*
X137311339Y-127450833D01*
X137404956Y-127275686D01*
X137462606Y-127085641D01*
X137465208Y-127059224D01*
X139620055Y-124904378D01*
X139651555Y-124878527D01*
X139704191Y-124814390D01*
X139754713Y-124752829D01*
X139831367Y-124609420D01*
X139831367Y-124609419D01*
X139878570Y-124453812D01*
X139890514Y-124332539D01*
X139890514Y-124332537D01*
X139894508Y-124291987D01*
X139890514Y-124251436D01*
X139890514Y-121912503D01*
X139953617Y-121818061D01*
X146920000Y-121818061D01*
X146920000Y-122021939D01*
X146959774Y-122221898D01*
X147037795Y-122410256D01*
X147151063Y-122579774D01*
X147295226Y-122723937D01*
X147464744Y-122837205D01*
X147653102Y-122915226D01*
X147853061Y-122955000D01*
X148056939Y-122955000D01*
X148256898Y-122915226D01*
X148445256Y-122837205D01*
X148614774Y-122723937D01*
X148758937Y-122579774D01*
X148872205Y-122410256D01*
X148950226Y-122221898D01*
X148990000Y-122021939D01*
X148990000Y-121818061D01*
X148983506Y-121785413D01*
X157794192Y-121785413D01*
X157889956Y-122049814D01*
X158179571Y-122190704D01*
X158491108Y-122272384D01*
X158812595Y-122291718D01*
X159131675Y-122247961D01*
X159436088Y-122142795D01*
X159610044Y-122049814D01*
X159705808Y-121785413D01*
X160334192Y-121785413D01*
X160429956Y-122049814D01*
X160719571Y-122190704D01*
X161031108Y-122272384D01*
X161352595Y-122291718D01*
X161671675Y-122247961D01*
X161976088Y-122142795D01*
X162150044Y-122049814D01*
X162245808Y-121785413D01*
X161290000Y-120829605D01*
X160334192Y-121785413D01*
X159705808Y-121785413D01*
X158750000Y-120829605D01*
X157794192Y-121785413D01*
X148983506Y-121785413D01*
X148950226Y-121618102D01*
X148872205Y-121429744D01*
X148758937Y-121260226D01*
X148614774Y-121116063D01*
X148445256Y-121002795D01*
X148256898Y-120924774D01*
X148056939Y-120885000D01*
X147853061Y-120885000D01*
X147653102Y-120924774D01*
X147464744Y-121002795D01*
X147295226Y-121116063D01*
X147151063Y-121260226D01*
X147037795Y-121429744D01*
X146959774Y-121618102D01*
X146920000Y-121818061D01*
X139953617Y-121818061D01*
X139982219Y-121775256D01*
X140060240Y-121586898D01*
X140100014Y-121386939D01*
X140100014Y-121183061D01*
X140060240Y-120983102D01*
X139982219Y-120794744D01*
X139927329Y-120712595D01*
X157108282Y-120712595D01*
X157152039Y-121031675D01*
X157257205Y-121336088D01*
X157350186Y-121510044D01*
X157614587Y-121605808D01*
X158570395Y-120650000D01*
X158929605Y-120650000D01*
X159885413Y-121605808D01*
X160020000Y-121557062D01*
X160154587Y-121605808D01*
X161110395Y-120650000D01*
X161469605Y-120650000D01*
X162425413Y-121605808D01*
X162487280Y-121583400D01*
X162560013Y-121692252D01*
X162787748Y-121919987D01*
X163055537Y-122098918D01*
X163353088Y-122222168D01*
X163668967Y-122285000D01*
X163991033Y-122285000D01*
X164306912Y-122222168D01*
X164604463Y-122098918D01*
X164872252Y-121919987D01*
X165099987Y-121692252D01*
X165100000Y-121692233D01*
X165100013Y-121692252D01*
X165327748Y-121919987D01*
X165595537Y-122098918D01*
X165893088Y-122222168D01*
X166208967Y-122285000D01*
X166531033Y-122285000D01*
X166846912Y-122222168D01*
X167144463Y-122098918D01*
X167412252Y-121919987D01*
X167639987Y-121692252D01*
X167640000Y-121692233D01*
X167640013Y-121692252D01*
X167867748Y-121919987D01*
X168135537Y-122098918D01*
X168433088Y-122222168D01*
X168748967Y-122285000D01*
X169071033Y-122285000D01*
X169386912Y-122222168D01*
X169684463Y-122098918D01*
X169952252Y-121919987D01*
X170179987Y-121692252D01*
X170180000Y-121692233D01*
X170180013Y-121692252D01*
X170407748Y-121919987D01*
X170675537Y-122098918D01*
X170973088Y-122222168D01*
X171288967Y-122285000D01*
X171611033Y-122285000D01*
X171926912Y-122222168D01*
X172224463Y-122098918D01*
X172492252Y-121919987D01*
X172626826Y-121785413D01*
X173034192Y-121785413D01*
X173129956Y-122049814D01*
X173419571Y-122190704D01*
X173731108Y-122272384D01*
X174052595Y-122291718D01*
X174371675Y-122247961D01*
X174676088Y-122142795D01*
X174850044Y-122049814D01*
X174945808Y-121785413D01*
X175574192Y-121785413D01*
X175669956Y-122049814D01*
X175959571Y-122190704D01*
X176271108Y-122272384D01*
X176592595Y-122291718D01*
X176911675Y-122247961D01*
X177216088Y-122142795D01*
X177390044Y-122049814D01*
X177485808Y-121785413D01*
X178114192Y-121785413D01*
X178209956Y-122049814D01*
X178499571Y-122190704D01*
X178811108Y-122272384D01*
X179132595Y-122291718D01*
X179451675Y-122247961D01*
X179756088Y-122142795D01*
X179930044Y-122049814D01*
X180025808Y-121785413D01*
X180654192Y-121785413D01*
X180749956Y-122049814D01*
X181039571Y-122190704D01*
X181351108Y-122272384D01*
X181672595Y-122291718D01*
X181991675Y-122247961D01*
X182296088Y-122142795D01*
X182470044Y-122049814D01*
X182565808Y-121785413D01*
X183194192Y-121785413D01*
X183289956Y-122049814D01*
X183579571Y-122190704D01*
X183891108Y-122272384D01*
X184212595Y-122291718D01*
X184531675Y-122247961D01*
X184836088Y-122142795D01*
X185010044Y-122049814D01*
X185105808Y-121785413D01*
X184150000Y-120829605D01*
X183194192Y-121785413D01*
X182565808Y-121785413D01*
X181610000Y-120829605D01*
X180654192Y-121785413D01*
X180025808Y-121785413D01*
X179070000Y-120829605D01*
X178114192Y-121785413D01*
X177485808Y-121785413D01*
X176530000Y-120829605D01*
X175574192Y-121785413D01*
X174945808Y-121785413D01*
X173990000Y-120829605D01*
X173034192Y-121785413D01*
X172626826Y-121785413D01*
X172719987Y-121692252D01*
X172792720Y-121583400D01*
X172854587Y-121605808D01*
X173810395Y-120650000D01*
X174169605Y-120650000D01*
X175125413Y-121605808D01*
X175260000Y-121557062D01*
X175394587Y-121605808D01*
X176350395Y-120650000D01*
X176709605Y-120650000D01*
X177665413Y-121605808D01*
X177800000Y-121557062D01*
X177934587Y-121605808D01*
X178890395Y-120650000D01*
X179249605Y-120650000D01*
X180205413Y-121605808D01*
X180340000Y-121557062D01*
X180474587Y-121605808D01*
X181430395Y-120650000D01*
X181789605Y-120650000D01*
X182745413Y-121605808D01*
X182880000Y-121557062D01*
X183014587Y-121605808D01*
X183970395Y-120650000D01*
X183014587Y-119694192D01*
X182880000Y-119742938D01*
X182745413Y-119694192D01*
X181789605Y-120650000D01*
X181430395Y-120650000D01*
X180474587Y-119694192D01*
X180340000Y-119742938D01*
X180205413Y-119694192D01*
X179249605Y-120650000D01*
X178890395Y-120650000D01*
X177934587Y-119694192D01*
X177800000Y-119742938D01*
X177665413Y-119694192D01*
X176709605Y-120650000D01*
X176350395Y-120650000D01*
X175394587Y-119694192D01*
X175260000Y-119742938D01*
X175125413Y-119694192D01*
X174169605Y-120650000D01*
X173810395Y-120650000D01*
X172854587Y-119694192D01*
X172792720Y-119716600D01*
X172719987Y-119607748D01*
X172492252Y-119380013D01*
X172224463Y-119201082D01*
X172196502Y-119189500D01*
X173243492Y-119189500D01*
X173129956Y-119250186D01*
X173034192Y-119514587D01*
X173990000Y-120470395D01*
X174945808Y-119514587D01*
X174850044Y-119250186D01*
X174725297Y-119189500D01*
X175783492Y-119189500D01*
X175669956Y-119250186D01*
X175574192Y-119514587D01*
X176530000Y-120470395D01*
X177485808Y-119514587D01*
X177390044Y-119250186D01*
X177265297Y-119189500D01*
X178323492Y-119189500D01*
X178209956Y-119250186D01*
X178114192Y-119514587D01*
X179070000Y-120470395D01*
X180025808Y-119514587D01*
X179930044Y-119250186D01*
X179805297Y-119189500D01*
X180863492Y-119189500D01*
X180749956Y-119250186D01*
X180654192Y-119514587D01*
X181610000Y-120470395D01*
X182565808Y-119514587D01*
X182470044Y-119250186D01*
X182345297Y-119189500D01*
X183403492Y-119189500D01*
X183289956Y-119250186D01*
X183194192Y-119514587D01*
X184150000Y-120470395D01*
X185105808Y-119514587D01*
X185010044Y-119250186D01*
X184885297Y-119189500D01*
X185943498Y-119189500D01*
X185915537Y-119201082D01*
X185647748Y-119380013D01*
X185420013Y-119607748D01*
X185347280Y-119716600D01*
X185285413Y-119694192D01*
X184329605Y-120650000D01*
X185285413Y-121605808D01*
X185347280Y-121583400D01*
X185420013Y-121692252D01*
X185647748Y-121919987D01*
X185915537Y-122098918D01*
X186213088Y-122222168D01*
X186528967Y-122285000D01*
X186851033Y-122285000D01*
X187166912Y-122222168D01*
X187464463Y-122098918D01*
X187732252Y-121919987D01*
X187959987Y-121692252D01*
X187960000Y-121692233D01*
X187960013Y-121692252D01*
X188187748Y-121919987D01*
X188455537Y-122098918D01*
X188753088Y-122222168D01*
X189068967Y-122285000D01*
X189391033Y-122285000D01*
X189706912Y-122222168D01*
X190004463Y-122098918D01*
X190272252Y-121919987D01*
X190499987Y-121692252D01*
X190500000Y-121692233D01*
X190500013Y-121692252D01*
X190727748Y-121919987D01*
X190995537Y-122098918D01*
X191293088Y-122222168D01*
X191608967Y-122285000D01*
X191931033Y-122285000D01*
X192246912Y-122222168D01*
X192544463Y-122098918D01*
X192812252Y-121919987D01*
X192946826Y-121785413D01*
X193354192Y-121785413D01*
X193449956Y-122049814D01*
X193739571Y-122190704D01*
X194051108Y-122272384D01*
X194372595Y-122291718D01*
X194691675Y-122247961D01*
X194996088Y-122142795D01*
X195170044Y-122049814D01*
X195265808Y-121785413D01*
X195894192Y-121785413D01*
X195989956Y-122049814D01*
X196279571Y-122190704D01*
X196591108Y-122272384D01*
X196912595Y-122291718D01*
X197231675Y-122247961D01*
X197536088Y-122142795D01*
X197710044Y-122049814D01*
X197805808Y-121785413D01*
X196850000Y-120829605D01*
X195894192Y-121785413D01*
X195265808Y-121785413D01*
X194310000Y-120829605D01*
X193354192Y-121785413D01*
X192946826Y-121785413D01*
X193039987Y-121692252D01*
X193112720Y-121583400D01*
X193174587Y-121605808D01*
X194130395Y-120650000D01*
X194489605Y-120650000D01*
X195445413Y-121605808D01*
X195580000Y-121557062D01*
X195714587Y-121605808D01*
X196670395Y-120650000D01*
X197029605Y-120650000D01*
X197985413Y-121605808D01*
X198047280Y-121583400D01*
X198120013Y-121692252D01*
X198347748Y-121919987D01*
X198615537Y-122098918D01*
X198913088Y-122222168D01*
X199228967Y-122285000D01*
X199551033Y-122285000D01*
X199866912Y-122222168D01*
X200164463Y-122098918D01*
X200432252Y-121919987D01*
X200659987Y-121692252D01*
X200660000Y-121692233D01*
X200660013Y-121692252D01*
X200887748Y-121919987D01*
X201155537Y-122098918D01*
X201453088Y-122222168D01*
X201768967Y-122285000D01*
X202091033Y-122285000D01*
X202406912Y-122222168D01*
X202704463Y-122098918D01*
X202972252Y-121919987D01*
X203199987Y-121692252D01*
X203200000Y-121692233D01*
X203200013Y-121692252D01*
X203427748Y-121919987D01*
X203695537Y-122098918D01*
X203993088Y-122222168D01*
X204308967Y-122285000D01*
X204631033Y-122285000D01*
X204946912Y-122222168D01*
X205244463Y-122098918D01*
X205454809Y-121958370D01*
X205479463Y-122004494D01*
X205558815Y-122101185D01*
X205655506Y-122180537D01*
X205765820Y-122239502D01*
X205885518Y-122275812D01*
X206010000Y-122288072D01*
X206724250Y-122285000D01*
X206883000Y-122126250D01*
X206883000Y-120777000D01*
X207137000Y-120777000D01*
X207137000Y-122126250D01*
X207295750Y-122285000D01*
X208010000Y-122288072D01*
X208134482Y-122275812D01*
X208254180Y-122239502D01*
X208364494Y-122180537D01*
X208461185Y-122101185D01*
X208540537Y-122004494D01*
X208599502Y-121894180D01*
X208635812Y-121774482D01*
X208648072Y-121650000D01*
X208645000Y-120935750D01*
X208486250Y-120777000D01*
X207137000Y-120777000D01*
X206883000Y-120777000D01*
X206863000Y-120777000D01*
X206863000Y-120523000D01*
X206883000Y-120523000D01*
X206883000Y-119173750D01*
X207137000Y-119173750D01*
X207137000Y-120523000D01*
X208486250Y-120523000D01*
X208645000Y-120364250D01*
X208648072Y-119650000D01*
X208635812Y-119525518D01*
X208630195Y-119507000D01*
X218440000Y-119507000D01*
X218464776Y-119504560D01*
X218488601Y-119497333D01*
X218510557Y-119485597D01*
X218529803Y-119469803D01*
X218545597Y-119450557D01*
X218557333Y-119428601D01*
X218564560Y-119404776D01*
X218567000Y-119380000D01*
X218567000Y-111760000D01*
X218564560Y-111735224D01*
X218557333Y-111711399D01*
X218545597Y-111689443D01*
X218529803Y-111670197D01*
X218510557Y-111654403D01*
X218488601Y-111642667D01*
X218464776Y-111635440D01*
X218440000Y-111633000D01*
X208280000Y-111633000D01*
X208255224Y-111635440D01*
X208231399Y-111642667D01*
X208209443Y-111654403D01*
X208190197Y-111670197D01*
X208174403Y-111689443D01*
X208162667Y-111711399D01*
X208155440Y-111735224D01*
X208153000Y-111760000D01*
X208153000Y-119029805D01*
X208134482Y-119024188D01*
X208010000Y-119011928D01*
X207295750Y-119015000D01*
X207137000Y-119173750D01*
X206883000Y-119173750D01*
X206724250Y-119015000D01*
X206010000Y-119011928D01*
X205885518Y-119024188D01*
X205765820Y-119060498D01*
X205655506Y-119119463D01*
X205558815Y-119198815D01*
X205479463Y-119295506D01*
X205454809Y-119341630D01*
X205244463Y-119201082D01*
X204946912Y-119077832D01*
X204631033Y-119015000D01*
X204308967Y-119015000D01*
X203993088Y-119077832D01*
X203695537Y-119201082D01*
X203427748Y-119380013D01*
X203200013Y-119607748D01*
X203200000Y-119607767D01*
X203199987Y-119607748D01*
X202972252Y-119380013D01*
X202704463Y-119201082D01*
X202406912Y-119077832D01*
X202091033Y-119015000D01*
X201768967Y-119015000D01*
X201453088Y-119077832D01*
X201155537Y-119201082D01*
X200887748Y-119380013D01*
X200660013Y-119607748D01*
X200660000Y-119607767D01*
X200659987Y-119607748D01*
X200432252Y-119380013D01*
X200164463Y-119201082D01*
X199866912Y-119077832D01*
X199551033Y-119015000D01*
X199228967Y-119015000D01*
X198913088Y-119077832D01*
X198615537Y-119201082D01*
X198347748Y-119380013D01*
X198120013Y-119607748D01*
X198047280Y-119716600D01*
X197985413Y-119694192D01*
X197029605Y-120650000D01*
X196670395Y-120650000D01*
X195714587Y-119694192D01*
X195580000Y-119742938D01*
X195445413Y-119694192D01*
X194489605Y-120650000D01*
X194130395Y-120650000D01*
X193174587Y-119694192D01*
X193112720Y-119716600D01*
X193039987Y-119607748D01*
X192812252Y-119380013D01*
X192544463Y-119201082D01*
X192516502Y-119189500D01*
X193563492Y-119189500D01*
X193449956Y-119250186D01*
X193354192Y-119514587D01*
X194310000Y-120470395D01*
X195265808Y-119514587D01*
X195170044Y-119250186D01*
X195045297Y-119189500D01*
X195968497Y-119189500D01*
X196028493Y-119229588D01*
X195989956Y-119250186D01*
X195894192Y-119514587D01*
X196850000Y-120470395D01*
X197805808Y-119514587D01*
X197710044Y-119250186D01*
X197420429Y-119109296D01*
X197336436Y-119087275D01*
X197399937Y-119023774D01*
X197513205Y-118854256D01*
X197591226Y-118665898D01*
X197631000Y-118465939D01*
X197631000Y-118383000D01*
X197713939Y-118383000D01*
X197913898Y-118343226D01*
X198102256Y-118265205D01*
X198271774Y-118151937D01*
X198415937Y-118007774D01*
X198529205Y-117838256D01*
X198607226Y-117649898D01*
X198647000Y-117449939D01*
X198647000Y-117246061D01*
X198607226Y-117046102D01*
X198529205Y-116857744D01*
X198449236Y-116738061D01*
X201403000Y-116738061D01*
X201403000Y-116941939D01*
X201442774Y-117141898D01*
X201520795Y-117330256D01*
X201634063Y-117499774D01*
X201778226Y-117643937D01*
X201947744Y-117757205D01*
X202136102Y-117835226D01*
X202336061Y-117875000D01*
X202539939Y-117875000D01*
X202739898Y-117835226D01*
X202928256Y-117757205D01*
X203097774Y-117643937D01*
X203241937Y-117499774D01*
X203355205Y-117330256D01*
X203433226Y-117141898D01*
X203473000Y-116941939D01*
X203473000Y-116738061D01*
X203433226Y-116538102D01*
X203355205Y-116349744D01*
X203241937Y-116180226D01*
X203097774Y-116036063D01*
X202928256Y-115922795D01*
X202739898Y-115844774D01*
X202539939Y-115805000D01*
X202336061Y-115805000D01*
X202136102Y-115844774D01*
X201947744Y-115922795D01*
X201778226Y-116036063D01*
X201634063Y-116180226D01*
X201520795Y-116349744D01*
X201442774Y-116538102D01*
X201403000Y-116738061D01*
X198449236Y-116738061D01*
X198415937Y-116688226D01*
X198271774Y-116544063D01*
X198102256Y-116430795D01*
X197913898Y-116352774D01*
X197713939Y-116313000D01*
X197510061Y-116313000D01*
X197310102Y-116352774D01*
X197121744Y-116430795D01*
X196984497Y-116522500D01*
X169712550Y-116522500D01*
X169671999Y-116518506D01*
X169631449Y-116522500D01*
X169631447Y-116522500D01*
X169510174Y-116534444D01*
X169354566Y-116581647D01*
X169211157Y-116658301D01*
X169174694Y-116688226D01*
X169085459Y-116761459D01*
X169059606Y-116792961D01*
X166786710Y-119065857D01*
X166531033Y-119015000D01*
X166208967Y-119015000D01*
X165893088Y-119077832D01*
X165595537Y-119201082D01*
X165327748Y-119380013D01*
X165100013Y-119607748D01*
X165100000Y-119607767D01*
X165099987Y-119607748D01*
X164872252Y-119380013D01*
X164604463Y-119201082D01*
X164306912Y-119077832D01*
X163991033Y-119015000D01*
X163668967Y-119015000D01*
X163353088Y-119077832D01*
X163055537Y-119201082D01*
X162787748Y-119380013D01*
X162560013Y-119607748D01*
X162487280Y-119716600D01*
X162425413Y-119694192D01*
X161469605Y-120650000D01*
X161110395Y-120650000D01*
X160154587Y-119694192D01*
X160020000Y-119742938D01*
X159885413Y-119694192D01*
X158929605Y-120650000D01*
X158570395Y-120650000D01*
X157614587Y-119694192D01*
X157350186Y-119789956D01*
X157209296Y-120079571D01*
X157127616Y-120391108D01*
X157108282Y-120712595D01*
X139927329Y-120712595D01*
X139868951Y-120625226D01*
X139724788Y-120481063D01*
X139555270Y-120367795D01*
X139366912Y-120289774D01*
X139166953Y-120250000D01*
X138963075Y-120250000D01*
X138763116Y-120289774D01*
X138574758Y-120367795D01*
X138405240Y-120481063D01*
X138261077Y-120625226D01*
X138147809Y-120794744D01*
X138069788Y-120983102D01*
X138030014Y-121183061D01*
X138030014Y-121386939D01*
X138069788Y-121586898D01*
X138147809Y-121775256D01*
X138239515Y-121912504D01*
X138239514Y-123950053D01*
X137482072Y-124707495D01*
X137482072Y-124138000D01*
X137462606Y-123940359D01*
X137404956Y-123750314D01*
X137311339Y-123575167D01*
X137185350Y-123421650D01*
X137031833Y-123295661D01*
X136970728Y-123263000D01*
X137031833Y-123230339D01*
X137185350Y-123104350D01*
X137311339Y-122950833D01*
X137404956Y-122775686D01*
X137462606Y-122585641D01*
X137482072Y-122388000D01*
X137482072Y-121638000D01*
X137462606Y-121440359D01*
X137404956Y-121250314D01*
X137311339Y-121075167D01*
X137185350Y-120921650D01*
X137031833Y-120795661D01*
X136856686Y-120702044D01*
X136666641Y-120644394D01*
X136469000Y-120624928D01*
X135219000Y-120624928D01*
X135021359Y-120644394D01*
X135016482Y-120645874D01*
X134981501Y-120610893D01*
X135348258Y-120394772D01*
X135588938Y-119934895D01*
X135712446Y-119514587D01*
X157794192Y-119514587D01*
X158750000Y-120470395D01*
X159705808Y-119514587D01*
X160334192Y-119514587D01*
X161290000Y-120470395D01*
X162245808Y-119514587D01*
X162150044Y-119250186D01*
X161860429Y-119109296D01*
X161548892Y-119027616D01*
X161227405Y-119008282D01*
X160908325Y-119052039D01*
X160603912Y-119157205D01*
X160429956Y-119250186D01*
X160334192Y-119514587D01*
X159705808Y-119514587D01*
X159610044Y-119250186D01*
X159320429Y-119109296D01*
X159008892Y-119027616D01*
X158687405Y-119008282D01*
X158368325Y-119052039D01*
X158063912Y-119157205D01*
X157889956Y-119250186D01*
X157794192Y-119514587D01*
X135712446Y-119514587D01*
X135735275Y-119436902D01*
X135781648Y-118919929D01*
X135726273Y-118403841D01*
X135571279Y-117908474D01*
X135348258Y-117491228D01*
X134981499Y-117275106D01*
X133313605Y-118943000D01*
X133327748Y-118957143D01*
X133148143Y-119136748D01*
X133134000Y-119122605D01*
X131466106Y-120790499D01*
X52730000Y-120790499D01*
X52730000Y-118966071D01*
X130486352Y-118966071D01*
X130541727Y-119482159D01*
X130696721Y-119977526D01*
X130919742Y-120394772D01*
X131286501Y-120610894D01*
X132954395Y-118943000D01*
X131286501Y-117275106D01*
X130919742Y-117491228D01*
X130679062Y-117951105D01*
X130532725Y-118449098D01*
X130486352Y-118966071D01*
X52730000Y-118966071D01*
X52730000Y-101600000D01*
X60280000Y-101600000D01*
X60364378Y-103236910D01*
X60616617Y-104856469D01*
X61034045Y-106441508D01*
X61612235Y-107975226D01*
X62345059Y-109441365D01*
X63224749Y-110824384D01*
X64241980Y-112109622D01*
X65385968Y-113283455D01*
X66644589Y-114333441D01*
X68004499Y-115248449D01*
X69451283Y-116018780D01*
X70969605Y-116636269D01*
X72543371Y-117094369D01*
X74155898Y-117388225D01*
X75790093Y-117514722D01*
X77428633Y-117472519D01*
X79054150Y-117262063D01*
X79759929Y-117095501D01*
X131466106Y-117095501D01*
X133134000Y-118763395D01*
X134801894Y-117095501D01*
X134585772Y-116728742D01*
X134125895Y-116488062D01*
X133627902Y-116341725D01*
X133110929Y-116295352D01*
X132594841Y-116350727D01*
X132099474Y-116505721D01*
X131682228Y-116728742D01*
X131466106Y-117095501D01*
X79759929Y-117095501D01*
X80649411Y-116885586D01*
X82197508Y-116347078D01*
X83682030Y-115652246D01*
X85087240Y-114808458D01*
X86398243Y-113824657D01*
X87601143Y-112711271D01*
X88437192Y-111760000D01*
X147193000Y-111760000D01*
X147193000Y-119380000D01*
X147195440Y-119404776D01*
X147202667Y-119428601D01*
X147214403Y-119450557D01*
X147230197Y-119469803D01*
X147249443Y-119485597D01*
X147271399Y-119497333D01*
X147295224Y-119504560D01*
X147320000Y-119507000D01*
X157480000Y-119507000D01*
X157504776Y-119504560D01*
X157528601Y-119497333D01*
X157550557Y-119485597D01*
X157569803Y-119469803D01*
X157585597Y-119450557D01*
X157597333Y-119428601D01*
X157604560Y-119404776D01*
X157607000Y-119380000D01*
X157607000Y-114198061D01*
X201403000Y-114198061D01*
X201403000Y-114401939D01*
X201442774Y-114601898D01*
X201520795Y-114790256D01*
X201634063Y-114959774D01*
X201778226Y-115103937D01*
X201947744Y-115217205D01*
X202136102Y-115295226D01*
X202336061Y-115335000D01*
X202539939Y-115335000D01*
X202739898Y-115295226D01*
X202928256Y-115217205D01*
X203097774Y-115103937D01*
X203241937Y-114959774D01*
X203355205Y-114790256D01*
X203433226Y-114601898D01*
X203473000Y-114401939D01*
X203473000Y-114198061D01*
X203433226Y-113998102D01*
X203355205Y-113809744D01*
X203241937Y-113640226D01*
X203097774Y-113496063D01*
X202928256Y-113382795D01*
X202739898Y-113304774D01*
X202539939Y-113265000D01*
X202336061Y-113265000D01*
X202136102Y-113304774D01*
X201947744Y-113382795D01*
X201778226Y-113496063D01*
X201634063Y-113640226D01*
X201520795Y-113809744D01*
X201442774Y-113998102D01*
X201403000Y-114198061D01*
X157607000Y-114198061D01*
X157607000Y-111760000D01*
X157604560Y-111735224D01*
X157597333Y-111711399D01*
X157585597Y-111689443D01*
X157569803Y-111670197D01*
X157550557Y-111654403D01*
X157528601Y-111642667D01*
X157504776Y-111635440D01*
X157480000Y-111633000D01*
X147320000Y-111633000D01*
X147295224Y-111635440D01*
X147271399Y-111642667D01*
X147249443Y-111654403D01*
X147230197Y-111670197D01*
X147214403Y-111689443D01*
X147202667Y-111711399D01*
X147195440Y-111735224D01*
X147193000Y-111760000D01*
X88437192Y-111760000D01*
X88683187Y-111480103D01*
X89632907Y-110144203D01*
X90315024Y-108938967D01*
X112705000Y-108938967D01*
X112705000Y-109261033D01*
X112767832Y-109576912D01*
X112891082Y-109874463D01*
X113070013Y-110142252D01*
X113297748Y-110369987D01*
X113565537Y-110548918D01*
X113863088Y-110672168D01*
X114178967Y-110735000D01*
X114501033Y-110735000D01*
X114816912Y-110672168D01*
X115114463Y-110548918D01*
X115382252Y-110369987D01*
X115516826Y-110235413D01*
X115884192Y-110235413D01*
X115979956Y-110499814D01*
X116269571Y-110640704D01*
X116581108Y-110722384D01*
X116902595Y-110741718D01*
X117221675Y-110697961D01*
X117526088Y-110592795D01*
X117700044Y-110499814D01*
X117795808Y-110235413D01*
X116840000Y-109279605D01*
X115884192Y-110235413D01*
X115516826Y-110235413D01*
X115609987Y-110142252D01*
X115674925Y-110045065D01*
X115704587Y-110055808D01*
X116660395Y-109100000D01*
X117019605Y-109100000D01*
X117975413Y-110055808D01*
X118005075Y-110045065D01*
X118070013Y-110142252D01*
X118297748Y-110369987D01*
X118565537Y-110548918D01*
X118863088Y-110672168D01*
X119178967Y-110735000D01*
X119501033Y-110735000D01*
X119816912Y-110672168D01*
X120114463Y-110548918D01*
X120382252Y-110369987D01*
X120609987Y-110142252D01*
X120788918Y-109874463D01*
X120912168Y-109576912D01*
X120975000Y-109261033D01*
X120975000Y-108938967D01*
X120912168Y-108623088D01*
X120788918Y-108325537D01*
X120609987Y-108057748D01*
X120382252Y-107830013D01*
X120114463Y-107651082D01*
X119816912Y-107527832D01*
X119501033Y-107465000D01*
X119178967Y-107465000D01*
X118863088Y-107527832D01*
X118565537Y-107651082D01*
X118297748Y-107830013D01*
X118070013Y-108057748D01*
X118005075Y-108154935D01*
X117975413Y-108144192D01*
X117019605Y-109100000D01*
X116660395Y-109100000D01*
X115704587Y-108144192D01*
X115674925Y-108154935D01*
X115609987Y-108057748D01*
X115516826Y-107964587D01*
X115884192Y-107964587D01*
X116840000Y-108920395D01*
X117795808Y-107964587D01*
X117700044Y-107700186D01*
X117410429Y-107559296D01*
X117098892Y-107477616D01*
X116777405Y-107458282D01*
X116458325Y-107502039D01*
X116153912Y-107607205D01*
X115979956Y-107700186D01*
X115884192Y-107964587D01*
X115516826Y-107964587D01*
X115382252Y-107830013D01*
X115114463Y-107651082D01*
X114816912Y-107527832D01*
X114501033Y-107465000D01*
X114178967Y-107465000D01*
X113863088Y-107527832D01*
X113565537Y-107651082D01*
X113297748Y-107830013D01*
X113070013Y-108057748D01*
X112891082Y-108325537D01*
X112767832Y-108623088D01*
X112705000Y-108938967D01*
X90315024Y-108938967D01*
X90440234Y-108717733D01*
X91096612Y-107215813D01*
X91595081Y-105654364D01*
X91930359Y-104049938D01*
X91936168Y-103993740D01*
X100115000Y-103993740D01*
X100115000Y-104286260D01*
X100172068Y-104573158D01*
X100284010Y-104843411D01*
X100446525Y-105086632D01*
X100653368Y-105293475D01*
X100896589Y-105455990D01*
X101166842Y-105567932D01*
X101453740Y-105625000D01*
X101746260Y-105625000D01*
X102033158Y-105567932D01*
X102303411Y-105455990D01*
X102546632Y-105293475D01*
X102753475Y-105086632D01*
X102915990Y-104843411D01*
X103027932Y-104573158D01*
X103085000Y-104286260D01*
X103085000Y-103993740D01*
X103027932Y-103706842D01*
X102915990Y-103436589D01*
X102753475Y-103193368D01*
X102546632Y-102986525D01*
X102364466Y-102864805D01*
X102481355Y-102795178D01*
X102697588Y-102600269D01*
X102871641Y-102366920D01*
X102996825Y-102104099D01*
X103041476Y-101956890D01*
X102920155Y-101727000D01*
X101727000Y-101727000D01*
X101727000Y-101747000D01*
X101473000Y-101747000D01*
X101473000Y-101727000D01*
X100279845Y-101727000D01*
X100158524Y-101956890D01*
X100203175Y-102104099D01*
X100328359Y-102366920D01*
X100502412Y-102600269D01*
X100718645Y-102795178D01*
X100835534Y-102864805D01*
X100653368Y-102986525D01*
X100446525Y-103193368D01*
X100284010Y-103436589D01*
X100172068Y-103706842D01*
X100115000Y-103993740D01*
X91936168Y-103993740D01*
X92098892Y-102419542D01*
X92098892Y-100780458D01*
X91930359Y-99150062D01*
X91733914Y-98210000D01*
X100111928Y-98210000D01*
X100111928Y-99910000D01*
X100124188Y-100034482D01*
X100160498Y-100154180D01*
X100219463Y-100264494D01*
X100298815Y-100361185D01*
X100395506Y-100440537D01*
X100505820Y-100499502D01*
X100586466Y-100523966D01*
X100502412Y-100599731D01*
X100328359Y-100833080D01*
X100203175Y-101095901D01*
X100158524Y-101243110D01*
X100279845Y-101473000D01*
X101473000Y-101473000D01*
X101473000Y-101453000D01*
X101727000Y-101453000D01*
X101727000Y-101473000D01*
X102920155Y-101473000D01*
X103041476Y-101243110D01*
X102996825Y-101095901D01*
X102871641Y-100833080D01*
X102697588Y-100599731D01*
X102613534Y-100523966D01*
X102694180Y-100499502D01*
X102804494Y-100440537D01*
X102901185Y-100361185D01*
X102980537Y-100264494D01*
X103039502Y-100154180D01*
X103075812Y-100034482D01*
X103082107Y-99970558D01*
X109655000Y-99970558D01*
X109655000Y-103229441D01*
X109693127Y-103616549D01*
X109843799Y-104113249D01*
X110088477Y-104571010D01*
X110417759Y-104972241D01*
X110818989Y-105301523D01*
X111276750Y-105546201D01*
X111773450Y-105696873D01*
X112290000Y-105747749D01*
X112806549Y-105696873D01*
X113303249Y-105546201D01*
X113761010Y-105301523D01*
X114162241Y-104972241D01*
X114491523Y-104571011D01*
X114736201Y-104113250D01*
X114886873Y-103616550D01*
X114925000Y-103229442D01*
X114925000Y-102555804D01*
X114947988Y-102611302D01*
X115181637Y-102960983D01*
X115479017Y-103258363D01*
X115828698Y-103492012D01*
X116217244Y-103652953D01*
X116629721Y-103735000D01*
X117050279Y-103735000D01*
X117462756Y-103652953D01*
X117851302Y-103492012D01*
X118200983Y-103258363D01*
X118498363Y-102960983D01*
X118732012Y-102611302D01*
X118755000Y-102555804D01*
X118755000Y-103229441D01*
X118793127Y-103616549D01*
X118943799Y-104113249D01*
X119188477Y-104571010D01*
X119517759Y-104972241D01*
X119918989Y-105301523D01*
X120376750Y-105546201D01*
X120873450Y-105696873D01*
X121390000Y-105747749D01*
X121906549Y-105696873D01*
X122403249Y-105546201D01*
X122861010Y-105301523D01*
X123262241Y-104972241D01*
X123591523Y-104571011D01*
X123836201Y-104113250D01*
X123986873Y-103616550D01*
X124025000Y-103229442D01*
X124025000Y-99970558D01*
X123986873Y-99583450D01*
X123836201Y-99086750D01*
X123591523Y-98628989D01*
X123262241Y-98227759D01*
X122861011Y-97898477D01*
X122403250Y-97653799D01*
X121906550Y-97503127D01*
X121390000Y-97452251D01*
X120873451Y-97503127D01*
X120376751Y-97653799D01*
X119918990Y-97898477D01*
X119517760Y-98227759D01*
X119188478Y-98628989D01*
X118943800Y-99086750D01*
X118793127Y-99583450D01*
X118755000Y-99970558D01*
X118755000Y-100644196D01*
X118732012Y-100588698D01*
X118498363Y-100239017D01*
X118200983Y-99941637D01*
X117851302Y-99707988D01*
X117462756Y-99547047D01*
X117050279Y-99465000D01*
X116629721Y-99465000D01*
X116217244Y-99547047D01*
X115828698Y-99707988D01*
X115479017Y-99941637D01*
X115181637Y-100239017D01*
X114947988Y-100588698D01*
X114925000Y-100644196D01*
X114925000Y-99970558D01*
X114886873Y-99583450D01*
X114736201Y-99086750D01*
X114491523Y-98628989D01*
X114162241Y-98227759D01*
X113761011Y-97898477D01*
X113303250Y-97653799D01*
X112806550Y-97503127D01*
X112290000Y-97452251D01*
X111773451Y-97503127D01*
X111276751Y-97653799D01*
X110818990Y-97898477D01*
X110417760Y-98227759D01*
X110088478Y-98628989D01*
X109843800Y-99086750D01*
X109693127Y-99583450D01*
X109655000Y-99970558D01*
X103082107Y-99970558D01*
X103088072Y-99910000D01*
X103088072Y-98210000D01*
X103075812Y-98085518D01*
X103039502Y-97965820D01*
X102980537Y-97855506D01*
X102901185Y-97758815D01*
X102804494Y-97679463D01*
X102694180Y-97620498D01*
X102574482Y-97584188D01*
X102450000Y-97571928D01*
X100750000Y-97571928D01*
X100625518Y-97584188D01*
X100505820Y-97620498D01*
X100395506Y-97679463D01*
X100298815Y-97758815D01*
X100219463Y-97855506D01*
X100160498Y-97965820D01*
X100124188Y-98085518D01*
X100111928Y-98210000D01*
X91733914Y-98210000D01*
X91595081Y-97545636D01*
X91096612Y-95984187D01*
X90987892Y-95735413D01*
X113384192Y-95735413D01*
X113479956Y-95999814D01*
X113769571Y-96140704D01*
X114081108Y-96222384D01*
X114402595Y-96241718D01*
X114721675Y-96197961D01*
X115026088Y-96092795D01*
X115200044Y-95999814D01*
X115295808Y-95735413D01*
X114340000Y-94779605D01*
X113384192Y-95735413D01*
X90987892Y-95735413D01*
X90519043Y-94662595D01*
X112698282Y-94662595D01*
X112742039Y-94981675D01*
X112847205Y-95286088D01*
X112940186Y-95460044D01*
X113204587Y-95555808D01*
X114160395Y-94600000D01*
X114519605Y-94600000D01*
X115475413Y-95555808D01*
X115739814Y-95460044D01*
X115880704Y-95170429D01*
X115962384Y-94858892D01*
X115981718Y-94537405D01*
X115968219Y-94438967D01*
X117705000Y-94438967D01*
X117705000Y-94761033D01*
X117767832Y-95076912D01*
X117891082Y-95374463D01*
X118070013Y-95642252D01*
X118297748Y-95869987D01*
X118565537Y-96048918D01*
X118863088Y-96172168D01*
X119178967Y-96235000D01*
X119501033Y-96235000D01*
X119816912Y-96172168D01*
X120114463Y-96048918D01*
X120382252Y-95869987D01*
X120609987Y-95642252D01*
X120788918Y-95374463D01*
X120912168Y-95076912D01*
X120975000Y-94761033D01*
X120975000Y-94438967D01*
X120912168Y-94123088D01*
X120788918Y-93825537D01*
X120609987Y-93557748D01*
X120382252Y-93330013D01*
X120114463Y-93151082D01*
X119816912Y-93027832D01*
X119501033Y-92965000D01*
X119178967Y-92965000D01*
X118863088Y-93027832D01*
X118565537Y-93151082D01*
X118297748Y-93330013D01*
X118070013Y-93557748D01*
X117891082Y-93825537D01*
X117767832Y-94123088D01*
X117705000Y-94438967D01*
X115968219Y-94438967D01*
X115937961Y-94218325D01*
X115832795Y-93913912D01*
X115739814Y-93739956D01*
X115475413Y-93644192D01*
X114519605Y-94600000D01*
X114160395Y-94600000D01*
X113204587Y-93644192D01*
X112940186Y-93739956D01*
X112799296Y-94029571D01*
X112717616Y-94341108D01*
X112698282Y-94662595D01*
X90519043Y-94662595D01*
X90440234Y-94482267D01*
X89864267Y-93464587D01*
X113384192Y-93464587D01*
X114340000Y-94420395D01*
X115295808Y-93464587D01*
X115200044Y-93200186D01*
X114910429Y-93059296D01*
X114598892Y-92977616D01*
X114277405Y-92958282D01*
X113958325Y-93002039D01*
X113653912Y-93107205D01*
X113479956Y-93200186D01*
X113384192Y-93464587D01*
X89864267Y-93464587D01*
X89632907Y-93055797D01*
X88683187Y-91719897D01*
X87601143Y-90488729D01*
X86398243Y-89375343D01*
X85087240Y-88391542D01*
X83682030Y-87547754D01*
X82197508Y-86852922D01*
X80649411Y-86314414D01*
X79054150Y-85937937D01*
X77428633Y-85727481D01*
X75790093Y-85685278D01*
X74155898Y-85811775D01*
X72543371Y-86105631D01*
X70969605Y-86563731D01*
X69451283Y-87181220D01*
X68004499Y-87951551D01*
X66644589Y-88866559D01*
X65385968Y-89916545D01*
X64241980Y-91090378D01*
X63224749Y-92375616D01*
X62345059Y-93758635D01*
X61612235Y-95224774D01*
X61034045Y-96758492D01*
X60616617Y-98343531D01*
X60364378Y-99963090D01*
X60280000Y-101600000D01*
X52730000Y-101600000D01*
X52730000Y-84226061D01*
X124125000Y-84226061D01*
X124125000Y-84429939D01*
X124164774Y-84629898D01*
X124242795Y-84818256D01*
X124356063Y-84987774D01*
X124500226Y-85131937D01*
X124669744Y-85245205D01*
X124858102Y-85323226D01*
X125058061Y-85363000D01*
X125261939Y-85363000D01*
X125461898Y-85323226D01*
X125650256Y-85245205D01*
X125819774Y-85131937D01*
X125963937Y-84987774D01*
X126077205Y-84818256D01*
X126155226Y-84629898D01*
X126195000Y-84429939D01*
X126195000Y-84226061D01*
X126155226Y-84026102D01*
X126077205Y-83837744D01*
X125963937Y-83668226D01*
X125819774Y-83524063D01*
X125650256Y-83410795D01*
X125461898Y-83332774D01*
X125261939Y-83293000D01*
X125058061Y-83293000D01*
X124858102Y-83332774D01*
X124669744Y-83410795D01*
X124500226Y-83524063D01*
X124356063Y-83668226D01*
X124242795Y-83837744D01*
X124164774Y-84026102D01*
X124125000Y-84226061D01*
X52730000Y-84226061D01*
X52730000Y-81280000D01*
X147193000Y-81280000D01*
X147193000Y-88900000D01*
X147195440Y-88924776D01*
X147202667Y-88948601D01*
X147214403Y-88970557D01*
X147230197Y-88989803D01*
X147249443Y-89005597D01*
X147271399Y-89017333D01*
X147295224Y-89024560D01*
X147320000Y-89027000D01*
X157480000Y-89027000D01*
X157504776Y-89024560D01*
X157528601Y-89017333D01*
X157550557Y-89005597D01*
X157569803Y-88989803D01*
X157585597Y-88970557D01*
X157597333Y-88948601D01*
X157604560Y-88924776D01*
X157607000Y-88900000D01*
X157607000Y-82887561D01*
X178865500Y-82887561D01*
X178865500Y-83091439D01*
X178905274Y-83291398D01*
X178983295Y-83479756D01*
X179096563Y-83649274D01*
X179240726Y-83793437D01*
X179410244Y-83906705D01*
X179598602Y-83984726D01*
X179798561Y-84024500D01*
X180002439Y-84024500D01*
X180202398Y-83984726D01*
X180390756Y-83906705D01*
X180560274Y-83793437D01*
X180704437Y-83649274D01*
X180817705Y-83479756D01*
X180895726Y-83291398D01*
X180935500Y-83091439D01*
X180935500Y-82887561D01*
X180895726Y-82687602D01*
X180817705Y-82499244D01*
X180704437Y-82329726D01*
X180560274Y-82185563D01*
X180390756Y-82072295D01*
X180202398Y-81994274D01*
X180002439Y-81954500D01*
X179798561Y-81954500D01*
X179598602Y-81994274D01*
X179410244Y-82072295D01*
X179240726Y-82185563D01*
X179096563Y-82329726D01*
X178983295Y-82499244D01*
X178905274Y-82687602D01*
X178865500Y-82887561D01*
X157607000Y-82887561D01*
X157607000Y-81280000D01*
X157604560Y-81255224D01*
X157597333Y-81231399D01*
X157585597Y-81209443D01*
X157569803Y-81190197D01*
X157555015Y-81178061D01*
X170669000Y-81178061D01*
X170669000Y-81381939D01*
X170708774Y-81581898D01*
X170786795Y-81770256D01*
X170900063Y-81939774D01*
X171044226Y-82083937D01*
X171213744Y-82197205D01*
X171402102Y-82275226D01*
X171602061Y-82315000D01*
X171805939Y-82315000D01*
X172005898Y-82275226D01*
X172194256Y-82197205D01*
X172363774Y-82083937D01*
X172507937Y-81939774D01*
X172621205Y-81770256D01*
X172699226Y-81581898D01*
X172739000Y-81381939D01*
X172739000Y-81178061D01*
X172699226Y-80978102D01*
X172621205Y-80789744D01*
X172507937Y-80620226D01*
X172363774Y-80476063D01*
X172194256Y-80362795D01*
X172005898Y-80284774D01*
X171805939Y-80245000D01*
X171602061Y-80245000D01*
X171402102Y-80284774D01*
X171213744Y-80362795D01*
X171044226Y-80476063D01*
X170900063Y-80620226D01*
X170786795Y-80789744D01*
X170708774Y-80978102D01*
X170669000Y-81178061D01*
X157555015Y-81178061D01*
X157550557Y-81174403D01*
X157528601Y-81162667D01*
X157504776Y-81155440D01*
X157480000Y-81153000D01*
X147320000Y-81153000D01*
X147295224Y-81155440D01*
X147271399Y-81162667D01*
X147249443Y-81174403D01*
X147230197Y-81190197D01*
X147214403Y-81209443D01*
X147202667Y-81231399D01*
X147195440Y-81255224D01*
X147193000Y-81280000D01*
X52730000Y-81280000D01*
X52730000Y-75910000D01*
X74261928Y-75910000D01*
X74274188Y-76034482D01*
X74310498Y-76154180D01*
X74369463Y-76264494D01*
X74448815Y-76361185D01*
X74545506Y-76440537D01*
X74655820Y-76499502D01*
X74775518Y-76535812D01*
X74900000Y-76548072D01*
X75164250Y-76545000D01*
X75323000Y-76386250D01*
X75323000Y-75287000D01*
X74423750Y-75287000D01*
X74265000Y-75445750D01*
X74261928Y-75910000D01*
X52730000Y-75910000D01*
X52730000Y-74410000D01*
X74261928Y-74410000D01*
X74265000Y-74874250D01*
X74423750Y-75033000D01*
X75323000Y-75033000D01*
X75323000Y-73933750D01*
X75164250Y-73775000D01*
X74900000Y-73771928D01*
X74775518Y-73784188D01*
X74655820Y-73820498D01*
X74545506Y-73879463D01*
X74448815Y-73958815D01*
X74369463Y-74055506D01*
X74310498Y-74165820D01*
X74274188Y-74285518D01*
X74261928Y-74410000D01*
X52730000Y-74410000D01*
X52730000Y-68221984D01*
X56055000Y-68221984D01*
X56055000Y-68938016D01*
X56194691Y-69640290D01*
X56468705Y-70301818D01*
X56866511Y-70897177D01*
X57372823Y-71403489D01*
X57968182Y-71801295D01*
X58629710Y-72075309D01*
X59331984Y-72215000D01*
X60048016Y-72215000D01*
X60750290Y-72075309D01*
X61411818Y-71801295D01*
X61997432Y-71410000D01*
X74261928Y-71410000D01*
X74261928Y-72910000D01*
X74274188Y-73034482D01*
X74310498Y-73154180D01*
X74369463Y-73264494D01*
X74448815Y-73361185D01*
X74545506Y-73440537D01*
X74655820Y-73499502D01*
X74775518Y-73535812D01*
X74900000Y-73548072D01*
X76000000Y-73548072D01*
X76124482Y-73535812D01*
X76200000Y-73512904D01*
X76275518Y-73535812D01*
X76400000Y-73548072D01*
X77170639Y-73548072D01*
X77394495Y-73771928D01*
X76400000Y-73771928D01*
X76275518Y-73784188D01*
X76200000Y-73807096D01*
X76124482Y-73784188D01*
X76000000Y-73771928D01*
X75735750Y-73775000D01*
X75577000Y-73933750D01*
X75577000Y-75033000D01*
X75597000Y-75033000D01*
X75597000Y-75287000D01*
X75577000Y-75287000D01*
X75577000Y-76386250D01*
X75735750Y-76545000D01*
X76000000Y-76548072D01*
X76124482Y-76535812D01*
X76200000Y-76512904D01*
X76275518Y-76535812D01*
X76400000Y-76548072D01*
X77170639Y-76548072D01*
X77377606Y-76755039D01*
X77403459Y-76786541D01*
X77462507Y-76835000D01*
X77529157Y-76889699D01*
X77656278Y-76957647D01*
X77672566Y-76966353D01*
X77828174Y-77013556D01*
X77949447Y-77025500D01*
X77949449Y-77025500D01*
X77989999Y-77029494D01*
X78030550Y-77025500D01*
X81208583Y-77025500D01*
X81271595Y-77143387D01*
X81382038Y-77277962D01*
X81516613Y-77388405D01*
X81670149Y-77470472D01*
X81836745Y-77521008D01*
X82009999Y-77538072D01*
X82535001Y-77538072D01*
X82708255Y-77521008D01*
X82874851Y-77470472D01*
X83028387Y-77388405D01*
X83162962Y-77277962D01*
X83185000Y-77251109D01*
X83207038Y-77277962D01*
X83341613Y-77388405D01*
X83495149Y-77470472D01*
X83661745Y-77521008D01*
X83834999Y-77538072D01*
X84360001Y-77538072D01*
X84533255Y-77521008D01*
X84699851Y-77470472D01*
X84853387Y-77388405D01*
X84987962Y-77277962D01*
X85098405Y-77143387D01*
X85180472Y-76989851D01*
X85231008Y-76823255D01*
X85248072Y-76650001D01*
X85248072Y-76216860D01*
X85709433Y-75755500D01*
X181903068Y-75755500D01*
X183046067Y-76898500D01*
X174217920Y-76898500D01*
X174158937Y-76810226D01*
X174014774Y-76666063D01*
X173845256Y-76552795D01*
X173656898Y-76474774D01*
X173456939Y-76435000D01*
X173253061Y-76435000D01*
X173053102Y-76474774D01*
X172864744Y-76552795D01*
X172695226Y-76666063D01*
X172551063Y-76810226D01*
X172437795Y-76979744D01*
X172359774Y-77168102D01*
X172320000Y-77368061D01*
X172320000Y-77571939D01*
X172359774Y-77771898D01*
X172437795Y-77960256D01*
X172551063Y-78129774D01*
X172695226Y-78273937D01*
X172864744Y-78387205D01*
X173053102Y-78465226D01*
X173253061Y-78505000D01*
X173339851Y-78505000D01*
X173447174Y-78537556D01*
X173568447Y-78549500D01*
X173568449Y-78549500D01*
X173608999Y-78553494D01*
X173649550Y-78549500D01*
X178052616Y-78549500D01*
X178035000Y-78638061D01*
X178035000Y-78841939D01*
X178074774Y-79041898D01*
X178152795Y-79230256D01*
X178266063Y-79399774D01*
X178304789Y-79438500D01*
X177586542Y-79438500D01*
X177545999Y-79434507D01*
X177505456Y-79438500D01*
X177505447Y-79438500D01*
X177384174Y-79450444D01*
X177228566Y-79497647D01*
X177085158Y-79574301D01*
X177034811Y-79615619D01*
X176863102Y-79649774D01*
X176674744Y-79727795D01*
X176505226Y-79841063D01*
X176361063Y-79985226D01*
X176247795Y-80154744D01*
X176169774Y-80343102D01*
X176130000Y-80543061D01*
X176130000Y-80746939D01*
X176169774Y-80946898D01*
X176247795Y-81135256D01*
X176361063Y-81304774D01*
X176505226Y-81448937D01*
X176674744Y-81562205D01*
X176863102Y-81640226D01*
X177063061Y-81680000D01*
X177266939Y-81680000D01*
X177466898Y-81640226D01*
X177655256Y-81562205D01*
X177824774Y-81448937D01*
X177968937Y-81304774D01*
X178082205Y-81135256D01*
X178101158Y-81089500D01*
X185287567Y-81089500D01*
X183340961Y-83036107D01*
X183309460Y-83061959D01*
X183283609Y-83093459D01*
X183206301Y-83187658D01*
X183129647Y-83331067D01*
X183082445Y-83486674D01*
X183066506Y-83648500D01*
X183070501Y-83689061D01*
X183070500Y-102067450D01*
X183066506Y-102108000D01*
X183070500Y-102148550D01*
X183070500Y-102148552D01*
X183082444Y-102269825D01*
X183123126Y-102403937D01*
X183129647Y-102425433D01*
X183206301Y-102568842D01*
X183227954Y-102595226D01*
X183309459Y-102694541D01*
X183340966Y-102720398D01*
X184329072Y-103708505D01*
X184361274Y-103870398D01*
X184414621Y-103999189D01*
X176720500Y-96305068D01*
X176720500Y-85750061D01*
X176765000Y-85750061D01*
X176765000Y-85953939D01*
X176804774Y-86153898D01*
X176882795Y-86342256D01*
X176996063Y-86511774D01*
X177140226Y-86655937D01*
X177309744Y-86769205D01*
X177498102Y-86847226D01*
X177698061Y-86887000D01*
X177901939Y-86887000D01*
X178101898Y-86847226D01*
X178290256Y-86769205D01*
X178459774Y-86655937D01*
X178603937Y-86511774D01*
X178717205Y-86342256D01*
X178795226Y-86153898D01*
X178835000Y-85953939D01*
X178835000Y-85750061D01*
X178795226Y-85550102D01*
X178717205Y-85361744D01*
X178603937Y-85192226D01*
X178459774Y-85048063D01*
X178290256Y-84934795D01*
X178101898Y-84856774D01*
X177901939Y-84817000D01*
X177698061Y-84817000D01*
X177498102Y-84856774D01*
X177309744Y-84934795D01*
X177140226Y-85048063D01*
X176996063Y-85192226D01*
X176882795Y-85361744D01*
X176804774Y-85550102D01*
X176765000Y-85750061D01*
X176720500Y-85750061D01*
X176720500Y-85082503D01*
X176812205Y-84945256D01*
X176890226Y-84756898D01*
X176930000Y-84556939D01*
X176930000Y-84353061D01*
X176890226Y-84153102D01*
X176812205Y-83964744D01*
X176698937Y-83795226D01*
X176554774Y-83651063D01*
X176385256Y-83537795D01*
X176196898Y-83459774D01*
X175996939Y-83420000D01*
X175793061Y-83420000D01*
X175593102Y-83459774D01*
X175404744Y-83537795D01*
X175235226Y-83651063D01*
X175091063Y-83795226D01*
X174977795Y-83964744D01*
X174899774Y-84153102D01*
X174860000Y-84353061D01*
X174860000Y-84556939D01*
X174899774Y-84756898D01*
X174977795Y-84945256D01*
X175069500Y-85082503D01*
X175069501Y-96606440D01*
X175065506Y-96647000D01*
X175081445Y-96808826D01*
X175128647Y-96964433D01*
X175205301Y-97107842D01*
X175253036Y-97166006D01*
X175308460Y-97233541D01*
X175339961Y-97259393D01*
X189887607Y-111807040D01*
X189913459Y-111838541D01*
X189977596Y-111891177D01*
X190039157Y-111941699D01*
X190084812Y-111966102D01*
X190182566Y-112018353D01*
X190338174Y-112065556D01*
X190459447Y-112077500D01*
X190459449Y-112077500D01*
X190499999Y-112081494D01*
X190540550Y-112077500D01*
X199642616Y-112077500D01*
X199625000Y-112166061D01*
X199625000Y-112369939D01*
X199664774Y-112569898D01*
X199742795Y-112758256D01*
X199856063Y-112927774D01*
X200000226Y-113071937D01*
X200169744Y-113185205D01*
X200358102Y-113263226D01*
X200558061Y-113303000D01*
X200761939Y-113303000D01*
X200961898Y-113263226D01*
X201150256Y-113185205D01*
X201319774Y-113071937D01*
X201463937Y-112927774D01*
X201577205Y-112758256D01*
X201655226Y-112569898D01*
X201695000Y-112369939D01*
X201695000Y-112166061D01*
X201677384Y-112077500D01*
X203080497Y-112077500D01*
X203217744Y-112169205D01*
X203406102Y-112247226D01*
X203606061Y-112287000D01*
X203809939Y-112287000D01*
X204009898Y-112247226D01*
X204198256Y-112169205D01*
X204367774Y-112055937D01*
X204511937Y-111911774D01*
X204625205Y-111742256D01*
X204703226Y-111553898D01*
X204743000Y-111353939D01*
X204743000Y-111150061D01*
X204703226Y-110950102D01*
X204625205Y-110761744D01*
X204511937Y-110592226D01*
X204367774Y-110448063D01*
X204198256Y-110334795D01*
X204009898Y-110256774D01*
X203809939Y-110217000D01*
X203609725Y-110217000D01*
X203687226Y-110029898D01*
X203727000Y-109829939D01*
X203727000Y-109626061D01*
X203687226Y-109426102D01*
X203609205Y-109237744D01*
X203495937Y-109068226D01*
X203351774Y-108924063D01*
X203182256Y-108810795D01*
X202993898Y-108732774D01*
X202793939Y-108693000D01*
X202590061Y-108693000D01*
X202390102Y-108732774D01*
X202201744Y-108810795D01*
X202053624Y-108909765D01*
X202055226Y-108905898D01*
X202095000Y-108705939D01*
X202095000Y-108702643D01*
X202152398Y-108691226D01*
X202340756Y-108613205D01*
X202510274Y-108499937D01*
X202654437Y-108355774D01*
X202767705Y-108186256D01*
X202845726Y-107997898D01*
X202885500Y-107797939D01*
X202885500Y-107594061D01*
X202845726Y-107394102D01*
X202767705Y-107205744D01*
X202654437Y-107036226D01*
X202510274Y-106892063D01*
X202340756Y-106778795D01*
X202152398Y-106700774D01*
X201952439Y-106661000D01*
X201748561Y-106661000D01*
X201548602Y-106700774D01*
X201360244Y-106778795D01*
X201222997Y-106870500D01*
X200740912Y-106870500D01*
X200700362Y-106866506D01*
X200659811Y-106870500D01*
X200659809Y-106870500D01*
X200538536Y-106882444D01*
X200382928Y-106929647D01*
X200239519Y-107006301D01*
X200231276Y-107013065D01*
X200110274Y-106892063D01*
X199940756Y-106778795D01*
X199752398Y-106700774D01*
X199552439Y-106661000D01*
X199348561Y-106661000D01*
X199148602Y-106700774D01*
X198960244Y-106778795D01*
X198822997Y-106870500D01*
X197223503Y-106870500D01*
X197086256Y-106778795D01*
X196897898Y-106700774D01*
X196697939Y-106661000D01*
X196494061Y-106661000D01*
X196294102Y-106700774D01*
X196105744Y-106778795D01*
X195936226Y-106892063D01*
X195792063Y-107036226D01*
X195678795Y-107205744D01*
X195600774Y-107394102D01*
X195575705Y-107520136D01*
X193783072Y-105727503D01*
X194777447Y-105727503D01*
X194817997Y-105731497D01*
X194858547Y-105727503D01*
X194858550Y-105727503D01*
X194979823Y-105715559D01*
X195135431Y-105668356D01*
X195278839Y-105591702D01*
X195404538Y-105488544D01*
X195430395Y-105457037D01*
X198260004Y-102627428D01*
X198421898Y-102595226D01*
X198586000Y-102527252D01*
X198586000Y-103416624D01*
X198582005Y-103457184D01*
X198597944Y-103619010D01*
X198645146Y-103774617D01*
X198721800Y-103918026D01*
X198756036Y-103959742D01*
X198824959Y-104043725D01*
X198856460Y-104069577D01*
X199481925Y-104695044D01*
X199507774Y-104726541D01*
X199539270Y-104752389D01*
X199539273Y-104752392D01*
X199633472Y-104829699D01*
X199768743Y-104902003D01*
X199776881Y-104906353D01*
X199932489Y-104953556D01*
X200028821Y-104963044D01*
X200169744Y-105057205D01*
X200358102Y-105135226D01*
X200558061Y-105175000D01*
X200761939Y-105175000D01*
X200961898Y-105135226D01*
X201150256Y-105057205D01*
X201319774Y-104943937D01*
X201463937Y-104799774D01*
X201577205Y-104630256D01*
X201655226Y-104441898D01*
X201695000Y-104241939D01*
X201695000Y-104038061D01*
X201655226Y-103838102D01*
X201577205Y-103649744D01*
X201463937Y-103480226D01*
X201319774Y-103336063D01*
X201150256Y-103222795D01*
X201129675Y-103214270D01*
X201147226Y-103171898D01*
X201187000Y-102971939D01*
X201187000Y-102768061D01*
X201149575Y-102579912D01*
X201248913Y-102679250D01*
X201418431Y-102792518D01*
X201606789Y-102870539D01*
X201806748Y-102910313D01*
X202010626Y-102910313D01*
X202210585Y-102870539D01*
X202398943Y-102792518D01*
X202568461Y-102679250D01*
X202712624Y-102535087D01*
X202825892Y-102365569D01*
X202903913Y-102177211D01*
X202936116Y-102015317D01*
X204406500Y-100544933D01*
X204406500Y-101766067D01*
X202644965Y-103527603D01*
X202613459Y-103553459D01*
X202524818Y-103661469D01*
X202396063Y-103790224D01*
X202282795Y-103959742D01*
X202204774Y-104148100D01*
X202165000Y-104348059D01*
X202165000Y-104551937D01*
X202204774Y-104751896D01*
X202282795Y-104940254D01*
X202396063Y-105109772D01*
X202540226Y-105253935D01*
X202709744Y-105367203D01*
X202898102Y-105445224D01*
X203098061Y-105484998D01*
X203301939Y-105484998D01*
X203501898Y-105445224D01*
X203690256Y-105367203D01*
X203859774Y-105253935D01*
X204003937Y-105109772D01*
X204117205Y-104940254D01*
X204195226Y-104751896D01*
X204210907Y-104673061D01*
X206610000Y-104673061D01*
X206610000Y-104876939D01*
X206649774Y-105076898D01*
X206727795Y-105265256D01*
X206841063Y-105434774D01*
X206985226Y-105578937D01*
X207154744Y-105692205D01*
X207343102Y-105770226D01*
X207543061Y-105810000D01*
X207746939Y-105810000D01*
X207946898Y-105770226D01*
X208135256Y-105692205D01*
X208304774Y-105578937D01*
X208448937Y-105434774D01*
X208562205Y-105265256D01*
X208640226Y-105076898D01*
X208680000Y-104876939D01*
X208680000Y-104673061D01*
X208640226Y-104473102D01*
X208562205Y-104284744D01*
X208448937Y-104115226D01*
X208304774Y-103971063D01*
X208135256Y-103857795D01*
X207946898Y-103779774D01*
X207746939Y-103740000D01*
X207543061Y-103740000D01*
X207343102Y-103779774D01*
X207154744Y-103857795D01*
X206985226Y-103971063D01*
X206841063Y-104115226D01*
X206727795Y-104284744D01*
X206649774Y-104473102D01*
X206610000Y-104673061D01*
X204210907Y-104673061D01*
X204235000Y-104551937D01*
X204235000Y-104348059D01*
X204222453Y-104284979D01*
X205787041Y-102720392D01*
X205818541Y-102694541D01*
X205896493Y-102599556D01*
X205921699Y-102568843D01*
X205998353Y-102425434D01*
X206016513Y-102365569D01*
X206026136Y-102333847D01*
X206096226Y-102403937D01*
X206265744Y-102517205D01*
X206454102Y-102595226D01*
X206654061Y-102635000D01*
X206857939Y-102635000D01*
X207057898Y-102595226D01*
X207246256Y-102517205D01*
X207415774Y-102403937D01*
X207559937Y-102259774D01*
X207673205Y-102090256D01*
X207728447Y-101956890D01*
X228428524Y-101956890D01*
X228473175Y-102104099D01*
X228598359Y-102366920D01*
X228772412Y-102600269D01*
X228988645Y-102795178D01*
X229238748Y-102944157D01*
X229513109Y-103041481D01*
X229743000Y-102920814D01*
X229743000Y-101727000D01*
X229997000Y-101727000D01*
X229997000Y-102920814D01*
X230226891Y-103041481D01*
X230501252Y-102944157D01*
X230751355Y-102795178D01*
X230967588Y-102600269D01*
X231141641Y-102366920D01*
X231266825Y-102104099D01*
X231311476Y-101956890D01*
X231190155Y-101727000D01*
X229997000Y-101727000D01*
X229743000Y-101727000D01*
X228549845Y-101727000D01*
X228428524Y-101956890D01*
X207728447Y-101956890D01*
X207751226Y-101901898D01*
X207791000Y-101701939D01*
X207791000Y-101498061D01*
X207751226Y-101298102D01*
X207673205Y-101109744D01*
X207559937Y-100940226D01*
X207415774Y-100796063D01*
X207246256Y-100682795D01*
X207057898Y-100604774D01*
X206857939Y-100565000D01*
X206654061Y-100565000D01*
X206454102Y-100604774D01*
X206265744Y-100682795D01*
X206096226Y-100796063D01*
X206057500Y-100834789D01*
X206057500Y-98210000D01*
X228381928Y-98210000D01*
X228381928Y-99910000D01*
X228394188Y-100034482D01*
X228430498Y-100154180D01*
X228489463Y-100264494D01*
X228568815Y-100361185D01*
X228665506Y-100440537D01*
X228775820Y-100499502D01*
X228856466Y-100523966D01*
X228772412Y-100599731D01*
X228598359Y-100833080D01*
X228473175Y-101095901D01*
X228428524Y-101243110D01*
X228549845Y-101473000D01*
X229743000Y-101473000D01*
X229743000Y-101453000D01*
X229997000Y-101453000D01*
X229997000Y-101473000D01*
X231190155Y-101473000D01*
X231311476Y-101243110D01*
X231266825Y-101095901D01*
X231141641Y-100833080D01*
X230967588Y-100599731D01*
X230883534Y-100523966D01*
X230964180Y-100499502D01*
X231074494Y-100440537D01*
X231171185Y-100361185D01*
X231250537Y-100264494D01*
X231309502Y-100154180D01*
X231345812Y-100034482D01*
X231358072Y-99910000D01*
X231358072Y-98210000D01*
X231345812Y-98085518D01*
X231309502Y-97965820D01*
X231250537Y-97855506D01*
X231171185Y-97758815D01*
X231074494Y-97679463D01*
X230964180Y-97620498D01*
X230844482Y-97584188D01*
X230720000Y-97571928D01*
X229020000Y-97571928D01*
X228895518Y-97584188D01*
X228775820Y-97620498D01*
X228665506Y-97679463D01*
X228568815Y-97758815D01*
X228489463Y-97855506D01*
X228430498Y-97965820D01*
X228394188Y-98085518D01*
X228381928Y-98210000D01*
X206057500Y-98210000D01*
X206057500Y-90543487D01*
X206149205Y-90406240D01*
X206227226Y-90217882D01*
X206267000Y-90017923D01*
X206267000Y-89814045D01*
X206227226Y-89614086D01*
X206149205Y-89425728D01*
X206035937Y-89256210D01*
X205891774Y-89112047D01*
X205722256Y-88998779D01*
X205533898Y-88920758D01*
X205333939Y-88880984D01*
X205130061Y-88880984D01*
X205114511Y-88884077D01*
X205114511Y-85584561D01*
X205118505Y-85544010D01*
X205113388Y-85492056D01*
X205102567Y-85382185D01*
X205055364Y-85226577D01*
X205004777Y-85131937D01*
X204978710Y-85083168D01*
X204901402Y-84988969D01*
X204875552Y-84957470D01*
X204844052Y-84931619D01*
X202927930Y-83015497D01*
X202895727Y-82853603D01*
X202817706Y-82665245D01*
X202704438Y-82495727D01*
X202560275Y-82351564D01*
X202390757Y-82238296D01*
X202202399Y-82160275D01*
X202002440Y-82120501D01*
X201798562Y-82120501D01*
X201598603Y-82160275D01*
X201410245Y-82238296D01*
X201240727Y-82351564D01*
X201096564Y-82495727D01*
X200983296Y-82665245D01*
X200905275Y-82853603D01*
X200865501Y-83053562D01*
X200865501Y-83257440D01*
X200903434Y-83448145D01*
X200761939Y-83420000D01*
X200558061Y-83420000D01*
X200358102Y-83459774D01*
X200169744Y-83537795D01*
X200000226Y-83651063D01*
X199856063Y-83795226D01*
X199742795Y-83964744D01*
X199664774Y-84153102D01*
X199625000Y-84353061D01*
X199625000Y-84556939D01*
X199658039Y-84723039D01*
X199491939Y-84690000D01*
X199288061Y-84690000D01*
X199088102Y-84729774D01*
X198899744Y-84807795D01*
X198730226Y-84921063D01*
X198586063Y-85065226D01*
X198472795Y-85234744D01*
X198394774Y-85423102D01*
X198355000Y-85623061D01*
X198355000Y-85826939D01*
X198388039Y-85993039D01*
X198221939Y-85960000D01*
X198018061Y-85960000D01*
X197818102Y-85999774D01*
X197629744Y-86077795D01*
X197460226Y-86191063D01*
X197316063Y-86335226D01*
X197202795Y-86504744D01*
X197124774Y-86693102D01*
X197085000Y-86893061D01*
X197085000Y-87096939D01*
X197118039Y-87263039D01*
X196951939Y-87230000D01*
X196748061Y-87230000D01*
X196548102Y-87269774D01*
X196359744Y-87347795D01*
X196190226Y-87461063D01*
X196046063Y-87605226D01*
X195932795Y-87774744D01*
X195878450Y-87905943D01*
X195878450Y-87704504D01*
X195808414Y-87352411D01*
X195671034Y-87020746D01*
X195471589Y-86722256D01*
X195217744Y-86468411D01*
X194919254Y-86268966D01*
X194785091Y-86213394D01*
X194933961Y-86064524D01*
X195057659Y-85879398D01*
X195142863Y-85673696D01*
X195186300Y-85455325D01*
X195186300Y-85232675D01*
X195142863Y-85014304D01*
X195057659Y-84808602D01*
X194933961Y-84623476D01*
X194785091Y-84474606D01*
X194919254Y-84419034D01*
X195217744Y-84219589D01*
X195471589Y-83965744D01*
X195671034Y-83667254D01*
X195808414Y-83335589D01*
X195878450Y-82983496D01*
X195878450Y-82624504D01*
X195808414Y-82272411D01*
X195671034Y-81940746D01*
X195471589Y-81642256D01*
X195217744Y-81388411D01*
X194919254Y-81188966D01*
X194679122Y-81089500D01*
X202572497Y-81089500D01*
X202709744Y-81181205D01*
X202898102Y-81259226D01*
X203098061Y-81299000D01*
X203301939Y-81299000D01*
X203397459Y-81280000D01*
X208153000Y-81280000D01*
X208153000Y-88900000D01*
X208155440Y-88924776D01*
X208162667Y-88948601D01*
X208174403Y-88970557D01*
X208190197Y-88989803D01*
X208209443Y-89005597D01*
X208231399Y-89017333D01*
X208255224Y-89024560D01*
X208280000Y-89027000D01*
X218440000Y-89027000D01*
X218464776Y-89024560D01*
X218488601Y-89017333D01*
X218510557Y-89005597D01*
X218529803Y-88989803D01*
X218545597Y-88970557D01*
X218557333Y-88948601D01*
X218564560Y-88924776D01*
X218567000Y-88900000D01*
X218567000Y-81280000D01*
X218564560Y-81255224D01*
X218557333Y-81231399D01*
X218545597Y-81209443D01*
X218529803Y-81190197D01*
X218510557Y-81174403D01*
X218488601Y-81162667D01*
X218464776Y-81155440D01*
X218440000Y-81153000D01*
X208280000Y-81153000D01*
X208255224Y-81155440D01*
X208231399Y-81162667D01*
X208209443Y-81174403D01*
X208190197Y-81190197D01*
X208174403Y-81209443D01*
X208162667Y-81231399D01*
X208155440Y-81255224D01*
X208153000Y-81280000D01*
X203397459Y-81280000D01*
X203501898Y-81259226D01*
X203690256Y-81181205D01*
X203859774Y-81067937D01*
X204003937Y-80923774D01*
X204117205Y-80754256D01*
X204195226Y-80565898D01*
X204235000Y-80365939D01*
X204235000Y-80162061D01*
X204195226Y-79962102D01*
X204117205Y-79773744D01*
X204073430Y-79708230D01*
X204138603Y-79735226D01*
X204338562Y-79775000D01*
X204542440Y-79775000D01*
X204742399Y-79735226D01*
X204930757Y-79657205D01*
X205100275Y-79543937D01*
X205244438Y-79399774D01*
X205357706Y-79230256D01*
X205435727Y-79041898D01*
X205475501Y-78841939D01*
X205475501Y-78726665D01*
X205638061Y-78759000D01*
X205841939Y-78759000D01*
X206041898Y-78719226D01*
X206230256Y-78641205D01*
X206399774Y-78527937D01*
X206543937Y-78383774D01*
X206657205Y-78214256D01*
X206735226Y-78025898D01*
X206775000Y-77825939D01*
X206775000Y-77660500D01*
X210827497Y-77660500D01*
X210964744Y-77752205D01*
X211153102Y-77830226D01*
X211353061Y-77870000D01*
X211556939Y-77870000D01*
X211756898Y-77830226D01*
X211945256Y-77752205D01*
X212114774Y-77638937D01*
X212258937Y-77494774D01*
X212372205Y-77325256D01*
X212450226Y-77136898D01*
X212490000Y-76936939D01*
X212490000Y-76733061D01*
X212450226Y-76533102D01*
X212372205Y-76344744D01*
X212258937Y-76175226D01*
X212114774Y-76031063D01*
X211945256Y-75917795D01*
X211756898Y-75839774D01*
X211556939Y-75800000D01*
X211353061Y-75800000D01*
X211186961Y-75833039D01*
X211220000Y-75666939D01*
X211220000Y-75463061D01*
X211180226Y-75263102D01*
X211102205Y-75074744D01*
X210988937Y-74905226D01*
X210844774Y-74761063D01*
X210675256Y-74647795D01*
X210486898Y-74569774D01*
X210286939Y-74530000D01*
X210083061Y-74530000D01*
X209916965Y-74563038D01*
X209950004Y-74396939D01*
X209950004Y-74193061D01*
X209910230Y-73993102D01*
X209832209Y-73804744D01*
X209718941Y-73635226D01*
X209574778Y-73491063D01*
X209405260Y-73377795D01*
X209216902Y-73299774D01*
X209016943Y-73260000D01*
X208813065Y-73260000D01*
X208613106Y-73299774D01*
X208424748Y-73377795D01*
X208287501Y-73469500D01*
X185761934Y-73469500D01*
X184440830Y-72148397D01*
X189651208Y-72148397D01*
X189728843Y-72397472D01*
X189992883Y-72523371D01*
X190276411Y-72595339D01*
X190568531Y-72610611D01*
X190858019Y-72568599D01*
X191133747Y-72470919D01*
X191271157Y-72397472D01*
X191348792Y-72148397D01*
X190500000Y-71299605D01*
X189651208Y-72148397D01*
X184440830Y-72148397D01*
X184127398Y-71834966D01*
X184101541Y-71803459D01*
X183975842Y-71700301D01*
X183832434Y-71623647D01*
X183676826Y-71576444D01*
X183555553Y-71564500D01*
X183555550Y-71564500D01*
X183515000Y-71560506D01*
X183474450Y-71564500D01*
X85709433Y-71564500D01*
X85333464Y-71188531D01*
X189009389Y-71188531D01*
X189051401Y-71478019D01*
X189149081Y-71753747D01*
X189222528Y-71891157D01*
X189471603Y-71968792D01*
X190320395Y-71120000D01*
X189471603Y-70271208D01*
X189222528Y-70348843D01*
X189096629Y-70612883D01*
X189024661Y-70896411D01*
X189009389Y-71188531D01*
X85333464Y-71188531D01*
X85248072Y-71103140D01*
X85248072Y-70669999D01*
X85231008Y-70496745D01*
X85180472Y-70330149D01*
X85098405Y-70176613D01*
X84987962Y-70042038D01*
X84853387Y-69931595D01*
X84699851Y-69849528D01*
X84533255Y-69798992D01*
X84360001Y-69781928D01*
X83834999Y-69781928D01*
X83661745Y-69798992D01*
X83495149Y-69849528D01*
X83341613Y-69931595D01*
X83207038Y-70042038D01*
X83185000Y-70068891D01*
X83162962Y-70042038D01*
X83028387Y-69931595D01*
X82874851Y-69849528D01*
X82708255Y-69798992D01*
X82535001Y-69781928D01*
X82009999Y-69781928D01*
X81836745Y-69798992D01*
X81670149Y-69849528D01*
X81516613Y-69931595D01*
X81382038Y-70042038D01*
X81271595Y-70176613D01*
X81262302Y-70193999D01*
X77888005Y-70193999D01*
X77855514Y-70190799D01*
X77855511Y-70190799D01*
X77814961Y-70186805D01*
X77774411Y-70190799D01*
X76125589Y-70190799D01*
X76085038Y-70186805D01*
X76044488Y-70190799D01*
X76044486Y-70190799D01*
X75923213Y-70202743D01*
X75767605Y-70249946D01*
X75624197Y-70326600D01*
X75498498Y-70429758D01*
X75472641Y-70461265D01*
X75451265Y-70482641D01*
X75419758Y-70508498D01*
X75367551Y-70572113D01*
X75167737Y-70771928D01*
X74900000Y-70771928D01*
X74775518Y-70784188D01*
X74655820Y-70820498D01*
X74545506Y-70879463D01*
X74448815Y-70958815D01*
X74369463Y-71055506D01*
X74310498Y-71165820D01*
X74274188Y-71285518D01*
X74261928Y-71410000D01*
X61997432Y-71410000D01*
X62007177Y-71403489D01*
X62513489Y-70897177D01*
X62911295Y-70301818D01*
X63185309Y-69640290D01*
X63325000Y-68938016D01*
X63325000Y-68433740D01*
X189015000Y-68433740D01*
X189015000Y-68726260D01*
X189072068Y-69013158D01*
X189184010Y-69283411D01*
X189346525Y-69526632D01*
X189553368Y-69733475D01*
X189726729Y-69849311D01*
X189651208Y-70091603D01*
X190500000Y-70940395D01*
X191348792Y-70091603D01*
X191273271Y-69849311D01*
X191446632Y-69733475D01*
X191653475Y-69526632D01*
X191770000Y-69352240D01*
X191886525Y-69526632D01*
X192093368Y-69733475D01*
X192267760Y-69850000D01*
X192093368Y-69966525D01*
X191886525Y-70173368D01*
X191770689Y-70346729D01*
X191528397Y-70271208D01*
X190679605Y-71120000D01*
X191528397Y-71968792D01*
X191770689Y-71893271D01*
X191886525Y-72066632D01*
X192093368Y-72273475D01*
X192336589Y-72435990D01*
X192606842Y-72547932D01*
X192893740Y-72605000D01*
X193186260Y-72605000D01*
X193473158Y-72547932D01*
X193743411Y-72435990D01*
X193986632Y-72273475D01*
X194193475Y-72066632D01*
X194310000Y-71892240D01*
X194426525Y-72066632D01*
X194633368Y-72273475D01*
X194876589Y-72435990D01*
X195146842Y-72547932D01*
X195433740Y-72605000D01*
X195726260Y-72605000D01*
X196013158Y-72547932D01*
X196283411Y-72435990D01*
X196526632Y-72273475D01*
X196733475Y-72066632D01*
X196850000Y-71892240D01*
X196966525Y-72066632D01*
X197173368Y-72273475D01*
X197416589Y-72435990D01*
X197686842Y-72547932D01*
X197973740Y-72605000D01*
X198266260Y-72605000D01*
X198553158Y-72547932D01*
X198823411Y-72435990D01*
X199066632Y-72273475D01*
X199273475Y-72066632D01*
X199390000Y-71892240D01*
X199506525Y-72066632D01*
X199713368Y-72273475D01*
X199956589Y-72435990D01*
X200226842Y-72547932D01*
X200513740Y-72605000D01*
X200806260Y-72605000D01*
X201093158Y-72547932D01*
X201363411Y-72435990D01*
X201606632Y-72273475D01*
X201813475Y-72066632D01*
X201930000Y-71892240D01*
X202046525Y-72066632D01*
X202253368Y-72273475D01*
X202496589Y-72435990D01*
X202766842Y-72547932D01*
X203053740Y-72605000D01*
X203346260Y-72605000D01*
X203633158Y-72547932D01*
X203903411Y-72435990D01*
X204146632Y-72273475D01*
X204353475Y-72066632D01*
X204470000Y-71892240D01*
X204586525Y-72066632D01*
X204793368Y-72273475D01*
X205036589Y-72435990D01*
X205306842Y-72547932D01*
X205593740Y-72605000D01*
X205886260Y-72605000D01*
X206173158Y-72547932D01*
X206443411Y-72435990D01*
X206686632Y-72273475D01*
X206893475Y-72066632D01*
X207055990Y-71823411D01*
X207167932Y-71553158D01*
X207225000Y-71266260D01*
X207225000Y-70973740D01*
X207167932Y-70686842D01*
X207055990Y-70416589D01*
X206893475Y-70173368D01*
X206706392Y-69986285D01*
X206833386Y-69918405D01*
X206967962Y-69807962D01*
X207078405Y-69673386D01*
X207160472Y-69519850D01*
X207211008Y-69353254D01*
X207228072Y-69180000D01*
X207228072Y-67980000D01*
X207227094Y-67970061D01*
X213849000Y-67970061D01*
X213849000Y-68173939D01*
X213888774Y-68373898D01*
X213966795Y-68562256D01*
X214080063Y-68731774D01*
X214224226Y-68875937D01*
X214393744Y-68989205D01*
X214582102Y-69067226D01*
X214782061Y-69107000D01*
X214985939Y-69107000D01*
X215185898Y-69067226D01*
X215374256Y-68989205D01*
X215543774Y-68875937D01*
X215687937Y-68731774D01*
X215801205Y-68562256D01*
X215879226Y-68373898D01*
X215909443Y-68221984D01*
X224965000Y-68221984D01*
X224965000Y-68938016D01*
X225104691Y-69640290D01*
X225378705Y-70301818D01*
X225776511Y-70897177D01*
X226282823Y-71403489D01*
X226878182Y-71801295D01*
X227539710Y-72075309D01*
X228241984Y-72215000D01*
X228958016Y-72215000D01*
X229660290Y-72075309D01*
X230321818Y-71801295D01*
X230917177Y-71403489D01*
X231423489Y-70897177D01*
X231821295Y-70301818D01*
X232095309Y-69640290D01*
X232235000Y-68938016D01*
X232235000Y-68221984D01*
X232095309Y-67519710D01*
X231821295Y-66858182D01*
X231423489Y-66262823D01*
X230917177Y-65756511D01*
X230321818Y-65358705D01*
X229660290Y-65084691D01*
X228958016Y-64945000D01*
X228241984Y-64945000D01*
X227539710Y-65084691D01*
X226878182Y-65358705D01*
X226282823Y-65756511D01*
X225776511Y-66262823D01*
X225378705Y-66858182D01*
X225104691Y-67519710D01*
X224965000Y-68221984D01*
X215909443Y-68221984D01*
X215919000Y-68173939D01*
X215919000Y-67970061D01*
X215879226Y-67770102D01*
X215801205Y-67581744D01*
X215687937Y-67412226D01*
X215543774Y-67268063D01*
X215374256Y-67154795D01*
X215185898Y-67076774D01*
X214985939Y-67037000D01*
X214782061Y-67037000D01*
X214582102Y-67076774D01*
X214393744Y-67154795D01*
X214224226Y-67268063D01*
X214080063Y-67412226D01*
X213966795Y-67581744D01*
X213888774Y-67770102D01*
X213849000Y-67970061D01*
X207227094Y-67970061D01*
X207211008Y-67806746D01*
X207160472Y-67640150D01*
X207078405Y-67486614D01*
X206967962Y-67352038D01*
X206833386Y-67241595D01*
X206679850Y-67159528D01*
X206513254Y-67108992D01*
X206340000Y-67091928D01*
X205140000Y-67091928D01*
X204966746Y-67108992D01*
X204800150Y-67159528D01*
X204646614Y-67241595D01*
X204512038Y-67352038D01*
X204401595Y-67486614D01*
X204333715Y-67613608D01*
X204146632Y-67426525D01*
X203903411Y-67264010D01*
X203633158Y-67152068D01*
X203346260Y-67095000D01*
X203053740Y-67095000D01*
X202766842Y-67152068D01*
X202496589Y-67264010D01*
X202253368Y-67426525D01*
X202046525Y-67633368D01*
X201930000Y-67807760D01*
X201813475Y-67633368D01*
X201606632Y-67426525D01*
X201363411Y-67264010D01*
X201093158Y-67152068D01*
X200806260Y-67095000D01*
X200513740Y-67095000D01*
X200226842Y-67152068D01*
X199956589Y-67264010D01*
X199713368Y-67426525D01*
X199506525Y-67633368D01*
X199390000Y-67807760D01*
X199273475Y-67633368D01*
X199066632Y-67426525D01*
X198823411Y-67264010D01*
X198553158Y-67152068D01*
X198266260Y-67095000D01*
X197973740Y-67095000D01*
X197686842Y-67152068D01*
X197416589Y-67264010D01*
X197173368Y-67426525D01*
X196966525Y-67633368D01*
X196850000Y-67807760D01*
X196733475Y-67633368D01*
X196526632Y-67426525D01*
X196283411Y-67264010D01*
X196013158Y-67152068D01*
X195726260Y-67095000D01*
X195433740Y-67095000D01*
X195146842Y-67152068D01*
X194876589Y-67264010D01*
X194633368Y-67426525D01*
X194426525Y-67633368D01*
X194310000Y-67807760D01*
X194193475Y-67633368D01*
X193986632Y-67426525D01*
X193743411Y-67264010D01*
X193473158Y-67152068D01*
X193186260Y-67095000D01*
X192893740Y-67095000D01*
X192606842Y-67152068D01*
X192336589Y-67264010D01*
X192093368Y-67426525D01*
X191886525Y-67633368D01*
X191770000Y-67807760D01*
X191653475Y-67633368D01*
X191446632Y-67426525D01*
X191203411Y-67264010D01*
X190933158Y-67152068D01*
X190646260Y-67095000D01*
X190353740Y-67095000D01*
X190066842Y-67152068D01*
X189796589Y-67264010D01*
X189553368Y-67426525D01*
X189346525Y-67633368D01*
X189184010Y-67876589D01*
X189072068Y-68146842D01*
X189015000Y-68433740D01*
X63325000Y-68433740D01*
X63325000Y-68221984D01*
X63185309Y-67519710D01*
X62911295Y-66858182D01*
X62513489Y-66262823D01*
X62007177Y-65756511D01*
X61411818Y-65358705D01*
X60750290Y-65084691D01*
X60048016Y-64945000D01*
X59331984Y-64945000D01*
X58629710Y-65084691D01*
X57968182Y-65358705D01*
X57372823Y-65756511D01*
X56866511Y-66262823D01*
X56468705Y-66858182D01*
X56194691Y-67519710D01*
X56055000Y-68221984D01*
X52730000Y-68221984D01*
X52730000Y-66069392D01*
X52802437Y-65257751D01*
X53009672Y-64500226D01*
X53347777Y-63791375D01*
X53806067Y-63153596D01*
X54370055Y-62607054D01*
X55021913Y-62169023D01*
X55741038Y-61853349D01*
X56509768Y-61668794D01*
X57174207Y-61620000D01*
X231110608Y-61620000D01*
X231922249Y-61692437D01*
%TA.AperFunction,Conductor*%
D24*
G36*
X231922249Y-61692437D02*
G01*
X232679774Y-61899672D01*
X233388625Y-62237777D01*
X234026404Y-62696067D01*
X234572946Y-63260055D01*
X235010977Y-63911913D01*
X235326651Y-64631038D01*
X235511206Y-65399768D01*
X235560000Y-66064207D01*
X235560001Y-132050597D01*
X235487563Y-132862249D01*
X235280328Y-133619774D01*
X234942221Y-134328627D01*
X234483928Y-134966410D01*
X233919945Y-135512946D01*
X233268085Y-135950978D01*
X232548963Y-136266651D01*
X231780232Y-136451206D01*
X231115792Y-136500000D01*
X57179392Y-136500000D01*
X56367751Y-136427563D01*
X55610226Y-136220328D01*
X54901373Y-135882221D01*
X54263590Y-135423928D01*
X53717054Y-134859945D01*
X53279022Y-134208085D01*
X52963349Y-133488963D01*
X52778794Y-132720232D01*
X52730000Y-132055792D01*
X52730000Y-130451984D01*
X56055000Y-130451984D01*
X56055000Y-131168016D01*
X56194691Y-131870290D01*
X56468705Y-132531818D01*
X56866511Y-133127177D01*
X57372823Y-133633489D01*
X57968182Y-134031295D01*
X58629710Y-134305309D01*
X59331984Y-134445000D01*
X60048016Y-134445000D01*
X60750290Y-134305309D01*
X61411818Y-134031295D01*
X61562669Y-133930499D01*
X131466106Y-133930499D01*
X131682228Y-134297258D01*
X132142105Y-134537938D01*
X132640098Y-134684275D01*
X133157071Y-134730648D01*
X133673159Y-134675273D01*
X134168526Y-134520279D01*
X134585772Y-134297258D01*
X134801894Y-133930499D01*
X133134000Y-132262605D01*
X131466106Y-133930499D01*
X61562669Y-133930499D01*
X62007177Y-133633489D01*
X62513489Y-133127177D01*
X62911295Y-132531818D01*
X63087645Y-132106071D01*
X130486352Y-132106071D01*
X130541727Y-132622159D01*
X130696721Y-133117526D01*
X130919742Y-133534772D01*
X131286501Y-133750894D01*
X132954395Y-132083000D01*
X131286501Y-130415106D01*
X130919742Y-130631228D01*
X130679062Y-131091105D01*
X130532725Y-131589098D01*
X130486352Y-132106071D01*
X63087645Y-132106071D01*
X63185309Y-131870290D01*
X63325000Y-131168016D01*
X63325000Y-130451984D01*
X63281939Y-130235501D01*
X131466106Y-130235501D01*
X133134000Y-131903395D01*
X133148143Y-131889253D01*
X133327748Y-132068858D01*
X133313605Y-132083000D01*
X134981499Y-133750894D01*
X135348258Y-133534772D01*
X135588938Y-133074895D01*
X135735275Y-132576902D01*
X135781648Y-132059929D01*
X135726273Y-131543841D01*
X135571279Y-131048474D01*
X135348258Y-130631228D01*
X134981501Y-130415107D01*
X134996191Y-130400417D01*
X135558250Y-130398000D01*
X135717000Y-130239250D01*
X135717000Y-129140000D01*
X135971000Y-129140000D01*
X135971000Y-130239250D01*
X136129750Y-130398000D01*
X136844000Y-130401072D01*
X136968482Y-130388812D01*
X137088180Y-130352502D01*
X137198494Y-130293537D01*
X137295185Y-130214185D01*
X137374537Y-130117494D01*
X137433502Y-130007180D01*
X137469812Y-129887482D01*
X137482072Y-129763000D01*
X137479823Y-129423061D01*
X145665000Y-129423061D01*
X145665000Y-129626939D01*
X145704774Y-129826898D01*
X145782795Y-130015256D01*
X145896063Y-130184774D01*
X146040226Y-130328937D01*
X146209744Y-130442205D01*
X146398102Y-130520226D01*
X146598061Y-130560000D01*
X146801939Y-130560000D01*
X147001898Y-130520226D01*
X147190256Y-130442205D01*
X147359774Y-130328937D01*
X147503937Y-130184774D01*
X147617205Y-130015256D01*
X147695226Y-129826898D01*
X147735000Y-129626939D01*
X147735000Y-129423061D01*
X147695226Y-129223102D01*
X147678195Y-129181984D01*
X224965000Y-129181984D01*
X224965000Y-129898016D01*
X225104691Y-130600290D01*
X225378705Y-131261818D01*
X225776511Y-131857177D01*
X226282823Y-132363489D01*
X226878182Y-132761295D01*
X227539710Y-133035309D01*
X228241984Y-133175000D01*
X228958016Y-133175000D01*
X229660290Y-133035309D01*
X230321818Y-132761295D01*
X230917177Y-132363489D01*
X231423489Y-131857177D01*
X231821295Y-131261818D01*
X232095309Y-130600290D01*
X232235000Y-129898016D01*
X232235000Y-129181984D01*
X232095309Y-128479710D01*
X231821295Y-127818182D01*
X231423489Y-127222823D01*
X230917177Y-126716511D01*
X230321818Y-126318705D01*
X229660290Y-126044691D01*
X228958016Y-125905000D01*
X228241984Y-125905000D01*
X227539710Y-126044691D01*
X226878182Y-126318705D01*
X226282823Y-126716511D01*
X225776511Y-127222823D01*
X225378705Y-127818182D01*
X225104691Y-128479710D01*
X224965000Y-129181984D01*
X147678195Y-129181984D01*
X147617205Y-129034744D01*
X147503937Y-128865226D01*
X147359774Y-128721063D01*
X147190256Y-128607795D01*
X147001898Y-128529774D01*
X146801939Y-128490000D01*
X146598061Y-128490000D01*
X146398102Y-128529774D01*
X146209744Y-128607795D01*
X146040226Y-128721063D01*
X145896063Y-128865226D01*
X145782795Y-129034744D01*
X145704774Y-129223102D01*
X145665000Y-129423061D01*
X137479823Y-129423061D01*
X137479000Y-129298750D01*
X137320250Y-129140000D01*
X135971000Y-129140000D01*
X135717000Y-129140000D01*
X134367750Y-129140000D01*
X134209000Y-129298750D01*
X134206542Y-129670269D01*
X134125895Y-129628062D01*
X133627902Y-129481725D01*
X133110929Y-129435352D01*
X132594841Y-129490727D01*
X132099474Y-129645721D01*
X131682228Y-129868742D01*
X131466106Y-130235501D01*
X63281939Y-130235501D01*
X63185309Y-129749710D01*
X62911295Y-129088182D01*
X62513489Y-128492823D01*
X62007177Y-127986511D01*
X61411818Y-127588705D01*
X60750290Y-127314691D01*
X60048016Y-127175000D01*
X59331984Y-127175000D01*
X58629710Y-127314691D01*
X57968182Y-127588705D01*
X57372823Y-127986511D01*
X56866511Y-128492823D01*
X56468705Y-129088182D01*
X56194691Y-129749710D01*
X56055000Y-130451984D01*
X52730000Y-130451984D01*
X52730000Y-120790499D01*
X131466106Y-120790499D01*
X131682228Y-121157258D01*
X132142105Y-121397938D01*
X132640098Y-121544275D01*
X133157071Y-121590648D01*
X133673159Y-121535273D01*
X134168526Y-121380279D01*
X134258151Y-121332374D01*
X134225394Y-121440359D01*
X134205928Y-121638000D01*
X134205928Y-122388000D01*
X134225394Y-122585641D01*
X134283044Y-122775686D01*
X134376661Y-122950833D01*
X134502650Y-123104350D01*
X134656167Y-123230339D01*
X134717272Y-123263000D01*
X134656167Y-123295661D01*
X134502650Y-123421650D01*
X134376661Y-123575167D01*
X134283044Y-123750314D01*
X134225394Y-123940359D01*
X134205928Y-124138000D01*
X134205928Y-124888000D01*
X134225394Y-125085641D01*
X134283044Y-125275686D01*
X134376661Y-125450833D01*
X134427680Y-125513000D01*
X134376661Y-125575167D01*
X134283044Y-125750314D01*
X134225394Y-125940359D01*
X134205928Y-126138000D01*
X134205928Y-126888000D01*
X134225394Y-127085641D01*
X134283044Y-127275686D01*
X134376661Y-127450833D01*
X134502650Y-127604350D01*
X134592000Y-127677678D01*
X134489506Y-127732463D01*
X134392815Y-127811815D01*
X134313463Y-127908506D01*
X134254498Y-128018820D01*
X134218188Y-128138518D01*
X134205928Y-128263000D01*
X134209000Y-128727250D01*
X134367750Y-128886000D01*
X135717000Y-128886000D01*
X135717000Y-128866000D01*
X135971000Y-128866000D01*
X135971000Y-128886000D01*
X137320250Y-128886000D01*
X137479000Y-128727250D01*
X137482072Y-128263000D01*
X137469812Y-128138518D01*
X137433502Y-128018820D01*
X137374537Y-127908506D01*
X137295185Y-127811815D01*
X137198494Y-127732463D01*
X137096000Y-127677678D01*
X137185350Y-127604350D01*
X137311339Y-127450833D01*
X137404956Y-127275686D01*
X137462606Y-127085641D01*
X137465208Y-127059224D01*
X139620055Y-124904378D01*
X139651555Y-124878527D01*
X139704191Y-124814390D01*
X139754713Y-124752829D01*
X139831367Y-124609420D01*
X139831367Y-124609419D01*
X139878570Y-124453812D01*
X139890514Y-124332539D01*
X139890514Y-124332537D01*
X139894508Y-124291987D01*
X139890514Y-124251436D01*
X139890514Y-121912503D01*
X139953617Y-121818061D01*
X146920000Y-121818061D01*
X146920000Y-122021939D01*
X146959774Y-122221898D01*
X147037795Y-122410256D01*
X147151063Y-122579774D01*
X147295226Y-122723937D01*
X147464744Y-122837205D01*
X147653102Y-122915226D01*
X147853061Y-122955000D01*
X148056939Y-122955000D01*
X148256898Y-122915226D01*
X148445256Y-122837205D01*
X148614774Y-122723937D01*
X148758937Y-122579774D01*
X148872205Y-122410256D01*
X148950226Y-122221898D01*
X148990000Y-122021939D01*
X148990000Y-121818061D01*
X148983506Y-121785413D01*
X157794192Y-121785413D01*
X157889956Y-122049814D01*
X158179571Y-122190704D01*
X158491108Y-122272384D01*
X158812595Y-122291718D01*
X159131675Y-122247961D01*
X159436088Y-122142795D01*
X159610044Y-122049814D01*
X159705808Y-121785413D01*
X160334192Y-121785413D01*
X160429956Y-122049814D01*
X160719571Y-122190704D01*
X161031108Y-122272384D01*
X161352595Y-122291718D01*
X161671675Y-122247961D01*
X161976088Y-122142795D01*
X162150044Y-122049814D01*
X162245808Y-121785413D01*
X161290000Y-120829605D01*
X160334192Y-121785413D01*
X159705808Y-121785413D01*
X158750000Y-120829605D01*
X157794192Y-121785413D01*
X148983506Y-121785413D01*
X148950226Y-121618102D01*
X148872205Y-121429744D01*
X148758937Y-121260226D01*
X148614774Y-121116063D01*
X148445256Y-121002795D01*
X148256898Y-120924774D01*
X148056939Y-120885000D01*
X147853061Y-120885000D01*
X147653102Y-120924774D01*
X147464744Y-121002795D01*
X147295226Y-121116063D01*
X147151063Y-121260226D01*
X147037795Y-121429744D01*
X146959774Y-121618102D01*
X146920000Y-121818061D01*
X139953617Y-121818061D01*
X139982219Y-121775256D01*
X140060240Y-121586898D01*
X140100014Y-121386939D01*
X140100014Y-121183061D01*
X140060240Y-120983102D01*
X139982219Y-120794744D01*
X139927329Y-120712595D01*
X157108282Y-120712595D01*
X157152039Y-121031675D01*
X157257205Y-121336088D01*
X157350186Y-121510044D01*
X157614587Y-121605808D01*
X158570395Y-120650000D01*
X158929605Y-120650000D01*
X159885413Y-121605808D01*
X160020000Y-121557062D01*
X160154587Y-121605808D01*
X161110395Y-120650000D01*
X161469605Y-120650000D01*
X162425413Y-121605808D01*
X162487280Y-121583400D01*
X162560013Y-121692252D01*
X162787748Y-121919987D01*
X163055537Y-122098918D01*
X163353088Y-122222168D01*
X163668967Y-122285000D01*
X163991033Y-122285000D01*
X164306912Y-122222168D01*
X164604463Y-122098918D01*
X164872252Y-121919987D01*
X165099987Y-121692252D01*
X165100000Y-121692233D01*
X165100013Y-121692252D01*
X165327748Y-121919987D01*
X165595537Y-122098918D01*
X165893088Y-122222168D01*
X166208967Y-122285000D01*
X166531033Y-122285000D01*
X166846912Y-122222168D01*
X167144463Y-122098918D01*
X167412252Y-121919987D01*
X167639987Y-121692252D01*
X167640000Y-121692233D01*
X167640013Y-121692252D01*
X167867748Y-121919987D01*
X168135537Y-122098918D01*
X168433088Y-122222168D01*
X168748967Y-122285000D01*
X169071033Y-122285000D01*
X169386912Y-122222168D01*
X169684463Y-122098918D01*
X169952252Y-121919987D01*
X170179987Y-121692252D01*
X170180000Y-121692233D01*
X170180013Y-121692252D01*
X170407748Y-121919987D01*
X170675537Y-122098918D01*
X170973088Y-122222168D01*
X171288967Y-122285000D01*
X171611033Y-122285000D01*
X171926912Y-122222168D01*
X172224463Y-122098918D01*
X172492252Y-121919987D01*
X172626826Y-121785413D01*
X173034192Y-121785413D01*
X173129956Y-122049814D01*
X173419571Y-122190704D01*
X173731108Y-122272384D01*
X174052595Y-122291718D01*
X174371675Y-122247961D01*
X174676088Y-122142795D01*
X174850044Y-122049814D01*
X174945808Y-121785413D01*
X175574192Y-121785413D01*
X175669956Y-122049814D01*
X175959571Y-122190704D01*
X176271108Y-122272384D01*
X176592595Y-122291718D01*
X176911675Y-122247961D01*
X177216088Y-122142795D01*
X177390044Y-122049814D01*
X177485808Y-121785413D01*
X178114192Y-121785413D01*
X178209956Y-122049814D01*
X178499571Y-122190704D01*
X178811108Y-122272384D01*
X179132595Y-122291718D01*
X179451675Y-122247961D01*
X179756088Y-122142795D01*
X179930044Y-122049814D01*
X180025808Y-121785413D01*
X180654192Y-121785413D01*
X180749956Y-122049814D01*
X181039571Y-122190704D01*
X181351108Y-122272384D01*
X181672595Y-122291718D01*
X181991675Y-122247961D01*
X182296088Y-122142795D01*
X182470044Y-122049814D01*
X182565808Y-121785413D01*
X183194192Y-121785413D01*
X183289956Y-122049814D01*
X183579571Y-122190704D01*
X183891108Y-122272384D01*
X184212595Y-122291718D01*
X184531675Y-122247961D01*
X184836088Y-122142795D01*
X185010044Y-122049814D01*
X185105808Y-121785413D01*
X184150000Y-120829605D01*
X183194192Y-121785413D01*
X182565808Y-121785413D01*
X181610000Y-120829605D01*
X180654192Y-121785413D01*
X180025808Y-121785413D01*
X179070000Y-120829605D01*
X178114192Y-121785413D01*
X177485808Y-121785413D01*
X176530000Y-120829605D01*
X175574192Y-121785413D01*
X174945808Y-121785413D01*
X173990000Y-120829605D01*
X173034192Y-121785413D01*
X172626826Y-121785413D01*
X172719987Y-121692252D01*
X172792720Y-121583400D01*
X172854587Y-121605808D01*
X173810395Y-120650000D01*
X174169605Y-120650000D01*
X175125413Y-121605808D01*
X175260000Y-121557062D01*
X175394587Y-121605808D01*
X176350395Y-120650000D01*
X176709605Y-120650000D01*
X177665413Y-121605808D01*
X177800000Y-121557062D01*
X177934587Y-121605808D01*
X178890395Y-120650000D01*
X179249605Y-120650000D01*
X180205413Y-121605808D01*
X180340000Y-121557062D01*
X180474587Y-121605808D01*
X181430395Y-120650000D01*
X181789605Y-120650000D01*
X182745413Y-121605808D01*
X182880000Y-121557062D01*
X183014587Y-121605808D01*
X183970395Y-120650000D01*
X183014587Y-119694192D01*
X182880000Y-119742938D01*
X182745413Y-119694192D01*
X181789605Y-120650000D01*
X181430395Y-120650000D01*
X180474587Y-119694192D01*
X180340000Y-119742938D01*
X180205413Y-119694192D01*
X179249605Y-120650000D01*
X178890395Y-120650000D01*
X177934587Y-119694192D01*
X177800000Y-119742938D01*
X177665413Y-119694192D01*
X176709605Y-120650000D01*
X176350395Y-120650000D01*
X175394587Y-119694192D01*
X175260000Y-119742938D01*
X175125413Y-119694192D01*
X174169605Y-120650000D01*
X173810395Y-120650000D01*
X172854587Y-119694192D01*
X172792720Y-119716600D01*
X172719987Y-119607748D01*
X172492252Y-119380013D01*
X172224463Y-119201082D01*
X172196502Y-119189500D01*
X173243492Y-119189500D01*
X173129956Y-119250186D01*
X173034192Y-119514587D01*
X173990000Y-120470395D01*
X174945808Y-119514587D01*
X174850044Y-119250186D01*
X174725297Y-119189500D01*
X175783492Y-119189500D01*
X175669956Y-119250186D01*
X175574192Y-119514587D01*
X176530000Y-120470395D01*
X177485808Y-119514587D01*
X177390044Y-119250186D01*
X177265297Y-119189500D01*
X178323492Y-119189500D01*
X178209956Y-119250186D01*
X178114192Y-119514587D01*
X179070000Y-120470395D01*
X180025808Y-119514587D01*
X179930044Y-119250186D01*
X179805297Y-119189500D01*
X180863492Y-119189500D01*
X180749956Y-119250186D01*
X180654192Y-119514587D01*
X181610000Y-120470395D01*
X182565808Y-119514587D01*
X182470044Y-119250186D01*
X182345297Y-119189500D01*
X183403492Y-119189500D01*
X183289956Y-119250186D01*
X183194192Y-119514587D01*
X184150000Y-120470395D01*
X185105808Y-119514587D01*
X185010044Y-119250186D01*
X184885297Y-119189500D01*
X185943498Y-119189500D01*
X185915537Y-119201082D01*
X185647748Y-119380013D01*
X185420013Y-119607748D01*
X185347280Y-119716600D01*
X185285413Y-119694192D01*
X184329605Y-120650000D01*
X185285413Y-121605808D01*
X185347280Y-121583400D01*
X185420013Y-121692252D01*
X185647748Y-121919987D01*
X185915537Y-122098918D01*
X186213088Y-122222168D01*
X186528967Y-122285000D01*
X186851033Y-122285000D01*
X187166912Y-122222168D01*
X187464463Y-122098918D01*
X187732252Y-121919987D01*
X187959987Y-121692252D01*
X187960000Y-121692233D01*
X187960013Y-121692252D01*
X188187748Y-121919987D01*
X188455537Y-122098918D01*
X188753088Y-122222168D01*
X189068967Y-122285000D01*
X189391033Y-122285000D01*
X189706912Y-122222168D01*
X190004463Y-122098918D01*
X190272252Y-121919987D01*
X190499987Y-121692252D01*
X190500000Y-121692233D01*
X190500013Y-121692252D01*
X190727748Y-121919987D01*
X190995537Y-122098918D01*
X191293088Y-122222168D01*
X191608967Y-122285000D01*
X191931033Y-122285000D01*
X192246912Y-122222168D01*
X192544463Y-122098918D01*
X192812252Y-121919987D01*
X192946826Y-121785413D01*
X193354192Y-121785413D01*
X193449956Y-122049814D01*
X193739571Y-122190704D01*
X194051108Y-122272384D01*
X194372595Y-122291718D01*
X194691675Y-122247961D01*
X194996088Y-122142795D01*
X195170044Y-122049814D01*
X195265808Y-121785413D01*
X195894192Y-121785413D01*
X195989956Y-122049814D01*
X196279571Y-122190704D01*
X196591108Y-122272384D01*
X196912595Y-122291718D01*
X197231675Y-122247961D01*
X197536088Y-122142795D01*
X197710044Y-122049814D01*
X197805808Y-121785413D01*
X196850000Y-120829605D01*
X195894192Y-121785413D01*
X195265808Y-121785413D01*
X194310000Y-120829605D01*
X193354192Y-121785413D01*
X192946826Y-121785413D01*
X193039987Y-121692252D01*
X193112720Y-121583400D01*
X193174587Y-121605808D01*
X194130395Y-120650000D01*
X194489605Y-120650000D01*
X195445413Y-121605808D01*
X195580000Y-121557062D01*
X195714587Y-121605808D01*
X196670395Y-120650000D01*
X197029605Y-120650000D01*
X197985413Y-121605808D01*
X198047280Y-121583400D01*
X198120013Y-121692252D01*
X198347748Y-121919987D01*
X198615537Y-122098918D01*
X198913088Y-122222168D01*
X199228967Y-122285000D01*
X199551033Y-122285000D01*
X199866912Y-122222168D01*
X200164463Y-122098918D01*
X200432252Y-121919987D01*
X200659987Y-121692252D01*
X200660000Y-121692233D01*
X200660013Y-121692252D01*
X200887748Y-121919987D01*
X201155537Y-122098918D01*
X201453088Y-122222168D01*
X201768967Y-122285000D01*
X202091033Y-122285000D01*
X202406912Y-122222168D01*
X202704463Y-122098918D01*
X202972252Y-121919987D01*
X203199987Y-121692252D01*
X203200000Y-121692233D01*
X203200013Y-121692252D01*
X203427748Y-121919987D01*
X203695537Y-122098918D01*
X203993088Y-122222168D01*
X204308967Y-122285000D01*
X204631033Y-122285000D01*
X204946912Y-122222168D01*
X205244463Y-122098918D01*
X205454809Y-121958370D01*
X205479463Y-122004494D01*
X205558815Y-122101185D01*
X205655506Y-122180537D01*
X205765820Y-122239502D01*
X205885518Y-122275812D01*
X206010000Y-122288072D01*
X206724250Y-122285000D01*
X206883000Y-122126250D01*
X206883000Y-120777000D01*
X207137000Y-120777000D01*
X207137000Y-122126250D01*
X207295750Y-122285000D01*
X208010000Y-122288072D01*
X208134482Y-122275812D01*
X208254180Y-122239502D01*
X208364494Y-122180537D01*
X208461185Y-122101185D01*
X208540537Y-122004494D01*
X208599502Y-121894180D01*
X208635812Y-121774482D01*
X208648072Y-121650000D01*
X208645000Y-120935750D01*
X208486250Y-120777000D01*
X207137000Y-120777000D01*
X206883000Y-120777000D01*
X206863000Y-120777000D01*
X206863000Y-120523000D01*
X206883000Y-120523000D01*
X206883000Y-119173750D01*
X207137000Y-119173750D01*
X207137000Y-120523000D01*
X208486250Y-120523000D01*
X208645000Y-120364250D01*
X208648072Y-119650000D01*
X208635812Y-119525518D01*
X208630195Y-119507000D01*
X218440000Y-119507000D01*
X218464776Y-119504560D01*
X218488601Y-119497333D01*
X218510557Y-119485597D01*
X218529803Y-119469803D01*
X218545597Y-119450557D01*
X218557333Y-119428601D01*
X218564560Y-119404776D01*
X218567000Y-119380000D01*
X218567000Y-111760000D01*
X218564560Y-111735224D01*
X218557333Y-111711399D01*
X218545597Y-111689443D01*
X218529803Y-111670197D01*
X218510557Y-111654403D01*
X218488601Y-111642667D01*
X218464776Y-111635440D01*
X218440000Y-111633000D01*
X208280000Y-111633000D01*
X208255224Y-111635440D01*
X208231399Y-111642667D01*
X208209443Y-111654403D01*
X208190197Y-111670197D01*
X208174403Y-111689443D01*
X208162667Y-111711399D01*
X208155440Y-111735224D01*
X208153000Y-111760000D01*
X208153000Y-119029805D01*
X208134482Y-119024188D01*
X208010000Y-119011928D01*
X207295750Y-119015000D01*
X207137000Y-119173750D01*
X206883000Y-119173750D01*
X206724250Y-119015000D01*
X206010000Y-119011928D01*
X205885518Y-119024188D01*
X205765820Y-119060498D01*
X205655506Y-119119463D01*
X205558815Y-119198815D01*
X205479463Y-119295506D01*
X205454809Y-119341630D01*
X205244463Y-119201082D01*
X204946912Y-119077832D01*
X204631033Y-119015000D01*
X204308967Y-119015000D01*
X203993088Y-119077832D01*
X203695537Y-119201082D01*
X203427748Y-119380013D01*
X203200013Y-119607748D01*
X203200000Y-119607767D01*
X203199987Y-119607748D01*
X202972252Y-119380013D01*
X202704463Y-119201082D01*
X202406912Y-119077832D01*
X202091033Y-119015000D01*
X201768967Y-119015000D01*
X201453088Y-119077832D01*
X201155537Y-119201082D01*
X200887748Y-119380013D01*
X200660013Y-119607748D01*
X200660000Y-119607767D01*
X200659987Y-119607748D01*
X200432252Y-119380013D01*
X200164463Y-119201082D01*
X199866912Y-119077832D01*
X199551033Y-119015000D01*
X199228967Y-119015000D01*
X198913088Y-119077832D01*
X198615537Y-119201082D01*
X198347748Y-119380013D01*
X198120013Y-119607748D01*
X198047280Y-119716600D01*
X197985413Y-119694192D01*
X197029605Y-120650000D01*
X196670395Y-120650000D01*
X195714587Y-119694192D01*
X195580000Y-119742938D01*
X195445413Y-119694192D01*
X194489605Y-120650000D01*
X194130395Y-120650000D01*
X193174587Y-119694192D01*
X193112720Y-119716600D01*
X193039987Y-119607748D01*
X192812252Y-119380013D01*
X192544463Y-119201082D01*
X192516502Y-119189500D01*
X193563492Y-119189500D01*
X193449956Y-119250186D01*
X193354192Y-119514587D01*
X194310000Y-120470395D01*
X195265808Y-119514587D01*
X195170044Y-119250186D01*
X195045297Y-119189500D01*
X195968497Y-119189500D01*
X196028493Y-119229588D01*
X195989956Y-119250186D01*
X195894192Y-119514587D01*
X196850000Y-120470395D01*
X197805808Y-119514587D01*
X197710044Y-119250186D01*
X197420429Y-119109296D01*
X197336436Y-119087275D01*
X197399937Y-119023774D01*
X197513205Y-118854256D01*
X197591226Y-118665898D01*
X197631000Y-118465939D01*
X197631000Y-118383000D01*
X197713939Y-118383000D01*
X197913898Y-118343226D01*
X198102256Y-118265205D01*
X198271774Y-118151937D01*
X198415937Y-118007774D01*
X198529205Y-117838256D01*
X198607226Y-117649898D01*
X198647000Y-117449939D01*
X198647000Y-117246061D01*
X198607226Y-117046102D01*
X198529205Y-116857744D01*
X198449236Y-116738061D01*
X201403000Y-116738061D01*
X201403000Y-116941939D01*
X201442774Y-117141898D01*
X201520795Y-117330256D01*
X201634063Y-117499774D01*
X201778226Y-117643937D01*
X201947744Y-117757205D01*
X202136102Y-117835226D01*
X202336061Y-117875000D01*
X202539939Y-117875000D01*
X202739898Y-117835226D01*
X202928256Y-117757205D01*
X203097774Y-117643937D01*
X203241937Y-117499774D01*
X203355205Y-117330256D01*
X203433226Y-117141898D01*
X203473000Y-116941939D01*
X203473000Y-116738061D01*
X203433226Y-116538102D01*
X203355205Y-116349744D01*
X203241937Y-116180226D01*
X203097774Y-116036063D01*
X202928256Y-115922795D01*
X202739898Y-115844774D01*
X202539939Y-115805000D01*
X202336061Y-115805000D01*
X202136102Y-115844774D01*
X201947744Y-115922795D01*
X201778226Y-116036063D01*
X201634063Y-116180226D01*
X201520795Y-116349744D01*
X201442774Y-116538102D01*
X201403000Y-116738061D01*
X198449236Y-116738061D01*
X198415937Y-116688226D01*
X198271774Y-116544063D01*
X198102256Y-116430795D01*
X197913898Y-116352774D01*
X197713939Y-116313000D01*
X197510061Y-116313000D01*
X197310102Y-116352774D01*
X197121744Y-116430795D01*
X196984497Y-116522500D01*
X169712550Y-116522500D01*
X169671999Y-116518506D01*
X169631449Y-116522500D01*
X169631447Y-116522500D01*
X169510174Y-116534444D01*
X169354566Y-116581647D01*
X169211157Y-116658301D01*
X169174694Y-116688226D01*
X169085459Y-116761459D01*
X169059606Y-116792961D01*
X166786710Y-119065857D01*
X166531033Y-119015000D01*
X166208967Y-119015000D01*
X165893088Y-119077832D01*
X165595537Y-119201082D01*
X165327748Y-119380013D01*
X165100013Y-119607748D01*
X165100000Y-119607767D01*
X165099987Y-119607748D01*
X164872252Y-119380013D01*
X164604463Y-119201082D01*
X164306912Y-119077832D01*
X163991033Y-119015000D01*
X163668967Y-119015000D01*
X163353088Y-119077832D01*
X163055537Y-119201082D01*
X162787748Y-119380013D01*
X162560013Y-119607748D01*
X162487280Y-119716600D01*
X162425413Y-119694192D01*
X161469605Y-120650000D01*
X161110395Y-120650000D01*
X160154587Y-119694192D01*
X160020000Y-119742938D01*
X159885413Y-119694192D01*
X158929605Y-120650000D01*
X158570395Y-120650000D01*
X157614587Y-119694192D01*
X157350186Y-119789956D01*
X157209296Y-120079571D01*
X157127616Y-120391108D01*
X157108282Y-120712595D01*
X139927329Y-120712595D01*
X139868951Y-120625226D01*
X139724788Y-120481063D01*
X139555270Y-120367795D01*
X139366912Y-120289774D01*
X139166953Y-120250000D01*
X138963075Y-120250000D01*
X138763116Y-120289774D01*
X138574758Y-120367795D01*
X138405240Y-120481063D01*
X138261077Y-120625226D01*
X138147809Y-120794744D01*
X138069788Y-120983102D01*
X138030014Y-121183061D01*
X138030014Y-121386939D01*
X138069788Y-121586898D01*
X138147809Y-121775256D01*
X138239515Y-121912504D01*
X138239514Y-123950053D01*
X137482072Y-124707495D01*
X137482072Y-124138000D01*
X137462606Y-123940359D01*
X137404956Y-123750314D01*
X137311339Y-123575167D01*
X137185350Y-123421650D01*
X137031833Y-123295661D01*
X136970728Y-123263000D01*
X137031833Y-123230339D01*
X137185350Y-123104350D01*
X137311339Y-122950833D01*
X137404956Y-122775686D01*
X137462606Y-122585641D01*
X137482072Y-122388000D01*
X137482072Y-121638000D01*
X137462606Y-121440359D01*
X137404956Y-121250314D01*
X137311339Y-121075167D01*
X137185350Y-120921650D01*
X137031833Y-120795661D01*
X136856686Y-120702044D01*
X136666641Y-120644394D01*
X136469000Y-120624928D01*
X135219000Y-120624928D01*
X135021359Y-120644394D01*
X135016482Y-120645874D01*
X134981501Y-120610893D01*
X135348258Y-120394772D01*
X135588938Y-119934895D01*
X135712446Y-119514587D01*
X157794192Y-119514587D01*
X158750000Y-120470395D01*
X159705808Y-119514587D01*
X160334192Y-119514587D01*
X161290000Y-120470395D01*
X162245808Y-119514587D01*
X162150044Y-119250186D01*
X161860429Y-119109296D01*
X161548892Y-119027616D01*
X161227405Y-119008282D01*
X160908325Y-119052039D01*
X160603912Y-119157205D01*
X160429956Y-119250186D01*
X160334192Y-119514587D01*
X159705808Y-119514587D01*
X159610044Y-119250186D01*
X159320429Y-119109296D01*
X159008892Y-119027616D01*
X158687405Y-119008282D01*
X158368325Y-119052039D01*
X158063912Y-119157205D01*
X157889956Y-119250186D01*
X157794192Y-119514587D01*
X135712446Y-119514587D01*
X135735275Y-119436902D01*
X135781648Y-118919929D01*
X135726273Y-118403841D01*
X135571279Y-117908474D01*
X135348258Y-117491228D01*
X134981499Y-117275106D01*
X133313605Y-118943000D01*
X133327748Y-118957143D01*
X133148143Y-119136748D01*
X133134000Y-119122605D01*
X131466106Y-120790499D01*
X52730000Y-120790499D01*
X52730000Y-118966071D01*
X130486352Y-118966071D01*
X130541727Y-119482159D01*
X130696721Y-119977526D01*
X130919742Y-120394772D01*
X131286501Y-120610894D01*
X132954395Y-118943000D01*
X131286501Y-117275106D01*
X130919742Y-117491228D01*
X130679062Y-117951105D01*
X130532725Y-118449098D01*
X130486352Y-118966071D01*
X52730000Y-118966071D01*
X52730000Y-101600000D01*
X60280000Y-101600000D01*
X60364378Y-103236910D01*
X60616617Y-104856469D01*
X61034045Y-106441508D01*
X61612235Y-107975226D01*
X62345059Y-109441365D01*
X63224749Y-110824384D01*
X64241980Y-112109622D01*
X65385968Y-113283455D01*
X66644589Y-114333441D01*
X68004499Y-115248449D01*
X69451283Y-116018780D01*
X70969605Y-116636269D01*
X72543371Y-117094369D01*
X74155898Y-117388225D01*
X75790093Y-117514722D01*
X77428633Y-117472519D01*
X79054150Y-117262063D01*
X79759929Y-117095501D01*
X131466106Y-117095501D01*
X133134000Y-118763395D01*
X134801894Y-117095501D01*
X134585772Y-116728742D01*
X134125895Y-116488062D01*
X133627902Y-116341725D01*
X133110929Y-116295352D01*
X132594841Y-116350727D01*
X132099474Y-116505721D01*
X131682228Y-116728742D01*
X131466106Y-117095501D01*
X79759929Y-117095501D01*
X80649411Y-116885586D01*
X82197508Y-116347078D01*
X83682030Y-115652246D01*
X85087240Y-114808458D01*
X86398243Y-113824657D01*
X87601143Y-112711271D01*
X88437192Y-111760000D01*
X147193000Y-111760000D01*
X147193000Y-119380000D01*
X147195440Y-119404776D01*
X147202667Y-119428601D01*
X147214403Y-119450557D01*
X147230197Y-119469803D01*
X147249443Y-119485597D01*
X147271399Y-119497333D01*
X147295224Y-119504560D01*
X147320000Y-119507000D01*
X157480000Y-119507000D01*
X157504776Y-119504560D01*
X157528601Y-119497333D01*
X157550557Y-119485597D01*
X157569803Y-119469803D01*
X157585597Y-119450557D01*
X157597333Y-119428601D01*
X157604560Y-119404776D01*
X157607000Y-119380000D01*
X157607000Y-114198061D01*
X201403000Y-114198061D01*
X201403000Y-114401939D01*
X201442774Y-114601898D01*
X201520795Y-114790256D01*
X201634063Y-114959774D01*
X201778226Y-115103937D01*
X201947744Y-115217205D01*
X202136102Y-115295226D01*
X202336061Y-115335000D01*
X202539939Y-115335000D01*
X202739898Y-115295226D01*
X202928256Y-115217205D01*
X203097774Y-115103937D01*
X203241937Y-114959774D01*
X203355205Y-114790256D01*
X203433226Y-114601898D01*
X203473000Y-114401939D01*
X203473000Y-114198061D01*
X203433226Y-113998102D01*
X203355205Y-113809744D01*
X203241937Y-113640226D01*
X203097774Y-113496063D01*
X202928256Y-113382795D01*
X202739898Y-113304774D01*
X202539939Y-113265000D01*
X202336061Y-113265000D01*
X202136102Y-113304774D01*
X201947744Y-113382795D01*
X201778226Y-113496063D01*
X201634063Y-113640226D01*
X201520795Y-113809744D01*
X201442774Y-113998102D01*
X201403000Y-114198061D01*
X157607000Y-114198061D01*
X157607000Y-111760000D01*
X157604560Y-111735224D01*
X157597333Y-111711399D01*
X157585597Y-111689443D01*
X157569803Y-111670197D01*
X157550557Y-111654403D01*
X157528601Y-111642667D01*
X157504776Y-111635440D01*
X157480000Y-111633000D01*
X147320000Y-111633000D01*
X147295224Y-111635440D01*
X147271399Y-111642667D01*
X147249443Y-111654403D01*
X147230197Y-111670197D01*
X147214403Y-111689443D01*
X147202667Y-111711399D01*
X147195440Y-111735224D01*
X147193000Y-111760000D01*
X88437192Y-111760000D01*
X88683187Y-111480103D01*
X89632907Y-110144203D01*
X90315024Y-108938967D01*
X112705000Y-108938967D01*
X112705000Y-109261033D01*
X112767832Y-109576912D01*
X112891082Y-109874463D01*
X113070013Y-110142252D01*
X113297748Y-110369987D01*
X113565537Y-110548918D01*
X113863088Y-110672168D01*
X114178967Y-110735000D01*
X114501033Y-110735000D01*
X114816912Y-110672168D01*
X115114463Y-110548918D01*
X115382252Y-110369987D01*
X115516826Y-110235413D01*
X115884192Y-110235413D01*
X115979956Y-110499814D01*
X116269571Y-110640704D01*
X116581108Y-110722384D01*
X116902595Y-110741718D01*
X117221675Y-110697961D01*
X117526088Y-110592795D01*
X117700044Y-110499814D01*
X117795808Y-110235413D01*
X116840000Y-109279605D01*
X115884192Y-110235413D01*
X115516826Y-110235413D01*
X115609987Y-110142252D01*
X115674925Y-110045065D01*
X115704587Y-110055808D01*
X116660395Y-109100000D01*
X117019605Y-109100000D01*
X117975413Y-110055808D01*
X118005075Y-110045065D01*
X118070013Y-110142252D01*
X118297748Y-110369987D01*
X118565537Y-110548918D01*
X118863088Y-110672168D01*
X119178967Y-110735000D01*
X119501033Y-110735000D01*
X119816912Y-110672168D01*
X120114463Y-110548918D01*
X120382252Y-110369987D01*
X120609987Y-110142252D01*
X120788918Y-109874463D01*
X120912168Y-109576912D01*
X120975000Y-109261033D01*
X120975000Y-108938967D01*
X120912168Y-108623088D01*
X120788918Y-108325537D01*
X120609987Y-108057748D01*
X120382252Y-107830013D01*
X120114463Y-107651082D01*
X119816912Y-107527832D01*
X119501033Y-107465000D01*
X119178967Y-107465000D01*
X118863088Y-107527832D01*
X118565537Y-107651082D01*
X118297748Y-107830013D01*
X118070013Y-108057748D01*
X118005075Y-108154935D01*
X117975413Y-108144192D01*
X117019605Y-109100000D01*
X116660395Y-109100000D01*
X115704587Y-108144192D01*
X115674925Y-108154935D01*
X115609987Y-108057748D01*
X115516826Y-107964587D01*
X115884192Y-107964587D01*
X116840000Y-108920395D01*
X117795808Y-107964587D01*
X117700044Y-107700186D01*
X117410429Y-107559296D01*
X117098892Y-107477616D01*
X116777405Y-107458282D01*
X116458325Y-107502039D01*
X116153912Y-107607205D01*
X115979956Y-107700186D01*
X115884192Y-107964587D01*
X115516826Y-107964587D01*
X115382252Y-107830013D01*
X115114463Y-107651082D01*
X114816912Y-107527832D01*
X114501033Y-107465000D01*
X114178967Y-107465000D01*
X113863088Y-107527832D01*
X113565537Y-107651082D01*
X113297748Y-107830013D01*
X113070013Y-108057748D01*
X112891082Y-108325537D01*
X112767832Y-108623088D01*
X112705000Y-108938967D01*
X90315024Y-108938967D01*
X90440234Y-108717733D01*
X91096612Y-107215813D01*
X91595081Y-105654364D01*
X91930359Y-104049938D01*
X91936168Y-103993740D01*
X100115000Y-103993740D01*
X100115000Y-104286260D01*
X100172068Y-104573158D01*
X100284010Y-104843411D01*
X100446525Y-105086632D01*
X100653368Y-105293475D01*
X100896589Y-105455990D01*
X101166842Y-105567932D01*
X101453740Y-105625000D01*
X101746260Y-105625000D01*
X102033158Y-105567932D01*
X102303411Y-105455990D01*
X102546632Y-105293475D01*
X102753475Y-105086632D01*
X102915990Y-104843411D01*
X103027932Y-104573158D01*
X103085000Y-104286260D01*
X103085000Y-103993740D01*
X103027932Y-103706842D01*
X102915990Y-103436589D01*
X102753475Y-103193368D01*
X102546632Y-102986525D01*
X102364466Y-102864805D01*
X102481355Y-102795178D01*
X102697588Y-102600269D01*
X102871641Y-102366920D01*
X102996825Y-102104099D01*
X103041476Y-101956890D01*
X102920155Y-101727000D01*
X101727000Y-101727000D01*
X101727000Y-101747000D01*
X101473000Y-101747000D01*
X101473000Y-101727000D01*
X100279845Y-101727000D01*
X100158524Y-101956890D01*
X100203175Y-102104099D01*
X100328359Y-102366920D01*
X100502412Y-102600269D01*
X100718645Y-102795178D01*
X100835534Y-102864805D01*
X100653368Y-102986525D01*
X100446525Y-103193368D01*
X100284010Y-103436589D01*
X100172068Y-103706842D01*
X100115000Y-103993740D01*
X91936168Y-103993740D01*
X92098892Y-102419542D01*
X92098892Y-100780458D01*
X91930359Y-99150062D01*
X91733914Y-98210000D01*
X100111928Y-98210000D01*
X100111928Y-99910000D01*
X100124188Y-100034482D01*
X100160498Y-100154180D01*
X100219463Y-100264494D01*
X100298815Y-100361185D01*
X100395506Y-100440537D01*
X100505820Y-100499502D01*
X100586466Y-100523966D01*
X100502412Y-100599731D01*
X100328359Y-100833080D01*
X100203175Y-101095901D01*
X100158524Y-101243110D01*
X100279845Y-101473000D01*
X101473000Y-101473000D01*
X101473000Y-101453000D01*
X101727000Y-101453000D01*
X101727000Y-101473000D01*
X102920155Y-101473000D01*
X103041476Y-101243110D01*
X102996825Y-101095901D01*
X102871641Y-100833080D01*
X102697588Y-100599731D01*
X102613534Y-100523966D01*
X102694180Y-100499502D01*
X102804494Y-100440537D01*
X102901185Y-100361185D01*
X102980537Y-100264494D01*
X103039502Y-100154180D01*
X103075812Y-100034482D01*
X103082107Y-99970558D01*
X109655000Y-99970558D01*
X109655000Y-103229441D01*
X109693127Y-103616549D01*
X109843799Y-104113249D01*
X110088477Y-104571010D01*
X110417759Y-104972241D01*
X110818989Y-105301523D01*
X111276750Y-105546201D01*
X111773450Y-105696873D01*
X112290000Y-105747749D01*
X112806549Y-105696873D01*
X113303249Y-105546201D01*
X113761010Y-105301523D01*
X114162241Y-104972241D01*
X114491523Y-104571011D01*
X114736201Y-104113250D01*
X114886873Y-103616550D01*
X114925000Y-103229442D01*
X114925000Y-102555804D01*
X114947988Y-102611302D01*
X115181637Y-102960983D01*
X115479017Y-103258363D01*
X115828698Y-103492012D01*
X116217244Y-103652953D01*
X116629721Y-103735000D01*
X117050279Y-103735000D01*
X117462756Y-103652953D01*
X117851302Y-103492012D01*
X118200983Y-103258363D01*
X118498363Y-102960983D01*
X118732012Y-102611302D01*
X118755000Y-102555804D01*
X118755000Y-103229441D01*
X118793127Y-103616549D01*
X118943799Y-104113249D01*
X119188477Y-104571010D01*
X119517759Y-104972241D01*
X119918989Y-105301523D01*
X120376750Y-105546201D01*
X120873450Y-105696873D01*
X121390000Y-105747749D01*
X121906549Y-105696873D01*
X122403249Y-105546201D01*
X122861010Y-105301523D01*
X123262241Y-104972241D01*
X123591523Y-104571011D01*
X123836201Y-104113250D01*
X123986873Y-103616550D01*
X124025000Y-103229442D01*
X124025000Y-99970558D01*
X123986873Y-99583450D01*
X123836201Y-99086750D01*
X123591523Y-98628989D01*
X123262241Y-98227759D01*
X122861011Y-97898477D01*
X122403250Y-97653799D01*
X121906550Y-97503127D01*
X121390000Y-97452251D01*
X120873451Y-97503127D01*
X120376751Y-97653799D01*
X119918990Y-97898477D01*
X119517760Y-98227759D01*
X119188478Y-98628989D01*
X118943800Y-99086750D01*
X118793127Y-99583450D01*
X118755000Y-99970558D01*
X118755000Y-100644196D01*
X118732012Y-100588698D01*
X118498363Y-100239017D01*
X118200983Y-99941637D01*
X117851302Y-99707988D01*
X117462756Y-99547047D01*
X117050279Y-99465000D01*
X116629721Y-99465000D01*
X116217244Y-99547047D01*
X115828698Y-99707988D01*
X115479017Y-99941637D01*
X115181637Y-100239017D01*
X114947988Y-100588698D01*
X114925000Y-100644196D01*
X114925000Y-99970558D01*
X114886873Y-99583450D01*
X114736201Y-99086750D01*
X114491523Y-98628989D01*
X114162241Y-98227759D01*
X113761011Y-97898477D01*
X113303250Y-97653799D01*
X112806550Y-97503127D01*
X112290000Y-97452251D01*
X111773451Y-97503127D01*
X111276751Y-97653799D01*
X110818990Y-97898477D01*
X110417760Y-98227759D01*
X110088478Y-98628989D01*
X109843800Y-99086750D01*
X109693127Y-99583450D01*
X109655000Y-99970558D01*
X103082107Y-99970558D01*
X103088072Y-99910000D01*
X103088072Y-98210000D01*
X103075812Y-98085518D01*
X103039502Y-97965820D01*
X102980537Y-97855506D01*
X102901185Y-97758815D01*
X102804494Y-97679463D01*
X102694180Y-97620498D01*
X102574482Y-97584188D01*
X102450000Y-97571928D01*
X100750000Y-97571928D01*
X100625518Y-97584188D01*
X100505820Y-97620498D01*
X100395506Y-97679463D01*
X100298815Y-97758815D01*
X100219463Y-97855506D01*
X100160498Y-97965820D01*
X100124188Y-98085518D01*
X100111928Y-98210000D01*
X91733914Y-98210000D01*
X91595081Y-97545636D01*
X91096612Y-95984187D01*
X90987892Y-95735413D01*
X113384192Y-95735413D01*
X113479956Y-95999814D01*
X113769571Y-96140704D01*
X114081108Y-96222384D01*
X114402595Y-96241718D01*
X114721675Y-96197961D01*
X115026088Y-96092795D01*
X115200044Y-95999814D01*
X115295808Y-95735413D01*
X114340000Y-94779605D01*
X113384192Y-95735413D01*
X90987892Y-95735413D01*
X90519043Y-94662595D01*
X112698282Y-94662595D01*
X112742039Y-94981675D01*
X112847205Y-95286088D01*
X112940186Y-95460044D01*
X113204587Y-95555808D01*
X114160395Y-94600000D01*
X114519605Y-94600000D01*
X115475413Y-95555808D01*
X115739814Y-95460044D01*
X115880704Y-95170429D01*
X115962384Y-94858892D01*
X115981718Y-94537405D01*
X115968219Y-94438967D01*
X117705000Y-94438967D01*
X117705000Y-94761033D01*
X117767832Y-95076912D01*
X117891082Y-95374463D01*
X118070013Y-95642252D01*
X118297748Y-95869987D01*
X118565537Y-96048918D01*
X118863088Y-96172168D01*
X119178967Y-96235000D01*
X119501033Y-96235000D01*
X119816912Y-96172168D01*
X120114463Y-96048918D01*
X120382252Y-95869987D01*
X120609987Y-95642252D01*
X120788918Y-95374463D01*
X120912168Y-95076912D01*
X120975000Y-94761033D01*
X120975000Y-94438967D01*
X120912168Y-94123088D01*
X120788918Y-93825537D01*
X120609987Y-93557748D01*
X120382252Y-93330013D01*
X120114463Y-93151082D01*
X119816912Y-93027832D01*
X119501033Y-92965000D01*
X119178967Y-92965000D01*
X118863088Y-93027832D01*
X118565537Y-93151082D01*
X118297748Y-93330013D01*
X118070013Y-93557748D01*
X117891082Y-93825537D01*
X117767832Y-94123088D01*
X117705000Y-94438967D01*
X115968219Y-94438967D01*
X115937961Y-94218325D01*
X115832795Y-93913912D01*
X115739814Y-93739956D01*
X115475413Y-93644192D01*
X114519605Y-94600000D01*
X114160395Y-94600000D01*
X113204587Y-93644192D01*
X112940186Y-93739956D01*
X112799296Y-94029571D01*
X112717616Y-94341108D01*
X112698282Y-94662595D01*
X90519043Y-94662595D01*
X90440234Y-94482267D01*
X89864267Y-93464587D01*
X113384192Y-93464587D01*
X114340000Y-94420395D01*
X115295808Y-93464587D01*
X115200044Y-93200186D01*
X114910429Y-93059296D01*
X114598892Y-92977616D01*
X114277405Y-92958282D01*
X113958325Y-93002039D01*
X113653912Y-93107205D01*
X113479956Y-93200186D01*
X113384192Y-93464587D01*
X89864267Y-93464587D01*
X89632907Y-93055797D01*
X88683187Y-91719897D01*
X87601143Y-90488729D01*
X86398243Y-89375343D01*
X85087240Y-88391542D01*
X83682030Y-87547754D01*
X82197508Y-86852922D01*
X80649411Y-86314414D01*
X79054150Y-85937937D01*
X77428633Y-85727481D01*
X75790093Y-85685278D01*
X74155898Y-85811775D01*
X72543371Y-86105631D01*
X70969605Y-86563731D01*
X69451283Y-87181220D01*
X68004499Y-87951551D01*
X66644589Y-88866559D01*
X65385968Y-89916545D01*
X64241980Y-91090378D01*
X63224749Y-92375616D01*
X62345059Y-93758635D01*
X61612235Y-95224774D01*
X61034045Y-96758492D01*
X60616617Y-98343531D01*
X60364378Y-99963090D01*
X60280000Y-101600000D01*
X52730000Y-101600000D01*
X52730000Y-84226061D01*
X124125000Y-84226061D01*
X124125000Y-84429939D01*
X124164774Y-84629898D01*
X124242795Y-84818256D01*
X124356063Y-84987774D01*
X124500226Y-85131937D01*
X124669744Y-85245205D01*
X124858102Y-85323226D01*
X125058061Y-85363000D01*
X125261939Y-85363000D01*
X125461898Y-85323226D01*
X125650256Y-85245205D01*
X125819774Y-85131937D01*
X125963937Y-84987774D01*
X126077205Y-84818256D01*
X126155226Y-84629898D01*
X126195000Y-84429939D01*
X126195000Y-84226061D01*
X126155226Y-84026102D01*
X126077205Y-83837744D01*
X125963937Y-83668226D01*
X125819774Y-83524063D01*
X125650256Y-83410795D01*
X125461898Y-83332774D01*
X125261939Y-83293000D01*
X125058061Y-83293000D01*
X124858102Y-83332774D01*
X124669744Y-83410795D01*
X124500226Y-83524063D01*
X124356063Y-83668226D01*
X124242795Y-83837744D01*
X124164774Y-84026102D01*
X124125000Y-84226061D01*
X52730000Y-84226061D01*
X52730000Y-81280000D01*
X147193000Y-81280000D01*
X147193000Y-88900000D01*
X147195440Y-88924776D01*
X147202667Y-88948601D01*
X147214403Y-88970557D01*
X147230197Y-88989803D01*
X147249443Y-89005597D01*
X147271399Y-89017333D01*
X147295224Y-89024560D01*
X147320000Y-89027000D01*
X157480000Y-89027000D01*
X157504776Y-89024560D01*
X157528601Y-89017333D01*
X157550557Y-89005597D01*
X157569803Y-88989803D01*
X157585597Y-88970557D01*
X157597333Y-88948601D01*
X157604560Y-88924776D01*
X157607000Y-88900000D01*
X157607000Y-82887561D01*
X178865500Y-82887561D01*
X178865500Y-83091439D01*
X178905274Y-83291398D01*
X178983295Y-83479756D01*
X179096563Y-83649274D01*
X179240726Y-83793437D01*
X179410244Y-83906705D01*
X179598602Y-83984726D01*
X179798561Y-84024500D01*
X180002439Y-84024500D01*
X180202398Y-83984726D01*
X180390756Y-83906705D01*
X180560274Y-83793437D01*
X180704437Y-83649274D01*
X180817705Y-83479756D01*
X180895726Y-83291398D01*
X180935500Y-83091439D01*
X180935500Y-82887561D01*
X180895726Y-82687602D01*
X180817705Y-82499244D01*
X180704437Y-82329726D01*
X180560274Y-82185563D01*
X180390756Y-82072295D01*
X180202398Y-81994274D01*
X180002439Y-81954500D01*
X179798561Y-81954500D01*
X179598602Y-81994274D01*
X179410244Y-82072295D01*
X179240726Y-82185563D01*
X179096563Y-82329726D01*
X178983295Y-82499244D01*
X178905274Y-82687602D01*
X178865500Y-82887561D01*
X157607000Y-82887561D01*
X157607000Y-81280000D01*
X157604560Y-81255224D01*
X157597333Y-81231399D01*
X157585597Y-81209443D01*
X157569803Y-81190197D01*
X157555015Y-81178061D01*
X170669000Y-81178061D01*
X170669000Y-81381939D01*
X170708774Y-81581898D01*
X170786795Y-81770256D01*
X170900063Y-81939774D01*
X171044226Y-82083937D01*
X171213744Y-82197205D01*
X171402102Y-82275226D01*
X171602061Y-82315000D01*
X171805939Y-82315000D01*
X172005898Y-82275226D01*
X172194256Y-82197205D01*
X172363774Y-82083937D01*
X172507937Y-81939774D01*
X172621205Y-81770256D01*
X172699226Y-81581898D01*
X172739000Y-81381939D01*
X172739000Y-81178061D01*
X172699226Y-80978102D01*
X172621205Y-80789744D01*
X172507937Y-80620226D01*
X172363774Y-80476063D01*
X172194256Y-80362795D01*
X172005898Y-80284774D01*
X171805939Y-80245000D01*
X171602061Y-80245000D01*
X171402102Y-80284774D01*
X171213744Y-80362795D01*
X171044226Y-80476063D01*
X170900063Y-80620226D01*
X170786795Y-80789744D01*
X170708774Y-80978102D01*
X170669000Y-81178061D01*
X157555015Y-81178061D01*
X157550557Y-81174403D01*
X157528601Y-81162667D01*
X157504776Y-81155440D01*
X157480000Y-81153000D01*
X147320000Y-81153000D01*
X147295224Y-81155440D01*
X147271399Y-81162667D01*
X147249443Y-81174403D01*
X147230197Y-81190197D01*
X147214403Y-81209443D01*
X147202667Y-81231399D01*
X147195440Y-81255224D01*
X147193000Y-81280000D01*
X52730000Y-81280000D01*
X52730000Y-75910000D01*
X74261928Y-75910000D01*
X74274188Y-76034482D01*
X74310498Y-76154180D01*
X74369463Y-76264494D01*
X74448815Y-76361185D01*
X74545506Y-76440537D01*
X74655820Y-76499502D01*
X74775518Y-76535812D01*
X74900000Y-76548072D01*
X75164250Y-76545000D01*
X75323000Y-76386250D01*
X75323000Y-75287000D01*
X74423750Y-75287000D01*
X74265000Y-75445750D01*
X74261928Y-75910000D01*
X52730000Y-75910000D01*
X52730000Y-74410000D01*
X74261928Y-74410000D01*
X74265000Y-74874250D01*
X74423750Y-75033000D01*
X75323000Y-75033000D01*
X75323000Y-73933750D01*
X75164250Y-73775000D01*
X74900000Y-73771928D01*
X74775518Y-73784188D01*
X74655820Y-73820498D01*
X74545506Y-73879463D01*
X74448815Y-73958815D01*
X74369463Y-74055506D01*
X74310498Y-74165820D01*
X74274188Y-74285518D01*
X74261928Y-74410000D01*
X52730000Y-74410000D01*
X52730000Y-68221984D01*
X56055000Y-68221984D01*
X56055000Y-68938016D01*
X56194691Y-69640290D01*
X56468705Y-70301818D01*
X56866511Y-70897177D01*
X57372823Y-71403489D01*
X57968182Y-71801295D01*
X58629710Y-72075309D01*
X59331984Y-72215000D01*
X60048016Y-72215000D01*
X60750290Y-72075309D01*
X61411818Y-71801295D01*
X61997432Y-71410000D01*
X74261928Y-71410000D01*
X74261928Y-72910000D01*
X74274188Y-73034482D01*
X74310498Y-73154180D01*
X74369463Y-73264494D01*
X74448815Y-73361185D01*
X74545506Y-73440537D01*
X74655820Y-73499502D01*
X74775518Y-73535812D01*
X74900000Y-73548072D01*
X76000000Y-73548072D01*
X76124482Y-73535812D01*
X76200000Y-73512904D01*
X76275518Y-73535812D01*
X76400000Y-73548072D01*
X77170639Y-73548072D01*
X77394495Y-73771928D01*
X76400000Y-73771928D01*
X76275518Y-73784188D01*
X76200000Y-73807096D01*
X76124482Y-73784188D01*
X76000000Y-73771928D01*
X75735750Y-73775000D01*
X75577000Y-73933750D01*
X75577000Y-75033000D01*
X75597000Y-75033000D01*
X75597000Y-75287000D01*
X75577000Y-75287000D01*
X75577000Y-76386250D01*
X75735750Y-76545000D01*
X76000000Y-76548072D01*
X76124482Y-76535812D01*
X76200000Y-76512904D01*
X76275518Y-76535812D01*
X76400000Y-76548072D01*
X77170639Y-76548072D01*
X77377606Y-76755039D01*
X77403459Y-76786541D01*
X77462507Y-76835000D01*
X77529157Y-76889699D01*
X77656278Y-76957647D01*
X77672566Y-76966353D01*
X77828174Y-77013556D01*
X77949447Y-77025500D01*
X77949449Y-77025500D01*
X77989999Y-77029494D01*
X78030550Y-77025500D01*
X81208583Y-77025500D01*
X81271595Y-77143387D01*
X81382038Y-77277962D01*
X81516613Y-77388405D01*
X81670149Y-77470472D01*
X81836745Y-77521008D01*
X82009999Y-77538072D01*
X82535001Y-77538072D01*
X82708255Y-77521008D01*
X82874851Y-77470472D01*
X83028387Y-77388405D01*
X83162962Y-77277962D01*
X83185000Y-77251109D01*
X83207038Y-77277962D01*
X83341613Y-77388405D01*
X83495149Y-77470472D01*
X83661745Y-77521008D01*
X83834999Y-77538072D01*
X84360001Y-77538072D01*
X84533255Y-77521008D01*
X84699851Y-77470472D01*
X84853387Y-77388405D01*
X84987962Y-77277962D01*
X85098405Y-77143387D01*
X85180472Y-76989851D01*
X85231008Y-76823255D01*
X85248072Y-76650001D01*
X85248072Y-76216860D01*
X85709433Y-75755500D01*
X181903068Y-75755500D01*
X183046067Y-76898500D01*
X174217920Y-76898500D01*
X174158937Y-76810226D01*
X174014774Y-76666063D01*
X173845256Y-76552795D01*
X173656898Y-76474774D01*
X173456939Y-76435000D01*
X173253061Y-76435000D01*
X173053102Y-76474774D01*
X172864744Y-76552795D01*
X172695226Y-76666063D01*
X172551063Y-76810226D01*
X172437795Y-76979744D01*
X172359774Y-77168102D01*
X172320000Y-77368061D01*
X172320000Y-77571939D01*
X172359774Y-77771898D01*
X172437795Y-77960256D01*
X172551063Y-78129774D01*
X172695226Y-78273937D01*
X172864744Y-78387205D01*
X173053102Y-78465226D01*
X173253061Y-78505000D01*
X173339851Y-78505000D01*
X173447174Y-78537556D01*
X173568447Y-78549500D01*
X173568449Y-78549500D01*
X173608999Y-78553494D01*
X173649550Y-78549500D01*
X178052616Y-78549500D01*
X178035000Y-78638061D01*
X178035000Y-78841939D01*
X178074774Y-79041898D01*
X178152795Y-79230256D01*
X178266063Y-79399774D01*
X178304789Y-79438500D01*
X177586542Y-79438500D01*
X177545999Y-79434507D01*
X177505456Y-79438500D01*
X177505447Y-79438500D01*
X177384174Y-79450444D01*
X177228566Y-79497647D01*
X177085158Y-79574301D01*
X177034811Y-79615619D01*
X176863102Y-79649774D01*
X176674744Y-79727795D01*
X176505226Y-79841063D01*
X176361063Y-79985226D01*
X176247795Y-80154744D01*
X176169774Y-80343102D01*
X176130000Y-80543061D01*
X176130000Y-80746939D01*
X176169774Y-80946898D01*
X176247795Y-81135256D01*
X176361063Y-81304774D01*
X176505226Y-81448937D01*
X176674744Y-81562205D01*
X176863102Y-81640226D01*
X177063061Y-81680000D01*
X177266939Y-81680000D01*
X177466898Y-81640226D01*
X177655256Y-81562205D01*
X177824774Y-81448937D01*
X177968937Y-81304774D01*
X178082205Y-81135256D01*
X178101158Y-81089500D01*
X185287567Y-81089500D01*
X183340961Y-83036107D01*
X183309460Y-83061959D01*
X183283609Y-83093459D01*
X183206301Y-83187658D01*
X183129647Y-83331067D01*
X183082445Y-83486674D01*
X183066506Y-83648500D01*
X183070501Y-83689061D01*
X183070500Y-102067450D01*
X183066506Y-102108000D01*
X183070500Y-102148550D01*
X183070500Y-102148552D01*
X183082444Y-102269825D01*
X183123126Y-102403937D01*
X183129647Y-102425433D01*
X183206301Y-102568842D01*
X183227954Y-102595226D01*
X183309459Y-102694541D01*
X183340966Y-102720398D01*
X184329072Y-103708505D01*
X184361274Y-103870398D01*
X184414621Y-103999189D01*
X176720500Y-96305068D01*
X176720500Y-85750061D01*
X176765000Y-85750061D01*
X176765000Y-85953939D01*
X176804774Y-86153898D01*
X176882795Y-86342256D01*
X176996063Y-86511774D01*
X177140226Y-86655937D01*
X177309744Y-86769205D01*
X177498102Y-86847226D01*
X177698061Y-86887000D01*
X177901939Y-86887000D01*
X178101898Y-86847226D01*
X178290256Y-86769205D01*
X178459774Y-86655937D01*
X178603937Y-86511774D01*
X178717205Y-86342256D01*
X178795226Y-86153898D01*
X178835000Y-85953939D01*
X178835000Y-85750061D01*
X178795226Y-85550102D01*
X178717205Y-85361744D01*
X178603937Y-85192226D01*
X178459774Y-85048063D01*
X178290256Y-84934795D01*
X178101898Y-84856774D01*
X177901939Y-84817000D01*
X177698061Y-84817000D01*
X177498102Y-84856774D01*
X177309744Y-84934795D01*
X177140226Y-85048063D01*
X176996063Y-85192226D01*
X176882795Y-85361744D01*
X176804774Y-85550102D01*
X176765000Y-85750061D01*
X176720500Y-85750061D01*
X176720500Y-85082503D01*
X176812205Y-84945256D01*
X176890226Y-84756898D01*
X176930000Y-84556939D01*
X176930000Y-84353061D01*
X176890226Y-84153102D01*
X176812205Y-83964744D01*
X176698937Y-83795226D01*
X176554774Y-83651063D01*
X176385256Y-83537795D01*
X176196898Y-83459774D01*
X175996939Y-83420000D01*
X175793061Y-83420000D01*
X175593102Y-83459774D01*
X175404744Y-83537795D01*
X175235226Y-83651063D01*
X175091063Y-83795226D01*
X174977795Y-83964744D01*
X174899774Y-84153102D01*
X174860000Y-84353061D01*
X174860000Y-84556939D01*
X174899774Y-84756898D01*
X174977795Y-84945256D01*
X175069500Y-85082503D01*
X175069501Y-96606440D01*
X175065506Y-96647000D01*
X175081445Y-96808826D01*
X175128647Y-96964433D01*
X175205301Y-97107842D01*
X175253036Y-97166006D01*
X175308460Y-97233541D01*
X175339961Y-97259393D01*
X189887607Y-111807040D01*
X189913459Y-111838541D01*
X189977596Y-111891177D01*
X190039157Y-111941699D01*
X190084812Y-111966102D01*
X190182566Y-112018353D01*
X190338174Y-112065556D01*
X190459447Y-112077500D01*
X190459449Y-112077500D01*
X190499999Y-112081494D01*
X190540550Y-112077500D01*
X199642616Y-112077500D01*
X199625000Y-112166061D01*
X199625000Y-112369939D01*
X199664774Y-112569898D01*
X199742795Y-112758256D01*
X199856063Y-112927774D01*
X200000226Y-113071937D01*
X200169744Y-113185205D01*
X200358102Y-113263226D01*
X200558061Y-113303000D01*
X200761939Y-113303000D01*
X200961898Y-113263226D01*
X201150256Y-113185205D01*
X201319774Y-113071937D01*
X201463937Y-112927774D01*
X201577205Y-112758256D01*
X201655226Y-112569898D01*
X201695000Y-112369939D01*
X201695000Y-112166061D01*
X201677384Y-112077500D01*
X203080497Y-112077500D01*
X203217744Y-112169205D01*
X203406102Y-112247226D01*
X203606061Y-112287000D01*
X203809939Y-112287000D01*
X204009898Y-112247226D01*
X204198256Y-112169205D01*
X204367774Y-112055937D01*
X204511937Y-111911774D01*
X204625205Y-111742256D01*
X204703226Y-111553898D01*
X204743000Y-111353939D01*
X204743000Y-111150061D01*
X204703226Y-110950102D01*
X204625205Y-110761744D01*
X204511937Y-110592226D01*
X204367774Y-110448063D01*
X204198256Y-110334795D01*
X204009898Y-110256774D01*
X203809939Y-110217000D01*
X203609725Y-110217000D01*
X203687226Y-110029898D01*
X203727000Y-109829939D01*
X203727000Y-109626061D01*
X203687226Y-109426102D01*
X203609205Y-109237744D01*
X203495937Y-109068226D01*
X203351774Y-108924063D01*
X203182256Y-108810795D01*
X202993898Y-108732774D01*
X202793939Y-108693000D01*
X202590061Y-108693000D01*
X202390102Y-108732774D01*
X202201744Y-108810795D01*
X202053624Y-108909765D01*
X202055226Y-108905898D01*
X202095000Y-108705939D01*
X202095000Y-108702643D01*
X202152398Y-108691226D01*
X202340756Y-108613205D01*
X202510274Y-108499937D01*
X202654437Y-108355774D01*
X202767705Y-108186256D01*
X202845726Y-107997898D01*
X202885500Y-107797939D01*
X202885500Y-107594061D01*
X202845726Y-107394102D01*
X202767705Y-107205744D01*
X202654437Y-107036226D01*
X202510274Y-106892063D01*
X202340756Y-106778795D01*
X202152398Y-106700774D01*
X201952439Y-106661000D01*
X201748561Y-106661000D01*
X201548602Y-106700774D01*
X201360244Y-106778795D01*
X201222997Y-106870500D01*
X200740912Y-106870500D01*
X200700362Y-106866506D01*
X200659811Y-106870500D01*
X200659809Y-106870500D01*
X200538536Y-106882444D01*
X200382928Y-106929647D01*
X200239519Y-107006301D01*
X200231276Y-107013065D01*
X200110274Y-106892063D01*
X199940756Y-106778795D01*
X199752398Y-106700774D01*
X199552439Y-106661000D01*
X199348561Y-106661000D01*
X199148602Y-106700774D01*
X198960244Y-106778795D01*
X198822997Y-106870500D01*
X197223503Y-106870500D01*
X197086256Y-106778795D01*
X196897898Y-106700774D01*
X196697939Y-106661000D01*
X196494061Y-106661000D01*
X196294102Y-106700774D01*
X196105744Y-106778795D01*
X195936226Y-106892063D01*
X195792063Y-107036226D01*
X195678795Y-107205744D01*
X195600774Y-107394102D01*
X195575705Y-107520136D01*
X193783072Y-105727503D01*
X194777447Y-105727503D01*
X194817997Y-105731497D01*
X194858547Y-105727503D01*
X194858550Y-105727503D01*
X194979823Y-105715559D01*
X195135431Y-105668356D01*
X195278839Y-105591702D01*
X195404538Y-105488544D01*
X195430395Y-105457037D01*
X198260004Y-102627428D01*
X198421898Y-102595226D01*
X198586000Y-102527252D01*
X198586000Y-103416624D01*
X198582005Y-103457184D01*
X198597944Y-103619010D01*
X198645146Y-103774617D01*
X198721800Y-103918026D01*
X198756036Y-103959742D01*
X198824959Y-104043725D01*
X198856460Y-104069577D01*
X199481925Y-104695044D01*
X199507774Y-104726541D01*
X199539270Y-104752389D01*
X199539273Y-104752392D01*
X199633472Y-104829699D01*
X199768743Y-104902003D01*
X199776881Y-104906353D01*
X199932489Y-104953556D01*
X200028821Y-104963044D01*
X200169744Y-105057205D01*
X200358102Y-105135226D01*
X200558061Y-105175000D01*
X200761939Y-105175000D01*
X200961898Y-105135226D01*
X201150256Y-105057205D01*
X201319774Y-104943937D01*
X201463937Y-104799774D01*
X201577205Y-104630256D01*
X201655226Y-104441898D01*
X201695000Y-104241939D01*
X201695000Y-104038061D01*
X201655226Y-103838102D01*
X201577205Y-103649744D01*
X201463937Y-103480226D01*
X201319774Y-103336063D01*
X201150256Y-103222795D01*
X201129675Y-103214270D01*
X201147226Y-103171898D01*
X201187000Y-102971939D01*
X201187000Y-102768061D01*
X201149575Y-102579912D01*
X201248913Y-102679250D01*
X201418431Y-102792518D01*
X201606789Y-102870539D01*
X201806748Y-102910313D01*
X202010626Y-102910313D01*
X202210585Y-102870539D01*
X202398943Y-102792518D01*
X202568461Y-102679250D01*
X202712624Y-102535087D01*
X202825892Y-102365569D01*
X202903913Y-102177211D01*
X202936116Y-102015317D01*
X204406500Y-100544933D01*
X204406500Y-101766067D01*
X202644965Y-103527603D01*
X202613459Y-103553459D01*
X202524818Y-103661469D01*
X202396063Y-103790224D01*
X202282795Y-103959742D01*
X202204774Y-104148100D01*
X202165000Y-104348059D01*
X202165000Y-104551937D01*
X202204774Y-104751896D01*
X202282795Y-104940254D01*
X202396063Y-105109772D01*
X202540226Y-105253935D01*
X202709744Y-105367203D01*
X202898102Y-105445224D01*
X203098061Y-105484998D01*
X203301939Y-105484998D01*
X203501898Y-105445224D01*
X203690256Y-105367203D01*
X203859774Y-105253935D01*
X204003937Y-105109772D01*
X204117205Y-104940254D01*
X204195226Y-104751896D01*
X204210907Y-104673061D01*
X206610000Y-104673061D01*
X206610000Y-104876939D01*
X206649774Y-105076898D01*
X206727795Y-105265256D01*
X206841063Y-105434774D01*
X206985226Y-105578937D01*
X207154744Y-105692205D01*
X207343102Y-105770226D01*
X207543061Y-105810000D01*
X207746939Y-105810000D01*
X207946898Y-105770226D01*
X208135256Y-105692205D01*
X208304774Y-105578937D01*
X208448937Y-105434774D01*
X208562205Y-105265256D01*
X208640226Y-105076898D01*
X208680000Y-104876939D01*
X208680000Y-104673061D01*
X208640226Y-104473102D01*
X208562205Y-104284744D01*
X208448937Y-104115226D01*
X208304774Y-103971063D01*
X208135256Y-103857795D01*
X207946898Y-103779774D01*
X207746939Y-103740000D01*
X207543061Y-103740000D01*
X207343102Y-103779774D01*
X207154744Y-103857795D01*
X206985226Y-103971063D01*
X206841063Y-104115226D01*
X206727795Y-104284744D01*
X206649774Y-104473102D01*
X206610000Y-104673061D01*
X204210907Y-104673061D01*
X204235000Y-104551937D01*
X204235000Y-104348059D01*
X204222453Y-104284979D01*
X205787041Y-102720392D01*
X205818541Y-102694541D01*
X205896493Y-102599556D01*
X205921699Y-102568843D01*
X205998353Y-102425434D01*
X206016513Y-102365569D01*
X206026136Y-102333847D01*
X206096226Y-102403937D01*
X206265744Y-102517205D01*
X206454102Y-102595226D01*
X206654061Y-102635000D01*
X206857939Y-102635000D01*
X207057898Y-102595226D01*
X207246256Y-102517205D01*
X207415774Y-102403937D01*
X207559937Y-102259774D01*
X207673205Y-102090256D01*
X207728447Y-101956890D01*
X228428524Y-101956890D01*
X228473175Y-102104099D01*
X228598359Y-102366920D01*
X228772412Y-102600269D01*
X228988645Y-102795178D01*
X229238748Y-102944157D01*
X229513109Y-103041481D01*
X229743000Y-102920814D01*
X229743000Y-101727000D01*
X229997000Y-101727000D01*
X229997000Y-102920814D01*
X230226891Y-103041481D01*
X230501252Y-102944157D01*
X230751355Y-102795178D01*
X230967588Y-102600269D01*
X231141641Y-102366920D01*
X231266825Y-102104099D01*
X231311476Y-101956890D01*
X231190155Y-101727000D01*
X229997000Y-101727000D01*
X229743000Y-101727000D01*
X228549845Y-101727000D01*
X228428524Y-101956890D01*
X207728447Y-101956890D01*
X207751226Y-101901898D01*
X207791000Y-101701939D01*
X207791000Y-101498061D01*
X207751226Y-101298102D01*
X207673205Y-101109744D01*
X207559937Y-100940226D01*
X207415774Y-100796063D01*
X207246256Y-100682795D01*
X207057898Y-100604774D01*
X206857939Y-100565000D01*
X206654061Y-100565000D01*
X206454102Y-100604774D01*
X206265744Y-100682795D01*
X206096226Y-100796063D01*
X206057500Y-100834789D01*
X206057500Y-98210000D01*
X228381928Y-98210000D01*
X228381928Y-99910000D01*
X228394188Y-100034482D01*
X228430498Y-100154180D01*
X228489463Y-100264494D01*
X228568815Y-100361185D01*
X228665506Y-100440537D01*
X228775820Y-100499502D01*
X228856466Y-100523966D01*
X228772412Y-100599731D01*
X228598359Y-100833080D01*
X228473175Y-101095901D01*
X228428524Y-101243110D01*
X228549845Y-101473000D01*
X229743000Y-101473000D01*
X229743000Y-101453000D01*
X229997000Y-101453000D01*
X229997000Y-101473000D01*
X231190155Y-101473000D01*
X231311476Y-101243110D01*
X231266825Y-101095901D01*
X231141641Y-100833080D01*
X230967588Y-100599731D01*
X230883534Y-100523966D01*
X230964180Y-100499502D01*
X231074494Y-100440537D01*
X231171185Y-100361185D01*
X231250537Y-100264494D01*
X231309502Y-100154180D01*
X231345812Y-100034482D01*
X231358072Y-99910000D01*
X231358072Y-98210000D01*
X231345812Y-98085518D01*
X231309502Y-97965820D01*
X231250537Y-97855506D01*
X231171185Y-97758815D01*
X231074494Y-97679463D01*
X230964180Y-97620498D01*
X230844482Y-97584188D01*
X230720000Y-97571928D01*
X229020000Y-97571928D01*
X228895518Y-97584188D01*
X228775820Y-97620498D01*
X228665506Y-97679463D01*
X228568815Y-97758815D01*
X228489463Y-97855506D01*
X228430498Y-97965820D01*
X228394188Y-98085518D01*
X228381928Y-98210000D01*
X206057500Y-98210000D01*
X206057500Y-90543487D01*
X206149205Y-90406240D01*
X206227226Y-90217882D01*
X206267000Y-90017923D01*
X206267000Y-89814045D01*
X206227226Y-89614086D01*
X206149205Y-89425728D01*
X206035937Y-89256210D01*
X205891774Y-89112047D01*
X205722256Y-88998779D01*
X205533898Y-88920758D01*
X205333939Y-88880984D01*
X205130061Y-88880984D01*
X205114511Y-88884077D01*
X205114511Y-85584561D01*
X205118505Y-85544010D01*
X205113388Y-85492056D01*
X205102567Y-85382185D01*
X205055364Y-85226577D01*
X205004777Y-85131937D01*
X204978710Y-85083168D01*
X204901402Y-84988969D01*
X204875552Y-84957470D01*
X204844052Y-84931619D01*
X202927930Y-83015497D01*
X202895727Y-82853603D01*
X202817706Y-82665245D01*
X202704438Y-82495727D01*
X202560275Y-82351564D01*
X202390757Y-82238296D01*
X202202399Y-82160275D01*
X202002440Y-82120501D01*
X201798562Y-82120501D01*
X201598603Y-82160275D01*
X201410245Y-82238296D01*
X201240727Y-82351564D01*
X201096564Y-82495727D01*
X200983296Y-82665245D01*
X200905275Y-82853603D01*
X200865501Y-83053562D01*
X200865501Y-83257440D01*
X200903434Y-83448145D01*
X200761939Y-83420000D01*
X200558061Y-83420000D01*
X200358102Y-83459774D01*
X200169744Y-83537795D01*
X200000226Y-83651063D01*
X199856063Y-83795226D01*
X199742795Y-83964744D01*
X199664774Y-84153102D01*
X199625000Y-84353061D01*
X199625000Y-84556939D01*
X199658039Y-84723039D01*
X199491939Y-84690000D01*
X199288061Y-84690000D01*
X199088102Y-84729774D01*
X198899744Y-84807795D01*
X198730226Y-84921063D01*
X198586063Y-85065226D01*
X198472795Y-85234744D01*
X198394774Y-85423102D01*
X198355000Y-85623061D01*
X198355000Y-85826939D01*
X198388039Y-85993039D01*
X198221939Y-85960000D01*
X198018061Y-85960000D01*
X197818102Y-85999774D01*
X197629744Y-86077795D01*
X197460226Y-86191063D01*
X197316063Y-86335226D01*
X197202795Y-86504744D01*
X197124774Y-86693102D01*
X197085000Y-86893061D01*
X197085000Y-87096939D01*
X197118039Y-87263039D01*
X196951939Y-87230000D01*
X196748061Y-87230000D01*
X196548102Y-87269774D01*
X196359744Y-87347795D01*
X196190226Y-87461063D01*
X196046063Y-87605226D01*
X195932795Y-87774744D01*
X195878450Y-87905943D01*
X195878450Y-87704504D01*
X195808414Y-87352411D01*
X195671034Y-87020746D01*
X195471589Y-86722256D01*
X195217744Y-86468411D01*
X194919254Y-86268966D01*
X194785091Y-86213394D01*
X194933961Y-86064524D01*
X195057659Y-85879398D01*
X195142863Y-85673696D01*
X195186300Y-85455325D01*
X195186300Y-85232675D01*
X195142863Y-85014304D01*
X195057659Y-84808602D01*
X194933961Y-84623476D01*
X194785091Y-84474606D01*
X194919254Y-84419034D01*
X195217744Y-84219589D01*
X195471589Y-83965744D01*
X195671034Y-83667254D01*
X195808414Y-83335589D01*
X195878450Y-82983496D01*
X195878450Y-82624504D01*
X195808414Y-82272411D01*
X195671034Y-81940746D01*
X195471589Y-81642256D01*
X195217744Y-81388411D01*
X194919254Y-81188966D01*
X194679122Y-81089500D01*
X202572497Y-81089500D01*
X202709744Y-81181205D01*
X202898102Y-81259226D01*
X203098061Y-81299000D01*
X203301939Y-81299000D01*
X203397459Y-81280000D01*
X208153000Y-81280000D01*
X208153000Y-88900000D01*
X208155440Y-88924776D01*
X208162667Y-88948601D01*
X208174403Y-88970557D01*
X208190197Y-88989803D01*
X208209443Y-89005597D01*
X208231399Y-89017333D01*
X208255224Y-89024560D01*
X208280000Y-89027000D01*
X218440000Y-89027000D01*
X218464776Y-89024560D01*
X218488601Y-89017333D01*
X218510557Y-89005597D01*
X218529803Y-88989803D01*
X218545597Y-88970557D01*
X218557333Y-88948601D01*
X218564560Y-88924776D01*
X218567000Y-88900000D01*
X218567000Y-81280000D01*
X218564560Y-81255224D01*
X218557333Y-81231399D01*
X218545597Y-81209443D01*
X218529803Y-81190197D01*
X218510557Y-81174403D01*
X218488601Y-81162667D01*
X218464776Y-81155440D01*
X218440000Y-81153000D01*
X208280000Y-81153000D01*
X208255224Y-81155440D01*
X208231399Y-81162667D01*
X208209443Y-81174403D01*
X208190197Y-81190197D01*
X208174403Y-81209443D01*
X208162667Y-81231399D01*
X208155440Y-81255224D01*
X208153000Y-81280000D01*
X203397459Y-81280000D01*
X203501898Y-81259226D01*
X203690256Y-81181205D01*
X203859774Y-81067937D01*
X204003937Y-80923774D01*
X204117205Y-80754256D01*
X204195226Y-80565898D01*
X204235000Y-80365939D01*
X204235000Y-80162061D01*
X204195226Y-79962102D01*
X204117205Y-79773744D01*
X204073430Y-79708230D01*
X204138603Y-79735226D01*
X204338562Y-79775000D01*
X204542440Y-79775000D01*
X204742399Y-79735226D01*
X204930757Y-79657205D01*
X205100275Y-79543937D01*
X205244438Y-79399774D01*
X205357706Y-79230256D01*
X205435727Y-79041898D01*
X205475501Y-78841939D01*
X205475501Y-78726665D01*
X205638061Y-78759000D01*
X205841939Y-78759000D01*
X206041898Y-78719226D01*
X206230256Y-78641205D01*
X206399774Y-78527937D01*
X206543937Y-78383774D01*
X206657205Y-78214256D01*
X206735226Y-78025898D01*
X206775000Y-77825939D01*
X206775000Y-77660500D01*
X210827497Y-77660500D01*
X210964744Y-77752205D01*
X211153102Y-77830226D01*
X211353061Y-77870000D01*
X211556939Y-77870000D01*
X211756898Y-77830226D01*
X211945256Y-77752205D01*
X212114774Y-77638937D01*
X212258937Y-77494774D01*
X212372205Y-77325256D01*
X212450226Y-77136898D01*
X212490000Y-76936939D01*
X212490000Y-76733061D01*
X212450226Y-76533102D01*
X212372205Y-76344744D01*
X212258937Y-76175226D01*
X212114774Y-76031063D01*
X211945256Y-75917795D01*
X211756898Y-75839774D01*
X211556939Y-75800000D01*
X211353061Y-75800000D01*
X211186961Y-75833039D01*
X211220000Y-75666939D01*
X211220000Y-75463061D01*
X211180226Y-75263102D01*
X211102205Y-75074744D01*
X210988937Y-74905226D01*
X210844774Y-74761063D01*
X210675256Y-74647795D01*
X210486898Y-74569774D01*
X210286939Y-74530000D01*
X210083061Y-74530000D01*
X209916965Y-74563038D01*
X209950004Y-74396939D01*
X209950004Y-74193061D01*
X209910230Y-73993102D01*
X209832209Y-73804744D01*
X209718941Y-73635226D01*
X209574778Y-73491063D01*
X209405260Y-73377795D01*
X209216902Y-73299774D01*
X209016943Y-73260000D01*
X208813065Y-73260000D01*
X208613106Y-73299774D01*
X208424748Y-73377795D01*
X208287501Y-73469500D01*
X185761934Y-73469500D01*
X184440830Y-72148397D01*
X189651208Y-72148397D01*
X189728843Y-72397472D01*
X189992883Y-72523371D01*
X190276411Y-72595339D01*
X190568531Y-72610611D01*
X190858019Y-72568599D01*
X191133747Y-72470919D01*
X191271157Y-72397472D01*
X191348792Y-72148397D01*
X190500000Y-71299605D01*
X189651208Y-72148397D01*
X184440830Y-72148397D01*
X184127398Y-71834966D01*
X184101541Y-71803459D01*
X183975842Y-71700301D01*
X183832434Y-71623647D01*
X183676826Y-71576444D01*
X183555553Y-71564500D01*
X183555550Y-71564500D01*
X183515000Y-71560506D01*
X183474450Y-71564500D01*
X85709433Y-71564500D01*
X85333464Y-71188531D01*
X189009389Y-71188531D01*
X189051401Y-71478019D01*
X189149081Y-71753747D01*
X189222528Y-71891157D01*
X189471603Y-71968792D01*
X190320395Y-71120000D01*
X189471603Y-70271208D01*
X189222528Y-70348843D01*
X189096629Y-70612883D01*
X189024661Y-70896411D01*
X189009389Y-71188531D01*
X85333464Y-71188531D01*
X85248072Y-71103140D01*
X85248072Y-70669999D01*
X85231008Y-70496745D01*
X85180472Y-70330149D01*
X85098405Y-70176613D01*
X84987962Y-70042038D01*
X84853387Y-69931595D01*
X84699851Y-69849528D01*
X84533255Y-69798992D01*
X84360001Y-69781928D01*
X83834999Y-69781928D01*
X83661745Y-69798992D01*
X83495149Y-69849528D01*
X83341613Y-69931595D01*
X83207038Y-70042038D01*
X83185000Y-70068891D01*
X83162962Y-70042038D01*
X83028387Y-69931595D01*
X82874851Y-69849528D01*
X82708255Y-69798992D01*
X82535001Y-69781928D01*
X82009999Y-69781928D01*
X81836745Y-69798992D01*
X81670149Y-69849528D01*
X81516613Y-69931595D01*
X81382038Y-70042038D01*
X81271595Y-70176613D01*
X81262302Y-70193999D01*
X77888005Y-70193999D01*
X77855514Y-70190799D01*
X77855511Y-70190799D01*
X77814961Y-70186805D01*
X77774411Y-70190799D01*
X76125589Y-70190799D01*
X76085038Y-70186805D01*
X76044488Y-70190799D01*
X76044486Y-70190799D01*
X75923213Y-70202743D01*
X75767605Y-70249946D01*
X75624197Y-70326600D01*
X75498498Y-70429758D01*
X75472641Y-70461265D01*
X75451265Y-70482641D01*
X75419758Y-70508498D01*
X75367551Y-70572113D01*
X75167737Y-70771928D01*
X74900000Y-70771928D01*
X74775518Y-70784188D01*
X74655820Y-70820498D01*
X74545506Y-70879463D01*
X74448815Y-70958815D01*
X74369463Y-71055506D01*
X74310498Y-71165820D01*
X74274188Y-71285518D01*
X74261928Y-71410000D01*
X61997432Y-71410000D01*
X62007177Y-71403489D01*
X62513489Y-70897177D01*
X62911295Y-70301818D01*
X63185309Y-69640290D01*
X63325000Y-68938016D01*
X63325000Y-68433740D01*
X189015000Y-68433740D01*
X189015000Y-68726260D01*
X189072068Y-69013158D01*
X189184010Y-69283411D01*
X189346525Y-69526632D01*
X189553368Y-69733475D01*
X189726729Y-69849311D01*
X189651208Y-70091603D01*
X190500000Y-70940395D01*
X191348792Y-70091603D01*
X191273271Y-69849311D01*
X191446632Y-69733475D01*
X191653475Y-69526632D01*
X191770000Y-69352240D01*
X191886525Y-69526632D01*
X192093368Y-69733475D01*
X192267760Y-69850000D01*
X192093368Y-69966525D01*
X191886525Y-70173368D01*
X191770689Y-70346729D01*
X191528397Y-70271208D01*
X190679605Y-71120000D01*
X191528397Y-71968792D01*
X191770689Y-71893271D01*
X191886525Y-72066632D01*
X192093368Y-72273475D01*
X192336589Y-72435990D01*
X192606842Y-72547932D01*
X192893740Y-72605000D01*
X193186260Y-72605000D01*
X193473158Y-72547932D01*
X193743411Y-72435990D01*
X193986632Y-72273475D01*
X194193475Y-72066632D01*
X194310000Y-71892240D01*
X194426525Y-72066632D01*
X194633368Y-72273475D01*
X194876589Y-72435990D01*
X195146842Y-72547932D01*
X195433740Y-72605000D01*
X195726260Y-72605000D01*
X196013158Y-72547932D01*
X196283411Y-72435990D01*
X196526632Y-72273475D01*
X196733475Y-72066632D01*
X196850000Y-71892240D01*
X196966525Y-72066632D01*
X197173368Y-72273475D01*
X197416589Y-72435990D01*
X197686842Y-72547932D01*
X197973740Y-72605000D01*
X198266260Y-72605000D01*
X198553158Y-72547932D01*
X198823411Y-72435990D01*
X199066632Y-72273475D01*
X199273475Y-72066632D01*
X199390000Y-71892240D01*
X199506525Y-72066632D01*
X199713368Y-72273475D01*
X199956589Y-72435990D01*
X200226842Y-72547932D01*
X200513740Y-72605000D01*
X200806260Y-72605000D01*
X201093158Y-72547932D01*
X201363411Y-72435990D01*
X201606632Y-72273475D01*
X201813475Y-72066632D01*
X201930000Y-71892240D01*
X202046525Y-72066632D01*
X202253368Y-72273475D01*
X202496589Y-72435990D01*
X202766842Y-72547932D01*
X203053740Y-72605000D01*
X203346260Y-72605000D01*
X203633158Y-72547932D01*
X203903411Y-72435990D01*
X204146632Y-72273475D01*
X204353475Y-72066632D01*
X204470000Y-71892240D01*
X204586525Y-72066632D01*
X204793368Y-72273475D01*
X205036589Y-72435990D01*
X205306842Y-72547932D01*
X205593740Y-72605000D01*
X205886260Y-72605000D01*
X206173158Y-72547932D01*
X206443411Y-72435990D01*
X206686632Y-72273475D01*
X206893475Y-72066632D01*
X207055990Y-71823411D01*
X207167932Y-71553158D01*
X207225000Y-71266260D01*
X207225000Y-70973740D01*
X207167932Y-70686842D01*
X207055990Y-70416589D01*
X206893475Y-70173368D01*
X206706392Y-69986285D01*
X206833386Y-69918405D01*
X206967962Y-69807962D01*
X207078405Y-69673386D01*
X207160472Y-69519850D01*
X207211008Y-69353254D01*
X207228072Y-69180000D01*
X207228072Y-67980000D01*
X207227094Y-67970061D01*
X213849000Y-67970061D01*
X213849000Y-68173939D01*
X213888774Y-68373898D01*
X213966795Y-68562256D01*
X214080063Y-68731774D01*
X214224226Y-68875937D01*
X214393744Y-68989205D01*
X214582102Y-69067226D01*
X214782061Y-69107000D01*
X214985939Y-69107000D01*
X215185898Y-69067226D01*
X215374256Y-68989205D01*
X215543774Y-68875937D01*
X215687937Y-68731774D01*
X215801205Y-68562256D01*
X215879226Y-68373898D01*
X215909443Y-68221984D01*
X224965000Y-68221984D01*
X224965000Y-68938016D01*
X225104691Y-69640290D01*
X225378705Y-70301818D01*
X225776511Y-70897177D01*
X226282823Y-71403489D01*
X226878182Y-71801295D01*
X227539710Y-72075309D01*
X228241984Y-72215000D01*
X228958016Y-72215000D01*
X229660290Y-72075309D01*
X230321818Y-71801295D01*
X230917177Y-71403489D01*
X231423489Y-70897177D01*
X231821295Y-70301818D01*
X232095309Y-69640290D01*
X232235000Y-68938016D01*
X232235000Y-68221984D01*
X232095309Y-67519710D01*
X231821295Y-66858182D01*
X231423489Y-66262823D01*
X230917177Y-65756511D01*
X230321818Y-65358705D01*
X229660290Y-65084691D01*
X228958016Y-64945000D01*
X228241984Y-64945000D01*
X227539710Y-65084691D01*
X226878182Y-65358705D01*
X226282823Y-65756511D01*
X225776511Y-66262823D01*
X225378705Y-66858182D01*
X225104691Y-67519710D01*
X224965000Y-68221984D01*
X215909443Y-68221984D01*
X215919000Y-68173939D01*
X215919000Y-67970061D01*
X215879226Y-67770102D01*
X215801205Y-67581744D01*
X215687937Y-67412226D01*
X215543774Y-67268063D01*
X215374256Y-67154795D01*
X215185898Y-67076774D01*
X214985939Y-67037000D01*
X214782061Y-67037000D01*
X214582102Y-67076774D01*
X214393744Y-67154795D01*
X214224226Y-67268063D01*
X214080063Y-67412226D01*
X213966795Y-67581744D01*
X213888774Y-67770102D01*
X213849000Y-67970061D01*
X207227094Y-67970061D01*
X207211008Y-67806746D01*
X207160472Y-67640150D01*
X207078405Y-67486614D01*
X206967962Y-67352038D01*
X206833386Y-67241595D01*
X206679850Y-67159528D01*
X206513254Y-67108992D01*
X206340000Y-67091928D01*
X205140000Y-67091928D01*
X204966746Y-67108992D01*
X204800150Y-67159528D01*
X204646614Y-67241595D01*
X204512038Y-67352038D01*
X204401595Y-67486614D01*
X204333715Y-67613608D01*
X204146632Y-67426525D01*
X203903411Y-67264010D01*
X203633158Y-67152068D01*
X203346260Y-67095000D01*
X203053740Y-67095000D01*
X202766842Y-67152068D01*
X202496589Y-67264010D01*
X202253368Y-67426525D01*
X202046525Y-67633368D01*
X201930000Y-67807760D01*
X201813475Y-67633368D01*
X201606632Y-67426525D01*
X201363411Y-67264010D01*
X201093158Y-67152068D01*
X200806260Y-67095000D01*
X200513740Y-67095000D01*
X200226842Y-67152068D01*
X199956589Y-67264010D01*
X199713368Y-67426525D01*
X199506525Y-67633368D01*
X199390000Y-67807760D01*
X199273475Y-67633368D01*
X199066632Y-67426525D01*
X198823411Y-67264010D01*
X198553158Y-67152068D01*
X198266260Y-67095000D01*
X197973740Y-67095000D01*
X197686842Y-67152068D01*
X197416589Y-67264010D01*
X197173368Y-67426525D01*
X196966525Y-67633368D01*
X196850000Y-67807760D01*
X196733475Y-67633368D01*
X196526632Y-67426525D01*
X196283411Y-67264010D01*
X196013158Y-67152068D01*
X195726260Y-67095000D01*
X195433740Y-67095000D01*
X195146842Y-67152068D01*
X194876589Y-67264010D01*
X194633368Y-67426525D01*
X194426525Y-67633368D01*
X194310000Y-67807760D01*
X194193475Y-67633368D01*
X193986632Y-67426525D01*
X193743411Y-67264010D01*
X193473158Y-67152068D01*
X193186260Y-67095000D01*
X192893740Y-67095000D01*
X192606842Y-67152068D01*
X192336589Y-67264010D01*
X192093368Y-67426525D01*
X191886525Y-67633368D01*
X191770000Y-67807760D01*
X191653475Y-67633368D01*
X191446632Y-67426525D01*
X191203411Y-67264010D01*
X190933158Y-67152068D01*
X190646260Y-67095000D01*
X190353740Y-67095000D01*
X190066842Y-67152068D01*
X189796589Y-67264010D01*
X189553368Y-67426525D01*
X189346525Y-67633368D01*
X189184010Y-67876589D01*
X189072068Y-68146842D01*
X189015000Y-68433740D01*
X63325000Y-68433740D01*
X63325000Y-68221984D01*
X63185309Y-67519710D01*
X62911295Y-66858182D01*
X62513489Y-66262823D01*
X62007177Y-65756511D01*
X61411818Y-65358705D01*
X60750290Y-65084691D01*
X60048016Y-64945000D01*
X59331984Y-64945000D01*
X58629710Y-65084691D01*
X57968182Y-65358705D01*
X57372823Y-65756511D01*
X56866511Y-66262823D01*
X56468705Y-66858182D01*
X56194691Y-67519710D01*
X56055000Y-68221984D01*
X52730000Y-68221984D01*
X52730000Y-66069392D01*
X52802437Y-65257751D01*
X53009672Y-64500226D01*
X53347777Y-63791375D01*
X53806067Y-63153596D01*
X54370055Y-62607054D01*
X55021913Y-62169023D01*
X55741038Y-61853349D01*
X56509768Y-61668794D01*
X57174207Y-61620000D01*
X231110608Y-61620000D01*
X231922249Y-61692437D01*
G37*
%TD.AperFunction*%
D23*
X190817516Y-84218532D02*
X190930784Y-84388050D01*
X191074947Y-84532213D01*
X191244465Y-84645481D01*
X191432823Y-84723502D01*
X191632782Y-84763276D01*
X191712802Y-84763276D01*
X191712801Y-85855670D01*
X191626812Y-85872774D01*
X191438454Y-85950795D01*
X191268936Y-86064063D01*
X191124773Y-86208226D01*
X191011505Y-86377744D01*
X190933484Y-86566102D01*
X190893710Y-86766061D01*
X190893710Y-86969939D01*
X190933484Y-87169898D01*
X191011505Y-87358256D01*
X191124773Y-87527774D01*
X191268936Y-87671937D01*
X191438454Y-87785205D01*
X191626812Y-87863226D01*
X191826771Y-87903000D01*
X192030649Y-87903000D01*
X192230608Y-87863226D01*
X192233550Y-87862007D01*
X192233550Y-88063496D01*
X192303586Y-88415589D01*
X192440966Y-88747254D01*
X192640411Y-89045744D01*
X192894256Y-89299589D01*
X193192746Y-89499034D01*
X193524411Y-89636414D01*
X193876504Y-89706450D01*
X194235496Y-89706450D01*
X194587589Y-89636414D01*
X194919254Y-89499034D01*
X195217744Y-89299589D01*
X195471589Y-89045744D01*
X195671034Y-88747254D01*
X195808414Y-88415589D01*
X195816546Y-88374709D01*
X195854774Y-88566898D01*
X195932795Y-88755256D01*
X196046063Y-88924774D01*
X196190226Y-89068937D01*
X196359744Y-89182205D01*
X196548102Y-89260226D01*
X196709996Y-89292428D01*
X197294500Y-89876933D01*
X197294501Y-96810798D01*
X197213937Y-96690226D01*
X197069774Y-96546063D01*
X196900256Y-96432795D01*
X196711898Y-96354774D01*
X196511939Y-96315000D01*
X196308061Y-96315000D01*
X196108102Y-96354774D01*
X195919744Y-96432795D01*
X195750226Y-96546063D01*
X195606063Y-96690226D01*
X195492795Y-96859744D01*
X195414774Y-97048102D01*
X195375000Y-97248061D01*
X195375000Y-97451939D01*
X195414774Y-97651898D01*
X195492795Y-97840256D01*
X195584501Y-97977504D01*
X195584500Y-101444067D01*
X194423996Y-102604571D01*
X194262102Y-102636774D01*
X194073744Y-102714795D01*
X193904226Y-102828063D01*
X193760063Y-102972226D01*
X193646795Y-103141744D01*
X193568774Y-103330102D01*
X193529000Y-103530061D01*
X193529000Y-103733939D01*
X193568774Y-103933898D01*
X193612666Y-104039863D01*
X193530256Y-103984798D01*
X193341898Y-103906777D01*
X193141939Y-103867003D01*
X192938061Y-103867003D01*
X192738102Y-103906777D01*
X192549744Y-103984798D01*
X192380226Y-104098066D01*
X192266930Y-104211362D01*
X187553629Y-99498061D01*
X193497000Y-99498061D01*
X193497000Y-99701939D01*
X193536774Y-99901898D01*
X193614795Y-100090256D01*
X193728063Y-100259774D01*
X193872226Y-100403937D01*
X194041744Y-100517205D01*
X194230102Y-100595226D01*
X194430061Y-100635000D01*
X194633939Y-100635000D01*
X194833898Y-100595226D01*
X195022256Y-100517205D01*
X195191774Y-100403937D01*
X195335937Y-100259774D01*
X195449205Y-100090256D01*
X195527226Y-99901898D01*
X195567000Y-99701939D01*
X195567000Y-99498061D01*
X195527226Y-99298102D01*
X195449205Y-99109744D01*
X195335937Y-98940226D01*
X195191774Y-98796063D01*
X195022256Y-98682795D01*
X194833898Y-98604774D01*
X194633939Y-98565000D01*
X194430061Y-98565000D01*
X194230102Y-98604774D01*
X194041744Y-98682795D01*
X193872226Y-98796063D01*
X193728063Y-98940226D01*
X193614795Y-99109744D01*
X193536774Y-99298102D01*
X193497000Y-99498061D01*
X187553629Y-99498061D01*
X187463429Y-99407861D01*
X187431226Y-99245967D01*
X187353205Y-99057609D01*
X187261500Y-98920362D01*
X187261500Y-95148061D01*
X193275000Y-95148061D01*
X193275000Y-95351939D01*
X193314774Y-95551898D01*
X193392795Y-95740256D01*
X193506063Y-95909774D01*
X193650226Y-96053937D01*
X193819744Y-96167205D01*
X194008102Y-96245226D01*
X194208061Y-96285000D01*
X194411939Y-96285000D01*
X194611898Y-96245226D01*
X194800256Y-96167205D01*
X194969774Y-96053937D01*
X195113937Y-95909774D01*
X195227205Y-95740256D01*
X195305226Y-95551898D01*
X195345000Y-95351939D01*
X195345000Y-95148061D01*
X195305226Y-94948102D01*
X195227205Y-94759744D01*
X195113937Y-94590226D01*
X194969774Y-94446063D01*
X194800256Y-94332795D01*
X194611898Y-94254774D01*
X194411939Y-94215000D01*
X194208061Y-94215000D01*
X194008102Y-94254774D01*
X193819744Y-94332795D01*
X193650226Y-94446063D01*
X193506063Y-94590226D01*
X193392795Y-94759744D01*
X193314774Y-94948102D01*
X193275000Y-95148061D01*
X187261500Y-95148061D01*
X187261500Y-89354543D01*
X187477746Y-89499034D01*
X187809411Y-89636414D01*
X188161504Y-89706450D01*
X188520496Y-89706450D01*
X188872589Y-89636414D01*
X189159785Y-89517453D01*
X189188063Y-89559774D01*
X189332226Y-89703937D01*
X189501744Y-89817205D01*
X189690102Y-89895226D01*
X189890061Y-89935000D01*
X190093939Y-89935000D01*
X190293898Y-89895226D01*
X190482256Y-89817205D01*
X190651774Y-89703937D01*
X190795937Y-89559774D01*
X190909205Y-89390256D01*
X190987226Y-89201898D01*
X191027000Y-89001939D01*
X191027000Y-88798061D01*
X190987226Y-88598102D01*
X190909205Y-88409744D01*
X190817500Y-88272497D01*
X190817500Y-84218493D01*
X190817516Y-84218532D01*
%TA.AperFunction,Conductor*%
D24*
G36*
X190817516Y-84218532D02*
G01*
X190930784Y-84388050D01*
X191074947Y-84532213D01*
X191244465Y-84645481D01*
X191432823Y-84723502D01*
X191632782Y-84763276D01*
X191712802Y-84763276D01*
X191712801Y-85855670D01*
X191626812Y-85872774D01*
X191438454Y-85950795D01*
X191268936Y-86064063D01*
X191124773Y-86208226D01*
X191011505Y-86377744D01*
X190933484Y-86566102D01*
X190893710Y-86766061D01*
X190893710Y-86969939D01*
X190933484Y-87169898D01*
X191011505Y-87358256D01*
X191124773Y-87527774D01*
X191268936Y-87671937D01*
X191438454Y-87785205D01*
X191626812Y-87863226D01*
X191826771Y-87903000D01*
X192030649Y-87903000D01*
X192230608Y-87863226D01*
X192233550Y-87862007D01*
X192233550Y-88063496D01*
X192303586Y-88415589D01*
X192440966Y-88747254D01*
X192640411Y-89045744D01*
X192894256Y-89299589D01*
X193192746Y-89499034D01*
X193524411Y-89636414D01*
X193876504Y-89706450D01*
X194235496Y-89706450D01*
X194587589Y-89636414D01*
X194919254Y-89499034D01*
X195217744Y-89299589D01*
X195471589Y-89045744D01*
X195671034Y-88747254D01*
X195808414Y-88415589D01*
X195816546Y-88374709D01*
X195854774Y-88566898D01*
X195932795Y-88755256D01*
X196046063Y-88924774D01*
X196190226Y-89068937D01*
X196359744Y-89182205D01*
X196548102Y-89260226D01*
X196709996Y-89292428D01*
X197294500Y-89876933D01*
X197294501Y-96810798D01*
X197213937Y-96690226D01*
X197069774Y-96546063D01*
X196900256Y-96432795D01*
X196711898Y-96354774D01*
X196511939Y-96315000D01*
X196308061Y-96315000D01*
X196108102Y-96354774D01*
X195919744Y-96432795D01*
X195750226Y-96546063D01*
X195606063Y-96690226D01*
X195492795Y-96859744D01*
X195414774Y-97048102D01*
X195375000Y-97248061D01*
X195375000Y-97451939D01*
X195414774Y-97651898D01*
X195492795Y-97840256D01*
X195584501Y-97977504D01*
X195584500Y-101444067D01*
X194423996Y-102604571D01*
X194262102Y-102636774D01*
X194073744Y-102714795D01*
X193904226Y-102828063D01*
X193760063Y-102972226D01*
X193646795Y-103141744D01*
X193568774Y-103330102D01*
X193529000Y-103530061D01*
X193529000Y-103733939D01*
X193568774Y-103933898D01*
X193612666Y-104039863D01*
X193530256Y-103984798D01*
X193341898Y-103906777D01*
X193141939Y-103867003D01*
X192938061Y-103867003D01*
X192738102Y-103906777D01*
X192549744Y-103984798D01*
X192380226Y-104098066D01*
X192266930Y-104211362D01*
X187553629Y-99498061D01*
X193497000Y-99498061D01*
X193497000Y-99701939D01*
X193536774Y-99901898D01*
X193614795Y-100090256D01*
X193728063Y-100259774D01*
X193872226Y-100403937D01*
X194041744Y-100517205D01*
X194230102Y-100595226D01*
X194430061Y-100635000D01*
X194633939Y-100635000D01*
X194833898Y-100595226D01*
X195022256Y-100517205D01*
X195191774Y-100403937D01*
X195335937Y-100259774D01*
X195449205Y-100090256D01*
X195527226Y-99901898D01*
X195567000Y-99701939D01*
X195567000Y-99498061D01*
X195527226Y-99298102D01*
X195449205Y-99109744D01*
X195335937Y-98940226D01*
X195191774Y-98796063D01*
X195022256Y-98682795D01*
X194833898Y-98604774D01*
X194633939Y-98565000D01*
X194430061Y-98565000D01*
X194230102Y-98604774D01*
X194041744Y-98682795D01*
X193872226Y-98796063D01*
X193728063Y-98940226D01*
X193614795Y-99109744D01*
X193536774Y-99298102D01*
X193497000Y-99498061D01*
X187553629Y-99498061D01*
X187463429Y-99407861D01*
X187431226Y-99245967D01*
X187353205Y-99057609D01*
X187261500Y-98920362D01*
X187261500Y-95148061D01*
X193275000Y-95148061D01*
X193275000Y-95351939D01*
X193314774Y-95551898D01*
X193392795Y-95740256D01*
X193506063Y-95909774D01*
X193650226Y-96053937D01*
X193819744Y-96167205D01*
X194008102Y-96245226D01*
X194208061Y-96285000D01*
X194411939Y-96285000D01*
X194611898Y-96245226D01*
X194800256Y-96167205D01*
X194969774Y-96053937D01*
X195113937Y-95909774D01*
X195227205Y-95740256D01*
X195305226Y-95551898D01*
X195345000Y-95351939D01*
X195345000Y-95148061D01*
X195305226Y-94948102D01*
X195227205Y-94759744D01*
X195113937Y-94590226D01*
X194969774Y-94446063D01*
X194800256Y-94332795D01*
X194611898Y-94254774D01*
X194411939Y-94215000D01*
X194208061Y-94215000D01*
X194008102Y-94254774D01*
X193819744Y-94332795D01*
X193650226Y-94446063D01*
X193506063Y-94590226D01*
X193392795Y-94759744D01*
X193314774Y-94948102D01*
X193275000Y-95148061D01*
X187261500Y-95148061D01*
X187261500Y-89354543D01*
X187477746Y-89499034D01*
X187809411Y-89636414D01*
X188161504Y-89706450D01*
X188520496Y-89706450D01*
X188872589Y-89636414D01*
X189159785Y-89517453D01*
X189188063Y-89559774D01*
X189332226Y-89703937D01*
X189501744Y-89817205D01*
X189690102Y-89895226D01*
X189890061Y-89935000D01*
X190093939Y-89935000D01*
X190293898Y-89895226D01*
X190482256Y-89817205D01*
X190651774Y-89703937D01*
X190795937Y-89559774D01*
X190909205Y-89390256D01*
X190987226Y-89201898D01*
X191027000Y-89001939D01*
X191027000Y-88798061D01*
X190987226Y-88598102D01*
X190909205Y-88409744D01*
X190817500Y-88272497D01*
X190817500Y-84218493D01*
X190817516Y-84218532D01*
G37*
%TD.AperFunction*%
D23*
X190862000Y-81178061D02*
X190862000Y-81381939D01*
X190901774Y-81581898D01*
X190979795Y-81770256D01*
X191071501Y-81907503D01*
X191071500Y-82763449D01*
X191067506Y-82804000D01*
X191071500Y-82844550D01*
X191071500Y-82844552D01*
X191079086Y-82921574D01*
X191074947Y-82924339D01*
X190930784Y-83068502D01*
X190817516Y-83238020D01*
X190817500Y-83238059D01*
X190817500Y-81089500D01*
X190879616Y-81089500D01*
X190862000Y-81178061D01*
%TA.AperFunction,Conductor*%
D24*
G36*
X190862000Y-81178061D02*
G01*
X190862000Y-81381939D01*
X190901774Y-81581898D01*
X190979795Y-81770256D01*
X191071501Y-81907503D01*
X191071500Y-82763449D01*
X191067506Y-82804000D01*
X191071500Y-82844550D01*
X191071500Y-82844552D01*
X191079086Y-82921574D01*
X191074947Y-82924339D01*
X190930784Y-83068502D01*
X190817516Y-83238020D01*
X190817500Y-83238059D01*
X190817500Y-81089500D01*
X190879616Y-81089500D01*
X190862000Y-81178061D01*
G37*
%TD.AperFunction*%
%TD*%
M02*
