%TF.GenerationSoftware,KiCad,Pcbnew,(5.1.8-0-10_14)*%
%TF.CreationDate,2021-12-04T19:42:54-08:00*%
%TF.ProjectId,Control,436f6e74-726f-46c2-9e6b-696361645f70,rev?*%
%TF.SameCoordinates,Original*%
%TF.FileFunction,Copper,L3,Inr*%
%TF.FilePolarity,Positive*%
%FSLAX46Y46*%
G04 Gerber Fmt 4.6, Leading zero omitted, Abs format (unit mm)*
G04 Created by KiCad (PCBNEW (5.1.8-0-10_14)) date 2021-12-04 19:42:54*
%MOMM*%
%LPD*%
G01*
G04 APERTURE LIST*
%TA.AperFunction,ComponentPad*%
%ADD10O,4.000000X7.000000*%
%TD*%
%TA.AperFunction,ComponentPad*%
%ADD11C,2.000000*%
%TD*%
%TA.AperFunction,ComponentPad*%
%ADD12C,0.800000*%
%TD*%
%TA.AperFunction,ComponentPad*%
%ADD13C,6.000000*%
%TD*%
%TA.AperFunction,ComponentPad*%
%ADD14C,4.000000*%
%TD*%
%TA.AperFunction,ComponentPad*%
%ADD15O,1.700000X1.700000*%
%TD*%
%TA.AperFunction,ComponentPad*%
%ADD16R,1.700000X1.700000*%
%TD*%
%TA.AperFunction,ComponentPad*%
%ADD17C,1.700000*%
%TD*%
%TA.AperFunction,ComponentPad*%
%ADD18C,1.485900*%
%TD*%
%TA.AperFunction,ComponentPad*%
%ADD19R,2.000000X2.000000*%
%TD*%
%TA.AperFunction,ViaPad*%
%ADD20C,0.800000*%
%TD*%
%TA.AperFunction,Conductor*%
%ADD21C,0.381000*%
%TD*%
%TA.AperFunction,Conductor*%
%ADD22C,0.254000*%
%TD*%
%TA.AperFunction,Conductor*%
%ADD23C,0.100000*%
%TD*%
G04 APERTURE END LIST*
D10*
%TO.N,N/C*%
%TO.C,SW1*%
X112290000Y-101600000D03*
X121390000Y-101600000D03*
D11*
%TO.N,GND*%
X114340000Y-94600000D03*
%TO.N,ENC_SEL_SW*%
X119340000Y-94600000D03*
%TO.N,ENC_A_SW*%
X119340000Y-109100000D03*
%TO.N,ENC_B_SW*%
X114340000Y-109100000D03*
%TO.N,GND*%
X116840000Y-109100000D03*
%TD*%
D12*
%TO.N,Net-(H4-Pad1)*%
%TO.C,H4*%
X230190990Y-127949010D03*
X228600000Y-127290000D03*
X227009010Y-127949010D03*
X226350000Y-129540000D03*
X227009010Y-131130990D03*
X228600000Y-131790000D03*
X230190990Y-131130990D03*
X230850000Y-129540000D03*
D13*
X228600000Y-129540000D03*
%TD*%
D12*
%TO.N,Net-(H3-Pad1)*%
%TO.C,H3*%
X61280990Y-129219010D03*
X59690000Y-128560000D03*
X58099010Y-129219010D03*
X57440000Y-130810000D03*
X58099010Y-132400990D03*
X59690000Y-133060000D03*
X61280990Y-132400990D03*
X61940000Y-130810000D03*
D13*
X59690000Y-130810000D03*
%TD*%
D12*
%TO.N,Net-(H2-Pad1)*%
%TO.C,H2*%
X230190990Y-66989010D03*
X228600000Y-66330000D03*
X227009010Y-66989010D03*
X226350000Y-68580000D03*
X227009010Y-70170990D03*
X228600000Y-70830000D03*
X230190990Y-70170990D03*
X230850000Y-68580000D03*
D13*
X228600000Y-68580000D03*
%TD*%
D12*
%TO.N,Net-(H1-Pad1)*%
%TO.C,H1*%
X61280990Y-66989010D03*
X59690000Y-66330000D03*
X58099010Y-66989010D03*
X57440000Y-68580000D03*
X58099010Y-70170990D03*
X59690000Y-70830000D03*
X61280990Y-70170990D03*
X61940000Y-68580000D03*
D13*
X59690000Y-68580000D03*
%TD*%
D14*
%TO.N,GND*%
%TO.C,USB1*%
X133134000Y-118943000D03*
X133134000Y-132083000D03*
%TA.AperFunction,ComponentPad*%
G36*
G01*
X135219000Y-128263000D02*
X136469000Y-128263000D01*
G75*
G02*
X136844000Y-128638000I0J-375000D01*
G01*
X136844000Y-129388000D01*
G75*
G02*
X136469000Y-129763000I-375000J0D01*
G01*
X135219000Y-129763000D01*
G75*
G02*
X134844000Y-129388000I0J375000D01*
G01*
X134844000Y-128638000D01*
G75*
G02*
X135219000Y-128263000I375000J0D01*
G01*
G37*
%TD.AperFunction*%
%TO.N,Net-(R6-Pad1)*%
%TA.AperFunction,ComponentPad*%
G36*
G01*
X135219000Y-125763000D02*
X136469000Y-125763000D01*
G75*
G02*
X136844000Y-126138000I0J-375000D01*
G01*
X136844000Y-126888000D01*
G75*
G02*
X136469000Y-127263000I-375000J0D01*
G01*
X135219000Y-127263000D01*
G75*
G02*
X134844000Y-126888000I0J375000D01*
G01*
X134844000Y-126138000D01*
G75*
G02*
X135219000Y-125763000I375000J0D01*
G01*
G37*
%TD.AperFunction*%
%TO.N,Net-(R7-Pad1)*%
%TA.AperFunction,ComponentPad*%
G36*
G01*
X135219000Y-123763000D02*
X136469000Y-123763000D01*
G75*
G02*
X136844000Y-124138000I0J-375000D01*
G01*
X136844000Y-124888000D01*
G75*
G02*
X136469000Y-125263000I-375000J0D01*
G01*
X135219000Y-125263000D01*
G75*
G02*
X134844000Y-124888000I0J375000D01*
G01*
X134844000Y-124138000D01*
G75*
G02*
X135219000Y-123763000I375000J0D01*
G01*
G37*
%TD.AperFunction*%
%TO.N,Net-(U5-Pad5)*%
%TA.AperFunction,ComponentPad*%
G36*
G01*
X135219000Y-121263000D02*
X136469000Y-121263000D01*
G75*
G02*
X136844000Y-121638000I0J-375000D01*
G01*
X136844000Y-122388000D01*
G75*
G02*
X136469000Y-122763000I-375000J0D01*
G01*
X135219000Y-122763000D01*
G75*
G02*
X134844000Y-122388000I0J375000D01*
G01*
X134844000Y-121638000D01*
G75*
G02*
X135219000Y-121263000I375000J0D01*
G01*
G37*
%TD.AperFunction*%
%TD*%
D15*
%TO.N,FIRE_LATCH_SW*%
%TO.C,SW3*%
X101600000Y-104140000D03*
%TO.N,GND*%
X101600000Y-101600000D03*
D16*
%TO.N,FIRE_MOM_SW*%
X101600000Y-99060000D03*
%TD*%
D15*
%TO.N,GND*%
%TO.C,SW2*%
X229870000Y-101600000D03*
D16*
%TO.N,INTERLOCK_SW*%
X229870000Y-99060000D03*
%TD*%
D17*
%TO.N,GND*%
%TO.C,MCU1*%
X190500000Y-71120000D03*
%TO.N,INTERLOCK_SW*%
X193040000Y-71120000D03*
%TO.N,TEC_ENABLE*%
X195580000Y-71120000D03*
%TO.N,CS_TEC_SET*%
X198120000Y-71120000D03*
%TO.N,RST_LASER*%
X200660000Y-71120000D03*
%TO.N,SCK*%
X203200000Y-71120000D03*
%TO.N,MOSI*%
X205740000Y-71120000D03*
%TO.N,INTERLOCK_EN*%
X190500000Y-68580000D03*
%TO.N,CS_CHARGE*%
X193040000Y-68580000D03*
%TO.N,CS_TEC_READ*%
X195580000Y-68580000D03*
%TO.N,TMP_LASER*%
X198120000Y-68580000D03*
%TO.N,CS_LASER*%
X200660000Y-68580000D03*
%TO.N,MISO*%
X203200000Y-68580000D03*
%TO.N,+3V0*%
%TA.AperFunction,ComponentPad*%
G36*
G01*
X205140000Y-67730000D02*
X206340000Y-67730000D01*
G75*
G02*
X206590000Y-67980000I0J-250000D01*
G01*
X206590000Y-69180000D01*
G75*
G02*
X206340000Y-69430000I-250000J0D01*
G01*
X205140000Y-69430000D01*
G75*
G02*
X204890000Y-69180000I0J250000D01*
G01*
X204890000Y-67980000D01*
G75*
G02*
X205140000Y-67730000I250000J0D01*
G01*
G37*
%TD.AperFunction*%
%TD*%
D18*
%TO.N,RXD*%
%TO.C,ISP1*%
X186436000Y-86360000D03*
%TO.N,RESET*%
X186436000Y-84328000D03*
%TD*%
D11*
%TO.N,GND*%
%TO.C,DISP1*%
X158750000Y-120650000D03*
X161290000Y-120650000D03*
%TO.N,N/C*%
X163830000Y-120650000D03*
%TO.N,DISP_CS*%
X166370000Y-120650000D03*
%TO.N,DISP_RES*%
X168910000Y-120650000D03*
%TO.N,N/C*%
X171450000Y-120650000D03*
%TO.N,GND*%
X173990000Y-120650000D03*
X176530000Y-120650000D03*
X179070000Y-120650000D03*
X181610000Y-120650000D03*
D19*
X207010000Y-120650000D03*
D11*
%TO.N,+3V0*%
X204470000Y-120650000D03*
%TO.N,N/C*%
X201930000Y-120650000D03*
%TO.N,DISP_DC*%
X199390000Y-120650000D03*
%TO.N,GND*%
X196850000Y-120650000D03*
X194310000Y-120650000D03*
%TO.N,SCK*%
X191770000Y-120650000D03*
%TO.N,MOSI*%
X189230000Y-120650000D03*
%TO.N,N/C*%
X186690000Y-120650000D03*
%TO.N,GND*%
X184150000Y-120650000D03*
%TD*%
D20*
%TO.N,GND*%
X74295000Y-74930000D03*
X211455000Y-97155000D03*
X211455000Y-104775000D03*
X195072000Y-86360000D03*
X214884000Y-73152000D03*
X207518000Y-114300000D03*
X206502000Y-116840000D03*
X190500000Y-99060000D03*
X190500000Y-101600000D03*
X194564000Y-102108000D03*
X189230000Y-95250000D03*
X182880000Y-81915000D03*
X173990000Y-89535000D03*
X117540000Y-84328000D03*
X125160000Y-80264000D03*
X117540000Y-92456000D03*
X146170546Y-121414467D03*
X147955000Y-124369798D03*
X144800000Y-129520000D03*
X144145000Y-123190000D03*
X139700000Y-128905000D03*
X139700000Y-117475000D03*
X190881000Y-82550000D03*
X206756000Y-103632000D03*
%TO.N,+3V0*%
X207645000Y-104775000D03*
X214884000Y-68072000D03*
X202438000Y-114300000D03*
X202438000Y-116840000D03*
X194532000Y-99600000D03*
X200660000Y-112268000D03*
X194310000Y-95250000D03*
X179900500Y-82989500D03*
X171704000Y-81280000D03*
X125160000Y-84328000D03*
X146700000Y-129525000D03*
X147955000Y-121920000D03*
X191734721Y-83728276D03*
X206756000Y-101600000D03*
%TO.N,DISP_CS*%
X197612000Y-117348000D03*
%TO.N,DISP_RES*%
X199450500Y-107696000D03*
X196596000Y-118364000D03*
X196596000Y-107696000D03*
%TO.N,SCK*%
X203200000Y-80264000D03*
X194564000Y-103632000D03*
X196410000Y-97350000D03*
X189992000Y-88900000D03*
X177165000Y-80645000D03*
%TO.N,MOSI*%
X205740000Y-77724000D03*
X195580000Y-77724000D03*
X193040000Y-104902003D03*
X173355000Y-77470000D03*
X198120000Y-101600000D03*
%TO.N,MISO*%
X204440501Y-78740000D03*
X191896974Y-78740000D03*
X179070000Y-78740000D03*
X191928710Y-86868000D03*
X191897000Y-81280000D03*
%TO.N,RXD*%
X201850500Y-107696000D03*
X186436000Y-99547865D03*
%TO.N,TXD*%
X202692000Y-109728000D03*
X186436000Y-81108500D03*
X185356500Y-103568500D03*
%TO.N,RESET*%
X201060000Y-108604000D03*
%TO.N,TEC_ENABLE*%
X200660000Y-104140000D03*
X196850000Y-88265000D03*
%TO.N,CS_TEC_SET*%
X200660000Y-99060000D03*
X198120000Y-86995000D03*
%TO.N,RST_LASER*%
X200660000Y-84455000D03*
X200152000Y-102870000D03*
%TO.N,TMP_LASER*%
X202184008Y-99060000D03*
X199390000Y-85725000D03*
%TO.N,CS_LASER*%
X201900501Y-83155501D03*
X201908687Y-101875313D03*
%TO.N,LED_R*%
X203200000Y-104449998D03*
X208915004Y-74295000D03*
X205232000Y-89915984D03*
%TO.N,LED_G*%
X211455000Y-76835000D03*
%TO.N,LED_B*%
X210185000Y-75565000D03*
%TO.N,BUTTON_IRQ*%
X202184000Y-92456000D03*
X177800000Y-85852000D03*
%TO.N,CS_BUTTONS*%
X203708000Y-111252000D03*
X175895000Y-84455000D03*
%TO.N,Net-(R6-Pad1)*%
X139065014Y-121285000D03*
%TD*%
D21*
%TO.N,BUTTON_IRQ*%
X177800000Y-89408000D02*
X177800000Y-85852000D01*
X180848000Y-92456000D02*
X177800000Y-89408000D01*
X202184000Y-92456000D02*
X180848000Y-92456000D01*
%TD*%
D22*
%TO.N,+3V0*%
X231922249Y-61692437D02*
X232679774Y-61899672D01*
X233388625Y-62237777D01*
X234026404Y-62696067D01*
X234572946Y-63260055D01*
X235010977Y-63911913D01*
X235326651Y-64631038D01*
X235511206Y-65399768D01*
X235560000Y-66064207D01*
X235560001Y-132050597D01*
X235487563Y-132862249D01*
X235280328Y-133619774D01*
X234942221Y-134328627D01*
X234483928Y-134966410D01*
X233919945Y-135512946D01*
X233268085Y-135950978D01*
X232548963Y-136266651D01*
X231780232Y-136451206D01*
X231115792Y-136500000D01*
X57179392Y-136500000D01*
X56367751Y-136427563D01*
X55610226Y-136220328D01*
X54901373Y-135882221D01*
X54263590Y-135423928D01*
X53717054Y-134859945D01*
X53279022Y-134208085D01*
X52963349Y-133488963D01*
X52778794Y-132720232D01*
X52730000Y-132055792D01*
X52730000Y-130451984D01*
X56055000Y-130451984D01*
X56055000Y-131168016D01*
X56194691Y-131870290D01*
X56468705Y-132531818D01*
X56866511Y-133127177D01*
X57372823Y-133633489D01*
X57968182Y-134031295D01*
X58629710Y-134305309D01*
X59331984Y-134445000D01*
X60048016Y-134445000D01*
X60750290Y-134305309D01*
X61411818Y-134031295D01*
X62007177Y-133633489D01*
X62513489Y-133127177D01*
X62911295Y-132531818D01*
X63185309Y-131870290D01*
X63325000Y-131168016D01*
X63325000Y-130451984D01*
X63185309Y-129749710D01*
X62911295Y-129088182D01*
X62513489Y-128492823D01*
X62007177Y-127986511D01*
X61411818Y-127588705D01*
X60750290Y-127314691D01*
X60048016Y-127175000D01*
X59331984Y-127175000D01*
X58629710Y-127314691D01*
X57968182Y-127588705D01*
X57372823Y-127986511D01*
X56866511Y-128492823D01*
X56468705Y-129088182D01*
X56194691Y-129749710D01*
X56055000Y-130451984D01*
X52730000Y-130451984D01*
X52730000Y-118683475D01*
X130499000Y-118683475D01*
X130499000Y-119202525D01*
X130600261Y-119711601D01*
X130798893Y-120191141D01*
X131087262Y-120622715D01*
X131454285Y-120989738D01*
X131885859Y-121278107D01*
X132365399Y-121476739D01*
X132874475Y-121578000D01*
X133393525Y-121578000D01*
X133902601Y-121476739D01*
X134259160Y-121329047D01*
X134225394Y-121440359D01*
X134205928Y-121638000D01*
X134205928Y-122388000D01*
X134225394Y-122585641D01*
X134283044Y-122775686D01*
X134376661Y-122950833D01*
X134502650Y-123104350D01*
X134656167Y-123230339D01*
X134717272Y-123263000D01*
X134656167Y-123295661D01*
X134502650Y-123421650D01*
X134376661Y-123575167D01*
X134283044Y-123750314D01*
X134225394Y-123940359D01*
X134205928Y-124138000D01*
X134205928Y-124888000D01*
X134225394Y-125085641D01*
X134283044Y-125275686D01*
X134376661Y-125450833D01*
X134427680Y-125513000D01*
X134376661Y-125575167D01*
X134283044Y-125750314D01*
X134225394Y-125940359D01*
X134205928Y-126138000D01*
X134205928Y-126888000D01*
X134225394Y-127085641D01*
X134283044Y-127275686D01*
X134376661Y-127450833D01*
X134502650Y-127604350D01*
X134656167Y-127730339D01*
X134717272Y-127763000D01*
X134656167Y-127795661D01*
X134502650Y-127921650D01*
X134376661Y-128075167D01*
X134283044Y-128250314D01*
X134225394Y-128440359D01*
X134205928Y-128638000D01*
X134205928Y-129388000D01*
X134225394Y-129585641D01*
X134259160Y-129696953D01*
X133902601Y-129549261D01*
X133393525Y-129448000D01*
X132874475Y-129448000D01*
X132365399Y-129549261D01*
X131885859Y-129747893D01*
X131454285Y-130036262D01*
X131087262Y-130403285D01*
X130798893Y-130834859D01*
X130600261Y-131314399D01*
X130499000Y-131823475D01*
X130499000Y-132342525D01*
X130600261Y-132851601D01*
X130798893Y-133331141D01*
X131087262Y-133762715D01*
X131454285Y-134129738D01*
X131885859Y-134418107D01*
X132365399Y-134616739D01*
X132874475Y-134718000D01*
X133393525Y-134718000D01*
X133902601Y-134616739D01*
X134382141Y-134418107D01*
X134813715Y-134129738D01*
X135180738Y-133762715D01*
X135469107Y-133331141D01*
X135667739Y-132851601D01*
X135769000Y-132342525D01*
X135769000Y-131823475D01*
X135667739Y-131314399D01*
X135469107Y-130834859D01*
X135180738Y-130403285D01*
X135174103Y-130396650D01*
X135219000Y-130401072D01*
X136469000Y-130401072D01*
X136666641Y-130381606D01*
X136856686Y-130323956D01*
X137031833Y-130230339D01*
X137185350Y-130104350D01*
X137311339Y-129950833D01*
X137404956Y-129775686D01*
X137462606Y-129585641D01*
X137482072Y-129388000D01*
X137482072Y-128803061D01*
X138665000Y-128803061D01*
X138665000Y-129006939D01*
X138704774Y-129206898D01*
X138782795Y-129395256D01*
X138896063Y-129564774D01*
X139040226Y-129708937D01*
X139209744Y-129822205D01*
X139398102Y-129900226D01*
X139598061Y-129940000D01*
X139801939Y-129940000D01*
X140001898Y-129900226D01*
X140190256Y-129822205D01*
X140359774Y-129708937D01*
X140503937Y-129564774D01*
X140601967Y-129418061D01*
X143765000Y-129418061D01*
X143765000Y-129621939D01*
X143804774Y-129821898D01*
X143882795Y-130010256D01*
X143996063Y-130179774D01*
X144140226Y-130323937D01*
X144309744Y-130437205D01*
X144498102Y-130515226D01*
X144698061Y-130555000D01*
X144901939Y-130555000D01*
X145101898Y-130515226D01*
X145290256Y-130437205D01*
X145459774Y-130323937D01*
X145603937Y-130179774D01*
X145717205Y-130010256D01*
X145795226Y-129821898D01*
X145835000Y-129621939D01*
X145835000Y-129418061D01*
X145795226Y-129218102D01*
X145780266Y-129181984D01*
X224965000Y-129181984D01*
X224965000Y-129898016D01*
X225104691Y-130600290D01*
X225378705Y-131261818D01*
X225776511Y-131857177D01*
X226282823Y-132363489D01*
X226878182Y-132761295D01*
X227539710Y-133035309D01*
X228241984Y-133175000D01*
X228958016Y-133175000D01*
X229660290Y-133035309D01*
X230321818Y-132761295D01*
X230917177Y-132363489D01*
X231423489Y-131857177D01*
X231821295Y-131261818D01*
X232095309Y-130600290D01*
X232235000Y-129898016D01*
X232235000Y-129181984D01*
X232095309Y-128479710D01*
X231821295Y-127818182D01*
X231423489Y-127222823D01*
X230917177Y-126716511D01*
X230321818Y-126318705D01*
X229660290Y-126044691D01*
X228958016Y-125905000D01*
X228241984Y-125905000D01*
X227539710Y-126044691D01*
X226878182Y-126318705D01*
X226282823Y-126716511D01*
X225776511Y-127222823D01*
X225378705Y-127818182D01*
X225104691Y-128479710D01*
X224965000Y-129181984D01*
X145780266Y-129181984D01*
X145717205Y-129029744D01*
X145603937Y-128860226D01*
X145459774Y-128716063D01*
X145290256Y-128602795D01*
X145101898Y-128524774D01*
X144901939Y-128485000D01*
X144698061Y-128485000D01*
X144498102Y-128524774D01*
X144309744Y-128602795D01*
X144140226Y-128716063D01*
X143996063Y-128860226D01*
X143882795Y-129029744D01*
X143804774Y-129218102D01*
X143765000Y-129418061D01*
X140601967Y-129418061D01*
X140617205Y-129395256D01*
X140695226Y-129206898D01*
X140735000Y-129006939D01*
X140735000Y-128803061D01*
X140695226Y-128603102D01*
X140617205Y-128414744D01*
X140503937Y-128245226D01*
X140359774Y-128101063D01*
X140190256Y-127987795D01*
X140001898Y-127909774D01*
X139801939Y-127870000D01*
X139598061Y-127870000D01*
X139398102Y-127909774D01*
X139209744Y-127987795D01*
X139040226Y-128101063D01*
X138896063Y-128245226D01*
X138782795Y-128414744D01*
X138704774Y-128603102D01*
X138665000Y-128803061D01*
X137482072Y-128803061D01*
X137482072Y-128638000D01*
X137462606Y-128440359D01*
X137404956Y-128250314D01*
X137311339Y-128075167D01*
X137185350Y-127921650D01*
X137031833Y-127795661D01*
X136970728Y-127763000D01*
X137031833Y-127730339D01*
X137185350Y-127604350D01*
X137311339Y-127450833D01*
X137404956Y-127275686D01*
X137462606Y-127085641D01*
X137482072Y-126888000D01*
X137482072Y-126138000D01*
X137462606Y-125940359D01*
X137404956Y-125750314D01*
X137311339Y-125575167D01*
X137260320Y-125513000D01*
X137311339Y-125450833D01*
X137404956Y-125275686D01*
X137462606Y-125085641D01*
X137482072Y-124888000D01*
X137482072Y-124267859D01*
X146920000Y-124267859D01*
X146920000Y-124471737D01*
X146959774Y-124671696D01*
X147037795Y-124860054D01*
X147151063Y-125029572D01*
X147295226Y-125173735D01*
X147464744Y-125287003D01*
X147653102Y-125365024D01*
X147853061Y-125404798D01*
X148056939Y-125404798D01*
X148256898Y-125365024D01*
X148445256Y-125287003D01*
X148614774Y-125173735D01*
X148758937Y-125029572D01*
X148872205Y-124860054D01*
X148950226Y-124671696D01*
X148990000Y-124471737D01*
X148990000Y-124267859D01*
X148950226Y-124067900D01*
X148872205Y-123879542D01*
X148758937Y-123710024D01*
X148614774Y-123565861D01*
X148445256Y-123452593D01*
X148256898Y-123374572D01*
X148056939Y-123334798D01*
X147853061Y-123334798D01*
X147653102Y-123374572D01*
X147464744Y-123452593D01*
X147295226Y-123565861D01*
X147151063Y-123710024D01*
X147037795Y-123879542D01*
X146959774Y-124067900D01*
X146920000Y-124267859D01*
X137482072Y-124267859D01*
X137482072Y-124138000D01*
X137462606Y-123940359D01*
X137404956Y-123750314D01*
X137311339Y-123575167D01*
X137185350Y-123421650D01*
X137031833Y-123295661D01*
X136970728Y-123263000D01*
X137031833Y-123230339D01*
X137185350Y-123104350D01*
X137198718Y-123088061D01*
X143110000Y-123088061D01*
X143110000Y-123291939D01*
X143149774Y-123491898D01*
X143227795Y-123680256D01*
X143341063Y-123849774D01*
X143485226Y-123993937D01*
X143654744Y-124107205D01*
X143843102Y-124185226D01*
X144043061Y-124225000D01*
X144246939Y-124225000D01*
X144446898Y-124185226D01*
X144635256Y-124107205D01*
X144804774Y-123993937D01*
X144948937Y-123849774D01*
X145062205Y-123680256D01*
X145140226Y-123491898D01*
X145180000Y-123291939D01*
X145180000Y-123088061D01*
X145140226Y-122888102D01*
X145062205Y-122699744D01*
X144948937Y-122530226D01*
X144804774Y-122386063D01*
X144635256Y-122272795D01*
X144446898Y-122194774D01*
X144246939Y-122155000D01*
X144043061Y-122155000D01*
X143843102Y-122194774D01*
X143654744Y-122272795D01*
X143485226Y-122386063D01*
X143341063Y-122530226D01*
X143227795Y-122699744D01*
X143149774Y-122888102D01*
X143110000Y-123088061D01*
X137198718Y-123088061D01*
X137311339Y-122950833D01*
X137404956Y-122775686D01*
X137462606Y-122585641D01*
X137482072Y-122388000D01*
X137482072Y-121638000D01*
X137462606Y-121440359D01*
X137404956Y-121250314D01*
X137369009Y-121183061D01*
X138030014Y-121183061D01*
X138030014Y-121386939D01*
X138069788Y-121586898D01*
X138147809Y-121775256D01*
X138261077Y-121944774D01*
X138405240Y-122088937D01*
X138574758Y-122202205D01*
X138763116Y-122280226D01*
X138963075Y-122320000D01*
X139166953Y-122320000D01*
X139366912Y-122280226D01*
X139555270Y-122202205D01*
X139724788Y-122088937D01*
X139868951Y-121944774D01*
X139982219Y-121775256D01*
X140060240Y-121586898D01*
X140100014Y-121386939D01*
X140100014Y-121312528D01*
X145135546Y-121312528D01*
X145135546Y-121516406D01*
X145175320Y-121716365D01*
X145253341Y-121904723D01*
X145366609Y-122074241D01*
X145510772Y-122218404D01*
X145680290Y-122331672D01*
X145868648Y-122409693D01*
X146068607Y-122449467D01*
X146272485Y-122449467D01*
X146472444Y-122409693D01*
X146660802Y-122331672D01*
X146830320Y-122218404D01*
X146974483Y-122074241D01*
X147087751Y-121904723D01*
X147165772Y-121716365D01*
X147205546Y-121516406D01*
X147205546Y-121312528D01*
X147165772Y-121112569D01*
X147087751Y-120924211D01*
X146974483Y-120754693D01*
X146830320Y-120610530D01*
X146660802Y-120497262D01*
X146640777Y-120488967D01*
X157115000Y-120488967D01*
X157115000Y-120811033D01*
X157177832Y-121126912D01*
X157301082Y-121424463D01*
X157480013Y-121692252D01*
X157707748Y-121919987D01*
X157975537Y-122098918D01*
X158273088Y-122222168D01*
X158588967Y-122285000D01*
X158911033Y-122285000D01*
X159226912Y-122222168D01*
X159524463Y-122098918D01*
X159792252Y-121919987D01*
X160019987Y-121692252D01*
X160020000Y-121692233D01*
X160020013Y-121692252D01*
X160247748Y-121919987D01*
X160515537Y-122098918D01*
X160813088Y-122222168D01*
X161128967Y-122285000D01*
X161451033Y-122285000D01*
X161766912Y-122222168D01*
X162064463Y-122098918D01*
X162332252Y-121919987D01*
X162559987Y-121692252D01*
X162560000Y-121692233D01*
X162560013Y-121692252D01*
X162787748Y-121919987D01*
X163055537Y-122098918D01*
X163353088Y-122222168D01*
X163668967Y-122285000D01*
X163991033Y-122285000D01*
X164306912Y-122222168D01*
X164604463Y-122098918D01*
X164872252Y-121919987D01*
X165099987Y-121692252D01*
X165100000Y-121692233D01*
X165100013Y-121692252D01*
X165327748Y-121919987D01*
X165595537Y-122098918D01*
X165893088Y-122222168D01*
X166208967Y-122285000D01*
X166531033Y-122285000D01*
X166846912Y-122222168D01*
X167144463Y-122098918D01*
X167412252Y-121919987D01*
X167639987Y-121692252D01*
X167640000Y-121692233D01*
X167640013Y-121692252D01*
X167867748Y-121919987D01*
X168135537Y-122098918D01*
X168433088Y-122222168D01*
X168748967Y-122285000D01*
X169071033Y-122285000D01*
X169386912Y-122222168D01*
X169684463Y-122098918D01*
X169952252Y-121919987D01*
X170179987Y-121692252D01*
X170180000Y-121692233D01*
X170180013Y-121692252D01*
X170407748Y-121919987D01*
X170675537Y-122098918D01*
X170973088Y-122222168D01*
X171288967Y-122285000D01*
X171611033Y-122285000D01*
X171926912Y-122222168D01*
X172224463Y-122098918D01*
X172492252Y-121919987D01*
X172719987Y-121692252D01*
X172720000Y-121692233D01*
X172720013Y-121692252D01*
X172947748Y-121919987D01*
X173215537Y-122098918D01*
X173513088Y-122222168D01*
X173828967Y-122285000D01*
X174151033Y-122285000D01*
X174466912Y-122222168D01*
X174764463Y-122098918D01*
X175032252Y-121919987D01*
X175259987Y-121692252D01*
X175260000Y-121692233D01*
X175260013Y-121692252D01*
X175487748Y-121919987D01*
X175755537Y-122098918D01*
X176053088Y-122222168D01*
X176368967Y-122285000D01*
X176691033Y-122285000D01*
X177006912Y-122222168D01*
X177304463Y-122098918D01*
X177572252Y-121919987D01*
X177799987Y-121692252D01*
X177800000Y-121692233D01*
X177800013Y-121692252D01*
X178027748Y-121919987D01*
X178295537Y-122098918D01*
X178593088Y-122222168D01*
X178908967Y-122285000D01*
X179231033Y-122285000D01*
X179546912Y-122222168D01*
X179844463Y-122098918D01*
X180112252Y-121919987D01*
X180339987Y-121692252D01*
X180340000Y-121692233D01*
X180340013Y-121692252D01*
X180567748Y-121919987D01*
X180835537Y-122098918D01*
X181133088Y-122222168D01*
X181448967Y-122285000D01*
X181771033Y-122285000D01*
X182086912Y-122222168D01*
X182384463Y-122098918D01*
X182652252Y-121919987D01*
X182879987Y-121692252D01*
X182880000Y-121692233D01*
X182880013Y-121692252D01*
X183107748Y-121919987D01*
X183375537Y-122098918D01*
X183673088Y-122222168D01*
X183988967Y-122285000D01*
X184311033Y-122285000D01*
X184626912Y-122222168D01*
X184924463Y-122098918D01*
X185192252Y-121919987D01*
X185419987Y-121692252D01*
X185420000Y-121692233D01*
X185420013Y-121692252D01*
X185647748Y-121919987D01*
X185915537Y-122098918D01*
X186213088Y-122222168D01*
X186528967Y-122285000D01*
X186851033Y-122285000D01*
X187166912Y-122222168D01*
X187464463Y-122098918D01*
X187732252Y-121919987D01*
X187959987Y-121692252D01*
X187960000Y-121692233D01*
X187960013Y-121692252D01*
X188187748Y-121919987D01*
X188455537Y-122098918D01*
X188753088Y-122222168D01*
X189068967Y-122285000D01*
X189391033Y-122285000D01*
X189706912Y-122222168D01*
X190004463Y-122098918D01*
X190272252Y-121919987D01*
X190499987Y-121692252D01*
X190500000Y-121692233D01*
X190500013Y-121692252D01*
X190727748Y-121919987D01*
X190995537Y-122098918D01*
X191293088Y-122222168D01*
X191608967Y-122285000D01*
X191931033Y-122285000D01*
X192246912Y-122222168D01*
X192544463Y-122098918D01*
X192812252Y-121919987D01*
X193039987Y-121692252D01*
X193040000Y-121692233D01*
X193040013Y-121692252D01*
X193267748Y-121919987D01*
X193535537Y-122098918D01*
X193833088Y-122222168D01*
X194148967Y-122285000D01*
X194471033Y-122285000D01*
X194786912Y-122222168D01*
X195084463Y-122098918D01*
X195352252Y-121919987D01*
X195579987Y-121692252D01*
X195580000Y-121692233D01*
X195580013Y-121692252D01*
X195807748Y-121919987D01*
X196075537Y-122098918D01*
X196373088Y-122222168D01*
X196688967Y-122285000D01*
X197011033Y-122285000D01*
X197326912Y-122222168D01*
X197624463Y-122098918D01*
X197892252Y-121919987D01*
X198119987Y-121692252D01*
X198120000Y-121692233D01*
X198120013Y-121692252D01*
X198347748Y-121919987D01*
X198615537Y-122098918D01*
X198913088Y-122222168D01*
X199228967Y-122285000D01*
X199551033Y-122285000D01*
X199866912Y-122222168D01*
X200164463Y-122098918D01*
X200432252Y-121919987D01*
X200659987Y-121692252D01*
X200660000Y-121692233D01*
X200660013Y-121692252D01*
X200887748Y-121919987D01*
X201155537Y-122098918D01*
X201453088Y-122222168D01*
X201768967Y-122285000D01*
X202091033Y-122285000D01*
X202406912Y-122222168D01*
X202704463Y-122098918D01*
X202972252Y-121919987D01*
X203199987Y-121692252D01*
X203272720Y-121583400D01*
X203334587Y-121605808D01*
X204290395Y-120650000D01*
X203334587Y-119694192D01*
X203272720Y-119716600D01*
X203199987Y-119607748D01*
X203106826Y-119514587D01*
X203514192Y-119514587D01*
X204470000Y-120470395D01*
X204484143Y-120456253D01*
X204663748Y-120635858D01*
X204649605Y-120650000D01*
X204663748Y-120664143D01*
X204484143Y-120843748D01*
X204470000Y-120829605D01*
X203514192Y-121785413D01*
X203609956Y-122049814D01*
X203899571Y-122190704D01*
X204211108Y-122272384D01*
X204532595Y-122291718D01*
X204851675Y-122247961D01*
X205156088Y-122142795D01*
X205330044Y-122049814D01*
X205404963Y-121842967D01*
X205420498Y-121894180D01*
X205479463Y-122004494D01*
X205558815Y-122101185D01*
X205655506Y-122180537D01*
X205765820Y-122239502D01*
X205885518Y-122275812D01*
X206010000Y-122288072D01*
X208010000Y-122288072D01*
X208134482Y-122275812D01*
X208254180Y-122239502D01*
X208364494Y-122180537D01*
X208461185Y-122101185D01*
X208540537Y-122004494D01*
X208599502Y-121894180D01*
X208635812Y-121774482D01*
X208648072Y-121650000D01*
X208648072Y-119650000D01*
X208635812Y-119525518D01*
X208599502Y-119405820D01*
X208540537Y-119295506D01*
X208461185Y-119198815D01*
X208364494Y-119119463D01*
X208254180Y-119060498D01*
X208134482Y-119024188D01*
X208010000Y-119011928D01*
X206010000Y-119011928D01*
X205885518Y-119024188D01*
X205765820Y-119060498D01*
X205655506Y-119119463D01*
X205558815Y-119198815D01*
X205479463Y-119295506D01*
X205420498Y-119405820D01*
X205404963Y-119457033D01*
X205330044Y-119250186D01*
X205040429Y-119109296D01*
X204728892Y-119027616D01*
X204407405Y-119008282D01*
X204088325Y-119052039D01*
X203783912Y-119157205D01*
X203609956Y-119250186D01*
X203514192Y-119514587D01*
X203106826Y-119514587D01*
X202972252Y-119380013D01*
X202704463Y-119201082D01*
X202406912Y-119077832D01*
X202091033Y-119015000D01*
X201768967Y-119015000D01*
X201453088Y-119077832D01*
X201155537Y-119201082D01*
X200887748Y-119380013D01*
X200660013Y-119607748D01*
X200660000Y-119607767D01*
X200659987Y-119607748D01*
X200432252Y-119380013D01*
X200164463Y-119201082D01*
X199866912Y-119077832D01*
X199551033Y-119015000D01*
X199228967Y-119015000D01*
X198913088Y-119077832D01*
X198615537Y-119201082D01*
X198347748Y-119380013D01*
X198120013Y-119607748D01*
X198120000Y-119607767D01*
X198119987Y-119607748D01*
X197892252Y-119380013D01*
X197624463Y-119201082D01*
X197340324Y-119083387D01*
X197399937Y-119023774D01*
X197513205Y-118854256D01*
X197591226Y-118665898D01*
X197631000Y-118465939D01*
X197631000Y-118383000D01*
X197713939Y-118383000D01*
X197913898Y-118343226D01*
X198102256Y-118265205D01*
X198271774Y-118151937D01*
X198415937Y-118007774D01*
X198529205Y-117838256D01*
X198607226Y-117649898D01*
X198647000Y-117449939D01*
X198647000Y-117246061D01*
X198607226Y-117046102D01*
X198529205Y-116857744D01*
X198449236Y-116738061D01*
X205467000Y-116738061D01*
X205467000Y-116941939D01*
X205506774Y-117141898D01*
X205584795Y-117330256D01*
X205698063Y-117499774D01*
X205842226Y-117643937D01*
X206011744Y-117757205D01*
X206200102Y-117835226D01*
X206400061Y-117875000D01*
X206603939Y-117875000D01*
X206803898Y-117835226D01*
X206992256Y-117757205D01*
X207161774Y-117643937D01*
X207305937Y-117499774D01*
X207419205Y-117330256D01*
X207497226Y-117141898D01*
X207537000Y-116941939D01*
X207537000Y-116738061D01*
X207497226Y-116538102D01*
X207419205Y-116349744D01*
X207305937Y-116180226D01*
X207161774Y-116036063D01*
X206992256Y-115922795D01*
X206803898Y-115844774D01*
X206603939Y-115805000D01*
X206400061Y-115805000D01*
X206200102Y-115844774D01*
X206011744Y-115922795D01*
X205842226Y-116036063D01*
X205698063Y-116180226D01*
X205584795Y-116349744D01*
X205506774Y-116538102D01*
X205467000Y-116738061D01*
X198449236Y-116738061D01*
X198415937Y-116688226D01*
X198271774Y-116544063D01*
X198102256Y-116430795D01*
X197913898Y-116352774D01*
X197713939Y-116313000D01*
X197510061Y-116313000D01*
X197310102Y-116352774D01*
X197121744Y-116430795D01*
X196952226Y-116544063D01*
X196808063Y-116688226D01*
X196694795Y-116857744D01*
X196616774Y-117046102D01*
X196577000Y-117246061D01*
X196577000Y-117329000D01*
X196494061Y-117329000D01*
X196294102Y-117368774D01*
X196105744Y-117446795D01*
X195936226Y-117560063D01*
X195792063Y-117704226D01*
X195678795Y-117873744D01*
X195600774Y-118062102D01*
X195561000Y-118262061D01*
X195561000Y-118465939D01*
X195600774Y-118665898D01*
X195678795Y-118854256D01*
X195792063Y-119023774D01*
X195936226Y-119167937D01*
X196030684Y-119231052D01*
X195807748Y-119380013D01*
X195580013Y-119607748D01*
X195580000Y-119607767D01*
X195579987Y-119607748D01*
X195352252Y-119380013D01*
X195084463Y-119201082D01*
X194786912Y-119077832D01*
X194471033Y-119015000D01*
X194148967Y-119015000D01*
X193833088Y-119077832D01*
X193535537Y-119201082D01*
X193267748Y-119380013D01*
X193040013Y-119607748D01*
X193040000Y-119607767D01*
X193039987Y-119607748D01*
X192812252Y-119380013D01*
X192544463Y-119201082D01*
X192246912Y-119077832D01*
X191931033Y-119015000D01*
X191608967Y-119015000D01*
X191293088Y-119077832D01*
X190995537Y-119201082D01*
X190727748Y-119380013D01*
X190500013Y-119607748D01*
X190500000Y-119607767D01*
X190499987Y-119607748D01*
X190272252Y-119380013D01*
X190004463Y-119201082D01*
X189706912Y-119077832D01*
X189391033Y-119015000D01*
X189068967Y-119015000D01*
X188753088Y-119077832D01*
X188455537Y-119201082D01*
X188187748Y-119380013D01*
X187960013Y-119607748D01*
X187960000Y-119607767D01*
X187959987Y-119607748D01*
X187732252Y-119380013D01*
X187464463Y-119201082D01*
X187166912Y-119077832D01*
X186851033Y-119015000D01*
X186528967Y-119015000D01*
X186213088Y-119077832D01*
X185915537Y-119201082D01*
X185647748Y-119380013D01*
X185420013Y-119607748D01*
X185420000Y-119607767D01*
X185419987Y-119607748D01*
X185192252Y-119380013D01*
X184924463Y-119201082D01*
X184626912Y-119077832D01*
X184311033Y-119015000D01*
X183988967Y-119015000D01*
X183673088Y-119077832D01*
X183375537Y-119201082D01*
X183107748Y-119380013D01*
X182880013Y-119607748D01*
X182880000Y-119607767D01*
X182879987Y-119607748D01*
X182652252Y-119380013D01*
X182384463Y-119201082D01*
X182086912Y-119077832D01*
X181771033Y-119015000D01*
X181448967Y-119015000D01*
X181133088Y-119077832D01*
X180835537Y-119201082D01*
X180567748Y-119380013D01*
X180340013Y-119607748D01*
X180340000Y-119607767D01*
X180339987Y-119607748D01*
X180112252Y-119380013D01*
X179844463Y-119201082D01*
X179546912Y-119077832D01*
X179231033Y-119015000D01*
X178908967Y-119015000D01*
X178593088Y-119077832D01*
X178295537Y-119201082D01*
X178027748Y-119380013D01*
X177800013Y-119607748D01*
X177800000Y-119607767D01*
X177799987Y-119607748D01*
X177572252Y-119380013D01*
X177304463Y-119201082D01*
X177006912Y-119077832D01*
X176691033Y-119015000D01*
X176368967Y-119015000D01*
X176053088Y-119077832D01*
X175755537Y-119201082D01*
X175487748Y-119380013D01*
X175260013Y-119607748D01*
X175260000Y-119607767D01*
X175259987Y-119607748D01*
X175032252Y-119380013D01*
X174764463Y-119201082D01*
X174466912Y-119077832D01*
X174151033Y-119015000D01*
X173828967Y-119015000D01*
X173513088Y-119077832D01*
X173215537Y-119201082D01*
X172947748Y-119380013D01*
X172720013Y-119607748D01*
X172720000Y-119607767D01*
X172719987Y-119607748D01*
X172492252Y-119380013D01*
X172224463Y-119201082D01*
X171926912Y-119077832D01*
X171611033Y-119015000D01*
X171288967Y-119015000D01*
X170973088Y-119077832D01*
X170675537Y-119201082D01*
X170407748Y-119380013D01*
X170180013Y-119607748D01*
X170180000Y-119607767D01*
X170179987Y-119607748D01*
X169952252Y-119380013D01*
X169684463Y-119201082D01*
X169386912Y-119077832D01*
X169071033Y-119015000D01*
X168748967Y-119015000D01*
X168433088Y-119077832D01*
X168135537Y-119201082D01*
X167867748Y-119380013D01*
X167640013Y-119607748D01*
X167640000Y-119607767D01*
X167639987Y-119607748D01*
X167412252Y-119380013D01*
X167144463Y-119201082D01*
X166846912Y-119077832D01*
X166531033Y-119015000D01*
X166208967Y-119015000D01*
X165893088Y-119077832D01*
X165595537Y-119201082D01*
X165327748Y-119380013D01*
X165100013Y-119607748D01*
X165100000Y-119607767D01*
X165099987Y-119607748D01*
X164872252Y-119380013D01*
X164604463Y-119201082D01*
X164306912Y-119077832D01*
X163991033Y-119015000D01*
X163668967Y-119015000D01*
X163353088Y-119077832D01*
X163055537Y-119201082D01*
X162787748Y-119380013D01*
X162560013Y-119607748D01*
X162560000Y-119607767D01*
X162559987Y-119607748D01*
X162332252Y-119380013D01*
X162064463Y-119201082D01*
X161766912Y-119077832D01*
X161451033Y-119015000D01*
X161128967Y-119015000D01*
X160813088Y-119077832D01*
X160515537Y-119201082D01*
X160247748Y-119380013D01*
X160020013Y-119607748D01*
X160020000Y-119607767D01*
X160019987Y-119607748D01*
X159792252Y-119380013D01*
X159524463Y-119201082D01*
X159226912Y-119077832D01*
X158911033Y-119015000D01*
X158588967Y-119015000D01*
X158273088Y-119077832D01*
X157975537Y-119201082D01*
X157707748Y-119380013D01*
X157480013Y-119607748D01*
X157301082Y-119875537D01*
X157177832Y-120173088D01*
X157115000Y-120488967D01*
X146640777Y-120488967D01*
X146472444Y-120419241D01*
X146272485Y-120379467D01*
X146068607Y-120379467D01*
X145868648Y-120419241D01*
X145680290Y-120497262D01*
X145510772Y-120610530D01*
X145366609Y-120754693D01*
X145253341Y-120924211D01*
X145175320Y-121112569D01*
X145135546Y-121312528D01*
X140100014Y-121312528D01*
X140100014Y-121183061D01*
X140060240Y-120983102D01*
X139982219Y-120794744D01*
X139868951Y-120625226D01*
X139724788Y-120481063D01*
X139555270Y-120367795D01*
X139366912Y-120289774D01*
X139166953Y-120250000D01*
X138963075Y-120250000D01*
X138763116Y-120289774D01*
X138574758Y-120367795D01*
X138405240Y-120481063D01*
X138261077Y-120625226D01*
X138147809Y-120794744D01*
X138069788Y-120983102D01*
X138030014Y-121183061D01*
X137369009Y-121183061D01*
X137311339Y-121075167D01*
X137185350Y-120921650D01*
X137031833Y-120795661D01*
X136856686Y-120702044D01*
X136666641Y-120644394D01*
X136469000Y-120624928D01*
X135219000Y-120624928D01*
X135174103Y-120629350D01*
X135180738Y-120622715D01*
X135469107Y-120191141D01*
X135667739Y-119711601D01*
X135769000Y-119202525D01*
X135769000Y-118683475D01*
X135667739Y-118174399D01*
X135469107Y-117694859D01*
X135254089Y-117373061D01*
X138665000Y-117373061D01*
X138665000Y-117576939D01*
X138704774Y-117776898D01*
X138782795Y-117965256D01*
X138896063Y-118134774D01*
X139040226Y-118278937D01*
X139209744Y-118392205D01*
X139398102Y-118470226D01*
X139598061Y-118510000D01*
X139801939Y-118510000D01*
X140001898Y-118470226D01*
X140190256Y-118392205D01*
X140359774Y-118278937D01*
X140503937Y-118134774D01*
X140617205Y-117965256D01*
X140695226Y-117776898D01*
X140735000Y-117576939D01*
X140735000Y-117373061D01*
X140695226Y-117173102D01*
X140617205Y-116984744D01*
X140503937Y-116815226D01*
X140359774Y-116671063D01*
X140190256Y-116557795D01*
X140001898Y-116479774D01*
X139801939Y-116440000D01*
X139598061Y-116440000D01*
X139398102Y-116479774D01*
X139209744Y-116557795D01*
X139040226Y-116671063D01*
X138896063Y-116815226D01*
X138782795Y-116984744D01*
X138704774Y-117173102D01*
X138665000Y-117373061D01*
X135254089Y-117373061D01*
X135180738Y-117263285D01*
X134813715Y-116896262D01*
X134382141Y-116607893D01*
X133902601Y-116409261D01*
X133393525Y-116308000D01*
X132874475Y-116308000D01*
X132365399Y-116409261D01*
X131885859Y-116607893D01*
X131454285Y-116896262D01*
X131087262Y-117263285D01*
X130798893Y-117694859D01*
X130600261Y-118174399D01*
X130499000Y-118683475D01*
X52730000Y-118683475D01*
X52730000Y-101600000D01*
X60280000Y-101600000D01*
X60364378Y-103236910D01*
X60616617Y-104856469D01*
X61034045Y-106441508D01*
X61612235Y-107975226D01*
X62345059Y-109441365D01*
X63224749Y-110824384D01*
X64241980Y-112109622D01*
X65385968Y-113283455D01*
X66644589Y-114333441D01*
X68004499Y-115248449D01*
X69451283Y-116018780D01*
X70969605Y-116636269D01*
X72543371Y-117094369D01*
X74155898Y-117388225D01*
X75790093Y-117514722D01*
X77428633Y-117472519D01*
X79054150Y-117262063D01*
X80649411Y-116885586D01*
X82197508Y-116347078D01*
X83682030Y-115652246D01*
X85087240Y-114808458D01*
X85900648Y-114198061D01*
X206483000Y-114198061D01*
X206483000Y-114401939D01*
X206522774Y-114601898D01*
X206600795Y-114790256D01*
X206714063Y-114959774D01*
X206858226Y-115103937D01*
X207027744Y-115217205D01*
X207216102Y-115295226D01*
X207416061Y-115335000D01*
X207619939Y-115335000D01*
X207819898Y-115295226D01*
X208008256Y-115217205D01*
X208177774Y-115103937D01*
X208321937Y-114959774D01*
X208435205Y-114790256D01*
X208513226Y-114601898D01*
X208553000Y-114401939D01*
X208553000Y-114198061D01*
X208513226Y-113998102D01*
X208435205Y-113809744D01*
X208321937Y-113640226D01*
X208177774Y-113496063D01*
X208008256Y-113382795D01*
X207819898Y-113304774D01*
X207619939Y-113265000D01*
X207416061Y-113265000D01*
X207216102Y-113304774D01*
X207027744Y-113382795D01*
X206858226Y-113496063D01*
X206714063Y-113640226D01*
X206600795Y-113809744D01*
X206522774Y-113998102D01*
X206483000Y-114198061D01*
X85900648Y-114198061D01*
X86398243Y-113824657D01*
X87601143Y-112711271D01*
X88683187Y-111480103D01*
X89632907Y-110144203D01*
X90315024Y-108938967D01*
X112705000Y-108938967D01*
X112705000Y-109261033D01*
X112767832Y-109576912D01*
X112891082Y-109874463D01*
X113070013Y-110142252D01*
X113297748Y-110369987D01*
X113565537Y-110548918D01*
X113863088Y-110672168D01*
X114178967Y-110735000D01*
X114501033Y-110735000D01*
X114816912Y-110672168D01*
X115114463Y-110548918D01*
X115382252Y-110369987D01*
X115590000Y-110162239D01*
X115797748Y-110369987D01*
X116065537Y-110548918D01*
X116363088Y-110672168D01*
X116678967Y-110735000D01*
X117001033Y-110735000D01*
X117316912Y-110672168D01*
X117614463Y-110548918D01*
X117882252Y-110369987D01*
X118090000Y-110162239D01*
X118297748Y-110369987D01*
X118565537Y-110548918D01*
X118863088Y-110672168D01*
X119178967Y-110735000D01*
X119501033Y-110735000D01*
X119816912Y-110672168D01*
X120114463Y-110548918D01*
X120382252Y-110369987D01*
X120609987Y-110142252D01*
X120788918Y-109874463D01*
X120912168Y-109576912D01*
X120975000Y-109261033D01*
X120975000Y-108938967D01*
X120912168Y-108623088D01*
X120788918Y-108325537D01*
X120609987Y-108057748D01*
X120382252Y-107830013D01*
X120114463Y-107651082D01*
X119976803Y-107594061D01*
X195561000Y-107594061D01*
X195561000Y-107797939D01*
X195600774Y-107997898D01*
X195678795Y-108186256D01*
X195792063Y-108355774D01*
X195936226Y-108499937D01*
X196105744Y-108613205D01*
X196294102Y-108691226D01*
X196494061Y-108731000D01*
X196697939Y-108731000D01*
X196897898Y-108691226D01*
X197086256Y-108613205D01*
X197255774Y-108499937D01*
X197399937Y-108355774D01*
X197513205Y-108186256D01*
X197591226Y-107997898D01*
X197631000Y-107797939D01*
X197631000Y-107594061D01*
X198415500Y-107594061D01*
X198415500Y-107797939D01*
X198455274Y-107997898D01*
X198533295Y-108186256D01*
X198646563Y-108355774D01*
X198790726Y-108499937D01*
X198960244Y-108613205D01*
X199148602Y-108691226D01*
X199348561Y-108731000D01*
X199552439Y-108731000D01*
X199752398Y-108691226D01*
X199940756Y-108613205D01*
X200025000Y-108556915D01*
X200025000Y-108705939D01*
X200064774Y-108905898D01*
X200142795Y-109094256D01*
X200256063Y-109263774D01*
X200400226Y-109407937D01*
X200569744Y-109521205D01*
X200758102Y-109599226D01*
X200958061Y-109639000D01*
X201161939Y-109639000D01*
X201361898Y-109599226D01*
X201550256Y-109521205D01*
X201698376Y-109422235D01*
X201696774Y-109426102D01*
X201657000Y-109626061D01*
X201657000Y-109829939D01*
X201696774Y-110029898D01*
X201774795Y-110218256D01*
X201888063Y-110387774D01*
X202032226Y-110531937D01*
X202201744Y-110645205D01*
X202390102Y-110723226D01*
X202590061Y-110763000D01*
X202790275Y-110763000D01*
X202712774Y-110950102D01*
X202673000Y-111150061D01*
X202673000Y-111353939D01*
X202712774Y-111553898D01*
X202790795Y-111742256D01*
X202904063Y-111911774D01*
X203048226Y-112055937D01*
X203217744Y-112169205D01*
X203406102Y-112247226D01*
X203606061Y-112287000D01*
X203809939Y-112287000D01*
X204009898Y-112247226D01*
X204198256Y-112169205D01*
X204367774Y-112055937D01*
X204511937Y-111911774D01*
X204625205Y-111742256D01*
X204703226Y-111553898D01*
X204743000Y-111353939D01*
X204743000Y-111150061D01*
X204703226Y-110950102D01*
X204625205Y-110761744D01*
X204511937Y-110592226D01*
X204367774Y-110448063D01*
X204198256Y-110334795D01*
X204009898Y-110256774D01*
X203809939Y-110217000D01*
X203609725Y-110217000D01*
X203687226Y-110029898D01*
X203727000Y-109829939D01*
X203727000Y-109626061D01*
X203687226Y-109426102D01*
X203609205Y-109237744D01*
X203495937Y-109068226D01*
X203351774Y-108924063D01*
X203182256Y-108810795D01*
X202993898Y-108732774D01*
X202793939Y-108693000D01*
X202590061Y-108693000D01*
X202390102Y-108732774D01*
X202201744Y-108810795D01*
X202053624Y-108909765D01*
X202055226Y-108905898D01*
X202095000Y-108705939D01*
X202095000Y-108702643D01*
X202152398Y-108691226D01*
X202340756Y-108613205D01*
X202510274Y-108499937D01*
X202654437Y-108355774D01*
X202767705Y-108186256D01*
X202845726Y-107997898D01*
X202885500Y-107797939D01*
X202885500Y-107594061D01*
X202845726Y-107394102D01*
X202767705Y-107205744D01*
X202654437Y-107036226D01*
X202510274Y-106892063D01*
X202340756Y-106778795D01*
X202152398Y-106700774D01*
X201952439Y-106661000D01*
X201748561Y-106661000D01*
X201548602Y-106700774D01*
X201360244Y-106778795D01*
X201190726Y-106892063D01*
X201046563Y-107036226D01*
X200933295Y-107205744D01*
X200855274Y-107394102D01*
X200815500Y-107594061D01*
X200815500Y-107597357D01*
X200758102Y-107608774D01*
X200569744Y-107686795D01*
X200485500Y-107743085D01*
X200485500Y-107594061D01*
X200445726Y-107394102D01*
X200367705Y-107205744D01*
X200254437Y-107036226D01*
X200110274Y-106892063D01*
X199940756Y-106778795D01*
X199752398Y-106700774D01*
X199552439Y-106661000D01*
X199348561Y-106661000D01*
X199148602Y-106700774D01*
X198960244Y-106778795D01*
X198790726Y-106892063D01*
X198646563Y-107036226D01*
X198533295Y-107205744D01*
X198455274Y-107394102D01*
X198415500Y-107594061D01*
X197631000Y-107594061D01*
X197591226Y-107394102D01*
X197513205Y-107205744D01*
X197399937Y-107036226D01*
X197255774Y-106892063D01*
X197086256Y-106778795D01*
X196897898Y-106700774D01*
X196697939Y-106661000D01*
X196494061Y-106661000D01*
X196294102Y-106700774D01*
X196105744Y-106778795D01*
X195936226Y-106892063D01*
X195792063Y-107036226D01*
X195678795Y-107205744D01*
X195600774Y-107394102D01*
X195561000Y-107594061D01*
X119976803Y-107594061D01*
X119816912Y-107527832D01*
X119501033Y-107465000D01*
X119178967Y-107465000D01*
X118863088Y-107527832D01*
X118565537Y-107651082D01*
X118297748Y-107830013D01*
X118090000Y-108037761D01*
X117882252Y-107830013D01*
X117614463Y-107651082D01*
X117316912Y-107527832D01*
X117001033Y-107465000D01*
X116678967Y-107465000D01*
X116363088Y-107527832D01*
X116065537Y-107651082D01*
X115797748Y-107830013D01*
X115590000Y-108037761D01*
X115382252Y-107830013D01*
X115114463Y-107651082D01*
X114816912Y-107527832D01*
X114501033Y-107465000D01*
X114178967Y-107465000D01*
X113863088Y-107527832D01*
X113565537Y-107651082D01*
X113297748Y-107830013D01*
X113070013Y-108057748D01*
X112891082Y-108325537D01*
X112767832Y-108623088D01*
X112705000Y-108938967D01*
X90315024Y-108938967D01*
X90440234Y-108717733D01*
X91096612Y-107215813D01*
X91595081Y-105654364D01*
X91930359Y-104049938D01*
X92098892Y-102419542D01*
X92098892Y-100780458D01*
X91930359Y-99150062D01*
X91733914Y-98210000D01*
X100111928Y-98210000D01*
X100111928Y-99910000D01*
X100124188Y-100034482D01*
X100160498Y-100154180D01*
X100219463Y-100264494D01*
X100298815Y-100361185D01*
X100395506Y-100440537D01*
X100505820Y-100499502D01*
X100578380Y-100521513D01*
X100446525Y-100653368D01*
X100284010Y-100896589D01*
X100172068Y-101166842D01*
X100115000Y-101453740D01*
X100115000Y-101746260D01*
X100172068Y-102033158D01*
X100284010Y-102303411D01*
X100446525Y-102546632D01*
X100653368Y-102753475D01*
X100827760Y-102870000D01*
X100653368Y-102986525D01*
X100446525Y-103193368D01*
X100284010Y-103436589D01*
X100172068Y-103706842D01*
X100115000Y-103993740D01*
X100115000Y-104286260D01*
X100172068Y-104573158D01*
X100284010Y-104843411D01*
X100446525Y-105086632D01*
X100653368Y-105293475D01*
X100896589Y-105455990D01*
X101166842Y-105567932D01*
X101453740Y-105625000D01*
X101746260Y-105625000D01*
X102033158Y-105567932D01*
X102303411Y-105455990D01*
X102546632Y-105293475D01*
X102753475Y-105086632D01*
X102915990Y-104843411D01*
X103027932Y-104573158D01*
X103085000Y-104286260D01*
X103085000Y-103993740D01*
X103027932Y-103706842D01*
X102915990Y-103436589D01*
X102753475Y-103193368D01*
X102546632Y-102986525D01*
X102372240Y-102870000D01*
X102546632Y-102753475D01*
X102753475Y-102546632D01*
X102915990Y-102303411D01*
X103027932Y-102033158D01*
X103085000Y-101746260D01*
X103085000Y-101453740D01*
X103027932Y-101166842D01*
X102915990Y-100896589D01*
X102753475Y-100653368D01*
X102621620Y-100521513D01*
X102694180Y-100499502D01*
X102804494Y-100440537D01*
X102901185Y-100361185D01*
X102980537Y-100264494D01*
X103039502Y-100154180D01*
X103075812Y-100034482D01*
X103082107Y-99970558D01*
X109655000Y-99970558D01*
X109655000Y-103229441D01*
X109693127Y-103616549D01*
X109843799Y-104113249D01*
X110088477Y-104571010D01*
X110417759Y-104972241D01*
X110818989Y-105301523D01*
X111276750Y-105546201D01*
X111773450Y-105696873D01*
X112290000Y-105747749D01*
X112806549Y-105696873D01*
X113303249Y-105546201D01*
X113761010Y-105301523D01*
X114162241Y-104972241D01*
X114491523Y-104571011D01*
X114736201Y-104113250D01*
X114886873Y-103616550D01*
X114925000Y-103229442D01*
X114925000Y-102555804D01*
X114947988Y-102611302D01*
X115181637Y-102960983D01*
X115479017Y-103258363D01*
X115828698Y-103492012D01*
X116217244Y-103652953D01*
X116629721Y-103735000D01*
X117050279Y-103735000D01*
X117462756Y-103652953D01*
X117851302Y-103492012D01*
X118200983Y-103258363D01*
X118498363Y-102960983D01*
X118732012Y-102611302D01*
X118755000Y-102555804D01*
X118755000Y-103229441D01*
X118793127Y-103616549D01*
X118943799Y-104113249D01*
X119188477Y-104571010D01*
X119517759Y-104972241D01*
X119918989Y-105301523D01*
X120376750Y-105546201D01*
X120873450Y-105696873D01*
X121390000Y-105747749D01*
X121906549Y-105696873D01*
X122403249Y-105546201D01*
X122861010Y-105301523D01*
X123262241Y-104972241D01*
X123403543Y-104800064D01*
X192005000Y-104800064D01*
X192005000Y-105003942D01*
X192044774Y-105203901D01*
X192122795Y-105392259D01*
X192236063Y-105561777D01*
X192380226Y-105705940D01*
X192549744Y-105819208D01*
X192738102Y-105897229D01*
X192938061Y-105937003D01*
X193141939Y-105937003D01*
X193341898Y-105897229D01*
X193530256Y-105819208D01*
X193699774Y-105705940D01*
X193843937Y-105561777D01*
X193957205Y-105392259D01*
X194035226Y-105203901D01*
X194075000Y-105003942D01*
X194075000Y-104800064D01*
X194035226Y-104600105D01*
X193991334Y-104494140D01*
X194073744Y-104549205D01*
X194262102Y-104627226D01*
X194462061Y-104667000D01*
X194665939Y-104667000D01*
X194865898Y-104627226D01*
X195054256Y-104549205D01*
X195223774Y-104435937D01*
X195367937Y-104291774D01*
X195481205Y-104122256D01*
X195559226Y-103933898D01*
X195599000Y-103733939D01*
X195599000Y-103530061D01*
X195559226Y-103330102D01*
X195481205Y-103141744D01*
X195367937Y-102972226D01*
X195265711Y-102870000D01*
X195367650Y-102768061D01*
X199117000Y-102768061D01*
X199117000Y-102971939D01*
X199156774Y-103171898D01*
X199234795Y-103360256D01*
X199348063Y-103529774D01*
X199492226Y-103673937D01*
X199661744Y-103787205D01*
X199682325Y-103795730D01*
X199664774Y-103838102D01*
X199625000Y-104038061D01*
X199625000Y-104241939D01*
X199664774Y-104441898D01*
X199742795Y-104630256D01*
X199856063Y-104799774D01*
X200000226Y-104943937D01*
X200169744Y-105057205D01*
X200358102Y-105135226D01*
X200558061Y-105175000D01*
X200761939Y-105175000D01*
X200961898Y-105135226D01*
X201150256Y-105057205D01*
X201319774Y-104943937D01*
X201463937Y-104799774D01*
X201577205Y-104630256D01*
X201655226Y-104441898D01*
X201673891Y-104348059D01*
X202165000Y-104348059D01*
X202165000Y-104551937D01*
X202204774Y-104751896D01*
X202282795Y-104940254D01*
X202396063Y-105109772D01*
X202540226Y-105253935D01*
X202709744Y-105367203D01*
X202898102Y-105445224D01*
X203098061Y-105484998D01*
X203301939Y-105484998D01*
X203501898Y-105445224D01*
X203690256Y-105367203D01*
X203859774Y-105253935D01*
X204003937Y-105109772D01*
X204117205Y-104940254D01*
X204195226Y-104751896D01*
X204210907Y-104673061D01*
X210420000Y-104673061D01*
X210420000Y-104876939D01*
X210459774Y-105076898D01*
X210537795Y-105265256D01*
X210651063Y-105434774D01*
X210795226Y-105578937D01*
X210964744Y-105692205D01*
X211153102Y-105770226D01*
X211353061Y-105810000D01*
X211556939Y-105810000D01*
X211756898Y-105770226D01*
X211945256Y-105692205D01*
X212114774Y-105578937D01*
X212258937Y-105434774D01*
X212372205Y-105265256D01*
X212450226Y-105076898D01*
X212490000Y-104876939D01*
X212490000Y-104673061D01*
X212450226Y-104473102D01*
X212372205Y-104284744D01*
X212258937Y-104115226D01*
X212114774Y-103971063D01*
X211945256Y-103857795D01*
X211756898Y-103779774D01*
X211556939Y-103740000D01*
X211353061Y-103740000D01*
X211153102Y-103779774D01*
X210964744Y-103857795D01*
X210795226Y-103971063D01*
X210651063Y-104115226D01*
X210537795Y-104284744D01*
X210459774Y-104473102D01*
X210420000Y-104673061D01*
X204210907Y-104673061D01*
X204235000Y-104551937D01*
X204235000Y-104348059D01*
X204195226Y-104148100D01*
X204117205Y-103959742D01*
X204003937Y-103790224D01*
X203859774Y-103646061D01*
X203690256Y-103532793D01*
X203683661Y-103530061D01*
X205721000Y-103530061D01*
X205721000Y-103733939D01*
X205760774Y-103933898D01*
X205838795Y-104122256D01*
X205952063Y-104291774D01*
X206096226Y-104435937D01*
X206265744Y-104549205D01*
X206454102Y-104627226D01*
X206654061Y-104667000D01*
X206857939Y-104667000D01*
X207057898Y-104627226D01*
X207246256Y-104549205D01*
X207415774Y-104435937D01*
X207559937Y-104291774D01*
X207673205Y-104122256D01*
X207751226Y-103933898D01*
X207791000Y-103733939D01*
X207791000Y-103530061D01*
X207751226Y-103330102D01*
X207673205Y-103141744D01*
X207559937Y-102972226D01*
X207415774Y-102828063D01*
X207246256Y-102714795D01*
X207057898Y-102636774D01*
X206857939Y-102597000D01*
X206654061Y-102597000D01*
X206454102Y-102636774D01*
X206265744Y-102714795D01*
X206096226Y-102828063D01*
X205952063Y-102972226D01*
X205838795Y-103141744D01*
X205760774Y-103330102D01*
X205721000Y-103530061D01*
X203683661Y-103530061D01*
X203501898Y-103454772D01*
X203301939Y-103414998D01*
X203098061Y-103414998D01*
X202898102Y-103454772D01*
X202709744Y-103532793D01*
X202540226Y-103646061D01*
X202396063Y-103790224D01*
X202282795Y-103959742D01*
X202204774Y-104148100D01*
X202165000Y-104348059D01*
X201673891Y-104348059D01*
X201695000Y-104241939D01*
X201695000Y-104038061D01*
X201655226Y-103838102D01*
X201577205Y-103649744D01*
X201463937Y-103480226D01*
X201319774Y-103336063D01*
X201150256Y-103222795D01*
X201129675Y-103214270D01*
X201147226Y-103171898D01*
X201187000Y-102971939D01*
X201187000Y-102768061D01*
X201149575Y-102579912D01*
X201248913Y-102679250D01*
X201418431Y-102792518D01*
X201606789Y-102870539D01*
X201806748Y-102910313D01*
X202010626Y-102910313D01*
X202210585Y-102870539D01*
X202398943Y-102792518D01*
X202568461Y-102679250D01*
X202712624Y-102535087D01*
X202825892Y-102365569D01*
X202903913Y-102177211D01*
X202943687Y-101977252D01*
X202943687Y-101773374D01*
X202903913Y-101573415D01*
X202825892Y-101385057D01*
X202712624Y-101215539D01*
X202568461Y-101071376D01*
X202398943Y-100958108D01*
X202210585Y-100880087D01*
X202010626Y-100840313D01*
X201806748Y-100840313D01*
X201606789Y-100880087D01*
X201418431Y-100958108D01*
X201248913Y-101071376D01*
X201104750Y-101215539D01*
X200991482Y-101385057D01*
X200913461Y-101573415D01*
X200873687Y-101773374D01*
X200873687Y-101977252D01*
X200911112Y-102165401D01*
X200811774Y-102066063D01*
X200642256Y-101952795D01*
X200453898Y-101874774D01*
X200253939Y-101835000D01*
X200050061Y-101835000D01*
X199850102Y-101874774D01*
X199661744Y-101952795D01*
X199492226Y-102066063D01*
X199348063Y-102210226D01*
X199234795Y-102379744D01*
X199156774Y-102568102D01*
X199117000Y-102768061D01*
X195367650Y-102768061D01*
X195367937Y-102767774D01*
X195481205Y-102598256D01*
X195559226Y-102409898D01*
X195599000Y-102209939D01*
X195599000Y-102006061D01*
X195559226Y-101806102D01*
X195481205Y-101617744D01*
X195401236Y-101498061D01*
X197085000Y-101498061D01*
X197085000Y-101701939D01*
X197124774Y-101901898D01*
X197202795Y-102090256D01*
X197316063Y-102259774D01*
X197460226Y-102403937D01*
X197629744Y-102517205D01*
X197818102Y-102595226D01*
X198018061Y-102635000D01*
X198221939Y-102635000D01*
X198421898Y-102595226D01*
X198610256Y-102517205D01*
X198779774Y-102403937D01*
X198923937Y-102259774D01*
X199037205Y-102090256D01*
X199115226Y-101901898D01*
X199155000Y-101701939D01*
X199155000Y-101498061D01*
X199115226Y-101298102D01*
X199037205Y-101109744D01*
X198923937Y-100940226D01*
X198779774Y-100796063D01*
X198610256Y-100682795D01*
X198421898Y-100604774D01*
X198221939Y-100565000D01*
X198018061Y-100565000D01*
X197818102Y-100604774D01*
X197629744Y-100682795D01*
X197460226Y-100796063D01*
X197316063Y-100940226D01*
X197202795Y-101109744D01*
X197124774Y-101298102D01*
X197085000Y-101498061D01*
X195401236Y-101498061D01*
X195367937Y-101448226D01*
X195223774Y-101304063D01*
X195054256Y-101190795D01*
X194865898Y-101112774D01*
X194665939Y-101073000D01*
X194462061Y-101073000D01*
X194262102Y-101112774D01*
X194073744Y-101190795D01*
X193904226Y-101304063D01*
X193760063Y-101448226D01*
X193646795Y-101617744D01*
X193568774Y-101806102D01*
X193529000Y-102006061D01*
X193529000Y-102209939D01*
X193568774Y-102409898D01*
X193646795Y-102598256D01*
X193760063Y-102767774D01*
X193862289Y-102870000D01*
X193760063Y-102972226D01*
X193646795Y-103141744D01*
X193568774Y-103330102D01*
X193529000Y-103530061D01*
X193529000Y-103733939D01*
X193568774Y-103933898D01*
X193612666Y-104039863D01*
X193530256Y-103984798D01*
X193341898Y-103906777D01*
X193141939Y-103867003D01*
X192938061Y-103867003D01*
X192738102Y-103906777D01*
X192549744Y-103984798D01*
X192380226Y-104098066D01*
X192236063Y-104242229D01*
X192122795Y-104411747D01*
X192044774Y-104600105D01*
X192005000Y-104800064D01*
X123403543Y-104800064D01*
X123591523Y-104571011D01*
X123836201Y-104113250D01*
X123986873Y-103616550D01*
X124001645Y-103466561D01*
X184321500Y-103466561D01*
X184321500Y-103670439D01*
X184361274Y-103870398D01*
X184439295Y-104058756D01*
X184552563Y-104228274D01*
X184696726Y-104372437D01*
X184866244Y-104485705D01*
X185054602Y-104563726D01*
X185254561Y-104603500D01*
X185458439Y-104603500D01*
X185658398Y-104563726D01*
X185846756Y-104485705D01*
X186016274Y-104372437D01*
X186160437Y-104228274D01*
X186273705Y-104058756D01*
X186351726Y-103870398D01*
X186391500Y-103670439D01*
X186391500Y-103466561D01*
X186351726Y-103266602D01*
X186273705Y-103078244D01*
X186160437Y-102908726D01*
X186016274Y-102764563D01*
X185846756Y-102651295D01*
X185658398Y-102573274D01*
X185458439Y-102533500D01*
X185254561Y-102533500D01*
X185054602Y-102573274D01*
X184866244Y-102651295D01*
X184696726Y-102764563D01*
X184552563Y-102908726D01*
X184439295Y-103078244D01*
X184361274Y-103266602D01*
X184321500Y-103466561D01*
X124001645Y-103466561D01*
X124025000Y-103229442D01*
X124025000Y-101498061D01*
X189465000Y-101498061D01*
X189465000Y-101701939D01*
X189504774Y-101901898D01*
X189582795Y-102090256D01*
X189696063Y-102259774D01*
X189840226Y-102403937D01*
X190009744Y-102517205D01*
X190198102Y-102595226D01*
X190398061Y-102635000D01*
X190601939Y-102635000D01*
X190801898Y-102595226D01*
X190990256Y-102517205D01*
X191159774Y-102403937D01*
X191303937Y-102259774D01*
X191417205Y-102090256D01*
X191495226Y-101901898D01*
X191535000Y-101701939D01*
X191535000Y-101498061D01*
X191495226Y-101298102D01*
X191417205Y-101109744D01*
X191303937Y-100940226D01*
X191159774Y-100796063D01*
X190990256Y-100682795D01*
X190801898Y-100604774D01*
X190601939Y-100565000D01*
X190398061Y-100565000D01*
X190198102Y-100604774D01*
X190009744Y-100682795D01*
X189840226Y-100796063D01*
X189696063Y-100940226D01*
X189582795Y-101109744D01*
X189504774Y-101298102D01*
X189465000Y-101498061D01*
X124025000Y-101498061D01*
X124025000Y-99970558D01*
X123986873Y-99583450D01*
X123945156Y-99445926D01*
X185401000Y-99445926D01*
X185401000Y-99649804D01*
X185440774Y-99849763D01*
X185518795Y-100038121D01*
X185632063Y-100207639D01*
X185776226Y-100351802D01*
X185945744Y-100465070D01*
X186134102Y-100543091D01*
X186334061Y-100582865D01*
X186537939Y-100582865D01*
X186737898Y-100543091D01*
X186926256Y-100465070D01*
X187095774Y-100351802D01*
X187239937Y-100207639D01*
X187353205Y-100038121D01*
X187431226Y-99849763D01*
X187471000Y-99649804D01*
X187471000Y-99445926D01*
X187431226Y-99245967D01*
X187353205Y-99057609D01*
X187286690Y-98958061D01*
X189465000Y-98958061D01*
X189465000Y-99161939D01*
X189504774Y-99361898D01*
X189582795Y-99550256D01*
X189696063Y-99719774D01*
X189840226Y-99863937D01*
X190009744Y-99977205D01*
X190198102Y-100055226D01*
X190398061Y-100095000D01*
X190601939Y-100095000D01*
X190801898Y-100055226D01*
X190990256Y-99977205D01*
X191159774Y-99863937D01*
X191303937Y-99719774D01*
X191417205Y-99550256D01*
X191495226Y-99361898D01*
X191535000Y-99161939D01*
X191535000Y-98958061D01*
X199625000Y-98958061D01*
X199625000Y-99161939D01*
X199664774Y-99361898D01*
X199742795Y-99550256D01*
X199856063Y-99719774D01*
X200000226Y-99863937D01*
X200169744Y-99977205D01*
X200358102Y-100055226D01*
X200558061Y-100095000D01*
X200761939Y-100095000D01*
X200961898Y-100055226D01*
X201150256Y-99977205D01*
X201319774Y-99863937D01*
X201422004Y-99761707D01*
X201524234Y-99863937D01*
X201693752Y-99977205D01*
X201882110Y-100055226D01*
X202082069Y-100095000D01*
X202285947Y-100095000D01*
X202485906Y-100055226D01*
X202674264Y-99977205D01*
X202843782Y-99863937D01*
X202987945Y-99719774D01*
X203101213Y-99550256D01*
X203179234Y-99361898D01*
X203219008Y-99161939D01*
X203219008Y-98958061D01*
X203179234Y-98758102D01*
X203101213Y-98569744D01*
X202987945Y-98400226D01*
X202843782Y-98256063D01*
X202774844Y-98210000D01*
X228381928Y-98210000D01*
X228381928Y-99910000D01*
X228394188Y-100034482D01*
X228430498Y-100154180D01*
X228489463Y-100264494D01*
X228568815Y-100361185D01*
X228665506Y-100440537D01*
X228775820Y-100499502D01*
X228848380Y-100521513D01*
X228716525Y-100653368D01*
X228554010Y-100896589D01*
X228442068Y-101166842D01*
X228385000Y-101453740D01*
X228385000Y-101746260D01*
X228442068Y-102033158D01*
X228554010Y-102303411D01*
X228716525Y-102546632D01*
X228923368Y-102753475D01*
X229166589Y-102915990D01*
X229436842Y-103027932D01*
X229723740Y-103085000D01*
X230016260Y-103085000D01*
X230303158Y-103027932D01*
X230573411Y-102915990D01*
X230816632Y-102753475D01*
X231023475Y-102546632D01*
X231185990Y-102303411D01*
X231297932Y-102033158D01*
X231355000Y-101746260D01*
X231355000Y-101453740D01*
X231297932Y-101166842D01*
X231185990Y-100896589D01*
X231023475Y-100653368D01*
X230891620Y-100521513D01*
X230964180Y-100499502D01*
X231074494Y-100440537D01*
X231171185Y-100361185D01*
X231250537Y-100264494D01*
X231309502Y-100154180D01*
X231345812Y-100034482D01*
X231358072Y-99910000D01*
X231358072Y-98210000D01*
X231345812Y-98085518D01*
X231309502Y-97965820D01*
X231250537Y-97855506D01*
X231171185Y-97758815D01*
X231074494Y-97679463D01*
X230964180Y-97620498D01*
X230844482Y-97584188D01*
X230720000Y-97571928D01*
X229020000Y-97571928D01*
X228895518Y-97584188D01*
X228775820Y-97620498D01*
X228665506Y-97679463D01*
X228568815Y-97758815D01*
X228489463Y-97855506D01*
X228430498Y-97965820D01*
X228394188Y-98085518D01*
X228381928Y-98210000D01*
X202774844Y-98210000D01*
X202674264Y-98142795D01*
X202485906Y-98064774D01*
X202285947Y-98025000D01*
X202082069Y-98025000D01*
X201882110Y-98064774D01*
X201693752Y-98142795D01*
X201524234Y-98256063D01*
X201422004Y-98358293D01*
X201319774Y-98256063D01*
X201150256Y-98142795D01*
X200961898Y-98064774D01*
X200761939Y-98025000D01*
X200558061Y-98025000D01*
X200358102Y-98064774D01*
X200169744Y-98142795D01*
X200000226Y-98256063D01*
X199856063Y-98400226D01*
X199742795Y-98569744D01*
X199664774Y-98758102D01*
X199625000Y-98958061D01*
X191535000Y-98958061D01*
X191495226Y-98758102D01*
X191417205Y-98569744D01*
X191303937Y-98400226D01*
X191159774Y-98256063D01*
X190990256Y-98142795D01*
X190801898Y-98064774D01*
X190601939Y-98025000D01*
X190398061Y-98025000D01*
X190198102Y-98064774D01*
X190009744Y-98142795D01*
X189840226Y-98256063D01*
X189696063Y-98400226D01*
X189582795Y-98569744D01*
X189504774Y-98758102D01*
X189465000Y-98958061D01*
X187286690Y-98958061D01*
X187239937Y-98888091D01*
X187095774Y-98743928D01*
X186926256Y-98630660D01*
X186737898Y-98552639D01*
X186537939Y-98512865D01*
X186334061Y-98512865D01*
X186134102Y-98552639D01*
X185945744Y-98630660D01*
X185776226Y-98743928D01*
X185632063Y-98888091D01*
X185518795Y-99057609D01*
X185440774Y-99245967D01*
X185401000Y-99445926D01*
X123945156Y-99445926D01*
X123836201Y-99086750D01*
X123591523Y-98628989D01*
X123262241Y-98227759D01*
X122861011Y-97898477D01*
X122403250Y-97653799D01*
X121906550Y-97503127D01*
X121390000Y-97452251D01*
X120873451Y-97503127D01*
X120376751Y-97653799D01*
X119918990Y-97898477D01*
X119517760Y-98227759D01*
X119188478Y-98628989D01*
X118943800Y-99086750D01*
X118793127Y-99583450D01*
X118755000Y-99970558D01*
X118755000Y-100644196D01*
X118732012Y-100588698D01*
X118498363Y-100239017D01*
X118200983Y-99941637D01*
X117851302Y-99707988D01*
X117462756Y-99547047D01*
X117050279Y-99465000D01*
X116629721Y-99465000D01*
X116217244Y-99547047D01*
X115828698Y-99707988D01*
X115479017Y-99941637D01*
X115181637Y-100239017D01*
X114947988Y-100588698D01*
X114925000Y-100644196D01*
X114925000Y-99970558D01*
X114886873Y-99583450D01*
X114736201Y-99086750D01*
X114491523Y-98628989D01*
X114162241Y-98227759D01*
X113761011Y-97898477D01*
X113303250Y-97653799D01*
X112806550Y-97503127D01*
X112290000Y-97452251D01*
X111773451Y-97503127D01*
X111276751Y-97653799D01*
X110818990Y-97898477D01*
X110417760Y-98227759D01*
X110088478Y-98628989D01*
X109843800Y-99086750D01*
X109693127Y-99583450D01*
X109655000Y-99970558D01*
X103082107Y-99970558D01*
X103088072Y-99910000D01*
X103088072Y-98210000D01*
X103075812Y-98085518D01*
X103039502Y-97965820D01*
X102980537Y-97855506D01*
X102901185Y-97758815D01*
X102804494Y-97679463D01*
X102694180Y-97620498D01*
X102574482Y-97584188D01*
X102450000Y-97571928D01*
X100750000Y-97571928D01*
X100625518Y-97584188D01*
X100505820Y-97620498D01*
X100395506Y-97679463D01*
X100298815Y-97758815D01*
X100219463Y-97855506D01*
X100160498Y-97965820D01*
X100124188Y-98085518D01*
X100111928Y-98210000D01*
X91733914Y-98210000D01*
X91595081Y-97545636D01*
X91500085Y-97248061D01*
X195375000Y-97248061D01*
X195375000Y-97451939D01*
X195414774Y-97651898D01*
X195492795Y-97840256D01*
X195606063Y-98009774D01*
X195750226Y-98153937D01*
X195919744Y-98267205D01*
X196108102Y-98345226D01*
X196308061Y-98385000D01*
X196511939Y-98385000D01*
X196711898Y-98345226D01*
X196900256Y-98267205D01*
X197069774Y-98153937D01*
X197213937Y-98009774D01*
X197327205Y-97840256D01*
X197405226Y-97651898D01*
X197445000Y-97451939D01*
X197445000Y-97248061D01*
X197406213Y-97053061D01*
X210420000Y-97053061D01*
X210420000Y-97256939D01*
X210459774Y-97456898D01*
X210537795Y-97645256D01*
X210651063Y-97814774D01*
X210795226Y-97958937D01*
X210964744Y-98072205D01*
X211153102Y-98150226D01*
X211353061Y-98190000D01*
X211556939Y-98190000D01*
X211756898Y-98150226D01*
X211945256Y-98072205D01*
X212114774Y-97958937D01*
X212258937Y-97814774D01*
X212372205Y-97645256D01*
X212450226Y-97456898D01*
X212490000Y-97256939D01*
X212490000Y-97053061D01*
X212450226Y-96853102D01*
X212372205Y-96664744D01*
X212258937Y-96495226D01*
X212114774Y-96351063D01*
X211945256Y-96237795D01*
X211756898Y-96159774D01*
X211556939Y-96120000D01*
X211353061Y-96120000D01*
X211153102Y-96159774D01*
X210964744Y-96237795D01*
X210795226Y-96351063D01*
X210651063Y-96495226D01*
X210537795Y-96664744D01*
X210459774Y-96853102D01*
X210420000Y-97053061D01*
X197406213Y-97053061D01*
X197405226Y-97048102D01*
X197327205Y-96859744D01*
X197213937Y-96690226D01*
X197069774Y-96546063D01*
X196900256Y-96432795D01*
X196711898Y-96354774D01*
X196511939Y-96315000D01*
X196308061Y-96315000D01*
X196108102Y-96354774D01*
X195919744Y-96432795D01*
X195750226Y-96546063D01*
X195606063Y-96690226D01*
X195492795Y-96859744D01*
X195414774Y-97048102D01*
X195375000Y-97248061D01*
X91500085Y-97248061D01*
X91096612Y-95984187D01*
X90440234Y-94482267D01*
X90415728Y-94438967D01*
X112705000Y-94438967D01*
X112705000Y-94761033D01*
X112767832Y-95076912D01*
X112891082Y-95374463D01*
X113070013Y-95642252D01*
X113297748Y-95869987D01*
X113565537Y-96048918D01*
X113863088Y-96172168D01*
X114178967Y-96235000D01*
X114501033Y-96235000D01*
X114816912Y-96172168D01*
X115114463Y-96048918D01*
X115382252Y-95869987D01*
X115609987Y-95642252D01*
X115788918Y-95374463D01*
X115912168Y-95076912D01*
X115975000Y-94761033D01*
X115975000Y-94438967D01*
X117705000Y-94438967D01*
X117705000Y-94761033D01*
X117767832Y-95076912D01*
X117891082Y-95374463D01*
X118070013Y-95642252D01*
X118297748Y-95869987D01*
X118565537Y-96048918D01*
X118863088Y-96172168D01*
X119178967Y-96235000D01*
X119501033Y-96235000D01*
X119816912Y-96172168D01*
X120114463Y-96048918D01*
X120382252Y-95869987D01*
X120609987Y-95642252D01*
X120788918Y-95374463D01*
X120882697Y-95148061D01*
X188195000Y-95148061D01*
X188195000Y-95351939D01*
X188234774Y-95551898D01*
X188312795Y-95740256D01*
X188426063Y-95909774D01*
X188570226Y-96053937D01*
X188739744Y-96167205D01*
X188928102Y-96245226D01*
X189128061Y-96285000D01*
X189331939Y-96285000D01*
X189531898Y-96245226D01*
X189720256Y-96167205D01*
X189889774Y-96053937D01*
X190033937Y-95909774D01*
X190147205Y-95740256D01*
X190225226Y-95551898D01*
X190265000Y-95351939D01*
X190265000Y-95148061D01*
X190225226Y-94948102D01*
X190147205Y-94759744D01*
X190033937Y-94590226D01*
X189889774Y-94446063D01*
X189720256Y-94332795D01*
X189531898Y-94254774D01*
X189331939Y-94215000D01*
X189128061Y-94215000D01*
X188928102Y-94254774D01*
X188739744Y-94332795D01*
X188570226Y-94446063D01*
X188426063Y-94590226D01*
X188312795Y-94759744D01*
X188234774Y-94948102D01*
X188195000Y-95148061D01*
X120882697Y-95148061D01*
X120912168Y-95076912D01*
X120975000Y-94761033D01*
X120975000Y-94438967D01*
X120912168Y-94123088D01*
X120788918Y-93825537D01*
X120609987Y-93557748D01*
X120382252Y-93330013D01*
X120114463Y-93151082D01*
X119816912Y-93027832D01*
X119501033Y-92965000D01*
X119178967Y-92965000D01*
X118863088Y-93027832D01*
X118565537Y-93151082D01*
X118297748Y-93330013D01*
X118070013Y-93557748D01*
X117891082Y-93825537D01*
X117767832Y-94123088D01*
X117705000Y-94438967D01*
X115975000Y-94438967D01*
X115912168Y-94123088D01*
X115788918Y-93825537D01*
X115609987Y-93557748D01*
X115382252Y-93330013D01*
X115114463Y-93151082D01*
X114816912Y-93027832D01*
X114501033Y-92965000D01*
X114178967Y-92965000D01*
X113863088Y-93027832D01*
X113565537Y-93151082D01*
X113297748Y-93330013D01*
X113070013Y-93557748D01*
X112891082Y-93825537D01*
X112767832Y-94123088D01*
X112705000Y-94438967D01*
X90415728Y-94438967D01*
X89632907Y-93055797D01*
X89134028Y-92354061D01*
X116505000Y-92354061D01*
X116505000Y-92557939D01*
X116544774Y-92757898D01*
X116622795Y-92946256D01*
X116736063Y-93115774D01*
X116880226Y-93259937D01*
X117049744Y-93373205D01*
X117238102Y-93451226D01*
X117438061Y-93491000D01*
X117641939Y-93491000D01*
X117841898Y-93451226D01*
X118030256Y-93373205D01*
X118199774Y-93259937D01*
X118343937Y-93115774D01*
X118457205Y-92946256D01*
X118535226Y-92757898D01*
X118575000Y-92557939D01*
X118575000Y-92354061D01*
X118535226Y-92154102D01*
X118457205Y-91965744D01*
X118343937Y-91796226D01*
X118199774Y-91652063D01*
X118030256Y-91538795D01*
X117841898Y-91460774D01*
X117641939Y-91421000D01*
X117438061Y-91421000D01*
X117238102Y-91460774D01*
X117049744Y-91538795D01*
X116880226Y-91652063D01*
X116736063Y-91796226D01*
X116622795Y-91965744D01*
X116544774Y-92154102D01*
X116505000Y-92354061D01*
X89134028Y-92354061D01*
X88683187Y-91719897D01*
X87601143Y-90488729D01*
X86460602Y-89433061D01*
X172955000Y-89433061D01*
X172955000Y-89636939D01*
X172994774Y-89836898D01*
X173072795Y-90025256D01*
X173186063Y-90194774D01*
X173330226Y-90338937D01*
X173499744Y-90452205D01*
X173688102Y-90530226D01*
X173888061Y-90570000D01*
X174091939Y-90570000D01*
X174291898Y-90530226D01*
X174480256Y-90452205D01*
X174649774Y-90338937D01*
X174793937Y-90194774D01*
X174907205Y-90025256D01*
X174985226Y-89836898D01*
X175025000Y-89636939D01*
X175025000Y-89433061D01*
X174985226Y-89233102D01*
X174907205Y-89044744D01*
X174793937Y-88875226D01*
X174649774Y-88731063D01*
X174480256Y-88617795D01*
X174291898Y-88539774D01*
X174091939Y-88500000D01*
X173888061Y-88500000D01*
X173688102Y-88539774D01*
X173499744Y-88617795D01*
X173330226Y-88731063D01*
X173186063Y-88875226D01*
X173072795Y-89044744D01*
X172994774Y-89233102D01*
X172955000Y-89433061D01*
X86460602Y-89433061D01*
X86398243Y-89375343D01*
X85087240Y-88391542D01*
X83682030Y-87547754D01*
X82197508Y-86852922D01*
X80649411Y-86314414D01*
X79054150Y-85937937D01*
X77603037Y-85750061D01*
X176765000Y-85750061D01*
X176765000Y-85953939D01*
X176804774Y-86153898D01*
X176882795Y-86342256D01*
X176974501Y-86479504D01*
X176974500Y-89367449D01*
X176970506Y-89408000D01*
X176974500Y-89448550D01*
X176974500Y-89448552D01*
X176986444Y-89569825D01*
X177006803Y-89636939D01*
X177033647Y-89725433D01*
X177110301Y-89868842D01*
X177131954Y-89895226D01*
X177213459Y-89994541D01*
X177244966Y-90020398D01*
X180235606Y-93011039D01*
X180261459Y-93042541D01*
X180325596Y-93095177D01*
X180387157Y-93145699D01*
X180530566Y-93222353D01*
X180686174Y-93269556D01*
X180807447Y-93281500D01*
X180807449Y-93281500D01*
X180848000Y-93285494D01*
X180888550Y-93281500D01*
X201556497Y-93281500D01*
X201693744Y-93373205D01*
X201882102Y-93451226D01*
X202082061Y-93491000D01*
X202285939Y-93491000D01*
X202485898Y-93451226D01*
X202674256Y-93373205D01*
X202843774Y-93259937D01*
X202987937Y-93115774D01*
X203101205Y-92946256D01*
X203179226Y-92757898D01*
X203219000Y-92557939D01*
X203219000Y-92354061D01*
X203179226Y-92154102D01*
X203101205Y-91965744D01*
X202987937Y-91796226D01*
X202843774Y-91652063D01*
X202674256Y-91538795D01*
X202485898Y-91460774D01*
X202285939Y-91421000D01*
X202082061Y-91421000D01*
X201882102Y-91460774D01*
X201693744Y-91538795D01*
X201556497Y-91630500D01*
X181189933Y-91630500D01*
X178625500Y-89066068D01*
X178625500Y-86479503D01*
X178717205Y-86342256D01*
X178795226Y-86153898D01*
X178835000Y-85953939D01*
X178835000Y-85750061D01*
X178795226Y-85550102D01*
X178717205Y-85361744D01*
X178603937Y-85192226D01*
X178459774Y-85048063D01*
X178290256Y-84934795D01*
X178101898Y-84856774D01*
X177901939Y-84817000D01*
X177698061Y-84817000D01*
X177498102Y-84856774D01*
X177309744Y-84934795D01*
X177140226Y-85048063D01*
X176996063Y-85192226D01*
X176882795Y-85361744D01*
X176804774Y-85550102D01*
X176765000Y-85750061D01*
X77603037Y-85750061D01*
X77428633Y-85727481D01*
X75790093Y-85685278D01*
X74155898Y-85811775D01*
X72543371Y-86105631D01*
X70969605Y-86563731D01*
X69451283Y-87181220D01*
X68004499Y-87951551D01*
X66644589Y-88866559D01*
X65385968Y-89916545D01*
X64241980Y-91090378D01*
X63224749Y-92375616D01*
X62345059Y-93758635D01*
X61612235Y-95224774D01*
X61034045Y-96758492D01*
X60616617Y-98343531D01*
X60364378Y-99963090D01*
X60280000Y-101600000D01*
X52730000Y-101600000D01*
X52730000Y-84226061D01*
X116505000Y-84226061D01*
X116505000Y-84429939D01*
X116544774Y-84629898D01*
X116622795Y-84818256D01*
X116736063Y-84987774D01*
X116880226Y-85131937D01*
X117049744Y-85245205D01*
X117238102Y-85323226D01*
X117438061Y-85363000D01*
X117641939Y-85363000D01*
X117841898Y-85323226D01*
X118030256Y-85245205D01*
X118199774Y-85131937D01*
X118343937Y-84987774D01*
X118457205Y-84818256D01*
X118535226Y-84629898D01*
X118575000Y-84429939D01*
X118575000Y-84353061D01*
X174860000Y-84353061D01*
X174860000Y-84556939D01*
X174899774Y-84756898D01*
X174977795Y-84945256D01*
X175091063Y-85114774D01*
X175235226Y-85258937D01*
X175404744Y-85372205D01*
X175593102Y-85450226D01*
X175793061Y-85490000D01*
X175996939Y-85490000D01*
X176196898Y-85450226D01*
X176385256Y-85372205D01*
X176554774Y-85258937D01*
X176698937Y-85114774D01*
X176812205Y-84945256D01*
X176890226Y-84756898D01*
X176930000Y-84556939D01*
X176930000Y-84353061D01*
X176898020Y-84192284D01*
X185058050Y-84192284D01*
X185058050Y-84463716D01*
X185111004Y-84729933D01*
X185214877Y-84980704D01*
X185365677Y-85206392D01*
X185503285Y-85344000D01*
X185365677Y-85481608D01*
X185214877Y-85707296D01*
X185111004Y-85958067D01*
X185058050Y-86224284D01*
X185058050Y-86495716D01*
X185111004Y-86761933D01*
X185214877Y-87012704D01*
X185365677Y-87238392D01*
X185557608Y-87430323D01*
X185783296Y-87581123D01*
X186034067Y-87684996D01*
X186300284Y-87737950D01*
X186518550Y-87737950D01*
X186518550Y-88063496D01*
X186588586Y-88415589D01*
X186725966Y-88747254D01*
X186925411Y-89045744D01*
X187179256Y-89299589D01*
X187477746Y-89499034D01*
X187809411Y-89636414D01*
X188161504Y-89706450D01*
X188520496Y-89706450D01*
X188872589Y-89636414D01*
X189159785Y-89517453D01*
X189188063Y-89559774D01*
X189332226Y-89703937D01*
X189501744Y-89817205D01*
X189690102Y-89895226D01*
X189890061Y-89935000D01*
X190093939Y-89935000D01*
X190293898Y-89895226D01*
X190482256Y-89817205D01*
X190486985Y-89814045D01*
X204197000Y-89814045D01*
X204197000Y-90017923D01*
X204236774Y-90217882D01*
X204314795Y-90406240D01*
X204428063Y-90575758D01*
X204572226Y-90719921D01*
X204741744Y-90833189D01*
X204930102Y-90911210D01*
X205130061Y-90950984D01*
X205333939Y-90950984D01*
X205533898Y-90911210D01*
X205722256Y-90833189D01*
X205891774Y-90719921D01*
X206035937Y-90575758D01*
X206149205Y-90406240D01*
X206227226Y-90217882D01*
X206267000Y-90017923D01*
X206267000Y-89814045D01*
X206227226Y-89614086D01*
X206149205Y-89425728D01*
X206035937Y-89256210D01*
X205891774Y-89112047D01*
X205722256Y-88998779D01*
X205533898Y-88920758D01*
X205333939Y-88880984D01*
X205130061Y-88880984D01*
X204930102Y-88920758D01*
X204741744Y-88998779D01*
X204572226Y-89112047D01*
X204428063Y-89256210D01*
X204314795Y-89425728D01*
X204236774Y-89614086D01*
X204197000Y-89814045D01*
X190486985Y-89814045D01*
X190651774Y-89703937D01*
X190795937Y-89559774D01*
X190909205Y-89390256D01*
X190987226Y-89201898D01*
X191027000Y-89001939D01*
X191027000Y-88798061D01*
X190987226Y-88598102D01*
X190909205Y-88409744D01*
X190795937Y-88240226D01*
X190651774Y-88096063D01*
X190482256Y-87982795D01*
X190293898Y-87904774D01*
X190163450Y-87878826D01*
X190163450Y-87704504D01*
X190093414Y-87352411D01*
X189956034Y-87020746D01*
X189756589Y-86722256D01*
X189502744Y-86468411D01*
X189204254Y-86268966D01*
X188872589Y-86131586D01*
X188520496Y-86061550D01*
X188161504Y-86061550D01*
X187809411Y-86131586D01*
X187796569Y-86136905D01*
X187760996Y-85958067D01*
X187657123Y-85707296D01*
X187506323Y-85481608D01*
X187368715Y-85344000D01*
X187506323Y-85206392D01*
X187657123Y-84980704D01*
X187760996Y-84729933D01*
X187796569Y-84551095D01*
X187809411Y-84556414D01*
X188161504Y-84626450D01*
X188520496Y-84626450D01*
X188872589Y-84556414D01*
X189204254Y-84419034D01*
X189502744Y-84219589D01*
X189756589Y-83965744D01*
X189956034Y-83667254D01*
X190093414Y-83335589D01*
X190111575Y-83244286D01*
X190221226Y-83353937D01*
X190390744Y-83467205D01*
X190579102Y-83545226D01*
X190779061Y-83585000D01*
X190982939Y-83585000D01*
X191182898Y-83545226D01*
X191371256Y-83467205D01*
X191540774Y-83353937D01*
X191684937Y-83209774D01*
X191798205Y-83040256D01*
X191876226Y-82851898D01*
X191916000Y-82651939D01*
X191916000Y-82448061D01*
X191889533Y-82315000D01*
X191998939Y-82315000D01*
X192198898Y-82275226D01*
X192323860Y-82223465D01*
X192303586Y-82272411D01*
X192233550Y-82624504D01*
X192233550Y-82983496D01*
X192303586Y-83335589D01*
X192440966Y-83667254D01*
X192640411Y-83965744D01*
X192894256Y-84219589D01*
X193192746Y-84419034D01*
X193326909Y-84474606D01*
X193178039Y-84623476D01*
X193054341Y-84808602D01*
X192969137Y-85014304D01*
X192925700Y-85232675D01*
X192925700Y-85455325D01*
X192969137Y-85673696D01*
X193054341Y-85879398D01*
X193178039Y-86064524D01*
X193326909Y-86213394D01*
X193192746Y-86268966D01*
X192894256Y-86468411D01*
X192886630Y-86476037D01*
X192845915Y-86377744D01*
X192732647Y-86208226D01*
X192588484Y-86064063D01*
X192418966Y-85950795D01*
X192230608Y-85872774D01*
X192030649Y-85833000D01*
X191826771Y-85833000D01*
X191626812Y-85872774D01*
X191438454Y-85950795D01*
X191268936Y-86064063D01*
X191124773Y-86208226D01*
X191011505Y-86377744D01*
X190933484Y-86566102D01*
X190893710Y-86766061D01*
X190893710Y-86969939D01*
X190933484Y-87169898D01*
X191011505Y-87358256D01*
X191124773Y-87527774D01*
X191268936Y-87671937D01*
X191438454Y-87785205D01*
X191626812Y-87863226D01*
X191826771Y-87903000D01*
X192030649Y-87903000D01*
X192230608Y-87863226D01*
X192233550Y-87862007D01*
X192233550Y-88063496D01*
X192303586Y-88415589D01*
X192440966Y-88747254D01*
X192640411Y-89045744D01*
X192894256Y-89299589D01*
X193192746Y-89499034D01*
X193524411Y-89636414D01*
X193876504Y-89706450D01*
X194235496Y-89706450D01*
X194587589Y-89636414D01*
X194919254Y-89499034D01*
X195217744Y-89299589D01*
X195471589Y-89045744D01*
X195671034Y-88747254D01*
X195808414Y-88415589D01*
X195816546Y-88374709D01*
X195854774Y-88566898D01*
X195932795Y-88755256D01*
X196046063Y-88924774D01*
X196190226Y-89068937D01*
X196359744Y-89182205D01*
X196548102Y-89260226D01*
X196748061Y-89300000D01*
X196951939Y-89300000D01*
X197151898Y-89260226D01*
X197340256Y-89182205D01*
X197509774Y-89068937D01*
X197653937Y-88924774D01*
X197767205Y-88755256D01*
X197845226Y-88566898D01*
X197885000Y-88366939D01*
X197885000Y-88163061D01*
X197851961Y-87996961D01*
X198018061Y-88030000D01*
X198221939Y-88030000D01*
X198421898Y-87990226D01*
X198610256Y-87912205D01*
X198779774Y-87798937D01*
X198923937Y-87654774D01*
X199037205Y-87485256D01*
X199115226Y-87296898D01*
X199155000Y-87096939D01*
X199155000Y-86893061D01*
X199121961Y-86726961D01*
X199288061Y-86760000D01*
X199491939Y-86760000D01*
X199691898Y-86720226D01*
X199880256Y-86642205D01*
X200049774Y-86528937D01*
X200193937Y-86384774D01*
X200307205Y-86215256D01*
X200385226Y-86026898D01*
X200425000Y-85826939D01*
X200425000Y-85623061D01*
X200391961Y-85456961D01*
X200558061Y-85490000D01*
X200761939Y-85490000D01*
X200961898Y-85450226D01*
X201150256Y-85372205D01*
X201319774Y-85258937D01*
X201463937Y-85114774D01*
X201577205Y-84945256D01*
X201655226Y-84756898D01*
X201695000Y-84556939D01*
X201695000Y-84353061D01*
X201657067Y-84162356D01*
X201798562Y-84190501D01*
X202002440Y-84190501D01*
X202202399Y-84150727D01*
X202390757Y-84072706D01*
X202560275Y-83959438D01*
X202704438Y-83815275D01*
X202817706Y-83645757D01*
X202895727Y-83457399D01*
X202935501Y-83257440D01*
X202935501Y-83053562D01*
X202895727Y-82853603D01*
X202817706Y-82665245D01*
X202704438Y-82495727D01*
X202560275Y-82351564D01*
X202390757Y-82238296D01*
X202202399Y-82160275D01*
X202002440Y-82120501D01*
X201798562Y-82120501D01*
X201598603Y-82160275D01*
X201410245Y-82238296D01*
X201240727Y-82351564D01*
X201096564Y-82495727D01*
X200983296Y-82665245D01*
X200905275Y-82853603D01*
X200865501Y-83053562D01*
X200865501Y-83257440D01*
X200903434Y-83448145D01*
X200761939Y-83420000D01*
X200558061Y-83420000D01*
X200358102Y-83459774D01*
X200169744Y-83537795D01*
X200000226Y-83651063D01*
X199856063Y-83795226D01*
X199742795Y-83964744D01*
X199664774Y-84153102D01*
X199625000Y-84353061D01*
X199625000Y-84556939D01*
X199658039Y-84723039D01*
X199491939Y-84690000D01*
X199288061Y-84690000D01*
X199088102Y-84729774D01*
X198899744Y-84807795D01*
X198730226Y-84921063D01*
X198586063Y-85065226D01*
X198472795Y-85234744D01*
X198394774Y-85423102D01*
X198355000Y-85623061D01*
X198355000Y-85826939D01*
X198388039Y-85993039D01*
X198221939Y-85960000D01*
X198018061Y-85960000D01*
X197818102Y-85999774D01*
X197629744Y-86077795D01*
X197460226Y-86191063D01*
X197316063Y-86335226D01*
X197202795Y-86504744D01*
X197124774Y-86693102D01*
X197085000Y-86893061D01*
X197085000Y-87096939D01*
X197118039Y-87263039D01*
X196951939Y-87230000D01*
X196748061Y-87230000D01*
X196548102Y-87269774D01*
X196359744Y-87347795D01*
X196190226Y-87461063D01*
X196046063Y-87605226D01*
X195932795Y-87774744D01*
X195878450Y-87905943D01*
X195878450Y-87704504D01*
X195808414Y-87352411D01*
X195730655Y-87164685D01*
X195731774Y-87163937D01*
X195875937Y-87019774D01*
X195989205Y-86850256D01*
X196067226Y-86661898D01*
X196107000Y-86461939D01*
X196107000Y-86258061D01*
X196067226Y-86058102D01*
X195989205Y-85869744D01*
X195875937Y-85700226D01*
X195731774Y-85556063D01*
X195562256Y-85442795D01*
X195373898Y-85364774D01*
X195186300Y-85327459D01*
X195186300Y-85232675D01*
X195142863Y-85014304D01*
X195057659Y-84808602D01*
X194933961Y-84623476D01*
X194785091Y-84474606D01*
X194919254Y-84419034D01*
X195217744Y-84219589D01*
X195471589Y-83965744D01*
X195671034Y-83667254D01*
X195808414Y-83335589D01*
X195878450Y-82983496D01*
X195878450Y-82624504D01*
X195808414Y-82272411D01*
X195671034Y-81940746D01*
X195471589Y-81642256D01*
X195217744Y-81388411D01*
X194919254Y-81188966D01*
X194587589Y-81051586D01*
X194235496Y-80981550D01*
X193876504Y-80981550D01*
X193524411Y-81051586D01*
X193192746Y-81188966D01*
X192932000Y-81363191D01*
X192932000Y-81178061D01*
X192892226Y-80978102D01*
X192814205Y-80789744D01*
X192700937Y-80620226D01*
X192556774Y-80476063D01*
X192387256Y-80362795D01*
X192198898Y-80284774D01*
X191998939Y-80245000D01*
X191795061Y-80245000D01*
X191595102Y-80284774D01*
X191406744Y-80362795D01*
X191237226Y-80476063D01*
X191093063Y-80620226D01*
X190979795Y-80789744D01*
X190901774Y-80978102D01*
X190862000Y-81178061D01*
X190862000Y-81381939D01*
X190888467Y-81515000D01*
X190779061Y-81515000D01*
X190579102Y-81554774D01*
X190390744Y-81632795D01*
X190221226Y-81746063D01*
X190077063Y-81890226D01*
X189989432Y-82021376D01*
X189956034Y-81940746D01*
X189756589Y-81642256D01*
X189502744Y-81388411D01*
X189204254Y-81188966D01*
X188872589Y-81051586D01*
X188520496Y-80981550D01*
X188161504Y-80981550D01*
X187809411Y-81051586D01*
X187477746Y-81188966D01*
X187471000Y-81193474D01*
X187471000Y-81006561D01*
X187431226Y-80806602D01*
X187353205Y-80618244D01*
X187239937Y-80448726D01*
X187095774Y-80304563D01*
X186926256Y-80191295D01*
X186855680Y-80162061D01*
X202165000Y-80162061D01*
X202165000Y-80365939D01*
X202204774Y-80565898D01*
X202282795Y-80754256D01*
X202396063Y-80923774D01*
X202540226Y-81067937D01*
X202709744Y-81181205D01*
X202898102Y-81259226D01*
X203098061Y-81299000D01*
X203301939Y-81299000D01*
X203501898Y-81259226D01*
X203690256Y-81181205D01*
X203859774Y-81067937D01*
X204003937Y-80923774D01*
X204117205Y-80754256D01*
X204195226Y-80565898D01*
X204235000Y-80365939D01*
X204235000Y-80162061D01*
X204195226Y-79962102D01*
X204117205Y-79773744D01*
X204073430Y-79708230D01*
X204138603Y-79735226D01*
X204338562Y-79775000D01*
X204542440Y-79775000D01*
X204742399Y-79735226D01*
X204930757Y-79657205D01*
X205100275Y-79543937D01*
X205244438Y-79399774D01*
X205357706Y-79230256D01*
X205435727Y-79041898D01*
X205475501Y-78841939D01*
X205475501Y-78726665D01*
X205638061Y-78759000D01*
X205841939Y-78759000D01*
X206041898Y-78719226D01*
X206230256Y-78641205D01*
X206399774Y-78527937D01*
X206543937Y-78383774D01*
X206657205Y-78214256D01*
X206735226Y-78025898D01*
X206775000Y-77825939D01*
X206775000Y-77622061D01*
X206735226Y-77422102D01*
X206657205Y-77233744D01*
X206543937Y-77064226D01*
X206399774Y-76920063D01*
X206230256Y-76806795D01*
X206041898Y-76728774D01*
X205841939Y-76689000D01*
X205638061Y-76689000D01*
X205438102Y-76728774D01*
X205249744Y-76806795D01*
X205080226Y-76920063D01*
X204936063Y-77064226D01*
X204822795Y-77233744D01*
X204744774Y-77422102D01*
X204705000Y-77622061D01*
X204705000Y-77737335D01*
X204542440Y-77705000D01*
X204338562Y-77705000D01*
X204138603Y-77744774D01*
X203950245Y-77822795D01*
X203780727Y-77936063D01*
X203636564Y-78080226D01*
X203523296Y-78249744D01*
X203445275Y-78438102D01*
X203405501Y-78638061D01*
X203405501Y-78841939D01*
X203445275Y-79041898D01*
X203523296Y-79230256D01*
X203567071Y-79295770D01*
X203501898Y-79268774D01*
X203301939Y-79229000D01*
X203098061Y-79229000D01*
X202898102Y-79268774D01*
X202709744Y-79346795D01*
X202540226Y-79460063D01*
X202396063Y-79604226D01*
X202282795Y-79773744D01*
X202204774Y-79962102D01*
X202165000Y-80162061D01*
X186855680Y-80162061D01*
X186737898Y-80113274D01*
X186537939Y-80073500D01*
X186334061Y-80073500D01*
X186134102Y-80113274D01*
X185945744Y-80191295D01*
X185776226Y-80304563D01*
X185632063Y-80448726D01*
X185518795Y-80618244D01*
X185440774Y-80806602D01*
X185401000Y-81006561D01*
X185401000Y-81210439D01*
X185440774Y-81410398D01*
X185518795Y-81598756D01*
X185632063Y-81768274D01*
X185776226Y-81912437D01*
X185945744Y-82025705D01*
X186134102Y-82103726D01*
X186334061Y-82143500D01*
X186537939Y-82143500D01*
X186651325Y-82120946D01*
X186588586Y-82272411D01*
X186518550Y-82624504D01*
X186518550Y-82950050D01*
X186300284Y-82950050D01*
X186034067Y-83003004D01*
X185783296Y-83106877D01*
X185557608Y-83257677D01*
X185365677Y-83449608D01*
X185214877Y-83675296D01*
X185111004Y-83926067D01*
X185058050Y-84192284D01*
X176898020Y-84192284D01*
X176890226Y-84153102D01*
X176812205Y-83964744D01*
X176698937Y-83795226D01*
X176554774Y-83651063D01*
X176385256Y-83537795D01*
X176196898Y-83459774D01*
X175996939Y-83420000D01*
X175793061Y-83420000D01*
X175593102Y-83459774D01*
X175404744Y-83537795D01*
X175235226Y-83651063D01*
X175091063Y-83795226D01*
X174977795Y-83964744D01*
X174899774Y-84153102D01*
X174860000Y-84353061D01*
X118575000Y-84353061D01*
X118575000Y-84226061D01*
X118535226Y-84026102D01*
X118457205Y-83837744D01*
X118343937Y-83668226D01*
X118199774Y-83524063D01*
X118030256Y-83410795D01*
X117841898Y-83332774D01*
X117641939Y-83293000D01*
X117438061Y-83293000D01*
X117238102Y-83332774D01*
X117049744Y-83410795D01*
X116880226Y-83524063D01*
X116736063Y-83668226D01*
X116622795Y-83837744D01*
X116544774Y-84026102D01*
X116505000Y-84226061D01*
X52730000Y-84226061D01*
X52730000Y-81813061D01*
X181845000Y-81813061D01*
X181845000Y-82016939D01*
X181884774Y-82216898D01*
X181962795Y-82405256D01*
X182076063Y-82574774D01*
X182220226Y-82718937D01*
X182389744Y-82832205D01*
X182578102Y-82910226D01*
X182778061Y-82950000D01*
X182981939Y-82950000D01*
X183181898Y-82910226D01*
X183370256Y-82832205D01*
X183539774Y-82718937D01*
X183683937Y-82574774D01*
X183797205Y-82405256D01*
X183875226Y-82216898D01*
X183915000Y-82016939D01*
X183915000Y-81813061D01*
X183875226Y-81613102D01*
X183797205Y-81424744D01*
X183683937Y-81255226D01*
X183539774Y-81111063D01*
X183370256Y-80997795D01*
X183181898Y-80919774D01*
X182981939Y-80880000D01*
X182778061Y-80880000D01*
X182578102Y-80919774D01*
X182389744Y-80997795D01*
X182220226Y-81111063D01*
X182076063Y-81255226D01*
X181962795Y-81424744D01*
X181884774Y-81613102D01*
X181845000Y-81813061D01*
X52730000Y-81813061D01*
X52730000Y-80162061D01*
X124125000Y-80162061D01*
X124125000Y-80365939D01*
X124164774Y-80565898D01*
X124242795Y-80754256D01*
X124356063Y-80923774D01*
X124500226Y-81067937D01*
X124669744Y-81181205D01*
X124858102Y-81259226D01*
X125058061Y-81299000D01*
X125261939Y-81299000D01*
X125461898Y-81259226D01*
X125650256Y-81181205D01*
X125819774Y-81067937D01*
X125963937Y-80923774D01*
X126077205Y-80754256D01*
X126155226Y-80565898D01*
X126159768Y-80543061D01*
X176130000Y-80543061D01*
X176130000Y-80746939D01*
X176169774Y-80946898D01*
X176247795Y-81135256D01*
X176361063Y-81304774D01*
X176505226Y-81448937D01*
X176674744Y-81562205D01*
X176863102Y-81640226D01*
X177063061Y-81680000D01*
X177266939Y-81680000D01*
X177466898Y-81640226D01*
X177655256Y-81562205D01*
X177824774Y-81448937D01*
X177968937Y-81304774D01*
X178082205Y-81135256D01*
X178160226Y-80946898D01*
X178200000Y-80746939D01*
X178200000Y-80543061D01*
X178160226Y-80343102D01*
X178082205Y-80154744D01*
X177968937Y-79985226D01*
X177824774Y-79841063D01*
X177655256Y-79727795D01*
X177466898Y-79649774D01*
X177266939Y-79610000D01*
X177063061Y-79610000D01*
X176863102Y-79649774D01*
X176674744Y-79727795D01*
X176505226Y-79841063D01*
X176361063Y-79985226D01*
X176247795Y-80154744D01*
X176169774Y-80343102D01*
X176130000Y-80543061D01*
X126159768Y-80543061D01*
X126195000Y-80365939D01*
X126195000Y-80162061D01*
X126155226Y-79962102D01*
X126077205Y-79773744D01*
X125963937Y-79604226D01*
X125819774Y-79460063D01*
X125650256Y-79346795D01*
X125461898Y-79268774D01*
X125261939Y-79229000D01*
X125058061Y-79229000D01*
X124858102Y-79268774D01*
X124669744Y-79346795D01*
X124500226Y-79460063D01*
X124356063Y-79604226D01*
X124242795Y-79773744D01*
X124164774Y-79962102D01*
X124125000Y-80162061D01*
X52730000Y-80162061D01*
X52730000Y-78638061D01*
X178035000Y-78638061D01*
X178035000Y-78841939D01*
X178074774Y-79041898D01*
X178152795Y-79230256D01*
X178266063Y-79399774D01*
X178410226Y-79543937D01*
X178579744Y-79657205D01*
X178768102Y-79735226D01*
X178968061Y-79775000D01*
X179171939Y-79775000D01*
X179371898Y-79735226D01*
X179560256Y-79657205D01*
X179729774Y-79543937D01*
X179873937Y-79399774D01*
X179987205Y-79230256D01*
X180065226Y-79041898D01*
X180105000Y-78841939D01*
X180105000Y-78638061D01*
X190861974Y-78638061D01*
X190861974Y-78841939D01*
X190901748Y-79041898D01*
X190979769Y-79230256D01*
X191093037Y-79399774D01*
X191237200Y-79543937D01*
X191406718Y-79657205D01*
X191595076Y-79735226D01*
X191795035Y-79775000D01*
X191998913Y-79775000D01*
X192198872Y-79735226D01*
X192387230Y-79657205D01*
X192556748Y-79543937D01*
X192700911Y-79399774D01*
X192814179Y-79230256D01*
X192892200Y-79041898D01*
X192931974Y-78841939D01*
X192931974Y-78638061D01*
X192892200Y-78438102D01*
X192814179Y-78249744D01*
X192700911Y-78080226D01*
X192556748Y-77936063D01*
X192387230Y-77822795D01*
X192198872Y-77744774D01*
X191998913Y-77705000D01*
X191795035Y-77705000D01*
X191595076Y-77744774D01*
X191406718Y-77822795D01*
X191237200Y-77936063D01*
X191093037Y-78080226D01*
X190979769Y-78249744D01*
X190901748Y-78438102D01*
X190861974Y-78638061D01*
X180105000Y-78638061D01*
X180065226Y-78438102D01*
X179987205Y-78249744D01*
X179873937Y-78080226D01*
X179729774Y-77936063D01*
X179560256Y-77822795D01*
X179371898Y-77744774D01*
X179171939Y-77705000D01*
X178968061Y-77705000D01*
X178768102Y-77744774D01*
X178579744Y-77822795D01*
X178410226Y-77936063D01*
X178266063Y-78080226D01*
X178152795Y-78249744D01*
X178074774Y-78438102D01*
X178035000Y-78638061D01*
X52730000Y-78638061D01*
X52730000Y-77368061D01*
X172320000Y-77368061D01*
X172320000Y-77571939D01*
X172359774Y-77771898D01*
X172437795Y-77960256D01*
X172551063Y-78129774D01*
X172695226Y-78273937D01*
X172864744Y-78387205D01*
X173053102Y-78465226D01*
X173253061Y-78505000D01*
X173456939Y-78505000D01*
X173656898Y-78465226D01*
X173845256Y-78387205D01*
X174014774Y-78273937D01*
X174158937Y-78129774D01*
X174272205Y-77960256D01*
X174350226Y-77771898D01*
X174380030Y-77622061D01*
X194545000Y-77622061D01*
X194545000Y-77825939D01*
X194584774Y-78025898D01*
X194662795Y-78214256D01*
X194776063Y-78383774D01*
X194920226Y-78527937D01*
X195089744Y-78641205D01*
X195278102Y-78719226D01*
X195478061Y-78759000D01*
X195681939Y-78759000D01*
X195881898Y-78719226D01*
X196070256Y-78641205D01*
X196239774Y-78527937D01*
X196383937Y-78383774D01*
X196497205Y-78214256D01*
X196575226Y-78025898D01*
X196615000Y-77825939D01*
X196615000Y-77622061D01*
X196575226Y-77422102D01*
X196497205Y-77233744D01*
X196383937Y-77064226D01*
X196239774Y-76920063D01*
X196070256Y-76806795D01*
X195881898Y-76728774D01*
X195681939Y-76689000D01*
X195478061Y-76689000D01*
X195278102Y-76728774D01*
X195089744Y-76806795D01*
X194920226Y-76920063D01*
X194776063Y-77064226D01*
X194662795Y-77233744D01*
X194584774Y-77422102D01*
X194545000Y-77622061D01*
X174380030Y-77622061D01*
X174390000Y-77571939D01*
X174390000Y-77368061D01*
X174350226Y-77168102D01*
X174272205Y-76979744D01*
X174158937Y-76810226D01*
X174014774Y-76666063D01*
X173845256Y-76552795D01*
X173656898Y-76474774D01*
X173456939Y-76435000D01*
X173253061Y-76435000D01*
X173053102Y-76474774D01*
X172864744Y-76552795D01*
X172695226Y-76666063D01*
X172551063Y-76810226D01*
X172437795Y-76979744D01*
X172359774Y-77168102D01*
X172320000Y-77368061D01*
X52730000Y-77368061D01*
X52730000Y-74828061D01*
X73260000Y-74828061D01*
X73260000Y-75031939D01*
X73299774Y-75231898D01*
X73377795Y-75420256D01*
X73491063Y-75589774D01*
X73635226Y-75733937D01*
X73804744Y-75847205D01*
X73993102Y-75925226D01*
X74193061Y-75965000D01*
X74396939Y-75965000D01*
X74596898Y-75925226D01*
X74785256Y-75847205D01*
X74954774Y-75733937D01*
X75098937Y-75589774D01*
X75212205Y-75420256D01*
X75290226Y-75231898D01*
X75330000Y-75031939D01*
X75330000Y-74828061D01*
X75290226Y-74628102D01*
X75212205Y-74439744D01*
X75098937Y-74270226D01*
X75021772Y-74193061D01*
X207880004Y-74193061D01*
X207880004Y-74396939D01*
X207919778Y-74596898D01*
X207997799Y-74785256D01*
X208111067Y-74954774D01*
X208255230Y-75098937D01*
X208424748Y-75212205D01*
X208613106Y-75290226D01*
X208813065Y-75330000D01*
X209016943Y-75330000D01*
X209183039Y-75296962D01*
X209150000Y-75463061D01*
X209150000Y-75666939D01*
X209189774Y-75866898D01*
X209267795Y-76055256D01*
X209381063Y-76224774D01*
X209525226Y-76368937D01*
X209694744Y-76482205D01*
X209883102Y-76560226D01*
X210083061Y-76600000D01*
X210286939Y-76600000D01*
X210453039Y-76566961D01*
X210420000Y-76733061D01*
X210420000Y-76936939D01*
X210459774Y-77136898D01*
X210537795Y-77325256D01*
X210651063Y-77494774D01*
X210795226Y-77638937D01*
X210964744Y-77752205D01*
X211153102Y-77830226D01*
X211353061Y-77870000D01*
X211556939Y-77870000D01*
X211756898Y-77830226D01*
X211945256Y-77752205D01*
X212114774Y-77638937D01*
X212258937Y-77494774D01*
X212372205Y-77325256D01*
X212450226Y-77136898D01*
X212490000Y-76936939D01*
X212490000Y-76733061D01*
X212450226Y-76533102D01*
X212372205Y-76344744D01*
X212258937Y-76175226D01*
X212114774Y-76031063D01*
X211945256Y-75917795D01*
X211756898Y-75839774D01*
X211556939Y-75800000D01*
X211353061Y-75800000D01*
X211186961Y-75833039D01*
X211220000Y-75666939D01*
X211220000Y-75463061D01*
X211180226Y-75263102D01*
X211102205Y-75074744D01*
X210988937Y-74905226D01*
X210844774Y-74761063D01*
X210675256Y-74647795D01*
X210486898Y-74569774D01*
X210286939Y-74530000D01*
X210083061Y-74530000D01*
X209916965Y-74563038D01*
X209950004Y-74396939D01*
X209950004Y-74193061D01*
X209910230Y-73993102D01*
X209832209Y-73804744D01*
X209718941Y-73635226D01*
X209574778Y-73491063D01*
X209405260Y-73377795D01*
X209216902Y-73299774D01*
X209016943Y-73260000D01*
X208813065Y-73260000D01*
X208613106Y-73299774D01*
X208424748Y-73377795D01*
X208255230Y-73491063D01*
X208111067Y-73635226D01*
X207997799Y-73804744D01*
X207919778Y-73993102D01*
X207880004Y-74193061D01*
X75021772Y-74193061D01*
X74954774Y-74126063D01*
X74785256Y-74012795D01*
X74596898Y-73934774D01*
X74396939Y-73895000D01*
X74193061Y-73895000D01*
X73993102Y-73934774D01*
X73804744Y-74012795D01*
X73635226Y-74126063D01*
X73491063Y-74270226D01*
X73377795Y-74439744D01*
X73299774Y-74628102D01*
X73260000Y-74828061D01*
X52730000Y-74828061D01*
X52730000Y-73050061D01*
X213849000Y-73050061D01*
X213849000Y-73253939D01*
X213888774Y-73453898D01*
X213966795Y-73642256D01*
X214080063Y-73811774D01*
X214224226Y-73955937D01*
X214393744Y-74069205D01*
X214582102Y-74147226D01*
X214782061Y-74187000D01*
X214985939Y-74187000D01*
X215185898Y-74147226D01*
X215374256Y-74069205D01*
X215543774Y-73955937D01*
X215687937Y-73811774D01*
X215801205Y-73642256D01*
X215879226Y-73453898D01*
X215919000Y-73253939D01*
X215919000Y-73050061D01*
X215879226Y-72850102D01*
X215801205Y-72661744D01*
X215687937Y-72492226D01*
X215543774Y-72348063D01*
X215374256Y-72234795D01*
X215185898Y-72156774D01*
X214985939Y-72117000D01*
X214782061Y-72117000D01*
X214582102Y-72156774D01*
X214393744Y-72234795D01*
X214224226Y-72348063D01*
X214080063Y-72492226D01*
X213966795Y-72661744D01*
X213888774Y-72850102D01*
X213849000Y-73050061D01*
X52730000Y-73050061D01*
X52730000Y-68221984D01*
X56055000Y-68221984D01*
X56055000Y-68938016D01*
X56194691Y-69640290D01*
X56468705Y-70301818D01*
X56866511Y-70897177D01*
X57372823Y-71403489D01*
X57968182Y-71801295D01*
X58629710Y-72075309D01*
X59331984Y-72215000D01*
X60048016Y-72215000D01*
X60750290Y-72075309D01*
X61411818Y-71801295D01*
X62007177Y-71403489D01*
X62513489Y-70897177D01*
X62911295Y-70301818D01*
X63185309Y-69640290D01*
X63325000Y-68938016D01*
X63325000Y-68433740D01*
X189015000Y-68433740D01*
X189015000Y-68726260D01*
X189072068Y-69013158D01*
X189184010Y-69283411D01*
X189346525Y-69526632D01*
X189553368Y-69733475D01*
X189727760Y-69850000D01*
X189553368Y-69966525D01*
X189346525Y-70173368D01*
X189184010Y-70416589D01*
X189072068Y-70686842D01*
X189015000Y-70973740D01*
X189015000Y-71266260D01*
X189072068Y-71553158D01*
X189184010Y-71823411D01*
X189346525Y-72066632D01*
X189553368Y-72273475D01*
X189796589Y-72435990D01*
X190066842Y-72547932D01*
X190353740Y-72605000D01*
X190646260Y-72605000D01*
X190933158Y-72547932D01*
X191203411Y-72435990D01*
X191446632Y-72273475D01*
X191653475Y-72066632D01*
X191770000Y-71892240D01*
X191886525Y-72066632D01*
X192093368Y-72273475D01*
X192336589Y-72435990D01*
X192606842Y-72547932D01*
X192893740Y-72605000D01*
X193186260Y-72605000D01*
X193473158Y-72547932D01*
X193743411Y-72435990D01*
X193986632Y-72273475D01*
X194193475Y-72066632D01*
X194310000Y-71892240D01*
X194426525Y-72066632D01*
X194633368Y-72273475D01*
X194876589Y-72435990D01*
X195146842Y-72547932D01*
X195433740Y-72605000D01*
X195726260Y-72605000D01*
X196013158Y-72547932D01*
X196283411Y-72435990D01*
X196526632Y-72273475D01*
X196733475Y-72066632D01*
X196850000Y-71892240D01*
X196966525Y-72066632D01*
X197173368Y-72273475D01*
X197416589Y-72435990D01*
X197686842Y-72547932D01*
X197973740Y-72605000D01*
X198266260Y-72605000D01*
X198553158Y-72547932D01*
X198823411Y-72435990D01*
X199066632Y-72273475D01*
X199273475Y-72066632D01*
X199390000Y-71892240D01*
X199506525Y-72066632D01*
X199713368Y-72273475D01*
X199956589Y-72435990D01*
X200226842Y-72547932D01*
X200513740Y-72605000D01*
X200806260Y-72605000D01*
X201093158Y-72547932D01*
X201363411Y-72435990D01*
X201606632Y-72273475D01*
X201813475Y-72066632D01*
X201930000Y-71892240D01*
X202046525Y-72066632D01*
X202253368Y-72273475D01*
X202496589Y-72435990D01*
X202766842Y-72547932D01*
X203053740Y-72605000D01*
X203346260Y-72605000D01*
X203633158Y-72547932D01*
X203903411Y-72435990D01*
X204146632Y-72273475D01*
X204353475Y-72066632D01*
X204470000Y-71892240D01*
X204586525Y-72066632D01*
X204793368Y-72273475D01*
X205036589Y-72435990D01*
X205306842Y-72547932D01*
X205593740Y-72605000D01*
X205886260Y-72605000D01*
X206173158Y-72547932D01*
X206443411Y-72435990D01*
X206686632Y-72273475D01*
X206893475Y-72066632D01*
X207055990Y-71823411D01*
X207167932Y-71553158D01*
X207225000Y-71266260D01*
X207225000Y-70973740D01*
X207167932Y-70686842D01*
X207055990Y-70416589D01*
X206893475Y-70173368D01*
X206761620Y-70041513D01*
X206834180Y-70019502D01*
X206944494Y-69960537D01*
X207041185Y-69881185D01*
X207120537Y-69784494D01*
X207179502Y-69674180D01*
X207215812Y-69554482D01*
X207228072Y-69430000D01*
X207225000Y-68865750D01*
X207066250Y-68707000D01*
X205867000Y-68707000D01*
X205867000Y-68727000D01*
X205613000Y-68727000D01*
X205613000Y-68707000D01*
X205593000Y-68707000D01*
X205593000Y-68453000D01*
X205613000Y-68453000D01*
X205613000Y-67253750D01*
X205867000Y-67253750D01*
X205867000Y-68453000D01*
X207066250Y-68453000D01*
X207225000Y-68294250D01*
X207225393Y-68221984D01*
X224965000Y-68221984D01*
X224965000Y-68938016D01*
X225104691Y-69640290D01*
X225378705Y-70301818D01*
X225776511Y-70897177D01*
X226282823Y-71403489D01*
X226878182Y-71801295D01*
X227539710Y-72075309D01*
X228241984Y-72215000D01*
X228958016Y-72215000D01*
X229660290Y-72075309D01*
X230321818Y-71801295D01*
X230917177Y-71403489D01*
X231423489Y-70897177D01*
X231821295Y-70301818D01*
X232095309Y-69640290D01*
X232235000Y-68938016D01*
X232235000Y-68221984D01*
X232095309Y-67519710D01*
X231821295Y-66858182D01*
X231423489Y-66262823D01*
X230917177Y-65756511D01*
X230321818Y-65358705D01*
X229660290Y-65084691D01*
X228958016Y-64945000D01*
X228241984Y-64945000D01*
X227539710Y-65084691D01*
X226878182Y-65358705D01*
X226282823Y-65756511D01*
X225776511Y-66262823D01*
X225378705Y-66858182D01*
X225104691Y-67519710D01*
X224965000Y-68221984D01*
X207225393Y-68221984D01*
X207228072Y-67730000D01*
X207215812Y-67605518D01*
X207179502Y-67485820D01*
X207120537Y-67375506D01*
X207041185Y-67278815D01*
X206944494Y-67199463D01*
X206834180Y-67140498D01*
X206714482Y-67104188D01*
X206590000Y-67091928D01*
X206025750Y-67095000D01*
X205867000Y-67253750D01*
X205613000Y-67253750D01*
X205454250Y-67095000D01*
X204890000Y-67091928D01*
X204765518Y-67104188D01*
X204645820Y-67140498D01*
X204535506Y-67199463D01*
X204438815Y-67278815D01*
X204359463Y-67375506D01*
X204300498Y-67485820D01*
X204278487Y-67558380D01*
X204146632Y-67426525D01*
X203903411Y-67264010D01*
X203633158Y-67152068D01*
X203346260Y-67095000D01*
X203053740Y-67095000D01*
X202766842Y-67152068D01*
X202496589Y-67264010D01*
X202253368Y-67426525D01*
X202046525Y-67633368D01*
X201930000Y-67807760D01*
X201813475Y-67633368D01*
X201606632Y-67426525D01*
X201363411Y-67264010D01*
X201093158Y-67152068D01*
X200806260Y-67095000D01*
X200513740Y-67095000D01*
X200226842Y-67152068D01*
X199956589Y-67264010D01*
X199713368Y-67426525D01*
X199506525Y-67633368D01*
X199390000Y-67807760D01*
X199273475Y-67633368D01*
X199066632Y-67426525D01*
X198823411Y-67264010D01*
X198553158Y-67152068D01*
X198266260Y-67095000D01*
X197973740Y-67095000D01*
X197686842Y-67152068D01*
X197416589Y-67264010D01*
X197173368Y-67426525D01*
X196966525Y-67633368D01*
X196850000Y-67807760D01*
X196733475Y-67633368D01*
X196526632Y-67426525D01*
X196283411Y-67264010D01*
X196013158Y-67152068D01*
X195726260Y-67095000D01*
X195433740Y-67095000D01*
X195146842Y-67152068D01*
X194876589Y-67264010D01*
X194633368Y-67426525D01*
X194426525Y-67633368D01*
X194310000Y-67807760D01*
X194193475Y-67633368D01*
X193986632Y-67426525D01*
X193743411Y-67264010D01*
X193473158Y-67152068D01*
X193186260Y-67095000D01*
X192893740Y-67095000D01*
X192606842Y-67152068D01*
X192336589Y-67264010D01*
X192093368Y-67426525D01*
X191886525Y-67633368D01*
X191770000Y-67807760D01*
X191653475Y-67633368D01*
X191446632Y-67426525D01*
X191203411Y-67264010D01*
X190933158Y-67152068D01*
X190646260Y-67095000D01*
X190353740Y-67095000D01*
X190066842Y-67152068D01*
X189796589Y-67264010D01*
X189553368Y-67426525D01*
X189346525Y-67633368D01*
X189184010Y-67876589D01*
X189072068Y-68146842D01*
X189015000Y-68433740D01*
X63325000Y-68433740D01*
X63325000Y-68221984D01*
X63185309Y-67519710D01*
X62911295Y-66858182D01*
X62513489Y-66262823D01*
X62007177Y-65756511D01*
X61411818Y-65358705D01*
X60750290Y-65084691D01*
X60048016Y-64945000D01*
X59331984Y-64945000D01*
X58629710Y-65084691D01*
X57968182Y-65358705D01*
X57372823Y-65756511D01*
X56866511Y-66262823D01*
X56468705Y-66858182D01*
X56194691Y-67519710D01*
X56055000Y-68221984D01*
X52730000Y-68221984D01*
X52730000Y-66069392D01*
X52802437Y-65257751D01*
X53009672Y-64500226D01*
X53347777Y-63791375D01*
X53806067Y-63153596D01*
X54370055Y-62607054D01*
X55021913Y-62169023D01*
X55741038Y-61853349D01*
X56509768Y-61668794D01*
X57174207Y-61620000D01*
X231110608Y-61620000D01*
X231922249Y-61692437D01*
%TA.AperFunction,Conductor*%
D23*
G36*
X231922249Y-61692437D02*
G01*
X232679774Y-61899672D01*
X233388625Y-62237777D01*
X234026404Y-62696067D01*
X234572946Y-63260055D01*
X235010977Y-63911913D01*
X235326651Y-64631038D01*
X235511206Y-65399768D01*
X235560000Y-66064207D01*
X235560001Y-132050597D01*
X235487563Y-132862249D01*
X235280328Y-133619774D01*
X234942221Y-134328627D01*
X234483928Y-134966410D01*
X233919945Y-135512946D01*
X233268085Y-135950978D01*
X232548963Y-136266651D01*
X231780232Y-136451206D01*
X231115792Y-136500000D01*
X57179392Y-136500000D01*
X56367751Y-136427563D01*
X55610226Y-136220328D01*
X54901373Y-135882221D01*
X54263590Y-135423928D01*
X53717054Y-134859945D01*
X53279022Y-134208085D01*
X52963349Y-133488963D01*
X52778794Y-132720232D01*
X52730000Y-132055792D01*
X52730000Y-130451984D01*
X56055000Y-130451984D01*
X56055000Y-131168016D01*
X56194691Y-131870290D01*
X56468705Y-132531818D01*
X56866511Y-133127177D01*
X57372823Y-133633489D01*
X57968182Y-134031295D01*
X58629710Y-134305309D01*
X59331984Y-134445000D01*
X60048016Y-134445000D01*
X60750290Y-134305309D01*
X61411818Y-134031295D01*
X62007177Y-133633489D01*
X62513489Y-133127177D01*
X62911295Y-132531818D01*
X63185309Y-131870290D01*
X63325000Y-131168016D01*
X63325000Y-130451984D01*
X63185309Y-129749710D01*
X62911295Y-129088182D01*
X62513489Y-128492823D01*
X62007177Y-127986511D01*
X61411818Y-127588705D01*
X60750290Y-127314691D01*
X60048016Y-127175000D01*
X59331984Y-127175000D01*
X58629710Y-127314691D01*
X57968182Y-127588705D01*
X57372823Y-127986511D01*
X56866511Y-128492823D01*
X56468705Y-129088182D01*
X56194691Y-129749710D01*
X56055000Y-130451984D01*
X52730000Y-130451984D01*
X52730000Y-118683475D01*
X130499000Y-118683475D01*
X130499000Y-119202525D01*
X130600261Y-119711601D01*
X130798893Y-120191141D01*
X131087262Y-120622715D01*
X131454285Y-120989738D01*
X131885859Y-121278107D01*
X132365399Y-121476739D01*
X132874475Y-121578000D01*
X133393525Y-121578000D01*
X133902601Y-121476739D01*
X134259160Y-121329047D01*
X134225394Y-121440359D01*
X134205928Y-121638000D01*
X134205928Y-122388000D01*
X134225394Y-122585641D01*
X134283044Y-122775686D01*
X134376661Y-122950833D01*
X134502650Y-123104350D01*
X134656167Y-123230339D01*
X134717272Y-123263000D01*
X134656167Y-123295661D01*
X134502650Y-123421650D01*
X134376661Y-123575167D01*
X134283044Y-123750314D01*
X134225394Y-123940359D01*
X134205928Y-124138000D01*
X134205928Y-124888000D01*
X134225394Y-125085641D01*
X134283044Y-125275686D01*
X134376661Y-125450833D01*
X134427680Y-125513000D01*
X134376661Y-125575167D01*
X134283044Y-125750314D01*
X134225394Y-125940359D01*
X134205928Y-126138000D01*
X134205928Y-126888000D01*
X134225394Y-127085641D01*
X134283044Y-127275686D01*
X134376661Y-127450833D01*
X134502650Y-127604350D01*
X134656167Y-127730339D01*
X134717272Y-127763000D01*
X134656167Y-127795661D01*
X134502650Y-127921650D01*
X134376661Y-128075167D01*
X134283044Y-128250314D01*
X134225394Y-128440359D01*
X134205928Y-128638000D01*
X134205928Y-129388000D01*
X134225394Y-129585641D01*
X134259160Y-129696953D01*
X133902601Y-129549261D01*
X133393525Y-129448000D01*
X132874475Y-129448000D01*
X132365399Y-129549261D01*
X131885859Y-129747893D01*
X131454285Y-130036262D01*
X131087262Y-130403285D01*
X130798893Y-130834859D01*
X130600261Y-131314399D01*
X130499000Y-131823475D01*
X130499000Y-132342525D01*
X130600261Y-132851601D01*
X130798893Y-133331141D01*
X131087262Y-133762715D01*
X131454285Y-134129738D01*
X131885859Y-134418107D01*
X132365399Y-134616739D01*
X132874475Y-134718000D01*
X133393525Y-134718000D01*
X133902601Y-134616739D01*
X134382141Y-134418107D01*
X134813715Y-134129738D01*
X135180738Y-133762715D01*
X135469107Y-133331141D01*
X135667739Y-132851601D01*
X135769000Y-132342525D01*
X135769000Y-131823475D01*
X135667739Y-131314399D01*
X135469107Y-130834859D01*
X135180738Y-130403285D01*
X135174103Y-130396650D01*
X135219000Y-130401072D01*
X136469000Y-130401072D01*
X136666641Y-130381606D01*
X136856686Y-130323956D01*
X137031833Y-130230339D01*
X137185350Y-130104350D01*
X137311339Y-129950833D01*
X137404956Y-129775686D01*
X137462606Y-129585641D01*
X137482072Y-129388000D01*
X137482072Y-128803061D01*
X138665000Y-128803061D01*
X138665000Y-129006939D01*
X138704774Y-129206898D01*
X138782795Y-129395256D01*
X138896063Y-129564774D01*
X139040226Y-129708937D01*
X139209744Y-129822205D01*
X139398102Y-129900226D01*
X139598061Y-129940000D01*
X139801939Y-129940000D01*
X140001898Y-129900226D01*
X140190256Y-129822205D01*
X140359774Y-129708937D01*
X140503937Y-129564774D01*
X140601967Y-129418061D01*
X143765000Y-129418061D01*
X143765000Y-129621939D01*
X143804774Y-129821898D01*
X143882795Y-130010256D01*
X143996063Y-130179774D01*
X144140226Y-130323937D01*
X144309744Y-130437205D01*
X144498102Y-130515226D01*
X144698061Y-130555000D01*
X144901939Y-130555000D01*
X145101898Y-130515226D01*
X145290256Y-130437205D01*
X145459774Y-130323937D01*
X145603937Y-130179774D01*
X145717205Y-130010256D01*
X145795226Y-129821898D01*
X145835000Y-129621939D01*
X145835000Y-129418061D01*
X145795226Y-129218102D01*
X145780266Y-129181984D01*
X224965000Y-129181984D01*
X224965000Y-129898016D01*
X225104691Y-130600290D01*
X225378705Y-131261818D01*
X225776511Y-131857177D01*
X226282823Y-132363489D01*
X226878182Y-132761295D01*
X227539710Y-133035309D01*
X228241984Y-133175000D01*
X228958016Y-133175000D01*
X229660290Y-133035309D01*
X230321818Y-132761295D01*
X230917177Y-132363489D01*
X231423489Y-131857177D01*
X231821295Y-131261818D01*
X232095309Y-130600290D01*
X232235000Y-129898016D01*
X232235000Y-129181984D01*
X232095309Y-128479710D01*
X231821295Y-127818182D01*
X231423489Y-127222823D01*
X230917177Y-126716511D01*
X230321818Y-126318705D01*
X229660290Y-126044691D01*
X228958016Y-125905000D01*
X228241984Y-125905000D01*
X227539710Y-126044691D01*
X226878182Y-126318705D01*
X226282823Y-126716511D01*
X225776511Y-127222823D01*
X225378705Y-127818182D01*
X225104691Y-128479710D01*
X224965000Y-129181984D01*
X145780266Y-129181984D01*
X145717205Y-129029744D01*
X145603937Y-128860226D01*
X145459774Y-128716063D01*
X145290256Y-128602795D01*
X145101898Y-128524774D01*
X144901939Y-128485000D01*
X144698061Y-128485000D01*
X144498102Y-128524774D01*
X144309744Y-128602795D01*
X144140226Y-128716063D01*
X143996063Y-128860226D01*
X143882795Y-129029744D01*
X143804774Y-129218102D01*
X143765000Y-129418061D01*
X140601967Y-129418061D01*
X140617205Y-129395256D01*
X140695226Y-129206898D01*
X140735000Y-129006939D01*
X140735000Y-128803061D01*
X140695226Y-128603102D01*
X140617205Y-128414744D01*
X140503937Y-128245226D01*
X140359774Y-128101063D01*
X140190256Y-127987795D01*
X140001898Y-127909774D01*
X139801939Y-127870000D01*
X139598061Y-127870000D01*
X139398102Y-127909774D01*
X139209744Y-127987795D01*
X139040226Y-128101063D01*
X138896063Y-128245226D01*
X138782795Y-128414744D01*
X138704774Y-128603102D01*
X138665000Y-128803061D01*
X137482072Y-128803061D01*
X137482072Y-128638000D01*
X137462606Y-128440359D01*
X137404956Y-128250314D01*
X137311339Y-128075167D01*
X137185350Y-127921650D01*
X137031833Y-127795661D01*
X136970728Y-127763000D01*
X137031833Y-127730339D01*
X137185350Y-127604350D01*
X137311339Y-127450833D01*
X137404956Y-127275686D01*
X137462606Y-127085641D01*
X137482072Y-126888000D01*
X137482072Y-126138000D01*
X137462606Y-125940359D01*
X137404956Y-125750314D01*
X137311339Y-125575167D01*
X137260320Y-125513000D01*
X137311339Y-125450833D01*
X137404956Y-125275686D01*
X137462606Y-125085641D01*
X137482072Y-124888000D01*
X137482072Y-124267859D01*
X146920000Y-124267859D01*
X146920000Y-124471737D01*
X146959774Y-124671696D01*
X147037795Y-124860054D01*
X147151063Y-125029572D01*
X147295226Y-125173735D01*
X147464744Y-125287003D01*
X147653102Y-125365024D01*
X147853061Y-125404798D01*
X148056939Y-125404798D01*
X148256898Y-125365024D01*
X148445256Y-125287003D01*
X148614774Y-125173735D01*
X148758937Y-125029572D01*
X148872205Y-124860054D01*
X148950226Y-124671696D01*
X148990000Y-124471737D01*
X148990000Y-124267859D01*
X148950226Y-124067900D01*
X148872205Y-123879542D01*
X148758937Y-123710024D01*
X148614774Y-123565861D01*
X148445256Y-123452593D01*
X148256898Y-123374572D01*
X148056939Y-123334798D01*
X147853061Y-123334798D01*
X147653102Y-123374572D01*
X147464744Y-123452593D01*
X147295226Y-123565861D01*
X147151063Y-123710024D01*
X147037795Y-123879542D01*
X146959774Y-124067900D01*
X146920000Y-124267859D01*
X137482072Y-124267859D01*
X137482072Y-124138000D01*
X137462606Y-123940359D01*
X137404956Y-123750314D01*
X137311339Y-123575167D01*
X137185350Y-123421650D01*
X137031833Y-123295661D01*
X136970728Y-123263000D01*
X137031833Y-123230339D01*
X137185350Y-123104350D01*
X137198718Y-123088061D01*
X143110000Y-123088061D01*
X143110000Y-123291939D01*
X143149774Y-123491898D01*
X143227795Y-123680256D01*
X143341063Y-123849774D01*
X143485226Y-123993937D01*
X143654744Y-124107205D01*
X143843102Y-124185226D01*
X144043061Y-124225000D01*
X144246939Y-124225000D01*
X144446898Y-124185226D01*
X144635256Y-124107205D01*
X144804774Y-123993937D01*
X144948937Y-123849774D01*
X145062205Y-123680256D01*
X145140226Y-123491898D01*
X145180000Y-123291939D01*
X145180000Y-123088061D01*
X145140226Y-122888102D01*
X145062205Y-122699744D01*
X144948937Y-122530226D01*
X144804774Y-122386063D01*
X144635256Y-122272795D01*
X144446898Y-122194774D01*
X144246939Y-122155000D01*
X144043061Y-122155000D01*
X143843102Y-122194774D01*
X143654744Y-122272795D01*
X143485226Y-122386063D01*
X143341063Y-122530226D01*
X143227795Y-122699744D01*
X143149774Y-122888102D01*
X143110000Y-123088061D01*
X137198718Y-123088061D01*
X137311339Y-122950833D01*
X137404956Y-122775686D01*
X137462606Y-122585641D01*
X137482072Y-122388000D01*
X137482072Y-121638000D01*
X137462606Y-121440359D01*
X137404956Y-121250314D01*
X137369009Y-121183061D01*
X138030014Y-121183061D01*
X138030014Y-121386939D01*
X138069788Y-121586898D01*
X138147809Y-121775256D01*
X138261077Y-121944774D01*
X138405240Y-122088937D01*
X138574758Y-122202205D01*
X138763116Y-122280226D01*
X138963075Y-122320000D01*
X139166953Y-122320000D01*
X139366912Y-122280226D01*
X139555270Y-122202205D01*
X139724788Y-122088937D01*
X139868951Y-121944774D01*
X139982219Y-121775256D01*
X140060240Y-121586898D01*
X140100014Y-121386939D01*
X140100014Y-121312528D01*
X145135546Y-121312528D01*
X145135546Y-121516406D01*
X145175320Y-121716365D01*
X145253341Y-121904723D01*
X145366609Y-122074241D01*
X145510772Y-122218404D01*
X145680290Y-122331672D01*
X145868648Y-122409693D01*
X146068607Y-122449467D01*
X146272485Y-122449467D01*
X146472444Y-122409693D01*
X146660802Y-122331672D01*
X146830320Y-122218404D01*
X146974483Y-122074241D01*
X147087751Y-121904723D01*
X147165772Y-121716365D01*
X147205546Y-121516406D01*
X147205546Y-121312528D01*
X147165772Y-121112569D01*
X147087751Y-120924211D01*
X146974483Y-120754693D01*
X146830320Y-120610530D01*
X146660802Y-120497262D01*
X146640777Y-120488967D01*
X157115000Y-120488967D01*
X157115000Y-120811033D01*
X157177832Y-121126912D01*
X157301082Y-121424463D01*
X157480013Y-121692252D01*
X157707748Y-121919987D01*
X157975537Y-122098918D01*
X158273088Y-122222168D01*
X158588967Y-122285000D01*
X158911033Y-122285000D01*
X159226912Y-122222168D01*
X159524463Y-122098918D01*
X159792252Y-121919987D01*
X160019987Y-121692252D01*
X160020000Y-121692233D01*
X160020013Y-121692252D01*
X160247748Y-121919987D01*
X160515537Y-122098918D01*
X160813088Y-122222168D01*
X161128967Y-122285000D01*
X161451033Y-122285000D01*
X161766912Y-122222168D01*
X162064463Y-122098918D01*
X162332252Y-121919987D01*
X162559987Y-121692252D01*
X162560000Y-121692233D01*
X162560013Y-121692252D01*
X162787748Y-121919987D01*
X163055537Y-122098918D01*
X163353088Y-122222168D01*
X163668967Y-122285000D01*
X163991033Y-122285000D01*
X164306912Y-122222168D01*
X164604463Y-122098918D01*
X164872252Y-121919987D01*
X165099987Y-121692252D01*
X165100000Y-121692233D01*
X165100013Y-121692252D01*
X165327748Y-121919987D01*
X165595537Y-122098918D01*
X165893088Y-122222168D01*
X166208967Y-122285000D01*
X166531033Y-122285000D01*
X166846912Y-122222168D01*
X167144463Y-122098918D01*
X167412252Y-121919987D01*
X167639987Y-121692252D01*
X167640000Y-121692233D01*
X167640013Y-121692252D01*
X167867748Y-121919987D01*
X168135537Y-122098918D01*
X168433088Y-122222168D01*
X168748967Y-122285000D01*
X169071033Y-122285000D01*
X169386912Y-122222168D01*
X169684463Y-122098918D01*
X169952252Y-121919987D01*
X170179987Y-121692252D01*
X170180000Y-121692233D01*
X170180013Y-121692252D01*
X170407748Y-121919987D01*
X170675537Y-122098918D01*
X170973088Y-122222168D01*
X171288967Y-122285000D01*
X171611033Y-122285000D01*
X171926912Y-122222168D01*
X172224463Y-122098918D01*
X172492252Y-121919987D01*
X172719987Y-121692252D01*
X172720000Y-121692233D01*
X172720013Y-121692252D01*
X172947748Y-121919987D01*
X173215537Y-122098918D01*
X173513088Y-122222168D01*
X173828967Y-122285000D01*
X174151033Y-122285000D01*
X174466912Y-122222168D01*
X174764463Y-122098918D01*
X175032252Y-121919987D01*
X175259987Y-121692252D01*
X175260000Y-121692233D01*
X175260013Y-121692252D01*
X175487748Y-121919987D01*
X175755537Y-122098918D01*
X176053088Y-122222168D01*
X176368967Y-122285000D01*
X176691033Y-122285000D01*
X177006912Y-122222168D01*
X177304463Y-122098918D01*
X177572252Y-121919987D01*
X177799987Y-121692252D01*
X177800000Y-121692233D01*
X177800013Y-121692252D01*
X178027748Y-121919987D01*
X178295537Y-122098918D01*
X178593088Y-122222168D01*
X178908967Y-122285000D01*
X179231033Y-122285000D01*
X179546912Y-122222168D01*
X179844463Y-122098918D01*
X180112252Y-121919987D01*
X180339987Y-121692252D01*
X180340000Y-121692233D01*
X180340013Y-121692252D01*
X180567748Y-121919987D01*
X180835537Y-122098918D01*
X181133088Y-122222168D01*
X181448967Y-122285000D01*
X181771033Y-122285000D01*
X182086912Y-122222168D01*
X182384463Y-122098918D01*
X182652252Y-121919987D01*
X182879987Y-121692252D01*
X182880000Y-121692233D01*
X182880013Y-121692252D01*
X183107748Y-121919987D01*
X183375537Y-122098918D01*
X183673088Y-122222168D01*
X183988967Y-122285000D01*
X184311033Y-122285000D01*
X184626912Y-122222168D01*
X184924463Y-122098918D01*
X185192252Y-121919987D01*
X185419987Y-121692252D01*
X185420000Y-121692233D01*
X185420013Y-121692252D01*
X185647748Y-121919987D01*
X185915537Y-122098918D01*
X186213088Y-122222168D01*
X186528967Y-122285000D01*
X186851033Y-122285000D01*
X187166912Y-122222168D01*
X187464463Y-122098918D01*
X187732252Y-121919987D01*
X187959987Y-121692252D01*
X187960000Y-121692233D01*
X187960013Y-121692252D01*
X188187748Y-121919987D01*
X188455537Y-122098918D01*
X188753088Y-122222168D01*
X189068967Y-122285000D01*
X189391033Y-122285000D01*
X189706912Y-122222168D01*
X190004463Y-122098918D01*
X190272252Y-121919987D01*
X190499987Y-121692252D01*
X190500000Y-121692233D01*
X190500013Y-121692252D01*
X190727748Y-121919987D01*
X190995537Y-122098918D01*
X191293088Y-122222168D01*
X191608967Y-122285000D01*
X191931033Y-122285000D01*
X192246912Y-122222168D01*
X192544463Y-122098918D01*
X192812252Y-121919987D01*
X193039987Y-121692252D01*
X193040000Y-121692233D01*
X193040013Y-121692252D01*
X193267748Y-121919987D01*
X193535537Y-122098918D01*
X193833088Y-122222168D01*
X194148967Y-122285000D01*
X194471033Y-122285000D01*
X194786912Y-122222168D01*
X195084463Y-122098918D01*
X195352252Y-121919987D01*
X195579987Y-121692252D01*
X195580000Y-121692233D01*
X195580013Y-121692252D01*
X195807748Y-121919987D01*
X196075537Y-122098918D01*
X196373088Y-122222168D01*
X196688967Y-122285000D01*
X197011033Y-122285000D01*
X197326912Y-122222168D01*
X197624463Y-122098918D01*
X197892252Y-121919987D01*
X198119987Y-121692252D01*
X198120000Y-121692233D01*
X198120013Y-121692252D01*
X198347748Y-121919987D01*
X198615537Y-122098918D01*
X198913088Y-122222168D01*
X199228967Y-122285000D01*
X199551033Y-122285000D01*
X199866912Y-122222168D01*
X200164463Y-122098918D01*
X200432252Y-121919987D01*
X200659987Y-121692252D01*
X200660000Y-121692233D01*
X200660013Y-121692252D01*
X200887748Y-121919987D01*
X201155537Y-122098918D01*
X201453088Y-122222168D01*
X201768967Y-122285000D01*
X202091033Y-122285000D01*
X202406912Y-122222168D01*
X202704463Y-122098918D01*
X202972252Y-121919987D01*
X203199987Y-121692252D01*
X203272720Y-121583400D01*
X203334587Y-121605808D01*
X204290395Y-120650000D01*
X203334587Y-119694192D01*
X203272720Y-119716600D01*
X203199987Y-119607748D01*
X203106826Y-119514587D01*
X203514192Y-119514587D01*
X204470000Y-120470395D01*
X204484143Y-120456253D01*
X204663748Y-120635858D01*
X204649605Y-120650000D01*
X204663748Y-120664143D01*
X204484143Y-120843748D01*
X204470000Y-120829605D01*
X203514192Y-121785413D01*
X203609956Y-122049814D01*
X203899571Y-122190704D01*
X204211108Y-122272384D01*
X204532595Y-122291718D01*
X204851675Y-122247961D01*
X205156088Y-122142795D01*
X205330044Y-122049814D01*
X205404963Y-121842967D01*
X205420498Y-121894180D01*
X205479463Y-122004494D01*
X205558815Y-122101185D01*
X205655506Y-122180537D01*
X205765820Y-122239502D01*
X205885518Y-122275812D01*
X206010000Y-122288072D01*
X208010000Y-122288072D01*
X208134482Y-122275812D01*
X208254180Y-122239502D01*
X208364494Y-122180537D01*
X208461185Y-122101185D01*
X208540537Y-122004494D01*
X208599502Y-121894180D01*
X208635812Y-121774482D01*
X208648072Y-121650000D01*
X208648072Y-119650000D01*
X208635812Y-119525518D01*
X208599502Y-119405820D01*
X208540537Y-119295506D01*
X208461185Y-119198815D01*
X208364494Y-119119463D01*
X208254180Y-119060498D01*
X208134482Y-119024188D01*
X208010000Y-119011928D01*
X206010000Y-119011928D01*
X205885518Y-119024188D01*
X205765820Y-119060498D01*
X205655506Y-119119463D01*
X205558815Y-119198815D01*
X205479463Y-119295506D01*
X205420498Y-119405820D01*
X205404963Y-119457033D01*
X205330044Y-119250186D01*
X205040429Y-119109296D01*
X204728892Y-119027616D01*
X204407405Y-119008282D01*
X204088325Y-119052039D01*
X203783912Y-119157205D01*
X203609956Y-119250186D01*
X203514192Y-119514587D01*
X203106826Y-119514587D01*
X202972252Y-119380013D01*
X202704463Y-119201082D01*
X202406912Y-119077832D01*
X202091033Y-119015000D01*
X201768967Y-119015000D01*
X201453088Y-119077832D01*
X201155537Y-119201082D01*
X200887748Y-119380013D01*
X200660013Y-119607748D01*
X200660000Y-119607767D01*
X200659987Y-119607748D01*
X200432252Y-119380013D01*
X200164463Y-119201082D01*
X199866912Y-119077832D01*
X199551033Y-119015000D01*
X199228967Y-119015000D01*
X198913088Y-119077832D01*
X198615537Y-119201082D01*
X198347748Y-119380013D01*
X198120013Y-119607748D01*
X198120000Y-119607767D01*
X198119987Y-119607748D01*
X197892252Y-119380013D01*
X197624463Y-119201082D01*
X197340324Y-119083387D01*
X197399937Y-119023774D01*
X197513205Y-118854256D01*
X197591226Y-118665898D01*
X197631000Y-118465939D01*
X197631000Y-118383000D01*
X197713939Y-118383000D01*
X197913898Y-118343226D01*
X198102256Y-118265205D01*
X198271774Y-118151937D01*
X198415937Y-118007774D01*
X198529205Y-117838256D01*
X198607226Y-117649898D01*
X198647000Y-117449939D01*
X198647000Y-117246061D01*
X198607226Y-117046102D01*
X198529205Y-116857744D01*
X198449236Y-116738061D01*
X205467000Y-116738061D01*
X205467000Y-116941939D01*
X205506774Y-117141898D01*
X205584795Y-117330256D01*
X205698063Y-117499774D01*
X205842226Y-117643937D01*
X206011744Y-117757205D01*
X206200102Y-117835226D01*
X206400061Y-117875000D01*
X206603939Y-117875000D01*
X206803898Y-117835226D01*
X206992256Y-117757205D01*
X207161774Y-117643937D01*
X207305937Y-117499774D01*
X207419205Y-117330256D01*
X207497226Y-117141898D01*
X207537000Y-116941939D01*
X207537000Y-116738061D01*
X207497226Y-116538102D01*
X207419205Y-116349744D01*
X207305937Y-116180226D01*
X207161774Y-116036063D01*
X206992256Y-115922795D01*
X206803898Y-115844774D01*
X206603939Y-115805000D01*
X206400061Y-115805000D01*
X206200102Y-115844774D01*
X206011744Y-115922795D01*
X205842226Y-116036063D01*
X205698063Y-116180226D01*
X205584795Y-116349744D01*
X205506774Y-116538102D01*
X205467000Y-116738061D01*
X198449236Y-116738061D01*
X198415937Y-116688226D01*
X198271774Y-116544063D01*
X198102256Y-116430795D01*
X197913898Y-116352774D01*
X197713939Y-116313000D01*
X197510061Y-116313000D01*
X197310102Y-116352774D01*
X197121744Y-116430795D01*
X196952226Y-116544063D01*
X196808063Y-116688226D01*
X196694795Y-116857744D01*
X196616774Y-117046102D01*
X196577000Y-117246061D01*
X196577000Y-117329000D01*
X196494061Y-117329000D01*
X196294102Y-117368774D01*
X196105744Y-117446795D01*
X195936226Y-117560063D01*
X195792063Y-117704226D01*
X195678795Y-117873744D01*
X195600774Y-118062102D01*
X195561000Y-118262061D01*
X195561000Y-118465939D01*
X195600774Y-118665898D01*
X195678795Y-118854256D01*
X195792063Y-119023774D01*
X195936226Y-119167937D01*
X196030684Y-119231052D01*
X195807748Y-119380013D01*
X195580013Y-119607748D01*
X195580000Y-119607767D01*
X195579987Y-119607748D01*
X195352252Y-119380013D01*
X195084463Y-119201082D01*
X194786912Y-119077832D01*
X194471033Y-119015000D01*
X194148967Y-119015000D01*
X193833088Y-119077832D01*
X193535537Y-119201082D01*
X193267748Y-119380013D01*
X193040013Y-119607748D01*
X193040000Y-119607767D01*
X193039987Y-119607748D01*
X192812252Y-119380013D01*
X192544463Y-119201082D01*
X192246912Y-119077832D01*
X191931033Y-119015000D01*
X191608967Y-119015000D01*
X191293088Y-119077832D01*
X190995537Y-119201082D01*
X190727748Y-119380013D01*
X190500013Y-119607748D01*
X190500000Y-119607767D01*
X190499987Y-119607748D01*
X190272252Y-119380013D01*
X190004463Y-119201082D01*
X189706912Y-119077832D01*
X189391033Y-119015000D01*
X189068967Y-119015000D01*
X188753088Y-119077832D01*
X188455537Y-119201082D01*
X188187748Y-119380013D01*
X187960013Y-119607748D01*
X187960000Y-119607767D01*
X187959987Y-119607748D01*
X187732252Y-119380013D01*
X187464463Y-119201082D01*
X187166912Y-119077832D01*
X186851033Y-119015000D01*
X186528967Y-119015000D01*
X186213088Y-119077832D01*
X185915537Y-119201082D01*
X185647748Y-119380013D01*
X185420013Y-119607748D01*
X185420000Y-119607767D01*
X185419987Y-119607748D01*
X185192252Y-119380013D01*
X184924463Y-119201082D01*
X184626912Y-119077832D01*
X184311033Y-119015000D01*
X183988967Y-119015000D01*
X183673088Y-119077832D01*
X183375537Y-119201082D01*
X183107748Y-119380013D01*
X182880013Y-119607748D01*
X182880000Y-119607767D01*
X182879987Y-119607748D01*
X182652252Y-119380013D01*
X182384463Y-119201082D01*
X182086912Y-119077832D01*
X181771033Y-119015000D01*
X181448967Y-119015000D01*
X181133088Y-119077832D01*
X180835537Y-119201082D01*
X180567748Y-119380013D01*
X180340013Y-119607748D01*
X180340000Y-119607767D01*
X180339987Y-119607748D01*
X180112252Y-119380013D01*
X179844463Y-119201082D01*
X179546912Y-119077832D01*
X179231033Y-119015000D01*
X178908967Y-119015000D01*
X178593088Y-119077832D01*
X178295537Y-119201082D01*
X178027748Y-119380013D01*
X177800013Y-119607748D01*
X177800000Y-119607767D01*
X177799987Y-119607748D01*
X177572252Y-119380013D01*
X177304463Y-119201082D01*
X177006912Y-119077832D01*
X176691033Y-119015000D01*
X176368967Y-119015000D01*
X176053088Y-119077832D01*
X175755537Y-119201082D01*
X175487748Y-119380013D01*
X175260013Y-119607748D01*
X175260000Y-119607767D01*
X175259987Y-119607748D01*
X175032252Y-119380013D01*
X174764463Y-119201082D01*
X174466912Y-119077832D01*
X174151033Y-119015000D01*
X173828967Y-119015000D01*
X173513088Y-119077832D01*
X173215537Y-119201082D01*
X172947748Y-119380013D01*
X172720013Y-119607748D01*
X172720000Y-119607767D01*
X172719987Y-119607748D01*
X172492252Y-119380013D01*
X172224463Y-119201082D01*
X171926912Y-119077832D01*
X171611033Y-119015000D01*
X171288967Y-119015000D01*
X170973088Y-119077832D01*
X170675537Y-119201082D01*
X170407748Y-119380013D01*
X170180013Y-119607748D01*
X170180000Y-119607767D01*
X170179987Y-119607748D01*
X169952252Y-119380013D01*
X169684463Y-119201082D01*
X169386912Y-119077832D01*
X169071033Y-119015000D01*
X168748967Y-119015000D01*
X168433088Y-119077832D01*
X168135537Y-119201082D01*
X167867748Y-119380013D01*
X167640013Y-119607748D01*
X167640000Y-119607767D01*
X167639987Y-119607748D01*
X167412252Y-119380013D01*
X167144463Y-119201082D01*
X166846912Y-119077832D01*
X166531033Y-119015000D01*
X166208967Y-119015000D01*
X165893088Y-119077832D01*
X165595537Y-119201082D01*
X165327748Y-119380013D01*
X165100013Y-119607748D01*
X165100000Y-119607767D01*
X165099987Y-119607748D01*
X164872252Y-119380013D01*
X164604463Y-119201082D01*
X164306912Y-119077832D01*
X163991033Y-119015000D01*
X163668967Y-119015000D01*
X163353088Y-119077832D01*
X163055537Y-119201082D01*
X162787748Y-119380013D01*
X162560013Y-119607748D01*
X162560000Y-119607767D01*
X162559987Y-119607748D01*
X162332252Y-119380013D01*
X162064463Y-119201082D01*
X161766912Y-119077832D01*
X161451033Y-119015000D01*
X161128967Y-119015000D01*
X160813088Y-119077832D01*
X160515537Y-119201082D01*
X160247748Y-119380013D01*
X160020013Y-119607748D01*
X160020000Y-119607767D01*
X160019987Y-119607748D01*
X159792252Y-119380013D01*
X159524463Y-119201082D01*
X159226912Y-119077832D01*
X158911033Y-119015000D01*
X158588967Y-119015000D01*
X158273088Y-119077832D01*
X157975537Y-119201082D01*
X157707748Y-119380013D01*
X157480013Y-119607748D01*
X157301082Y-119875537D01*
X157177832Y-120173088D01*
X157115000Y-120488967D01*
X146640777Y-120488967D01*
X146472444Y-120419241D01*
X146272485Y-120379467D01*
X146068607Y-120379467D01*
X145868648Y-120419241D01*
X145680290Y-120497262D01*
X145510772Y-120610530D01*
X145366609Y-120754693D01*
X145253341Y-120924211D01*
X145175320Y-121112569D01*
X145135546Y-121312528D01*
X140100014Y-121312528D01*
X140100014Y-121183061D01*
X140060240Y-120983102D01*
X139982219Y-120794744D01*
X139868951Y-120625226D01*
X139724788Y-120481063D01*
X139555270Y-120367795D01*
X139366912Y-120289774D01*
X139166953Y-120250000D01*
X138963075Y-120250000D01*
X138763116Y-120289774D01*
X138574758Y-120367795D01*
X138405240Y-120481063D01*
X138261077Y-120625226D01*
X138147809Y-120794744D01*
X138069788Y-120983102D01*
X138030014Y-121183061D01*
X137369009Y-121183061D01*
X137311339Y-121075167D01*
X137185350Y-120921650D01*
X137031833Y-120795661D01*
X136856686Y-120702044D01*
X136666641Y-120644394D01*
X136469000Y-120624928D01*
X135219000Y-120624928D01*
X135174103Y-120629350D01*
X135180738Y-120622715D01*
X135469107Y-120191141D01*
X135667739Y-119711601D01*
X135769000Y-119202525D01*
X135769000Y-118683475D01*
X135667739Y-118174399D01*
X135469107Y-117694859D01*
X135254089Y-117373061D01*
X138665000Y-117373061D01*
X138665000Y-117576939D01*
X138704774Y-117776898D01*
X138782795Y-117965256D01*
X138896063Y-118134774D01*
X139040226Y-118278937D01*
X139209744Y-118392205D01*
X139398102Y-118470226D01*
X139598061Y-118510000D01*
X139801939Y-118510000D01*
X140001898Y-118470226D01*
X140190256Y-118392205D01*
X140359774Y-118278937D01*
X140503937Y-118134774D01*
X140617205Y-117965256D01*
X140695226Y-117776898D01*
X140735000Y-117576939D01*
X140735000Y-117373061D01*
X140695226Y-117173102D01*
X140617205Y-116984744D01*
X140503937Y-116815226D01*
X140359774Y-116671063D01*
X140190256Y-116557795D01*
X140001898Y-116479774D01*
X139801939Y-116440000D01*
X139598061Y-116440000D01*
X139398102Y-116479774D01*
X139209744Y-116557795D01*
X139040226Y-116671063D01*
X138896063Y-116815226D01*
X138782795Y-116984744D01*
X138704774Y-117173102D01*
X138665000Y-117373061D01*
X135254089Y-117373061D01*
X135180738Y-117263285D01*
X134813715Y-116896262D01*
X134382141Y-116607893D01*
X133902601Y-116409261D01*
X133393525Y-116308000D01*
X132874475Y-116308000D01*
X132365399Y-116409261D01*
X131885859Y-116607893D01*
X131454285Y-116896262D01*
X131087262Y-117263285D01*
X130798893Y-117694859D01*
X130600261Y-118174399D01*
X130499000Y-118683475D01*
X52730000Y-118683475D01*
X52730000Y-101600000D01*
X60280000Y-101600000D01*
X60364378Y-103236910D01*
X60616617Y-104856469D01*
X61034045Y-106441508D01*
X61612235Y-107975226D01*
X62345059Y-109441365D01*
X63224749Y-110824384D01*
X64241980Y-112109622D01*
X65385968Y-113283455D01*
X66644589Y-114333441D01*
X68004499Y-115248449D01*
X69451283Y-116018780D01*
X70969605Y-116636269D01*
X72543371Y-117094369D01*
X74155898Y-117388225D01*
X75790093Y-117514722D01*
X77428633Y-117472519D01*
X79054150Y-117262063D01*
X80649411Y-116885586D01*
X82197508Y-116347078D01*
X83682030Y-115652246D01*
X85087240Y-114808458D01*
X85900648Y-114198061D01*
X206483000Y-114198061D01*
X206483000Y-114401939D01*
X206522774Y-114601898D01*
X206600795Y-114790256D01*
X206714063Y-114959774D01*
X206858226Y-115103937D01*
X207027744Y-115217205D01*
X207216102Y-115295226D01*
X207416061Y-115335000D01*
X207619939Y-115335000D01*
X207819898Y-115295226D01*
X208008256Y-115217205D01*
X208177774Y-115103937D01*
X208321937Y-114959774D01*
X208435205Y-114790256D01*
X208513226Y-114601898D01*
X208553000Y-114401939D01*
X208553000Y-114198061D01*
X208513226Y-113998102D01*
X208435205Y-113809744D01*
X208321937Y-113640226D01*
X208177774Y-113496063D01*
X208008256Y-113382795D01*
X207819898Y-113304774D01*
X207619939Y-113265000D01*
X207416061Y-113265000D01*
X207216102Y-113304774D01*
X207027744Y-113382795D01*
X206858226Y-113496063D01*
X206714063Y-113640226D01*
X206600795Y-113809744D01*
X206522774Y-113998102D01*
X206483000Y-114198061D01*
X85900648Y-114198061D01*
X86398243Y-113824657D01*
X87601143Y-112711271D01*
X88683187Y-111480103D01*
X89632907Y-110144203D01*
X90315024Y-108938967D01*
X112705000Y-108938967D01*
X112705000Y-109261033D01*
X112767832Y-109576912D01*
X112891082Y-109874463D01*
X113070013Y-110142252D01*
X113297748Y-110369987D01*
X113565537Y-110548918D01*
X113863088Y-110672168D01*
X114178967Y-110735000D01*
X114501033Y-110735000D01*
X114816912Y-110672168D01*
X115114463Y-110548918D01*
X115382252Y-110369987D01*
X115590000Y-110162239D01*
X115797748Y-110369987D01*
X116065537Y-110548918D01*
X116363088Y-110672168D01*
X116678967Y-110735000D01*
X117001033Y-110735000D01*
X117316912Y-110672168D01*
X117614463Y-110548918D01*
X117882252Y-110369987D01*
X118090000Y-110162239D01*
X118297748Y-110369987D01*
X118565537Y-110548918D01*
X118863088Y-110672168D01*
X119178967Y-110735000D01*
X119501033Y-110735000D01*
X119816912Y-110672168D01*
X120114463Y-110548918D01*
X120382252Y-110369987D01*
X120609987Y-110142252D01*
X120788918Y-109874463D01*
X120912168Y-109576912D01*
X120975000Y-109261033D01*
X120975000Y-108938967D01*
X120912168Y-108623088D01*
X120788918Y-108325537D01*
X120609987Y-108057748D01*
X120382252Y-107830013D01*
X120114463Y-107651082D01*
X119976803Y-107594061D01*
X195561000Y-107594061D01*
X195561000Y-107797939D01*
X195600774Y-107997898D01*
X195678795Y-108186256D01*
X195792063Y-108355774D01*
X195936226Y-108499937D01*
X196105744Y-108613205D01*
X196294102Y-108691226D01*
X196494061Y-108731000D01*
X196697939Y-108731000D01*
X196897898Y-108691226D01*
X197086256Y-108613205D01*
X197255774Y-108499937D01*
X197399937Y-108355774D01*
X197513205Y-108186256D01*
X197591226Y-107997898D01*
X197631000Y-107797939D01*
X197631000Y-107594061D01*
X198415500Y-107594061D01*
X198415500Y-107797939D01*
X198455274Y-107997898D01*
X198533295Y-108186256D01*
X198646563Y-108355774D01*
X198790726Y-108499937D01*
X198960244Y-108613205D01*
X199148602Y-108691226D01*
X199348561Y-108731000D01*
X199552439Y-108731000D01*
X199752398Y-108691226D01*
X199940756Y-108613205D01*
X200025000Y-108556915D01*
X200025000Y-108705939D01*
X200064774Y-108905898D01*
X200142795Y-109094256D01*
X200256063Y-109263774D01*
X200400226Y-109407937D01*
X200569744Y-109521205D01*
X200758102Y-109599226D01*
X200958061Y-109639000D01*
X201161939Y-109639000D01*
X201361898Y-109599226D01*
X201550256Y-109521205D01*
X201698376Y-109422235D01*
X201696774Y-109426102D01*
X201657000Y-109626061D01*
X201657000Y-109829939D01*
X201696774Y-110029898D01*
X201774795Y-110218256D01*
X201888063Y-110387774D01*
X202032226Y-110531937D01*
X202201744Y-110645205D01*
X202390102Y-110723226D01*
X202590061Y-110763000D01*
X202790275Y-110763000D01*
X202712774Y-110950102D01*
X202673000Y-111150061D01*
X202673000Y-111353939D01*
X202712774Y-111553898D01*
X202790795Y-111742256D01*
X202904063Y-111911774D01*
X203048226Y-112055937D01*
X203217744Y-112169205D01*
X203406102Y-112247226D01*
X203606061Y-112287000D01*
X203809939Y-112287000D01*
X204009898Y-112247226D01*
X204198256Y-112169205D01*
X204367774Y-112055937D01*
X204511937Y-111911774D01*
X204625205Y-111742256D01*
X204703226Y-111553898D01*
X204743000Y-111353939D01*
X204743000Y-111150061D01*
X204703226Y-110950102D01*
X204625205Y-110761744D01*
X204511937Y-110592226D01*
X204367774Y-110448063D01*
X204198256Y-110334795D01*
X204009898Y-110256774D01*
X203809939Y-110217000D01*
X203609725Y-110217000D01*
X203687226Y-110029898D01*
X203727000Y-109829939D01*
X203727000Y-109626061D01*
X203687226Y-109426102D01*
X203609205Y-109237744D01*
X203495937Y-109068226D01*
X203351774Y-108924063D01*
X203182256Y-108810795D01*
X202993898Y-108732774D01*
X202793939Y-108693000D01*
X202590061Y-108693000D01*
X202390102Y-108732774D01*
X202201744Y-108810795D01*
X202053624Y-108909765D01*
X202055226Y-108905898D01*
X202095000Y-108705939D01*
X202095000Y-108702643D01*
X202152398Y-108691226D01*
X202340756Y-108613205D01*
X202510274Y-108499937D01*
X202654437Y-108355774D01*
X202767705Y-108186256D01*
X202845726Y-107997898D01*
X202885500Y-107797939D01*
X202885500Y-107594061D01*
X202845726Y-107394102D01*
X202767705Y-107205744D01*
X202654437Y-107036226D01*
X202510274Y-106892063D01*
X202340756Y-106778795D01*
X202152398Y-106700774D01*
X201952439Y-106661000D01*
X201748561Y-106661000D01*
X201548602Y-106700774D01*
X201360244Y-106778795D01*
X201190726Y-106892063D01*
X201046563Y-107036226D01*
X200933295Y-107205744D01*
X200855274Y-107394102D01*
X200815500Y-107594061D01*
X200815500Y-107597357D01*
X200758102Y-107608774D01*
X200569744Y-107686795D01*
X200485500Y-107743085D01*
X200485500Y-107594061D01*
X200445726Y-107394102D01*
X200367705Y-107205744D01*
X200254437Y-107036226D01*
X200110274Y-106892063D01*
X199940756Y-106778795D01*
X199752398Y-106700774D01*
X199552439Y-106661000D01*
X199348561Y-106661000D01*
X199148602Y-106700774D01*
X198960244Y-106778795D01*
X198790726Y-106892063D01*
X198646563Y-107036226D01*
X198533295Y-107205744D01*
X198455274Y-107394102D01*
X198415500Y-107594061D01*
X197631000Y-107594061D01*
X197591226Y-107394102D01*
X197513205Y-107205744D01*
X197399937Y-107036226D01*
X197255774Y-106892063D01*
X197086256Y-106778795D01*
X196897898Y-106700774D01*
X196697939Y-106661000D01*
X196494061Y-106661000D01*
X196294102Y-106700774D01*
X196105744Y-106778795D01*
X195936226Y-106892063D01*
X195792063Y-107036226D01*
X195678795Y-107205744D01*
X195600774Y-107394102D01*
X195561000Y-107594061D01*
X119976803Y-107594061D01*
X119816912Y-107527832D01*
X119501033Y-107465000D01*
X119178967Y-107465000D01*
X118863088Y-107527832D01*
X118565537Y-107651082D01*
X118297748Y-107830013D01*
X118090000Y-108037761D01*
X117882252Y-107830013D01*
X117614463Y-107651082D01*
X117316912Y-107527832D01*
X117001033Y-107465000D01*
X116678967Y-107465000D01*
X116363088Y-107527832D01*
X116065537Y-107651082D01*
X115797748Y-107830013D01*
X115590000Y-108037761D01*
X115382252Y-107830013D01*
X115114463Y-107651082D01*
X114816912Y-107527832D01*
X114501033Y-107465000D01*
X114178967Y-107465000D01*
X113863088Y-107527832D01*
X113565537Y-107651082D01*
X113297748Y-107830013D01*
X113070013Y-108057748D01*
X112891082Y-108325537D01*
X112767832Y-108623088D01*
X112705000Y-108938967D01*
X90315024Y-108938967D01*
X90440234Y-108717733D01*
X91096612Y-107215813D01*
X91595081Y-105654364D01*
X91930359Y-104049938D01*
X92098892Y-102419542D01*
X92098892Y-100780458D01*
X91930359Y-99150062D01*
X91733914Y-98210000D01*
X100111928Y-98210000D01*
X100111928Y-99910000D01*
X100124188Y-100034482D01*
X100160498Y-100154180D01*
X100219463Y-100264494D01*
X100298815Y-100361185D01*
X100395506Y-100440537D01*
X100505820Y-100499502D01*
X100578380Y-100521513D01*
X100446525Y-100653368D01*
X100284010Y-100896589D01*
X100172068Y-101166842D01*
X100115000Y-101453740D01*
X100115000Y-101746260D01*
X100172068Y-102033158D01*
X100284010Y-102303411D01*
X100446525Y-102546632D01*
X100653368Y-102753475D01*
X100827760Y-102870000D01*
X100653368Y-102986525D01*
X100446525Y-103193368D01*
X100284010Y-103436589D01*
X100172068Y-103706842D01*
X100115000Y-103993740D01*
X100115000Y-104286260D01*
X100172068Y-104573158D01*
X100284010Y-104843411D01*
X100446525Y-105086632D01*
X100653368Y-105293475D01*
X100896589Y-105455990D01*
X101166842Y-105567932D01*
X101453740Y-105625000D01*
X101746260Y-105625000D01*
X102033158Y-105567932D01*
X102303411Y-105455990D01*
X102546632Y-105293475D01*
X102753475Y-105086632D01*
X102915990Y-104843411D01*
X103027932Y-104573158D01*
X103085000Y-104286260D01*
X103085000Y-103993740D01*
X103027932Y-103706842D01*
X102915990Y-103436589D01*
X102753475Y-103193368D01*
X102546632Y-102986525D01*
X102372240Y-102870000D01*
X102546632Y-102753475D01*
X102753475Y-102546632D01*
X102915990Y-102303411D01*
X103027932Y-102033158D01*
X103085000Y-101746260D01*
X103085000Y-101453740D01*
X103027932Y-101166842D01*
X102915990Y-100896589D01*
X102753475Y-100653368D01*
X102621620Y-100521513D01*
X102694180Y-100499502D01*
X102804494Y-100440537D01*
X102901185Y-100361185D01*
X102980537Y-100264494D01*
X103039502Y-100154180D01*
X103075812Y-100034482D01*
X103082107Y-99970558D01*
X109655000Y-99970558D01*
X109655000Y-103229441D01*
X109693127Y-103616549D01*
X109843799Y-104113249D01*
X110088477Y-104571010D01*
X110417759Y-104972241D01*
X110818989Y-105301523D01*
X111276750Y-105546201D01*
X111773450Y-105696873D01*
X112290000Y-105747749D01*
X112806549Y-105696873D01*
X113303249Y-105546201D01*
X113761010Y-105301523D01*
X114162241Y-104972241D01*
X114491523Y-104571011D01*
X114736201Y-104113250D01*
X114886873Y-103616550D01*
X114925000Y-103229442D01*
X114925000Y-102555804D01*
X114947988Y-102611302D01*
X115181637Y-102960983D01*
X115479017Y-103258363D01*
X115828698Y-103492012D01*
X116217244Y-103652953D01*
X116629721Y-103735000D01*
X117050279Y-103735000D01*
X117462756Y-103652953D01*
X117851302Y-103492012D01*
X118200983Y-103258363D01*
X118498363Y-102960983D01*
X118732012Y-102611302D01*
X118755000Y-102555804D01*
X118755000Y-103229441D01*
X118793127Y-103616549D01*
X118943799Y-104113249D01*
X119188477Y-104571010D01*
X119517759Y-104972241D01*
X119918989Y-105301523D01*
X120376750Y-105546201D01*
X120873450Y-105696873D01*
X121390000Y-105747749D01*
X121906549Y-105696873D01*
X122403249Y-105546201D01*
X122861010Y-105301523D01*
X123262241Y-104972241D01*
X123403543Y-104800064D01*
X192005000Y-104800064D01*
X192005000Y-105003942D01*
X192044774Y-105203901D01*
X192122795Y-105392259D01*
X192236063Y-105561777D01*
X192380226Y-105705940D01*
X192549744Y-105819208D01*
X192738102Y-105897229D01*
X192938061Y-105937003D01*
X193141939Y-105937003D01*
X193341898Y-105897229D01*
X193530256Y-105819208D01*
X193699774Y-105705940D01*
X193843937Y-105561777D01*
X193957205Y-105392259D01*
X194035226Y-105203901D01*
X194075000Y-105003942D01*
X194075000Y-104800064D01*
X194035226Y-104600105D01*
X193991334Y-104494140D01*
X194073744Y-104549205D01*
X194262102Y-104627226D01*
X194462061Y-104667000D01*
X194665939Y-104667000D01*
X194865898Y-104627226D01*
X195054256Y-104549205D01*
X195223774Y-104435937D01*
X195367937Y-104291774D01*
X195481205Y-104122256D01*
X195559226Y-103933898D01*
X195599000Y-103733939D01*
X195599000Y-103530061D01*
X195559226Y-103330102D01*
X195481205Y-103141744D01*
X195367937Y-102972226D01*
X195265711Y-102870000D01*
X195367650Y-102768061D01*
X199117000Y-102768061D01*
X199117000Y-102971939D01*
X199156774Y-103171898D01*
X199234795Y-103360256D01*
X199348063Y-103529774D01*
X199492226Y-103673937D01*
X199661744Y-103787205D01*
X199682325Y-103795730D01*
X199664774Y-103838102D01*
X199625000Y-104038061D01*
X199625000Y-104241939D01*
X199664774Y-104441898D01*
X199742795Y-104630256D01*
X199856063Y-104799774D01*
X200000226Y-104943937D01*
X200169744Y-105057205D01*
X200358102Y-105135226D01*
X200558061Y-105175000D01*
X200761939Y-105175000D01*
X200961898Y-105135226D01*
X201150256Y-105057205D01*
X201319774Y-104943937D01*
X201463937Y-104799774D01*
X201577205Y-104630256D01*
X201655226Y-104441898D01*
X201673891Y-104348059D01*
X202165000Y-104348059D01*
X202165000Y-104551937D01*
X202204774Y-104751896D01*
X202282795Y-104940254D01*
X202396063Y-105109772D01*
X202540226Y-105253935D01*
X202709744Y-105367203D01*
X202898102Y-105445224D01*
X203098061Y-105484998D01*
X203301939Y-105484998D01*
X203501898Y-105445224D01*
X203690256Y-105367203D01*
X203859774Y-105253935D01*
X204003937Y-105109772D01*
X204117205Y-104940254D01*
X204195226Y-104751896D01*
X204210907Y-104673061D01*
X210420000Y-104673061D01*
X210420000Y-104876939D01*
X210459774Y-105076898D01*
X210537795Y-105265256D01*
X210651063Y-105434774D01*
X210795226Y-105578937D01*
X210964744Y-105692205D01*
X211153102Y-105770226D01*
X211353061Y-105810000D01*
X211556939Y-105810000D01*
X211756898Y-105770226D01*
X211945256Y-105692205D01*
X212114774Y-105578937D01*
X212258937Y-105434774D01*
X212372205Y-105265256D01*
X212450226Y-105076898D01*
X212490000Y-104876939D01*
X212490000Y-104673061D01*
X212450226Y-104473102D01*
X212372205Y-104284744D01*
X212258937Y-104115226D01*
X212114774Y-103971063D01*
X211945256Y-103857795D01*
X211756898Y-103779774D01*
X211556939Y-103740000D01*
X211353061Y-103740000D01*
X211153102Y-103779774D01*
X210964744Y-103857795D01*
X210795226Y-103971063D01*
X210651063Y-104115226D01*
X210537795Y-104284744D01*
X210459774Y-104473102D01*
X210420000Y-104673061D01*
X204210907Y-104673061D01*
X204235000Y-104551937D01*
X204235000Y-104348059D01*
X204195226Y-104148100D01*
X204117205Y-103959742D01*
X204003937Y-103790224D01*
X203859774Y-103646061D01*
X203690256Y-103532793D01*
X203683661Y-103530061D01*
X205721000Y-103530061D01*
X205721000Y-103733939D01*
X205760774Y-103933898D01*
X205838795Y-104122256D01*
X205952063Y-104291774D01*
X206096226Y-104435937D01*
X206265744Y-104549205D01*
X206454102Y-104627226D01*
X206654061Y-104667000D01*
X206857939Y-104667000D01*
X207057898Y-104627226D01*
X207246256Y-104549205D01*
X207415774Y-104435937D01*
X207559937Y-104291774D01*
X207673205Y-104122256D01*
X207751226Y-103933898D01*
X207791000Y-103733939D01*
X207791000Y-103530061D01*
X207751226Y-103330102D01*
X207673205Y-103141744D01*
X207559937Y-102972226D01*
X207415774Y-102828063D01*
X207246256Y-102714795D01*
X207057898Y-102636774D01*
X206857939Y-102597000D01*
X206654061Y-102597000D01*
X206454102Y-102636774D01*
X206265744Y-102714795D01*
X206096226Y-102828063D01*
X205952063Y-102972226D01*
X205838795Y-103141744D01*
X205760774Y-103330102D01*
X205721000Y-103530061D01*
X203683661Y-103530061D01*
X203501898Y-103454772D01*
X203301939Y-103414998D01*
X203098061Y-103414998D01*
X202898102Y-103454772D01*
X202709744Y-103532793D01*
X202540226Y-103646061D01*
X202396063Y-103790224D01*
X202282795Y-103959742D01*
X202204774Y-104148100D01*
X202165000Y-104348059D01*
X201673891Y-104348059D01*
X201695000Y-104241939D01*
X201695000Y-104038061D01*
X201655226Y-103838102D01*
X201577205Y-103649744D01*
X201463937Y-103480226D01*
X201319774Y-103336063D01*
X201150256Y-103222795D01*
X201129675Y-103214270D01*
X201147226Y-103171898D01*
X201187000Y-102971939D01*
X201187000Y-102768061D01*
X201149575Y-102579912D01*
X201248913Y-102679250D01*
X201418431Y-102792518D01*
X201606789Y-102870539D01*
X201806748Y-102910313D01*
X202010626Y-102910313D01*
X202210585Y-102870539D01*
X202398943Y-102792518D01*
X202568461Y-102679250D01*
X202712624Y-102535087D01*
X202825892Y-102365569D01*
X202903913Y-102177211D01*
X202943687Y-101977252D01*
X202943687Y-101773374D01*
X202903913Y-101573415D01*
X202825892Y-101385057D01*
X202712624Y-101215539D01*
X202568461Y-101071376D01*
X202398943Y-100958108D01*
X202210585Y-100880087D01*
X202010626Y-100840313D01*
X201806748Y-100840313D01*
X201606789Y-100880087D01*
X201418431Y-100958108D01*
X201248913Y-101071376D01*
X201104750Y-101215539D01*
X200991482Y-101385057D01*
X200913461Y-101573415D01*
X200873687Y-101773374D01*
X200873687Y-101977252D01*
X200911112Y-102165401D01*
X200811774Y-102066063D01*
X200642256Y-101952795D01*
X200453898Y-101874774D01*
X200253939Y-101835000D01*
X200050061Y-101835000D01*
X199850102Y-101874774D01*
X199661744Y-101952795D01*
X199492226Y-102066063D01*
X199348063Y-102210226D01*
X199234795Y-102379744D01*
X199156774Y-102568102D01*
X199117000Y-102768061D01*
X195367650Y-102768061D01*
X195367937Y-102767774D01*
X195481205Y-102598256D01*
X195559226Y-102409898D01*
X195599000Y-102209939D01*
X195599000Y-102006061D01*
X195559226Y-101806102D01*
X195481205Y-101617744D01*
X195401236Y-101498061D01*
X197085000Y-101498061D01*
X197085000Y-101701939D01*
X197124774Y-101901898D01*
X197202795Y-102090256D01*
X197316063Y-102259774D01*
X197460226Y-102403937D01*
X197629744Y-102517205D01*
X197818102Y-102595226D01*
X198018061Y-102635000D01*
X198221939Y-102635000D01*
X198421898Y-102595226D01*
X198610256Y-102517205D01*
X198779774Y-102403937D01*
X198923937Y-102259774D01*
X199037205Y-102090256D01*
X199115226Y-101901898D01*
X199155000Y-101701939D01*
X199155000Y-101498061D01*
X199115226Y-101298102D01*
X199037205Y-101109744D01*
X198923937Y-100940226D01*
X198779774Y-100796063D01*
X198610256Y-100682795D01*
X198421898Y-100604774D01*
X198221939Y-100565000D01*
X198018061Y-100565000D01*
X197818102Y-100604774D01*
X197629744Y-100682795D01*
X197460226Y-100796063D01*
X197316063Y-100940226D01*
X197202795Y-101109744D01*
X197124774Y-101298102D01*
X197085000Y-101498061D01*
X195401236Y-101498061D01*
X195367937Y-101448226D01*
X195223774Y-101304063D01*
X195054256Y-101190795D01*
X194865898Y-101112774D01*
X194665939Y-101073000D01*
X194462061Y-101073000D01*
X194262102Y-101112774D01*
X194073744Y-101190795D01*
X193904226Y-101304063D01*
X193760063Y-101448226D01*
X193646795Y-101617744D01*
X193568774Y-101806102D01*
X193529000Y-102006061D01*
X193529000Y-102209939D01*
X193568774Y-102409898D01*
X193646795Y-102598256D01*
X193760063Y-102767774D01*
X193862289Y-102870000D01*
X193760063Y-102972226D01*
X193646795Y-103141744D01*
X193568774Y-103330102D01*
X193529000Y-103530061D01*
X193529000Y-103733939D01*
X193568774Y-103933898D01*
X193612666Y-104039863D01*
X193530256Y-103984798D01*
X193341898Y-103906777D01*
X193141939Y-103867003D01*
X192938061Y-103867003D01*
X192738102Y-103906777D01*
X192549744Y-103984798D01*
X192380226Y-104098066D01*
X192236063Y-104242229D01*
X192122795Y-104411747D01*
X192044774Y-104600105D01*
X192005000Y-104800064D01*
X123403543Y-104800064D01*
X123591523Y-104571011D01*
X123836201Y-104113250D01*
X123986873Y-103616550D01*
X124001645Y-103466561D01*
X184321500Y-103466561D01*
X184321500Y-103670439D01*
X184361274Y-103870398D01*
X184439295Y-104058756D01*
X184552563Y-104228274D01*
X184696726Y-104372437D01*
X184866244Y-104485705D01*
X185054602Y-104563726D01*
X185254561Y-104603500D01*
X185458439Y-104603500D01*
X185658398Y-104563726D01*
X185846756Y-104485705D01*
X186016274Y-104372437D01*
X186160437Y-104228274D01*
X186273705Y-104058756D01*
X186351726Y-103870398D01*
X186391500Y-103670439D01*
X186391500Y-103466561D01*
X186351726Y-103266602D01*
X186273705Y-103078244D01*
X186160437Y-102908726D01*
X186016274Y-102764563D01*
X185846756Y-102651295D01*
X185658398Y-102573274D01*
X185458439Y-102533500D01*
X185254561Y-102533500D01*
X185054602Y-102573274D01*
X184866244Y-102651295D01*
X184696726Y-102764563D01*
X184552563Y-102908726D01*
X184439295Y-103078244D01*
X184361274Y-103266602D01*
X184321500Y-103466561D01*
X124001645Y-103466561D01*
X124025000Y-103229442D01*
X124025000Y-101498061D01*
X189465000Y-101498061D01*
X189465000Y-101701939D01*
X189504774Y-101901898D01*
X189582795Y-102090256D01*
X189696063Y-102259774D01*
X189840226Y-102403937D01*
X190009744Y-102517205D01*
X190198102Y-102595226D01*
X190398061Y-102635000D01*
X190601939Y-102635000D01*
X190801898Y-102595226D01*
X190990256Y-102517205D01*
X191159774Y-102403937D01*
X191303937Y-102259774D01*
X191417205Y-102090256D01*
X191495226Y-101901898D01*
X191535000Y-101701939D01*
X191535000Y-101498061D01*
X191495226Y-101298102D01*
X191417205Y-101109744D01*
X191303937Y-100940226D01*
X191159774Y-100796063D01*
X190990256Y-100682795D01*
X190801898Y-100604774D01*
X190601939Y-100565000D01*
X190398061Y-100565000D01*
X190198102Y-100604774D01*
X190009744Y-100682795D01*
X189840226Y-100796063D01*
X189696063Y-100940226D01*
X189582795Y-101109744D01*
X189504774Y-101298102D01*
X189465000Y-101498061D01*
X124025000Y-101498061D01*
X124025000Y-99970558D01*
X123986873Y-99583450D01*
X123945156Y-99445926D01*
X185401000Y-99445926D01*
X185401000Y-99649804D01*
X185440774Y-99849763D01*
X185518795Y-100038121D01*
X185632063Y-100207639D01*
X185776226Y-100351802D01*
X185945744Y-100465070D01*
X186134102Y-100543091D01*
X186334061Y-100582865D01*
X186537939Y-100582865D01*
X186737898Y-100543091D01*
X186926256Y-100465070D01*
X187095774Y-100351802D01*
X187239937Y-100207639D01*
X187353205Y-100038121D01*
X187431226Y-99849763D01*
X187471000Y-99649804D01*
X187471000Y-99445926D01*
X187431226Y-99245967D01*
X187353205Y-99057609D01*
X187286690Y-98958061D01*
X189465000Y-98958061D01*
X189465000Y-99161939D01*
X189504774Y-99361898D01*
X189582795Y-99550256D01*
X189696063Y-99719774D01*
X189840226Y-99863937D01*
X190009744Y-99977205D01*
X190198102Y-100055226D01*
X190398061Y-100095000D01*
X190601939Y-100095000D01*
X190801898Y-100055226D01*
X190990256Y-99977205D01*
X191159774Y-99863937D01*
X191303937Y-99719774D01*
X191417205Y-99550256D01*
X191495226Y-99361898D01*
X191535000Y-99161939D01*
X191535000Y-98958061D01*
X199625000Y-98958061D01*
X199625000Y-99161939D01*
X199664774Y-99361898D01*
X199742795Y-99550256D01*
X199856063Y-99719774D01*
X200000226Y-99863937D01*
X200169744Y-99977205D01*
X200358102Y-100055226D01*
X200558061Y-100095000D01*
X200761939Y-100095000D01*
X200961898Y-100055226D01*
X201150256Y-99977205D01*
X201319774Y-99863937D01*
X201422004Y-99761707D01*
X201524234Y-99863937D01*
X201693752Y-99977205D01*
X201882110Y-100055226D01*
X202082069Y-100095000D01*
X202285947Y-100095000D01*
X202485906Y-100055226D01*
X202674264Y-99977205D01*
X202843782Y-99863937D01*
X202987945Y-99719774D01*
X203101213Y-99550256D01*
X203179234Y-99361898D01*
X203219008Y-99161939D01*
X203219008Y-98958061D01*
X203179234Y-98758102D01*
X203101213Y-98569744D01*
X202987945Y-98400226D01*
X202843782Y-98256063D01*
X202774844Y-98210000D01*
X228381928Y-98210000D01*
X228381928Y-99910000D01*
X228394188Y-100034482D01*
X228430498Y-100154180D01*
X228489463Y-100264494D01*
X228568815Y-100361185D01*
X228665506Y-100440537D01*
X228775820Y-100499502D01*
X228848380Y-100521513D01*
X228716525Y-100653368D01*
X228554010Y-100896589D01*
X228442068Y-101166842D01*
X228385000Y-101453740D01*
X228385000Y-101746260D01*
X228442068Y-102033158D01*
X228554010Y-102303411D01*
X228716525Y-102546632D01*
X228923368Y-102753475D01*
X229166589Y-102915990D01*
X229436842Y-103027932D01*
X229723740Y-103085000D01*
X230016260Y-103085000D01*
X230303158Y-103027932D01*
X230573411Y-102915990D01*
X230816632Y-102753475D01*
X231023475Y-102546632D01*
X231185990Y-102303411D01*
X231297932Y-102033158D01*
X231355000Y-101746260D01*
X231355000Y-101453740D01*
X231297932Y-101166842D01*
X231185990Y-100896589D01*
X231023475Y-100653368D01*
X230891620Y-100521513D01*
X230964180Y-100499502D01*
X231074494Y-100440537D01*
X231171185Y-100361185D01*
X231250537Y-100264494D01*
X231309502Y-100154180D01*
X231345812Y-100034482D01*
X231358072Y-99910000D01*
X231358072Y-98210000D01*
X231345812Y-98085518D01*
X231309502Y-97965820D01*
X231250537Y-97855506D01*
X231171185Y-97758815D01*
X231074494Y-97679463D01*
X230964180Y-97620498D01*
X230844482Y-97584188D01*
X230720000Y-97571928D01*
X229020000Y-97571928D01*
X228895518Y-97584188D01*
X228775820Y-97620498D01*
X228665506Y-97679463D01*
X228568815Y-97758815D01*
X228489463Y-97855506D01*
X228430498Y-97965820D01*
X228394188Y-98085518D01*
X228381928Y-98210000D01*
X202774844Y-98210000D01*
X202674264Y-98142795D01*
X202485906Y-98064774D01*
X202285947Y-98025000D01*
X202082069Y-98025000D01*
X201882110Y-98064774D01*
X201693752Y-98142795D01*
X201524234Y-98256063D01*
X201422004Y-98358293D01*
X201319774Y-98256063D01*
X201150256Y-98142795D01*
X200961898Y-98064774D01*
X200761939Y-98025000D01*
X200558061Y-98025000D01*
X200358102Y-98064774D01*
X200169744Y-98142795D01*
X200000226Y-98256063D01*
X199856063Y-98400226D01*
X199742795Y-98569744D01*
X199664774Y-98758102D01*
X199625000Y-98958061D01*
X191535000Y-98958061D01*
X191495226Y-98758102D01*
X191417205Y-98569744D01*
X191303937Y-98400226D01*
X191159774Y-98256063D01*
X190990256Y-98142795D01*
X190801898Y-98064774D01*
X190601939Y-98025000D01*
X190398061Y-98025000D01*
X190198102Y-98064774D01*
X190009744Y-98142795D01*
X189840226Y-98256063D01*
X189696063Y-98400226D01*
X189582795Y-98569744D01*
X189504774Y-98758102D01*
X189465000Y-98958061D01*
X187286690Y-98958061D01*
X187239937Y-98888091D01*
X187095774Y-98743928D01*
X186926256Y-98630660D01*
X186737898Y-98552639D01*
X186537939Y-98512865D01*
X186334061Y-98512865D01*
X186134102Y-98552639D01*
X185945744Y-98630660D01*
X185776226Y-98743928D01*
X185632063Y-98888091D01*
X185518795Y-99057609D01*
X185440774Y-99245967D01*
X185401000Y-99445926D01*
X123945156Y-99445926D01*
X123836201Y-99086750D01*
X123591523Y-98628989D01*
X123262241Y-98227759D01*
X122861011Y-97898477D01*
X122403250Y-97653799D01*
X121906550Y-97503127D01*
X121390000Y-97452251D01*
X120873451Y-97503127D01*
X120376751Y-97653799D01*
X119918990Y-97898477D01*
X119517760Y-98227759D01*
X119188478Y-98628989D01*
X118943800Y-99086750D01*
X118793127Y-99583450D01*
X118755000Y-99970558D01*
X118755000Y-100644196D01*
X118732012Y-100588698D01*
X118498363Y-100239017D01*
X118200983Y-99941637D01*
X117851302Y-99707988D01*
X117462756Y-99547047D01*
X117050279Y-99465000D01*
X116629721Y-99465000D01*
X116217244Y-99547047D01*
X115828698Y-99707988D01*
X115479017Y-99941637D01*
X115181637Y-100239017D01*
X114947988Y-100588698D01*
X114925000Y-100644196D01*
X114925000Y-99970558D01*
X114886873Y-99583450D01*
X114736201Y-99086750D01*
X114491523Y-98628989D01*
X114162241Y-98227759D01*
X113761011Y-97898477D01*
X113303250Y-97653799D01*
X112806550Y-97503127D01*
X112290000Y-97452251D01*
X111773451Y-97503127D01*
X111276751Y-97653799D01*
X110818990Y-97898477D01*
X110417760Y-98227759D01*
X110088478Y-98628989D01*
X109843800Y-99086750D01*
X109693127Y-99583450D01*
X109655000Y-99970558D01*
X103082107Y-99970558D01*
X103088072Y-99910000D01*
X103088072Y-98210000D01*
X103075812Y-98085518D01*
X103039502Y-97965820D01*
X102980537Y-97855506D01*
X102901185Y-97758815D01*
X102804494Y-97679463D01*
X102694180Y-97620498D01*
X102574482Y-97584188D01*
X102450000Y-97571928D01*
X100750000Y-97571928D01*
X100625518Y-97584188D01*
X100505820Y-97620498D01*
X100395506Y-97679463D01*
X100298815Y-97758815D01*
X100219463Y-97855506D01*
X100160498Y-97965820D01*
X100124188Y-98085518D01*
X100111928Y-98210000D01*
X91733914Y-98210000D01*
X91595081Y-97545636D01*
X91500085Y-97248061D01*
X195375000Y-97248061D01*
X195375000Y-97451939D01*
X195414774Y-97651898D01*
X195492795Y-97840256D01*
X195606063Y-98009774D01*
X195750226Y-98153937D01*
X195919744Y-98267205D01*
X196108102Y-98345226D01*
X196308061Y-98385000D01*
X196511939Y-98385000D01*
X196711898Y-98345226D01*
X196900256Y-98267205D01*
X197069774Y-98153937D01*
X197213937Y-98009774D01*
X197327205Y-97840256D01*
X197405226Y-97651898D01*
X197445000Y-97451939D01*
X197445000Y-97248061D01*
X197406213Y-97053061D01*
X210420000Y-97053061D01*
X210420000Y-97256939D01*
X210459774Y-97456898D01*
X210537795Y-97645256D01*
X210651063Y-97814774D01*
X210795226Y-97958937D01*
X210964744Y-98072205D01*
X211153102Y-98150226D01*
X211353061Y-98190000D01*
X211556939Y-98190000D01*
X211756898Y-98150226D01*
X211945256Y-98072205D01*
X212114774Y-97958937D01*
X212258937Y-97814774D01*
X212372205Y-97645256D01*
X212450226Y-97456898D01*
X212490000Y-97256939D01*
X212490000Y-97053061D01*
X212450226Y-96853102D01*
X212372205Y-96664744D01*
X212258937Y-96495226D01*
X212114774Y-96351063D01*
X211945256Y-96237795D01*
X211756898Y-96159774D01*
X211556939Y-96120000D01*
X211353061Y-96120000D01*
X211153102Y-96159774D01*
X210964744Y-96237795D01*
X210795226Y-96351063D01*
X210651063Y-96495226D01*
X210537795Y-96664744D01*
X210459774Y-96853102D01*
X210420000Y-97053061D01*
X197406213Y-97053061D01*
X197405226Y-97048102D01*
X197327205Y-96859744D01*
X197213937Y-96690226D01*
X197069774Y-96546063D01*
X196900256Y-96432795D01*
X196711898Y-96354774D01*
X196511939Y-96315000D01*
X196308061Y-96315000D01*
X196108102Y-96354774D01*
X195919744Y-96432795D01*
X195750226Y-96546063D01*
X195606063Y-96690226D01*
X195492795Y-96859744D01*
X195414774Y-97048102D01*
X195375000Y-97248061D01*
X91500085Y-97248061D01*
X91096612Y-95984187D01*
X90440234Y-94482267D01*
X90415728Y-94438967D01*
X112705000Y-94438967D01*
X112705000Y-94761033D01*
X112767832Y-95076912D01*
X112891082Y-95374463D01*
X113070013Y-95642252D01*
X113297748Y-95869987D01*
X113565537Y-96048918D01*
X113863088Y-96172168D01*
X114178967Y-96235000D01*
X114501033Y-96235000D01*
X114816912Y-96172168D01*
X115114463Y-96048918D01*
X115382252Y-95869987D01*
X115609987Y-95642252D01*
X115788918Y-95374463D01*
X115912168Y-95076912D01*
X115975000Y-94761033D01*
X115975000Y-94438967D01*
X117705000Y-94438967D01*
X117705000Y-94761033D01*
X117767832Y-95076912D01*
X117891082Y-95374463D01*
X118070013Y-95642252D01*
X118297748Y-95869987D01*
X118565537Y-96048918D01*
X118863088Y-96172168D01*
X119178967Y-96235000D01*
X119501033Y-96235000D01*
X119816912Y-96172168D01*
X120114463Y-96048918D01*
X120382252Y-95869987D01*
X120609987Y-95642252D01*
X120788918Y-95374463D01*
X120882697Y-95148061D01*
X188195000Y-95148061D01*
X188195000Y-95351939D01*
X188234774Y-95551898D01*
X188312795Y-95740256D01*
X188426063Y-95909774D01*
X188570226Y-96053937D01*
X188739744Y-96167205D01*
X188928102Y-96245226D01*
X189128061Y-96285000D01*
X189331939Y-96285000D01*
X189531898Y-96245226D01*
X189720256Y-96167205D01*
X189889774Y-96053937D01*
X190033937Y-95909774D01*
X190147205Y-95740256D01*
X190225226Y-95551898D01*
X190265000Y-95351939D01*
X190265000Y-95148061D01*
X190225226Y-94948102D01*
X190147205Y-94759744D01*
X190033937Y-94590226D01*
X189889774Y-94446063D01*
X189720256Y-94332795D01*
X189531898Y-94254774D01*
X189331939Y-94215000D01*
X189128061Y-94215000D01*
X188928102Y-94254774D01*
X188739744Y-94332795D01*
X188570226Y-94446063D01*
X188426063Y-94590226D01*
X188312795Y-94759744D01*
X188234774Y-94948102D01*
X188195000Y-95148061D01*
X120882697Y-95148061D01*
X120912168Y-95076912D01*
X120975000Y-94761033D01*
X120975000Y-94438967D01*
X120912168Y-94123088D01*
X120788918Y-93825537D01*
X120609987Y-93557748D01*
X120382252Y-93330013D01*
X120114463Y-93151082D01*
X119816912Y-93027832D01*
X119501033Y-92965000D01*
X119178967Y-92965000D01*
X118863088Y-93027832D01*
X118565537Y-93151082D01*
X118297748Y-93330013D01*
X118070013Y-93557748D01*
X117891082Y-93825537D01*
X117767832Y-94123088D01*
X117705000Y-94438967D01*
X115975000Y-94438967D01*
X115912168Y-94123088D01*
X115788918Y-93825537D01*
X115609987Y-93557748D01*
X115382252Y-93330013D01*
X115114463Y-93151082D01*
X114816912Y-93027832D01*
X114501033Y-92965000D01*
X114178967Y-92965000D01*
X113863088Y-93027832D01*
X113565537Y-93151082D01*
X113297748Y-93330013D01*
X113070013Y-93557748D01*
X112891082Y-93825537D01*
X112767832Y-94123088D01*
X112705000Y-94438967D01*
X90415728Y-94438967D01*
X89632907Y-93055797D01*
X89134028Y-92354061D01*
X116505000Y-92354061D01*
X116505000Y-92557939D01*
X116544774Y-92757898D01*
X116622795Y-92946256D01*
X116736063Y-93115774D01*
X116880226Y-93259937D01*
X117049744Y-93373205D01*
X117238102Y-93451226D01*
X117438061Y-93491000D01*
X117641939Y-93491000D01*
X117841898Y-93451226D01*
X118030256Y-93373205D01*
X118199774Y-93259937D01*
X118343937Y-93115774D01*
X118457205Y-92946256D01*
X118535226Y-92757898D01*
X118575000Y-92557939D01*
X118575000Y-92354061D01*
X118535226Y-92154102D01*
X118457205Y-91965744D01*
X118343937Y-91796226D01*
X118199774Y-91652063D01*
X118030256Y-91538795D01*
X117841898Y-91460774D01*
X117641939Y-91421000D01*
X117438061Y-91421000D01*
X117238102Y-91460774D01*
X117049744Y-91538795D01*
X116880226Y-91652063D01*
X116736063Y-91796226D01*
X116622795Y-91965744D01*
X116544774Y-92154102D01*
X116505000Y-92354061D01*
X89134028Y-92354061D01*
X88683187Y-91719897D01*
X87601143Y-90488729D01*
X86460602Y-89433061D01*
X172955000Y-89433061D01*
X172955000Y-89636939D01*
X172994774Y-89836898D01*
X173072795Y-90025256D01*
X173186063Y-90194774D01*
X173330226Y-90338937D01*
X173499744Y-90452205D01*
X173688102Y-90530226D01*
X173888061Y-90570000D01*
X174091939Y-90570000D01*
X174291898Y-90530226D01*
X174480256Y-90452205D01*
X174649774Y-90338937D01*
X174793937Y-90194774D01*
X174907205Y-90025256D01*
X174985226Y-89836898D01*
X175025000Y-89636939D01*
X175025000Y-89433061D01*
X174985226Y-89233102D01*
X174907205Y-89044744D01*
X174793937Y-88875226D01*
X174649774Y-88731063D01*
X174480256Y-88617795D01*
X174291898Y-88539774D01*
X174091939Y-88500000D01*
X173888061Y-88500000D01*
X173688102Y-88539774D01*
X173499744Y-88617795D01*
X173330226Y-88731063D01*
X173186063Y-88875226D01*
X173072795Y-89044744D01*
X172994774Y-89233102D01*
X172955000Y-89433061D01*
X86460602Y-89433061D01*
X86398243Y-89375343D01*
X85087240Y-88391542D01*
X83682030Y-87547754D01*
X82197508Y-86852922D01*
X80649411Y-86314414D01*
X79054150Y-85937937D01*
X77603037Y-85750061D01*
X176765000Y-85750061D01*
X176765000Y-85953939D01*
X176804774Y-86153898D01*
X176882795Y-86342256D01*
X176974501Y-86479504D01*
X176974500Y-89367449D01*
X176970506Y-89408000D01*
X176974500Y-89448550D01*
X176974500Y-89448552D01*
X176986444Y-89569825D01*
X177006803Y-89636939D01*
X177033647Y-89725433D01*
X177110301Y-89868842D01*
X177131954Y-89895226D01*
X177213459Y-89994541D01*
X177244966Y-90020398D01*
X180235606Y-93011039D01*
X180261459Y-93042541D01*
X180325596Y-93095177D01*
X180387157Y-93145699D01*
X180530566Y-93222353D01*
X180686174Y-93269556D01*
X180807447Y-93281500D01*
X180807449Y-93281500D01*
X180848000Y-93285494D01*
X180888550Y-93281500D01*
X201556497Y-93281500D01*
X201693744Y-93373205D01*
X201882102Y-93451226D01*
X202082061Y-93491000D01*
X202285939Y-93491000D01*
X202485898Y-93451226D01*
X202674256Y-93373205D01*
X202843774Y-93259937D01*
X202987937Y-93115774D01*
X203101205Y-92946256D01*
X203179226Y-92757898D01*
X203219000Y-92557939D01*
X203219000Y-92354061D01*
X203179226Y-92154102D01*
X203101205Y-91965744D01*
X202987937Y-91796226D01*
X202843774Y-91652063D01*
X202674256Y-91538795D01*
X202485898Y-91460774D01*
X202285939Y-91421000D01*
X202082061Y-91421000D01*
X201882102Y-91460774D01*
X201693744Y-91538795D01*
X201556497Y-91630500D01*
X181189933Y-91630500D01*
X178625500Y-89066068D01*
X178625500Y-86479503D01*
X178717205Y-86342256D01*
X178795226Y-86153898D01*
X178835000Y-85953939D01*
X178835000Y-85750061D01*
X178795226Y-85550102D01*
X178717205Y-85361744D01*
X178603937Y-85192226D01*
X178459774Y-85048063D01*
X178290256Y-84934795D01*
X178101898Y-84856774D01*
X177901939Y-84817000D01*
X177698061Y-84817000D01*
X177498102Y-84856774D01*
X177309744Y-84934795D01*
X177140226Y-85048063D01*
X176996063Y-85192226D01*
X176882795Y-85361744D01*
X176804774Y-85550102D01*
X176765000Y-85750061D01*
X77603037Y-85750061D01*
X77428633Y-85727481D01*
X75790093Y-85685278D01*
X74155898Y-85811775D01*
X72543371Y-86105631D01*
X70969605Y-86563731D01*
X69451283Y-87181220D01*
X68004499Y-87951551D01*
X66644589Y-88866559D01*
X65385968Y-89916545D01*
X64241980Y-91090378D01*
X63224749Y-92375616D01*
X62345059Y-93758635D01*
X61612235Y-95224774D01*
X61034045Y-96758492D01*
X60616617Y-98343531D01*
X60364378Y-99963090D01*
X60280000Y-101600000D01*
X52730000Y-101600000D01*
X52730000Y-84226061D01*
X116505000Y-84226061D01*
X116505000Y-84429939D01*
X116544774Y-84629898D01*
X116622795Y-84818256D01*
X116736063Y-84987774D01*
X116880226Y-85131937D01*
X117049744Y-85245205D01*
X117238102Y-85323226D01*
X117438061Y-85363000D01*
X117641939Y-85363000D01*
X117841898Y-85323226D01*
X118030256Y-85245205D01*
X118199774Y-85131937D01*
X118343937Y-84987774D01*
X118457205Y-84818256D01*
X118535226Y-84629898D01*
X118575000Y-84429939D01*
X118575000Y-84353061D01*
X174860000Y-84353061D01*
X174860000Y-84556939D01*
X174899774Y-84756898D01*
X174977795Y-84945256D01*
X175091063Y-85114774D01*
X175235226Y-85258937D01*
X175404744Y-85372205D01*
X175593102Y-85450226D01*
X175793061Y-85490000D01*
X175996939Y-85490000D01*
X176196898Y-85450226D01*
X176385256Y-85372205D01*
X176554774Y-85258937D01*
X176698937Y-85114774D01*
X176812205Y-84945256D01*
X176890226Y-84756898D01*
X176930000Y-84556939D01*
X176930000Y-84353061D01*
X176898020Y-84192284D01*
X185058050Y-84192284D01*
X185058050Y-84463716D01*
X185111004Y-84729933D01*
X185214877Y-84980704D01*
X185365677Y-85206392D01*
X185503285Y-85344000D01*
X185365677Y-85481608D01*
X185214877Y-85707296D01*
X185111004Y-85958067D01*
X185058050Y-86224284D01*
X185058050Y-86495716D01*
X185111004Y-86761933D01*
X185214877Y-87012704D01*
X185365677Y-87238392D01*
X185557608Y-87430323D01*
X185783296Y-87581123D01*
X186034067Y-87684996D01*
X186300284Y-87737950D01*
X186518550Y-87737950D01*
X186518550Y-88063496D01*
X186588586Y-88415589D01*
X186725966Y-88747254D01*
X186925411Y-89045744D01*
X187179256Y-89299589D01*
X187477746Y-89499034D01*
X187809411Y-89636414D01*
X188161504Y-89706450D01*
X188520496Y-89706450D01*
X188872589Y-89636414D01*
X189159785Y-89517453D01*
X189188063Y-89559774D01*
X189332226Y-89703937D01*
X189501744Y-89817205D01*
X189690102Y-89895226D01*
X189890061Y-89935000D01*
X190093939Y-89935000D01*
X190293898Y-89895226D01*
X190482256Y-89817205D01*
X190486985Y-89814045D01*
X204197000Y-89814045D01*
X204197000Y-90017923D01*
X204236774Y-90217882D01*
X204314795Y-90406240D01*
X204428063Y-90575758D01*
X204572226Y-90719921D01*
X204741744Y-90833189D01*
X204930102Y-90911210D01*
X205130061Y-90950984D01*
X205333939Y-90950984D01*
X205533898Y-90911210D01*
X205722256Y-90833189D01*
X205891774Y-90719921D01*
X206035937Y-90575758D01*
X206149205Y-90406240D01*
X206227226Y-90217882D01*
X206267000Y-90017923D01*
X206267000Y-89814045D01*
X206227226Y-89614086D01*
X206149205Y-89425728D01*
X206035937Y-89256210D01*
X205891774Y-89112047D01*
X205722256Y-88998779D01*
X205533898Y-88920758D01*
X205333939Y-88880984D01*
X205130061Y-88880984D01*
X204930102Y-88920758D01*
X204741744Y-88998779D01*
X204572226Y-89112047D01*
X204428063Y-89256210D01*
X204314795Y-89425728D01*
X204236774Y-89614086D01*
X204197000Y-89814045D01*
X190486985Y-89814045D01*
X190651774Y-89703937D01*
X190795937Y-89559774D01*
X190909205Y-89390256D01*
X190987226Y-89201898D01*
X191027000Y-89001939D01*
X191027000Y-88798061D01*
X190987226Y-88598102D01*
X190909205Y-88409744D01*
X190795937Y-88240226D01*
X190651774Y-88096063D01*
X190482256Y-87982795D01*
X190293898Y-87904774D01*
X190163450Y-87878826D01*
X190163450Y-87704504D01*
X190093414Y-87352411D01*
X189956034Y-87020746D01*
X189756589Y-86722256D01*
X189502744Y-86468411D01*
X189204254Y-86268966D01*
X188872589Y-86131586D01*
X188520496Y-86061550D01*
X188161504Y-86061550D01*
X187809411Y-86131586D01*
X187796569Y-86136905D01*
X187760996Y-85958067D01*
X187657123Y-85707296D01*
X187506323Y-85481608D01*
X187368715Y-85344000D01*
X187506323Y-85206392D01*
X187657123Y-84980704D01*
X187760996Y-84729933D01*
X187796569Y-84551095D01*
X187809411Y-84556414D01*
X188161504Y-84626450D01*
X188520496Y-84626450D01*
X188872589Y-84556414D01*
X189204254Y-84419034D01*
X189502744Y-84219589D01*
X189756589Y-83965744D01*
X189956034Y-83667254D01*
X190093414Y-83335589D01*
X190111575Y-83244286D01*
X190221226Y-83353937D01*
X190390744Y-83467205D01*
X190579102Y-83545226D01*
X190779061Y-83585000D01*
X190982939Y-83585000D01*
X191182898Y-83545226D01*
X191371256Y-83467205D01*
X191540774Y-83353937D01*
X191684937Y-83209774D01*
X191798205Y-83040256D01*
X191876226Y-82851898D01*
X191916000Y-82651939D01*
X191916000Y-82448061D01*
X191889533Y-82315000D01*
X191998939Y-82315000D01*
X192198898Y-82275226D01*
X192323860Y-82223465D01*
X192303586Y-82272411D01*
X192233550Y-82624504D01*
X192233550Y-82983496D01*
X192303586Y-83335589D01*
X192440966Y-83667254D01*
X192640411Y-83965744D01*
X192894256Y-84219589D01*
X193192746Y-84419034D01*
X193326909Y-84474606D01*
X193178039Y-84623476D01*
X193054341Y-84808602D01*
X192969137Y-85014304D01*
X192925700Y-85232675D01*
X192925700Y-85455325D01*
X192969137Y-85673696D01*
X193054341Y-85879398D01*
X193178039Y-86064524D01*
X193326909Y-86213394D01*
X193192746Y-86268966D01*
X192894256Y-86468411D01*
X192886630Y-86476037D01*
X192845915Y-86377744D01*
X192732647Y-86208226D01*
X192588484Y-86064063D01*
X192418966Y-85950795D01*
X192230608Y-85872774D01*
X192030649Y-85833000D01*
X191826771Y-85833000D01*
X191626812Y-85872774D01*
X191438454Y-85950795D01*
X191268936Y-86064063D01*
X191124773Y-86208226D01*
X191011505Y-86377744D01*
X190933484Y-86566102D01*
X190893710Y-86766061D01*
X190893710Y-86969939D01*
X190933484Y-87169898D01*
X191011505Y-87358256D01*
X191124773Y-87527774D01*
X191268936Y-87671937D01*
X191438454Y-87785205D01*
X191626812Y-87863226D01*
X191826771Y-87903000D01*
X192030649Y-87903000D01*
X192230608Y-87863226D01*
X192233550Y-87862007D01*
X192233550Y-88063496D01*
X192303586Y-88415589D01*
X192440966Y-88747254D01*
X192640411Y-89045744D01*
X192894256Y-89299589D01*
X193192746Y-89499034D01*
X193524411Y-89636414D01*
X193876504Y-89706450D01*
X194235496Y-89706450D01*
X194587589Y-89636414D01*
X194919254Y-89499034D01*
X195217744Y-89299589D01*
X195471589Y-89045744D01*
X195671034Y-88747254D01*
X195808414Y-88415589D01*
X195816546Y-88374709D01*
X195854774Y-88566898D01*
X195932795Y-88755256D01*
X196046063Y-88924774D01*
X196190226Y-89068937D01*
X196359744Y-89182205D01*
X196548102Y-89260226D01*
X196748061Y-89300000D01*
X196951939Y-89300000D01*
X197151898Y-89260226D01*
X197340256Y-89182205D01*
X197509774Y-89068937D01*
X197653937Y-88924774D01*
X197767205Y-88755256D01*
X197845226Y-88566898D01*
X197885000Y-88366939D01*
X197885000Y-88163061D01*
X197851961Y-87996961D01*
X198018061Y-88030000D01*
X198221939Y-88030000D01*
X198421898Y-87990226D01*
X198610256Y-87912205D01*
X198779774Y-87798937D01*
X198923937Y-87654774D01*
X199037205Y-87485256D01*
X199115226Y-87296898D01*
X199155000Y-87096939D01*
X199155000Y-86893061D01*
X199121961Y-86726961D01*
X199288061Y-86760000D01*
X199491939Y-86760000D01*
X199691898Y-86720226D01*
X199880256Y-86642205D01*
X200049774Y-86528937D01*
X200193937Y-86384774D01*
X200307205Y-86215256D01*
X200385226Y-86026898D01*
X200425000Y-85826939D01*
X200425000Y-85623061D01*
X200391961Y-85456961D01*
X200558061Y-85490000D01*
X200761939Y-85490000D01*
X200961898Y-85450226D01*
X201150256Y-85372205D01*
X201319774Y-85258937D01*
X201463937Y-85114774D01*
X201577205Y-84945256D01*
X201655226Y-84756898D01*
X201695000Y-84556939D01*
X201695000Y-84353061D01*
X201657067Y-84162356D01*
X201798562Y-84190501D01*
X202002440Y-84190501D01*
X202202399Y-84150727D01*
X202390757Y-84072706D01*
X202560275Y-83959438D01*
X202704438Y-83815275D01*
X202817706Y-83645757D01*
X202895727Y-83457399D01*
X202935501Y-83257440D01*
X202935501Y-83053562D01*
X202895727Y-82853603D01*
X202817706Y-82665245D01*
X202704438Y-82495727D01*
X202560275Y-82351564D01*
X202390757Y-82238296D01*
X202202399Y-82160275D01*
X202002440Y-82120501D01*
X201798562Y-82120501D01*
X201598603Y-82160275D01*
X201410245Y-82238296D01*
X201240727Y-82351564D01*
X201096564Y-82495727D01*
X200983296Y-82665245D01*
X200905275Y-82853603D01*
X200865501Y-83053562D01*
X200865501Y-83257440D01*
X200903434Y-83448145D01*
X200761939Y-83420000D01*
X200558061Y-83420000D01*
X200358102Y-83459774D01*
X200169744Y-83537795D01*
X200000226Y-83651063D01*
X199856063Y-83795226D01*
X199742795Y-83964744D01*
X199664774Y-84153102D01*
X199625000Y-84353061D01*
X199625000Y-84556939D01*
X199658039Y-84723039D01*
X199491939Y-84690000D01*
X199288061Y-84690000D01*
X199088102Y-84729774D01*
X198899744Y-84807795D01*
X198730226Y-84921063D01*
X198586063Y-85065226D01*
X198472795Y-85234744D01*
X198394774Y-85423102D01*
X198355000Y-85623061D01*
X198355000Y-85826939D01*
X198388039Y-85993039D01*
X198221939Y-85960000D01*
X198018061Y-85960000D01*
X197818102Y-85999774D01*
X197629744Y-86077795D01*
X197460226Y-86191063D01*
X197316063Y-86335226D01*
X197202795Y-86504744D01*
X197124774Y-86693102D01*
X197085000Y-86893061D01*
X197085000Y-87096939D01*
X197118039Y-87263039D01*
X196951939Y-87230000D01*
X196748061Y-87230000D01*
X196548102Y-87269774D01*
X196359744Y-87347795D01*
X196190226Y-87461063D01*
X196046063Y-87605226D01*
X195932795Y-87774744D01*
X195878450Y-87905943D01*
X195878450Y-87704504D01*
X195808414Y-87352411D01*
X195730655Y-87164685D01*
X195731774Y-87163937D01*
X195875937Y-87019774D01*
X195989205Y-86850256D01*
X196067226Y-86661898D01*
X196107000Y-86461939D01*
X196107000Y-86258061D01*
X196067226Y-86058102D01*
X195989205Y-85869744D01*
X195875937Y-85700226D01*
X195731774Y-85556063D01*
X195562256Y-85442795D01*
X195373898Y-85364774D01*
X195186300Y-85327459D01*
X195186300Y-85232675D01*
X195142863Y-85014304D01*
X195057659Y-84808602D01*
X194933961Y-84623476D01*
X194785091Y-84474606D01*
X194919254Y-84419034D01*
X195217744Y-84219589D01*
X195471589Y-83965744D01*
X195671034Y-83667254D01*
X195808414Y-83335589D01*
X195878450Y-82983496D01*
X195878450Y-82624504D01*
X195808414Y-82272411D01*
X195671034Y-81940746D01*
X195471589Y-81642256D01*
X195217744Y-81388411D01*
X194919254Y-81188966D01*
X194587589Y-81051586D01*
X194235496Y-80981550D01*
X193876504Y-80981550D01*
X193524411Y-81051586D01*
X193192746Y-81188966D01*
X192932000Y-81363191D01*
X192932000Y-81178061D01*
X192892226Y-80978102D01*
X192814205Y-80789744D01*
X192700937Y-80620226D01*
X192556774Y-80476063D01*
X192387256Y-80362795D01*
X192198898Y-80284774D01*
X191998939Y-80245000D01*
X191795061Y-80245000D01*
X191595102Y-80284774D01*
X191406744Y-80362795D01*
X191237226Y-80476063D01*
X191093063Y-80620226D01*
X190979795Y-80789744D01*
X190901774Y-80978102D01*
X190862000Y-81178061D01*
X190862000Y-81381939D01*
X190888467Y-81515000D01*
X190779061Y-81515000D01*
X190579102Y-81554774D01*
X190390744Y-81632795D01*
X190221226Y-81746063D01*
X190077063Y-81890226D01*
X189989432Y-82021376D01*
X189956034Y-81940746D01*
X189756589Y-81642256D01*
X189502744Y-81388411D01*
X189204254Y-81188966D01*
X188872589Y-81051586D01*
X188520496Y-80981550D01*
X188161504Y-80981550D01*
X187809411Y-81051586D01*
X187477746Y-81188966D01*
X187471000Y-81193474D01*
X187471000Y-81006561D01*
X187431226Y-80806602D01*
X187353205Y-80618244D01*
X187239937Y-80448726D01*
X187095774Y-80304563D01*
X186926256Y-80191295D01*
X186855680Y-80162061D01*
X202165000Y-80162061D01*
X202165000Y-80365939D01*
X202204774Y-80565898D01*
X202282795Y-80754256D01*
X202396063Y-80923774D01*
X202540226Y-81067937D01*
X202709744Y-81181205D01*
X202898102Y-81259226D01*
X203098061Y-81299000D01*
X203301939Y-81299000D01*
X203501898Y-81259226D01*
X203690256Y-81181205D01*
X203859774Y-81067937D01*
X204003937Y-80923774D01*
X204117205Y-80754256D01*
X204195226Y-80565898D01*
X204235000Y-80365939D01*
X204235000Y-80162061D01*
X204195226Y-79962102D01*
X204117205Y-79773744D01*
X204073430Y-79708230D01*
X204138603Y-79735226D01*
X204338562Y-79775000D01*
X204542440Y-79775000D01*
X204742399Y-79735226D01*
X204930757Y-79657205D01*
X205100275Y-79543937D01*
X205244438Y-79399774D01*
X205357706Y-79230256D01*
X205435727Y-79041898D01*
X205475501Y-78841939D01*
X205475501Y-78726665D01*
X205638061Y-78759000D01*
X205841939Y-78759000D01*
X206041898Y-78719226D01*
X206230256Y-78641205D01*
X206399774Y-78527937D01*
X206543937Y-78383774D01*
X206657205Y-78214256D01*
X206735226Y-78025898D01*
X206775000Y-77825939D01*
X206775000Y-77622061D01*
X206735226Y-77422102D01*
X206657205Y-77233744D01*
X206543937Y-77064226D01*
X206399774Y-76920063D01*
X206230256Y-76806795D01*
X206041898Y-76728774D01*
X205841939Y-76689000D01*
X205638061Y-76689000D01*
X205438102Y-76728774D01*
X205249744Y-76806795D01*
X205080226Y-76920063D01*
X204936063Y-77064226D01*
X204822795Y-77233744D01*
X204744774Y-77422102D01*
X204705000Y-77622061D01*
X204705000Y-77737335D01*
X204542440Y-77705000D01*
X204338562Y-77705000D01*
X204138603Y-77744774D01*
X203950245Y-77822795D01*
X203780727Y-77936063D01*
X203636564Y-78080226D01*
X203523296Y-78249744D01*
X203445275Y-78438102D01*
X203405501Y-78638061D01*
X203405501Y-78841939D01*
X203445275Y-79041898D01*
X203523296Y-79230256D01*
X203567071Y-79295770D01*
X203501898Y-79268774D01*
X203301939Y-79229000D01*
X203098061Y-79229000D01*
X202898102Y-79268774D01*
X202709744Y-79346795D01*
X202540226Y-79460063D01*
X202396063Y-79604226D01*
X202282795Y-79773744D01*
X202204774Y-79962102D01*
X202165000Y-80162061D01*
X186855680Y-80162061D01*
X186737898Y-80113274D01*
X186537939Y-80073500D01*
X186334061Y-80073500D01*
X186134102Y-80113274D01*
X185945744Y-80191295D01*
X185776226Y-80304563D01*
X185632063Y-80448726D01*
X185518795Y-80618244D01*
X185440774Y-80806602D01*
X185401000Y-81006561D01*
X185401000Y-81210439D01*
X185440774Y-81410398D01*
X185518795Y-81598756D01*
X185632063Y-81768274D01*
X185776226Y-81912437D01*
X185945744Y-82025705D01*
X186134102Y-82103726D01*
X186334061Y-82143500D01*
X186537939Y-82143500D01*
X186651325Y-82120946D01*
X186588586Y-82272411D01*
X186518550Y-82624504D01*
X186518550Y-82950050D01*
X186300284Y-82950050D01*
X186034067Y-83003004D01*
X185783296Y-83106877D01*
X185557608Y-83257677D01*
X185365677Y-83449608D01*
X185214877Y-83675296D01*
X185111004Y-83926067D01*
X185058050Y-84192284D01*
X176898020Y-84192284D01*
X176890226Y-84153102D01*
X176812205Y-83964744D01*
X176698937Y-83795226D01*
X176554774Y-83651063D01*
X176385256Y-83537795D01*
X176196898Y-83459774D01*
X175996939Y-83420000D01*
X175793061Y-83420000D01*
X175593102Y-83459774D01*
X175404744Y-83537795D01*
X175235226Y-83651063D01*
X175091063Y-83795226D01*
X174977795Y-83964744D01*
X174899774Y-84153102D01*
X174860000Y-84353061D01*
X118575000Y-84353061D01*
X118575000Y-84226061D01*
X118535226Y-84026102D01*
X118457205Y-83837744D01*
X118343937Y-83668226D01*
X118199774Y-83524063D01*
X118030256Y-83410795D01*
X117841898Y-83332774D01*
X117641939Y-83293000D01*
X117438061Y-83293000D01*
X117238102Y-83332774D01*
X117049744Y-83410795D01*
X116880226Y-83524063D01*
X116736063Y-83668226D01*
X116622795Y-83837744D01*
X116544774Y-84026102D01*
X116505000Y-84226061D01*
X52730000Y-84226061D01*
X52730000Y-81813061D01*
X181845000Y-81813061D01*
X181845000Y-82016939D01*
X181884774Y-82216898D01*
X181962795Y-82405256D01*
X182076063Y-82574774D01*
X182220226Y-82718937D01*
X182389744Y-82832205D01*
X182578102Y-82910226D01*
X182778061Y-82950000D01*
X182981939Y-82950000D01*
X183181898Y-82910226D01*
X183370256Y-82832205D01*
X183539774Y-82718937D01*
X183683937Y-82574774D01*
X183797205Y-82405256D01*
X183875226Y-82216898D01*
X183915000Y-82016939D01*
X183915000Y-81813061D01*
X183875226Y-81613102D01*
X183797205Y-81424744D01*
X183683937Y-81255226D01*
X183539774Y-81111063D01*
X183370256Y-80997795D01*
X183181898Y-80919774D01*
X182981939Y-80880000D01*
X182778061Y-80880000D01*
X182578102Y-80919774D01*
X182389744Y-80997795D01*
X182220226Y-81111063D01*
X182076063Y-81255226D01*
X181962795Y-81424744D01*
X181884774Y-81613102D01*
X181845000Y-81813061D01*
X52730000Y-81813061D01*
X52730000Y-80162061D01*
X124125000Y-80162061D01*
X124125000Y-80365939D01*
X124164774Y-80565898D01*
X124242795Y-80754256D01*
X124356063Y-80923774D01*
X124500226Y-81067937D01*
X124669744Y-81181205D01*
X124858102Y-81259226D01*
X125058061Y-81299000D01*
X125261939Y-81299000D01*
X125461898Y-81259226D01*
X125650256Y-81181205D01*
X125819774Y-81067937D01*
X125963937Y-80923774D01*
X126077205Y-80754256D01*
X126155226Y-80565898D01*
X126159768Y-80543061D01*
X176130000Y-80543061D01*
X176130000Y-80746939D01*
X176169774Y-80946898D01*
X176247795Y-81135256D01*
X176361063Y-81304774D01*
X176505226Y-81448937D01*
X176674744Y-81562205D01*
X176863102Y-81640226D01*
X177063061Y-81680000D01*
X177266939Y-81680000D01*
X177466898Y-81640226D01*
X177655256Y-81562205D01*
X177824774Y-81448937D01*
X177968937Y-81304774D01*
X178082205Y-81135256D01*
X178160226Y-80946898D01*
X178200000Y-80746939D01*
X178200000Y-80543061D01*
X178160226Y-80343102D01*
X178082205Y-80154744D01*
X177968937Y-79985226D01*
X177824774Y-79841063D01*
X177655256Y-79727795D01*
X177466898Y-79649774D01*
X177266939Y-79610000D01*
X177063061Y-79610000D01*
X176863102Y-79649774D01*
X176674744Y-79727795D01*
X176505226Y-79841063D01*
X176361063Y-79985226D01*
X176247795Y-80154744D01*
X176169774Y-80343102D01*
X176130000Y-80543061D01*
X126159768Y-80543061D01*
X126195000Y-80365939D01*
X126195000Y-80162061D01*
X126155226Y-79962102D01*
X126077205Y-79773744D01*
X125963937Y-79604226D01*
X125819774Y-79460063D01*
X125650256Y-79346795D01*
X125461898Y-79268774D01*
X125261939Y-79229000D01*
X125058061Y-79229000D01*
X124858102Y-79268774D01*
X124669744Y-79346795D01*
X124500226Y-79460063D01*
X124356063Y-79604226D01*
X124242795Y-79773744D01*
X124164774Y-79962102D01*
X124125000Y-80162061D01*
X52730000Y-80162061D01*
X52730000Y-78638061D01*
X178035000Y-78638061D01*
X178035000Y-78841939D01*
X178074774Y-79041898D01*
X178152795Y-79230256D01*
X178266063Y-79399774D01*
X178410226Y-79543937D01*
X178579744Y-79657205D01*
X178768102Y-79735226D01*
X178968061Y-79775000D01*
X179171939Y-79775000D01*
X179371898Y-79735226D01*
X179560256Y-79657205D01*
X179729774Y-79543937D01*
X179873937Y-79399774D01*
X179987205Y-79230256D01*
X180065226Y-79041898D01*
X180105000Y-78841939D01*
X180105000Y-78638061D01*
X190861974Y-78638061D01*
X190861974Y-78841939D01*
X190901748Y-79041898D01*
X190979769Y-79230256D01*
X191093037Y-79399774D01*
X191237200Y-79543937D01*
X191406718Y-79657205D01*
X191595076Y-79735226D01*
X191795035Y-79775000D01*
X191998913Y-79775000D01*
X192198872Y-79735226D01*
X192387230Y-79657205D01*
X192556748Y-79543937D01*
X192700911Y-79399774D01*
X192814179Y-79230256D01*
X192892200Y-79041898D01*
X192931974Y-78841939D01*
X192931974Y-78638061D01*
X192892200Y-78438102D01*
X192814179Y-78249744D01*
X192700911Y-78080226D01*
X192556748Y-77936063D01*
X192387230Y-77822795D01*
X192198872Y-77744774D01*
X191998913Y-77705000D01*
X191795035Y-77705000D01*
X191595076Y-77744774D01*
X191406718Y-77822795D01*
X191237200Y-77936063D01*
X191093037Y-78080226D01*
X190979769Y-78249744D01*
X190901748Y-78438102D01*
X190861974Y-78638061D01*
X180105000Y-78638061D01*
X180065226Y-78438102D01*
X179987205Y-78249744D01*
X179873937Y-78080226D01*
X179729774Y-77936063D01*
X179560256Y-77822795D01*
X179371898Y-77744774D01*
X179171939Y-77705000D01*
X178968061Y-77705000D01*
X178768102Y-77744774D01*
X178579744Y-77822795D01*
X178410226Y-77936063D01*
X178266063Y-78080226D01*
X178152795Y-78249744D01*
X178074774Y-78438102D01*
X178035000Y-78638061D01*
X52730000Y-78638061D01*
X52730000Y-77368061D01*
X172320000Y-77368061D01*
X172320000Y-77571939D01*
X172359774Y-77771898D01*
X172437795Y-77960256D01*
X172551063Y-78129774D01*
X172695226Y-78273937D01*
X172864744Y-78387205D01*
X173053102Y-78465226D01*
X173253061Y-78505000D01*
X173456939Y-78505000D01*
X173656898Y-78465226D01*
X173845256Y-78387205D01*
X174014774Y-78273937D01*
X174158937Y-78129774D01*
X174272205Y-77960256D01*
X174350226Y-77771898D01*
X174380030Y-77622061D01*
X194545000Y-77622061D01*
X194545000Y-77825939D01*
X194584774Y-78025898D01*
X194662795Y-78214256D01*
X194776063Y-78383774D01*
X194920226Y-78527937D01*
X195089744Y-78641205D01*
X195278102Y-78719226D01*
X195478061Y-78759000D01*
X195681939Y-78759000D01*
X195881898Y-78719226D01*
X196070256Y-78641205D01*
X196239774Y-78527937D01*
X196383937Y-78383774D01*
X196497205Y-78214256D01*
X196575226Y-78025898D01*
X196615000Y-77825939D01*
X196615000Y-77622061D01*
X196575226Y-77422102D01*
X196497205Y-77233744D01*
X196383937Y-77064226D01*
X196239774Y-76920063D01*
X196070256Y-76806795D01*
X195881898Y-76728774D01*
X195681939Y-76689000D01*
X195478061Y-76689000D01*
X195278102Y-76728774D01*
X195089744Y-76806795D01*
X194920226Y-76920063D01*
X194776063Y-77064226D01*
X194662795Y-77233744D01*
X194584774Y-77422102D01*
X194545000Y-77622061D01*
X174380030Y-77622061D01*
X174390000Y-77571939D01*
X174390000Y-77368061D01*
X174350226Y-77168102D01*
X174272205Y-76979744D01*
X174158937Y-76810226D01*
X174014774Y-76666063D01*
X173845256Y-76552795D01*
X173656898Y-76474774D01*
X173456939Y-76435000D01*
X173253061Y-76435000D01*
X173053102Y-76474774D01*
X172864744Y-76552795D01*
X172695226Y-76666063D01*
X172551063Y-76810226D01*
X172437795Y-76979744D01*
X172359774Y-77168102D01*
X172320000Y-77368061D01*
X52730000Y-77368061D01*
X52730000Y-74828061D01*
X73260000Y-74828061D01*
X73260000Y-75031939D01*
X73299774Y-75231898D01*
X73377795Y-75420256D01*
X73491063Y-75589774D01*
X73635226Y-75733937D01*
X73804744Y-75847205D01*
X73993102Y-75925226D01*
X74193061Y-75965000D01*
X74396939Y-75965000D01*
X74596898Y-75925226D01*
X74785256Y-75847205D01*
X74954774Y-75733937D01*
X75098937Y-75589774D01*
X75212205Y-75420256D01*
X75290226Y-75231898D01*
X75330000Y-75031939D01*
X75330000Y-74828061D01*
X75290226Y-74628102D01*
X75212205Y-74439744D01*
X75098937Y-74270226D01*
X75021772Y-74193061D01*
X207880004Y-74193061D01*
X207880004Y-74396939D01*
X207919778Y-74596898D01*
X207997799Y-74785256D01*
X208111067Y-74954774D01*
X208255230Y-75098937D01*
X208424748Y-75212205D01*
X208613106Y-75290226D01*
X208813065Y-75330000D01*
X209016943Y-75330000D01*
X209183039Y-75296962D01*
X209150000Y-75463061D01*
X209150000Y-75666939D01*
X209189774Y-75866898D01*
X209267795Y-76055256D01*
X209381063Y-76224774D01*
X209525226Y-76368937D01*
X209694744Y-76482205D01*
X209883102Y-76560226D01*
X210083061Y-76600000D01*
X210286939Y-76600000D01*
X210453039Y-76566961D01*
X210420000Y-76733061D01*
X210420000Y-76936939D01*
X210459774Y-77136898D01*
X210537795Y-77325256D01*
X210651063Y-77494774D01*
X210795226Y-77638937D01*
X210964744Y-77752205D01*
X211153102Y-77830226D01*
X211353061Y-77870000D01*
X211556939Y-77870000D01*
X211756898Y-77830226D01*
X211945256Y-77752205D01*
X212114774Y-77638937D01*
X212258937Y-77494774D01*
X212372205Y-77325256D01*
X212450226Y-77136898D01*
X212490000Y-76936939D01*
X212490000Y-76733061D01*
X212450226Y-76533102D01*
X212372205Y-76344744D01*
X212258937Y-76175226D01*
X212114774Y-76031063D01*
X211945256Y-75917795D01*
X211756898Y-75839774D01*
X211556939Y-75800000D01*
X211353061Y-75800000D01*
X211186961Y-75833039D01*
X211220000Y-75666939D01*
X211220000Y-75463061D01*
X211180226Y-75263102D01*
X211102205Y-75074744D01*
X210988937Y-74905226D01*
X210844774Y-74761063D01*
X210675256Y-74647795D01*
X210486898Y-74569774D01*
X210286939Y-74530000D01*
X210083061Y-74530000D01*
X209916965Y-74563038D01*
X209950004Y-74396939D01*
X209950004Y-74193061D01*
X209910230Y-73993102D01*
X209832209Y-73804744D01*
X209718941Y-73635226D01*
X209574778Y-73491063D01*
X209405260Y-73377795D01*
X209216902Y-73299774D01*
X209016943Y-73260000D01*
X208813065Y-73260000D01*
X208613106Y-73299774D01*
X208424748Y-73377795D01*
X208255230Y-73491063D01*
X208111067Y-73635226D01*
X207997799Y-73804744D01*
X207919778Y-73993102D01*
X207880004Y-74193061D01*
X75021772Y-74193061D01*
X74954774Y-74126063D01*
X74785256Y-74012795D01*
X74596898Y-73934774D01*
X74396939Y-73895000D01*
X74193061Y-73895000D01*
X73993102Y-73934774D01*
X73804744Y-74012795D01*
X73635226Y-74126063D01*
X73491063Y-74270226D01*
X73377795Y-74439744D01*
X73299774Y-74628102D01*
X73260000Y-74828061D01*
X52730000Y-74828061D01*
X52730000Y-73050061D01*
X213849000Y-73050061D01*
X213849000Y-73253939D01*
X213888774Y-73453898D01*
X213966795Y-73642256D01*
X214080063Y-73811774D01*
X214224226Y-73955937D01*
X214393744Y-74069205D01*
X214582102Y-74147226D01*
X214782061Y-74187000D01*
X214985939Y-74187000D01*
X215185898Y-74147226D01*
X215374256Y-74069205D01*
X215543774Y-73955937D01*
X215687937Y-73811774D01*
X215801205Y-73642256D01*
X215879226Y-73453898D01*
X215919000Y-73253939D01*
X215919000Y-73050061D01*
X215879226Y-72850102D01*
X215801205Y-72661744D01*
X215687937Y-72492226D01*
X215543774Y-72348063D01*
X215374256Y-72234795D01*
X215185898Y-72156774D01*
X214985939Y-72117000D01*
X214782061Y-72117000D01*
X214582102Y-72156774D01*
X214393744Y-72234795D01*
X214224226Y-72348063D01*
X214080063Y-72492226D01*
X213966795Y-72661744D01*
X213888774Y-72850102D01*
X213849000Y-73050061D01*
X52730000Y-73050061D01*
X52730000Y-68221984D01*
X56055000Y-68221984D01*
X56055000Y-68938016D01*
X56194691Y-69640290D01*
X56468705Y-70301818D01*
X56866511Y-70897177D01*
X57372823Y-71403489D01*
X57968182Y-71801295D01*
X58629710Y-72075309D01*
X59331984Y-72215000D01*
X60048016Y-72215000D01*
X60750290Y-72075309D01*
X61411818Y-71801295D01*
X62007177Y-71403489D01*
X62513489Y-70897177D01*
X62911295Y-70301818D01*
X63185309Y-69640290D01*
X63325000Y-68938016D01*
X63325000Y-68433740D01*
X189015000Y-68433740D01*
X189015000Y-68726260D01*
X189072068Y-69013158D01*
X189184010Y-69283411D01*
X189346525Y-69526632D01*
X189553368Y-69733475D01*
X189727760Y-69850000D01*
X189553368Y-69966525D01*
X189346525Y-70173368D01*
X189184010Y-70416589D01*
X189072068Y-70686842D01*
X189015000Y-70973740D01*
X189015000Y-71266260D01*
X189072068Y-71553158D01*
X189184010Y-71823411D01*
X189346525Y-72066632D01*
X189553368Y-72273475D01*
X189796589Y-72435990D01*
X190066842Y-72547932D01*
X190353740Y-72605000D01*
X190646260Y-72605000D01*
X190933158Y-72547932D01*
X191203411Y-72435990D01*
X191446632Y-72273475D01*
X191653475Y-72066632D01*
X191770000Y-71892240D01*
X191886525Y-72066632D01*
X192093368Y-72273475D01*
X192336589Y-72435990D01*
X192606842Y-72547932D01*
X192893740Y-72605000D01*
X193186260Y-72605000D01*
X193473158Y-72547932D01*
X193743411Y-72435990D01*
X193986632Y-72273475D01*
X194193475Y-72066632D01*
X194310000Y-71892240D01*
X194426525Y-72066632D01*
X194633368Y-72273475D01*
X194876589Y-72435990D01*
X195146842Y-72547932D01*
X195433740Y-72605000D01*
X195726260Y-72605000D01*
X196013158Y-72547932D01*
X196283411Y-72435990D01*
X196526632Y-72273475D01*
X196733475Y-72066632D01*
X196850000Y-71892240D01*
X196966525Y-72066632D01*
X197173368Y-72273475D01*
X197416589Y-72435990D01*
X197686842Y-72547932D01*
X197973740Y-72605000D01*
X198266260Y-72605000D01*
X198553158Y-72547932D01*
X198823411Y-72435990D01*
X199066632Y-72273475D01*
X199273475Y-72066632D01*
X199390000Y-71892240D01*
X199506525Y-72066632D01*
X199713368Y-72273475D01*
X199956589Y-72435990D01*
X200226842Y-72547932D01*
X200513740Y-72605000D01*
X200806260Y-72605000D01*
X201093158Y-72547932D01*
X201363411Y-72435990D01*
X201606632Y-72273475D01*
X201813475Y-72066632D01*
X201930000Y-71892240D01*
X202046525Y-72066632D01*
X202253368Y-72273475D01*
X202496589Y-72435990D01*
X202766842Y-72547932D01*
X203053740Y-72605000D01*
X203346260Y-72605000D01*
X203633158Y-72547932D01*
X203903411Y-72435990D01*
X204146632Y-72273475D01*
X204353475Y-72066632D01*
X204470000Y-71892240D01*
X204586525Y-72066632D01*
X204793368Y-72273475D01*
X205036589Y-72435990D01*
X205306842Y-72547932D01*
X205593740Y-72605000D01*
X205886260Y-72605000D01*
X206173158Y-72547932D01*
X206443411Y-72435990D01*
X206686632Y-72273475D01*
X206893475Y-72066632D01*
X207055990Y-71823411D01*
X207167932Y-71553158D01*
X207225000Y-71266260D01*
X207225000Y-70973740D01*
X207167932Y-70686842D01*
X207055990Y-70416589D01*
X206893475Y-70173368D01*
X206761620Y-70041513D01*
X206834180Y-70019502D01*
X206944494Y-69960537D01*
X207041185Y-69881185D01*
X207120537Y-69784494D01*
X207179502Y-69674180D01*
X207215812Y-69554482D01*
X207228072Y-69430000D01*
X207225000Y-68865750D01*
X207066250Y-68707000D01*
X205867000Y-68707000D01*
X205867000Y-68727000D01*
X205613000Y-68727000D01*
X205613000Y-68707000D01*
X205593000Y-68707000D01*
X205593000Y-68453000D01*
X205613000Y-68453000D01*
X205613000Y-67253750D01*
X205867000Y-67253750D01*
X205867000Y-68453000D01*
X207066250Y-68453000D01*
X207225000Y-68294250D01*
X207225393Y-68221984D01*
X224965000Y-68221984D01*
X224965000Y-68938016D01*
X225104691Y-69640290D01*
X225378705Y-70301818D01*
X225776511Y-70897177D01*
X226282823Y-71403489D01*
X226878182Y-71801295D01*
X227539710Y-72075309D01*
X228241984Y-72215000D01*
X228958016Y-72215000D01*
X229660290Y-72075309D01*
X230321818Y-71801295D01*
X230917177Y-71403489D01*
X231423489Y-70897177D01*
X231821295Y-70301818D01*
X232095309Y-69640290D01*
X232235000Y-68938016D01*
X232235000Y-68221984D01*
X232095309Y-67519710D01*
X231821295Y-66858182D01*
X231423489Y-66262823D01*
X230917177Y-65756511D01*
X230321818Y-65358705D01*
X229660290Y-65084691D01*
X228958016Y-64945000D01*
X228241984Y-64945000D01*
X227539710Y-65084691D01*
X226878182Y-65358705D01*
X226282823Y-65756511D01*
X225776511Y-66262823D01*
X225378705Y-66858182D01*
X225104691Y-67519710D01*
X224965000Y-68221984D01*
X207225393Y-68221984D01*
X207228072Y-67730000D01*
X207215812Y-67605518D01*
X207179502Y-67485820D01*
X207120537Y-67375506D01*
X207041185Y-67278815D01*
X206944494Y-67199463D01*
X206834180Y-67140498D01*
X206714482Y-67104188D01*
X206590000Y-67091928D01*
X206025750Y-67095000D01*
X205867000Y-67253750D01*
X205613000Y-67253750D01*
X205454250Y-67095000D01*
X204890000Y-67091928D01*
X204765518Y-67104188D01*
X204645820Y-67140498D01*
X204535506Y-67199463D01*
X204438815Y-67278815D01*
X204359463Y-67375506D01*
X204300498Y-67485820D01*
X204278487Y-67558380D01*
X204146632Y-67426525D01*
X203903411Y-67264010D01*
X203633158Y-67152068D01*
X203346260Y-67095000D01*
X203053740Y-67095000D01*
X202766842Y-67152068D01*
X202496589Y-67264010D01*
X202253368Y-67426525D01*
X202046525Y-67633368D01*
X201930000Y-67807760D01*
X201813475Y-67633368D01*
X201606632Y-67426525D01*
X201363411Y-67264010D01*
X201093158Y-67152068D01*
X200806260Y-67095000D01*
X200513740Y-67095000D01*
X200226842Y-67152068D01*
X199956589Y-67264010D01*
X199713368Y-67426525D01*
X199506525Y-67633368D01*
X199390000Y-67807760D01*
X199273475Y-67633368D01*
X199066632Y-67426525D01*
X198823411Y-67264010D01*
X198553158Y-67152068D01*
X198266260Y-67095000D01*
X197973740Y-67095000D01*
X197686842Y-67152068D01*
X197416589Y-67264010D01*
X197173368Y-67426525D01*
X196966525Y-67633368D01*
X196850000Y-67807760D01*
X196733475Y-67633368D01*
X196526632Y-67426525D01*
X196283411Y-67264010D01*
X196013158Y-67152068D01*
X195726260Y-67095000D01*
X195433740Y-67095000D01*
X195146842Y-67152068D01*
X194876589Y-67264010D01*
X194633368Y-67426525D01*
X194426525Y-67633368D01*
X194310000Y-67807760D01*
X194193475Y-67633368D01*
X193986632Y-67426525D01*
X193743411Y-67264010D01*
X193473158Y-67152068D01*
X193186260Y-67095000D01*
X192893740Y-67095000D01*
X192606842Y-67152068D01*
X192336589Y-67264010D01*
X192093368Y-67426525D01*
X191886525Y-67633368D01*
X191770000Y-67807760D01*
X191653475Y-67633368D01*
X191446632Y-67426525D01*
X191203411Y-67264010D01*
X190933158Y-67152068D01*
X190646260Y-67095000D01*
X190353740Y-67095000D01*
X190066842Y-67152068D01*
X189796589Y-67264010D01*
X189553368Y-67426525D01*
X189346525Y-67633368D01*
X189184010Y-67876589D01*
X189072068Y-68146842D01*
X189015000Y-68433740D01*
X63325000Y-68433740D01*
X63325000Y-68221984D01*
X63185309Y-67519710D01*
X62911295Y-66858182D01*
X62513489Y-66262823D01*
X62007177Y-65756511D01*
X61411818Y-65358705D01*
X60750290Y-65084691D01*
X60048016Y-64945000D01*
X59331984Y-64945000D01*
X58629710Y-65084691D01*
X57968182Y-65358705D01*
X57372823Y-65756511D01*
X56866511Y-66262823D01*
X56468705Y-66858182D01*
X56194691Y-67519710D01*
X56055000Y-68221984D01*
X52730000Y-68221984D01*
X52730000Y-66069392D01*
X52802437Y-65257751D01*
X53009672Y-64500226D01*
X53347777Y-63791375D01*
X53806067Y-63153596D01*
X54370055Y-62607054D01*
X55021913Y-62169023D01*
X55741038Y-61853349D01*
X56509768Y-61668794D01*
X57174207Y-61620000D01*
X231110608Y-61620000D01*
X231922249Y-61692437D01*
G37*
%TD.AperFunction*%
%TD*%
M02*
