%TF.GenerationSoftware,KiCad,Pcbnew,(5.1.8-0-10_14)*%
%TF.CreationDate,2021-12-04T19:42:54-08:00*%
%TF.ProjectId,Control,436f6e74-726f-46c2-9e6b-696361645f70,rev?*%
%TF.SameCoordinates,Original*%
%TF.FileFunction,Paste,Top*%
%TF.FilePolarity,Positive*%
%FSLAX46Y46*%
G04 Gerber Fmt 4.6, Leading zero omitted, Abs format (unit mm)*
G04 Created by KiCad (PCBNEW (5.1.8-0-10_14)) date 2021-12-04 19:42:54*
%MOMM*%
%LPD*%
G01*
G04 APERTURE LIST*
%ADD10R,0.550000X1.600000*%
%ADD11R,1.600000X0.550000*%
%ADD12R,1.200000X1.400000*%
%ADD13R,1.060000X0.650000*%
%ADD14R,0.400000X1.200000*%
G04 APERTURE END LIST*
%TO.C,C10*%
G36*
G01*
X124685000Y-82746000D02*
X125635000Y-82746000D01*
G75*
G02*
X125885000Y-82996000I0J-250000D01*
G01*
X125885000Y-83496000D01*
G75*
G02*
X125635000Y-83746000I-250000J0D01*
G01*
X124685000Y-83746000D01*
G75*
G02*
X124435000Y-83496000I0J250000D01*
G01*
X124435000Y-82996000D01*
G75*
G02*
X124685000Y-82746000I250000J0D01*
G01*
G37*
G36*
G01*
X124685000Y-80846000D02*
X125635000Y-80846000D01*
G75*
G02*
X125885000Y-81096000I0J-250000D01*
G01*
X125885000Y-81596000D01*
G75*
G02*
X125635000Y-81846000I-250000J0D01*
G01*
X124685000Y-81846000D01*
G75*
G02*
X124435000Y-81596000I0J250000D01*
G01*
X124435000Y-81096000D01*
G75*
G02*
X124685000Y-80846000I250000J0D01*
G01*
G37*
%TD*%
%TO.C,U3*%
G36*
G01*
X123900000Y-85592000D02*
X123900000Y-85342000D01*
G75*
G02*
X124025000Y-85217000I125000J0D01*
G01*
X125675000Y-85217000D01*
G75*
G02*
X125800000Y-85342000I0J-125000D01*
G01*
X125800000Y-85592000D01*
G75*
G02*
X125675000Y-85717000I-125000J0D01*
G01*
X124025000Y-85717000D01*
G75*
G02*
X123900000Y-85592000I0J125000D01*
G01*
G37*
G36*
G01*
X123900000Y-86242000D02*
X123900000Y-85992000D01*
G75*
G02*
X124025000Y-85867000I125000J0D01*
G01*
X125675000Y-85867000D01*
G75*
G02*
X125800000Y-85992000I0J-125000D01*
G01*
X125800000Y-86242000D01*
G75*
G02*
X125675000Y-86367000I-125000J0D01*
G01*
X124025000Y-86367000D01*
G75*
G02*
X123900000Y-86242000I0J125000D01*
G01*
G37*
G36*
G01*
X123900000Y-86892000D02*
X123900000Y-86642000D01*
G75*
G02*
X124025000Y-86517000I125000J0D01*
G01*
X125675000Y-86517000D01*
G75*
G02*
X125800000Y-86642000I0J-125000D01*
G01*
X125800000Y-86892000D01*
G75*
G02*
X125675000Y-87017000I-125000J0D01*
G01*
X124025000Y-87017000D01*
G75*
G02*
X123900000Y-86892000I0J125000D01*
G01*
G37*
G36*
G01*
X123900000Y-87542000D02*
X123900000Y-87292000D01*
G75*
G02*
X124025000Y-87167000I125000J0D01*
G01*
X125675000Y-87167000D01*
G75*
G02*
X125800000Y-87292000I0J-125000D01*
G01*
X125800000Y-87542000D01*
G75*
G02*
X125675000Y-87667000I-125000J0D01*
G01*
X124025000Y-87667000D01*
G75*
G02*
X123900000Y-87542000I0J125000D01*
G01*
G37*
G36*
G01*
X123900000Y-88192000D02*
X123900000Y-87942000D01*
G75*
G02*
X124025000Y-87817000I125000J0D01*
G01*
X125675000Y-87817000D01*
G75*
G02*
X125800000Y-87942000I0J-125000D01*
G01*
X125800000Y-88192000D01*
G75*
G02*
X125675000Y-88317000I-125000J0D01*
G01*
X124025000Y-88317000D01*
G75*
G02*
X123900000Y-88192000I0J125000D01*
G01*
G37*
G36*
G01*
X123900000Y-88842000D02*
X123900000Y-88592000D01*
G75*
G02*
X124025000Y-88467000I125000J0D01*
G01*
X125675000Y-88467000D01*
G75*
G02*
X125800000Y-88592000I0J-125000D01*
G01*
X125800000Y-88842000D01*
G75*
G02*
X125675000Y-88967000I-125000J0D01*
G01*
X124025000Y-88967000D01*
G75*
G02*
X123900000Y-88842000I0J125000D01*
G01*
G37*
G36*
G01*
X123900000Y-89492000D02*
X123900000Y-89242000D01*
G75*
G02*
X124025000Y-89117000I125000J0D01*
G01*
X125675000Y-89117000D01*
G75*
G02*
X125800000Y-89242000I0J-125000D01*
G01*
X125800000Y-89492000D01*
G75*
G02*
X125675000Y-89617000I-125000J0D01*
G01*
X124025000Y-89617000D01*
G75*
G02*
X123900000Y-89492000I0J125000D01*
G01*
G37*
G36*
G01*
X123900000Y-90142000D02*
X123900000Y-89892000D01*
G75*
G02*
X124025000Y-89767000I125000J0D01*
G01*
X125675000Y-89767000D01*
G75*
G02*
X125800000Y-89892000I0J-125000D01*
G01*
X125800000Y-90142000D01*
G75*
G02*
X125675000Y-90267000I-125000J0D01*
G01*
X124025000Y-90267000D01*
G75*
G02*
X123900000Y-90142000I0J125000D01*
G01*
G37*
G36*
G01*
X123900000Y-90792000D02*
X123900000Y-90542000D01*
G75*
G02*
X124025000Y-90417000I125000J0D01*
G01*
X125675000Y-90417000D01*
G75*
G02*
X125800000Y-90542000I0J-125000D01*
G01*
X125800000Y-90792000D01*
G75*
G02*
X125675000Y-90917000I-125000J0D01*
G01*
X124025000Y-90917000D01*
G75*
G02*
X123900000Y-90792000I0J125000D01*
G01*
G37*
G36*
G01*
X123900000Y-91442000D02*
X123900000Y-91192000D01*
G75*
G02*
X124025000Y-91067000I125000J0D01*
G01*
X125675000Y-91067000D01*
G75*
G02*
X125800000Y-91192000I0J-125000D01*
G01*
X125800000Y-91442000D01*
G75*
G02*
X125675000Y-91567000I-125000J0D01*
G01*
X124025000Y-91567000D01*
G75*
G02*
X123900000Y-91442000I0J125000D01*
G01*
G37*
G36*
G01*
X116900000Y-91442000D02*
X116900000Y-91192000D01*
G75*
G02*
X117025000Y-91067000I125000J0D01*
G01*
X118675000Y-91067000D01*
G75*
G02*
X118800000Y-91192000I0J-125000D01*
G01*
X118800000Y-91442000D01*
G75*
G02*
X118675000Y-91567000I-125000J0D01*
G01*
X117025000Y-91567000D01*
G75*
G02*
X116900000Y-91442000I0J125000D01*
G01*
G37*
G36*
G01*
X116900000Y-90792000D02*
X116900000Y-90542000D01*
G75*
G02*
X117025000Y-90417000I125000J0D01*
G01*
X118675000Y-90417000D01*
G75*
G02*
X118800000Y-90542000I0J-125000D01*
G01*
X118800000Y-90792000D01*
G75*
G02*
X118675000Y-90917000I-125000J0D01*
G01*
X117025000Y-90917000D01*
G75*
G02*
X116900000Y-90792000I0J125000D01*
G01*
G37*
G36*
G01*
X116900000Y-90142000D02*
X116900000Y-89892000D01*
G75*
G02*
X117025000Y-89767000I125000J0D01*
G01*
X118675000Y-89767000D01*
G75*
G02*
X118800000Y-89892000I0J-125000D01*
G01*
X118800000Y-90142000D01*
G75*
G02*
X118675000Y-90267000I-125000J0D01*
G01*
X117025000Y-90267000D01*
G75*
G02*
X116900000Y-90142000I0J125000D01*
G01*
G37*
G36*
G01*
X116900000Y-89492000D02*
X116900000Y-89242000D01*
G75*
G02*
X117025000Y-89117000I125000J0D01*
G01*
X118675000Y-89117000D01*
G75*
G02*
X118800000Y-89242000I0J-125000D01*
G01*
X118800000Y-89492000D01*
G75*
G02*
X118675000Y-89617000I-125000J0D01*
G01*
X117025000Y-89617000D01*
G75*
G02*
X116900000Y-89492000I0J125000D01*
G01*
G37*
G36*
G01*
X116900000Y-88842000D02*
X116900000Y-88592000D01*
G75*
G02*
X117025000Y-88467000I125000J0D01*
G01*
X118675000Y-88467000D01*
G75*
G02*
X118800000Y-88592000I0J-125000D01*
G01*
X118800000Y-88842000D01*
G75*
G02*
X118675000Y-88967000I-125000J0D01*
G01*
X117025000Y-88967000D01*
G75*
G02*
X116900000Y-88842000I0J125000D01*
G01*
G37*
G36*
G01*
X116900000Y-88192000D02*
X116900000Y-87942000D01*
G75*
G02*
X117025000Y-87817000I125000J0D01*
G01*
X118675000Y-87817000D01*
G75*
G02*
X118800000Y-87942000I0J-125000D01*
G01*
X118800000Y-88192000D01*
G75*
G02*
X118675000Y-88317000I-125000J0D01*
G01*
X117025000Y-88317000D01*
G75*
G02*
X116900000Y-88192000I0J125000D01*
G01*
G37*
G36*
G01*
X116900000Y-87542000D02*
X116900000Y-87292000D01*
G75*
G02*
X117025000Y-87167000I125000J0D01*
G01*
X118675000Y-87167000D01*
G75*
G02*
X118800000Y-87292000I0J-125000D01*
G01*
X118800000Y-87542000D01*
G75*
G02*
X118675000Y-87667000I-125000J0D01*
G01*
X117025000Y-87667000D01*
G75*
G02*
X116900000Y-87542000I0J125000D01*
G01*
G37*
G36*
G01*
X116900000Y-86892000D02*
X116900000Y-86642000D01*
G75*
G02*
X117025000Y-86517000I125000J0D01*
G01*
X118675000Y-86517000D01*
G75*
G02*
X118800000Y-86642000I0J-125000D01*
G01*
X118800000Y-86892000D01*
G75*
G02*
X118675000Y-87017000I-125000J0D01*
G01*
X117025000Y-87017000D01*
G75*
G02*
X116900000Y-86892000I0J125000D01*
G01*
G37*
G36*
G01*
X116900000Y-86242000D02*
X116900000Y-85992000D01*
G75*
G02*
X117025000Y-85867000I125000J0D01*
G01*
X118675000Y-85867000D01*
G75*
G02*
X118800000Y-85992000I0J-125000D01*
G01*
X118800000Y-86242000D01*
G75*
G02*
X118675000Y-86367000I-125000J0D01*
G01*
X117025000Y-86367000D01*
G75*
G02*
X116900000Y-86242000I0J125000D01*
G01*
G37*
G36*
G01*
X116900000Y-85592000D02*
X116900000Y-85342000D01*
G75*
G02*
X117025000Y-85217000I125000J0D01*
G01*
X118675000Y-85217000D01*
G75*
G02*
X118800000Y-85342000I0J-125000D01*
G01*
X118800000Y-85592000D01*
G75*
G02*
X118675000Y-85717000I-125000J0D01*
G01*
X117025000Y-85717000D01*
G75*
G02*
X116900000Y-85592000I0J125000D01*
G01*
G37*
%TD*%
%TO.C,C15*%
G36*
G01*
X210000000Y-105250000D02*
X210000000Y-104300000D01*
G75*
G02*
X210250000Y-104050000I250000J0D01*
G01*
X210750000Y-104050000D01*
G75*
G02*
X211000000Y-104300000I0J-250000D01*
G01*
X211000000Y-105250000D01*
G75*
G02*
X210750000Y-105500000I-250000J0D01*
G01*
X210250000Y-105500000D01*
G75*
G02*
X210000000Y-105250000I0J250000D01*
G01*
G37*
G36*
G01*
X208100000Y-105250000D02*
X208100000Y-104300000D01*
G75*
G02*
X208350000Y-104050000I250000J0D01*
G01*
X208850000Y-104050000D01*
G75*
G02*
X209100000Y-104300000I0J-250000D01*
G01*
X209100000Y-105250000D01*
G75*
G02*
X208850000Y-105500000I-250000J0D01*
G01*
X208350000Y-105500000D01*
G75*
G02*
X208100000Y-105250000I0J250000D01*
G01*
G37*
%TD*%
D10*
%TO.C,U4*%
X203460000Y-105850000D03*
X202660000Y-105850000D03*
X201860000Y-105850000D03*
X201060000Y-105850000D03*
X200260000Y-105850000D03*
X199460000Y-105850000D03*
X198660000Y-105850000D03*
X197860000Y-105850000D03*
D11*
X196410000Y-104400000D03*
X196410000Y-103600000D03*
X196410000Y-102800000D03*
X196410000Y-102000000D03*
X196410000Y-101200000D03*
X196410000Y-100400000D03*
X196410000Y-99600000D03*
X196410000Y-98800000D03*
D10*
X197860000Y-97350000D03*
X198660000Y-97350000D03*
X199460000Y-97350000D03*
X200260000Y-97350000D03*
X201060000Y-97350000D03*
X201860000Y-97350000D03*
X202660000Y-97350000D03*
X203460000Y-97350000D03*
D11*
X204910000Y-98800000D03*
X204910000Y-99600000D03*
X204910000Y-100400000D03*
X204910000Y-101200000D03*
X204910000Y-102000000D03*
X204910000Y-102800000D03*
X204910000Y-103600000D03*
X204910000Y-104400000D03*
%TD*%
D12*
%TO.C,Y1*%
X208700000Y-102065000D03*
X208700000Y-99865000D03*
X210400000Y-99865000D03*
X210400000Y-102065000D03*
%TD*%
D13*
%TO.C,U5*%
X140586000Y-122973000D03*
X140586000Y-123923000D03*
X140586000Y-122023000D03*
X142786000Y-122023000D03*
X142786000Y-122973000D03*
X142786000Y-123923000D03*
%TD*%
D14*
%TO.C,U2*%
X149369500Y-125573000D03*
X148734500Y-125573000D03*
X148099500Y-125573000D03*
X147464500Y-125573000D03*
X146829500Y-125573000D03*
X146194500Y-125573000D03*
X145559500Y-125573000D03*
X144924500Y-125573000D03*
X144924500Y-120373000D03*
X145559500Y-120373000D03*
X146194500Y-120373000D03*
X146829500Y-120373000D03*
X147464500Y-120373000D03*
X148099500Y-120373000D03*
X148734500Y-120373000D03*
X149369500Y-120373000D03*
%TD*%
%TO.C,U1*%
G36*
G01*
X179163000Y-83931000D02*
X179163000Y-83731000D01*
G75*
G02*
X179263000Y-83631000I100000J0D01*
G01*
X180538000Y-83631000D01*
G75*
G02*
X180638000Y-83731000I0J-100000D01*
G01*
X180638000Y-83931000D01*
G75*
G02*
X180538000Y-84031000I-100000J0D01*
G01*
X179263000Y-84031000D01*
G75*
G02*
X179163000Y-83931000I0J100000D01*
G01*
G37*
G36*
G01*
X179163000Y-84581000D02*
X179163000Y-84381000D01*
G75*
G02*
X179263000Y-84281000I100000J0D01*
G01*
X180538000Y-84281000D01*
G75*
G02*
X180638000Y-84381000I0J-100000D01*
G01*
X180638000Y-84581000D01*
G75*
G02*
X180538000Y-84681000I-100000J0D01*
G01*
X179263000Y-84681000D01*
G75*
G02*
X179163000Y-84581000I0J100000D01*
G01*
G37*
G36*
G01*
X179163000Y-85231000D02*
X179163000Y-85031000D01*
G75*
G02*
X179263000Y-84931000I100000J0D01*
G01*
X180538000Y-84931000D01*
G75*
G02*
X180638000Y-85031000I0J-100000D01*
G01*
X180638000Y-85231000D01*
G75*
G02*
X180538000Y-85331000I-100000J0D01*
G01*
X179263000Y-85331000D01*
G75*
G02*
X179163000Y-85231000I0J100000D01*
G01*
G37*
G36*
G01*
X179163000Y-85881000D02*
X179163000Y-85681000D01*
G75*
G02*
X179263000Y-85581000I100000J0D01*
G01*
X180538000Y-85581000D01*
G75*
G02*
X180638000Y-85681000I0J-100000D01*
G01*
X180638000Y-85881000D01*
G75*
G02*
X180538000Y-85981000I-100000J0D01*
G01*
X179263000Y-85981000D01*
G75*
G02*
X179163000Y-85881000I0J100000D01*
G01*
G37*
G36*
G01*
X179163000Y-86531000D02*
X179163000Y-86331000D01*
G75*
G02*
X179263000Y-86231000I100000J0D01*
G01*
X180538000Y-86231000D01*
G75*
G02*
X180638000Y-86331000I0J-100000D01*
G01*
X180638000Y-86531000D01*
G75*
G02*
X180538000Y-86631000I-100000J0D01*
G01*
X179263000Y-86631000D01*
G75*
G02*
X179163000Y-86531000I0J100000D01*
G01*
G37*
G36*
G01*
X179163000Y-87181000D02*
X179163000Y-86981000D01*
G75*
G02*
X179263000Y-86881000I100000J0D01*
G01*
X180538000Y-86881000D01*
G75*
G02*
X180638000Y-86981000I0J-100000D01*
G01*
X180638000Y-87181000D01*
G75*
G02*
X180538000Y-87281000I-100000J0D01*
G01*
X179263000Y-87281000D01*
G75*
G02*
X179163000Y-87181000I0J100000D01*
G01*
G37*
G36*
G01*
X179163000Y-87831000D02*
X179163000Y-87631000D01*
G75*
G02*
X179263000Y-87531000I100000J0D01*
G01*
X180538000Y-87531000D01*
G75*
G02*
X180638000Y-87631000I0J-100000D01*
G01*
X180638000Y-87831000D01*
G75*
G02*
X180538000Y-87931000I-100000J0D01*
G01*
X179263000Y-87931000D01*
G75*
G02*
X179163000Y-87831000I0J100000D01*
G01*
G37*
G36*
G01*
X179163000Y-88481000D02*
X179163000Y-88281000D01*
G75*
G02*
X179263000Y-88181000I100000J0D01*
G01*
X180538000Y-88181000D01*
G75*
G02*
X180638000Y-88281000I0J-100000D01*
G01*
X180638000Y-88481000D01*
G75*
G02*
X180538000Y-88581000I-100000J0D01*
G01*
X179263000Y-88581000D01*
G75*
G02*
X179163000Y-88481000I0J100000D01*
G01*
G37*
G36*
G01*
X173438000Y-88481000D02*
X173438000Y-88281000D01*
G75*
G02*
X173538000Y-88181000I100000J0D01*
G01*
X174813000Y-88181000D01*
G75*
G02*
X174913000Y-88281000I0J-100000D01*
G01*
X174913000Y-88481000D01*
G75*
G02*
X174813000Y-88581000I-100000J0D01*
G01*
X173538000Y-88581000D01*
G75*
G02*
X173438000Y-88481000I0J100000D01*
G01*
G37*
G36*
G01*
X173438000Y-87831000D02*
X173438000Y-87631000D01*
G75*
G02*
X173538000Y-87531000I100000J0D01*
G01*
X174813000Y-87531000D01*
G75*
G02*
X174913000Y-87631000I0J-100000D01*
G01*
X174913000Y-87831000D01*
G75*
G02*
X174813000Y-87931000I-100000J0D01*
G01*
X173538000Y-87931000D01*
G75*
G02*
X173438000Y-87831000I0J100000D01*
G01*
G37*
G36*
G01*
X173438000Y-87181000D02*
X173438000Y-86981000D01*
G75*
G02*
X173538000Y-86881000I100000J0D01*
G01*
X174813000Y-86881000D01*
G75*
G02*
X174913000Y-86981000I0J-100000D01*
G01*
X174913000Y-87181000D01*
G75*
G02*
X174813000Y-87281000I-100000J0D01*
G01*
X173538000Y-87281000D01*
G75*
G02*
X173438000Y-87181000I0J100000D01*
G01*
G37*
G36*
G01*
X173438000Y-86531000D02*
X173438000Y-86331000D01*
G75*
G02*
X173538000Y-86231000I100000J0D01*
G01*
X174813000Y-86231000D01*
G75*
G02*
X174913000Y-86331000I0J-100000D01*
G01*
X174913000Y-86531000D01*
G75*
G02*
X174813000Y-86631000I-100000J0D01*
G01*
X173538000Y-86631000D01*
G75*
G02*
X173438000Y-86531000I0J100000D01*
G01*
G37*
G36*
G01*
X173438000Y-85881000D02*
X173438000Y-85681000D01*
G75*
G02*
X173538000Y-85581000I100000J0D01*
G01*
X174813000Y-85581000D01*
G75*
G02*
X174913000Y-85681000I0J-100000D01*
G01*
X174913000Y-85881000D01*
G75*
G02*
X174813000Y-85981000I-100000J0D01*
G01*
X173538000Y-85981000D01*
G75*
G02*
X173438000Y-85881000I0J100000D01*
G01*
G37*
G36*
G01*
X173438000Y-85231000D02*
X173438000Y-85031000D01*
G75*
G02*
X173538000Y-84931000I100000J0D01*
G01*
X174813000Y-84931000D01*
G75*
G02*
X174913000Y-85031000I0J-100000D01*
G01*
X174913000Y-85231000D01*
G75*
G02*
X174813000Y-85331000I-100000J0D01*
G01*
X173538000Y-85331000D01*
G75*
G02*
X173438000Y-85231000I0J100000D01*
G01*
G37*
G36*
G01*
X173438000Y-84581000D02*
X173438000Y-84381000D01*
G75*
G02*
X173538000Y-84281000I100000J0D01*
G01*
X174813000Y-84281000D01*
G75*
G02*
X174913000Y-84381000I0J-100000D01*
G01*
X174913000Y-84581000D01*
G75*
G02*
X174813000Y-84681000I-100000J0D01*
G01*
X173538000Y-84681000D01*
G75*
G02*
X173438000Y-84581000I0J100000D01*
G01*
G37*
G36*
G01*
X173438000Y-83931000D02*
X173438000Y-83731000D01*
G75*
G02*
X173538000Y-83631000I100000J0D01*
G01*
X174813000Y-83631000D01*
G75*
G02*
X174913000Y-83731000I0J-100000D01*
G01*
X174913000Y-83931000D01*
G75*
G02*
X174813000Y-84031000I-100000J0D01*
G01*
X173538000Y-84031000D01*
G75*
G02*
X173438000Y-83931000I0J100000D01*
G01*
G37*
%TD*%
%TO.C,R7*%
G36*
G01*
X142086000Y-126598001D02*
X142086000Y-125697999D01*
G75*
G02*
X142335999Y-125448000I249999J0D01*
G01*
X142861001Y-125448000D01*
G75*
G02*
X143111000Y-125697999I0J-249999D01*
G01*
X143111000Y-126598001D01*
G75*
G02*
X142861001Y-126848000I-249999J0D01*
G01*
X142335999Y-126848000D01*
G75*
G02*
X142086000Y-126598001I0J249999D01*
G01*
G37*
G36*
G01*
X140261000Y-126598001D02*
X140261000Y-125697999D01*
G75*
G02*
X140510999Y-125448000I249999J0D01*
G01*
X141036001Y-125448000D01*
G75*
G02*
X141286000Y-125697999I0J-249999D01*
G01*
X141286000Y-126598001D01*
G75*
G02*
X141036001Y-126848000I-249999J0D01*
G01*
X140510999Y-126848000D01*
G75*
G02*
X140261000Y-126598001I0J249999D01*
G01*
G37*
%TD*%
%TO.C,R6*%
G36*
G01*
X142086000Y-120248001D02*
X142086000Y-119347999D01*
G75*
G02*
X142335999Y-119098000I249999J0D01*
G01*
X142861001Y-119098000D01*
G75*
G02*
X143111000Y-119347999I0J-249999D01*
G01*
X143111000Y-120248001D01*
G75*
G02*
X142861001Y-120498000I-249999J0D01*
G01*
X142335999Y-120498000D01*
G75*
G02*
X142086000Y-120248001I0J249999D01*
G01*
G37*
G36*
G01*
X140261000Y-120248001D02*
X140261000Y-119347999D01*
G75*
G02*
X140510999Y-119098000I249999J0D01*
G01*
X141036001Y-119098000D01*
G75*
G02*
X141286000Y-119347999I0J-249999D01*
G01*
X141286000Y-120248001D01*
G75*
G02*
X141036001Y-120498000I-249999J0D01*
G01*
X140510999Y-120498000D01*
G75*
G02*
X140261000Y-120248001I0J249999D01*
G01*
G37*
%TD*%
%TO.C,R3*%
G36*
G01*
X201110001Y-110090000D02*
X200209999Y-110090000D01*
G75*
G02*
X199960000Y-109840001I0J249999D01*
G01*
X199960000Y-109314999D01*
G75*
G02*
X200209999Y-109065000I249999J0D01*
G01*
X201110001Y-109065000D01*
G75*
G02*
X201360000Y-109314999I0J-249999D01*
G01*
X201360000Y-109840001D01*
G75*
G02*
X201110001Y-110090000I-249999J0D01*
G01*
G37*
G36*
G01*
X201110001Y-111915000D02*
X200209999Y-111915000D01*
G75*
G02*
X199960000Y-111665001I0J249999D01*
G01*
X199960000Y-111139999D01*
G75*
G02*
X200209999Y-110890000I249999J0D01*
G01*
X201110001Y-110890000D01*
G75*
G02*
X201360000Y-111139999I0J-249999D01*
G01*
X201360000Y-111665001D01*
G75*
G02*
X201110001Y-111915000I-249999J0D01*
G01*
G37*
%TD*%
%TO.C,R2*%
G36*
G01*
X146150000Y-133329001D02*
X146150000Y-132428999D01*
G75*
G02*
X146399999Y-132179000I249999J0D01*
G01*
X146925001Y-132179000D01*
G75*
G02*
X147175000Y-132428999I0J-249999D01*
G01*
X147175000Y-133329001D01*
G75*
G02*
X146925001Y-133579000I-249999J0D01*
G01*
X146399999Y-133579000D01*
G75*
G02*
X146150000Y-133329001I0J249999D01*
G01*
G37*
G36*
G01*
X144325000Y-133329001D02*
X144325000Y-132428999D01*
G75*
G02*
X144574999Y-132179000I249999J0D01*
G01*
X145100001Y-132179000D01*
G75*
G02*
X145350000Y-132428999I0J-249999D01*
G01*
X145350000Y-133329001D01*
G75*
G02*
X145100001Y-133579000I-249999J0D01*
G01*
X144574999Y-133579000D01*
G75*
G02*
X144325000Y-133329001I0J249999D01*
G01*
G37*
%TD*%
%TO.C,R1*%
G36*
G01*
X171900001Y-82912000D02*
X170999999Y-82912000D01*
G75*
G02*
X170750000Y-82662001I0J249999D01*
G01*
X170750000Y-82136999D01*
G75*
G02*
X170999999Y-81887000I249999J0D01*
G01*
X171900001Y-81887000D01*
G75*
G02*
X172150000Y-82136999I0J-249999D01*
G01*
X172150000Y-82662001D01*
G75*
G02*
X171900001Y-82912000I-249999J0D01*
G01*
G37*
G36*
G01*
X171900001Y-84737000D02*
X170999999Y-84737000D01*
G75*
G02*
X170750000Y-84487001I0J249999D01*
G01*
X170750000Y-83961999D01*
G75*
G02*
X170999999Y-83712000I249999J0D01*
G01*
X171900001Y-83712000D01*
G75*
G02*
X172150000Y-83961999I0J-249999D01*
G01*
X172150000Y-84487001D01*
G75*
G02*
X171900001Y-84737000I-249999J0D01*
G01*
G37*
%TD*%
%TO.C,C14*%
G36*
G01*
X190870000Y-94599999D02*
X190870000Y-95900001D01*
G75*
G02*
X190620001Y-96150000I-249999J0D01*
G01*
X189969999Y-96150000D01*
G75*
G02*
X189720000Y-95900001I0J249999D01*
G01*
X189720000Y-94599999D01*
G75*
G02*
X189969999Y-94350000I249999J0D01*
G01*
X190620001Y-94350000D01*
G75*
G02*
X190870000Y-94599999I0J-249999D01*
G01*
G37*
G36*
G01*
X193820000Y-94599999D02*
X193820000Y-95900001D01*
G75*
G02*
X193570001Y-96150000I-249999J0D01*
G01*
X192919999Y-96150000D01*
G75*
G02*
X192670000Y-95900001I0J249999D01*
G01*
X192670000Y-94599999D01*
G75*
G02*
X192919999Y-94350000I249999J0D01*
G01*
X193570001Y-94350000D01*
G75*
G02*
X193820000Y-94599999I0J-249999D01*
G01*
G37*
%TD*%
%TO.C,C13*%
G36*
G01*
X205878000Y-114950001D02*
X205878000Y-113649999D01*
G75*
G02*
X206127999Y-113400000I249999J0D01*
G01*
X206778001Y-113400000D01*
G75*
G02*
X207028000Y-113649999I0J-249999D01*
G01*
X207028000Y-114950001D01*
G75*
G02*
X206778001Y-115200000I-249999J0D01*
G01*
X206127999Y-115200000D01*
G75*
G02*
X205878000Y-114950001I0J249999D01*
G01*
G37*
G36*
G01*
X202928000Y-114950001D02*
X202928000Y-113649999D01*
G75*
G02*
X203177999Y-113400000I249999J0D01*
G01*
X203828001Y-113400000D01*
G75*
G02*
X204078000Y-113649999I0J-249999D01*
G01*
X204078000Y-114950001D01*
G75*
G02*
X203828001Y-115200000I-249999J0D01*
G01*
X203177999Y-115200000D01*
G75*
G02*
X202928000Y-114950001I0J249999D01*
G01*
G37*
%TD*%
%TO.C,C12*%
G36*
G01*
X214233999Y-71512000D02*
X215534001Y-71512000D01*
G75*
G02*
X215784000Y-71761999I0J-249999D01*
G01*
X215784000Y-72412001D01*
G75*
G02*
X215534001Y-72662000I-249999J0D01*
G01*
X214233999Y-72662000D01*
G75*
G02*
X213984000Y-72412001I0J249999D01*
G01*
X213984000Y-71761999D01*
G75*
G02*
X214233999Y-71512000I249999J0D01*
G01*
G37*
G36*
G01*
X214233999Y-68562000D02*
X215534001Y-68562000D01*
G75*
G02*
X215784000Y-68811999I0J-249999D01*
G01*
X215784000Y-69462001D01*
G75*
G02*
X215534001Y-69712000I-249999J0D01*
G01*
X214233999Y-69712000D01*
G75*
G02*
X213984000Y-69462001I0J249999D01*
G01*
X213984000Y-68811999D01*
G75*
G02*
X214233999Y-68562000I249999J0D01*
G01*
G37*
%TD*%
%TO.C,C11*%
G36*
G01*
X192855000Y-99535000D02*
X192855000Y-98585000D01*
G75*
G02*
X193105000Y-98335000I250000J0D01*
G01*
X193605000Y-98335000D01*
G75*
G02*
X193855000Y-98585000I0J-250000D01*
G01*
X193855000Y-99535000D01*
G75*
G02*
X193605000Y-99785000I-250000J0D01*
G01*
X193105000Y-99785000D01*
G75*
G02*
X192855000Y-99535000I0J250000D01*
G01*
G37*
G36*
G01*
X190955000Y-99535000D02*
X190955000Y-98585000D01*
G75*
G02*
X191205000Y-98335000I250000J0D01*
G01*
X191705000Y-98335000D01*
G75*
G02*
X191955000Y-98585000I0J-250000D01*
G01*
X191955000Y-99535000D01*
G75*
G02*
X191705000Y-99785000I-250000J0D01*
G01*
X191205000Y-99785000D01*
G75*
G02*
X190955000Y-99535000I0J250000D01*
G01*
G37*
%TD*%
%TO.C,C9*%
G36*
G01*
X191955000Y-101125000D02*
X191955000Y-102075000D01*
G75*
G02*
X191705000Y-102325000I-250000J0D01*
G01*
X191205000Y-102325000D01*
G75*
G02*
X190955000Y-102075000I0J250000D01*
G01*
X190955000Y-101125000D01*
G75*
G02*
X191205000Y-100875000I250000J0D01*
G01*
X191705000Y-100875000D01*
G75*
G02*
X191955000Y-101125000I0J-250000D01*
G01*
G37*
G36*
G01*
X193855000Y-101125000D02*
X193855000Y-102075000D01*
G75*
G02*
X193605000Y-102325000I-250000J0D01*
G01*
X193105000Y-102325000D01*
G75*
G02*
X192855000Y-102075000I0J250000D01*
G01*
X192855000Y-101125000D01*
G75*
G02*
X193105000Y-100875000I250000J0D01*
G01*
X193605000Y-100875000D01*
G75*
G02*
X193855000Y-101125000I0J-250000D01*
G01*
G37*
%TD*%
%TO.C,C8*%
G36*
G01*
X209100000Y-96680000D02*
X209100000Y-97630000D01*
G75*
G02*
X208850000Y-97880000I-250000J0D01*
G01*
X208350000Y-97880000D01*
G75*
G02*
X208100000Y-97630000I0J250000D01*
G01*
X208100000Y-96680000D01*
G75*
G02*
X208350000Y-96430000I250000J0D01*
G01*
X208850000Y-96430000D01*
G75*
G02*
X209100000Y-96680000I0J-250000D01*
G01*
G37*
G36*
G01*
X211000000Y-96680000D02*
X211000000Y-97630000D01*
G75*
G02*
X210750000Y-97880000I-250000J0D01*
G01*
X210250000Y-97880000D01*
G75*
G02*
X210000000Y-97630000I0J250000D01*
G01*
X210000000Y-96680000D01*
G75*
G02*
X210250000Y-96430000I250000J0D01*
G01*
X210750000Y-96430000D01*
G75*
G02*
X211000000Y-96680000I0J-250000D01*
G01*
G37*
%TD*%
%TO.C,C7*%
G36*
G01*
X213200000Y-100515000D02*
X212250000Y-100515000D01*
G75*
G02*
X212000000Y-100265000I0J250000D01*
G01*
X212000000Y-99765000D01*
G75*
G02*
X212250000Y-99515000I250000J0D01*
G01*
X213200000Y-99515000D01*
G75*
G02*
X213450000Y-99765000I0J-250000D01*
G01*
X213450000Y-100265000D01*
G75*
G02*
X213200000Y-100515000I-250000J0D01*
G01*
G37*
G36*
G01*
X213200000Y-102415000D02*
X212250000Y-102415000D01*
G75*
G02*
X212000000Y-102165000I0J250000D01*
G01*
X212000000Y-101665000D01*
G75*
G02*
X212250000Y-101415000I250000J0D01*
G01*
X213200000Y-101415000D01*
G75*
G02*
X213450000Y-101665000I0J-250000D01*
G01*
X213450000Y-102165000D01*
G75*
G02*
X213200000Y-102415000I-250000J0D01*
G01*
G37*
%TD*%
%TO.C,C6*%
G36*
G01*
X145300000Y-130118000D02*
X145300000Y-131068000D01*
G75*
G02*
X145050000Y-131318000I-250000J0D01*
G01*
X144550000Y-131318000D01*
G75*
G02*
X144300000Y-131068000I0J250000D01*
G01*
X144300000Y-130118000D01*
G75*
G02*
X144550000Y-129868000I250000J0D01*
G01*
X145050000Y-129868000D01*
G75*
G02*
X145300000Y-130118000I0J-250000D01*
G01*
G37*
G36*
G01*
X147200000Y-130118000D02*
X147200000Y-131068000D01*
G75*
G02*
X146950000Y-131318000I-250000J0D01*
G01*
X146450000Y-131318000D01*
G75*
G02*
X146200000Y-131068000I0J250000D01*
G01*
X146200000Y-130118000D01*
G75*
G02*
X146450000Y-129868000I250000J0D01*
G01*
X146950000Y-129868000D01*
G75*
G02*
X147200000Y-130118000I0J-250000D01*
G01*
G37*
%TD*%
%TO.C,C5*%
G36*
G01*
X204020000Y-116365000D02*
X204020000Y-117315000D01*
G75*
G02*
X203770000Y-117565000I-250000J0D01*
G01*
X203270000Y-117565000D01*
G75*
G02*
X203020000Y-117315000I0J250000D01*
G01*
X203020000Y-116365000D01*
G75*
G02*
X203270000Y-116115000I250000J0D01*
G01*
X203770000Y-116115000D01*
G75*
G02*
X204020000Y-116365000I0J-250000D01*
G01*
G37*
G36*
G01*
X205920000Y-116365000D02*
X205920000Y-117315000D01*
G75*
G02*
X205670000Y-117565000I-250000J0D01*
G01*
X205170000Y-117565000D01*
G75*
G02*
X204920000Y-117315000I0J250000D01*
G01*
X204920000Y-116365000D01*
G75*
G02*
X205170000Y-116115000I250000J0D01*
G01*
X205670000Y-116115000D01*
G75*
G02*
X205920000Y-116365000I0J-250000D01*
G01*
G37*
%TD*%
%TO.C,C4*%
G36*
G01*
X145300000Y-127578000D02*
X145300000Y-128528000D01*
G75*
G02*
X145050000Y-128778000I-250000J0D01*
G01*
X144550000Y-128778000D01*
G75*
G02*
X144300000Y-128528000I0J250000D01*
G01*
X144300000Y-127578000D01*
G75*
G02*
X144550000Y-127328000I250000J0D01*
G01*
X145050000Y-127328000D01*
G75*
G02*
X145300000Y-127578000I0J-250000D01*
G01*
G37*
G36*
G01*
X147200000Y-127578000D02*
X147200000Y-128528000D01*
G75*
G02*
X146950000Y-128778000I-250000J0D01*
G01*
X146450000Y-128778000D01*
G75*
G02*
X146200000Y-128528000I0J250000D01*
G01*
X146200000Y-127578000D01*
G75*
G02*
X146450000Y-127328000I250000J0D01*
G01*
X146950000Y-127328000D01*
G75*
G02*
X147200000Y-127578000I0J-250000D01*
G01*
G37*
%TD*%
%TO.C,C3*%
G36*
G01*
X180525000Y-81440000D02*
X180525000Y-82390000D01*
G75*
G02*
X180275000Y-82640000I-250000J0D01*
G01*
X179775000Y-82640000D01*
G75*
G02*
X179525000Y-82390000I0J250000D01*
G01*
X179525000Y-81440000D01*
G75*
G02*
X179775000Y-81190000I250000J0D01*
G01*
X180275000Y-81190000D01*
G75*
G02*
X180525000Y-81440000I0J-250000D01*
G01*
G37*
G36*
G01*
X182425000Y-81440000D02*
X182425000Y-82390000D01*
G75*
G02*
X182175000Y-82640000I-250000J0D01*
G01*
X181675000Y-82640000D01*
G75*
G02*
X181425000Y-82390000I0J250000D01*
G01*
X181425000Y-81440000D01*
G75*
G02*
X181675000Y-81190000I250000J0D01*
G01*
X182175000Y-81190000D01*
G75*
G02*
X182425000Y-81440000I0J-250000D01*
G01*
G37*
%TD*%
%TO.C,C2*%
G36*
G01*
X141236000Y-116783000D02*
X141236000Y-117733000D01*
G75*
G02*
X140986000Y-117983000I-250000J0D01*
G01*
X140486000Y-117983000D01*
G75*
G02*
X140236000Y-117733000I0J250000D01*
G01*
X140236000Y-116783000D01*
G75*
G02*
X140486000Y-116533000I250000J0D01*
G01*
X140986000Y-116533000D01*
G75*
G02*
X141236000Y-116783000I0J-250000D01*
G01*
G37*
G36*
G01*
X143136000Y-116783000D02*
X143136000Y-117733000D01*
G75*
G02*
X142886000Y-117983000I-250000J0D01*
G01*
X142386000Y-117983000D01*
G75*
G02*
X142136000Y-117733000I0J250000D01*
G01*
X142136000Y-116783000D01*
G75*
G02*
X142386000Y-116533000I250000J0D01*
G01*
X142886000Y-116533000D01*
G75*
G02*
X143136000Y-116783000I0J-250000D01*
G01*
G37*
%TD*%
%TO.C,C1*%
G36*
G01*
X141236000Y-128086000D02*
X141236000Y-129036000D01*
G75*
G02*
X140986000Y-129286000I-250000J0D01*
G01*
X140486000Y-129286000D01*
G75*
G02*
X140236000Y-129036000I0J250000D01*
G01*
X140236000Y-128086000D01*
G75*
G02*
X140486000Y-127836000I250000J0D01*
G01*
X140986000Y-127836000D01*
G75*
G02*
X141236000Y-128086000I0J-250000D01*
G01*
G37*
G36*
G01*
X143136000Y-128086000D02*
X143136000Y-129036000D01*
G75*
G02*
X142886000Y-129286000I-250000J0D01*
G01*
X142386000Y-129286000D01*
G75*
G02*
X142136000Y-129036000I0J250000D01*
G01*
X142136000Y-128086000D01*
G75*
G02*
X142386000Y-127836000I250000J0D01*
G01*
X142886000Y-127836000D01*
G75*
G02*
X143136000Y-128086000I0J-250000D01*
G01*
G37*
%TD*%
M02*
