%TF.GenerationSoftware,KiCad,Pcbnew,(5.1.8-0-10_14)*%
%TF.CreationDate,2021-12-04T19:42:54-08:00*%
%TF.ProjectId,Control,436f6e74-726f-46c2-9e6b-696361645f70,rev?*%
%TF.SameCoordinates,Original*%
%TF.FileFunction,Soldermask,Bot*%
%TF.FilePolarity,Negative*%
%FSLAX46Y46*%
G04 Gerber Fmt 4.6, Leading zero omitted, Abs format (unit mm)*
G04 Created by KiCad (PCBNEW (5.1.8-0-10_14)) date 2021-12-04 19:42:54*
%MOMM*%
%LPD*%
G01*
G04 APERTURE LIST*
%ADD10C,3.000000*%
%ADD11O,4.000000X7.000000*%
%ADD12C,2.000000*%
%ADD13C,0.800000*%
%ADD14C,6.000000*%
%ADD15C,4.000000*%
%ADD16R,1.100000X1.500000*%
%ADD17O,1.700000X1.700000*%
%ADD18R,1.700000X1.700000*%
%ADD19C,1.700000*%
%ADD20C,0.990600*%
%ADD21C,2.374900*%
%ADD22C,1.612900*%
%ADD23R,2.000000X2.000000*%
G04 APERTURE END LIST*
D10*
%TO.C,SW1*%
X116840000Y-101600000D03*
D11*
X112290000Y-101600000D03*
X121390000Y-101600000D03*
D12*
X114340000Y-94600000D03*
X119340000Y-94600000D03*
X119340000Y-109100000D03*
X114340000Y-109100000D03*
X116840000Y-109100000D03*
%TD*%
D13*
%TO.C,H4*%
X230190990Y-127949010D03*
X228600000Y-127290000D03*
X227009010Y-127949010D03*
X226350000Y-129540000D03*
X227009010Y-131130990D03*
X228600000Y-131790000D03*
X230190990Y-131130990D03*
X230850000Y-129540000D03*
D14*
X228600000Y-129540000D03*
%TD*%
D13*
%TO.C,H3*%
X61280990Y-129219010D03*
X59690000Y-128560000D03*
X58099010Y-129219010D03*
X57440000Y-130810000D03*
X58099010Y-132400990D03*
X59690000Y-133060000D03*
X61280990Y-132400990D03*
X61940000Y-130810000D03*
D14*
X59690000Y-130810000D03*
%TD*%
D13*
%TO.C,H2*%
X230190990Y-66989010D03*
X228600000Y-66330000D03*
X227009010Y-66989010D03*
X226350000Y-68580000D03*
X227009010Y-70170990D03*
X228600000Y-70830000D03*
X230190990Y-70170990D03*
X230850000Y-68580000D03*
D14*
X228600000Y-68580000D03*
%TD*%
D13*
%TO.C,H1*%
X61280990Y-66989010D03*
X59690000Y-66330000D03*
X58099010Y-66989010D03*
X57440000Y-68580000D03*
X58099010Y-70170990D03*
X59690000Y-70830000D03*
X61280990Y-70170990D03*
X61940000Y-68580000D03*
D14*
X59690000Y-68580000D03*
%TD*%
D15*
%TO.C,USB1*%
X133134000Y-118943000D03*
X133134000Y-132083000D03*
G36*
G01*
X135219000Y-128263000D02*
X136469000Y-128263000D01*
G75*
G02*
X136844000Y-128638000I0J-375000D01*
G01*
X136844000Y-129388000D01*
G75*
G02*
X136469000Y-129763000I-375000J0D01*
G01*
X135219000Y-129763000D01*
G75*
G02*
X134844000Y-129388000I0J375000D01*
G01*
X134844000Y-128638000D01*
G75*
G02*
X135219000Y-128263000I375000J0D01*
G01*
G37*
G36*
G01*
X135219000Y-125763000D02*
X136469000Y-125763000D01*
G75*
G02*
X136844000Y-126138000I0J-375000D01*
G01*
X136844000Y-126888000D01*
G75*
G02*
X136469000Y-127263000I-375000J0D01*
G01*
X135219000Y-127263000D01*
G75*
G02*
X134844000Y-126888000I0J375000D01*
G01*
X134844000Y-126138000D01*
G75*
G02*
X135219000Y-125763000I375000J0D01*
G01*
G37*
G36*
G01*
X135219000Y-123763000D02*
X136469000Y-123763000D01*
G75*
G02*
X136844000Y-124138000I0J-375000D01*
G01*
X136844000Y-124888000D01*
G75*
G02*
X136469000Y-125263000I-375000J0D01*
G01*
X135219000Y-125263000D01*
G75*
G02*
X134844000Y-124888000I0J375000D01*
G01*
X134844000Y-124138000D01*
G75*
G02*
X135219000Y-123763000I375000J0D01*
G01*
G37*
G36*
G01*
X135219000Y-121263000D02*
X136469000Y-121263000D01*
G75*
G02*
X136844000Y-121638000I0J-375000D01*
G01*
X136844000Y-122388000D01*
G75*
G02*
X136469000Y-122763000I-375000J0D01*
G01*
X135219000Y-122763000D01*
G75*
G02*
X134844000Y-122388000I0J375000D01*
G01*
X134844000Y-121638000D01*
G75*
G02*
X135219000Y-121263000I375000J0D01*
G01*
G37*
%TD*%
D16*
%TO.C,D1*%
X76950000Y-72160000D03*
X76950000Y-75160000D03*
X75450000Y-75160000D03*
X75450000Y-72160000D03*
%TD*%
D17*
%TO.C,SW3*%
X101600000Y-104140000D03*
X101600000Y-101600000D03*
D18*
X101600000Y-99060000D03*
%TD*%
D17*
%TO.C,SW2*%
X229870000Y-101600000D03*
D18*
X229870000Y-99060000D03*
%TD*%
%TO.C,R10*%
G36*
G01*
X83585000Y-71570001D02*
X83585000Y-70669999D01*
G75*
G02*
X83834999Y-70420000I249999J0D01*
G01*
X84360001Y-70420000D01*
G75*
G02*
X84610000Y-70669999I0J-249999D01*
G01*
X84610000Y-71570001D01*
G75*
G02*
X84360001Y-71820000I-249999J0D01*
G01*
X83834999Y-71820000D01*
G75*
G02*
X83585000Y-71570001I0J249999D01*
G01*
G37*
G36*
G01*
X81760000Y-71570001D02*
X81760000Y-70669999D01*
G75*
G02*
X82009999Y-70420000I249999J0D01*
G01*
X82535001Y-70420000D01*
G75*
G02*
X82785000Y-70669999I0J-249999D01*
G01*
X82785000Y-71570001D01*
G75*
G02*
X82535001Y-71820000I-249999J0D01*
G01*
X82009999Y-71820000D01*
G75*
G02*
X81760000Y-71570001I0J249999D01*
G01*
G37*
%TD*%
%TO.C,R9*%
G36*
G01*
X83585000Y-76650001D02*
X83585000Y-75749999D01*
G75*
G02*
X83834999Y-75500000I249999J0D01*
G01*
X84360001Y-75500000D01*
G75*
G02*
X84610000Y-75749999I0J-249999D01*
G01*
X84610000Y-76650001D01*
G75*
G02*
X84360001Y-76900000I-249999J0D01*
G01*
X83834999Y-76900000D01*
G75*
G02*
X83585000Y-76650001I0J249999D01*
G01*
G37*
G36*
G01*
X81760000Y-76650001D02*
X81760000Y-75749999D01*
G75*
G02*
X82009999Y-75500000I249999J0D01*
G01*
X82535001Y-75500000D01*
G75*
G02*
X82785000Y-75749999I0J-249999D01*
G01*
X82785000Y-76650001D01*
G75*
G02*
X82535001Y-76900000I-249999J0D01*
G01*
X82009999Y-76900000D01*
G75*
G02*
X81760000Y-76650001I0J249999D01*
G01*
G37*
%TD*%
%TO.C,R8*%
G36*
G01*
X83585000Y-74110001D02*
X83585000Y-73209999D01*
G75*
G02*
X83834999Y-72960000I249999J0D01*
G01*
X84360001Y-72960000D01*
G75*
G02*
X84610000Y-73209999I0J-249999D01*
G01*
X84610000Y-74110001D01*
G75*
G02*
X84360001Y-74360000I-249999J0D01*
G01*
X83834999Y-74360000D01*
G75*
G02*
X83585000Y-74110001I0J249999D01*
G01*
G37*
G36*
G01*
X81760000Y-74110001D02*
X81760000Y-73209999D01*
G75*
G02*
X82009999Y-72960000I249999J0D01*
G01*
X82535001Y-72960000D01*
G75*
G02*
X82785000Y-73209999I0J-249999D01*
G01*
X82785000Y-74110001D01*
G75*
G02*
X82535001Y-74360000I-249999J0D01*
G01*
X82009999Y-74360000D01*
G75*
G02*
X81760000Y-74110001I0J249999D01*
G01*
G37*
%TD*%
D19*
%TO.C,MCU1*%
X190500000Y-71120000D03*
X193040000Y-71120000D03*
X195580000Y-71120000D03*
X198120000Y-71120000D03*
X200660000Y-71120000D03*
X203200000Y-71120000D03*
X205740000Y-71120000D03*
X190500000Y-68580000D03*
X193040000Y-68580000D03*
X195580000Y-68580000D03*
X198120000Y-68580000D03*
X200660000Y-68580000D03*
X203200000Y-68580000D03*
G36*
G01*
X205140000Y-67730000D02*
X206340000Y-67730000D01*
G75*
G02*
X206590000Y-67980000I0J-250000D01*
G01*
X206590000Y-69180000D01*
G75*
G02*
X206340000Y-69430000I-250000J0D01*
G01*
X205140000Y-69430000D01*
G75*
G02*
X204890000Y-69180000I0J250000D01*
G01*
X204890000Y-67980000D01*
G75*
G02*
X205140000Y-67730000I250000J0D01*
G01*
G37*
%TD*%
D20*
%TO.C,ISP1*%
X194056000Y-85344000D03*
D21*
X188341000Y-87884000D03*
X194056000Y-87884000D03*
X194056000Y-82804000D03*
X188341000Y-82804000D03*
D22*
X186436000Y-86360000D03*
X186436000Y-84328000D03*
%TD*%
D12*
%TO.C,DISP1*%
X158750000Y-120650000D03*
X161290000Y-120650000D03*
X163830000Y-120650000D03*
X166370000Y-120650000D03*
X168910000Y-120650000D03*
X171450000Y-120650000D03*
X173990000Y-120650000D03*
X176530000Y-120650000D03*
X179070000Y-120650000D03*
X181610000Y-120650000D03*
D23*
X207010000Y-120650000D03*
D12*
X204470000Y-120650000D03*
X201930000Y-120650000D03*
X199390000Y-120650000D03*
X196850000Y-120650000D03*
X194310000Y-120650000D03*
X191770000Y-120650000D03*
X189230000Y-120650000D03*
X186690000Y-120650000D03*
X184150000Y-120650000D03*
%TD*%
M02*
