%TF.GenerationSoftware,KiCad,Pcbnew,(5.1.8-0-10_14)*%
%TF.CreationDate,2021-12-04T19:42:54-08:00*%
%TF.ProjectId,Control,436f6e74-726f-46c2-9e6b-696361645f70,rev?*%
%TF.SameCoordinates,Original*%
%TF.FileFunction,Legend,Bot*%
%TF.FilePolarity,Positive*%
%FSLAX46Y46*%
G04 Gerber Fmt 4.6, Leading zero omitted, Abs format (unit mm)*
G04 Created by KiCad (PCBNEW (5.1.8-0-10_14)) date 2021-12-04 19:42:54*
%MOMM*%
%LPD*%
G01*
G04 APERTURE LIST*
%ADD10C,0.500000*%
%ADD11C,0.120000*%
%ADD12C,0.150000*%
G04 APERTURE END LIST*
D10*
X74495000Y-70485000D02*
G75*
G03*
X74495000Y-70485000I-200000J0D01*
G01*
D11*
X92710000Y-82550000D02*
X59690000Y-82550000D01*
X92710000Y-120650000D02*
X92710000Y-82550000D01*
X59690000Y-120650000D02*
X92710000Y-120650000D01*
X59690000Y-82550000D02*
X59690000Y-120650000D01*
%TO.C,SW1*%
X120090000Y-101600000D02*
G75*
G03*
X120090000Y-101600000I-3250000J0D01*
G01*
X122840000Y-94600000D02*
X122840000Y-97600000D01*
X122840000Y-108100000D02*
X110840000Y-108100000D01*
X110840000Y-97600000D02*
X110840000Y-94600000D01*
X120840000Y-94600000D02*
X122840000Y-94600000D01*
X117840000Y-94600000D02*
X115840000Y-94600000D01*
X112840000Y-94600000D02*
X110840000Y-94600000D01*
X110840000Y-105600000D02*
X110840000Y-108100000D01*
X122840000Y-108100000D02*
X122840000Y-105600000D01*
%TO.C,D1*%
X75500000Y-71160000D02*
X74700000Y-71160000D01*
X74700000Y-71159956D02*
X74700000Y-75610000D01*
X77700000Y-71710000D02*
X77700000Y-75610000D01*
%TO.C,R10*%
X82957936Y-71855000D02*
X83412064Y-71855000D01*
X82957936Y-70385000D02*
X83412064Y-70385000D01*
%TO.C,R9*%
X82957936Y-76935000D02*
X83412064Y-76935000D01*
X82957936Y-75465000D02*
X83412064Y-75465000D01*
%TO.C,R8*%
X82957936Y-74395000D02*
X83412064Y-74395000D01*
X82957936Y-72925000D02*
X83412064Y-72925000D01*
%TO.C,DISP1*%
X138280000Y-79150000D02*
X227480000Y-79150000D01*
X138280000Y-123150000D02*
X227480000Y-123150000D01*
X227480000Y-123150000D02*
X227480000Y-79150000D01*
X138280000Y-123150000D02*
X138280000Y-79150000D01*
X141880000Y-112150000D02*
X223880000Y-112150000D01*
X223880000Y-112150000D02*
X223880000Y-90150000D01*
X141880000Y-90150000D02*
X223880000Y-90150000D01*
X141880000Y-112150000D02*
X141880000Y-90150000D01*
%TO.C,SW1*%
D12*
X125793333Y-112164761D02*
X125650476Y-112212380D01*
X125412380Y-112212380D01*
X125317142Y-112164761D01*
X125269523Y-112117142D01*
X125221904Y-112021904D01*
X125221904Y-111926666D01*
X125269523Y-111831428D01*
X125317142Y-111783809D01*
X125412380Y-111736190D01*
X125602857Y-111688571D01*
X125698095Y-111640952D01*
X125745714Y-111593333D01*
X125793333Y-111498095D01*
X125793333Y-111402857D01*
X125745714Y-111307619D01*
X125698095Y-111260000D01*
X125602857Y-111212380D01*
X125364761Y-111212380D01*
X125221904Y-111260000D01*
X124888571Y-111212380D02*
X124650476Y-112212380D01*
X124460000Y-111498095D01*
X124269523Y-112212380D01*
X124031428Y-111212380D01*
X123126666Y-112212380D02*
X123698095Y-112212380D01*
X123412380Y-112212380D02*
X123412380Y-111212380D01*
X123507619Y-111355238D01*
X123602857Y-111450476D01*
X123698095Y-111498095D01*
%TO.C,D1*%
X74002380Y-72921904D02*
X73002380Y-72921904D01*
X73002380Y-73160000D01*
X73050000Y-73302857D01*
X73145238Y-73398095D01*
X73240476Y-73445714D01*
X73430952Y-73493333D01*
X73573809Y-73493333D01*
X73764285Y-73445714D01*
X73859523Y-73398095D01*
X73954761Y-73302857D01*
X74002380Y-73160000D01*
X74002380Y-72921904D01*
X74002380Y-74445714D02*
X74002380Y-73874285D01*
X74002380Y-74160000D02*
X73002380Y-74160000D01*
X73145238Y-74064761D01*
X73240476Y-73969523D01*
X73288095Y-73874285D01*
%TO.C,R10*%
X87637857Y-71572380D02*
X87971190Y-71096190D01*
X88209285Y-71572380D02*
X88209285Y-70572380D01*
X87828333Y-70572380D01*
X87733095Y-70620000D01*
X87685476Y-70667619D01*
X87637857Y-70762857D01*
X87637857Y-70905714D01*
X87685476Y-71000952D01*
X87733095Y-71048571D01*
X87828333Y-71096190D01*
X88209285Y-71096190D01*
X86685476Y-71572380D02*
X87256904Y-71572380D01*
X86971190Y-71572380D02*
X86971190Y-70572380D01*
X87066428Y-70715238D01*
X87161666Y-70810476D01*
X87256904Y-70858095D01*
X86066428Y-70572380D02*
X85971190Y-70572380D01*
X85875952Y-70620000D01*
X85828333Y-70667619D01*
X85780714Y-70762857D01*
X85733095Y-70953333D01*
X85733095Y-71191428D01*
X85780714Y-71381904D01*
X85828333Y-71477142D01*
X85875952Y-71524761D01*
X85971190Y-71572380D01*
X86066428Y-71572380D01*
X86161666Y-71524761D01*
X86209285Y-71477142D01*
X86256904Y-71381904D01*
X86304523Y-71191428D01*
X86304523Y-70953333D01*
X86256904Y-70762857D01*
X86209285Y-70667619D01*
X86161666Y-70620000D01*
X86066428Y-70572380D01*
%TO.C,R9*%
X86526666Y-76652380D02*
X86860000Y-76176190D01*
X87098095Y-76652380D02*
X87098095Y-75652380D01*
X86717142Y-75652380D01*
X86621904Y-75700000D01*
X86574285Y-75747619D01*
X86526666Y-75842857D01*
X86526666Y-75985714D01*
X86574285Y-76080952D01*
X86621904Y-76128571D01*
X86717142Y-76176190D01*
X87098095Y-76176190D01*
X86050476Y-76652380D02*
X85860000Y-76652380D01*
X85764761Y-76604761D01*
X85717142Y-76557142D01*
X85621904Y-76414285D01*
X85574285Y-76223809D01*
X85574285Y-75842857D01*
X85621904Y-75747619D01*
X85669523Y-75700000D01*
X85764761Y-75652380D01*
X85955238Y-75652380D01*
X86050476Y-75700000D01*
X86098095Y-75747619D01*
X86145714Y-75842857D01*
X86145714Y-76080952D01*
X86098095Y-76176190D01*
X86050476Y-76223809D01*
X85955238Y-76271428D01*
X85764761Y-76271428D01*
X85669523Y-76223809D01*
X85621904Y-76176190D01*
X85574285Y-76080952D01*
%TO.C,R8*%
X86526666Y-74112380D02*
X86860000Y-73636190D01*
X87098095Y-74112380D02*
X87098095Y-73112380D01*
X86717142Y-73112380D01*
X86621904Y-73160000D01*
X86574285Y-73207619D01*
X86526666Y-73302857D01*
X86526666Y-73445714D01*
X86574285Y-73540952D01*
X86621904Y-73588571D01*
X86717142Y-73636190D01*
X87098095Y-73636190D01*
X85955238Y-73540952D02*
X86050476Y-73493333D01*
X86098095Y-73445714D01*
X86145714Y-73350476D01*
X86145714Y-73302857D01*
X86098095Y-73207619D01*
X86050476Y-73160000D01*
X85955238Y-73112380D01*
X85764761Y-73112380D01*
X85669523Y-73160000D01*
X85621904Y-73207619D01*
X85574285Y-73302857D01*
X85574285Y-73350476D01*
X85621904Y-73445714D01*
X85669523Y-73493333D01*
X85764761Y-73540952D01*
X85955238Y-73540952D01*
X86050476Y-73588571D01*
X86098095Y-73636190D01*
X86145714Y-73731428D01*
X86145714Y-73921904D01*
X86098095Y-74017142D01*
X86050476Y-74064761D01*
X85955238Y-74112380D01*
X85764761Y-74112380D01*
X85669523Y-74064761D01*
X85621904Y-74017142D01*
X85574285Y-73921904D01*
X85574285Y-73731428D01*
X85621904Y-73636190D01*
X85669523Y-73588571D01*
X85764761Y-73540952D01*
%TO.C,DISP1*%
X146732380Y-91892380D02*
X146732380Y-90892380D01*
X146494285Y-90892380D01*
X146351428Y-90940000D01*
X146256190Y-91035238D01*
X146208571Y-91130476D01*
X146160952Y-91320952D01*
X146160952Y-91463809D01*
X146208571Y-91654285D01*
X146256190Y-91749523D01*
X146351428Y-91844761D01*
X146494285Y-91892380D01*
X146732380Y-91892380D01*
X145732380Y-91892380D02*
X145732380Y-90892380D01*
X145303809Y-91844761D02*
X145160952Y-91892380D01*
X144922857Y-91892380D01*
X144827619Y-91844761D01*
X144780000Y-91797142D01*
X144732380Y-91701904D01*
X144732380Y-91606666D01*
X144780000Y-91511428D01*
X144827619Y-91463809D01*
X144922857Y-91416190D01*
X145113333Y-91368571D01*
X145208571Y-91320952D01*
X145256190Y-91273333D01*
X145303809Y-91178095D01*
X145303809Y-91082857D01*
X145256190Y-90987619D01*
X145208571Y-90940000D01*
X145113333Y-90892380D01*
X144875238Y-90892380D01*
X144732380Y-90940000D01*
X144303809Y-91892380D02*
X144303809Y-90892380D01*
X143922857Y-90892380D01*
X143827619Y-90940000D01*
X143780000Y-90987619D01*
X143732380Y-91082857D01*
X143732380Y-91225714D01*
X143780000Y-91320952D01*
X143827619Y-91368571D01*
X143922857Y-91416190D01*
X144303809Y-91416190D01*
X142780000Y-91892380D02*
X143351428Y-91892380D01*
X143065714Y-91892380D02*
X143065714Y-90892380D01*
X143160952Y-91035238D01*
X143256190Y-91130476D01*
X143351428Y-91178095D01*
%TD*%
M02*
