G04 #@! TF.GenerationSoftware,KiCad,Pcbnew,(5.1.8-0-10_14)*
G04 #@! TF.CreationDate,2021-10-03T11:30:45-07:00*
G04 #@! TF.ProjectId,PowerSupply,506f7765-7253-4757-9070-6c792e6b6963,v1.5*
G04 #@! TF.SameCoordinates,Original*
G04 #@! TF.FileFunction,Legend,Bot*
G04 #@! TF.FilePolarity,Positive*
%FSLAX46Y46*%
G04 Gerber Fmt 4.6, Leading zero omitted, Abs format (unit mm)*
G04 Created by KiCad (PCBNEW (5.1.8-0-10_14)) date 2021-10-03 11:30:45*
%MOMM*%
%LPD*%
G01*
G04 APERTURE LIST*
%ADD10O,1.700000X2.200000*%
%ADD11C,1.700000*%
%ADD12R,1.000000X1.000000*%
%ADD13C,0.508000*%
%ADD14O,7.500000X3.500000*%
%ADD15O,3.500000X7.500000*%
%ADD16O,6.500000X3.500000*%
%ADD17O,3.500000X6.500000*%
%ADD18C,6.400000*%
%ADD19C,0.800000*%
G04 APERTURE END LIST*
%LPC*%
G36*
G01*
X97600000Y-77100000D02*
X96400000Y-77100000D01*
G75*
G02*
X96150000Y-76850000I0J250000D01*
G01*
X96150000Y-75150000D01*
G75*
G02*
X96400000Y-74900000I250000J0D01*
G01*
X97600000Y-74900000D01*
G75*
G02*
X97850000Y-75150000I0J-250000D01*
G01*
X97850000Y-76850000D01*
G75*
G02*
X97600000Y-77100000I-250000J0D01*
G01*
G37*
D10*
X99500000Y-76000000D03*
D11*
X97000000Y-68820000D03*
X99500000Y-68820000D03*
D12*
X149750000Y-70500000D03*
X146250000Y-70500000D03*
X168000000Y-70500000D03*
X171500000Y-70500000D03*
D13*
X140750000Y-101600000D03*
X140750000Y-108400000D03*
X176500000Y-101600000D03*
X176500000Y-108400000D03*
X134750000Y-101600000D03*
X134750000Y-108400000D03*
X182500000Y-101600000D03*
X182500000Y-108400000D03*
D14*
X67000000Y-120135000D03*
D15*
X74030600Y-119500000D03*
G36*
G01*
X67600000Y-79717000D02*
X66400000Y-79717000D01*
G75*
G02*
X66150000Y-79467000I0J250000D01*
G01*
X66150000Y-78267000D01*
G75*
G02*
X66400000Y-78017000I250000J0D01*
G01*
X67600000Y-78017000D01*
G75*
G02*
X67850000Y-78267000I0J-250000D01*
G01*
X67850000Y-79467000D01*
G75*
G02*
X67600000Y-79717000I-250000J0D01*
G01*
G37*
D11*
X69540000Y-78867000D03*
X72080000Y-78867000D03*
X74620000Y-78867000D03*
X77160000Y-78867000D03*
X79700000Y-78867000D03*
X82240000Y-78867000D03*
X67000000Y-76327000D03*
X69540000Y-76327000D03*
X72080000Y-76327000D03*
X74620000Y-76327000D03*
X77160000Y-76327000D03*
X79700000Y-76327000D03*
X82240000Y-76327000D03*
D14*
X153750000Y-74865000D03*
D15*
X146719400Y-75500000D03*
D14*
X164000000Y-76135000D03*
D15*
X171030600Y-75500000D03*
D16*
X67000000Y-97635000D03*
D17*
X73030600Y-97000000D03*
D18*
X217000000Y-145000000D03*
D19*
X219400000Y-145000000D03*
X218697056Y-146697056D03*
X217000000Y-147400000D03*
X215302944Y-146697056D03*
X214600000Y-145000000D03*
X215302944Y-143302944D03*
X217000000Y-142600000D03*
X218697056Y-143302944D03*
D18*
X55000000Y-145000000D03*
D19*
X57400000Y-145000000D03*
X56697056Y-146697056D03*
X55000000Y-147400000D03*
X53302944Y-146697056D03*
X52600000Y-145000000D03*
X53302944Y-143302944D03*
X55000000Y-142600000D03*
X56697056Y-143302944D03*
D18*
X217000000Y-70000000D03*
D19*
X219400000Y-70000000D03*
X218697056Y-71697056D03*
X217000000Y-72400000D03*
X215302944Y-71697056D03*
X214600000Y-70000000D03*
X215302944Y-68302944D03*
X217000000Y-67600000D03*
X218697056Y-68302944D03*
D18*
X55000000Y-70000000D03*
D19*
X57400000Y-70000000D03*
X56697056Y-71697056D03*
X55000000Y-72400000D03*
X53302944Y-71697056D03*
X52600000Y-70000000D03*
X53302944Y-68302944D03*
X55000000Y-67600000D03*
X56697056Y-68302944D03*
M02*
