G04 #@! TF.GenerationSoftware,KiCad,Pcbnew,(5.1.8-0-10_14)*
G04 #@! TF.CreationDate,2021-10-03T11:30:45-07:00*
G04 #@! TF.ProjectId,PowerSupply,506f7765-7253-4757-9070-6c792e6b6963,v1.5*
G04 #@! TF.SameCoordinates,Original*
G04 #@! TF.FileFunction,Soldermask,Top*
G04 #@! TF.FilePolarity,Negative*
%FSLAX46Y46*%
G04 Gerber Fmt 4.6, Leading zero omitted, Abs format (unit mm)*
G04 Created by KiCad (PCBNEW (5.1.8-0-10_14)) date 2021-10-03 11:30:45*
%MOMM*%
%LPD*%
G01*
G04 APERTURE LIST*
%ADD10R,0.450000X0.700000*%
%ADD11R,2.500000X1.800000*%
%ADD12R,0.650000X0.300000*%
%ADD13R,1.700000X2.500000*%
%ADD14R,0.300000X0.650000*%
%ADD15R,2.500000X1.700000*%
%ADD16R,2.500000X1.500000*%
%ADD17R,1.500000X2.500000*%
%ADD18R,1.100000X1.100000*%
%ADD19R,1.800000X2.500000*%
%ADD20R,0.610000X1.270000*%
%ADD21R,0.610000X1.020000*%
%ADD22R,3.910000X3.810000*%
%ADD23O,1.700000X2.200000*%
%ADD24C,1.700000*%
%ADD25R,1.060000X0.650000*%
%ADD26R,3.100000X3.100000*%
%ADD27R,0.700000X0.250000*%
%ADD28R,1.000000X1.000000*%
%ADD29C,0.508000*%
%ADD30C,0.100000*%
%ADD31R,1.300000X0.800000*%
%ADD32R,2.999999X2.100000*%
%ADD33O,7.500000X3.500000*%
%ADD34O,3.500000X7.500000*%
%ADD35R,2.950000X3.500000*%
%ADD36R,4.000000X3.000000*%
%ADD37R,18.800000X5.900000*%
%ADD38O,6.500000X3.500000*%
%ADD39O,3.500000X6.500000*%
%ADD40C,6.400000*%
%ADD41C,0.800000*%
G04 APERTURE END LIST*
G36*
G01*
X116700000Y-136725000D02*
X116700000Y-135775000D01*
G75*
G02*
X116950000Y-135525000I250000J0D01*
G01*
X117450000Y-135525000D01*
G75*
G02*
X117700000Y-135775000I0J-250000D01*
G01*
X117700000Y-136725000D01*
G75*
G02*
X117450000Y-136975000I-250000J0D01*
G01*
X116950000Y-136975000D01*
G75*
G02*
X116700000Y-136725000I0J250000D01*
G01*
G37*
G36*
G01*
X114800000Y-136725000D02*
X114800000Y-135775000D01*
G75*
G02*
X115050000Y-135525000I250000J0D01*
G01*
X115550000Y-135525000D01*
G75*
G02*
X115800000Y-135775000I0J-250000D01*
G01*
X115800000Y-136725000D01*
G75*
G02*
X115550000Y-136975000I-250000J0D01*
G01*
X115050000Y-136975000D01*
G75*
G02*
X114800000Y-136725000I0J250000D01*
G01*
G37*
G36*
G01*
X83025000Y-105500000D02*
X83025000Y-105000000D01*
G75*
G02*
X83250000Y-104775000I225000J0D01*
G01*
X83700000Y-104775000D01*
G75*
G02*
X83925000Y-105000000I0J-225000D01*
G01*
X83925000Y-105500000D01*
G75*
G02*
X83700000Y-105725000I-225000J0D01*
G01*
X83250000Y-105725000D01*
G75*
G02*
X83025000Y-105500000I0J225000D01*
G01*
G37*
G36*
G01*
X84575000Y-105500000D02*
X84575000Y-105000000D01*
G75*
G02*
X84800000Y-104775000I225000J0D01*
G01*
X85250000Y-104775000D01*
G75*
G02*
X85475000Y-105000000I0J-225000D01*
G01*
X85475000Y-105500000D01*
G75*
G02*
X85250000Y-105725000I-225000J0D01*
G01*
X84800000Y-105725000D01*
G75*
G02*
X84575000Y-105500000I0J225000D01*
G01*
G37*
G36*
G01*
X76275000Y-105500000D02*
X76275000Y-105000000D01*
G75*
G02*
X76500000Y-104775000I225000J0D01*
G01*
X76950000Y-104775000D01*
G75*
G02*
X77175000Y-105000000I0J-225000D01*
G01*
X77175000Y-105500000D01*
G75*
G02*
X76950000Y-105725000I-225000J0D01*
G01*
X76500000Y-105725000D01*
G75*
G02*
X76275000Y-105500000I0J225000D01*
G01*
G37*
G36*
G01*
X77825000Y-105500000D02*
X77825000Y-105000000D01*
G75*
G02*
X78050000Y-104775000I225000J0D01*
G01*
X78500000Y-104775000D01*
G75*
G02*
X78725000Y-105000000I0J-225000D01*
G01*
X78725000Y-105500000D01*
G75*
G02*
X78500000Y-105725000I-225000J0D01*
G01*
X78050000Y-105725000D01*
G75*
G02*
X77825000Y-105500000I0J225000D01*
G01*
G37*
G36*
G01*
X69525000Y-105500000D02*
X69525000Y-105000000D01*
G75*
G02*
X69750000Y-104775000I225000J0D01*
G01*
X70200000Y-104775000D01*
G75*
G02*
X70425000Y-105000000I0J-225000D01*
G01*
X70425000Y-105500000D01*
G75*
G02*
X70200000Y-105725000I-225000J0D01*
G01*
X69750000Y-105725000D01*
G75*
G02*
X69525000Y-105500000I0J225000D01*
G01*
G37*
G36*
G01*
X71075000Y-105500000D02*
X71075000Y-105000000D01*
G75*
G02*
X71300000Y-104775000I225000J0D01*
G01*
X71750000Y-104775000D01*
G75*
G02*
X71975000Y-105000000I0J-225000D01*
G01*
X71975000Y-105500000D01*
G75*
G02*
X71750000Y-105725000I-225000J0D01*
G01*
X71300000Y-105725000D01*
G75*
G02*
X71075000Y-105500000I0J225000D01*
G01*
G37*
G36*
G01*
X62525000Y-105500000D02*
X62525000Y-105000000D01*
G75*
G02*
X62750000Y-104775000I225000J0D01*
G01*
X63200000Y-104775000D01*
G75*
G02*
X63425000Y-105000000I0J-225000D01*
G01*
X63425000Y-105500000D01*
G75*
G02*
X63200000Y-105725000I-225000J0D01*
G01*
X62750000Y-105725000D01*
G75*
G02*
X62525000Y-105500000I0J225000D01*
G01*
G37*
G36*
G01*
X64075000Y-105500000D02*
X64075000Y-105000000D01*
G75*
G02*
X64300000Y-104775000I225000J0D01*
G01*
X64750000Y-104775000D01*
G75*
G02*
X64975000Y-105000000I0J-225000D01*
G01*
X64975000Y-105500000D01*
G75*
G02*
X64750000Y-105725000I-225000J0D01*
G01*
X64300000Y-105725000D01*
G75*
G02*
X64075000Y-105500000I0J225000D01*
G01*
G37*
G36*
G01*
X79549999Y-97075000D02*
X80450001Y-97075000D01*
G75*
G02*
X80700000Y-97324999I0J-249999D01*
G01*
X80700000Y-97850001D01*
G75*
G02*
X80450001Y-98100000I-249999J0D01*
G01*
X79549999Y-98100000D01*
G75*
G02*
X79300000Y-97850001I0J249999D01*
G01*
X79300000Y-97324999D01*
G75*
G02*
X79549999Y-97075000I249999J0D01*
G01*
G37*
G36*
G01*
X79549999Y-98900000D02*
X80450001Y-98900000D01*
G75*
G02*
X80700000Y-99149999I0J-249999D01*
G01*
X80700000Y-99675001D01*
G75*
G02*
X80450001Y-99925000I-249999J0D01*
G01*
X79549999Y-99925000D01*
G75*
G02*
X79300000Y-99675001I0J249999D01*
G01*
X79300000Y-99149999D01*
G75*
G02*
X79549999Y-98900000I249999J0D01*
G01*
G37*
G36*
G01*
X85700001Y-127425000D02*
X84799999Y-127425000D01*
G75*
G02*
X84550000Y-127175001I0J249999D01*
G01*
X84550000Y-126649999D01*
G75*
G02*
X84799999Y-126400000I249999J0D01*
G01*
X85700001Y-126400000D01*
G75*
G02*
X85950000Y-126649999I0J-249999D01*
G01*
X85950000Y-127175001D01*
G75*
G02*
X85700001Y-127425000I-249999J0D01*
G01*
G37*
G36*
G01*
X85700001Y-125600000D02*
X84799999Y-125600000D01*
G75*
G02*
X84550000Y-125350001I0J249999D01*
G01*
X84550000Y-124824999D01*
G75*
G02*
X84799999Y-124575000I249999J0D01*
G01*
X85700001Y-124575000D01*
G75*
G02*
X85950000Y-124824999I0J-249999D01*
G01*
X85950000Y-125350001D01*
G75*
G02*
X85700001Y-125600000I-249999J0D01*
G01*
G37*
G36*
G01*
X178800000Y-129225000D02*
X178800000Y-128275000D01*
G75*
G02*
X179050000Y-128025000I250000J0D01*
G01*
X179550000Y-128025000D01*
G75*
G02*
X179800000Y-128275000I0J-250000D01*
G01*
X179800000Y-129225000D01*
G75*
G02*
X179550000Y-129475000I-250000J0D01*
G01*
X179050000Y-129475000D01*
G75*
G02*
X178800000Y-129225000I0J250000D01*
G01*
G37*
G36*
G01*
X180700000Y-129225000D02*
X180700000Y-128275000D01*
G75*
G02*
X180950000Y-128025000I250000J0D01*
G01*
X181450000Y-128025000D01*
G75*
G02*
X181700000Y-128275000I0J-250000D01*
G01*
X181700000Y-129225000D01*
G75*
G02*
X181450000Y-129475000I-250000J0D01*
G01*
X180950000Y-129475000D01*
G75*
G02*
X180700000Y-129225000I0J250000D01*
G01*
G37*
D10*
X80150000Y-125000000D03*
X78850000Y-125000000D03*
X79500000Y-127000000D03*
G36*
G01*
X195825000Y-131950001D02*
X195825000Y-131049999D01*
G75*
G02*
X196074999Y-130800000I249999J0D01*
G01*
X196600001Y-130800000D01*
G75*
G02*
X196850000Y-131049999I0J-249999D01*
G01*
X196850000Y-131950001D01*
G75*
G02*
X196600001Y-132200000I-249999J0D01*
G01*
X196074999Y-132200000D01*
G75*
G02*
X195825000Y-131950001I0J249999D01*
G01*
G37*
G36*
G01*
X197650000Y-131950001D02*
X197650000Y-131049999D01*
G75*
G02*
X197899999Y-130800000I249999J0D01*
G01*
X198425001Y-130800000D01*
G75*
G02*
X198675000Y-131049999I0J-249999D01*
G01*
X198675000Y-131950001D01*
G75*
G02*
X198425001Y-132200000I-249999J0D01*
G01*
X197899999Y-132200000D01*
G75*
G02*
X197650000Y-131950001I0J249999D01*
G01*
G37*
D11*
X100500000Y-129500000D03*
X96500000Y-129500000D03*
D12*
X137225000Y-128250000D03*
X134275000Y-128250000D03*
D13*
X135750000Y-127000000D03*
D12*
X137225000Y-125750000D03*
X137225000Y-126250000D03*
X137225000Y-126750000D03*
X137225000Y-127250000D03*
X137225000Y-127750000D03*
X134275000Y-127750000D03*
X134275000Y-127250000D03*
X134275000Y-126750000D03*
X134275000Y-126250000D03*
X134275000Y-125750000D03*
D14*
X201250000Y-124725000D03*
X201250000Y-121775000D03*
D15*
X202500000Y-123250000D03*
D14*
X203750000Y-124725000D03*
X203250000Y-124725000D03*
X202750000Y-124725000D03*
X202250000Y-124725000D03*
X201750000Y-124725000D03*
X201750000Y-121775000D03*
X202250000Y-121775000D03*
X202750000Y-121775000D03*
X203250000Y-121775000D03*
X203750000Y-121775000D03*
G36*
G01*
X186374998Y-84475000D02*
X187625002Y-84475000D01*
G75*
G02*
X187875000Y-84724998I0J-249998D01*
G01*
X187875000Y-85350002D01*
G75*
G02*
X187625002Y-85600000I-249998J0D01*
G01*
X186374998Y-85600000D01*
G75*
G02*
X186125000Y-85350002I0J249998D01*
G01*
X186125000Y-84724998D01*
G75*
G02*
X186374998Y-84475000I249998J0D01*
G01*
G37*
G36*
G01*
X186374998Y-87400000D02*
X187625002Y-87400000D01*
G75*
G02*
X187875000Y-87649998I0J-249998D01*
G01*
X187875000Y-88275002D01*
G75*
G02*
X187625002Y-88525000I-249998J0D01*
G01*
X186374998Y-88525000D01*
G75*
G02*
X186125000Y-88275002I0J249998D01*
G01*
X186125000Y-87649998D01*
G75*
G02*
X186374998Y-87400000I249998J0D01*
G01*
G37*
G36*
G01*
X150799998Y-126075000D02*
X151700002Y-126075000D01*
G75*
G02*
X151950000Y-126324998I0J-249998D01*
G01*
X151950000Y-126850002D01*
G75*
G02*
X151700002Y-127100000I-249998J0D01*
G01*
X150799998Y-127100000D01*
G75*
G02*
X150550000Y-126850002I0J249998D01*
G01*
X150550000Y-126324998D01*
G75*
G02*
X150799998Y-126075000I249998J0D01*
G01*
G37*
G36*
G01*
X150799998Y-127900000D02*
X151700002Y-127900000D01*
G75*
G02*
X151950000Y-128149998I0J-249998D01*
G01*
X151950000Y-128675002D01*
G75*
G02*
X151700002Y-128925000I-249998J0D01*
G01*
X150799998Y-128925000D01*
G75*
G02*
X150550000Y-128675002I0J249998D01*
G01*
X150550000Y-128149998D01*
G75*
G02*
X150799998Y-127900000I249998J0D01*
G01*
G37*
G36*
G01*
X141325000Y-131950002D02*
X141325000Y-131049998D01*
G75*
G02*
X141574998Y-130800000I249998J0D01*
G01*
X142100002Y-130800000D01*
G75*
G02*
X142350000Y-131049998I0J-249998D01*
G01*
X142350000Y-131950002D01*
G75*
G02*
X142100002Y-132200000I-249998J0D01*
G01*
X141574998Y-132200000D01*
G75*
G02*
X141325000Y-131950002I0J249998D01*
G01*
G37*
G36*
G01*
X143150000Y-131950002D02*
X143150000Y-131049998D01*
G75*
G02*
X143399998Y-130800000I249998J0D01*
G01*
X143925002Y-130800000D01*
G75*
G02*
X144175000Y-131049998I0J-249998D01*
G01*
X144175000Y-131950002D01*
G75*
G02*
X143925002Y-132200000I-249998J0D01*
G01*
X143399998Y-132200000D01*
G75*
G02*
X143150000Y-131950002I0J249998D01*
G01*
G37*
G36*
G01*
X145075000Y-131950002D02*
X145075000Y-131049998D01*
G75*
G02*
X145324998Y-130800000I249998J0D01*
G01*
X145850002Y-130800000D01*
G75*
G02*
X146100000Y-131049998I0J-249998D01*
G01*
X146100000Y-131950002D01*
G75*
G02*
X145850002Y-132200000I-249998J0D01*
G01*
X145324998Y-132200000D01*
G75*
G02*
X145075000Y-131950002I0J249998D01*
G01*
G37*
G36*
G01*
X146900000Y-131950002D02*
X146900000Y-131049998D01*
G75*
G02*
X147149998Y-130800000I249998J0D01*
G01*
X147675002Y-130800000D01*
G75*
G02*
X147925000Y-131049998I0J-249998D01*
G01*
X147925000Y-131950002D01*
G75*
G02*
X147675002Y-132200000I-249998J0D01*
G01*
X147149998Y-132200000D01*
G75*
G02*
X146900000Y-131950002I0J249998D01*
G01*
G37*
G36*
G01*
X195825000Y-134450002D02*
X195825000Y-133549998D01*
G75*
G02*
X196074998Y-133300000I249998J0D01*
G01*
X196600002Y-133300000D01*
G75*
G02*
X196850000Y-133549998I0J-249998D01*
G01*
X196850000Y-134450002D01*
G75*
G02*
X196600002Y-134700000I-249998J0D01*
G01*
X196074998Y-134700000D01*
G75*
G02*
X195825000Y-134450002I0J249998D01*
G01*
G37*
G36*
G01*
X197650000Y-134450002D02*
X197650000Y-133549998D01*
G75*
G02*
X197899998Y-133300000I249998J0D01*
G01*
X198425002Y-133300000D01*
G75*
G02*
X198675000Y-133549998I0J-249998D01*
G01*
X198675000Y-134450002D01*
G75*
G02*
X198425002Y-134700000I-249998J0D01*
G01*
X197899998Y-134700000D01*
G75*
G02*
X197650000Y-134450002I0J249998D01*
G01*
G37*
G36*
G01*
X133825000Y-130450002D02*
X133825000Y-129549998D01*
G75*
G02*
X134074998Y-129300000I249998J0D01*
G01*
X134600002Y-129300000D01*
G75*
G02*
X134850000Y-129549998I0J-249998D01*
G01*
X134850000Y-130450002D01*
G75*
G02*
X134600002Y-130700000I-249998J0D01*
G01*
X134074998Y-130700000D01*
G75*
G02*
X133825000Y-130450002I0J249998D01*
G01*
G37*
G36*
G01*
X135650000Y-130450002D02*
X135650000Y-129549998D01*
G75*
G02*
X135899998Y-129300000I249998J0D01*
G01*
X136425002Y-129300000D01*
G75*
G02*
X136675000Y-129549998I0J-249998D01*
G01*
X136675000Y-130450002D01*
G75*
G02*
X136425002Y-130700000I-249998J0D01*
G01*
X135899998Y-130700000D01*
G75*
G02*
X135650000Y-130450002I0J249998D01*
G01*
G37*
G36*
G01*
X199049998Y-121325000D02*
X199950002Y-121325000D01*
G75*
G02*
X200200000Y-121574998I0J-249998D01*
G01*
X200200000Y-122100002D01*
G75*
G02*
X199950002Y-122350000I-249998J0D01*
G01*
X199049998Y-122350000D01*
G75*
G02*
X198800000Y-122100002I0J249998D01*
G01*
X198800000Y-121574998D01*
G75*
G02*
X199049998Y-121325000I249998J0D01*
G01*
G37*
G36*
G01*
X199049998Y-123150000D02*
X199950002Y-123150000D01*
G75*
G02*
X200200000Y-123399998I0J-249998D01*
G01*
X200200000Y-123925002D01*
G75*
G02*
X199950002Y-124175000I-249998J0D01*
G01*
X199049998Y-124175000D01*
G75*
G02*
X198800000Y-123925002I0J249998D01*
G01*
X198800000Y-123399998D01*
G75*
G02*
X199049998Y-123150000I249998J0D01*
G01*
G37*
D16*
X142750000Y-125750000D03*
X142750000Y-129050000D03*
D17*
X203750000Y-130250000D03*
X200450000Y-130250000D03*
G36*
G01*
X145875000Y-120900001D02*
X145875000Y-120099999D01*
G75*
G02*
X146124999Y-119850000I249999J0D01*
G01*
X146950001Y-119850000D01*
G75*
G02*
X147200000Y-120099999I0J-249999D01*
G01*
X147200000Y-120900001D01*
G75*
G02*
X146950001Y-121150000I-249999J0D01*
G01*
X146124999Y-121150000D01*
G75*
G02*
X145875000Y-120900001I0J249999D01*
G01*
G37*
G36*
G01*
X147800000Y-120900001D02*
X147800000Y-120099999D01*
G75*
G02*
X148049999Y-119850000I249999J0D01*
G01*
X148875001Y-119850000D01*
G75*
G02*
X149125000Y-120099999I0J-249999D01*
G01*
X149125000Y-120900001D01*
G75*
G02*
X148875001Y-121150000I-249999J0D01*
G01*
X148049999Y-121150000D01*
G75*
G02*
X147800000Y-120900001I0J249999D01*
G01*
G37*
D18*
X214500000Y-131250000D03*
X211700000Y-131250000D03*
G36*
G01*
X148099999Y-125450000D02*
X149400001Y-125450000D01*
G75*
G02*
X149650000Y-125699999I0J-249999D01*
G01*
X149650000Y-126350001D01*
G75*
G02*
X149400001Y-126600000I-249999J0D01*
G01*
X148099999Y-126600000D01*
G75*
G02*
X147850000Y-126350001I0J249999D01*
G01*
X147850000Y-125699999D01*
G75*
G02*
X148099999Y-125450000I249999J0D01*
G01*
G37*
G36*
G01*
X148099999Y-128400000D02*
X149400001Y-128400000D01*
G75*
G02*
X149650000Y-128649999I0J-249999D01*
G01*
X149650000Y-129300001D01*
G75*
G02*
X149400001Y-129550000I-249999J0D01*
G01*
X148099999Y-129550000D01*
G75*
G02*
X147850000Y-129300001I0J249999D01*
G01*
X147850000Y-128649999D01*
G75*
G02*
X148099999Y-128400000I249999J0D01*
G01*
G37*
G36*
G01*
X204050000Y-136599999D02*
X204050000Y-137900001D01*
G75*
G02*
X203800001Y-138150000I-249999J0D01*
G01*
X203149999Y-138150000D01*
G75*
G02*
X202900000Y-137900001I0J249999D01*
G01*
X202900000Y-136599999D01*
G75*
G02*
X203149999Y-136350000I249999J0D01*
G01*
X203800001Y-136350000D01*
G75*
G02*
X204050000Y-136599999I0J-249999D01*
G01*
G37*
G36*
G01*
X201100000Y-136599999D02*
X201100000Y-137900001D01*
G75*
G02*
X200850001Y-138150000I-249999J0D01*
G01*
X200199999Y-138150000D01*
G75*
G02*
X199950000Y-137900001I0J249999D01*
G01*
X199950000Y-136599999D01*
G75*
G02*
X200199999Y-136350000I249999J0D01*
G01*
X200850001Y-136350000D01*
G75*
G02*
X201100000Y-136599999I0J-249999D01*
G01*
G37*
G36*
G01*
X145599999Y-125450000D02*
X146900001Y-125450000D01*
G75*
G02*
X147150000Y-125699999I0J-249999D01*
G01*
X147150000Y-126350001D01*
G75*
G02*
X146900001Y-126600000I-249999J0D01*
G01*
X145599999Y-126600000D01*
G75*
G02*
X145350000Y-126350001I0J249999D01*
G01*
X145350000Y-125699999D01*
G75*
G02*
X145599999Y-125450000I249999J0D01*
G01*
G37*
G36*
G01*
X145599999Y-128400000D02*
X146900001Y-128400000D01*
G75*
G02*
X147150000Y-128649999I0J-249999D01*
G01*
X147150000Y-129300001D01*
G75*
G02*
X146900001Y-129550000I-249999J0D01*
G01*
X145599999Y-129550000D01*
G75*
G02*
X145350000Y-129300001I0J249999D01*
G01*
X145350000Y-128649999D01*
G75*
G02*
X145599999Y-128400000I249999J0D01*
G01*
G37*
G36*
G01*
X204050000Y-134099999D02*
X204050000Y-135400001D01*
G75*
G02*
X203800001Y-135650000I-249999J0D01*
G01*
X203149999Y-135650000D01*
G75*
G02*
X202900000Y-135400001I0J249999D01*
G01*
X202900000Y-134099999D01*
G75*
G02*
X203149999Y-133850000I249999J0D01*
G01*
X203800001Y-133850000D01*
G75*
G02*
X204050000Y-134099999I0J-249999D01*
G01*
G37*
G36*
G01*
X201100000Y-134099999D02*
X201100000Y-135400001D01*
G75*
G02*
X200850001Y-135650000I-249999J0D01*
G01*
X200199999Y-135650000D01*
G75*
G02*
X199950000Y-135400001I0J249999D01*
G01*
X199950000Y-134099999D01*
G75*
G02*
X200199999Y-133850000I249999J0D01*
G01*
X200850001Y-133850000D01*
G75*
G02*
X201100000Y-134099999I0J-249999D01*
G01*
G37*
G36*
G01*
X138775000Y-125550000D02*
X139725000Y-125550000D01*
G75*
G02*
X139975000Y-125800000I0J-250000D01*
G01*
X139975000Y-126300000D01*
G75*
G02*
X139725000Y-126550000I-250000J0D01*
G01*
X138775000Y-126550000D01*
G75*
G02*
X138525000Y-126300000I0J250000D01*
G01*
X138525000Y-125800000D01*
G75*
G02*
X138775000Y-125550000I250000J0D01*
G01*
G37*
G36*
G01*
X138775000Y-127450000D02*
X139725000Y-127450000D01*
G75*
G02*
X139975000Y-127700000I0J-250000D01*
G01*
X139975000Y-128200000D01*
G75*
G02*
X139725000Y-128450000I-250000J0D01*
G01*
X138775000Y-128450000D01*
G75*
G02*
X138525000Y-128200000I0J250000D01*
G01*
X138525000Y-127700000D01*
G75*
G02*
X138775000Y-127450000I250000J0D01*
G01*
G37*
G36*
G01*
X203950000Y-126275000D02*
X203950000Y-127225000D01*
G75*
G02*
X203700000Y-127475000I-250000J0D01*
G01*
X203200000Y-127475000D01*
G75*
G02*
X202950000Y-127225000I0J250000D01*
G01*
X202950000Y-126275000D01*
G75*
G02*
X203200000Y-126025000I250000J0D01*
G01*
X203700000Y-126025000D01*
G75*
G02*
X203950000Y-126275000I0J-250000D01*
G01*
G37*
G36*
G01*
X202050000Y-126275000D02*
X202050000Y-127225000D01*
G75*
G02*
X201800000Y-127475000I-250000J0D01*
G01*
X201300000Y-127475000D01*
G75*
G02*
X201050000Y-127225000I0J250000D01*
G01*
X201050000Y-126275000D01*
G75*
G02*
X201300000Y-126025000I250000J0D01*
G01*
X201800000Y-126025000D01*
G75*
G02*
X202050000Y-126275000I0J-250000D01*
G01*
G37*
G36*
G01*
X132725000Y-130700000D02*
X131775000Y-130700000D01*
G75*
G02*
X131525000Y-130450000I0J250000D01*
G01*
X131525000Y-129950000D01*
G75*
G02*
X131775000Y-129700000I250000J0D01*
G01*
X132725000Y-129700000D01*
G75*
G02*
X132975000Y-129950000I0J-250000D01*
G01*
X132975000Y-130450000D01*
G75*
G02*
X132725000Y-130700000I-250000J0D01*
G01*
G37*
G36*
G01*
X132725000Y-128800000D02*
X131775000Y-128800000D01*
G75*
G02*
X131525000Y-128550000I0J250000D01*
G01*
X131525000Y-128050000D01*
G75*
G02*
X131775000Y-127800000I250000J0D01*
G01*
X132725000Y-127800000D01*
G75*
G02*
X132975000Y-128050000I0J-250000D01*
G01*
X132975000Y-128550000D01*
G75*
G02*
X132725000Y-128800000I-250000J0D01*
G01*
G37*
G36*
G01*
X198800000Y-120225000D02*
X198800000Y-119275000D01*
G75*
G02*
X199050000Y-119025000I250000J0D01*
G01*
X199550000Y-119025000D01*
G75*
G02*
X199800000Y-119275000I0J-250000D01*
G01*
X199800000Y-120225000D01*
G75*
G02*
X199550000Y-120475000I-250000J0D01*
G01*
X199050000Y-120475000D01*
G75*
G02*
X198800000Y-120225000I0J250000D01*
G01*
G37*
G36*
G01*
X200700000Y-120225000D02*
X200700000Y-119275000D01*
G75*
G02*
X200950000Y-119025000I250000J0D01*
G01*
X201450000Y-119025000D01*
G75*
G02*
X201700000Y-119275000I0J-250000D01*
G01*
X201700000Y-120225000D01*
G75*
G02*
X201450000Y-120475000I-250000J0D01*
G01*
X200950000Y-120475000D01*
G75*
G02*
X200700000Y-120225000I0J250000D01*
G01*
G37*
G36*
G01*
X133000000Y-125775000D02*
X133000000Y-126725000D01*
G75*
G02*
X132750000Y-126975000I-250000J0D01*
G01*
X132250000Y-126975000D01*
G75*
G02*
X132000000Y-126725000I0J250000D01*
G01*
X132000000Y-125775000D01*
G75*
G02*
X132250000Y-125525000I250000J0D01*
G01*
X132750000Y-125525000D01*
G75*
G02*
X133000000Y-125775000I0J-250000D01*
G01*
G37*
G36*
G01*
X131100000Y-125775000D02*
X131100000Y-126725000D01*
G75*
G02*
X130850000Y-126975000I-250000J0D01*
G01*
X130350000Y-126975000D01*
G75*
G02*
X130100000Y-126725000I0J250000D01*
G01*
X130100000Y-125775000D01*
G75*
G02*
X130350000Y-125525000I250000J0D01*
G01*
X130850000Y-125525000D01*
G75*
G02*
X131100000Y-125775000I0J-250000D01*
G01*
G37*
G36*
G01*
X203725000Y-120450000D02*
X202775000Y-120450000D01*
G75*
G02*
X202525000Y-120200000I0J250000D01*
G01*
X202525000Y-119700000D01*
G75*
G02*
X202775000Y-119450000I250000J0D01*
G01*
X203725000Y-119450000D01*
G75*
G02*
X203975000Y-119700000I0J-250000D01*
G01*
X203975000Y-120200000D01*
G75*
G02*
X203725000Y-120450000I-250000J0D01*
G01*
G37*
G36*
G01*
X203725000Y-118550000D02*
X202775000Y-118550000D01*
G75*
G02*
X202525000Y-118300000I0J250000D01*
G01*
X202525000Y-117800000D01*
G75*
G02*
X202775000Y-117550000I250000J0D01*
G01*
X203725000Y-117550000D01*
G75*
G02*
X203975000Y-117800000I0J-250000D01*
G01*
X203975000Y-118300000D01*
G75*
G02*
X203725000Y-118550000I-250000J0D01*
G01*
G37*
G36*
G01*
X206400001Y-126550000D02*
X205099999Y-126550000D01*
G75*
G02*
X204850000Y-126300001I0J249999D01*
G01*
X204850000Y-125649999D01*
G75*
G02*
X205099999Y-125400000I249999J0D01*
G01*
X206400001Y-125400000D01*
G75*
G02*
X206650000Y-125649999I0J-249999D01*
G01*
X206650000Y-126300001D01*
G75*
G02*
X206400001Y-126550000I-249999J0D01*
G01*
G37*
G36*
G01*
X206400001Y-123600000D02*
X205099999Y-123600000D01*
G75*
G02*
X204850000Y-123350001I0J249999D01*
G01*
X204850000Y-122699999D01*
G75*
G02*
X205099999Y-122450000I249999J0D01*
G01*
X206400001Y-122450000D01*
G75*
G02*
X206650000Y-122699999I0J-249999D01*
G01*
X206650000Y-123350001D01*
G75*
G02*
X206400001Y-123600000I-249999J0D01*
G01*
G37*
G36*
G01*
X129950000Y-124400001D02*
X129950000Y-123099999D01*
G75*
G02*
X130199999Y-122850000I249999J0D01*
G01*
X130850001Y-122850000D01*
G75*
G02*
X131100000Y-123099999I0J-249999D01*
G01*
X131100000Y-124400001D01*
G75*
G02*
X130850001Y-124650000I-249999J0D01*
G01*
X130199999Y-124650000D01*
G75*
G02*
X129950000Y-124400001I0J249999D01*
G01*
G37*
G36*
G01*
X132900000Y-124400001D02*
X132900000Y-123099999D01*
G75*
G02*
X133149999Y-122850000I249999J0D01*
G01*
X133800001Y-122850000D01*
G75*
G02*
X134050000Y-123099999I0J-249999D01*
G01*
X134050000Y-124400001D01*
G75*
G02*
X133800001Y-124650000I-249999J0D01*
G01*
X133149999Y-124650000D01*
G75*
G02*
X132900000Y-124400001I0J249999D01*
G01*
G37*
G36*
G01*
X205099999Y-117450000D02*
X206400001Y-117450000D01*
G75*
G02*
X206650000Y-117699999I0J-249999D01*
G01*
X206650000Y-118350001D01*
G75*
G02*
X206400001Y-118600000I-249999J0D01*
G01*
X205099999Y-118600000D01*
G75*
G02*
X204850000Y-118350001I0J249999D01*
G01*
X204850000Y-117699999D01*
G75*
G02*
X205099999Y-117450000I249999J0D01*
G01*
G37*
G36*
G01*
X205099999Y-120400000D02*
X206400001Y-120400000D01*
G75*
G02*
X206650000Y-120649999I0J-249999D01*
G01*
X206650000Y-121300001D01*
G75*
G02*
X206400001Y-121550000I-249999J0D01*
G01*
X205099999Y-121550000D01*
G75*
G02*
X204850000Y-121300001I0J249999D01*
G01*
X204850000Y-120649999D01*
G75*
G02*
X205099999Y-120400000I249999J0D01*
G01*
G37*
G36*
G01*
X139050000Y-123099999D02*
X139050000Y-124400001D01*
G75*
G02*
X138800001Y-124650000I-249999J0D01*
G01*
X138149999Y-124650000D01*
G75*
G02*
X137900000Y-124400001I0J249999D01*
G01*
X137900000Y-123099999D01*
G75*
G02*
X138149999Y-122850000I249999J0D01*
G01*
X138800001Y-122850000D01*
G75*
G02*
X139050000Y-123099999I0J-249999D01*
G01*
G37*
G36*
G01*
X136100000Y-123099999D02*
X136100000Y-124400001D01*
G75*
G02*
X135850001Y-124650000I-249999J0D01*
G01*
X135199999Y-124650000D01*
G75*
G02*
X134950000Y-124400001I0J249999D01*
G01*
X134950000Y-123099999D01*
G75*
G02*
X135199999Y-122850000I249999J0D01*
G01*
X135850001Y-122850000D01*
G75*
G02*
X136100000Y-123099999I0J-249999D01*
G01*
G37*
G36*
G01*
X95750000Y-112250000D02*
X97750000Y-112250000D01*
G75*
G02*
X98000000Y-112500000I0J-250000D01*
G01*
X98000000Y-116000000D01*
G75*
G02*
X97750000Y-116250000I-250000J0D01*
G01*
X95750000Y-116250000D01*
G75*
G02*
X95500000Y-116000000I0J250000D01*
G01*
X95500000Y-112500000D01*
G75*
G02*
X95750000Y-112250000I250000J0D01*
G01*
G37*
G36*
G01*
X95750000Y-120250000D02*
X97750000Y-120250000D01*
G75*
G02*
X98000000Y-120500000I0J-250000D01*
G01*
X98000000Y-124000000D01*
G75*
G02*
X97750000Y-124250000I-250000J0D01*
G01*
X95750000Y-124250000D01*
G75*
G02*
X95500000Y-124000000I0J250000D01*
G01*
X95500000Y-120500000D01*
G75*
G02*
X95750000Y-120250000I250000J0D01*
G01*
G37*
G36*
G01*
X95750000Y-98500000D02*
X97750000Y-98500000D01*
G75*
G02*
X98000000Y-98750000I0J-250000D01*
G01*
X98000000Y-102250000D01*
G75*
G02*
X97750000Y-102500000I-250000J0D01*
G01*
X95750000Y-102500000D01*
G75*
G02*
X95500000Y-102250000I0J250000D01*
G01*
X95500000Y-98750000D01*
G75*
G02*
X95750000Y-98500000I250000J0D01*
G01*
G37*
G36*
G01*
X95750000Y-106500000D02*
X97750000Y-106500000D01*
G75*
G02*
X98000000Y-106750000I0J-250000D01*
G01*
X98000000Y-110250000D01*
G75*
G02*
X97750000Y-110500000I-250000J0D01*
G01*
X95750000Y-110500000D01*
G75*
G02*
X95500000Y-110250000I0J250000D01*
G01*
X95500000Y-106750000D01*
G75*
G02*
X95750000Y-106500000I250000J0D01*
G01*
G37*
G36*
G01*
X95750000Y-84750000D02*
X97750000Y-84750000D01*
G75*
G02*
X98000000Y-85000000I0J-250000D01*
G01*
X98000000Y-88500000D01*
G75*
G02*
X97750000Y-88750000I-250000J0D01*
G01*
X95750000Y-88750000D01*
G75*
G02*
X95500000Y-88500000I0J250000D01*
G01*
X95500000Y-85000000D01*
G75*
G02*
X95750000Y-84750000I250000J0D01*
G01*
G37*
G36*
G01*
X95750000Y-92750000D02*
X97750000Y-92750000D01*
G75*
G02*
X98000000Y-93000000I0J-250000D01*
G01*
X98000000Y-96500000D01*
G75*
G02*
X97750000Y-96750000I-250000J0D01*
G01*
X95750000Y-96750000D01*
G75*
G02*
X95500000Y-96500000I0J250000D01*
G01*
X95500000Y-93000000D01*
G75*
G02*
X95750000Y-92750000I250000J0D01*
G01*
G37*
G36*
G01*
X171150001Y-88550000D02*
X169849999Y-88550000D01*
G75*
G02*
X169600000Y-88300001I0J249999D01*
G01*
X169600000Y-87649999D01*
G75*
G02*
X169849999Y-87400000I249999J0D01*
G01*
X171150001Y-87400000D01*
G75*
G02*
X171400000Y-87649999I0J-249999D01*
G01*
X171400000Y-88300001D01*
G75*
G02*
X171150001Y-88550000I-249999J0D01*
G01*
G37*
G36*
G01*
X171150001Y-85600000D02*
X169849999Y-85600000D01*
G75*
G02*
X169600000Y-85350001I0J249999D01*
G01*
X169600000Y-84699999D01*
G75*
G02*
X169849999Y-84450000I249999J0D01*
G01*
X171150001Y-84450000D01*
G75*
G02*
X171400000Y-84699999I0J-249999D01*
G01*
X171400000Y-85350001D01*
G75*
G02*
X171150001Y-85600000I-249999J0D01*
G01*
G37*
G36*
G01*
X173650001Y-88550000D02*
X172349999Y-88550000D01*
G75*
G02*
X172100000Y-88300001I0J249999D01*
G01*
X172100000Y-87649999D01*
G75*
G02*
X172349999Y-87400000I249999J0D01*
G01*
X173650001Y-87400000D01*
G75*
G02*
X173900000Y-87649999I0J-249999D01*
G01*
X173900000Y-88300001D01*
G75*
G02*
X173650001Y-88550000I-249999J0D01*
G01*
G37*
G36*
G01*
X173650001Y-85600000D02*
X172349999Y-85600000D01*
G75*
G02*
X172100000Y-85350001I0J249999D01*
G01*
X172100000Y-84699999D01*
G75*
G02*
X172349999Y-84450000I249999J0D01*
G01*
X173650001Y-84450000D01*
G75*
G02*
X173900000Y-84699999I0J-249999D01*
G01*
X173900000Y-85350001D01*
G75*
G02*
X173650001Y-85600000I-249999J0D01*
G01*
G37*
G36*
G01*
X176150001Y-88550000D02*
X174849999Y-88550000D01*
G75*
G02*
X174600000Y-88300001I0J249999D01*
G01*
X174600000Y-87649999D01*
G75*
G02*
X174849999Y-87400000I249999J0D01*
G01*
X176150001Y-87400000D01*
G75*
G02*
X176400000Y-87649999I0J-249999D01*
G01*
X176400000Y-88300001D01*
G75*
G02*
X176150001Y-88550000I-249999J0D01*
G01*
G37*
G36*
G01*
X176150001Y-85600000D02*
X174849999Y-85600000D01*
G75*
G02*
X174600000Y-85350001I0J249999D01*
G01*
X174600000Y-84699999D01*
G75*
G02*
X174849999Y-84450000I249999J0D01*
G01*
X176150001Y-84450000D01*
G75*
G02*
X176400000Y-84699999I0J-249999D01*
G01*
X176400000Y-85350001D01*
G75*
G02*
X176150001Y-85600000I-249999J0D01*
G01*
G37*
G36*
G01*
X147400001Y-88550000D02*
X146099999Y-88550000D01*
G75*
G02*
X145850000Y-88300001I0J249999D01*
G01*
X145850000Y-87649999D01*
G75*
G02*
X146099999Y-87400000I249999J0D01*
G01*
X147400001Y-87400000D01*
G75*
G02*
X147650000Y-87649999I0J-249999D01*
G01*
X147650000Y-88300001D01*
G75*
G02*
X147400001Y-88550000I-249999J0D01*
G01*
G37*
G36*
G01*
X147400001Y-85600000D02*
X146099999Y-85600000D01*
G75*
G02*
X145850000Y-85350001I0J249999D01*
G01*
X145850000Y-84699999D01*
G75*
G02*
X146099999Y-84450000I249999J0D01*
G01*
X147400001Y-84450000D01*
G75*
G02*
X147650000Y-84699999I0J-249999D01*
G01*
X147650000Y-85350001D01*
G75*
G02*
X147400001Y-85600000I-249999J0D01*
G01*
G37*
G36*
G01*
X144900001Y-88550000D02*
X143599999Y-88550000D01*
G75*
G02*
X143350000Y-88300001I0J249999D01*
G01*
X143350000Y-87649999D01*
G75*
G02*
X143599999Y-87400000I249999J0D01*
G01*
X144900001Y-87400000D01*
G75*
G02*
X145150000Y-87649999I0J-249999D01*
G01*
X145150000Y-88300001D01*
G75*
G02*
X144900001Y-88550000I-249999J0D01*
G01*
G37*
G36*
G01*
X144900001Y-85600000D02*
X143599999Y-85600000D01*
G75*
G02*
X143350000Y-85350001I0J249999D01*
G01*
X143350000Y-84699999D01*
G75*
G02*
X143599999Y-84450000I249999J0D01*
G01*
X144900001Y-84450000D01*
G75*
G02*
X145150000Y-84699999I0J-249999D01*
G01*
X145150000Y-85350001D01*
G75*
G02*
X144900001Y-85600000I-249999J0D01*
G01*
G37*
G36*
G01*
X121425000Y-135799998D02*
X121425000Y-136700002D01*
G75*
G02*
X121175002Y-136950000I-249998J0D01*
G01*
X120649998Y-136950000D01*
G75*
G02*
X120400000Y-136700002I0J249998D01*
G01*
X120400000Y-135799998D01*
G75*
G02*
X120649998Y-135550000I249998J0D01*
G01*
X121175002Y-135550000D01*
G75*
G02*
X121425000Y-135799998I0J-249998D01*
G01*
G37*
G36*
G01*
X119600000Y-135799998D02*
X119600000Y-136700002D01*
G75*
G02*
X119350002Y-136950000I-249998J0D01*
G01*
X118824998Y-136950000D01*
G75*
G02*
X118575000Y-136700002I0J249998D01*
G01*
X118575000Y-135799998D01*
G75*
G02*
X118824998Y-135550000I249998J0D01*
G01*
X119350002Y-135550000D01*
G75*
G02*
X119600000Y-135799998I0J-249998D01*
G01*
G37*
G36*
G01*
X162299998Y-125325000D02*
X163200002Y-125325000D01*
G75*
G02*
X163450000Y-125574998I0J-249998D01*
G01*
X163450000Y-126100002D01*
G75*
G02*
X163200002Y-126350000I-249998J0D01*
G01*
X162299998Y-126350000D01*
G75*
G02*
X162050000Y-126100002I0J249998D01*
G01*
X162050000Y-125574998D01*
G75*
G02*
X162299998Y-125325000I249998J0D01*
G01*
G37*
G36*
G01*
X162299998Y-127150000D02*
X163200002Y-127150000D01*
G75*
G02*
X163450000Y-127399998I0J-249998D01*
G01*
X163450000Y-127925002D01*
G75*
G02*
X163200002Y-128175000I-249998J0D01*
G01*
X162299998Y-128175000D01*
G75*
G02*
X162050000Y-127925002I0J249998D01*
G01*
X162050000Y-127399998D01*
G75*
G02*
X162299998Y-127150000I249998J0D01*
G01*
G37*
G36*
G01*
X115375000Y-133900001D02*
X115375000Y-133099999D01*
G75*
G02*
X115624999Y-132850000I249999J0D01*
G01*
X116450001Y-132850000D01*
G75*
G02*
X116700000Y-133099999I0J-249999D01*
G01*
X116700000Y-133900001D01*
G75*
G02*
X116450001Y-134150000I-249999J0D01*
G01*
X115624999Y-134150000D01*
G75*
G02*
X115375000Y-133900001I0J249999D01*
G01*
G37*
G36*
G01*
X117300000Y-133900001D02*
X117300000Y-133099999D01*
G75*
G02*
X117549999Y-132850000I249999J0D01*
G01*
X118375001Y-132850000D01*
G75*
G02*
X118625000Y-133099999I0J-249999D01*
G01*
X118625000Y-133900001D01*
G75*
G02*
X118375001Y-134150000I-249999J0D01*
G01*
X117549999Y-134150000D01*
G75*
G02*
X117300000Y-133900001I0J249999D01*
G01*
G37*
G36*
G01*
X167125000Y-120099999D02*
X167125000Y-120900001D01*
G75*
G02*
X166875001Y-121150000I-249999J0D01*
G01*
X166049999Y-121150000D01*
G75*
G02*
X165800000Y-120900001I0J249999D01*
G01*
X165800000Y-120099999D01*
G75*
G02*
X166049999Y-119850000I249999J0D01*
G01*
X166875001Y-119850000D01*
G75*
G02*
X167125000Y-120099999I0J-249999D01*
G01*
G37*
G36*
G01*
X165200000Y-120099999D02*
X165200000Y-120900001D01*
G75*
G02*
X164950001Y-121150000I-249999J0D01*
G01*
X164124999Y-121150000D01*
G75*
G02*
X163875000Y-120900001I0J249999D01*
G01*
X163875000Y-120099999D01*
G75*
G02*
X164124999Y-119850000I249999J0D01*
G01*
X164950001Y-119850000D01*
G75*
G02*
X165200000Y-120099999I0J-249999D01*
G01*
G37*
D19*
X92500000Y-76500000D03*
X92500000Y-72500000D03*
G36*
G01*
X87250000Y-82200000D02*
X87750000Y-82200000D01*
G75*
G02*
X87900000Y-82350000I0J-150000D01*
G01*
X87900000Y-82650000D01*
G75*
G02*
X87750000Y-82800000I-150000J0D01*
G01*
X87250000Y-82800000D01*
G75*
G02*
X87100000Y-82650000I0J150000D01*
G01*
X87100000Y-82350000D01*
G75*
G02*
X87250000Y-82200000I150000J0D01*
G01*
G37*
G36*
G01*
X87250000Y-84200000D02*
X87750000Y-84200000D01*
G75*
G02*
X87900000Y-84350000I0J-150000D01*
G01*
X87900000Y-84650000D01*
G75*
G02*
X87750000Y-84800000I-150000J0D01*
G01*
X87250000Y-84800000D01*
G75*
G02*
X87100000Y-84650000I0J150000D01*
G01*
X87100000Y-84350000D01*
G75*
G02*
X87250000Y-84200000I150000J0D01*
G01*
G37*
G36*
G01*
X86700000Y-83200000D02*
X87000000Y-83200000D01*
G75*
G02*
X87150000Y-83350000I0J-150000D01*
G01*
X87150000Y-83650000D01*
G75*
G02*
X87000000Y-83800000I-150000J0D01*
G01*
X86700000Y-83800000D01*
G75*
G02*
X86550000Y-83650000I0J150000D01*
G01*
X86550000Y-83350000D01*
G75*
G02*
X86700000Y-83200000I150000J0D01*
G01*
G37*
G36*
G01*
X88000000Y-83200000D02*
X88300000Y-83200000D01*
G75*
G02*
X88450000Y-83350000I0J-150000D01*
G01*
X88450000Y-83650000D01*
G75*
G02*
X88300000Y-83800000I-150000J0D01*
G01*
X88000000Y-83800000D01*
G75*
G02*
X87850000Y-83650000I0J150000D01*
G01*
X87850000Y-83350000D01*
G75*
G02*
X88000000Y-83200000I150000J0D01*
G01*
G37*
G36*
G01*
X106575000Y-119075001D02*
X106575000Y-116924999D01*
G75*
G02*
X106824999Y-116675000I249999J0D01*
G01*
X107550001Y-116675000D01*
G75*
G02*
X107800000Y-116924999I0J-249999D01*
G01*
X107800000Y-119075001D01*
G75*
G02*
X107550001Y-119325000I-249999J0D01*
G01*
X106824999Y-119325000D01*
G75*
G02*
X106575000Y-119075001I0J249999D01*
G01*
G37*
G36*
G01*
X111200000Y-119075001D02*
X111200000Y-116924999D01*
G75*
G02*
X111449999Y-116675000I249999J0D01*
G01*
X112175001Y-116675000D01*
G75*
G02*
X112425000Y-116924999I0J-249999D01*
G01*
X112425000Y-119075001D01*
G75*
G02*
X112175001Y-119325000I-249999J0D01*
G01*
X111449999Y-119325000D01*
G75*
G02*
X111200000Y-119075001I0J249999D01*
G01*
G37*
D20*
X115095000Y-127170000D03*
X116365000Y-127170000D03*
X117635000Y-127170000D03*
X118905000Y-127170000D03*
D21*
X118905000Y-121705000D03*
X117635000Y-121705000D03*
X116365000Y-121705000D03*
X115095000Y-121705000D03*
D22*
X117000000Y-123810000D03*
G36*
G01*
X97600000Y-77100000D02*
X96400000Y-77100000D01*
G75*
G02*
X96150000Y-76850000I0J250000D01*
G01*
X96150000Y-75150000D01*
G75*
G02*
X96400000Y-74900000I250000J0D01*
G01*
X97600000Y-74900000D01*
G75*
G02*
X97850000Y-75150000I0J-250000D01*
G01*
X97850000Y-76850000D01*
G75*
G02*
X97600000Y-77100000I-250000J0D01*
G01*
G37*
D23*
X99500000Y-76000000D03*
D24*
X97000000Y-68820000D03*
X99500000Y-68820000D03*
D10*
X83150000Y-125000000D03*
X81850000Y-125000000D03*
X82500000Y-127000000D03*
X83150000Y-93500000D03*
X81850000Y-93500000D03*
X82500000Y-95500000D03*
G36*
G01*
X175299998Y-91575000D02*
X176200002Y-91575000D01*
G75*
G02*
X176450000Y-91824998I0J-249998D01*
G01*
X176450000Y-92350002D01*
G75*
G02*
X176200002Y-92600000I-249998J0D01*
G01*
X175299998Y-92600000D01*
G75*
G02*
X175050000Y-92350002I0J249998D01*
G01*
X175050000Y-91824998D01*
G75*
G02*
X175299998Y-91575000I249998J0D01*
G01*
G37*
G36*
G01*
X175299998Y-93400000D02*
X176200002Y-93400000D01*
G75*
G02*
X176450000Y-93649998I0J-249998D01*
G01*
X176450000Y-94175002D01*
G75*
G02*
X176200002Y-94425000I-249998J0D01*
G01*
X175299998Y-94425000D01*
G75*
G02*
X175050000Y-94175002I0J249998D01*
G01*
X175050000Y-93649998D01*
G75*
G02*
X175299998Y-93400000I249998J0D01*
G01*
G37*
G36*
G01*
X175299998Y-96575000D02*
X176200002Y-96575000D01*
G75*
G02*
X176450000Y-96824998I0J-249998D01*
G01*
X176450000Y-97350002D01*
G75*
G02*
X176200002Y-97600000I-249998J0D01*
G01*
X175299998Y-97600000D01*
G75*
G02*
X175050000Y-97350002I0J249998D01*
G01*
X175050000Y-96824998D01*
G75*
G02*
X175299998Y-96575000I249998J0D01*
G01*
G37*
G36*
G01*
X175299998Y-98400000D02*
X176200002Y-98400000D01*
G75*
G02*
X176450000Y-98649998I0J-249998D01*
G01*
X176450000Y-99175002D01*
G75*
G02*
X176200002Y-99425000I-249998J0D01*
G01*
X175299998Y-99425000D01*
G75*
G02*
X175050000Y-99175002I0J249998D01*
G01*
X175050000Y-98649998D01*
G75*
G02*
X175299998Y-98400000I249998J0D01*
G01*
G37*
G36*
G01*
X170799998Y-91575000D02*
X171700002Y-91575000D01*
G75*
G02*
X171950000Y-91824998I0J-249998D01*
G01*
X171950000Y-92350002D01*
G75*
G02*
X171700002Y-92600000I-249998J0D01*
G01*
X170799998Y-92600000D01*
G75*
G02*
X170550000Y-92350002I0J249998D01*
G01*
X170550000Y-91824998D01*
G75*
G02*
X170799998Y-91575000I249998J0D01*
G01*
G37*
G36*
G01*
X170799998Y-93400000D02*
X171700002Y-93400000D01*
G75*
G02*
X171950000Y-93649998I0J-249998D01*
G01*
X171950000Y-94175002D01*
G75*
G02*
X171700002Y-94425000I-249998J0D01*
G01*
X170799998Y-94425000D01*
G75*
G02*
X170550000Y-94175002I0J249998D01*
G01*
X170550000Y-93649998D01*
G75*
G02*
X170799998Y-93400000I249998J0D01*
G01*
G37*
G36*
G01*
X170799998Y-96575000D02*
X171700002Y-96575000D01*
G75*
G02*
X171950000Y-96824998I0J-249998D01*
G01*
X171950000Y-97350002D01*
G75*
G02*
X171700002Y-97600000I-249998J0D01*
G01*
X170799998Y-97600000D01*
G75*
G02*
X170550000Y-97350002I0J249998D01*
G01*
X170550000Y-96824998D01*
G75*
G02*
X170799998Y-96575000I249998J0D01*
G01*
G37*
G36*
G01*
X170799998Y-98400000D02*
X171700002Y-98400000D01*
G75*
G02*
X171950000Y-98649998I0J-249998D01*
G01*
X171950000Y-99175002D01*
G75*
G02*
X171700002Y-99425000I-249998J0D01*
G01*
X170799998Y-99425000D01*
G75*
G02*
X170550000Y-99175002I0J249998D01*
G01*
X170550000Y-98649998D01*
G75*
G02*
X170799998Y-98400000I249998J0D01*
G01*
G37*
D18*
X169000000Y-93900000D03*
X169000000Y-91100000D03*
X169000000Y-98900000D03*
X169000000Y-96100000D03*
X173500000Y-93900000D03*
X173500000Y-91100000D03*
X173500000Y-98900000D03*
X173500000Y-96100000D03*
G36*
G01*
X130975003Y-96025000D02*
X129724997Y-96025000D01*
G75*
G02*
X129475000Y-95775003I0J249997D01*
G01*
X129475000Y-95149997D01*
G75*
G02*
X129724997Y-94900000I249997J0D01*
G01*
X130975003Y-94900000D01*
G75*
G02*
X131225000Y-95149997I0J-249997D01*
G01*
X131225000Y-95775003D01*
G75*
G02*
X130975003Y-96025000I-249997J0D01*
G01*
G37*
G36*
G01*
X130975003Y-93100000D02*
X129724997Y-93100000D01*
G75*
G02*
X129475000Y-92850003I0J249997D01*
G01*
X129475000Y-92224997D01*
G75*
G02*
X129724997Y-91975000I249997J0D01*
G01*
X130975003Y-91975000D01*
G75*
G02*
X131225000Y-92224997I0J-249997D01*
G01*
X131225000Y-92850003D01*
G75*
G02*
X130975003Y-93100000I-249997J0D01*
G01*
G37*
G36*
G01*
X187625003Y-96025000D02*
X186374997Y-96025000D01*
G75*
G02*
X186125000Y-95775003I0J249997D01*
G01*
X186125000Y-95149997D01*
G75*
G02*
X186374997Y-94900000I249997J0D01*
G01*
X187625003Y-94900000D01*
G75*
G02*
X187875000Y-95149997I0J-249997D01*
G01*
X187875000Y-95775003D01*
G75*
G02*
X187625003Y-96025000I-249997J0D01*
G01*
G37*
G36*
G01*
X187625003Y-93100000D02*
X186374997Y-93100000D01*
G75*
G02*
X186125000Y-92850003I0J249997D01*
G01*
X186125000Y-92224997D01*
G75*
G02*
X186374997Y-91975000I249997J0D01*
G01*
X187625003Y-91975000D01*
G75*
G02*
X187875000Y-92224997I0J-249997D01*
G01*
X187875000Y-92850003D01*
G75*
G02*
X187625003Y-93100000I-249997J0D01*
G01*
G37*
G36*
G01*
X133624997Y-84475000D02*
X134875003Y-84475000D01*
G75*
G02*
X135125000Y-84724997I0J-249997D01*
G01*
X135125000Y-85350003D01*
G75*
G02*
X134875003Y-85600000I-249997J0D01*
G01*
X133624997Y-85600000D01*
G75*
G02*
X133375000Y-85350003I0J249997D01*
G01*
X133375000Y-84724997D01*
G75*
G02*
X133624997Y-84475000I249997J0D01*
G01*
G37*
G36*
G01*
X133624997Y-87400000D02*
X134875003Y-87400000D01*
G75*
G02*
X135125000Y-87649997I0J-249997D01*
G01*
X135125000Y-88275003D01*
G75*
G02*
X134875003Y-88525000I-249997J0D01*
G01*
X133624997Y-88525000D01*
G75*
G02*
X133375000Y-88275003I0J249997D01*
G01*
X133375000Y-87649997D01*
G75*
G02*
X133624997Y-87400000I249997J0D01*
G01*
G37*
D25*
X179150000Y-124800000D03*
X179150000Y-125750000D03*
X179150000Y-126700000D03*
X181350000Y-126700000D03*
X181350000Y-124800000D03*
X83150000Y-129050000D03*
X83150000Y-130000000D03*
X83150000Y-130950000D03*
X85350000Y-130950000D03*
X85350000Y-129050000D03*
G36*
G01*
X108245000Y-127950000D02*
X107945000Y-127950000D01*
G75*
G02*
X107795000Y-127800000I0J150000D01*
G01*
X107795000Y-126150000D01*
G75*
G02*
X107945000Y-126000000I150000J0D01*
G01*
X108245000Y-126000000D01*
G75*
G02*
X108395000Y-126150000I0J-150000D01*
G01*
X108395000Y-127800000D01*
G75*
G02*
X108245000Y-127950000I-150000J0D01*
G01*
G37*
G36*
G01*
X109515000Y-127950000D02*
X109215000Y-127950000D01*
G75*
G02*
X109065000Y-127800000I0J150000D01*
G01*
X109065000Y-126150000D01*
G75*
G02*
X109215000Y-126000000I150000J0D01*
G01*
X109515000Y-126000000D01*
G75*
G02*
X109665000Y-126150000I0J-150000D01*
G01*
X109665000Y-127800000D01*
G75*
G02*
X109515000Y-127950000I-150000J0D01*
G01*
G37*
G36*
G01*
X110785000Y-127950000D02*
X110485000Y-127950000D01*
G75*
G02*
X110335000Y-127800000I0J150000D01*
G01*
X110335000Y-126150000D01*
G75*
G02*
X110485000Y-126000000I150000J0D01*
G01*
X110785000Y-126000000D01*
G75*
G02*
X110935000Y-126150000I0J-150000D01*
G01*
X110935000Y-127800000D01*
G75*
G02*
X110785000Y-127950000I-150000J0D01*
G01*
G37*
G36*
G01*
X112055000Y-127950000D02*
X111755000Y-127950000D01*
G75*
G02*
X111605000Y-127800000I0J150000D01*
G01*
X111605000Y-126150000D01*
G75*
G02*
X111755000Y-126000000I150000J0D01*
G01*
X112055000Y-126000000D01*
G75*
G02*
X112205000Y-126150000I0J-150000D01*
G01*
X112205000Y-127800000D01*
G75*
G02*
X112055000Y-127950000I-150000J0D01*
G01*
G37*
G36*
G01*
X112055000Y-123000000D02*
X111755000Y-123000000D01*
G75*
G02*
X111605000Y-122850000I0J150000D01*
G01*
X111605000Y-121200000D01*
G75*
G02*
X111755000Y-121050000I150000J0D01*
G01*
X112055000Y-121050000D01*
G75*
G02*
X112205000Y-121200000I0J-150000D01*
G01*
X112205000Y-122850000D01*
G75*
G02*
X112055000Y-123000000I-150000J0D01*
G01*
G37*
G36*
G01*
X110785000Y-123000000D02*
X110485000Y-123000000D01*
G75*
G02*
X110335000Y-122850000I0J150000D01*
G01*
X110335000Y-121200000D01*
G75*
G02*
X110485000Y-121050000I150000J0D01*
G01*
X110785000Y-121050000D01*
G75*
G02*
X110935000Y-121200000I0J-150000D01*
G01*
X110935000Y-122850000D01*
G75*
G02*
X110785000Y-123000000I-150000J0D01*
G01*
G37*
G36*
G01*
X109515000Y-123000000D02*
X109215000Y-123000000D01*
G75*
G02*
X109065000Y-122850000I0J150000D01*
G01*
X109065000Y-121200000D01*
G75*
G02*
X109215000Y-121050000I150000J0D01*
G01*
X109515000Y-121050000D01*
G75*
G02*
X109665000Y-121200000I0J-150000D01*
G01*
X109665000Y-122850000D01*
G75*
G02*
X109515000Y-123000000I-150000J0D01*
G01*
G37*
G36*
G01*
X108245000Y-123000000D02*
X107945000Y-123000000D01*
G75*
G02*
X107795000Y-122850000I0J150000D01*
G01*
X107795000Y-121200000D01*
G75*
G02*
X107945000Y-121050000I150000J0D01*
G01*
X108245000Y-121050000D01*
G75*
G02*
X108395000Y-121200000I0J-150000D01*
G01*
X108395000Y-122850000D01*
G75*
G02*
X108245000Y-123000000I-150000J0D01*
G01*
G37*
G36*
G01*
X160187500Y-98375000D02*
X160312500Y-98375000D01*
G75*
G02*
X160375000Y-98437500I0J-62500D01*
G01*
X160375000Y-99187500D01*
G75*
G02*
X160312500Y-99250000I-62500J0D01*
G01*
X160187500Y-99250000D01*
G75*
G02*
X160125000Y-99187500I0J62500D01*
G01*
X160125000Y-98437500D01*
G75*
G02*
X160187500Y-98375000I62500J0D01*
G01*
G37*
G36*
G01*
X159687500Y-98375000D02*
X159812500Y-98375000D01*
G75*
G02*
X159875000Y-98437500I0J-62500D01*
G01*
X159875000Y-99187500D01*
G75*
G02*
X159812500Y-99250000I-62500J0D01*
G01*
X159687500Y-99250000D01*
G75*
G02*
X159625000Y-99187500I0J62500D01*
G01*
X159625000Y-98437500D01*
G75*
G02*
X159687500Y-98375000I62500J0D01*
G01*
G37*
G36*
G01*
X159187500Y-98375000D02*
X159312500Y-98375000D01*
G75*
G02*
X159375000Y-98437500I0J-62500D01*
G01*
X159375000Y-99187500D01*
G75*
G02*
X159312500Y-99250000I-62500J0D01*
G01*
X159187500Y-99250000D01*
G75*
G02*
X159125000Y-99187500I0J62500D01*
G01*
X159125000Y-98437500D01*
G75*
G02*
X159187500Y-98375000I62500J0D01*
G01*
G37*
G36*
G01*
X158687500Y-98375000D02*
X158812500Y-98375000D01*
G75*
G02*
X158875000Y-98437500I0J-62500D01*
G01*
X158875000Y-99187500D01*
G75*
G02*
X158812500Y-99250000I-62500J0D01*
G01*
X158687500Y-99250000D01*
G75*
G02*
X158625000Y-99187500I0J62500D01*
G01*
X158625000Y-98437500D01*
G75*
G02*
X158687500Y-98375000I62500J0D01*
G01*
G37*
G36*
G01*
X158187500Y-98375000D02*
X158312500Y-98375000D01*
G75*
G02*
X158375000Y-98437500I0J-62500D01*
G01*
X158375000Y-99187500D01*
G75*
G02*
X158312500Y-99250000I-62500J0D01*
G01*
X158187500Y-99250000D01*
G75*
G02*
X158125000Y-99187500I0J62500D01*
G01*
X158125000Y-98437500D01*
G75*
G02*
X158187500Y-98375000I62500J0D01*
G01*
G37*
G36*
G01*
X157687500Y-98375000D02*
X157812500Y-98375000D01*
G75*
G02*
X157875000Y-98437500I0J-62500D01*
G01*
X157875000Y-99187500D01*
G75*
G02*
X157812500Y-99250000I-62500J0D01*
G01*
X157687500Y-99250000D01*
G75*
G02*
X157625000Y-99187500I0J62500D01*
G01*
X157625000Y-98437500D01*
G75*
G02*
X157687500Y-98375000I62500J0D01*
G01*
G37*
G36*
G01*
X157187500Y-98375000D02*
X157312500Y-98375000D01*
G75*
G02*
X157375000Y-98437500I0J-62500D01*
G01*
X157375000Y-99187500D01*
G75*
G02*
X157312500Y-99250000I-62500J0D01*
G01*
X157187500Y-99250000D01*
G75*
G02*
X157125000Y-99187500I0J62500D01*
G01*
X157125000Y-98437500D01*
G75*
G02*
X157187500Y-98375000I62500J0D01*
G01*
G37*
G36*
G01*
X156687500Y-98375000D02*
X156812500Y-98375000D01*
G75*
G02*
X156875000Y-98437500I0J-62500D01*
G01*
X156875000Y-99187500D01*
G75*
G02*
X156812500Y-99250000I-62500J0D01*
G01*
X156687500Y-99250000D01*
G75*
G02*
X156625000Y-99187500I0J62500D01*
G01*
X156625000Y-98437500D01*
G75*
G02*
X156687500Y-98375000I62500J0D01*
G01*
G37*
G36*
G01*
X155687500Y-99375000D02*
X156437500Y-99375000D01*
G75*
G02*
X156500000Y-99437500I0J-62500D01*
G01*
X156500000Y-99562500D01*
G75*
G02*
X156437500Y-99625000I-62500J0D01*
G01*
X155687500Y-99625000D01*
G75*
G02*
X155625000Y-99562500I0J62500D01*
G01*
X155625000Y-99437500D01*
G75*
G02*
X155687500Y-99375000I62500J0D01*
G01*
G37*
G36*
G01*
X155687500Y-99875000D02*
X156437500Y-99875000D01*
G75*
G02*
X156500000Y-99937500I0J-62500D01*
G01*
X156500000Y-100062500D01*
G75*
G02*
X156437500Y-100125000I-62500J0D01*
G01*
X155687500Y-100125000D01*
G75*
G02*
X155625000Y-100062500I0J62500D01*
G01*
X155625000Y-99937500D01*
G75*
G02*
X155687500Y-99875000I62500J0D01*
G01*
G37*
G36*
G01*
X155687500Y-100375000D02*
X156437500Y-100375000D01*
G75*
G02*
X156500000Y-100437500I0J-62500D01*
G01*
X156500000Y-100562500D01*
G75*
G02*
X156437500Y-100625000I-62500J0D01*
G01*
X155687500Y-100625000D01*
G75*
G02*
X155625000Y-100562500I0J62500D01*
G01*
X155625000Y-100437500D01*
G75*
G02*
X155687500Y-100375000I62500J0D01*
G01*
G37*
G36*
G01*
X155687500Y-100875000D02*
X156437500Y-100875000D01*
G75*
G02*
X156500000Y-100937500I0J-62500D01*
G01*
X156500000Y-101062500D01*
G75*
G02*
X156437500Y-101125000I-62500J0D01*
G01*
X155687500Y-101125000D01*
G75*
G02*
X155625000Y-101062500I0J62500D01*
G01*
X155625000Y-100937500D01*
G75*
G02*
X155687500Y-100875000I62500J0D01*
G01*
G37*
G36*
G01*
X155687500Y-101375000D02*
X156437500Y-101375000D01*
G75*
G02*
X156500000Y-101437500I0J-62500D01*
G01*
X156500000Y-101562500D01*
G75*
G02*
X156437500Y-101625000I-62500J0D01*
G01*
X155687500Y-101625000D01*
G75*
G02*
X155625000Y-101562500I0J62500D01*
G01*
X155625000Y-101437500D01*
G75*
G02*
X155687500Y-101375000I62500J0D01*
G01*
G37*
G36*
G01*
X155687500Y-101875000D02*
X156437500Y-101875000D01*
G75*
G02*
X156500000Y-101937500I0J-62500D01*
G01*
X156500000Y-102062500D01*
G75*
G02*
X156437500Y-102125000I-62500J0D01*
G01*
X155687500Y-102125000D01*
G75*
G02*
X155625000Y-102062500I0J62500D01*
G01*
X155625000Y-101937500D01*
G75*
G02*
X155687500Y-101875000I62500J0D01*
G01*
G37*
G36*
G01*
X155687500Y-102375000D02*
X156437500Y-102375000D01*
G75*
G02*
X156500000Y-102437500I0J-62500D01*
G01*
X156500000Y-102562500D01*
G75*
G02*
X156437500Y-102625000I-62500J0D01*
G01*
X155687500Y-102625000D01*
G75*
G02*
X155625000Y-102562500I0J62500D01*
G01*
X155625000Y-102437500D01*
G75*
G02*
X155687500Y-102375000I62500J0D01*
G01*
G37*
G36*
G01*
X155687500Y-102875000D02*
X156437500Y-102875000D01*
G75*
G02*
X156500000Y-102937500I0J-62500D01*
G01*
X156500000Y-103062500D01*
G75*
G02*
X156437500Y-103125000I-62500J0D01*
G01*
X155687500Y-103125000D01*
G75*
G02*
X155625000Y-103062500I0J62500D01*
G01*
X155625000Y-102937500D01*
G75*
G02*
X155687500Y-102875000I62500J0D01*
G01*
G37*
G36*
G01*
X156687500Y-103250000D02*
X156812500Y-103250000D01*
G75*
G02*
X156875000Y-103312500I0J-62500D01*
G01*
X156875000Y-104062500D01*
G75*
G02*
X156812500Y-104125000I-62500J0D01*
G01*
X156687500Y-104125000D01*
G75*
G02*
X156625000Y-104062500I0J62500D01*
G01*
X156625000Y-103312500D01*
G75*
G02*
X156687500Y-103250000I62500J0D01*
G01*
G37*
G36*
G01*
X157187500Y-103250000D02*
X157312500Y-103250000D01*
G75*
G02*
X157375000Y-103312500I0J-62500D01*
G01*
X157375000Y-104062500D01*
G75*
G02*
X157312500Y-104125000I-62500J0D01*
G01*
X157187500Y-104125000D01*
G75*
G02*
X157125000Y-104062500I0J62500D01*
G01*
X157125000Y-103312500D01*
G75*
G02*
X157187500Y-103250000I62500J0D01*
G01*
G37*
G36*
G01*
X157687500Y-103250000D02*
X157812500Y-103250000D01*
G75*
G02*
X157875000Y-103312500I0J-62500D01*
G01*
X157875000Y-104062500D01*
G75*
G02*
X157812500Y-104125000I-62500J0D01*
G01*
X157687500Y-104125000D01*
G75*
G02*
X157625000Y-104062500I0J62500D01*
G01*
X157625000Y-103312500D01*
G75*
G02*
X157687500Y-103250000I62500J0D01*
G01*
G37*
G36*
G01*
X158187500Y-103250000D02*
X158312500Y-103250000D01*
G75*
G02*
X158375000Y-103312500I0J-62500D01*
G01*
X158375000Y-104062500D01*
G75*
G02*
X158312500Y-104125000I-62500J0D01*
G01*
X158187500Y-104125000D01*
G75*
G02*
X158125000Y-104062500I0J62500D01*
G01*
X158125000Y-103312500D01*
G75*
G02*
X158187500Y-103250000I62500J0D01*
G01*
G37*
G36*
G01*
X158687500Y-103250000D02*
X158812500Y-103250000D01*
G75*
G02*
X158875000Y-103312500I0J-62500D01*
G01*
X158875000Y-104062500D01*
G75*
G02*
X158812500Y-104125000I-62500J0D01*
G01*
X158687500Y-104125000D01*
G75*
G02*
X158625000Y-104062500I0J62500D01*
G01*
X158625000Y-103312500D01*
G75*
G02*
X158687500Y-103250000I62500J0D01*
G01*
G37*
G36*
G01*
X159187500Y-103250000D02*
X159312500Y-103250000D01*
G75*
G02*
X159375000Y-103312500I0J-62500D01*
G01*
X159375000Y-104062500D01*
G75*
G02*
X159312500Y-104125000I-62500J0D01*
G01*
X159187500Y-104125000D01*
G75*
G02*
X159125000Y-104062500I0J62500D01*
G01*
X159125000Y-103312500D01*
G75*
G02*
X159187500Y-103250000I62500J0D01*
G01*
G37*
G36*
G01*
X159687500Y-103250000D02*
X159812500Y-103250000D01*
G75*
G02*
X159875000Y-103312500I0J-62500D01*
G01*
X159875000Y-104062500D01*
G75*
G02*
X159812500Y-104125000I-62500J0D01*
G01*
X159687500Y-104125000D01*
G75*
G02*
X159625000Y-104062500I0J62500D01*
G01*
X159625000Y-103312500D01*
G75*
G02*
X159687500Y-103250000I62500J0D01*
G01*
G37*
G36*
G01*
X160187500Y-103250000D02*
X160312500Y-103250000D01*
G75*
G02*
X160375000Y-103312500I0J-62500D01*
G01*
X160375000Y-104062500D01*
G75*
G02*
X160312500Y-104125000I-62500J0D01*
G01*
X160187500Y-104125000D01*
G75*
G02*
X160125000Y-104062500I0J62500D01*
G01*
X160125000Y-103312500D01*
G75*
G02*
X160187500Y-103250000I62500J0D01*
G01*
G37*
G36*
G01*
X160562500Y-102875000D02*
X161312500Y-102875000D01*
G75*
G02*
X161375000Y-102937500I0J-62500D01*
G01*
X161375000Y-103062500D01*
G75*
G02*
X161312500Y-103125000I-62500J0D01*
G01*
X160562500Y-103125000D01*
G75*
G02*
X160500000Y-103062500I0J62500D01*
G01*
X160500000Y-102937500D01*
G75*
G02*
X160562500Y-102875000I62500J0D01*
G01*
G37*
G36*
G01*
X160562500Y-102375000D02*
X161312500Y-102375000D01*
G75*
G02*
X161375000Y-102437500I0J-62500D01*
G01*
X161375000Y-102562500D01*
G75*
G02*
X161312500Y-102625000I-62500J0D01*
G01*
X160562500Y-102625000D01*
G75*
G02*
X160500000Y-102562500I0J62500D01*
G01*
X160500000Y-102437500D01*
G75*
G02*
X160562500Y-102375000I62500J0D01*
G01*
G37*
G36*
G01*
X160562500Y-101875000D02*
X161312500Y-101875000D01*
G75*
G02*
X161375000Y-101937500I0J-62500D01*
G01*
X161375000Y-102062500D01*
G75*
G02*
X161312500Y-102125000I-62500J0D01*
G01*
X160562500Y-102125000D01*
G75*
G02*
X160500000Y-102062500I0J62500D01*
G01*
X160500000Y-101937500D01*
G75*
G02*
X160562500Y-101875000I62500J0D01*
G01*
G37*
G36*
G01*
X160562500Y-101375000D02*
X161312500Y-101375000D01*
G75*
G02*
X161375000Y-101437500I0J-62500D01*
G01*
X161375000Y-101562500D01*
G75*
G02*
X161312500Y-101625000I-62500J0D01*
G01*
X160562500Y-101625000D01*
G75*
G02*
X160500000Y-101562500I0J62500D01*
G01*
X160500000Y-101437500D01*
G75*
G02*
X160562500Y-101375000I62500J0D01*
G01*
G37*
G36*
G01*
X160562500Y-100875000D02*
X161312500Y-100875000D01*
G75*
G02*
X161375000Y-100937500I0J-62500D01*
G01*
X161375000Y-101062500D01*
G75*
G02*
X161312500Y-101125000I-62500J0D01*
G01*
X160562500Y-101125000D01*
G75*
G02*
X160500000Y-101062500I0J62500D01*
G01*
X160500000Y-100937500D01*
G75*
G02*
X160562500Y-100875000I62500J0D01*
G01*
G37*
G36*
G01*
X160562500Y-100375000D02*
X161312500Y-100375000D01*
G75*
G02*
X161375000Y-100437500I0J-62500D01*
G01*
X161375000Y-100562500D01*
G75*
G02*
X161312500Y-100625000I-62500J0D01*
G01*
X160562500Y-100625000D01*
G75*
G02*
X160500000Y-100562500I0J62500D01*
G01*
X160500000Y-100437500D01*
G75*
G02*
X160562500Y-100375000I62500J0D01*
G01*
G37*
G36*
G01*
X160562500Y-99875000D02*
X161312500Y-99875000D01*
G75*
G02*
X161375000Y-99937500I0J-62500D01*
G01*
X161375000Y-100062500D01*
G75*
G02*
X161312500Y-100125000I-62500J0D01*
G01*
X160562500Y-100125000D01*
G75*
G02*
X160500000Y-100062500I0J62500D01*
G01*
X160500000Y-99937500D01*
G75*
G02*
X160562500Y-99875000I62500J0D01*
G01*
G37*
G36*
G01*
X160562500Y-99375000D02*
X161312500Y-99375000D01*
G75*
G02*
X161375000Y-99437500I0J-62500D01*
G01*
X161375000Y-99562500D01*
G75*
G02*
X161312500Y-99625000I-62500J0D01*
G01*
X160562500Y-99625000D01*
G75*
G02*
X160500000Y-99562500I0J62500D01*
G01*
X160500000Y-99437500D01*
G75*
G02*
X160562500Y-99375000I62500J0D01*
G01*
G37*
D26*
X158500000Y-101250000D03*
D27*
X131750000Y-85750000D03*
X131750000Y-84750000D03*
X130250000Y-85750000D03*
X131750000Y-85250000D03*
X130250000Y-84750000D03*
X130250000Y-85250000D03*
G36*
G01*
X169050000Y-126100000D02*
X169050000Y-125200000D01*
G75*
G02*
X169150000Y-125100000I100000J0D01*
G01*
X169550000Y-125100000D01*
G75*
G02*
X169650000Y-125200000I0J-100000D01*
G01*
X169650000Y-126100000D01*
G75*
G02*
X169550000Y-126200000I-100000J0D01*
G01*
X169150000Y-126200000D01*
G75*
G02*
X169050000Y-126100000I0J100000D01*
G01*
G37*
G36*
G01*
X170350000Y-126100000D02*
X170350000Y-125200000D01*
G75*
G02*
X170450000Y-125100000I100000J0D01*
G01*
X170850000Y-125100000D01*
G75*
G02*
X170950000Y-125200000I0J-100000D01*
G01*
X170950000Y-126100000D01*
G75*
G02*
X170850000Y-126200000I-100000J0D01*
G01*
X170450000Y-126200000D01*
G75*
G02*
X170350000Y-126100000I0J100000D01*
G01*
G37*
G36*
G01*
X169700000Y-128300000D02*
X169700000Y-127400000D01*
G75*
G02*
X169800000Y-127300000I100000J0D01*
G01*
X170200000Y-127300000D01*
G75*
G02*
X170300000Y-127400000I0J-100000D01*
G01*
X170300000Y-128300000D01*
G75*
G02*
X170200000Y-128400000I-100000J0D01*
G01*
X169800000Y-128400000D01*
G75*
G02*
X169700000Y-128300000I0J100000D01*
G01*
G37*
G36*
G01*
X169050000Y-128300000D02*
X169050000Y-127400000D01*
G75*
G02*
X169150000Y-127300000I100000J0D01*
G01*
X169550000Y-127300000D01*
G75*
G02*
X169650000Y-127400000I0J-100000D01*
G01*
X169650000Y-128300000D01*
G75*
G02*
X169550000Y-128400000I-100000J0D01*
G01*
X169150000Y-128400000D01*
G75*
G02*
X169050000Y-128300000I0J100000D01*
G01*
G37*
G36*
G01*
X170350000Y-128300000D02*
X170350000Y-127400000D01*
G75*
G02*
X170450000Y-127300000I100000J0D01*
G01*
X170850000Y-127300000D01*
G75*
G02*
X170950000Y-127400000I0J-100000D01*
G01*
X170950000Y-128300000D01*
G75*
G02*
X170850000Y-128400000I-100000J0D01*
G01*
X170450000Y-128400000D01*
G75*
G02*
X170350000Y-128300000I0J100000D01*
G01*
G37*
X184200000Y-85750000D03*
X184200000Y-84750000D03*
X182700000Y-85750000D03*
X184200000Y-85250000D03*
X182700000Y-84750000D03*
X182700000Y-85250000D03*
G36*
G01*
X63575000Y-131575000D02*
X63575000Y-131425000D01*
G75*
G02*
X63650000Y-131350000I75000J0D01*
G01*
X64950000Y-131350000D01*
G75*
G02*
X65025000Y-131425000I0J-75000D01*
G01*
X65025000Y-131575000D01*
G75*
G02*
X64950000Y-131650000I-75000J0D01*
G01*
X63650000Y-131650000D01*
G75*
G02*
X63575000Y-131575000I0J75000D01*
G01*
G37*
G36*
G01*
X63575000Y-132075000D02*
X63575000Y-131925000D01*
G75*
G02*
X63650000Y-131850000I75000J0D01*
G01*
X64950000Y-131850000D01*
G75*
G02*
X65025000Y-131925000I0J-75000D01*
G01*
X65025000Y-132075000D01*
G75*
G02*
X64950000Y-132150000I-75000J0D01*
G01*
X63650000Y-132150000D01*
G75*
G02*
X63575000Y-132075000I0J75000D01*
G01*
G37*
G36*
G01*
X63575000Y-132575000D02*
X63575000Y-132425000D01*
G75*
G02*
X63650000Y-132350000I75000J0D01*
G01*
X64950000Y-132350000D01*
G75*
G02*
X65025000Y-132425000I0J-75000D01*
G01*
X65025000Y-132575000D01*
G75*
G02*
X64950000Y-132650000I-75000J0D01*
G01*
X63650000Y-132650000D01*
G75*
G02*
X63575000Y-132575000I0J75000D01*
G01*
G37*
G36*
G01*
X63575000Y-133075000D02*
X63575000Y-132925000D01*
G75*
G02*
X63650000Y-132850000I75000J0D01*
G01*
X64950000Y-132850000D01*
G75*
G02*
X65025000Y-132925000I0J-75000D01*
G01*
X65025000Y-133075000D01*
G75*
G02*
X64950000Y-133150000I-75000J0D01*
G01*
X63650000Y-133150000D01*
G75*
G02*
X63575000Y-133075000I0J75000D01*
G01*
G37*
G36*
G01*
X63575000Y-133575000D02*
X63575000Y-133425000D01*
G75*
G02*
X63650000Y-133350000I75000J0D01*
G01*
X64950000Y-133350000D01*
G75*
G02*
X65025000Y-133425000I0J-75000D01*
G01*
X65025000Y-133575000D01*
G75*
G02*
X64950000Y-133650000I-75000J0D01*
G01*
X63650000Y-133650000D01*
G75*
G02*
X63575000Y-133575000I0J75000D01*
G01*
G37*
G36*
G01*
X67975000Y-133575000D02*
X67975000Y-133425000D01*
G75*
G02*
X68050000Y-133350000I75000J0D01*
G01*
X69350000Y-133350000D01*
G75*
G02*
X69425000Y-133425000I0J-75000D01*
G01*
X69425000Y-133575000D01*
G75*
G02*
X69350000Y-133650000I-75000J0D01*
G01*
X68050000Y-133650000D01*
G75*
G02*
X67975000Y-133575000I0J75000D01*
G01*
G37*
G36*
G01*
X67975000Y-133075000D02*
X67975000Y-132925000D01*
G75*
G02*
X68050000Y-132850000I75000J0D01*
G01*
X69350000Y-132850000D01*
G75*
G02*
X69425000Y-132925000I0J-75000D01*
G01*
X69425000Y-133075000D01*
G75*
G02*
X69350000Y-133150000I-75000J0D01*
G01*
X68050000Y-133150000D01*
G75*
G02*
X67975000Y-133075000I0J75000D01*
G01*
G37*
G36*
G01*
X67975000Y-132575000D02*
X67975000Y-132425000D01*
G75*
G02*
X68050000Y-132350000I75000J0D01*
G01*
X69350000Y-132350000D01*
G75*
G02*
X69425000Y-132425000I0J-75000D01*
G01*
X69425000Y-132575000D01*
G75*
G02*
X69350000Y-132650000I-75000J0D01*
G01*
X68050000Y-132650000D01*
G75*
G02*
X67975000Y-132575000I0J75000D01*
G01*
G37*
G36*
G01*
X67975000Y-132075000D02*
X67975000Y-131925000D01*
G75*
G02*
X68050000Y-131850000I75000J0D01*
G01*
X69350000Y-131850000D01*
G75*
G02*
X69425000Y-131925000I0J-75000D01*
G01*
X69425000Y-132075000D01*
G75*
G02*
X69350000Y-132150000I-75000J0D01*
G01*
X68050000Y-132150000D01*
G75*
G02*
X67975000Y-132075000I0J75000D01*
G01*
G37*
G36*
G01*
X67975000Y-131575000D02*
X67975000Y-131425000D01*
G75*
G02*
X68050000Y-131350000I75000J0D01*
G01*
X69350000Y-131350000D01*
G75*
G02*
X69425000Y-131425000I0J-75000D01*
G01*
X69425000Y-131575000D01*
G75*
G02*
X69350000Y-131650000I-75000J0D01*
G01*
X68050000Y-131650000D01*
G75*
G02*
X67975000Y-131575000I0J75000D01*
G01*
G37*
D28*
X149750000Y-70500000D03*
X146250000Y-70500000D03*
X168000000Y-70500000D03*
X171500000Y-70500000D03*
G36*
G01*
X178825000Y-123200002D02*
X178825000Y-122299998D01*
G75*
G02*
X179074998Y-122050000I249998J0D01*
G01*
X179600002Y-122050000D01*
G75*
G02*
X179850000Y-122299998I0J-249998D01*
G01*
X179850000Y-123200002D01*
G75*
G02*
X179600002Y-123450000I-249998J0D01*
G01*
X179074998Y-123450000D01*
G75*
G02*
X178825000Y-123200002I0J249998D01*
G01*
G37*
G36*
G01*
X180650000Y-123200002D02*
X180650000Y-122299998D01*
G75*
G02*
X180899998Y-122050000I249998J0D01*
G01*
X181425002Y-122050000D01*
G75*
G02*
X181675000Y-122299998I0J-249998D01*
G01*
X181675000Y-123200002D01*
G75*
G02*
X181425002Y-123450000I-249998J0D01*
G01*
X180899998Y-123450000D01*
G75*
G02*
X180650000Y-123200002I0J249998D01*
G01*
G37*
G36*
G01*
X78049998Y-128575000D02*
X78950002Y-128575000D01*
G75*
G02*
X79200000Y-128824998I0J-249998D01*
G01*
X79200000Y-129350002D01*
G75*
G02*
X78950002Y-129600000I-249998J0D01*
G01*
X78049998Y-129600000D01*
G75*
G02*
X77800000Y-129350002I0J249998D01*
G01*
X77800000Y-128824998D01*
G75*
G02*
X78049998Y-128575000I249998J0D01*
G01*
G37*
G36*
G01*
X78049998Y-130400000D02*
X78950002Y-130400000D01*
G75*
G02*
X79200000Y-130649998I0J-249998D01*
G01*
X79200000Y-131175002D01*
G75*
G02*
X78950002Y-131425000I-249998J0D01*
G01*
X78049998Y-131425000D01*
G75*
G02*
X77800000Y-131175002I0J249998D01*
G01*
X77800000Y-130649998D01*
G75*
G02*
X78049998Y-130400000I249998J0D01*
G01*
G37*
G36*
G01*
X75799998Y-128575000D02*
X76700002Y-128575000D01*
G75*
G02*
X76950000Y-128824998I0J-249998D01*
G01*
X76950000Y-129350002D01*
G75*
G02*
X76700002Y-129600000I-249998J0D01*
G01*
X75799998Y-129600000D01*
G75*
G02*
X75550000Y-129350002I0J249998D01*
G01*
X75550000Y-128824998D01*
G75*
G02*
X75799998Y-128575000I249998J0D01*
G01*
G37*
G36*
G01*
X75799998Y-130400000D02*
X76700002Y-130400000D01*
G75*
G02*
X76950000Y-130649998I0J-249998D01*
G01*
X76950000Y-131175002D01*
G75*
G02*
X76700002Y-131425000I-249998J0D01*
G01*
X75799998Y-131425000D01*
G75*
G02*
X75550000Y-131175002I0J249998D01*
G01*
X75550000Y-130649998D01*
G75*
G02*
X75799998Y-130400000I249998J0D01*
G01*
G37*
G36*
G01*
X83925000Y-132799998D02*
X83925000Y-133700002D01*
G75*
G02*
X83675002Y-133950000I-249998J0D01*
G01*
X83149998Y-133950000D01*
G75*
G02*
X82900000Y-133700002I0J249998D01*
G01*
X82900000Y-132799998D01*
G75*
G02*
X83149998Y-132550000I249998J0D01*
G01*
X83675002Y-132550000D01*
G75*
G02*
X83925000Y-132799998I0J-249998D01*
G01*
G37*
G36*
G01*
X82100000Y-132799998D02*
X82100000Y-133700002D01*
G75*
G02*
X81850002Y-133950000I-249998J0D01*
G01*
X81324998Y-133950000D01*
G75*
G02*
X81075000Y-133700002I0J249998D01*
G01*
X81075000Y-132799998D01*
G75*
G02*
X81324998Y-132550000I249998J0D01*
G01*
X81850002Y-132550000D01*
G75*
G02*
X82100000Y-132799998I0J-249998D01*
G01*
G37*
G36*
G01*
X84825000Y-133700002D02*
X84825000Y-132799998D01*
G75*
G02*
X85074998Y-132550000I249998J0D01*
G01*
X85600002Y-132550000D01*
G75*
G02*
X85850000Y-132799998I0J-249998D01*
G01*
X85850000Y-133700002D01*
G75*
G02*
X85600002Y-133950000I-249998J0D01*
G01*
X85074998Y-133950000D01*
G75*
G02*
X84825000Y-133700002I0J249998D01*
G01*
G37*
G36*
G01*
X86650000Y-133700002D02*
X86650000Y-132799998D01*
G75*
G02*
X86899998Y-132550000I249998J0D01*
G01*
X87425002Y-132550000D01*
G75*
G02*
X87675000Y-132799998I0J-249998D01*
G01*
X87675000Y-133700002D01*
G75*
G02*
X87425002Y-133950000I-249998J0D01*
G01*
X86899998Y-133950000D01*
G75*
G02*
X86650000Y-133700002I0J249998D01*
G01*
G37*
G36*
G01*
X81200002Y-131425000D02*
X80299998Y-131425000D01*
G75*
G02*
X80050000Y-131175002I0J249998D01*
G01*
X80050000Y-130649998D01*
G75*
G02*
X80299998Y-130400000I249998J0D01*
G01*
X81200002Y-130400000D01*
G75*
G02*
X81450000Y-130649998I0J-249998D01*
G01*
X81450000Y-131175002D01*
G75*
G02*
X81200002Y-131425000I-249998J0D01*
G01*
G37*
G36*
G01*
X81200002Y-129600000D02*
X80299998Y-129600000D01*
G75*
G02*
X80050000Y-129350002I0J249998D01*
G01*
X80050000Y-128824998D01*
G75*
G02*
X80299998Y-128575000I249998J0D01*
G01*
X81200002Y-128575000D01*
G75*
G02*
X81450000Y-128824998I0J-249998D01*
G01*
X81450000Y-129350002D01*
G75*
G02*
X81200002Y-129600000I-249998J0D01*
G01*
G37*
G36*
G01*
X87049998Y-128575000D02*
X87950002Y-128575000D01*
G75*
G02*
X88200000Y-128824998I0J-249998D01*
G01*
X88200000Y-129350002D01*
G75*
G02*
X87950002Y-129600000I-249998J0D01*
G01*
X87049998Y-129600000D01*
G75*
G02*
X86800000Y-129350002I0J249998D01*
G01*
X86800000Y-128824998D01*
G75*
G02*
X87049998Y-128575000I249998J0D01*
G01*
G37*
G36*
G01*
X87049998Y-130400000D02*
X87950002Y-130400000D01*
G75*
G02*
X88200000Y-130649998I0J-249998D01*
G01*
X88200000Y-131175002D01*
G75*
G02*
X87950002Y-131425000I-249998J0D01*
G01*
X87049998Y-131425000D01*
G75*
G02*
X86800000Y-131175002I0J249998D01*
G01*
X86800000Y-130649998D01*
G75*
G02*
X87049998Y-130400000I249998J0D01*
G01*
G37*
G36*
G01*
X77299998Y-97075000D02*
X78200002Y-97075000D01*
G75*
G02*
X78450000Y-97324998I0J-249998D01*
G01*
X78450000Y-97850002D01*
G75*
G02*
X78200002Y-98100000I-249998J0D01*
G01*
X77299998Y-98100000D01*
G75*
G02*
X77050000Y-97850002I0J249998D01*
G01*
X77050000Y-97324998D01*
G75*
G02*
X77299998Y-97075000I249998J0D01*
G01*
G37*
G36*
G01*
X77299998Y-98900000D02*
X78200002Y-98900000D01*
G75*
G02*
X78450000Y-99149998I0J-249998D01*
G01*
X78450000Y-99675002D01*
G75*
G02*
X78200002Y-99925000I-249998J0D01*
G01*
X77299998Y-99925000D01*
G75*
G02*
X77050000Y-99675002I0J249998D01*
G01*
X77050000Y-99149998D01*
G75*
G02*
X77299998Y-98900000I249998J0D01*
G01*
G37*
G36*
G01*
X90450002Y-99925000D02*
X89549998Y-99925000D01*
G75*
G02*
X89300000Y-99675002I0J249998D01*
G01*
X89300000Y-99149998D01*
G75*
G02*
X89549998Y-98900000I249998J0D01*
G01*
X90450002Y-98900000D01*
G75*
G02*
X90700000Y-99149998I0J-249998D01*
G01*
X90700000Y-99675002D01*
G75*
G02*
X90450002Y-99925000I-249998J0D01*
G01*
G37*
G36*
G01*
X90450002Y-98100000D02*
X89549998Y-98100000D01*
G75*
G02*
X89300000Y-97850002I0J249998D01*
G01*
X89300000Y-97324998D01*
G75*
G02*
X89549998Y-97075000I249998J0D01*
G01*
X90450002Y-97075000D01*
G75*
G02*
X90700000Y-97324998I0J-249998D01*
G01*
X90700000Y-97850002D01*
G75*
G02*
X90450002Y-98100000I-249998J0D01*
G01*
G37*
G36*
G01*
X84549998Y-97075000D02*
X85450002Y-97075000D01*
G75*
G02*
X85700000Y-97324998I0J-249998D01*
G01*
X85700000Y-97850002D01*
G75*
G02*
X85450002Y-98100000I-249998J0D01*
G01*
X84549998Y-98100000D01*
G75*
G02*
X84300000Y-97850002I0J249998D01*
G01*
X84300000Y-97324998D01*
G75*
G02*
X84549998Y-97075000I249998J0D01*
G01*
G37*
G36*
G01*
X84549998Y-98900000D02*
X85450002Y-98900000D01*
G75*
G02*
X85700000Y-99149998I0J-249998D01*
G01*
X85700000Y-99675002D01*
G75*
G02*
X85450002Y-99925000I-249998J0D01*
G01*
X84549998Y-99925000D01*
G75*
G02*
X84300000Y-99675002I0J249998D01*
G01*
X84300000Y-99149998D01*
G75*
G02*
X84549998Y-98900000I249998J0D01*
G01*
G37*
G36*
G01*
X89549998Y-93075000D02*
X90450002Y-93075000D01*
G75*
G02*
X90700000Y-93324998I0J-249998D01*
G01*
X90700000Y-93850002D01*
G75*
G02*
X90450002Y-94100000I-249998J0D01*
G01*
X89549998Y-94100000D01*
G75*
G02*
X89300000Y-93850002I0J249998D01*
G01*
X89300000Y-93324998D01*
G75*
G02*
X89549998Y-93075000I249998J0D01*
G01*
G37*
G36*
G01*
X89549998Y-94900000D02*
X90450002Y-94900000D01*
G75*
G02*
X90700000Y-95149998I0J-249998D01*
G01*
X90700000Y-95675002D01*
G75*
G02*
X90450002Y-95925000I-249998J0D01*
G01*
X89549998Y-95925000D01*
G75*
G02*
X89300000Y-95675002I0J249998D01*
G01*
X89300000Y-95149998D01*
G75*
G02*
X89549998Y-94900000I249998J0D01*
G01*
G37*
G36*
G01*
X84549998Y-93075000D02*
X85450002Y-93075000D01*
G75*
G02*
X85700000Y-93324998I0J-249998D01*
G01*
X85700000Y-93850002D01*
G75*
G02*
X85450002Y-94100000I-249998J0D01*
G01*
X84549998Y-94100000D01*
G75*
G02*
X84300000Y-93850002I0J249998D01*
G01*
X84300000Y-93324998D01*
G75*
G02*
X84549998Y-93075000I249998J0D01*
G01*
G37*
G36*
G01*
X84549998Y-94900000D02*
X85450002Y-94900000D01*
G75*
G02*
X85700000Y-95149998I0J-249998D01*
G01*
X85700000Y-95675002D01*
G75*
G02*
X85450002Y-95925000I-249998J0D01*
G01*
X84549998Y-95925000D01*
G75*
G02*
X84300000Y-95675002I0J249998D01*
G01*
X84300000Y-95149998D01*
G75*
G02*
X84549998Y-94900000I249998J0D01*
G01*
G37*
G36*
G01*
X80450002Y-95925000D02*
X79549998Y-95925000D01*
G75*
G02*
X79300000Y-95675002I0J249998D01*
G01*
X79300000Y-95149998D01*
G75*
G02*
X79549998Y-94900000I249998J0D01*
G01*
X80450002Y-94900000D01*
G75*
G02*
X80700000Y-95149998I0J-249998D01*
G01*
X80700000Y-95675002D01*
G75*
G02*
X80450002Y-95925000I-249998J0D01*
G01*
G37*
G36*
G01*
X80450002Y-94100000D02*
X79549998Y-94100000D01*
G75*
G02*
X79300000Y-93850002I0J249998D01*
G01*
X79300000Y-93324998D01*
G75*
G02*
X79549998Y-93075000I249998J0D01*
G01*
X80450002Y-93075000D01*
G75*
G02*
X80700000Y-93324998I0J-249998D01*
G01*
X80700000Y-93850002D01*
G75*
G02*
X80450002Y-94100000I-249998J0D01*
G01*
G37*
G36*
G01*
X92450002Y-127425000D02*
X91549998Y-127425000D01*
G75*
G02*
X91300000Y-127175002I0J249998D01*
G01*
X91300000Y-126649998D01*
G75*
G02*
X91549998Y-126400000I249998J0D01*
G01*
X92450002Y-126400000D01*
G75*
G02*
X92700000Y-126649998I0J-249998D01*
G01*
X92700000Y-127175002D01*
G75*
G02*
X92450002Y-127425000I-249998J0D01*
G01*
G37*
G36*
G01*
X92450002Y-125600000D02*
X91549998Y-125600000D01*
G75*
G02*
X91300000Y-125350002I0J249998D01*
G01*
X91300000Y-124824998D01*
G75*
G02*
X91549998Y-124575000I249998J0D01*
G01*
X92450002Y-124575000D01*
G75*
G02*
X92700000Y-124824998I0J-249998D01*
G01*
X92700000Y-125350002D01*
G75*
G02*
X92450002Y-125600000I-249998J0D01*
G01*
G37*
G36*
G01*
X89299998Y-124575000D02*
X90200002Y-124575000D01*
G75*
G02*
X90450000Y-124824998I0J-249998D01*
G01*
X90450000Y-125350002D01*
G75*
G02*
X90200002Y-125600000I-249998J0D01*
G01*
X89299998Y-125600000D01*
G75*
G02*
X89050000Y-125350002I0J249998D01*
G01*
X89050000Y-124824998D01*
G75*
G02*
X89299998Y-124575000I249998J0D01*
G01*
G37*
G36*
G01*
X89299998Y-126400000D02*
X90200002Y-126400000D01*
G75*
G02*
X90450000Y-126649998I0J-249998D01*
G01*
X90450000Y-127175002D01*
G75*
G02*
X90200002Y-127425000I-249998J0D01*
G01*
X89299998Y-127425000D01*
G75*
G02*
X89050000Y-127175002I0J249998D01*
G01*
X89050000Y-126649998D01*
G75*
G02*
X89299998Y-126400000I249998J0D01*
G01*
G37*
G36*
G01*
X87950002Y-127425000D02*
X87049998Y-127425000D01*
G75*
G02*
X86800000Y-127175002I0J249998D01*
G01*
X86800000Y-126649998D01*
G75*
G02*
X87049998Y-126400000I249998J0D01*
G01*
X87950002Y-126400000D01*
G75*
G02*
X88200000Y-126649998I0J-249998D01*
G01*
X88200000Y-127175002D01*
G75*
G02*
X87950002Y-127425000I-249998J0D01*
G01*
G37*
G36*
G01*
X87950002Y-125600000D02*
X87049998Y-125600000D01*
G75*
G02*
X86800000Y-125350002I0J249998D01*
G01*
X86800000Y-124824998D01*
G75*
G02*
X87049998Y-124575000I249998J0D01*
G01*
X87950002Y-124575000D01*
G75*
G02*
X88200000Y-124824998I0J-249998D01*
G01*
X88200000Y-125350002D01*
G75*
G02*
X87950002Y-125600000I-249998J0D01*
G01*
G37*
G36*
G01*
X106450002Y-123925000D02*
X105549998Y-123925000D01*
G75*
G02*
X105300000Y-123675002I0J249998D01*
G01*
X105300000Y-123149998D01*
G75*
G02*
X105549998Y-122900000I249998J0D01*
G01*
X106450002Y-122900000D01*
G75*
G02*
X106700000Y-123149998I0J-249998D01*
G01*
X106700000Y-123675002D01*
G75*
G02*
X106450002Y-123925000I-249998J0D01*
G01*
G37*
G36*
G01*
X106450002Y-122100000D02*
X105549998Y-122100000D01*
G75*
G02*
X105300000Y-121850002I0J249998D01*
G01*
X105300000Y-121324998D01*
G75*
G02*
X105549998Y-121075000I249998J0D01*
G01*
X106450002Y-121075000D01*
G75*
G02*
X106700000Y-121324998I0J-249998D01*
G01*
X106700000Y-121850002D01*
G75*
G02*
X106450002Y-122100000I-249998J0D01*
G01*
G37*
G36*
G01*
X109075000Y-133950002D02*
X109075000Y-133049998D01*
G75*
G02*
X109324998Y-132800000I249998J0D01*
G01*
X109850002Y-132800000D01*
G75*
G02*
X110100000Y-133049998I0J-249998D01*
G01*
X110100000Y-133950002D01*
G75*
G02*
X109850002Y-134200000I-249998J0D01*
G01*
X109324998Y-134200000D01*
G75*
G02*
X109075000Y-133950002I0J249998D01*
G01*
G37*
G36*
G01*
X110900000Y-133950002D02*
X110900000Y-133049998D01*
G75*
G02*
X111149998Y-132800000I249998J0D01*
G01*
X111675002Y-132800000D01*
G75*
G02*
X111925000Y-133049998I0J-249998D01*
G01*
X111925000Y-133950002D01*
G75*
G02*
X111675002Y-134200000I-249998J0D01*
G01*
X111149998Y-134200000D01*
G75*
G02*
X110900000Y-133950002I0J249998D01*
G01*
G37*
G36*
G01*
X102799998Y-97825000D02*
X103700002Y-97825000D01*
G75*
G02*
X103950000Y-98074998I0J-249998D01*
G01*
X103950000Y-98600002D01*
G75*
G02*
X103700002Y-98850000I-249998J0D01*
G01*
X102799998Y-98850000D01*
G75*
G02*
X102550000Y-98600002I0J249998D01*
G01*
X102550000Y-98074998D01*
G75*
G02*
X102799998Y-97825000I249998J0D01*
G01*
G37*
G36*
G01*
X102799998Y-99650000D02*
X103700002Y-99650000D01*
G75*
G02*
X103950000Y-99899998I0J-249998D01*
G01*
X103950000Y-100425002D01*
G75*
G02*
X103700002Y-100675000I-249998J0D01*
G01*
X102799998Y-100675000D01*
G75*
G02*
X102550000Y-100425002I0J249998D01*
G01*
X102550000Y-99899998D01*
G75*
G02*
X102799998Y-99650000I249998J0D01*
G01*
G37*
G36*
G01*
X102799998Y-93825000D02*
X103700002Y-93825000D01*
G75*
G02*
X103950000Y-94074998I0J-249998D01*
G01*
X103950000Y-94600002D01*
G75*
G02*
X103700002Y-94850000I-249998J0D01*
G01*
X102799998Y-94850000D01*
G75*
G02*
X102550000Y-94600002I0J249998D01*
G01*
X102550000Y-94074998D01*
G75*
G02*
X102799998Y-93825000I249998J0D01*
G01*
G37*
G36*
G01*
X102799998Y-95650000D02*
X103700002Y-95650000D01*
G75*
G02*
X103950000Y-95899998I0J-249998D01*
G01*
X103950000Y-96425002D01*
G75*
G02*
X103700002Y-96675000I-249998J0D01*
G01*
X102799998Y-96675000D01*
G75*
G02*
X102550000Y-96425002I0J249998D01*
G01*
X102550000Y-95899998D01*
G75*
G02*
X102799998Y-95650000I249998J0D01*
G01*
G37*
G36*
G01*
X213549998Y-97825000D02*
X214450002Y-97825000D01*
G75*
G02*
X214700000Y-98074998I0J-249998D01*
G01*
X214700000Y-98600002D01*
G75*
G02*
X214450002Y-98850000I-249998J0D01*
G01*
X213549998Y-98850000D01*
G75*
G02*
X213300000Y-98600002I0J249998D01*
G01*
X213300000Y-98074998D01*
G75*
G02*
X213549998Y-97825000I249998J0D01*
G01*
G37*
G36*
G01*
X213549998Y-99650000D02*
X214450002Y-99650000D01*
G75*
G02*
X214700000Y-99899998I0J-249998D01*
G01*
X214700000Y-100425002D01*
G75*
G02*
X214450002Y-100675000I-249998J0D01*
G01*
X213549998Y-100675000D01*
G75*
G02*
X213300000Y-100425002I0J249998D01*
G01*
X213300000Y-99899998D01*
G75*
G02*
X213549998Y-99650000I249998J0D01*
G01*
G37*
G36*
G01*
X213549998Y-93825000D02*
X214450002Y-93825000D01*
G75*
G02*
X214700000Y-94074998I0J-249998D01*
G01*
X214700000Y-94600002D01*
G75*
G02*
X214450002Y-94850000I-249998J0D01*
G01*
X213549998Y-94850000D01*
G75*
G02*
X213300000Y-94600002I0J249998D01*
G01*
X213300000Y-94074998D01*
G75*
G02*
X213549998Y-93825000I249998J0D01*
G01*
G37*
G36*
G01*
X213549998Y-95650000D02*
X214450002Y-95650000D01*
G75*
G02*
X214700000Y-95899998I0J-249998D01*
G01*
X214700000Y-96425002D01*
G75*
G02*
X214450002Y-96675000I-249998J0D01*
G01*
X213549998Y-96675000D01*
G75*
G02*
X213300000Y-96425002I0J249998D01*
G01*
X213300000Y-95899998D01*
G75*
G02*
X213549998Y-95650000I249998J0D01*
G01*
G37*
G36*
G01*
X129799998Y-97575000D02*
X130700002Y-97575000D01*
G75*
G02*
X130950000Y-97824998I0J-249998D01*
G01*
X130950000Y-98350002D01*
G75*
G02*
X130700002Y-98600000I-249998J0D01*
G01*
X129799998Y-98600000D01*
G75*
G02*
X129550000Y-98350002I0J249998D01*
G01*
X129550000Y-97824998D01*
G75*
G02*
X129799998Y-97575000I249998J0D01*
G01*
G37*
G36*
G01*
X129799998Y-99400000D02*
X130700002Y-99400000D01*
G75*
G02*
X130950000Y-99649998I0J-249998D01*
G01*
X130950000Y-100175002D01*
G75*
G02*
X130700002Y-100425000I-249998J0D01*
G01*
X129799998Y-100425000D01*
G75*
G02*
X129550000Y-100175002I0J249998D01*
G01*
X129550000Y-99649998D01*
G75*
G02*
X129799998Y-99400000I249998J0D01*
G01*
G37*
G36*
G01*
X186549998Y-97575000D02*
X187450002Y-97575000D01*
G75*
G02*
X187700000Y-97824998I0J-249998D01*
G01*
X187700000Y-98350002D01*
G75*
G02*
X187450002Y-98600000I-249998J0D01*
G01*
X186549998Y-98600000D01*
G75*
G02*
X186300000Y-98350002I0J249998D01*
G01*
X186300000Y-97824998D01*
G75*
G02*
X186549998Y-97575000I249998J0D01*
G01*
G37*
G36*
G01*
X186549998Y-99400000D02*
X187450002Y-99400000D01*
G75*
G02*
X187700000Y-99649998I0J-249998D01*
G01*
X187700000Y-100175002D01*
G75*
G02*
X187450002Y-100425000I-249998J0D01*
G01*
X186549998Y-100425000D01*
G75*
G02*
X186300000Y-100175002I0J249998D01*
G01*
X186300000Y-99649998D01*
G75*
G02*
X186549998Y-99400000I249998J0D01*
G01*
G37*
G36*
G01*
X141049998Y-96575000D02*
X141950002Y-96575000D01*
G75*
G02*
X142200000Y-96824998I0J-249998D01*
G01*
X142200000Y-97350002D01*
G75*
G02*
X141950002Y-97600000I-249998J0D01*
G01*
X141049998Y-97600000D01*
G75*
G02*
X140800000Y-97350002I0J249998D01*
G01*
X140800000Y-96824998D01*
G75*
G02*
X141049998Y-96575000I249998J0D01*
G01*
G37*
G36*
G01*
X141049998Y-98400000D02*
X141950002Y-98400000D01*
G75*
G02*
X142200000Y-98649998I0J-249998D01*
G01*
X142200000Y-99175002D01*
G75*
G02*
X141950002Y-99425000I-249998J0D01*
G01*
X141049998Y-99425000D01*
G75*
G02*
X140800000Y-99175002I0J249998D01*
G01*
X140800000Y-98649998D01*
G75*
G02*
X141049998Y-98400000I249998J0D01*
G01*
G37*
G36*
G01*
X141149998Y-91575000D02*
X142050002Y-91575000D01*
G75*
G02*
X142300000Y-91824998I0J-249998D01*
G01*
X142300000Y-92350002D01*
G75*
G02*
X142050002Y-92600000I-249998J0D01*
G01*
X141149998Y-92600000D01*
G75*
G02*
X140900000Y-92350002I0J249998D01*
G01*
X140900000Y-91824998D01*
G75*
G02*
X141149998Y-91575000I249998J0D01*
G01*
G37*
G36*
G01*
X141149998Y-93400000D02*
X142050002Y-93400000D01*
G75*
G02*
X142300000Y-93649998I0J-249998D01*
G01*
X142300000Y-94175002D01*
G75*
G02*
X142050002Y-94425000I-249998J0D01*
G01*
X141149998Y-94425000D01*
G75*
G02*
X140900000Y-94175002I0J249998D01*
G01*
X140900000Y-93649998D01*
G75*
G02*
X141149998Y-93400000I249998J0D01*
G01*
G37*
G36*
G01*
X138433520Y-105330200D02*
X143066480Y-105330200D01*
G75*
G02*
X143417000Y-105680720I0J-350520D01*
G01*
X143417000Y-108484880D01*
G75*
G02*
X143066480Y-108835400I-350520J0D01*
G01*
X138433520Y-108835400D01*
G75*
G02*
X138083000Y-108484880I0J350520D01*
G01*
X138083000Y-105680720D01*
G75*
G02*
X138433520Y-105330200I350520J0D01*
G01*
G37*
G36*
G01*
X138433520Y-101215400D02*
X143066480Y-101215400D01*
G75*
G02*
X143417000Y-101565920I0J-350520D01*
G01*
X143417000Y-104370080D01*
G75*
G02*
X143066480Y-104720600I-350520J0D01*
G01*
X138433520Y-104720600D01*
G75*
G02*
X138083000Y-104370080I0J350520D01*
G01*
X138083000Y-101565920D01*
G75*
G02*
X138433520Y-101215400I350520J0D01*
G01*
G37*
D29*
X140750000Y-101600000D03*
X140750000Y-108400000D03*
G36*
G01*
X174183520Y-105330200D02*
X178816480Y-105330200D01*
G75*
G02*
X179167000Y-105680720I0J-350520D01*
G01*
X179167000Y-108484880D01*
G75*
G02*
X178816480Y-108835400I-350520J0D01*
G01*
X174183520Y-108835400D01*
G75*
G02*
X173833000Y-108484880I0J350520D01*
G01*
X173833000Y-105680720D01*
G75*
G02*
X174183520Y-105330200I350520J0D01*
G01*
G37*
G36*
G01*
X174183520Y-101215400D02*
X178816480Y-101215400D01*
G75*
G02*
X179167000Y-101565920I0J-350520D01*
G01*
X179167000Y-104370080D01*
G75*
G02*
X178816480Y-104720600I-350520J0D01*
G01*
X174183520Y-104720600D01*
G75*
G02*
X173833000Y-104370080I0J350520D01*
G01*
X173833000Y-101565920D01*
G75*
G02*
X174183520Y-101215400I350520J0D01*
G01*
G37*
X176500000Y-101600000D03*
X176500000Y-108400000D03*
G36*
G01*
X132433520Y-105330200D02*
X137066480Y-105330200D01*
G75*
G02*
X137417000Y-105680720I0J-350520D01*
G01*
X137417000Y-108484880D01*
G75*
G02*
X137066480Y-108835400I-350520J0D01*
G01*
X132433520Y-108835400D01*
G75*
G02*
X132083000Y-108484880I0J350520D01*
G01*
X132083000Y-105680720D01*
G75*
G02*
X132433520Y-105330200I350520J0D01*
G01*
G37*
G36*
G01*
X132433520Y-101215400D02*
X137066480Y-101215400D01*
G75*
G02*
X137417000Y-101565920I0J-350520D01*
G01*
X137417000Y-104370080D01*
G75*
G02*
X137066480Y-104720600I-350520J0D01*
G01*
X132433520Y-104720600D01*
G75*
G02*
X132083000Y-104370080I0J350520D01*
G01*
X132083000Y-101565920D01*
G75*
G02*
X132433520Y-101215400I350520J0D01*
G01*
G37*
X134750000Y-101600000D03*
X134750000Y-108400000D03*
G36*
G01*
X180183520Y-105330200D02*
X184816480Y-105330200D01*
G75*
G02*
X185167000Y-105680720I0J-350520D01*
G01*
X185167000Y-108484880D01*
G75*
G02*
X184816480Y-108835400I-350520J0D01*
G01*
X180183520Y-108835400D01*
G75*
G02*
X179833000Y-108484880I0J350520D01*
G01*
X179833000Y-105680720D01*
G75*
G02*
X180183520Y-105330200I350520J0D01*
G01*
G37*
G36*
G01*
X180183520Y-101215400D02*
X184816480Y-101215400D01*
G75*
G02*
X185167000Y-101565920I0J-350520D01*
G01*
X185167000Y-104370080D01*
G75*
G02*
X184816480Y-104720600I-350520J0D01*
G01*
X180183520Y-104720600D01*
G75*
G02*
X179833000Y-104370080I0J350520D01*
G01*
X179833000Y-101565920D01*
G75*
G02*
X180183520Y-101215400I350520J0D01*
G01*
G37*
X182500000Y-101600000D03*
X182500000Y-108400000D03*
G36*
G01*
X145549998Y-96575000D02*
X146450002Y-96575000D01*
G75*
G02*
X146700000Y-96824998I0J-249998D01*
G01*
X146700000Y-97350002D01*
G75*
G02*
X146450002Y-97600000I-249998J0D01*
G01*
X145549998Y-97600000D01*
G75*
G02*
X145300000Y-97350002I0J249998D01*
G01*
X145300000Y-96824998D01*
G75*
G02*
X145549998Y-96575000I249998J0D01*
G01*
G37*
G36*
G01*
X145549998Y-98400000D02*
X146450002Y-98400000D01*
G75*
G02*
X146700000Y-98649998I0J-249998D01*
G01*
X146700000Y-99175002D01*
G75*
G02*
X146450002Y-99425000I-249998J0D01*
G01*
X145549998Y-99425000D01*
G75*
G02*
X145300000Y-99175002I0J249998D01*
G01*
X145300000Y-98649998D01*
G75*
G02*
X145549998Y-98400000I249998J0D01*
G01*
G37*
G36*
G01*
X145549998Y-91575000D02*
X146450002Y-91575000D01*
G75*
G02*
X146700000Y-91824998I0J-249998D01*
G01*
X146700000Y-92350002D01*
G75*
G02*
X146450002Y-92600000I-249998J0D01*
G01*
X145549998Y-92600000D01*
G75*
G02*
X145300000Y-92350002I0J249998D01*
G01*
X145300000Y-91824998D01*
G75*
G02*
X145549998Y-91575000I249998J0D01*
G01*
G37*
G36*
G01*
X145549998Y-93400000D02*
X146450002Y-93400000D01*
G75*
G02*
X146700000Y-93649998I0J-249998D01*
G01*
X146700000Y-94175002D01*
G75*
G02*
X146450002Y-94425000I-249998J0D01*
G01*
X145549998Y-94425000D01*
G75*
G02*
X145300000Y-94175002I0J249998D01*
G01*
X145300000Y-93649998D01*
G75*
G02*
X145549998Y-93400000I249998J0D01*
G01*
G37*
G36*
G01*
X59299998Y-80825000D02*
X60200002Y-80825000D01*
G75*
G02*
X60450000Y-81074998I0J-249998D01*
G01*
X60450000Y-81600002D01*
G75*
G02*
X60200002Y-81850000I-249998J0D01*
G01*
X59299998Y-81850000D01*
G75*
G02*
X59050000Y-81600002I0J249998D01*
G01*
X59050000Y-81074998D01*
G75*
G02*
X59299998Y-80825000I249998J0D01*
G01*
G37*
G36*
G01*
X59299998Y-82650000D02*
X60200002Y-82650000D01*
G75*
G02*
X60450000Y-82899998I0J-249998D01*
G01*
X60450000Y-83425002D01*
G75*
G02*
X60200002Y-83675000I-249998J0D01*
G01*
X59299998Y-83675000D01*
G75*
G02*
X59050000Y-83425002I0J249998D01*
G01*
X59050000Y-82899998D01*
G75*
G02*
X59299998Y-82650000I249998J0D01*
G01*
G37*
G36*
G01*
X153450002Y-102425000D02*
X152549998Y-102425000D01*
G75*
G02*
X152300000Y-102175002I0J249998D01*
G01*
X152300000Y-101649998D01*
G75*
G02*
X152549998Y-101400000I249998J0D01*
G01*
X153450002Y-101400000D01*
G75*
G02*
X153700000Y-101649998I0J-249998D01*
G01*
X153700000Y-102175002D01*
G75*
G02*
X153450002Y-102425000I-249998J0D01*
G01*
G37*
G36*
G01*
X153450002Y-100600000D02*
X152549998Y-100600000D01*
G75*
G02*
X152300000Y-100350002I0J249998D01*
G01*
X152300000Y-99824998D01*
G75*
G02*
X152549998Y-99575000I249998J0D01*
G01*
X153450002Y-99575000D01*
G75*
G02*
X153700000Y-99824998I0J-249998D01*
G01*
X153700000Y-100350002D01*
G75*
G02*
X153450002Y-100600000I-249998J0D01*
G01*
G37*
G36*
G01*
X129575000Y-88200002D02*
X129575000Y-87299998D01*
G75*
G02*
X129824998Y-87050000I249998J0D01*
G01*
X130350002Y-87050000D01*
G75*
G02*
X130600000Y-87299998I0J-249998D01*
G01*
X130600000Y-88200002D01*
G75*
G02*
X130350002Y-88450000I-249998J0D01*
G01*
X129824998Y-88450000D01*
G75*
G02*
X129575000Y-88200002I0J249998D01*
G01*
G37*
G36*
G01*
X131400000Y-88200002D02*
X131400000Y-87299998D01*
G75*
G02*
X131649998Y-87050000I249998J0D01*
G01*
X132175002Y-87050000D01*
G75*
G02*
X132425000Y-87299998I0J-249998D01*
G01*
X132425000Y-88200002D01*
G75*
G02*
X132175002Y-88450000I-249998J0D01*
G01*
X131649998Y-88450000D01*
G75*
G02*
X131400000Y-88200002I0J249998D01*
G01*
G37*
G36*
G01*
X167200002Y-102425000D02*
X166299998Y-102425000D01*
G75*
G02*
X166050000Y-102175002I0J249998D01*
G01*
X166050000Y-101649998D01*
G75*
G02*
X166299998Y-101400000I249998J0D01*
G01*
X167200002Y-101400000D01*
G75*
G02*
X167450000Y-101649998I0J-249998D01*
G01*
X167450000Y-102175002D01*
G75*
G02*
X167200002Y-102425000I-249998J0D01*
G01*
G37*
G36*
G01*
X167200002Y-100600000D02*
X166299998Y-100600000D01*
G75*
G02*
X166050000Y-100350002I0J249998D01*
G01*
X166050000Y-99824998D01*
G75*
G02*
X166299998Y-99575000I249998J0D01*
G01*
X167200002Y-99575000D01*
G75*
G02*
X167450000Y-99824998I0J-249998D01*
G01*
X167450000Y-100350002D01*
G75*
G02*
X167200002Y-100600000I-249998J0D01*
G01*
G37*
G36*
G01*
X169175000Y-129799998D02*
X169175000Y-130700002D01*
G75*
G02*
X168925002Y-130950000I-249998J0D01*
G01*
X168399998Y-130950000D01*
G75*
G02*
X168150000Y-130700002I0J249998D01*
G01*
X168150000Y-129799998D01*
G75*
G02*
X168399998Y-129550000I249998J0D01*
G01*
X168925002Y-129550000D01*
G75*
G02*
X169175000Y-129799998I0J-249998D01*
G01*
G37*
G36*
G01*
X167350000Y-129799998D02*
X167350000Y-130700002D01*
G75*
G02*
X167100002Y-130950000I-249998J0D01*
G01*
X166574998Y-130950000D01*
G75*
G02*
X166325000Y-130700002I0J249998D01*
G01*
X166325000Y-129799998D01*
G75*
G02*
X166574998Y-129550000I249998J0D01*
G01*
X167100002Y-129550000D01*
G75*
G02*
X167350000Y-129799998I0J-249998D01*
G01*
G37*
G36*
G01*
X170075000Y-130700002D02*
X170075000Y-129799998D01*
G75*
G02*
X170324998Y-129550000I249998J0D01*
G01*
X170850002Y-129550000D01*
G75*
G02*
X171100000Y-129799998I0J-249998D01*
G01*
X171100000Y-130700002D01*
G75*
G02*
X170850002Y-130950000I-249998J0D01*
G01*
X170324998Y-130950000D01*
G75*
G02*
X170075000Y-130700002I0J249998D01*
G01*
G37*
G36*
G01*
X171900000Y-130700002D02*
X171900000Y-129799998D01*
G75*
G02*
X172149998Y-129550000I249998J0D01*
G01*
X172675002Y-129550000D01*
G75*
G02*
X172925000Y-129799998I0J-249998D01*
G01*
X172925000Y-130700002D01*
G75*
G02*
X172675002Y-130950000I-249998J0D01*
G01*
X172149998Y-130950000D01*
G75*
G02*
X171900000Y-130700002I0J249998D01*
G01*
G37*
G36*
G01*
X182025000Y-88200002D02*
X182025000Y-87299998D01*
G75*
G02*
X182274998Y-87050000I249998J0D01*
G01*
X182800002Y-87050000D01*
G75*
G02*
X183050000Y-87299998I0J-249998D01*
G01*
X183050000Y-88200002D01*
G75*
G02*
X182800002Y-88450000I-249998J0D01*
G01*
X182274998Y-88450000D01*
G75*
G02*
X182025000Y-88200002I0J249998D01*
G01*
G37*
G36*
G01*
X183850000Y-88200002D02*
X183850000Y-87299998D01*
G75*
G02*
X184099998Y-87050000I249998J0D01*
G01*
X184625002Y-87050000D01*
G75*
G02*
X184875000Y-87299998I0J-249998D01*
G01*
X184875000Y-88200002D01*
G75*
G02*
X184625002Y-88450000I-249998J0D01*
G01*
X184099998Y-88450000D01*
G75*
G02*
X183850000Y-88200002I0J249998D01*
G01*
G37*
D20*
X88905000Y-107080000D03*
X87635000Y-107080000D03*
X86365000Y-107080000D03*
X85095000Y-107080000D03*
D21*
X85095000Y-112545000D03*
X86365000Y-112545000D03*
X87635000Y-112545000D03*
X88905000Y-112545000D03*
D22*
X87000000Y-110440000D03*
X80250000Y-110440000D03*
D21*
X82155000Y-112545000D03*
X80885000Y-112545000D03*
X79615000Y-112545000D03*
X78345000Y-112545000D03*
D20*
X78345000Y-107080000D03*
X79615000Y-107080000D03*
X80885000Y-107080000D03*
X82155000Y-107080000D03*
X75405000Y-107080000D03*
X74135000Y-107080000D03*
X72865000Y-107080000D03*
X71595000Y-107080000D03*
D21*
X71595000Y-112545000D03*
X72865000Y-112545000D03*
X74135000Y-112545000D03*
X75405000Y-112545000D03*
D22*
X73500000Y-110440000D03*
D20*
X68655000Y-107080000D03*
X67385000Y-107080000D03*
X66115000Y-107080000D03*
X64845000Y-107080000D03*
D21*
X64845000Y-112545000D03*
X66115000Y-112545000D03*
X67385000Y-112545000D03*
X68655000Y-112545000D03*
D22*
X66750000Y-110440000D03*
D10*
X88150000Y-97500000D03*
X86850000Y-97500000D03*
X87500000Y-99500000D03*
X86850000Y-95500000D03*
X88150000Y-95500000D03*
X87500000Y-93500000D03*
X83150000Y-97500000D03*
X81850000Y-97500000D03*
X82500000Y-99500000D03*
G36*
G01*
X133625000Y-99250000D02*
X133225000Y-99250000D01*
G75*
G02*
X133175000Y-99200000I0J50000D01*
G01*
X133175000Y-98370000D01*
G75*
G02*
X133225000Y-98320000I50000J0D01*
G01*
X133625000Y-98320000D01*
G75*
G02*
X133675000Y-98370000I0J-50000D01*
G01*
X133675000Y-99200000D01*
G75*
G02*
X133625000Y-99250000I-50000J0D01*
G01*
G37*
G36*
G01*
X132975000Y-99250000D02*
X132575000Y-99250000D01*
G75*
G02*
X132525000Y-99200000I0J50000D01*
G01*
X132525000Y-98370000D01*
G75*
G02*
X132575000Y-98320000I50000J0D01*
G01*
X132975000Y-98320000D01*
G75*
G02*
X133025000Y-98370000I0J-50000D01*
G01*
X133025000Y-99200000D01*
G75*
G02*
X132975000Y-99250000I-50000J0D01*
G01*
G37*
G36*
G01*
X134275000Y-99250000D02*
X133875000Y-99250000D01*
G75*
G02*
X133825000Y-99200000I0J50000D01*
G01*
X133825000Y-98370000D01*
G75*
G02*
X133875000Y-98320000I50000J0D01*
G01*
X134275000Y-98320000D01*
G75*
G02*
X134325000Y-98370000I0J-50000D01*
G01*
X134325000Y-99200000D01*
G75*
G02*
X134275000Y-99250000I-50000J0D01*
G01*
G37*
G36*
G01*
X134925000Y-99250000D02*
X134525000Y-99250000D01*
G75*
G02*
X134475000Y-99200000I0J50000D01*
G01*
X134475000Y-98370000D01*
G75*
G02*
X134525000Y-98320000I50000J0D01*
G01*
X134925000Y-98320000D01*
G75*
G02*
X134975000Y-98370000I0J-50000D01*
G01*
X134975000Y-99200000D01*
G75*
G02*
X134925000Y-99250000I-50000J0D01*
G01*
G37*
D30*
G36*
X132525961Y-95290245D02*
G01*
X132528806Y-95280866D01*
X132533427Y-95272221D01*
X132539645Y-95264645D01*
X132547221Y-95258427D01*
X132555866Y-95253806D01*
X132565245Y-95250961D01*
X132575000Y-95250000D01*
X132975000Y-95250000D01*
X132984755Y-95250961D01*
X132994134Y-95253806D01*
X133002779Y-95258427D01*
X133010355Y-95264645D01*
X133016573Y-95272221D01*
X133021194Y-95280866D01*
X133024039Y-95290245D01*
X133025000Y-95300000D01*
X133025000Y-95870000D01*
X133175000Y-95870000D01*
X133175000Y-95300000D01*
X133175961Y-95290245D01*
X133178806Y-95280866D01*
X133183427Y-95272221D01*
X133189645Y-95264645D01*
X133197221Y-95258427D01*
X133205866Y-95253806D01*
X133215245Y-95250961D01*
X133225000Y-95250000D01*
X133625000Y-95250000D01*
X133634755Y-95250961D01*
X133644134Y-95253806D01*
X133652779Y-95258427D01*
X133660355Y-95264645D01*
X133666573Y-95272221D01*
X133671194Y-95280866D01*
X133674039Y-95290245D01*
X133675000Y-95300000D01*
X133675000Y-95870000D01*
X133825000Y-95870000D01*
X133825000Y-95300000D01*
X133825961Y-95290245D01*
X133828806Y-95280866D01*
X133833427Y-95272221D01*
X133839645Y-95264645D01*
X133847221Y-95258427D01*
X133855866Y-95253806D01*
X133865245Y-95250961D01*
X133875000Y-95250000D01*
X134275000Y-95250000D01*
X134284755Y-95250961D01*
X134294134Y-95253806D01*
X134302779Y-95258427D01*
X134310355Y-95264645D01*
X134316573Y-95272221D01*
X134321194Y-95280866D01*
X134324039Y-95290245D01*
X134325000Y-95300000D01*
X134325000Y-95870000D01*
X134475000Y-95870000D01*
X134475000Y-95300000D01*
X134475961Y-95290245D01*
X134478806Y-95280866D01*
X134483427Y-95272221D01*
X134489645Y-95264645D01*
X134497221Y-95258427D01*
X134505866Y-95253806D01*
X134515245Y-95250961D01*
X134525000Y-95250000D01*
X134925000Y-95250000D01*
X134934755Y-95250961D01*
X134944134Y-95253806D01*
X134952779Y-95258427D01*
X134960355Y-95264645D01*
X134966573Y-95272221D01*
X134971194Y-95280866D01*
X134974039Y-95290245D01*
X134975000Y-95300000D01*
X134975000Y-95920000D01*
X134974039Y-95929755D01*
X134971194Y-95939134D01*
X134966573Y-95947779D01*
X134960355Y-95955355D01*
X134952779Y-95961573D01*
X134944134Y-95966194D01*
X134934755Y-95969039D01*
X134925000Y-95970000D01*
X134925000Y-97770000D01*
X134924039Y-97779755D01*
X134921194Y-97789134D01*
X134916573Y-97797779D01*
X134910355Y-97805355D01*
X134902779Y-97811573D01*
X134894134Y-97816194D01*
X134884755Y-97819039D01*
X134875000Y-97820000D01*
X132625000Y-97820000D01*
X132615245Y-97819039D01*
X132605866Y-97816194D01*
X132597221Y-97811573D01*
X132589645Y-97805355D01*
X132583427Y-97797779D01*
X132578806Y-97789134D01*
X132575961Y-97779755D01*
X132575000Y-97770000D01*
X132575000Y-95970000D01*
X132565245Y-95969039D01*
X132555866Y-95966194D01*
X132547221Y-95961573D01*
X132539645Y-95955355D01*
X132533427Y-95947779D01*
X132528806Y-95939134D01*
X132525961Y-95929755D01*
X132525000Y-95920000D01*
X132525000Y-95300000D01*
X132525961Y-95290245D01*
G37*
G36*
G01*
X133625000Y-94500000D02*
X133225000Y-94500000D01*
G75*
G02*
X133175000Y-94450000I0J50000D01*
G01*
X133175000Y-93620000D01*
G75*
G02*
X133225000Y-93570000I50000J0D01*
G01*
X133625000Y-93570000D01*
G75*
G02*
X133675000Y-93620000I0J-50000D01*
G01*
X133675000Y-94450000D01*
G75*
G02*
X133625000Y-94500000I-50000J0D01*
G01*
G37*
G36*
G01*
X132975000Y-94500000D02*
X132575000Y-94500000D01*
G75*
G02*
X132525000Y-94450000I0J50000D01*
G01*
X132525000Y-93620000D01*
G75*
G02*
X132575000Y-93570000I50000J0D01*
G01*
X132975000Y-93570000D01*
G75*
G02*
X133025000Y-93620000I0J-50000D01*
G01*
X133025000Y-94450000D01*
G75*
G02*
X132975000Y-94500000I-50000J0D01*
G01*
G37*
G36*
G01*
X134275000Y-94500000D02*
X133875000Y-94500000D01*
G75*
G02*
X133825000Y-94450000I0J50000D01*
G01*
X133825000Y-93620000D01*
G75*
G02*
X133875000Y-93570000I50000J0D01*
G01*
X134275000Y-93570000D01*
G75*
G02*
X134325000Y-93620000I0J-50000D01*
G01*
X134325000Y-94450000D01*
G75*
G02*
X134275000Y-94500000I-50000J0D01*
G01*
G37*
G36*
G01*
X134925000Y-94500000D02*
X134525000Y-94500000D01*
G75*
G02*
X134475000Y-94450000I0J50000D01*
G01*
X134475000Y-93620000D01*
G75*
G02*
X134525000Y-93570000I50000J0D01*
G01*
X134925000Y-93570000D01*
G75*
G02*
X134975000Y-93620000I0J-50000D01*
G01*
X134975000Y-94450000D01*
G75*
G02*
X134925000Y-94500000I-50000J0D01*
G01*
G37*
G36*
X132525961Y-90540245D02*
G01*
X132528806Y-90530866D01*
X132533427Y-90522221D01*
X132539645Y-90514645D01*
X132547221Y-90508427D01*
X132555866Y-90503806D01*
X132565245Y-90500961D01*
X132575000Y-90500000D01*
X132975000Y-90500000D01*
X132984755Y-90500961D01*
X132994134Y-90503806D01*
X133002779Y-90508427D01*
X133010355Y-90514645D01*
X133016573Y-90522221D01*
X133021194Y-90530866D01*
X133024039Y-90540245D01*
X133025000Y-90550000D01*
X133025000Y-91120000D01*
X133175000Y-91120000D01*
X133175000Y-90550000D01*
X133175961Y-90540245D01*
X133178806Y-90530866D01*
X133183427Y-90522221D01*
X133189645Y-90514645D01*
X133197221Y-90508427D01*
X133205866Y-90503806D01*
X133215245Y-90500961D01*
X133225000Y-90500000D01*
X133625000Y-90500000D01*
X133634755Y-90500961D01*
X133644134Y-90503806D01*
X133652779Y-90508427D01*
X133660355Y-90514645D01*
X133666573Y-90522221D01*
X133671194Y-90530866D01*
X133674039Y-90540245D01*
X133675000Y-90550000D01*
X133675000Y-91120000D01*
X133825000Y-91120000D01*
X133825000Y-90550000D01*
X133825961Y-90540245D01*
X133828806Y-90530866D01*
X133833427Y-90522221D01*
X133839645Y-90514645D01*
X133847221Y-90508427D01*
X133855866Y-90503806D01*
X133865245Y-90500961D01*
X133875000Y-90500000D01*
X134275000Y-90500000D01*
X134284755Y-90500961D01*
X134294134Y-90503806D01*
X134302779Y-90508427D01*
X134310355Y-90514645D01*
X134316573Y-90522221D01*
X134321194Y-90530866D01*
X134324039Y-90540245D01*
X134325000Y-90550000D01*
X134325000Y-91120000D01*
X134475000Y-91120000D01*
X134475000Y-90550000D01*
X134475961Y-90540245D01*
X134478806Y-90530866D01*
X134483427Y-90522221D01*
X134489645Y-90514645D01*
X134497221Y-90508427D01*
X134505866Y-90503806D01*
X134515245Y-90500961D01*
X134525000Y-90500000D01*
X134925000Y-90500000D01*
X134934755Y-90500961D01*
X134944134Y-90503806D01*
X134952779Y-90508427D01*
X134960355Y-90514645D01*
X134966573Y-90522221D01*
X134971194Y-90530866D01*
X134974039Y-90540245D01*
X134975000Y-90550000D01*
X134975000Y-91170000D01*
X134974039Y-91179755D01*
X134971194Y-91189134D01*
X134966573Y-91197779D01*
X134960355Y-91205355D01*
X134952779Y-91211573D01*
X134944134Y-91216194D01*
X134934755Y-91219039D01*
X134925000Y-91220000D01*
X134925000Y-93020000D01*
X134924039Y-93029755D01*
X134921194Y-93039134D01*
X134916573Y-93047779D01*
X134910355Y-93055355D01*
X134902779Y-93061573D01*
X134894134Y-93066194D01*
X134884755Y-93069039D01*
X134875000Y-93070000D01*
X132625000Y-93070000D01*
X132615245Y-93069039D01*
X132605866Y-93066194D01*
X132597221Y-93061573D01*
X132589645Y-93055355D01*
X132583427Y-93047779D01*
X132578806Y-93039134D01*
X132575961Y-93029755D01*
X132575000Y-93020000D01*
X132575000Y-91220000D01*
X132565245Y-91219039D01*
X132555866Y-91216194D01*
X132547221Y-91211573D01*
X132539645Y-91205355D01*
X132533427Y-91197779D01*
X132528806Y-91189134D01*
X132525961Y-91179755D01*
X132525000Y-91170000D01*
X132525000Y-90550000D01*
X132525961Y-90540245D01*
G37*
G36*
G01*
X183475000Y-99300000D02*
X183075000Y-99300000D01*
G75*
G02*
X183025000Y-99250000I0J50000D01*
G01*
X183025000Y-98420000D01*
G75*
G02*
X183075000Y-98370000I50000J0D01*
G01*
X183475000Y-98370000D01*
G75*
G02*
X183525000Y-98420000I0J-50000D01*
G01*
X183525000Y-99250000D01*
G75*
G02*
X183475000Y-99300000I-50000J0D01*
G01*
G37*
G36*
G01*
X182825000Y-99300000D02*
X182425000Y-99300000D01*
G75*
G02*
X182375000Y-99250000I0J50000D01*
G01*
X182375000Y-98420000D01*
G75*
G02*
X182425000Y-98370000I50000J0D01*
G01*
X182825000Y-98370000D01*
G75*
G02*
X182875000Y-98420000I0J-50000D01*
G01*
X182875000Y-99250000D01*
G75*
G02*
X182825000Y-99300000I-50000J0D01*
G01*
G37*
G36*
G01*
X184125000Y-99300000D02*
X183725000Y-99300000D01*
G75*
G02*
X183675000Y-99250000I0J50000D01*
G01*
X183675000Y-98420000D01*
G75*
G02*
X183725000Y-98370000I50000J0D01*
G01*
X184125000Y-98370000D01*
G75*
G02*
X184175000Y-98420000I0J-50000D01*
G01*
X184175000Y-99250000D01*
G75*
G02*
X184125000Y-99300000I-50000J0D01*
G01*
G37*
G36*
G01*
X184775000Y-99300000D02*
X184375000Y-99300000D01*
G75*
G02*
X184325000Y-99250000I0J50000D01*
G01*
X184325000Y-98420000D01*
G75*
G02*
X184375000Y-98370000I50000J0D01*
G01*
X184775000Y-98370000D01*
G75*
G02*
X184825000Y-98420000I0J-50000D01*
G01*
X184825000Y-99250000D01*
G75*
G02*
X184775000Y-99300000I-50000J0D01*
G01*
G37*
G36*
X182375961Y-95340245D02*
G01*
X182378806Y-95330866D01*
X182383427Y-95322221D01*
X182389645Y-95314645D01*
X182397221Y-95308427D01*
X182405866Y-95303806D01*
X182415245Y-95300961D01*
X182425000Y-95300000D01*
X182825000Y-95300000D01*
X182834755Y-95300961D01*
X182844134Y-95303806D01*
X182852779Y-95308427D01*
X182860355Y-95314645D01*
X182866573Y-95322221D01*
X182871194Y-95330866D01*
X182874039Y-95340245D01*
X182875000Y-95350000D01*
X182875000Y-95920000D01*
X183025000Y-95920000D01*
X183025000Y-95350000D01*
X183025961Y-95340245D01*
X183028806Y-95330866D01*
X183033427Y-95322221D01*
X183039645Y-95314645D01*
X183047221Y-95308427D01*
X183055866Y-95303806D01*
X183065245Y-95300961D01*
X183075000Y-95300000D01*
X183475000Y-95300000D01*
X183484755Y-95300961D01*
X183494134Y-95303806D01*
X183502779Y-95308427D01*
X183510355Y-95314645D01*
X183516573Y-95322221D01*
X183521194Y-95330866D01*
X183524039Y-95340245D01*
X183525000Y-95350000D01*
X183525000Y-95920000D01*
X183675000Y-95920000D01*
X183675000Y-95350000D01*
X183675961Y-95340245D01*
X183678806Y-95330866D01*
X183683427Y-95322221D01*
X183689645Y-95314645D01*
X183697221Y-95308427D01*
X183705866Y-95303806D01*
X183715245Y-95300961D01*
X183725000Y-95300000D01*
X184125000Y-95300000D01*
X184134755Y-95300961D01*
X184144134Y-95303806D01*
X184152779Y-95308427D01*
X184160355Y-95314645D01*
X184166573Y-95322221D01*
X184171194Y-95330866D01*
X184174039Y-95340245D01*
X184175000Y-95350000D01*
X184175000Y-95920000D01*
X184325000Y-95920000D01*
X184325000Y-95350000D01*
X184325961Y-95340245D01*
X184328806Y-95330866D01*
X184333427Y-95322221D01*
X184339645Y-95314645D01*
X184347221Y-95308427D01*
X184355866Y-95303806D01*
X184365245Y-95300961D01*
X184375000Y-95300000D01*
X184775000Y-95300000D01*
X184784755Y-95300961D01*
X184794134Y-95303806D01*
X184802779Y-95308427D01*
X184810355Y-95314645D01*
X184816573Y-95322221D01*
X184821194Y-95330866D01*
X184824039Y-95340245D01*
X184825000Y-95350000D01*
X184825000Y-95970000D01*
X184824039Y-95979755D01*
X184821194Y-95989134D01*
X184816573Y-95997779D01*
X184810355Y-96005355D01*
X184802779Y-96011573D01*
X184794134Y-96016194D01*
X184784755Y-96019039D01*
X184775000Y-96020000D01*
X184775000Y-97820000D01*
X184774039Y-97829755D01*
X184771194Y-97839134D01*
X184766573Y-97847779D01*
X184760355Y-97855355D01*
X184752779Y-97861573D01*
X184744134Y-97866194D01*
X184734755Y-97869039D01*
X184725000Y-97870000D01*
X182475000Y-97870000D01*
X182465245Y-97869039D01*
X182455866Y-97866194D01*
X182447221Y-97861573D01*
X182439645Y-97855355D01*
X182433427Y-97847779D01*
X182428806Y-97839134D01*
X182425961Y-97829755D01*
X182425000Y-97820000D01*
X182425000Y-96020000D01*
X182415245Y-96019039D01*
X182405866Y-96016194D01*
X182397221Y-96011573D01*
X182389645Y-96005355D01*
X182383427Y-95997779D01*
X182378806Y-95989134D01*
X182375961Y-95979755D01*
X182375000Y-95970000D01*
X182375000Y-95350000D01*
X182375961Y-95340245D01*
G37*
G36*
G01*
X183475000Y-94550000D02*
X183075000Y-94550000D01*
G75*
G02*
X183025000Y-94500000I0J50000D01*
G01*
X183025000Y-93670000D01*
G75*
G02*
X183075000Y-93620000I50000J0D01*
G01*
X183475000Y-93620000D01*
G75*
G02*
X183525000Y-93670000I0J-50000D01*
G01*
X183525000Y-94500000D01*
G75*
G02*
X183475000Y-94550000I-50000J0D01*
G01*
G37*
G36*
G01*
X182825000Y-94550000D02*
X182425000Y-94550000D01*
G75*
G02*
X182375000Y-94500000I0J50000D01*
G01*
X182375000Y-93670000D01*
G75*
G02*
X182425000Y-93620000I50000J0D01*
G01*
X182825000Y-93620000D01*
G75*
G02*
X182875000Y-93670000I0J-50000D01*
G01*
X182875000Y-94500000D01*
G75*
G02*
X182825000Y-94550000I-50000J0D01*
G01*
G37*
G36*
G01*
X184125000Y-94550000D02*
X183725000Y-94550000D01*
G75*
G02*
X183675000Y-94500000I0J50000D01*
G01*
X183675000Y-93670000D01*
G75*
G02*
X183725000Y-93620000I50000J0D01*
G01*
X184125000Y-93620000D01*
G75*
G02*
X184175000Y-93670000I0J-50000D01*
G01*
X184175000Y-94500000D01*
G75*
G02*
X184125000Y-94550000I-50000J0D01*
G01*
G37*
G36*
G01*
X184775000Y-94550000D02*
X184375000Y-94550000D01*
G75*
G02*
X184325000Y-94500000I0J50000D01*
G01*
X184325000Y-93670000D01*
G75*
G02*
X184375000Y-93620000I50000J0D01*
G01*
X184775000Y-93620000D01*
G75*
G02*
X184825000Y-93670000I0J-50000D01*
G01*
X184825000Y-94500000D01*
G75*
G02*
X184775000Y-94550000I-50000J0D01*
G01*
G37*
G36*
X182375961Y-90590245D02*
G01*
X182378806Y-90580866D01*
X182383427Y-90572221D01*
X182389645Y-90564645D01*
X182397221Y-90558427D01*
X182405866Y-90553806D01*
X182415245Y-90550961D01*
X182425000Y-90550000D01*
X182825000Y-90550000D01*
X182834755Y-90550961D01*
X182844134Y-90553806D01*
X182852779Y-90558427D01*
X182860355Y-90564645D01*
X182866573Y-90572221D01*
X182871194Y-90580866D01*
X182874039Y-90590245D01*
X182875000Y-90600000D01*
X182875000Y-91170000D01*
X183025000Y-91170000D01*
X183025000Y-90600000D01*
X183025961Y-90590245D01*
X183028806Y-90580866D01*
X183033427Y-90572221D01*
X183039645Y-90564645D01*
X183047221Y-90558427D01*
X183055866Y-90553806D01*
X183065245Y-90550961D01*
X183075000Y-90550000D01*
X183475000Y-90550000D01*
X183484755Y-90550961D01*
X183494134Y-90553806D01*
X183502779Y-90558427D01*
X183510355Y-90564645D01*
X183516573Y-90572221D01*
X183521194Y-90580866D01*
X183524039Y-90590245D01*
X183525000Y-90600000D01*
X183525000Y-91170000D01*
X183675000Y-91170000D01*
X183675000Y-90600000D01*
X183675961Y-90590245D01*
X183678806Y-90580866D01*
X183683427Y-90572221D01*
X183689645Y-90564645D01*
X183697221Y-90558427D01*
X183705866Y-90553806D01*
X183715245Y-90550961D01*
X183725000Y-90550000D01*
X184125000Y-90550000D01*
X184134755Y-90550961D01*
X184144134Y-90553806D01*
X184152779Y-90558427D01*
X184160355Y-90564645D01*
X184166573Y-90572221D01*
X184171194Y-90580866D01*
X184174039Y-90590245D01*
X184175000Y-90600000D01*
X184175000Y-91170000D01*
X184325000Y-91170000D01*
X184325000Y-90600000D01*
X184325961Y-90590245D01*
X184328806Y-90580866D01*
X184333427Y-90572221D01*
X184339645Y-90564645D01*
X184347221Y-90558427D01*
X184355866Y-90553806D01*
X184365245Y-90550961D01*
X184375000Y-90550000D01*
X184775000Y-90550000D01*
X184784755Y-90550961D01*
X184794134Y-90553806D01*
X184802779Y-90558427D01*
X184810355Y-90564645D01*
X184816573Y-90572221D01*
X184821194Y-90580866D01*
X184824039Y-90590245D01*
X184825000Y-90600000D01*
X184825000Y-91220000D01*
X184824039Y-91229755D01*
X184821194Y-91239134D01*
X184816573Y-91247779D01*
X184810355Y-91255355D01*
X184802779Y-91261573D01*
X184794134Y-91266194D01*
X184784755Y-91269039D01*
X184775000Y-91270000D01*
X184775000Y-93070000D01*
X184774039Y-93079755D01*
X184771194Y-93089134D01*
X184766573Y-93097779D01*
X184760355Y-93105355D01*
X184752779Y-93111573D01*
X184744134Y-93116194D01*
X184734755Y-93119039D01*
X184725000Y-93120000D01*
X182475000Y-93120000D01*
X182465245Y-93119039D01*
X182455866Y-93116194D01*
X182447221Y-93111573D01*
X182439645Y-93105355D01*
X182433427Y-93097779D01*
X182428806Y-93089134D01*
X182425961Y-93079755D01*
X182425000Y-93070000D01*
X182425000Y-91270000D01*
X182415245Y-91269039D01*
X182405866Y-91266194D01*
X182397221Y-91261573D01*
X182389645Y-91255355D01*
X182383427Y-91247779D01*
X182378806Y-91239134D01*
X182375961Y-91229755D01*
X182375000Y-91220000D01*
X182375000Y-90600000D01*
X182375961Y-90590245D01*
G37*
G36*
G01*
X137875000Y-99250000D02*
X137475000Y-99250000D01*
G75*
G02*
X137425000Y-99200000I0J50000D01*
G01*
X137425000Y-98370000D01*
G75*
G02*
X137475000Y-98320000I50000J0D01*
G01*
X137875000Y-98320000D01*
G75*
G02*
X137925000Y-98370000I0J-50000D01*
G01*
X137925000Y-99200000D01*
G75*
G02*
X137875000Y-99250000I-50000J0D01*
G01*
G37*
G36*
G01*
X137225000Y-99250000D02*
X136825000Y-99250000D01*
G75*
G02*
X136775000Y-99200000I0J50000D01*
G01*
X136775000Y-98370000D01*
G75*
G02*
X136825000Y-98320000I50000J0D01*
G01*
X137225000Y-98320000D01*
G75*
G02*
X137275000Y-98370000I0J-50000D01*
G01*
X137275000Y-99200000D01*
G75*
G02*
X137225000Y-99250000I-50000J0D01*
G01*
G37*
G36*
G01*
X138525000Y-99250000D02*
X138125000Y-99250000D01*
G75*
G02*
X138075000Y-99200000I0J50000D01*
G01*
X138075000Y-98370000D01*
G75*
G02*
X138125000Y-98320000I50000J0D01*
G01*
X138525000Y-98320000D01*
G75*
G02*
X138575000Y-98370000I0J-50000D01*
G01*
X138575000Y-99200000D01*
G75*
G02*
X138525000Y-99250000I-50000J0D01*
G01*
G37*
G36*
G01*
X139175000Y-99250000D02*
X138775000Y-99250000D01*
G75*
G02*
X138725000Y-99200000I0J50000D01*
G01*
X138725000Y-98370000D01*
G75*
G02*
X138775000Y-98320000I50000J0D01*
G01*
X139175000Y-98320000D01*
G75*
G02*
X139225000Y-98370000I0J-50000D01*
G01*
X139225000Y-99200000D01*
G75*
G02*
X139175000Y-99250000I-50000J0D01*
G01*
G37*
G36*
X136775961Y-95290245D02*
G01*
X136778806Y-95280866D01*
X136783427Y-95272221D01*
X136789645Y-95264645D01*
X136797221Y-95258427D01*
X136805866Y-95253806D01*
X136815245Y-95250961D01*
X136825000Y-95250000D01*
X137225000Y-95250000D01*
X137234755Y-95250961D01*
X137244134Y-95253806D01*
X137252779Y-95258427D01*
X137260355Y-95264645D01*
X137266573Y-95272221D01*
X137271194Y-95280866D01*
X137274039Y-95290245D01*
X137275000Y-95300000D01*
X137275000Y-95870000D01*
X137425000Y-95870000D01*
X137425000Y-95300000D01*
X137425961Y-95290245D01*
X137428806Y-95280866D01*
X137433427Y-95272221D01*
X137439645Y-95264645D01*
X137447221Y-95258427D01*
X137455866Y-95253806D01*
X137465245Y-95250961D01*
X137475000Y-95250000D01*
X137875000Y-95250000D01*
X137884755Y-95250961D01*
X137894134Y-95253806D01*
X137902779Y-95258427D01*
X137910355Y-95264645D01*
X137916573Y-95272221D01*
X137921194Y-95280866D01*
X137924039Y-95290245D01*
X137925000Y-95300000D01*
X137925000Y-95870000D01*
X138075000Y-95870000D01*
X138075000Y-95300000D01*
X138075961Y-95290245D01*
X138078806Y-95280866D01*
X138083427Y-95272221D01*
X138089645Y-95264645D01*
X138097221Y-95258427D01*
X138105866Y-95253806D01*
X138115245Y-95250961D01*
X138125000Y-95250000D01*
X138525000Y-95250000D01*
X138534755Y-95250961D01*
X138544134Y-95253806D01*
X138552779Y-95258427D01*
X138560355Y-95264645D01*
X138566573Y-95272221D01*
X138571194Y-95280866D01*
X138574039Y-95290245D01*
X138575000Y-95300000D01*
X138575000Y-95870000D01*
X138725000Y-95870000D01*
X138725000Y-95300000D01*
X138725961Y-95290245D01*
X138728806Y-95280866D01*
X138733427Y-95272221D01*
X138739645Y-95264645D01*
X138747221Y-95258427D01*
X138755866Y-95253806D01*
X138765245Y-95250961D01*
X138775000Y-95250000D01*
X139175000Y-95250000D01*
X139184755Y-95250961D01*
X139194134Y-95253806D01*
X139202779Y-95258427D01*
X139210355Y-95264645D01*
X139216573Y-95272221D01*
X139221194Y-95280866D01*
X139224039Y-95290245D01*
X139225000Y-95300000D01*
X139225000Y-95920000D01*
X139224039Y-95929755D01*
X139221194Y-95939134D01*
X139216573Y-95947779D01*
X139210355Y-95955355D01*
X139202779Y-95961573D01*
X139194134Y-95966194D01*
X139184755Y-95969039D01*
X139175000Y-95970000D01*
X139175000Y-97770000D01*
X139174039Y-97779755D01*
X139171194Y-97789134D01*
X139166573Y-97797779D01*
X139160355Y-97805355D01*
X139152779Y-97811573D01*
X139144134Y-97816194D01*
X139134755Y-97819039D01*
X139125000Y-97820000D01*
X136875000Y-97820000D01*
X136865245Y-97819039D01*
X136855866Y-97816194D01*
X136847221Y-97811573D01*
X136839645Y-97805355D01*
X136833427Y-97797779D01*
X136828806Y-97789134D01*
X136825961Y-97779755D01*
X136825000Y-97770000D01*
X136825000Y-95970000D01*
X136815245Y-95969039D01*
X136805866Y-95966194D01*
X136797221Y-95961573D01*
X136789645Y-95955355D01*
X136783427Y-95947779D01*
X136778806Y-95939134D01*
X136775961Y-95929755D01*
X136775000Y-95920000D01*
X136775000Y-95300000D01*
X136775961Y-95290245D01*
G37*
G36*
G01*
X137825000Y-94500000D02*
X137425000Y-94500000D01*
G75*
G02*
X137375000Y-94450000I0J50000D01*
G01*
X137375000Y-93620000D01*
G75*
G02*
X137425000Y-93570000I50000J0D01*
G01*
X137825000Y-93570000D01*
G75*
G02*
X137875000Y-93620000I0J-50000D01*
G01*
X137875000Y-94450000D01*
G75*
G02*
X137825000Y-94500000I-50000J0D01*
G01*
G37*
G36*
G01*
X137175000Y-94500000D02*
X136775000Y-94500000D01*
G75*
G02*
X136725000Y-94450000I0J50000D01*
G01*
X136725000Y-93620000D01*
G75*
G02*
X136775000Y-93570000I50000J0D01*
G01*
X137175000Y-93570000D01*
G75*
G02*
X137225000Y-93620000I0J-50000D01*
G01*
X137225000Y-94450000D01*
G75*
G02*
X137175000Y-94500000I-50000J0D01*
G01*
G37*
G36*
G01*
X138475000Y-94500000D02*
X138075000Y-94500000D01*
G75*
G02*
X138025000Y-94450000I0J50000D01*
G01*
X138025000Y-93620000D01*
G75*
G02*
X138075000Y-93570000I50000J0D01*
G01*
X138475000Y-93570000D01*
G75*
G02*
X138525000Y-93620000I0J-50000D01*
G01*
X138525000Y-94450000D01*
G75*
G02*
X138475000Y-94500000I-50000J0D01*
G01*
G37*
G36*
G01*
X139125000Y-94500000D02*
X138725000Y-94500000D01*
G75*
G02*
X138675000Y-94450000I0J50000D01*
G01*
X138675000Y-93620000D01*
G75*
G02*
X138725000Y-93570000I50000J0D01*
G01*
X139125000Y-93570000D01*
G75*
G02*
X139175000Y-93620000I0J-50000D01*
G01*
X139175000Y-94450000D01*
G75*
G02*
X139125000Y-94500000I-50000J0D01*
G01*
G37*
G36*
X136725961Y-90540245D02*
G01*
X136728806Y-90530866D01*
X136733427Y-90522221D01*
X136739645Y-90514645D01*
X136747221Y-90508427D01*
X136755866Y-90503806D01*
X136765245Y-90500961D01*
X136775000Y-90500000D01*
X137175000Y-90500000D01*
X137184755Y-90500961D01*
X137194134Y-90503806D01*
X137202779Y-90508427D01*
X137210355Y-90514645D01*
X137216573Y-90522221D01*
X137221194Y-90530866D01*
X137224039Y-90540245D01*
X137225000Y-90550000D01*
X137225000Y-91120000D01*
X137375000Y-91120000D01*
X137375000Y-90550000D01*
X137375961Y-90540245D01*
X137378806Y-90530866D01*
X137383427Y-90522221D01*
X137389645Y-90514645D01*
X137397221Y-90508427D01*
X137405866Y-90503806D01*
X137415245Y-90500961D01*
X137425000Y-90500000D01*
X137825000Y-90500000D01*
X137834755Y-90500961D01*
X137844134Y-90503806D01*
X137852779Y-90508427D01*
X137860355Y-90514645D01*
X137866573Y-90522221D01*
X137871194Y-90530866D01*
X137874039Y-90540245D01*
X137875000Y-90550000D01*
X137875000Y-91120000D01*
X138025000Y-91120000D01*
X138025000Y-90550000D01*
X138025961Y-90540245D01*
X138028806Y-90530866D01*
X138033427Y-90522221D01*
X138039645Y-90514645D01*
X138047221Y-90508427D01*
X138055866Y-90503806D01*
X138065245Y-90500961D01*
X138075000Y-90500000D01*
X138475000Y-90500000D01*
X138484755Y-90500961D01*
X138494134Y-90503806D01*
X138502779Y-90508427D01*
X138510355Y-90514645D01*
X138516573Y-90522221D01*
X138521194Y-90530866D01*
X138524039Y-90540245D01*
X138525000Y-90550000D01*
X138525000Y-91120000D01*
X138675000Y-91120000D01*
X138675000Y-90550000D01*
X138675961Y-90540245D01*
X138678806Y-90530866D01*
X138683427Y-90522221D01*
X138689645Y-90514645D01*
X138697221Y-90508427D01*
X138705866Y-90503806D01*
X138715245Y-90500961D01*
X138725000Y-90500000D01*
X139125000Y-90500000D01*
X139134755Y-90500961D01*
X139144134Y-90503806D01*
X139152779Y-90508427D01*
X139160355Y-90514645D01*
X139166573Y-90522221D01*
X139171194Y-90530866D01*
X139174039Y-90540245D01*
X139175000Y-90550000D01*
X139175000Y-91170000D01*
X139174039Y-91179755D01*
X139171194Y-91189134D01*
X139166573Y-91197779D01*
X139160355Y-91205355D01*
X139152779Y-91211573D01*
X139144134Y-91216194D01*
X139134755Y-91219039D01*
X139125000Y-91220000D01*
X139125000Y-93020000D01*
X139124039Y-93029755D01*
X139121194Y-93039134D01*
X139116573Y-93047779D01*
X139110355Y-93055355D01*
X139102779Y-93061573D01*
X139094134Y-93066194D01*
X139084755Y-93069039D01*
X139075000Y-93070000D01*
X136825000Y-93070000D01*
X136815245Y-93069039D01*
X136805866Y-93066194D01*
X136797221Y-93061573D01*
X136789645Y-93055355D01*
X136783427Y-93047779D01*
X136778806Y-93039134D01*
X136775961Y-93029755D01*
X136775000Y-93020000D01*
X136775000Y-91220000D01*
X136765245Y-91219039D01*
X136755866Y-91216194D01*
X136747221Y-91211573D01*
X136739645Y-91205355D01*
X136733427Y-91197779D01*
X136728806Y-91189134D01*
X136725961Y-91179755D01*
X136725000Y-91170000D01*
X136725000Y-90550000D01*
X136725961Y-90540245D01*
G37*
G36*
G01*
X179275000Y-99300000D02*
X178875000Y-99300000D01*
G75*
G02*
X178825000Y-99250000I0J50000D01*
G01*
X178825000Y-98420000D01*
G75*
G02*
X178875000Y-98370000I50000J0D01*
G01*
X179275000Y-98370000D01*
G75*
G02*
X179325000Y-98420000I0J-50000D01*
G01*
X179325000Y-99250000D01*
G75*
G02*
X179275000Y-99300000I-50000J0D01*
G01*
G37*
G36*
G01*
X178625000Y-99300000D02*
X178225000Y-99300000D01*
G75*
G02*
X178175000Y-99250000I0J50000D01*
G01*
X178175000Y-98420000D01*
G75*
G02*
X178225000Y-98370000I50000J0D01*
G01*
X178625000Y-98370000D01*
G75*
G02*
X178675000Y-98420000I0J-50000D01*
G01*
X178675000Y-99250000D01*
G75*
G02*
X178625000Y-99300000I-50000J0D01*
G01*
G37*
G36*
G01*
X179925000Y-99300000D02*
X179525000Y-99300000D01*
G75*
G02*
X179475000Y-99250000I0J50000D01*
G01*
X179475000Y-98420000D01*
G75*
G02*
X179525000Y-98370000I50000J0D01*
G01*
X179925000Y-98370000D01*
G75*
G02*
X179975000Y-98420000I0J-50000D01*
G01*
X179975000Y-99250000D01*
G75*
G02*
X179925000Y-99300000I-50000J0D01*
G01*
G37*
G36*
G01*
X180575000Y-99300000D02*
X180175000Y-99300000D01*
G75*
G02*
X180125000Y-99250000I0J50000D01*
G01*
X180125000Y-98420000D01*
G75*
G02*
X180175000Y-98370000I50000J0D01*
G01*
X180575000Y-98370000D01*
G75*
G02*
X180625000Y-98420000I0J-50000D01*
G01*
X180625000Y-99250000D01*
G75*
G02*
X180575000Y-99300000I-50000J0D01*
G01*
G37*
G36*
X178175961Y-95340245D02*
G01*
X178178806Y-95330866D01*
X178183427Y-95322221D01*
X178189645Y-95314645D01*
X178197221Y-95308427D01*
X178205866Y-95303806D01*
X178215245Y-95300961D01*
X178225000Y-95300000D01*
X178625000Y-95300000D01*
X178634755Y-95300961D01*
X178644134Y-95303806D01*
X178652779Y-95308427D01*
X178660355Y-95314645D01*
X178666573Y-95322221D01*
X178671194Y-95330866D01*
X178674039Y-95340245D01*
X178675000Y-95350000D01*
X178675000Y-95920000D01*
X178825000Y-95920000D01*
X178825000Y-95350000D01*
X178825961Y-95340245D01*
X178828806Y-95330866D01*
X178833427Y-95322221D01*
X178839645Y-95314645D01*
X178847221Y-95308427D01*
X178855866Y-95303806D01*
X178865245Y-95300961D01*
X178875000Y-95300000D01*
X179275000Y-95300000D01*
X179284755Y-95300961D01*
X179294134Y-95303806D01*
X179302779Y-95308427D01*
X179310355Y-95314645D01*
X179316573Y-95322221D01*
X179321194Y-95330866D01*
X179324039Y-95340245D01*
X179325000Y-95350000D01*
X179325000Y-95920000D01*
X179475000Y-95920000D01*
X179475000Y-95350000D01*
X179475961Y-95340245D01*
X179478806Y-95330866D01*
X179483427Y-95322221D01*
X179489645Y-95314645D01*
X179497221Y-95308427D01*
X179505866Y-95303806D01*
X179515245Y-95300961D01*
X179525000Y-95300000D01*
X179925000Y-95300000D01*
X179934755Y-95300961D01*
X179944134Y-95303806D01*
X179952779Y-95308427D01*
X179960355Y-95314645D01*
X179966573Y-95322221D01*
X179971194Y-95330866D01*
X179974039Y-95340245D01*
X179975000Y-95350000D01*
X179975000Y-95920000D01*
X180125000Y-95920000D01*
X180125000Y-95350000D01*
X180125961Y-95340245D01*
X180128806Y-95330866D01*
X180133427Y-95322221D01*
X180139645Y-95314645D01*
X180147221Y-95308427D01*
X180155866Y-95303806D01*
X180165245Y-95300961D01*
X180175000Y-95300000D01*
X180575000Y-95300000D01*
X180584755Y-95300961D01*
X180594134Y-95303806D01*
X180602779Y-95308427D01*
X180610355Y-95314645D01*
X180616573Y-95322221D01*
X180621194Y-95330866D01*
X180624039Y-95340245D01*
X180625000Y-95350000D01*
X180625000Y-95970000D01*
X180624039Y-95979755D01*
X180621194Y-95989134D01*
X180616573Y-95997779D01*
X180610355Y-96005355D01*
X180602779Y-96011573D01*
X180594134Y-96016194D01*
X180584755Y-96019039D01*
X180575000Y-96020000D01*
X180575000Y-97820000D01*
X180574039Y-97829755D01*
X180571194Y-97839134D01*
X180566573Y-97847779D01*
X180560355Y-97855355D01*
X180552779Y-97861573D01*
X180544134Y-97866194D01*
X180534755Y-97869039D01*
X180525000Y-97870000D01*
X178275000Y-97870000D01*
X178265245Y-97869039D01*
X178255866Y-97866194D01*
X178247221Y-97861573D01*
X178239645Y-97855355D01*
X178233427Y-97847779D01*
X178228806Y-97839134D01*
X178225961Y-97829755D01*
X178225000Y-97820000D01*
X178225000Y-96020000D01*
X178215245Y-96019039D01*
X178205866Y-96016194D01*
X178197221Y-96011573D01*
X178189645Y-96005355D01*
X178183427Y-95997779D01*
X178178806Y-95989134D01*
X178175961Y-95979755D01*
X178175000Y-95970000D01*
X178175000Y-95350000D01*
X178175961Y-95340245D01*
G37*
G36*
G01*
X179275000Y-94550000D02*
X178875000Y-94550000D01*
G75*
G02*
X178825000Y-94500000I0J50000D01*
G01*
X178825000Y-93670000D01*
G75*
G02*
X178875000Y-93620000I50000J0D01*
G01*
X179275000Y-93620000D01*
G75*
G02*
X179325000Y-93670000I0J-50000D01*
G01*
X179325000Y-94500000D01*
G75*
G02*
X179275000Y-94550000I-50000J0D01*
G01*
G37*
G36*
G01*
X178625000Y-94550000D02*
X178225000Y-94550000D01*
G75*
G02*
X178175000Y-94500000I0J50000D01*
G01*
X178175000Y-93670000D01*
G75*
G02*
X178225000Y-93620000I50000J0D01*
G01*
X178625000Y-93620000D01*
G75*
G02*
X178675000Y-93670000I0J-50000D01*
G01*
X178675000Y-94500000D01*
G75*
G02*
X178625000Y-94550000I-50000J0D01*
G01*
G37*
G36*
G01*
X179925000Y-94550000D02*
X179525000Y-94550000D01*
G75*
G02*
X179475000Y-94500000I0J50000D01*
G01*
X179475000Y-93670000D01*
G75*
G02*
X179525000Y-93620000I50000J0D01*
G01*
X179925000Y-93620000D01*
G75*
G02*
X179975000Y-93670000I0J-50000D01*
G01*
X179975000Y-94500000D01*
G75*
G02*
X179925000Y-94550000I-50000J0D01*
G01*
G37*
G36*
G01*
X180575000Y-94550000D02*
X180175000Y-94550000D01*
G75*
G02*
X180125000Y-94500000I0J50000D01*
G01*
X180125000Y-93670000D01*
G75*
G02*
X180175000Y-93620000I50000J0D01*
G01*
X180575000Y-93620000D01*
G75*
G02*
X180625000Y-93670000I0J-50000D01*
G01*
X180625000Y-94500000D01*
G75*
G02*
X180575000Y-94550000I-50000J0D01*
G01*
G37*
G36*
X178175961Y-90590245D02*
G01*
X178178806Y-90580866D01*
X178183427Y-90572221D01*
X178189645Y-90564645D01*
X178197221Y-90558427D01*
X178205866Y-90553806D01*
X178215245Y-90550961D01*
X178225000Y-90550000D01*
X178625000Y-90550000D01*
X178634755Y-90550961D01*
X178644134Y-90553806D01*
X178652779Y-90558427D01*
X178660355Y-90564645D01*
X178666573Y-90572221D01*
X178671194Y-90580866D01*
X178674039Y-90590245D01*
X178675000Y-90600000D01*
X178675000Y-91170000D01*
X178825000Y-91170000D01*
X178825000Y-90600000D01*
X178825961Y-90590245D01*
X178828806Y-90580866D01*
X178833427Y-90572221D01*
X178839645Y-90564645D01*
X178847221Y-90558427D01*
X178855866Y-90553806D01*
X178865245Y-90550961D01*
X178875000Y-90550000D01*
X179275000Y-90550000D01*
X179284755Y-90550961D01*
X179294134Y-90553806D01*
X179302779Y-90558427D01*
X179310355Y-90564645D01*
X179316573Y-90572221D01*
X179321194Y-90580866D01*
X179324039Y-90590245D01*
X179325000Y-90600000D01*
X179325000Y-91170000D01*
X179475000Y-91170000D01*
X179475000Y-90600000D01*
X179475961Y-90590245D01*
X179478806Y-90580866D01*
X179483427Y-90572221D01*
X179489645Y-90564645D01*
X179497221Y-90558427D01*
X179505866Y-90553806D01*
X179515245Y-90550961D01*
X179525000Y-90550000D01*
X179925000Y-90550000D01*
X179934755Y-90550961D01*
X179944134Y-90553806D01*
X179952779Y-90558427D01*
X179960355Y-90564645D01*
X179966573Y-90572221D01*
X179971194Y-90580866D01*
X179974039Y-90590245D01*
X179975000Y-90600000D01*
X179975000Y-91170000D01*
X180125000Y-91170000D01*
X180125000Y-90600000D01*
X180125961Y-90590245D01*
X180128806Y-90580866D01*
X180133427Y-90572221D01*
X180139645Y-90564645D01*
X180147221Y-90558427D01*
X180155866Y-90553806D01*
X180165245Y-90550961D01*
X180175000Y-90550000D01*
X180575000Y-90550000D01*
X180584755Y-90550961D01*
X180594134Y-90553806D01*
X180602779Y-90558427D01*
X180610355Y-90564645D01*
X180616573Y-90572221D01*
X180621194Y-90580866D01*
X180624039Y-90590245D01*
X180625000Y-90600000D01*
X180625000Y-91220000D01*
X180624039Y-91229755D01*
X180621194Y-91239134D01*
X180616573Y-91247779D01*
X180610355Y-91255355D01*
X180602779Y-91261573D01*
X180594134Y-91266194D01*
X180584755Y-91269039D01*
X180575000Y-91270000D01*
X180575000Y-93070000D01*
X180574039Y-93079755D01*
X180571194Y-93089134D01*
X180566573Y-93097779D01*
X180560355Y-93105355D01*
X180552779Y-93111573D01*
X180544134Y-93116194D01*
X180534755Y-93119039D01*
X180525000Y-93120000D01*
X178275000Y-93120000D01*
X178265245Y-93119039D01*
X178255866Y-93116194D01*
X178247221Y-93111573D01*
X178239645Y-93105355D01*
X178233427Y-93097779D01*
X178228806Y-93089134D01*
X178225961Y-93079755D01*
X178225000Y-93070000D01*
X178225000Y-91270000D01*
X178215245Y-91269039D01*
X178205866Y-91266194D01*
X178197221Y-91261573D01*
X178189645Y-91255355D01*
X178183427Y-91247779D01*
X178178806Y-91239134D01*
X178175961Y-91229755D01*
X178175000Y-91220000D01*
X178175000Y-90600000D01*
X178175961Y-90590245D01*
G37*
D31*
X189750000Y-124000000D03*
X189750000Y-125250000D03*
D32*
X187000000Y-121450000D03*
X187000000Y-127800000D03*
D33*
X67000000Y-120135000D03*
D34*
X74030600Y-119500000D03*
G36*
G01*
X67600000Y-79717000D02*
X66400000Y-79717000D01*
G75*
G02*
X66150000Y-79467000I0J250000D01*
G01*
X66150000Y-78267000D01*
G75*
G02*
X66400000Y-78017000I250000J0D01*
G01*
X67600000Y-78017000D01*
G75*
G02*
X67850000Y-78267000I0J-250000D01*
G01*
X67850000Y-79467000D01*
G75*
G02*
X67600000Y-79717000I-250000J0D01*
G01*
G37*
D24*
X69540000Y-78867000D03*
X72080000Y-78867000D03*
X74620000Y-78867000D03*
X77160000Y-78867000D03*
X79700000Y-78867000D03*
X82240000Y-78867000D03*
X67000000Y-76327000D03*
X69540000Y-76327000D03*
X72080000Y-76327000D03*
X74620000Y-76327000D03*
X77160000Y-76327000D03*
X79700000Y-76327000D03*
X82240000Y-76327000D03*
D33*
X153750000Y-74865000D03*
D34*
X146719400Y-75500000D03*
D33*
X164000000Y-76135000D03*
D34*
X171030600Y-75500000D03*
D35*
X122300000Y-117000000D03*
X116850000Y-117000000D03*
D36*
X123250000Y-75000000D03*
X130250000Y-75000000D03*
X194000000Y-75000000D03*
X187000000Y-75000000D03*
D37*
X116750000Y-102450000D03*
X116750000Y-85050000D03*
X200500000Y-102400000D03*
X200500000Y-85000000D03*
D38*
X67000000Y-97635000D03*
D39*
X73030600Y-97000000D03*
D40*
X217000000Y-145000000D03*
D41*
X219400000Y-145000000D03*
X218697056Y-146697056D03*
X217000000Y-147400000D03*
X215302944Y-146697056D03*
X214600000Y-145000000D03*
X215302944Y-143302944D03*
X217000000Y-142600000D03*
X218697056Y-143302944D03*
D40*
X55000000Y-145000000D03*
D41*
X57400000Y-145000000D03*
X56697056Y-146697056D03*
X55000000Y-147400000D03*
X53302944Y-146697056D03*
X52600000Y-145000000D03*
X53302944Y-143302944D03*
X55000000Y-142600000D03*
X56697056Y-143302944D03*
D40*
X217000000Y-70000000D03*
D41*
X219400000Y-70000000D03*
X218697056Y-71697056D03*
X217000000Y-72400000D03*
X215302944Y-71697056D03*
X214600000Y-70000000D03*
X215302944Y-68302944D03*
X217000000Y-67600000D03*
X218697056Y-68302944D03*
D40*
X55000000Y-70000000D03*
D41*
X57400000Y-70000000D03*
X56697056Y-71697056D03*
X55000000Y-72400000D03*
X53302944Y-71697056D03*
X52600000Y-70000000D03*
X53302944Y-68302944D03*
X55000000Y-67600000D03*
X56697056Y-68302944D03*
G36*
G01*
X84750000Y-82200000D02*
X85250000Y-82200000D01*
G75*
G02*
X85400000Y-82350000I0J-150000D01*
G01*
X85400000Y-82650000D01*
G75*
G02*
X85250000Y-82800000I-150000J0D01*
G01*
X84750000Y-82800000D01*
G75*
G02*
X84600000Y-82650000I0J150000D01*
G01*
X84600000Y-82350000D01*
G75*
G02*
X84750000Y-82200000I150000J0D01*
G01*
G37*
G36*
G01*
X84750000Y-84200000D02*
X85250000Y-84200000D01*
G75*
G02*
X85400000Y-84350000I0J-150000D01*
G01*
X85400000Y-84650000D01*
G75*
G02*
X85250000Y-84800000I-150000J0D01*
G01*
X84750000Y-84800000D01*
G75*
G02*
X84600000Y-84650000I0J150000D01*
G01*
X84600000Y-84350000D01*
G75*
G02*
X84750000Y-84200000I150000J0D01*
G01*
G37*
G36*
G01*
X84200000Y-83200000D02*
X84500000Y-83200000D01*
G75*
G02*
X84650000Y-83350000I0J-150000D01*
G01*
X84650000Y-83650000D01*
G75*
G02*
X84500000Y-83800000I-150000J0D01*
G01*
X84200000Y-83800000D01*
G75*
G02*
X84050000Y-83650000I0J150000D01*
G01*
X84050000Y-83350000D01*
G75*
G02*
X84200000Y-83200000I150000J0D01*
G01*
G37*
G36*
G01*
X85500000Y-83200000D02*
X85800000Y-83200000D01*
G75*
G02*
X85950000Y-83350000I0J-150000D01*
G01*
X85950000Y-83650000D01*
G75*
G02*
X85800000Y-83800000I-150000J0D01*
G01*
X85500000Y-83800000D01*
G75*
G02*
X85350000Y-83650000I0J150000D01*
G01*
X85350000Y-83350000D01*
G75*
G02*
X85500000Y-83200000I150000J0D01*
G01*
G37*
G36*
G01*
X77250000Y-82200000D02*
X77750000Y-82200000D01*
G75*
G02*
X77900000Y-82350000I0J-150000D01*
G01*
X77900000Y-82650000D01*
G75*
G02*
X77750000Y-82800000I-150000J0D01*
G01*
X77250000Y-82800000D01*
G75*
G02*
X77100000Y-82650000I0J150000D01*
G01*
X77100000Y-82350000D01*
G75*
G02*
X77250000Y-82200000I150000J0D01*
G01*
G37*
G36*
G01*
X77250000Y-84200000D02*
X77750000Y-84200000D01*
G75*
G02*
X77900000Y-84350000I0J-150000D01*
G01*
X77900000Y-84650000D01*
G75*
G02*
X77750000Y-84800000I-150000J0D01*
G01*
X77250000Y-84800000D01*
G75*
G02*
X77100000Y-84650000I0J150000D01*
G01*
X77100000Y-84350000D01*
G75*
G02*
X77250000Y-84200000I150000J0D01*
G01*
G37*
G36*
G01*
X76700000Y-83200000D02*
X77000000Y-83200000D01*
G75*
G02*
X77150000Y-83350000I0J-150000D01*
G01*
X77150000Y-83650000D01*
G75*
G02*
X77000000Y-83800000I-150000J0D01*
G01*
X76700000Y-83800000D01*
G75*
G02*
X76550000Y-83650000I0J150000D01*
G01*
X76550000Y-83350000D01*
G75*
G02*
X76700000Y-83200000I150000J0D01*
G01*
G37*
G36*
G01*
X78000000Y-83200000D02*
X78300000Y-83200000D01*
G75*
G02*
X78450000Y-83350000I0J-150000D01*
G01*
X78450000Y-83650000D01*
G75*
G02*
X78300000Y-83800000I-150000J0D01*
G01*
X78000000Y-83800000D01*
G75*
G02*
X77850000Y-83650000I0J150000D01*
G01*
X77850000Y-83350000D01*
G75*
G02*
X78000000Y-83200000I150000J0D01*
G01*
G37*
G36*
G01*
X67250000Y-82200000D02*
X67750000Y-82200000D01*
G75*
G02*
X67900000Y-82350000I0J-150000D01*
G01*
X67900000Y-82650000D01*
G75*
G02*
X67750000Y-82800000I-150000J0D01*
G01*
X67250000Y-82800000D01*
G75*
G02*
X67100000Y-82650000I0J150000D01*
G01*
X67100000Y-82350000D01*
G75*
G02*
X67250000Y-82200000I150000J0D01*
G01*
G37*
G36*
G01*
X67250000Y-84200000D02*
X67750000Y-84200000D01*
G75*
G02*
X67900000Y-84350000I0J-150000D01*
G01*
X67900000Y-84650000D01*
G75*
G02*
X67750000Y-84800000I-150000J0D01*
G01*
X67250000Y-84800000D01*
G75*
G02*
X67100000Y-84650000I0J150000D01*
G01*
X67100000Y-84350000D01*
G75*
G02*
X67250000Y-84200000I150000J0D01*
G01*
G37*
G36*
G01*
X66700000Y-83200000D02*
X67000000Y-83200000D01*
G75*
G02*
X67150000Y-83350000I0J-150000D01*
G01*
X67150000Y-83650000D01*
G75*
G02*
X67000000Y-83800000I-150000J0D01*
G01*
X66700000Y-83800000D01*
G75*
G02*
X66550000Y-83650000I0J150000D01*
G01*
X66550000Y-83350000D01*
G75*
G02*
X66700000Y-83200000I150000J0D01*
G01*
G37*
G36*
G01*
X68000000Y-83200000D02*
X68300000Y-83200000D01*
G75*
G02*
X68450000Y-83350000I0J-150000D01*
G01*
X68450000Y-83650000D01*
G75*
G02*
X68300000Y-83800000I-150000J0D01*
G01*
X68000000Y-83800000D01*
G75*
G02*
X67850000Y-83650000I0J150000D01*
G01*
X67850000Y-83350000D01*
G75*
G02*
X68000000Y-83200000I150000J0D01*
G01*
G37*
G36*
G01*
X69750000Y-82200000D02*
X70250000Y-82200000D01*
G75*
G02*
X70400000Y-82350000I0J-150000D01*
G01*
X70400000Y-82650000D01*
G75*
G02*
X70250000Y-82800000I-150000J0D01*
G01*
X69750000Y-82800000D01*
G75*
G02*
X69600000Y-82650000I0J150000D01*
G01*
X69600000Y-82350000D01*
G75*
G02*
X69750000Y-82200000I150000J0D01*
G01*
G37*
G36*
G01*
X69750000Y-84200000D02*
X70250000Y-84200000D01*
G75*
G02*
X70400000Y-84350000I0J-150000D01*
G01*
X70400000Y-84650000D01*
G75*
G02*
X70250000Y-84800000I-150000J0D01*
G01*
X69750000Y-84800000D01*
G75*
G02*
X69600000Y-84650000I0J150000D01*
G01*
X69600000Y-84350000D01*
G75*
G02*
X69750000Y-84200000I150000J0D01*
G01*
G37*
G36*
G01*
X69200000Y-83200000D02*
X69500000Y-83200000D01*
G75*
G02*
X69650000Y-83350000I0J-150000D01*
G01*
X69650000Y-83650000D01*
G75*
G02*
X69500000Y-83800000I-150000J0D01*
G01*
X69200000Y-83800000D01*
G75*
G02*
X69050000Y-83650000I0J150000D01*
G01*
X69050000Y-83350000D01*
G75*
G02*
X69200000Y-83200000I150000J0D01*
G01*
G37*
G36*
G01*
X70500000Y-83200000D02*
X70800000Y-83200000D01*
G75*
G02*
X70950000Y-83350000I0J-150000D01*
G01*
X70950000Y-83650000D01*
G75*
G02*
X70800000Y-83800000I-150000J0D01*
G01*
X70500000Y-83800000D01*
G75*
G02*
X70350000Y-83650000I0J150000D01*
G01*
X70350000Y-83350000D01*
G75*
G02*
X70500000Y-83200000I150000J0D01*
G01*
G37*
G36*
G01*
X74750000Y-82200000D02*
X75250000Y-82200000D01*
G75*
G02*
X75400000Y-82350000I0J-150000D01*
G01*
X75400000Y-82650000D01*
G75*
G02*
X75250000Y-82800000I-150000J0D01*
G01*
X74750000Y-82800000D01*
G75*
G02*
X74600000Y-82650000I0J150000D01*
G01*
X74600000Y-82350000D01*
G75*
G02*
X74750000Y-82200000I150000J0D01*
G01*
G37*
G36*
G01*
X74750000Y-84200000D02*
X75250000Y-84200000D01*
G75*
G02*
X75400000Y-84350000I0J-150000D01*
G01*
X75400000Y-84650000D01*
G75*
G02*
X75250000Y-84800000I-150000J0D01*
G01*
X74750000Y-84800000D01*
G75*
G02*
X74600000Y-84650000I0J150000D01*
G01*
X74600000Y-84350000D01*
G75*
G02*
X74750000Y-84200000I150000J0D01*
G01*
G37*
G36*
G01*
X74200000Y-83200000D02*
X74500000Y-83200000D01*
G75*
G02*
X74650000Y-83350000I0J-150000D01*
G01*
X74650000Y-83650000D01*
G75*
G02*
X74500000Y-83800000I-150000J0D01*
G01*
X74200000Y-83800000D01*
G75*
G02*
X74050000Y-83650000I0J150000D01*
G01*
X74050000Y-83350000D01*
G75*
G02*
X74200000Y-83200000I150000J0D01*
G01*
G37*
G36*
G01*
X75500000Y-83200000D02*
X75800000Y-83200000D01*
G75*
G02*
X75950000Y-83350000I0J-150000D01*
G01*
X75950000Y-83650000D01*
G75*
G02*
X75800000Y-83800000I-150000J0D01*
G01*
X75500000Y-83800000D01*
G75*
G02*
X75350000Y-83650000I0J150000D01*
G01*
X75350000Y-83350000D01*
G75*
G02*
X75500000Y-83200000I150000J0D01*
G01*
G37*
G36*
G01*
X79750000Y-82200000D02*
X80250000Y-82200000D01*
G75*
G02*
X80400000Y-82350000I0J-150000D01*
G01*
X80400000Y-82650000D01*
G75*
G02*
X80250000Y-82800000I-150000J0D01*
G01*
X79750000Y-82800000D01*
G75*
G02*
X79600000Y-82650000I0J150000D01*
G01*
X79600000Y-82350000D01*
G75*
G02*
X79750000Y-82200000I150000J0D01*
G01*
G37*
G36*
G01*
X79750000Y-84200000D02*
X80250000Y-84200000D01*
G75*
G02*
X80400000Y-84350000I0J-150000D01*
G01*
X80400000Y-84650000D01*
G75*
G02*
X80250000Y-84800000I-150000J0D01*
G01*
X79750000Y-84800000D01*
G75*
G02*
X79600000Y-84650000I0J150000D01*
G01*
X79600000Y-84350000D01*
G75*
G02*
X79750000Y-84200000I150000J0D01*
G01*
G37*
G36*
G01*
X79200000Y-83200000D02*
X79500000Y-83200000D01*
G75*
G02*
X79650000Y-83350000I0J-150000D01*
G01*
X79650000Y-83650000D01*
G75*
G02*
X79500000Y-83800000I-150000J0D01*
G01*
X79200000Y-83800000D01*
G75*
G02*
X79050000Y-83650000I0J150000D01*
G01*
X79050000Y-83350000D01*
G75*
G02*
X79200000Y-83200000I150000J0D01*
G01*
G37*
G36*
G01*
X80500000Y-83200000D02*
X80800000Y-83200000D01*
G75*
G02*
X80950000Y-83350000I0J-150000D01*
G01*
X80950000Y-83650000D01*
G75*
G02*
X80800000Y-83800000I-150000J0D01*
G01*
X80500000Y-83800000D01*
G75*
G02*
X80350000Y-83650000I0J150000D01*
G01*
X80350000Y-83350000D01*
G75*
G02*
X80500000Y-83200000I150000J0D01*
G01*
G37*
G36*
G01*
X82250000Y-82200000D02*
X82750000Y-82200000D01*
G75*
G02*
X82900000Y-82350000I0J-150000D01*
G01*
X82900000Y-82650000D01*
G75*
G02*
X82750000Y-82800000I-150000J0D01*
G01*
X82250000Y-82800000D01*
G75*
G02*
X82100000Y-82650000I0J150000D01*
G01*
X82100000Y-82350000D01*
G75*
G02*
X82250000Y-82200000I150000J0D01*
G01*
G37*
G36*
G01*
X82250000Y-84200000D02*
X82750000Y-84200000D01*
G75*
G02*
X82900000Y-84350000I0J-150000D01*
G01*
X82900000Y-84650000D01*
G75*
G02*
X82750000Y-84800000I-150000J0D01*
G01*
X82250000Y-84800000D01*
G75*
G02*
X82100000Y-84650000I0J150000D01*
G01*
X82100000Y-84350000D01*
G75*
G02*
X82250000Y-84200000I150000J0D01*
G01*
G37*
G36*
G01*
X81700000Y-83200000D02*
X82000000Y-83200000D01*
G75*
G02*
X82150000Y-83350000I0J-150000D01*
G01*
X82150000Y-83650000D01*
G75*
G02*
X82000000Y-83800000I-150000J0D01*
G01*
X81700000Y-83800000D01*
G75*
G02*
X81550000Y-83650000I0J150000D01*
G01*
X81550000Y-83350000D01*
G75*
G02*
X81700000Y-83200000I150000J0D01*
G01*
G37*
G36*
G01*
X83000000Y-83200000D02*
X83300000Y-83200000D01*
G75*
G02*
X83450000Y-83350000I0J-150000D01*
G01*
X83450000Y-83650000D01*
G75*
G02*
X83300000Y-83800000I-150000J0D01*
G01*
X83000000Y-83800000D01*
G75*
G02*
X82850000Y-83650000I0J150000D01*
G01*
X82850000Y-83350000D01*
G75*
G02*
X83000000Y-83200000I150000J0D01*
G01*
G37*
D31*
X215750000Y-124000000D03*
X215750000Y-125250000D03*
D32*
X213000000Y-121450000D03*
X213000000Y-127800000D03*
G36*
G01*
X75575000Y-133706250D02*
X75575000Y-132793750D01*
G75*
G02*
X75818750Y-132550000I243750J0D01*
G01*
X76306250Y-132550000D01*
G75*
G02*
X76550000Y-132793750I0J-243750D01*
G01*
X76550000Y-133706250D01*
G75*
G02*
X76306250Y-133950000I-243750J0D01*
G01*
X75818750Y-133950000D01*
G75*
G02*
X75575000Y-133706250I0J243750D01*
G01*
G37*
G36*
G01*
X77450000Y-133706250D02*
X77450000Y-132793750D01*
G75*
G02*
X77693750Y-132550000I243750J0D01*
G01*
X78181250Y-132550000D01*
G75*
G02*
X78425000Y-132793750I0J-243750D01*
G01*
X78425000Y-133706250D01*
G75*
G02*
X78181250Y-133950000I-243750J0D01*
G01*
X77693750Y-133950000D01*
G75*
G02*
X77450000Y-133706250I0J243750D01*
G01*
G37*
D19*
X123000000Y-122500000D03*
X123000000Y-126500000D03*
D18*
X134250000Y-69600000D03*
X134250000Y-72400000D03*
X183250000Y-69600000D03*
X183250000Y-72400000D03*
X143750000Y-98900000D03*
X143750000Y-96100000D03*
X143750000Y-93900000D03*
X143750000Y-91100000D03*
X148250000Y-98900000D03*
X148250000Y-96100000D03*
X148250000Y-93900000D03*
X148250000Y-91100000D03*
X156500000Y-96400000D03*
X156500000Y-93600000D03*
X160500000Y-96400000D03*
X160500000Y-93600000D03*
G36*
G01*
X178800000Y-120975000D02*
X178800000Y-120025000D01*
G75*
G02*
X179050000Y-119775000I250000J0D01*
G01*
X179550000Y-119775000D01*
G75*
G02*
X179800000Y-120025000I0J-250000D01*
G01*
X179800000Y-120975000D01*
G75*
G02*
X179550000Y-121225000I-250000J0D01*
G01*
X179050000Y-121225000D01*
G75*
G02*
X178800000Y-120975000I0J250000D01*
G01*
G37*
G36*
G01*
X180700000Y-120975000D02*
X180700000Y-120025000D01*
G75*
G02*
X180950000Y-119775000I250000J0D01*
G01*
X181450000Y-119775000D01*
G75*
G02*
X181700000Y-120025000I0J-250000D01*
G01*
X181700000Y-120975000D01*
G75*
G02*
X181450000Y-121225000I-250000J0D01*
G01*
X180950000Y-121225000D01*
G75*
G02*
X180700000Y-120975000I0J250000D01*
G01*
G37*
G36*
G01*
X119550000Y-128849999D02*
X119550000Y-130150001D01*
G75*
G02*
X119300001Y-130400000I-249999J0D01*
G01*
X118649999Y-130400000D01*
G75*
G02*
X118400000Y-130150001I0J249999D01*
G01*
X118400000Y-128849999D01*
G75*
G02*
X118649999Y-128600000I249999J0D01*
G01*
X119300001Y-128600000D01*
G75*
G02*
X119550000Y-128849999I0J-249999D01*
G01*
G37*
G36*
G01*
X116600000Y-128849999D02*
X116600000Y-130150001D01*
G75*
G02*
X116350001Y-130400000I-249999J0D01*
G01*
X115699999Y-130400000D01*
G75*
G02*
X115450000Y-130150001I0J249999D01*
G01*
X115450000Y-128849999D01*
G75*
G02*
X115699999Y-128600000I249999J0D01*
G01*
X116350001Y-128600000D01*
G75*
G02*
X116600000Y-128849999I0J-249999D01*
G01*
G37*
G36*
G01*
X108200000Y-115650001D02*
X108200000Y-114349999D01*
G75*
G02*
X108449999Y-114100000I249999J0D01*
G01*
X109100001Y-114100000D01*
G75*
G02*
X109350000Y-114349999I0J-249999D01*
G01*
X109350000Y-115650001D01*
G75*
G02*
X109100001Y-115900000I-249999J0D01*
G01*
X108449999Y-115900000D01*
G75*
G02*
X108200000Y-115650001I0J249999D01*
G01*
G37*
G36*
G01*
X111150000Y-115650001D02*
X111150000Y-114349999D01*
G75*
G02*
X111399999Y-114100000I249999J0D01*
G01*
X112050001Y-114100000D01*
G75*
G02*
X112300000Y-114349999I0J-249999D01*
G01*
X112300000Y-115650001D01*
G75*
G02*
X112050001Y-115900000I-249999J0D01*
G01*
X111399999Y-115900000D01*
G75*
G02*
X111150000Y-115650001I0J249999D01*
G01*
G37*
G36*
G01*
X109050000Y-129975000D02*
X109050000Y-129025000D01*
G75*
G02*
X109300000Y-128775000I250000J0D01*
G01*
X109800000Y-128775000D01*
G75*
G02*
X110050000Y-129025000I0J-250000D01*
G01*
X110050000Y-129975000D01*
G75*
G02*
X109800000Y-130225000I-250000J0D01*
G01*
X109300000Y-130225000D01*
G75*
G02*
X109050000Y-129975000I0J250000D01*
G01*
G37*
G36*
G01*
X110950000Y-129975000D02*
X110950000Y-129025000D01*
G75*
G02*
X111200000Y-128775000I250000J0D01*
G01*
X111700000Y-128775000D01*
G75*
G02*
X111950000Y-129025000I0J-250000D01*
G01*
X111950000Y-129975000D01*
G75*
G02*
X111700000Y-130225000I-250000J0D01*
G01*
X111200000Y-130225000D01*
G75*
G02*
X110950000Y-129975000I0J250000D01*
G01*
G37*
G36*
G01*
X105525000Y-125050000D02*
X106475000Y-125050000D01*
G75*
G02*
X106725000Y-125300000I0J-250000D01*
G01*
X106725000Y-125800000D01*
G75*
G02*
X106475000Y-126050000I-250000J0D01*
G01*
X105525000Y-126050000D01*
G75*
G02*
X105275000Y-125800000I0J250000D01*
G01*
X105275000Y-125300000D01*
G75*
G02*
X105525000Y-125050000I250000J0D01*
G01*
G37*
G36*
G01*
X105525000Y-126950000D02*
X106475000Y-126950000D01*
G75*
G02*
X106725000Y-127200000I0J-250000D01*
G01*
X106725000Y-127700000D01*
G75*
G02*
X106475000Y-127950000I-250000J0D01*
G01*
X105525000Y-127950000D01*
G75*
G02*
X105275000Y-127700000I0J250000D01*
G01*
X105275000Y-127200000D01*
G75*
G02*
X105525000Y-126950000I250000J0D01*
G01*
G37*
G36*
G01*
X142975000Y-72700000D02*
X142025000Y-72700000D01*
G75*
G02*
X141775000Y-72450000I0J250000D01*
G01*
X141775000Y-71950000D01*
G75*
G02*
X142025000Y-71700000I250000J0D01*
G01*
X142975000Y-71700000D01*
G75*
G02*
X143225000Y-71950000I0J-250000D01*
G01*
X143225000Y-72450000D01*
G75*
G02*
X142975000Y-72700000I-250000J0D01*
G01*
G37*
G36*
G01*
X142975000Y-70800000D02*
X142025000Y-70800000D01*
G75*
G02*
X141775000Y-70550000I0J250000D01*
G01*
X141775000Y-70050000D01*
G75*
G02*
X142025000Y-69800000I250000J0D01*
G01*
X142975000Y-69800000D01*
G75*
G02*
X143225000Y-70050000I0J-250000D01*
G01*
X143225000Y-70550000D01*
G75*
G02*
X142975000Y-70800000I-250000J0D01*
G01*
G37*
G36*
G01*
X175575000Y-72650000D02*
X174625000Y-72650000D01*
G75*
G02*
X174375000Y-72400000I0J250000D01*
G01*
X174375000Y-71900000D01*
G75*
G02*
X174625000Y-71650000I250000J0D01*
G01*
X175575000Y-71650000D01*
G75*
G02*
X175825000Y-71900000I0J-250000D01*
G01*
X175825000Y-72400000D01*
G75*
G02*
X175575000Y-72650000I-250000J0D01*
G01*
G37*
G36*
G01*
X175575000Y-70750000D02*
X174625000Y-70750000D01*
G75*
G02*
X174375000Y-70500000I0J250000D01*
G01*
X174375000Y-70000000D01*
G75*
G02*
X174625000Y-69750000I250000J0D01*
G01*
X175575000Y-69750000D01*
G75*
G02*
X175825000Y-70000000I0J-250000D01*
G01*
X175825000Y-70500000D01*
G75*
G02*
X175575000Y-70750000I-250000J0D01*
G01*
G37*
G36*
G01*
X140475000Y-72700000D02*
X139525000Y-72700000D01*
G75*
G02*
X139275000Y-72450000I0J250000D01*
G01*
X139275000Y-71950000D01*
G75*
G02*
X139525000Y-71700000I250000J0D01*
G01*
X140475000Y-71700000D01*
G75*
G02*
X140725000Y-71950000I0J-250000D01*
G01*
X140725000Y-72450000D01*
G75*
G02*
X140475000Y-72700000I-250000J0D01*
G01*
G37*
G36*
G01*
X140475000Y-70800000D02*
X139525000Y-70800000D01*
G75*
G02*
X139275000Y-70550000I0J250000D01*
G01*
X139275000Y-70050000D01*
G75*
G02*
X139525000Y-69800000I250000J0D01*
G01*
X140475000Y-69800000D01*
G75*
G02*
X140725000Y-70050000I0J-250000D01*
G01*
X140725000Y-70550000D01*
G75*
G02*
X140475000Y-70800000I-250000J0D01*
G01*
G37*
G36*
G01*
X178075000Y-72650000D02*
X177125000Y-72650000D01*
G75*
G02*
X176875000Y-72400000I0J250000D01*
G01*
X176875000Y-71900000D01*
G75*
G02*
X177125000Y-71650000I250000J0D01*
G01*
X178075000Y-71650000D01*
G75*
G02*
X178325000Y-71900000I0J-250000D01*
G01*
X178325000Y-72400000D01*
G75*
G02*
X178075000Y-72650000I-250000J0D01*
G01*
G37*
G36*
G01*
X178075000Y-70750000D02*
X177125000Y-70750000D01*
G75*
G02*
X176875000Y-70500000I0J250000D01*
G01*
X176875000Y-70000000D01*
G75*
G02*
X177125000Y-69750000I250000J0D01*
G01*
X178075000Y-69750000D01*
G75*
G02*
X178325000Y-70000000I0J-250000D01*
G01*
X178325000Y-70500000D01*
G75*
G02*
X178075000Y-70750000I-250000J0D01*
G01*
G37*
G36*
G01*
X137900001Y-73050000D02*
X136599999Y-73050000D01*
G75*
G02*
X136350000Y-72800001I0J249999D01*
G01*
X136350000Y-72149999D01*
G75*
G02*
X136599999Y-71900000I249999J0D01*
G01*
X137900001Y-71900000D01*
G75*
G02*
X138150000Y-72149999I0J-249999D01*
G01*
X138150000Y-72800001D01*
G75*
G02*
X137900001Y-73050000I-249999J0D01*
G01*
G37*
G36*
G01*
X137900001Y-70100000D02*
X136599999Y-70100000D01*
G75*
G02*
X136350000Y-69850001I0J249999D01*
G01*
X136350000Y-69199999D01*
G75*
G02*
X136599999Y-68950000I249999J0D01*
G01*
X137900001Y-68950000D01*
G75*
G02*
X138150000Y-69199999I0J-249999D01*
G01*
X138150000Y-69850001D01*
G75*
G02*
X137900001Y-70100000I-249999J0D01*
G01*
G37*
G36*
G01*
X137475000Y-88450000D02*
X136525000Y-88450000D01*
G75*
G02*
X136275000Y-88200000I0J250000D01*
G01*
X136275000Y-87700000D01*
G75*
G02*
X136525000Y-87450000I250000J0D01*
G01*
X137475000Y-87450000D01*
G75*
G02*
X137725000Y-87700000I0J-250000D01*
G01*
X137725000Y-88200000D01*
G75*
G02*
X137475000Y-88450000I-250000J0D01*
G01*
G37*
G36*
G01*
X137475000Y-86550000D02*
X136525000Y-86550000D01*
G75*
G02*
X136275000Y-86300000I0J250000D01*
G01*
X136275000Y-85800000D01*
G75*
G02*
X136525000Y-85550000I250000J0D01*
G01*
X137475000Y-85550000D01*
G75*
G02*
X137725000Y-85800000I0J-250000D01*
G01*
X137725000Y-86300000D01*
G75*
G02*
X137475000Y-86550000I-250000J0D01*
G01*
G37*
G36*
G01*
X181000001Y-73000000D02*
X179699999Y-73000000D01*
G75*
G02*
X179450000Y-72750001I0J249999D01*
G01*
X179450000Y-72099999D01*
G75*
G02*
X179699999Y-71850000I249999J0D01*
G01*
X181000001Y-71850000D01*
G75*
G02*
X181250000Y-72099999I0J-249999D01*
G01*
X181250000Y-72750001D01*
G75*
G02*
X181000001Y-73000000I-249999J0D01*
G01*
G37*
G36*
G01*
X181000001Y-70050000D02*
X179699999Y-70050000D01*
G75*
G02*
X179450000Y-69800001I0J249999D01*
G01*
X179450000Y-69149999D01*
G75*
G02*
X179699999Y-68900000I249999J0D01*
G01*
X181000001Y-68900000D01*
G75*
G02*
X181250000Y-69149999I0J-249999D01*
G01*
X181250000Y-69800001D01*
G75*
G02*
X181000001Y-70050000I-249999J0D01*
G01*
G37*
G36*
G01*
X180725000Y-88450000D02*
X179775000Y-88450000D01*
G75*
G02*
X179525000Y-88200000I0J250000D01*
G01*
X179525000Y-87700000D01*
G75*
G02*
X179775000Y-87450000I250000J0D01*
G01*
X180725000Y-87450000D01*
G75*
G02*
X180975000Y-87700000I0J-250000D01*
G01*
X180975000Y-88200000D01*
G75*
G02*
X180725000Y-88450000I-250000J0D01*
G01*
G37*
G36*
G01*
X180725000Y-86550000D02*
X179775000Y-86550000D01*
G75*
G02*
X179525000Y-86300000I0J250000D01*
G01*
X179525000Y-85800000D01*
G75*
G02*
X179775000Y-85550000I250000J0D01*
G01*
X180725000Y-85550000D01*
G75*
G02*
X180975000Y-85800000I0J-250000D01*
G01*
X180975000Y-86300000D01*
G75*
G02*
X180725000Y-86550000I-250000J0D01*
G01*
G37*
G36*
G01*
X139725000Y-88450000D02*
X138775000Y-88450000D01*
G75*
G02*
X138525000Y-88200000I0J250000D01*
G01*
X138525000Y-87700000D01*
G75*
G02*
X138775000Y-87450000I250000J0D01*
G01*
X139725000Y-87450000D01*
G75*
G02*
X139975000Y-87700000I0J-250000D01*
G01*
X139975000Y-88200000D01*
G75*
G02*
X139725000Y-88450000I-250000J0D01*
G01*
G37*
G36*
G01*
X139725000Y-86550000D02*
X138775000Y-86550000D01*
G75*
G02*
X138525000Y-86300000I0J250000D01*
G01*
X138525000Y-85800000D01*
G75*
G02*
X138775000Y-85550000I250000J0D01*
G01*
X139725000Y-85550000D01*
G75*
G02*
X139975000Y-85800000I0J-250000D01*
G01*
X139975000Y-86300000D01*
G75*
G02*
X139725000Y-86550000I-250000J0D01*
G01*
G37*
G36*
G01*
X178475000Y-88450000D02*
X177525000Y-88450000D01*
G75*
G02*
X177275000Y-88200000I0J250000D01*
G01*
X177275000Y-87700000D01*
G75*
G02*
X177525000Y-87450000I250000J0D01*
G01*
X178475000Y-87450000D01*
G75*
G02*
X178725000Y-87700000I0J-250000D01*
G01*
X178725000Y-88200000D01*
G75*
G02*
X178475000Y-88450000I-250000J0D01*
G01*
G37*
G36*
G01*
X178475000Y-86550000D02*
X177525000Y-86550000D01*
G75*
G02*
X177275000Y-86300000I0J250000D01*
G01*
X177275000Y-85800000D01*
G75*
G02*
X177525000Y-85550000I250000J0D01*
G01*
X178475000Y-85550000D01*
G75*
G02*
X178725000Y-85800000I0J-250000D01*
G01*
X178725000Y-86300000D01*
G75*
G02*
X178475000Y-86550000I-250000J0D01*
G01*
G37*
G36*
G01*
X129775000Y-101050000D02*
X130725000Y-101050000D01*
G75*
G02*
X130975000Y-101300000I0J-250000D01*
G01*
X130975000Y-101800000D01*
G75*
G02*
X130725000Y-102050000I-250000J0D01*
G01*
X129775000Y-102050000D01*
G75*
G02*
X129525000Y-101800000I0J250000D01*
G01*
X129525000Y-101300000D01*
G75*
G02*
X129775000Y-101050000I250000J0D01*
G01*
G37*
G36*
G01*
X129775000Y-102950000D02*
X130725000Y-102950000D01*
G75*
G02*
X130975000Y-103200000I0J-250000D01*
G01*
X130975000Y-103700000D01*
G75*
G02*
X130725000Y-103950000I-250000J0D01*
G01*
X129775000Y-103950000D01*
G75*
G02*
X129525000Y-103700000I0J250000D01*
G01*
X129525000Y-103200000D01*
G75*
G02*
X129775000Y-102950000I250000J0D01*
G01*
G37*
G36*
G01*
X186525000Y-101050000D02*
X187475000Y-101050000D01*
G75*
G02*
X187725000Y-101300000I0J-250000D01*
G01*
X187725000Y-101800000D01*
G75*
G02*
X187475000Y-102050000I-250000J0D01*
G01*
X186525000Y-102050000D01*
G75*
G02*
X186275000Y-101800000I0J250000D01*
G01*
X186275000Y-101300000D01*
G75*
G02*
X186525000Y-101050000I250000J0D01*
G01*
G37*
G36*
G01*
X186525000Y-102950000D02*
X187475000Y-102950000D01*
G75*
G02*
X187725000Y-103200000I0J-250000D01*
G01*
X187725000Y-103700000D01*
G75*
G02*
X187475000Y-103950000I-250000J0D01*
G01*
X186525000Y-103950000D01*
G75*
G02*
X186275000Y-103700000I0J250000D01*
G01*
X186275000Y-103200000D01*
G75*
G02*
X186525000Y-102950000I250000J0D01*
G01*
G37*
G36*
G01*
X155550000Y-108975000D02*
X155550000Y-108025000D01*
G75*
G02*
X155800000Y-107775000I250000J0D01*
G01*
X156300000Y-107775000D01*
G75*
G02*
X156550000Y-108025000I0J-250000D01*
G01*
X156550000Y-108975000D01*
G75*
G02*
X156300000Y-109225000I-250000J0D01*
G01*
X155800000Y-109225000D01*
G75*
G02*
X155550000Y-108975000I0J250000D01*
G01*
G37*
G36*
G01*
X157450000Y-108975000D02*
X157450000Y-108025000D01*
G75*
G02*
X157700000Y-107775000I250000J0D01*
G01*
X158200000Y-107775000D01*
G75*
G02*
X158450000Y-108025000I0J-250000D01*
G01*
X158450000Y-108975000D01*
G75*
G02*
X158200000Y-109225000I-250000J0D01*
G01*
X157700000Y-109225000D01*
G75*
G02*
X157450000Y-108975000I0J250000D01*
G01*
G37*
G36*
G01*
X155550000Y-106475000D02*
X155550000Y-105525000D01*
G75*
G02*
X155800000Y-105275000I250000J0D01*
G01*
X156300000Y-105275000D01*
G75*
G02*
X156550000Y-105525000I0J-250000D01*
G01*
X156550000Y-106475000D01*
G75*
G02*
X156300000Y-106725000I-250000J0D01*
G01*
X155800000Y-106725000D01*
G75*
G02*
X155550000Y-106475000I0J250000D01*
G01*
G37*
G36*
G01*
X157450000Y-106475000D02*
X157450000Y-105525000D01*
G75*
G02*
X157700000Y-105275000I250000J0D01*
G01*
X158200000Y-105275000D01*
G75*
G02*
X158450000Y-105525000I0J-250000D01*
G01*
X158450000Y-106475000D01*
G75*
G02*
X158200000Y-106725000I-250000J0D01*
G01*
X157700000Y-106725000D01*
G75*
G02*
X157450000Y-106475000I0J250000D01*
G01*
G37*
G36*
G01*
X162450000Y-105525000D02*
X162450000Y-106475000D01*
G75*
G02*
X162200000Y-106725000I-250000J0D01*
G01*
X161700000Y-106725000D01*
G75*
G02*
X161450000Y-106475000I0J250000D01*
G01*
X161450000Y-105525000D01*
G75*
G02*
X161700000Y-105275000I250000J0D01*
G01*
X162200000Y-105275000D01*
G75*
G02*
X162450000Y-105525000I0J-250000D01*
G01*
G37*
G36*
G01*
X160550000Y-105525000D02*
X160550000Y-106475000D01*
G75*
G02*
X160300000Y-106725000I-250000J0D01*
G01*
X159800000Y-106725000D01*
G75*
G02*
X159550000Y-106475000I0J250000D01*
G01*
X159550000Y-105525000D01*
G75*
G02*
X159800000Y-105275000I250000J0D01*
G01*
X160300000Y-105275000D01*
G75*
G02*
X160550000Y-105525000I0J-250000D01*
G01*
G37*
G36*
G01*
X166150001Y-88550000D02*
X164849999Y-88550000D01*
G75*
G02*
X164600000Y-88300001I0J249999D01*
G01*
X164600000Y-87649999D01*
G75*
G02*
X164849999Y-87400000I249999J0D01*
G01*
X166150001Y-87400000D01*
G75*
G02*
X166400000Y-87649999I0J-249999D01*
G01*
X166400000Y-88300001D01*
G75*
G02*
X166150001Y-88550000I-249999J0D01*
G01*
G37*
G36*
G01*
X166150001Y-85600000D02*
X164849999Y-85600000D01*
G75*
G02*
X164600000Y-85350001I0J249999D01*
G01*
X164600000Y-84699999D01*
G75*
G02*
X164849999Y-84450000I249999J0D01*
G01*
X166150001Y-84450000D01*
G75*
G02*
X166400000Y-84699999I0J-249999D01*
G01*
X166400000Y-85350001D01*
G75*
G02*
X166150001Y-85600000I-249999J0D01*
G01*
G37*
G36*
G01*
X168650001Y-88550000D02*
X167349999Y-88550000D01*
G75*
G02*
X167100000Y-88300001I0J249999D01*
G01*
X167100000Y-87649999D01*
G75*
G02*
X167349999Y-87400000I249999J0D01*
G01*
X168650001Y-87400000D01*
G75*
G02*
X168900000Y-87649999I0J-249999D01*
G01*
X168900000Y-88300001D01*
G75*
G02*
X168650001Y-88550000I-249999J0D01*
G01*
G37*
G36*
G01*
X168650001Y-85600000D02*
X167349999Y-85600000D01*
G75*
G02*
X167100000Y-85350001I0J249999D01*
G01*
X167100000Y-84699999D01*
G75*
G02*
X167349999Y-84450000I249999J0D01*
G01*
X168650001Y-84450000D01*
G75*
G02*
X168900000Y-84699999I0J-249999D01*
G01*
X168900000Y-85350001D01*
G75*
G02*
X168650001Y-85600000I-249999J0D01*
G01*
G37*
G36*
G01*
X152400001Y-88550000D02*
X151099999Y-88550000D01*
G75*
G02*
X150850000Y-88300001I0J249999D01*
G01*
X150850000Y-87649999D01*
G75*
G02*
X151099999Y-87400000I249999J0D01*
G01*
X152400001Y-87400000D01*
G75*
G02*
X152650000Y-87649999I0J-249999D01*
G01*
X152650000Y-88300001D01*
G75*
G02*
X152400001Y-88550000I-249999J0D01*
G01*
G37*
G36*
G01*
X152400001Y-85600000D02*
X151099999Y-85600000D01*
G75*
G02*
X150850000Y-85350001I0J249999D01*
G01*
X150850000Y-84699999D01*
G75*
G02*
X151099999Y-84450000I249999J0D01*
G01*
X152400001Y-84450000D01*
G75*
G02*
X152650000Y-84699999I0J-249999D01*
G01*
X152650000Y-85350001D01*
G75*
G02*
X152400001Y-85600000I-249999J0D01*
G01*
G37*
G36*
G01*
X129550000Y-83225000D02*
X129550000Y-82275000D01*
G75*
G02*
X129800000Y-82025000I250000J0D01*
G01*
X130300000Y-82025000D01*
G75*
G02*
X130550000Y-82275000I0J-250000D01*
G01*
X130550000Y-83225000D01*
G75*
G02*
X130300000Y-83475000I-250000J0D01*
G01*
X129800000Y-83475000D01*
G75*
G02*
X129550000Y-83225000I0J250000D01*
G01*
G37*
G36*
G01*
X131450000Y-83225000D02*
X131450000Y-82275000D01*
G75*
G02*
X131700000Y-82025000I250000J0D01*
G01*
X132200000Y-82025000D01*
G75*
G02*
X132450000Y-82275000I0J-250000D01*
G01*
X132450000Y-83225000D01*
G75*
G02*
X132200000Y-83475000I-250000J0D01*
G01*
X131700000Y-83475000D01*
G75*
G02*
X131450000Y-83225000I0J250000D01*
G01*
G37*
G36*
G01*
X149850001Y-88550000D02*
X148549999Y-88550000D01*
G75*
G02*
X148300000Y-88300001I0J249999D01*
G01*
X148300000Y-87649999D01*
G75*
G02*
X148549999Y-87400000I249999J0D01*
G01*
X149850001Y-87400000D01*
G75*
G02*
X150100000Y-87649999I0J-249999D01*
G01*
X150100000Y-88300001D01*
G75*
G02*
X149850001Y-88550000I-249999J0D01*
G01*
G37*
G36*
G01*
X149850001Y-85600000D02*
X148549999Y-85600000D01*
G75*
G02*
X148300000Y-85350001I0J249999D01*
G01*
X148300000Y-84699999D01*
G75*
G02*
X148549999Y-84450000I249999J0D01*
G01*
X149850001Y-84450000D01*
G75*
G02*
X150100000Y-84699999I0J-249999D01*
G01*
X150100000Y-85350001D01*
G75*
G02*
X149850001Y-85600000I-249999J0D01*
G01*
G37*
G36*
G01*
X142400001Y-88550000D02*
X141099999Y-88550000D01*
G75*
G02*
X140850000Y-88300001I0J249999D01*
G01*
X140850000Y-87649999D01*
G75*
G02*
X141099999Y-87400000I249999J0D01*
G01*
X142400001Y-87400000D01*
G75*
G02*
X142650000Y-87649999I0J-249999D01*
G01*
X142650000Y-88300001D01*
G75*
G02*
X142400001Y-88550000I-249999J0D01*
G01*
G37*
G36*
G01*
X142400001Y-85600000D02*
X141099999Y-85600000D01*
G75*
G02*
X140850000Y-85350001I0J249999D01*
G01*
X140850000Y-84699999D01*
G75*
G02*
X141099999Y-84450000I249999J0D01*
G01*
X142400001Y-84450000D01*
G75*
G02*
X142650000Y-84699999I0J-249999D01*
G01*
X142650000Y-85350001D01*
G75*
G02*
X142400001Y-85600000I-249999J0D01*
G01*
G37*
G36*
G01*
X150025000Y-99550000D02*
X150975000Y-99550000D01*
G75*
G02*
X151225000Y-99800000I0J-250000D01*
G01*
X151225000Y-100300000D01*
G75*
G02*
X150975000Y-100550000I-250000J0D01*
G01*
X150025000Y-100550000D01*
G75*
G02*
X149775000Y-100300000I0J250000D01*
G01*
X149775000Y-99800000D01*
G75*
G02*
X150025000Y-99550000I250000J0D01*
G01*
G37*
G36*
G01*
X150025000Y-101450000D02*
X150975000Y-101450000D01*
G75*
G02*
X151225000Y-101700000I0J-250000D01*
G01*
X151225000Y-102200000D01*
G75*
G02*
X150975000Y-102450000I-250000J0D01*
G01*
X150025000Y-102450000D01*
G75*
G02*
X149775000Y-102200000I0J250000D01*
G01*
X149775000Y-101700000D01*
G75*
G02*
X150025000Y-101450000I250000J0D01*
G01*
G37*
G36*
G01*
X159975000Y-88450000D02*
X159025000Y-88450000D01*
G75*
G02*
X158775000Y-88200000I0J250000D01*
G01*
X158775000Y-87700000D01*
G75*
G02*
X159025000Y-87450000I250000J0D01*
G01*
X159975000Y-87450000D01*
G75*
G02*
X160225000Y-87700000I0J-250000D01*
G01*
X160225000Y-88200000D01*
G75*
G02*
X159975000Y-88450000I-250000J0D01*
G01*
G37*
G36*
G01*
X159975000Y-86550000D02*
X159025000Y-86550000D01*
G75*
G02*
X158775000Y-86300000I0J250000D01*
G01*
X158775000Y-85800000D01*
G75*
G02*
X159025000Y-85550000I250000J0D01*
G01*
X159975000Y-85550000D01*
G75*
G02*
X160225000Y-85800000I0J-250000D01*
G01*
X160225000Y-86300000D01*
G75*
G02*
X159975000Y-86550000I-250000J0D01*
G01*
G37*
G36*
G01*
X163775000Y-99550000D02*
X164725000Y-99550000D01*
G75*
G02*
X164975000Y-99800000I0J-250000D01*
G01*
X164975000Y-100300000D01*
G75*
G02*
X164725000Y-100550000I-250000J0D01*
G01*
X163775000Y-100550000D01*
G75*
G02*
X163525000Y-100300000I0J250000D01*
G01*
X163525000Y-99800000D01*
G75*
G02*
X163775000Y-99550000I250000J0D01*
G01*
G37*
G36*
G01*
X163775000Y-101450000D02*
X164725000Y-101450000D01*
G75*
G02*
X164975000Y-101700000I0J-250000D01*
G01*
X164975000Y-102200000D01*
G75*
G02*
X164725000Y-102450000I-250000J0D01*
G01*
X163775000Y-102450000D01*
G75*
G02*
X163525000Y-102200000I0J250000D01*
G01*
X163525000Y-101700000D01*
G75*
G02*
X163775000Y-101450000I250000J0D01*
G01*
G37*
G36*
G01*
X157725000Y-88450000D02*
X156775000Y-88450000D01*
G75*
G02*
X156525000Y-88200000I0J250000D01*
G01*
X156525000Y-87700000D01*
G75*
G02*
X156775000Y-87450000I250000J0D01*
G01*
X157725000Y-87450000D01*
G75*
G02*
X157975000Y-87700000I0J-250000D01*
G01*
X157975000Y-88200000D01*
G75*
G02*
X157725000Y-88450000I-250000J0D01*
G01*
G37*
G36*
G01*
X157725000Y-86550000D02*
X156775000Y-86550000D01*
G75*
G02*
X156525000Y-86300000I0J250000D01*
G01*
X156525000Y-85800000D01*
G75*
G02*
X156775000Y-85550000I250000J0D01*
G01*
X157725000Y-85550000D01*
G75*
G02*
X157975000Y-85800000I0J-250000D01*
G01*
X157975000Y-86300000D01*
G75*
G02*
X157725000Y-86550000I-250000J0D01*
G01*
G37*
G36*
G01*
X165775000Y-125300000D02*
X166725000Y-125300000D01*
G75*
G02*
X166975000Y-125550000I0J-250000D01*
G01*
X166975000Y-126050000D01*
G75*
G02*
X166725000Y-126300000I-250000J0D01*
G01*
X165775000Y-126300000D01*
G75*
G02*
X165525000Y-126050000I0J250000D01*
G01*
X165525000Y-125550000D01*
G75*
G02*
X165775000Y-125300000I250000J0D01*
G01*
G37*
G36*
G01*
X165775000Y-127200000D02*
X166725000Y-127200000D01*
G75*
G02*
X166975000Y-127450000I0J-250000D01*
G01*
X166975000Y-127950000D01*
G75*
G02*
X166725000Y-128200000I-250000J0D01*
G01*
X165775000Y-128200000D01*
G75*
G02*
X165525000Y-127950000I0J250000D01*
G01*
X165525000Y-127450000D01*
G75*
G02*
X165775000Y-127200000I250000J0D01*
G01*
G37*
G36*
G01*
X154700000Y-95775000D02*
X154700000Y-96725000D01*
G75*
G02*
X154450000Y-96975000I-250000J0D01*
G01*
X153950000Y-96975000D01*
G75*
G02*
X153700000Y-96725000I0J250000D01*
G01*
X153700000Y-95775000D01*
G75*
G02*
X153950000Y-95525000I250000J0D01*
G01*
X154450000Y-95525000D01*
G75*
G02*
X154700000Y-95775000I0J-250000D01*
G01*
G37*
G36*
G01*
X152800000Y-95775000D02*
X152800000Y-96725000D01*
G75*
G02*
X152550000Y-96975000I-250000J0D01*
G01*
X152050000Y-96975000D01*
G75*
G02*
X151800000Y-96725000I0J250000D01*
G01*
X151800000Y-95775000D01*
G75*
G02*
X152050000Y-95525000I250000J0D01*
G01*
X152550000Y-95525000D01*
G75*
G02*
X152800000Y-95775000I0J-250000D01*
G01*
G37*
G36*
G01*
X162300000Y-96725000D02*
X162300000Y-95775000D01*
G75*
G02*
X162550000Y-95525000I250000J0D01*
G01*
X163050000Y-95525000D01*
G75*
G02*
X163300000Y-95775000I0J-250000D01*
G01*
X163300000Y-96725000D01*
G75*
G02*
X163050000Y-96975000I-250000J0D01*
G01*
X162550000Y-96975000D01*
G75*
G02*
X162300000Y-96725000I0J250000D01*
G01*
G37*
G36*
G01*
X164200000Y-96725000D02*
X164200000Y-95775000D01*
G75*
G02*
X164450000Y-95525000I250000J0D01*
G01*
X164950000Y-95525000D01*
G75*
G02*
X165200000Y-95775000I0J-250000D01*
G01*
X165200000Y-96725000D01*
G75*
G02*
X164950000Y-96975000I-250000J0D01*
G01*
X164450000Y-96975000D01*
G75*
G02*
X164200000Y-96725000I0J250000D01*
G01*
G37*
G36*
G01*
X182000000Y-83225000D02*
X182000000Y-82275000D01*
G75*
G02*
X182250000Y-82025000I250000J0D01*
G01*
X182750000Y-82025000D01*
G75*
G02*
X183000000Y-82275000I0J-250000D01*
G01*
X183000000Y-83225000D01*
G75*
G02*
X182750000Y-83475000I-250000J0D01*
G01*
X182250000Y-83475000D01*
G75*
G02*
X182000000Y-83225000I0J250000D01*
G01*
G37*
G36*
G01*
X183900000Y-83225000D02*
X183900000Y-82275000D01*
G75*
G02*
X184150000Y-82025000I250000J0D01*
G01*
X184650000Y-82025000D01*
G75*
G02*
X184900000Y-82275000I0J-250000D01*
G01*
X184900000Y-83225000D01*
G75*
G02*
X184650000Y-83475000I-250000J0D01*
G01*
X184150000Y-83475000D01*
G75*
G02*
X183900000Y-83225000I0J250000D01*
G01*
G37*
G36*
G01*
X63550000Y-127725000D02*
X63550000Y-126775000D01*
G75*
G02*
X63800000Y-126525000I250000J0D01*
G01*
X64300000Y-126525000D01*
G75*
G02*
X64550000Y-126775000I0J-250000D01*
G01*
X64550000Y-127725000D01*
G75*
G02*
X64300000Y-127975000I-250000J0D01*
G01*
X63800000Y-127975000D01*
G75*
G02*
X63550000Y-127725000I0J250000D01*
G01*
G37*
G36*
G01*
X65450000Y-127725000D02*
X65450000Y-126775000D01*
G75*
G02*
X65700000Y-126525000I250000J0D01*
G01*
X66200000Y-126525000D01*
G75*
G02*
X66450000Y-126775000I0J-250000D01*
G01*
X66450000Y-127725000D01*
G75*
G02*
X66200000Y-127975000I-250000J0D01*
G01*
X65700000Y-127975000D01*
G75*
G02*
X65450000Y-127725000I0J250000D01*
G01*
G37*
G36*
G01*
X63550000Y-129975000D02*
X63550000Y-129025000D01*
G75*
G02*
X63800000Y-128775000I250000J0D01*
G01*
X64300000Y-128775000D01*
G75*
G02*
X64550000Y-129025000I0J-250000D01*
G01*
X64550000Y-129975000D01*
G75*
G02*
X64300000Y-130225000I-250000J0D01*
G01*
X63800000Y-130225000D01*
G75*
G02*
X63550000Y-129975000I0J250000D01*
G01*
G37*
G36*
G01*
X65450000Y-129975000D02*
X65450000Y-129025000D01*
G75*
G02*
X65700000Y-128775000I250000J0D01*
G01*
X66200000Y-128775000D01*
G75*
G02*
X66450000Y-129025000I0J-250000D01*
G01*
X66450000Y-129975000D01*
G75*
G02*
X66200000Y-130225000I-250000J0D01*
G01*
X65700000Y-130225000D01*
G75*
G02*
X65450000Y-129975000I0J250000D01*
G01*
G37*
M02*
