M48
; DRILL file {KiCad (5.1.8-0-10_14)} date Sunday, October 03, 2021 at 11:30:47 AM
; FORMAT={-:-/ absolute / metric / decimal}
; #@! TF.CreationDate,2021-10-03T11:30:47-07:00
; #@! TF.GenerationSoftware,Kicad,Pcbnew,(5.1.8-0-10_14)
; #@! TF.FileFunction,Plated,1,4,PTH
FMAT,2
METRIC
T1C0.200
T2C0.254
T3C0.330
T4C0.500
T5C1.000
T6C1.200
T7C1.500
T8C3.200
%
G90
G05
T1
X157.5Y-100.25
X157.5Y-101.25
X157.5Y-102.25
X158.5Y-100.25
X158.5Y-101.25
X158.5Y-102.25
X159.5Y-100.25
X159.5Y-101.25
X159.5Y-102.25
T2
X51.75Y-88.0
X51.75Y-92.25
X51.75Y-97.0
X51.75Y-101.5
X51.75Y-106.5
X51.75Y-111.25
X51.75Y-116.5
X51.75Y-121.75
X51.75Y-127.0
X53.75Y-88.0
X53.75Y-92.25
X53.75Y-97.0
X53.75Y-101.5
X53.75Y-106.5
X53.75Y-111.25
X53.75Y-116.5
X53.75Y-121.75
X53.75Y-127.0
X53.75Y-131.5
X55.25Y-88.0
X55.25Y-92.25
X55.25Y-97.0
X55.25Y-101.5
X55.25Y-106.5
X55.25Y-111.25
X55.25Y-116.5
X55.25Y-121.75
X55.25Y-127.0
X55.25Y-131.5
X56.75Y-87.75
X57.75Y-89.0
X59.0Y-90.0
X60.0Y-91.0
X60.75Y-131.5
X61.0Y-92.0
X61.75Y-97.0
X61.75Y-101.5
X61.75Y-106.5
X61.75Y-111.25
X61.75Y-116.5
X61.75Y-121.75
X61.75Y-127.0
X62.25Y-93.0
X64.0Y-135.0
X65.25Y-109.25
X65.25Y-110.5
X65.25Y-111.75
X65.75Y-136.75
X65.75Y-139.25
X65.75Y-140.75
X65.75Y-142.25
X65.75Y-144.0
X65.75Y-145.5
X65.75Y-147.25
X66.25Y-84.5
X66.75Y-109.25
X66.75Y-110.5
X66.75Y-111.75
X68.25Y-109.25
X68.25Y-110.5
X68.25Y-111.75
X68.75Y-84.5
X71.25Y-84.5
X72.0Y-109.25
X72.0Y-110.5
X72.0Y-111.75
X73.5Y-109.25
X73.5Y-110.5
X73.5Y-111.75
X73.75Y-84.5
X75.0Y-109.25
X75.0Y-110.5
X75.0Y-111.75
X76.25Y-84.5
X76.5Y-92.0
X77.25Y-137.75
X77.25Y-139.25
X77.25Y-140.75
X77.25Y-142.25
X77.25Y-144.0
X77.25Y-145.5
X77.25Y-147.25
X78.75Y-84.5
X78.75Y-109.25
X78.75Y-110.5
X78.75Y-111.75
X79.25Y-89.25
X80.25Y-109.25
X80.25Y-110.5
X80.25Y-111.75
X81.25Y-84.5
X81.75Y-86.5
X81.75Y-109.25
X81.75Y-110.5
X81.75Y-111.75
X83.75Y-84.5
X83.75Y-137.75
X83.75Y-139.25
X83.75Y-140.75
X83.75Y-142.25
X83.75Y-144.0
X83.75Y-145.5
X83.75Y-147.25
X85.5Y-109.25
X85.5Y-110.5
X85.5Y-111.75
X86.25Y-84.5
X87.0Y-109.25
X87.0Y-110.5
X87.0Y-111.75
X88.5Y-109.25
X88.5Y-110.5
X88.5Y-111.75
X90.25Y-137.75
X90.25Y-139.25
X90.25Y-140.75
X90.25Y-142.25
X90.25Y-144.0
X90.25Y-145.5
X90.25Y-147.25
X92.0Y-124.25
X96.25Y-137.75
X96.25Y-139.25
X96.25Y-140.75
X96.25Y-142.25
X96.25Y-144.0
X96.25Y-145.75
X96.25Y-147.25
X102.5Y-137.75
X102.5Y-139.25
X102.5Y-140.75
X102.5Y-142.25
X102.5Y-144.0
X102.5Y-145.75
X102.5Y-147.25
X106.0Y-117.0
X106.0Y-117.75
X106.0Y-118.5
X106.0Y-119.25
X106.2Y-89.0
X106.2Y-90.0
X106.2Y-91.0
X106.2Y-92.0
X106.2Y-94.0
X106.2Y-95.0
X106.2Y-96.0
X106.2Y-97.0
X107.2Y-89.0
X107.2Y-90.0
X107.2Y-91.0
X107.2Y-92.0
X107.2Y-94.0
X107.2Y-95.0
X107.2Y-96.0
X107.2Y-97.0
X108.2Y-89.0
X108.2Y-90.0
X108.2Y-91.0
X108.2Y-92.0
X108.2Y-94.0
X108.2Y-95.0
X108.2Y-96.0
X108.2Y-97.0
X108.25Y-117.0
X108.25Y-117.75
X108.25Y-118.5
X108.25Y-119.25
X108.75Y-137.75
X108.75Y-139.25
X108.75Y-140.75
X108.75Y-142.25
X108.75Y-144.0
X108.75Y-145.75
X108.75Y-147.25
X109.2Y-89.0
X109.2Y-90.0
X109.2Y-91.0
X109.2Y-92.0
X109.2Y-94.0
X109.2Y-95.0
X109.2Y-96.0
X109.2Y-97.0
X110.2Y-89.0
X110.2Y-90.0
X110.2Y-91.0
X110.2Y-92.0
X110.2Y-94.0
X110.2Y-95.0
X110.2Y-96.0
X110.2Y-97.0
X110.5Y-117.0
X110.5Y-117.75
X110.5Y-118.5
X110.5Y-119.25
X111.2Y-89.0
X111.2Y-90.0
X111.2Y-91.0
X111.2Y-92.0
X111.2Y-94.0
X111.2Y-95.0
X111.2Y-96.0
X111.2Y-97.0
X112.2Y-89.0
X112.2Y-90.0
X112.2Y-91.0
X112.2Y-92.0
X112.2Y-94.0
X112.2Y-95.0
X112.2Y-96.0
X112.2Y-97.0
X112.75Y-114.5
X112.75Y-115.25
X113.2Y-89.0
X113.2Y-90.0
X113.2Y-91.0
X113.2Y-92.0
X113.2Y-94.0
X113.2Y-95.0
X113.2Y-96.0
X113.2Y-97.0
X113.5Y-114.5
X113.5Y-115.25
X114.2Y-89.0
X114.2Y-90.0
X114.2Y-91.0
X114.2Y-92.0
X114.2Y-94.0
X114.2Y-95.0
X114.2Y-96.0
X114.2Y-97.0
X114.5Y-137.75
X114.5Y-139.25
X114.5Y-140.75
X114.5Y-142.25
X114.5Y-144.0
X114.5Y-145.75
X114.5Y-147.25
X115.2Y-89.0
X115.2Y-90.0
X115.2Y-91.0
X115.2Y-92.0
X115.2Y-94.0
X115.2Y-95.0
X115.2Y-96.0
X115.2Y-97.0
X115.5Y-122.5
X115.5Y-123.75
X115.5Y-125.0
X116.2Y-89.0
X116.2Y-90.0
X116.2Y-91.0
X116.2Y-92.0
X116.2Y-94.0
X116.2Y-95.0
X116.2Y-96.0
X116.2Y-97.0
X117.0Y-122.5
X117.0Y-123.75
X117.0Y-125.0
X117.2Y-89.0
X117.2Y-90.0
X117.2Y-91.0
X117.2Y-92.0
X117.2Y-94.0
X117.2Y-95.0
X117.2Y-96.0
X117.2Y-97.0
X118.2Y-89.0
X118.2Y-90.0
X118.2Y-91.0
X118.2Y-92.0
X118.2Y-94.0
X118.2Y-95.0
X118.2Y-96.0
X118.2Y-97.0
X118.5Y-122.5
X118.5Y-123.75
X118.5Y-125.0
X119.2Y-89.0
X119.2Y-90.0
X119.2Y-91.0
X119.2Y-92.0
X119.2Y-94.0
X119.2Y-95.0
X119.2Y-96.0
X119.2Y-97.0
X120.0Y-129.0
X120.0Y-129.75
X120.2Y-89.0
X120.2Y-90.0
X120.2Y-91.0
X120.2Y-92.0
X120.2Y-94.0
X120.2Y-95.0
X120.2Y-96.0
X120.2Y-97.0
X120.5Y-137.75
X120.5Y-139.25
X120.5Y-140.75
X120.5Y-142.25
X120.5Y-144.0
X120.5Y-145.75
X120.5Y-147.25
X120.75Y-129.0
X120.75Y-129.75
X121.2Y-89.0
X121.2Y-90.0
X121.2Y-91.0
X121.2Y-92.0
X121.2Y-94.0
X121.2Y-95.0
X121.2Y-96.0
X121.2Y-97.0
X122.0Y-72.0
X122.0Y-73.0
X122.0Y-77.0
X122.0Y-78.0
X122.2Y-89.0
X122.2Y-90.0
X122.2Y-91.0
X122.2Y-92.0
X122.2Y-94.0
X122.2Y-95.0
X122.2Y-96.0
X122.2Y-97.0
X122.5Y-128.25
X122.5Y-129.0
X123.0Y-72.0
X123.0Y-73.0
X123.0Y-77.0
X123.0Y-78.0
X123.2Y-89.0
X123.2Y-90.0
X123.2Y-91.0
X123.2Y-92.0
X123.2Y-94.0
X123.2Y-95.0
X123.2Y-96.0
X123.2Y-97.0
X123.25Y-128.25
X123.25Y-129.0
X124.0Y-72.0
X124.0Y-73.0
X124.0Y-77.0
X124.0Y-78.0
X124.2Y-89.0
X124.2Y-90.0
X124.2Y-91.0
X124.2Y-92.0
X124.2Y-94.0
X124.2Y-95.0
X124.2Y-96.0
X124.2Y-97.0
X125.0Y-72.0
X125.0Y-73.0
X125.0Y-77.0
X125.0Y-78.0
X125.2Y-89.0
X125.2Y-90.0
X125.2Y-91.0
X125.2Y-92.0
X125.2Y-94.0
X125.2Y-95.0
X125.2Y-96.0
X125.2Y-97.0
X126.0Y-72.0
X126.0Y-73.0
X126.0Y-77.0
X126.0Y-78.0
X126.2Y-89.0
X126.2Y-90.0
X126.2Y-91.0
X126.2Y-92.0
X126.2Y-94.0
X126.2Y-95.0
X126.2Y-96.0
X126.2Y-97.0
X126.5Y-137.75
X126.5Y-139.25
X126.5Y-140.75
X126.5Y-142.25
X126.5Y-144.0
X126.5Y-145.75
X126.5Y-147.25
X127.2Y-89.0
X127.2Y-90.0
X127.2Y-91.0
X127.2Y-92.0
X127.2Y-94.0
X127.2Y-95.0
X127.2Y-96.0
X127.2Y-97.0
X128.0Y-72.0
X128.0Y-73.0
X128.0Y-77.0
X128.0Y-78.0
X129.0Y-72.0
X129.0Y-73.0
X129.0Y-77.0
X129.0Y-78.0
X129.0Y-89.0
X129.0Y-90.0
X129.0Y-91.0
X129.0Y-97.0
X129.25Y-123.0
X129.25Y-123.75
X129.25Y-124.5
X130.0Y-72.0
X130.0Y-73.0
X130.0Y-77.0
X130.0Y-78.0
X130.0Y-89.0
X130.0Y-90.0
X130.0Y-91.0
X130.0Y-97.0
X131.0Y-72.0
X131.0Y-73.0
X131.0Y-77.0
X131.0Y-78.0
X131.0Y-89.0
X131.0Y-90.0
X131.0Y-91.0
X131.0Y-97.0
X132.0Y-72.0
X132.0Y-73.0
X132.0Y-77.0
X132.0Y-78.0
X132.0Y-89.0
X132.0Y-90.0
X132.0Y-91.0
X132.0Y-92.0
X132.0Y-94.0
X132.0Y-95.0
X132.0Y-96.0
X132.0Y-97.0
X132.25Y-137.75
X132.25Y-139.25
X132.25Y-140.75
X132.25Y-142.25
X132.25Y-144.0
X132.25Y-145.75
X132.25Y-147.25
X133.0Y-89.0
X133.0Y-90.0
X133.1Y-91.4
X133.1Y-92.3
X133.1Y-96.2
X133.1Y-97.1
X133.2Y-102.4
X133.2Y-103.6
X133.2Y-106.6
X133.2Y-107.8
X133.5Y-68.25
X133.75Y-96.65
X133.8Y-91.9
X134.0Y-89.0
X134.0Y-90.0
X134.2Y-102.4
X134.2Y-103.6
X134.2Y-106.6
X134.2Y-107.8
X134.25Y-68.25
X134.4Y-91.4
X134.4Y-92.3
X134.4Y-96.2
X134.4Y-97.1
X134.5Y-123.0
X134.5Y-123.75
X134.5Y-124.5
X135.0Y-68.25
X135.0Y-89.0
X135.0Y-90.0
X135.2Y-102.4
X135.2Y-103.6
X135.2Y-106.6
X135.2Y-107.8
X135.25Y-126.25
X135.25Y-127.75
X135.75Y-127.0
X136.0Y-68.0
X136.0Y-71.0
X136.0Y-84.0
X136.0Y-85.0
X136.0Y-89.0
X136.0Y-90.0
X136.0Y-91.0
X136.0Y-92.0
X136.0Y-95.0
X136.0Y-96.0
X136.0Y-97.0
X136.2Y-102.4
X136.2Y-103.6
X136.2Y-106.6
X136.2Y-107.8
X136.25Y-126.25
X136.25Y-127.75
X137.0Y-68.0
X137.0Y-71.0
X137.0Y-84.0
X137.0Y-85.0
X137.0Y-89.0
X137.0Y-90.0
X137.3Y-91.4
X137.3Y-92.3
X137.35Y-96.2
X137.35Y-97.05
X138.0Y-68.0
X138.0Y-71.0
X138.0Y-84.0
X138.0Y-85.0
X138.0Y-89.0
X138.0Y-90.0
X138.0Y-91.9
X138.0Y-137.75
X138.0Y-139.25
X138.0Y-140.75
X138.0Y-142.25
X138.0Y-144.0
X138.0Y-145.75
X138.0Y-147.25
X138.05Y-96.65
X138.6Y-91.4
X138.6Y-92.3
X138.65Y-96.2
X138.65Y-97.1
X139.0Y-68.0
X139.0Y-69.0
X139.0Y-84.0
X139.0Y-85.0
X139.0Y-89.0
X139.0Y-90.0
X139.2Y-102.4
X139.2Y-103.6
X139.2Y-106.6
X139.2Y-107.8
X139.5Y-123.0
X139.5Y-123.75
X139.5Y-124.5
X140.0Y-68.0
X140.0Y-69.0
X140.0Y-84.0
X140.0Y-85.0
X140.0Y-89.0
X140.0Y-90.0
X140.0Y-91.0
X140.2Y-102.4
X140.2Y-103.6
X140.2Y-106.6
X140.2Y-107.8
X141.0Y-68.0
X141.0Y-69.0
X141.0Y-83.0
X141.0Y-84.0
X141.0Y-89.0
X141.0Y-90.0
X141.0Y-91.0
X141.2Y-102.4
X141.2Y-103.6
X141.2Y-106.6
X141.2Y-107.8
X141.75Y-130.25
X142.0Y-68.0
X142.0Y-69.0
X142.0Y-83.0
X142.0Y-84.0
X142.0Y-89.0
X142.0Y-90.0
X142.0Y-91.0
X142.2Y-102.4
X142.2Y-103.6
X142.2Y-106.6
X142.2Y-107.8
X142.5Y-130.25
X143.0Y-68.0
X143.0Y-69.0
X143.0Y-83.0
X143.0Y-84.0
X143.0Y-89.0
X143.0Y-90.0
X143.25Y-130.25
X143.5Y-137.75
X143.5Y-139.25
X143.5Y-140.75
X143.5Y-142.25
X143.5Y-144.0
X143.5Y-145.75
X143.5Y-147.25
X144.0Y-83.0
X144.0Y-84.0
X144.0Y-89.0
X144.0Y-90.0
X144.0Y-130.25
X145.0Y-83.0
X145.0Y-84.0
X145.0Y-89.0
X145.0Y-90.0
X145.0Y-91.0
X145.5Y-124.75
X145.5Y-130.25
X146.0Y-83.0
X146.0Y-84.0
X146.0Y-89.0
X146.0Y-90.0
X146.0Y-91.0
X146.25Y-124.75
X146.25Y-130.25
X147.0Y-83.0
X147.0Y-84.0
X147.0Y-89.0
X147.0Y-90.0
X147.0Y-91.0
X147.0Y-124.75
X147.0Y-130.25
X147.75Y-124.75
X147.75Y-130.25
X148.0Y-83.0
X148.0Y-84.0
X148.0Y-89.0
X148.0Y-90.0
X148.5Y-124.75
X148.5Y-130.25
X149.0Y-83.0
X149.0Y-84.0
X149.0Y-89.0
X149.0Y-90.0
X149.25Y-124.75
X149.25Y-130.25
X149.25Y-137.75
X149.25Y-139.25
X149.25Y-140.75
X149.25Y-142.25
X149.25Y-144.0
X149.25Y-145.75
X149.25Y-147.25
X150.0Y-83.0
X150.0Y-84.0
X150.0Y-89.0
X150.0Y-90.0
X150.0Y-91.0
X151.0Y-83.0
X151.0Y-84.0
X151.0Y-89.0
X151.0Y-90.0
X151.0Y-91.0
X152.0Y-83.0
X152.0Y-84.0
X152.0Y-89.0
X152.0Y-90.0
X152.0Y-91.0
X153.0Y-83.0
X153.0Y-84.0
X153.0Y-89.0
X153.0Y-90.0
X153.0Y-91.0
X156.0Y-84.0
X156.0Y-85.0
X156.0Y-89.0
X156.0Y-90.0
X157.0Y-84.0
X157.0Y-85.0
X157.0Y-89.0
X157.0Y-90.0
X158.0Y-84.0
X158.0Y-85.0
X158.0Y-89.0
X158.0Y-90.0
X159.0Y-84.0
X159.0Y-85.0
X159.0Y-89.0
X159.0Y-90.0
X160.0Y-84.0
X160.0Y-85.0
X160.0Y-89.0
X160.0Y-90.0
X161.0Y-84.0
X161.0Y-85.0
X161.0Y-89.0
X161.0Y-90.0
X164.0Y-83.0
X164.0Y-84.0
X164.0Y-89.0
X164.0Y-90.0
X164.0Y-91.0
X165.0Y-83.0
X165.0Y-84.0
X165.0Y-89.0
X165.0Y-90.0
X165.0Y-91.0
X166.0Y-83.0
X166.0Y-84.0
X166.0Y-89.0
X166.0Y-90.0
X166.0Y-91.0
X167.0Y-83.0
X167.0Y-84.0
X167.0Y-89.0
X167.0Y-90.0
X167.0Y-91.0
X168.0Y-83.0
X168.0Y-84.0
X168.0Y-89.0
X168.0Y-90.0
X169.0Y-83.0
X169.0Y-84.0
X169.0Y-89.0
X169.0Y-90.0
X170.0Y-83.0
X170.0Y-84.0
X170.0Y-89.0
X170.0Y-90.0
X171.0Y-83.0
X171.0Y-84.0
X171.0Y-89.0
X171.0Y-90.0
X171.0Y-91.0
X172.0Y-83.0
X172.0Y-84.0
X172.0Y-89.0
X172.0Y-90.0
X172.0Y-91.0
X173.0Y-83.0
X173.0Y-84.0
X173.0Y-89.0
X173.0Y-90.0
X174.0Y-83.0
X174.0Y-84.0
X174.0Y-89.0
X174.0Y-90.0
X175.0Y-68.0
X175.0Y-69.0
X175.0Y-83.0
X175.0Y-84.0
X175.0Y-89.0
X175.0Y-90.0
X175.0Y-91.0
X175.0Y-102.4
X175.0Y-103.6
X175.0Y-106.6
X175.0Y-107.8
X176.0Y-68.0
X176.0Y-69.0
X176.0Y-83.0
X176.0Y-84.0
X176.0Y-89.0
X176.0Y-90.0
X176.0Y-91.0
X176.0Y-102.4
X176.0Y-103.6
X176.0Y-106.6
X176.0Y-107.8
X177.0Y-68.0
X177.0Y-69.0
X177.0Y-84.0
X177.0Y-85.0
X177.0Y-89.0
X177.0Y-90.0
X177.0Y-91.0
X177.0Y-102.4
X177.0Y-103.6
X177.0Y-106.6
X177.0Y-107.8
X178.0Y-68.0
X178.0Y-69.0
X178.0Y-84.0
X178.0Y-85.0
X178.0Y-89.0
X178.0Y-90.0
X178.0Y-102.4
X178.0Y-103.6
X178.0Y-106.6
X178.0Y-107.8
X178.75Y-91.45
X178.75Y-92.25
X178.75Y-96.25
X178.75Y-97.0
X179.0Y-68.0
X179.0Y-69.0
X179.0Y-70.75
X179.0Y-84.0
X179.0Y-85.0
X179.0Y-89.0
X179.0Y-90.0
X179.4Y-91.9
X179.4Y-96.65
X180.0Y-68.0
X180.0Y-70.75
X180.0Y-84.0
X180.0Y-85.0
X180.0Y-89.0
X180.0Y-90.0
X180.1Y-91.45
X180.1Y-92.25
X180.1Y-96.25
X180.1Y-96.95
X181.0Y-68.0
X181.0Y-70.75
X181.0Y-84.0
X181.0Y-85.0
X181.0Y-89.0
X181.0Y-90.0
X181.0Y-91.0
X181.0Y-92.0
X181.0Y-96.0
X181.0Y-97.0
X181.0Y-102.4
X181.0Y-103.6
X181.0Y-106.6
X181.0Y-107.8
X182.0Y-89.0
X182.0Y-90.0
X182.0Y-91.0
X182.0Y-92.0
X182.0Y-96.0
X182.0Y-97.0
X182.0Y-102.4
X182.0Y-103.6
X182.0Y-106.6
X182.0Y-107.8
X182.5Y-68.25
X182.5Y-86.75
X182.95Y-91.45
X182.95Y-92.25
X182.95Y-96.25
X182.95Y-97.0
X183.0Y-89.0
X183.0Y-90.0
X183.0Y-102.4
X183.0Y-103.6
X183.0Y-106.6
X183.0Y-107.8
X183.25Y-68.25
X183.6Y-91.9
X183.6Y-96.65
X184.0Y-68.25
X184.0Y-89.0
X184.0Y-90.0
X184.0Y-102.4
X184.0Y-103.6
X184.0Y-106.6
X184.0Y-107.8
X184.25Y-91.45
X184.25Y-92.25
X184.25Y-96.25
X184.25Y-97.0
X185.0Y-89.0
X185.0Y-90.0
X186.0Y-72.0
X186.0Y-73.0
X186.0Y-77.0
X186.0Y-78.0
X186.0Y-89.0
X186.0Y-90.0
X186.0Y-91.0
X186.0Y-97.0
X187.0Y-72.0
X187.0Y-73.0
X187.0Y-77.0
X187.0Y-78.0
X187.0Y-89.0
X187.0Y-90.0
X187.0Y-91.0
X187.0Y-97.0
X188.0Y-72.0
X188.0Y-73.0
X188.0Y-77.0
X188.0Y-78.0
X188.0Y-89.0
X188.0Y-90.0
X188.0Y-91.0
X188.0Y-97.0
X189.0Y-72.0
X189.0Y-73.0
X189.0Y-77.0
X189.0Y-78.0
X190.0Y-72.0
X190.0Y-73.0
X190.0Y-77.0
X190.0Y-78.0
X190.0Y-89.0
X190.0Y-90.0
X190.0Y-91.0
X190.0Y-92.0
X190.0Y-94.0
X190.0Y-95.0
X190.0Y-96.0
X190.0Y-97.0
X191.0Y-89.0
X191.0Y-90.0
X191.0Y-91.0
X191.0Y-92.0
X191.0Y-94.0
X191.0Y-95.0
X191.0Y-96.0
X191.0Y-97.0
X192.0Y-72.0
X192.0Y-73.0
X192.0Y-77.0
X192.0Y-78.0
X192.0Y-89.0
X192.0Y-90.0
X192.0Y-91.0
X192.0Y-92.0
X192.0Y-94.0
X192.0Y-95.0
X192.0Y-96.0
X192.0Y-97.0
X193.0Y-72.0
X193.0Y-73.0
X193.0Y-77.0
X193.0Y-78.0
X193.0Y-89.0
X193.0Y-90.0
X193.0Y-91.0
X193.0Y-92.0
X193.0Y-94.0
X193.0Y-95.0
X193.0Y-96.0
X193.0Y-97.0
X194.0Y-72.0
X194.0Y-73.0
X194.0Y-77.0
X194.0Y-78.0
X194.0Y-89.0
X194.0Y-90.0
X194.0Y-91.0
X194.0Y-92.0
X194.0Y-94.0
X194.0Y-95.0
X194.0Y-96.0
X194.0Y-97.0
X195.0Y-72.0
X195.0Y-73.0
X195.0Y-77.0
X195.0Y-78.0
X195.0Y-89.0
X195.0Y-90.0
X195.0Y-91.0
X195.0Y-92.0
X195.0Y-94.0
X195.0Y-95.0
X195.0Y-96.0
X195.0Y-97.0
X196.0Y-72.0
X196.0Y-73.0
X196.0Y-77.0
X196.0Y-78.0
X196.0Y-89.0
X196.0Y-90.0
X196.0Y-91.0
X196.0Y-92.0
X196.0Y-94.0
X196.0Y-95.0
X196.0Y-96.0
X196.0Y-97.0
X197.0Y-89.0
X197.0Y-90.0
X197.0Y-91.0
X197.0Y-92.0
X197.0Y-94.0
X197.0Y-95.0
X197.0Y-96.0
X197.0Y-97.0
X198.0Y-89.0
X198.0Y-90.0
X198.0Y-91.0
X198.0Y-92.0
X198.0Y-94.0
X198.0Y-95.0
X198.0Y-96.0
X198.0Y-97.0
X199.0Y-89.0
X199.0Y-90.0
X199.0Y-91.0
X199.0Y-92.0
X199.0Y-94.0
X199.0Y-95.0
X199.0Y-96.0
X199.0Y-97.0
X200.0Y-89.0
X200.0Y-90.0
X200.0Y-91.0
X200.0Y-92.0
X200.0Y-94.0
X200.0Y-95.0
X200.0Y-96.0
X200.0Y-97.0
X201.0Y-89.0
X201.0Y-90.0
X201.0Y-91.0
X201.0Y-92.0
X201.0Y-94.0
X201.0Y-95.0
X201.0Y-96.0
X201.0Y-97.0
X201.75Y-122.75
X201.75Y-123.75
X202.0Y-89.0
X202.0Y-90.0
X202.0Y-91.0
X202.0Y-92.0
X202.0Y-94.0
X202.0Y-95.0
X202.0Y-96.0
X202.0Y-97.0
X202.5Y-123.25
X203.0Y-89.0
X203.0Y-90.0
X203.0Y-91.0
X203.0Y-92.0
X203.0Y-94.0
X203.0Y-95.0
X203.0Y-96.0
X203.0Y-97.0
X203.25Y-122.75
X203.25Y-123.75
X204.0Y-89.0
X204.0Y-90.0
X204.0Y-91.0
X204.0Y-92.0
X204.0Y-94.0
X204.0Y-95.0
X204.0Y-96.0
X204.0Y-97.0
X205.0Y-89.0
X205.0Y-90.0
X205.0Y-91.0
X205.0Y-92.0
X205.0Y-94.0
X205.0Y-95.0
X205.0Y-96.0
X205.0Y-97.0
X206.0Y-89.0
X206.0Y-90.0
X206.0Y-91.0
X206.0Y-92.0
X206.0Y-94.0
X206.0Y-95.0
X206.0Y-96.0
X206.0Y-97.0
X207.0Y-89.0
X207.0Y-90.0
X207.0Y-91.0
X207.0Y-92.0
X207.0Y-94.0
X207.0Y-95.0
X207.0Y-96.0
X207.0Y-97.0
X208.0Y-89.0
X208.0Y-90.0
X208.0Y-91.0
X208.0Y-92.0
X208.0Y-94.0
X208.0Y-95.0
X208.0Y-96.0
X208.0Y-97.0
X209.0Y-89.0
X209.0Y-90.0
X209.0Y-91.0
X209.0Y-92.0
X209.0Y-94.0
X209.0Y-95.0
X209.0Y-96.0
X209.0Y-97.0
X210.0Y-89.0
X210.0Y-90.0
X210.0Y-91.0
X210.0Y-92.0
X210.0Y-94.0
X210.0Y-95.0
X210.0Y-96.0
X210.0Y-97.0
X211.0Y-89.0
X211.0Y-90.0
X211.0Y-91.0
X211.0Y-92.0
X211.0Y-94.0
X211.0Y-95.0
X211.0Y-96.0
X211.0Y-97.0
X176.5Y-101.6
X176.5Y-108.4
X140.75Y-101.6
X140.75Y-108.4
X134.75Y-101.6
X134.75Y-108.4
X182.5Y-101.6
X182.5Y-108.4
T3
X52.75Y-129.25
X52.75Y-130.0
X52.75Y-130.75
X52.75Y-131.5
X54.5Y-87.0
X58.0Y-87.0
X59.0Y-89.0
X59.75Y-80.25
X62.5Y-82.5
X62.75Y-132.0
X63.75Y-107.0
X64.05Y-128.45
X66.25Y-83.5
X66.25Y-132.25
X67.0Y-127.25
X67.0Y-129.5
X68.75Y-83.5
X70.5Y-131.25
X70.5Y-144.75
X70.75Y-107.0
X71.25Y-83.5
X71.75Y-131.75
X71.75Y-148.25
X73.0Y-132.75
X73.0Y-146.5
X73.75Y-83.5
X76.25Y-83.5
X77.5Y-100.5
X77.5Y-107.0
X78.75Y-83.5
X78.75Y-133.25
X80.25Y-126.0
X81.25Y-83.5
X81.5Y-96.5
X82.0Y-130.0
X83.75Y-83.5
X84.25Y-107.0
X85.0Y-92.5
X85.0Y-100.5
X86.25Y-83.5
X87.5Y-94.5
X87.5Y-98.5
X87.5Y-100.5
X88.75Y-83.5
X88.75Y-103.5
X88.75Y-104.5
X88.75Y-105.5
X89.695Y-82.445
X89.75Y-103.5
X89.75Y-104.5
X89.75Y-105.5
X90.0Y-100.5
X90.75Y-103.5
X90.75Y-104.5
X90.75Y-105.5
X91.0Y-106.75
X92.5Y-101.25
X95.0Y-103.5
X95.0Y-104.5
X95.0Y-105.5
X96.0Y-103.5
X96.0Y-104.5
X96.0Y-105.5
X97.0Y-103.5
X97.0Y-104.5
X97.0Y-105.5
X99.0Y-85.0
X99.0Y-86.0
X99.0Y-87.0
X99.0Y-88.0
X99.0Y-93.0
X99.0Y-94.0
X99.0Y-95.0
X99.0Y-96.0
X99.0Y-99.0
X99.0Y-100.0
X99.0Y-101.0
X99.0Y-102.0
X99.0Y-107.0
X99.0Y-108.0
X99.0Y-109.0
X99.0Y-110.0
X99.0Y-113.0
X99.0Y-114.0
X99.0Y-115.0
X99.0Y-116.0
X99.0Y-120.75
X99.0Y-121.75
X99.0Y-122.75
X99.0Y-123.75
X100.0Y-85.0
X100.0Y-86.0
X100.0Y-87.0
X100.0Y-88.0
X100.0Y-93.0
X100.0Y-94.0
X100.0Y-95.0
X100.0Y-96.0
X100.0Y-99.0
X100.0Y-100.0
X100.0Y-101.0
X100.0Y-102.0
X100.0Y-107.0
X100.0Y-108.0
X100.0Y-109.0
X100.0Y-110.0
X100.0Y-113.0
X100.0Y-114.0
X100.0Y-115.0
X100.0Y-116.0
X100.0Y-120.75
X100.0Y-121.75
X100.0Y-122.75
X100.0Y-123.75
X103.25Y-97.25
X103.25Y-101.25
X106.0Y-120.75
X108.0Y-123.5
X108.5Y-133.5
X112.0Y-125.5
X112.5Y-129.5
X113.5Y-124.0
X113.5Y-133.5
X122.0Y-136.25
X129.25Y-87.75
X129.75Y-126.25
X130.25Y-104.25
X132.25Y-131.0
X132.75Y-82.75
X135.75Y-94.0
X135.75Y-98.75
X137.0Y-130.0
X139.75Y-94.0
X139.75Y-98.75
X140.5Y-92.5
X140.5Y-97.25
X141.0Y-131.5
X144.75Y-92.5
X144.75Y-97.5
X145.5Y-120.5
X148.5Y-131.5
X150.5Y-102.75
X150.75Y-141.5
X151.75Y-101.0
X151.75Y-140.0
X152.75Y-138.5
X152.8Y-111.8
X152.8Y-115.8
X152.8Y-120.6
X152.8Y-125.6
X152.8Y-131.6
X153.0Y-102.75
X154.449Y-100.398
X154.5Y-102.0
X154.6Y-111.8
X154.6Y-115.8
X154.6Y-120.6
X154.6Y-125.6
X154.6Y-131.6
X154.6Y-137.6
X155.0Y-144.2
X155.25Y-106.0
X155.25Y-108.5
X156.2Y-111.8
X156.2Y-115.8
X156.2Y-120.6
X156.2Y-125.6
X156.2Y-131.6
X156.2Y-137.6
X157.95Y-107.3
X158.4Y-93.6
X158.6Y-111.8
X158.6Y-115.8
X158.6Y-120.6
X158.6Y-125.6
X158.6Y-131.6
X158.6Y-137.6
X158.6Y-143.2
X158.662Y-97.875
X159.5Y-147.25
X160.0Y-128.5
X161.0Y-145.75
X162.0Y-111.8
X162.0Y-115.8
X162.0Y-120.6
X162.0Y-131.6
X162.0Y-143.2
X162.5Y-102.0
X162.5Y-141.5
X162.75Y-106.0
X162.75Y-128.75
X163.0Y-100.673
X164.25Y-102.75
X164.5Y-140.0
X165.5Y-101.0
X166.25Y-125.0
X166.25Y-128.75
X166.75Y-138.5
X166.75Y-102.75
X169.5Y-131.75
X171.5Y-127.75
X172.5Y-92.5
X172.5Y-97.25
X173.25Y-130.25
X177.0Y-92.5
X177.0Y-97.5
X178.25Y-125.75
X178.25Y-128.75
X180.805Y-81.695
X181.0Y-94.0
X181.0Y-98.75
X182.25Y-128.75
X185.25Y-82.75
X185.25Y-94.0
X185.25Y-98.75
X187.0Y-104.25
X188.75Y-125.25
X189.5Y-81.0
X198.5Y-119.75
X198.5Y-128.0
X198.5Y-130.5
X199.5Y-124.5
X199.5Y-128.0
X203.25Y-117.25
X204.5Y-134.75
X204.5Y-137.25
X205.75Y-117.0
X205.75Y-122.0
X205.75Y-127.0
X210.75Y-131.25
X213.5Y-81.0
X214.0Y-97.25
X214.0Y-101.0
X215.5Y-81.75
X217.0Y-125.25
X218.75Y-128.75
T4
X149.75Y-70.5
X214.6Y-70.0
X215.303Y-68.303
X215.303Y-71.697
X217.0Y-67.6
X217.0Y-72.4
X218.697Y-68.303
X218.697Y-71.697
X219.4Y-70.0
X52.6Y-70.0
X53.303Y-68.303
X53.303Y-71.697
X55.0Y-67.6
X55.0Y-72.4
X56.697Y-68.303
X56.697Y-71.697
X57.4Y-70.0
X171.5Y-70.5
X214.6Y-145.0
X215.303Y-143.303
X215.303Y-146.697
X217.0Y-142.6
X217.0Y-147.4
X218.697Y-143.303
X218.697Y-146.697
X219.4Y-145.0
X168.0Y-70.5
X146.25Y-70.5
X52.6Y-145.0
X53.303Y-143.303
X53.303Y-146.697
X55.0Y-142.6
X55.0Y-147.4
X56.697Y-143.303
X56.697Y-146.697
X57.4Y-145.0
T5
X67.0Y-76.327
X67.0Y-78.867
X69.54Y-76.327
X69.54Y-78.867
X72.08Y-76.327
X72.08Y-78.867
X74.62Y-76.327
X74.62Y-78.867
X77.16Y-76.327
X77.16Y-78.867
X79.7Y-76.327
X79.7Y-78.867
X82.24Y-76.327
X82.24Y-78.867
T6
X97.0Y-76.0
X99.5Y-76.0
T8
X55.0Y-145.0
X217.0Y-70.0
X55.0Y-70.0
X217.0Y-145.0
T7
X162.0Y-76.135G85X166.0Y-76.135
G05
X171.031Y-73.5G85X171.031Y-77.5
G05
X65.5Y-97.635G85X68.5Y-97.635
G05
X73.031Y-95.5G85X73.031Y-98.5
G05
X65.0Y-120.135G85X69.0Y-120.135
G05
X74.031Y-117.5G85X74.031Y-121.5
G05
X146.719Y-77.5G85X146.719Y-73.5
G05
X155.75Y-74.865G85X151.75Y-74.865
G05
T0
M30
