%TF.GenerationSoftware,KiCad,Pcbnew,(5.1.8-0-10_14)*%
%TF.CreationDate,2021-12-04T19:42:54-08:00*%
%TF.ProjectId,Control,436f6e74-726f-46c2-9e6b-696361645f70,rev?*%
%TF.SameCoordinates,Original*%
%TF.FileFunction,Legend,Top*%
%TF.FilePolarity,Positive*%
%FSLAX46Y46*%
G04 Gerber Fmt 4.6, Leading zero omitted, Abs format (unit mm)*
G04 Created by KiCad (PCBNEW (5.1.8-0-10_14)) date 2021-12-04 19:42:54*
%MOMM*%
%LPD*%
G01*
G04 APERTURE LIST*
%ADD10C,0.254000*%
%ADD11C,0.120000*%
%ADD12C,0.203200*%
%ADD13C,0.500000*%
%ADD14C,0.127000*%
%ADD15C,0.100000*%
%ADD16C,0.150000*%
%ADD17C,0.096520*%
G04 APERTURE END LIST*
D10*
X192640857Y-127689428D02*
X191915142Y-127689428D01*
X191915142Y-126165428D01*
X193802000Y-127689428D02*
X193802000Y-126891142D01*
X193729428Y-126746000D01*
X193584285Y-126673428D01*
X193294000Y-126673428D01*
X193148857Y-126746000D01*
X193802000Y-127616857D02*
X193656857Y-127689428D01*
X193294000Y-127689428D01*
X193148857Y-127616857D01*
X193076285Y-127471714D01*
X193076285Y-127326571D01*
X193148857Y-127181428D01*
X193294000Y-127108857D01*
X193656857Y-127108857D01*
X193802000Y-127036285D01*
X194455142Y-127616857D02*
X194600285Y-127689428D01*
X194890571Y-127689428D01*
X195035714Y-127616857D01*
X195108285Y-127471714D01*
X195108285Y-127399142D01*
X195035714Y-127254000D01*
X194890571Y-127181428D01*
X194672857Y-127181428D01*
X194527714Y-127108857D01*
X194455142Y-126963714D01*
X194455142Y-126891142D01*
X194527714Y-126746000D01*
X194672857Y-126673428D01*
X194890571Y-126673428D01*
X195035714Y-126746000D01*
X196342000Y-127616857D02*
X196196857Y-127689428D01*
X195906571Y-127689428D01*
X195761428Y-127616857D01*
X195688857Y-127471714D01*
X195688857Y-126891142D01*
X195761428Y-126746000D01*
X195906571Y-126673428D01*
X196196857Y-126673428D01*
X196342000Y-126746000D01*
X196414571Y-126891142D01*
X196414571Y-127036285D01*
X195688857Y-127181428D01*
X197067714Y-127689428D02*
X197067714Y-126673428D01*
X197067714Y-126963714D02*
X197140285Y-126818571D01*
X197212857Y-126746000D01*
X197358000Y-126673428D01*
X197503142Y-126673428D01*
X200043142Y-127544285D02*
X199970571Y-127616857D01*
X199752857Y-127689428D01*
X199607714Y-127689428D01*
X199390000Y-127616857D01*
X199244857Y-127471714D01*
X199172285Y-127326571D01*
X199099714Y-127036285D01*
X199099714Y-126818571D01*
X199172285Y-126528285D01*
X199244857Y-126383142D01*
X199390000Y-126238000D01*
X199607714Y-126165428D01*
X199752857Y-126165428D01*
X199970571Y-126238000D01*
X200043142Y-126310571D01*
X200914000Y-127689428D02*
X200768857Y-127616857D01*
X200696285Y-127544285D01*
X200623714Y-127399142D01*
X200623714Y-126963714D01*
X200696285Y-126818571D01*
X200768857Y-126746000D01*
X200914000Y-126673428D01*
X201131714Y-126673428D01*
X201276857Y-126746000D01*
X201349428Y-126818571D01*
X201422000Y-126963714D01*
X201422000Y-127399142D01*
X201349428Y-127544285D01*
X201276857Y-127616857D01*
X201131714Y-127689428D01*
X200914000Y-127689428D01*
X202075142Y-126673428D02*
X202075142Y-127689428D01*
X202075142Y-126818571D02*
X202147714Y-126746000D01*
X202292857Y-126673428D01*
X202510571Y-126673428D01*
X202655714Y-126746000D01*
X202728285Y-126891142D01*
X202728285Y-127689428D01*
X203236285Y-126673428D02*
X203816857Y-126673428D01*
X203454000Y-126165428D02*
X203454000Y-127471714D01*
X203526571Y-127616857D01*
X203671714Y-127689428D01*
X203816857Y-127689428D01*
X204324857Y-127689428D02*
X204324857Y-126673428D01*
X204324857Y-126963714D02*
X204397428Y-126818571D01*
X204470000Y-126746000D01*
X204615142Y-126673428D01*
X204760285Y-126673428D01*
X205486000Y-127689428D02*
X205340857Y-127616857D01*
X205268285Y-127544285D01*
X205195714Y-127399142D01*
X205195714Y-126963714D01*
X205268285Y-126818571D01*
X205340857Y-126746000D01*
X205486000Y-126673428D01*
X205703714Y-126673428D01*
X205848857Y-126746000D01*
X205921428Y-126818571D01*
X205994000Y-126963714D01*
X205994000Y-127399142D01*
X205921428Y-127544285D01*
X205848857Y-127616857D01*
X205703714Y-127689428D01*
X205486000Y-127689428D01*
X206864857Y-127689428D02*
X206719714Y-127616857D01*
X206647142Y-127471714D01*
X206647142Y-126165428D01*
X209114571Y-126891142D02*
X209332285Y-126963714D01*
X209404857Y-127036285D01*
X209477428Y-127181428D01*
X209477428Y-127399142D01*
X209404857Y-127544285D01*
X209332285Y-127616857D01*
X209187142Y-127689428D01*
X208606571Y-127689428D01*
X208606571Y-126165428D01*
X209114571Y-126165428D01*
X209259714Y-126238000D01*
X209332285Y-126310571D01*
X209404857Y-126455714D01*
X209404857Y-126600857D01*
X209332285Y-126746000D01*
X209259714Y-126818571D01*
X209114571Y-126891142D01*
X208606571Y-126891142D01*
X210348285Y-127689428D02*
X210203142Y-127616857D01*
X210130571Y-127544285D01*
X210058000Y-127399142D01*
X210058000Y-126963714D01*
X210130571Y-126818571D01*
X210203142Y-126746000D01*
X210348285Y-126673428D01*
X210566000Y-126673428D01*
X210711142Y-126746000D01*
X210783714Y-126818571D01*
X210856285Y-126963714D01*
X210856285Y-127399142D01*
X210783714Y-127544285D01*
X210711142Y-127616857D01*
X210566000Y-127689428D01*
X210348285Y-127689428D01*
X212162571Y-127689428D02*
X212162571Y-126891142D01*
X212090000Y-126746000D01*
X211944857Y-126673428D01*
X211654571Y-126673428D01*
X211509428Y-126746000D01*
X212162571Y-127616857D02*
X212017428Y-127689428D01*
X211654571Y-127689428D01*
X211509428Y-127616857D01*
X211436857Y-127471714D01*
X211436857Y-127326571D01*
X211509428Y-127181428D01*
X211654571Y-127108857D01*
X212017428Y-127108857D01*
X212162571Y-127036285D01*
X212888285Y-127689428D02*
X212888285Y-126673428D01*
X212888285Y-126963714D02*
X212960857Y-126818571D01*
X213033428Y-126746000D01*
X213178571Y-126673428D01*
X213323714Y-126673428D01*
X214484857Y-127689428D02*
X214484857Y-126165428D01*
X214484857Y-127616857D02*
X214339714Y-127689428D01*
X214049428Y-127689428D01*
X213904285Y-127616857D01*
X213831714Y-127544285D01*
X213759142Y-127399142D01*
X213759142Y-126963714D01*
X213831714Y-126818571D01*
X213904285Y-126746000D01*
X214049428Y-126673428D01*
X214339714Y-126673428D01*
X214484857Y-126746000D01*
X196813714Y-128705428D02*
X197321714Y-130229428D01*
X197829714Y-128705428D01*
X198918285Y-130156857D02*
X198773142Y-130229428D01*
X198482857Y-130229428D01*
X198337714Y-130156857D01*
X198265142Y-130011714D01*
X198265142Y-129431142D01*
X198337714Y-129286000D01*
X198482857Y-129213428D01*
X198773142Y-129213428D01*
X198918285Y-129286000D01*
X198990857Y-129431142D01*
X198990857Y-129576285D01*
X198265142Y-129721428D01*
X199644000Y-130229428D02*
X199644000Y-129213428D01*
X199644000Y-129503714D02*
X199716571Y-129358571D01*
X199789142Y-129286000D01*
X199934285Y-129213428D01*
X200079428Y-129213428D01*
X200514857Y-130156857D02*
X200660000Y-130229428D01*
X200950285Y-130229428D01*
X201095428Y-130156857D01*
X201168000Y-130011714D01*
X201168000Y-129939142D01*
X201095428Y-129794000D01*
X200950285Y-129721428D01*
X200732571Y-129721428D01*
X200587428Y-129648857D01*
X200514857Y-129503714D01*
X200514857Y-129431142D01*
X200587428Y-129286000D01*
X200732571Y-129213428D01*
X200950285Y-129213428D01*
X201095428Y-129286000D01*
X201821142Y-130229428D02*
X201821142Y-129213428D01*
X201821142Y-128705428D02*
X201748571Y-128778000D01*
X201821142Y-128850571D01*
X201893714Y-128778000D01*
X201821142Y-128705428D01*
X201821142Y-128850571D01*
X202764571Y-130229428D02*
X202619428Y-130156857D01*
X202546857Y-130084285D01*
X202474285Y-129939142D01*
X202474285Y-129503714D01*
X202546857Y-129358571D01*
X202619428Y-129286000D01*
X202764571Y-129213428D01*
X202982285Y-129213428D01*
X203127428Y-129286000D01*
X203200000Y-129358571D01*
X203272571Y-129503714D01*
X203272571Y-129939142D01*
X203200000Y-130084285D01*
X203127428Y-130156857D01*
X202982285Y-130229428D01*
X202764571Y-130229428D01*
X203925714Y-129213428D02*
X203925714Y-130229428D01*
X203925714Y-129358571D02*
X203998285Y-129286000D01*
X204143428Y-129213428D01*
X204361142Y-129213428D01*
X204506285Y-129286000D01*
X204578857Y-129431142D01*
X204578857Y-130229428D01*
X207264000Y-130229428D02*
X206393142Y-130229428D01*
X206828571Y-130229428D02*
X206828571Y-128705428D01*
X206683428Y-128923142D01*
X206538285Y-129068285D01*
X206393142Y-129140857D01*
X207917142Y-130084285D02*
X207989714Y-130156857D01*
X207917142Y-130229428D01*
X207844571Y-130156857D01*
X207917142Y-130084285D01*
X207917142Y-130229428D01*
X208933142Y-128705428D02*
X209078285Y-128705428D01*
X209223428Y-128778000D01*
X209296000Y-128850571D01*
X209368571Y-128995714D01*
X209441142Y-129286000D01*
X209441142Y-129648857D01*
X209368571Y-129939142D01*
X209296000Y-130084285D01*
X209223428Y-130156857D01*
X209078285Y-130229428D01*
X208933142Y-130229428D01*
X208788000Y-130156857D01*
X208715428Y-130084285D01*
X208642857Y-129939142D01*
X208570285Y-129648857D01*
X208570285Y-129286000D01*
X208642857Y-128995714D01*
X208715428Y-128850571D01*
X208788000Y-128778000D01*
X208933142Y-128705428D01*
X193874571Y-131971142D02*
X194092285Y-132043714D01*
X194164857Y-132116285D01*
X194237428Y-132261428D01*
X194237428Y-132479142D01*
X194164857Y-132624285D01*
X194092285Y-132696857D01*
X193947142Y-132769428D01*
X193366571Y-132769428D01*
X193366571Y-131245428D01*
X193874571Y-131245428D01*
X194019714Y-131318000D01*
X194092285Y-131390571D01*
X194164857Y-131535714D01*
X194164857Y-131680857D01*
X194092285Y-131826000D01*
X194019714Y-131898571D01*
X193874571Y-131971142D01*
X193366571Y-131971142D01*
X194890571Y-132769428D02*
X194890571Y-131753428D01*
X194890571Y-132043714D02*
X194963142Y-131898571D01*
X195035714Y-131826000D01*
X195180857Y-131753428D01*
X195326000Y-131753428D01*
X195834000Y-132769428D02*
X195834000Y-131753428D01*
X195834000Y-131245428D02*
X195761428Y-131318000D01*
X195834000Y-131390571D01*
X195906571Y-131318000D01*
X195834000Y-131245428D01*
X195834000Y-131390571D01*
X197212857Y-132769428D02*
X197212857Y-131971142D01*
X197140285Y-131826000D01*
X196995142Y-131753428D01*
X196704857Y-131753428D01*
X196559714Y-131826000D01*
X197212857Y-132696857D02*
X197067714Y-132769428D01*
X196704857Y-132769428D01*
X196559714Y-132696857D01*
X196487142Y-132551714D01*
X196487142Y-132406571D01*
X196559714Y-132261428D01*
X196704857Y-132188857D01*
X197067714Y-132188857D01*
X197212857Y-132116285D01*
X197938571Y-131753428D02*
X197938571Y-132769428D01*
X197938571Y-131898571D02*
X198011142Y-131826000D01*
X198156285Y-131753428D01*
X198374000Y-131753428D01*
X198519142Y-131826000D01*
X198591714Y-131971142D01*
X198591714Y-132769428D01*
X200478571Y-132769428D02*
X200478571Y-131245428D01*
X201059142Y-131245428D01*
X201204285Y-131318000D01*
X201276857Y-131390571D01*
X201349428Y-131535714D01*
X201349428Y-131753428D01*
X201276857Y-131898571D01*
X201204285Y-131971142D01*
X201059142Y-132043714D01*
X200478571Y-132043714D01*
X202583142Y-132696857D02*
X202438000Y-132769428D01*
X202147714Y-132769428D01*
X202002571Y-132696857D01*
X201930000Y-132551714D01*
X201930000Y-131971142D01*
X202002571Y-131826000D01*
X202147714Y-131753428D01*
X202438000Y-131753428D01*
X202583142Y-131826000D01*
X202655714Y-131971142D01*
X202655714Y-132116285D01*
X201930000Y-132261428D01*
X203308857Y-131753428D02*
X203308857Y-133277428D01*
X203308857Y-131826000D02*
X203454000Y-131753428D01*
X203744285Y-131753428D01*
X203889428Y-131826000D01*
X203962000Y-131898571D01*
X204034571Y-132043714D01*
X204034571Y-132479142D01*
X203962000Y-132624285D01*
X203889428Y-132696857D01*
X203744285Y-132769428D01*
X203454000Y-132769428D01*
X203308857Y-132696857D01*
X204687714Y-132769428D02*
X204687714Y-131753428D01*
X204687714Y-131245428D02*
X204615142Y-131318000D01*
X204687714Y-131390571D01*
X204760285Y-131318000D01*
X204687714Y-131245428D01*
X204687714Y-131390571D01*
X205413428Y-131753428D02*
X205413428Y-132769428D01*
X205413428Y-131898571D02*
X205486000Y-131826000D01*
X205631142Y-131753428D01*
X205848857Y-131753428D01*
X205994000Y-131826000D01*
X206066571Y-131971142D01*
X206066571Y-132769428D01*
X207880857Y-131390571D02*
X207953428Y-131318000D01*
X208098571Y-131245428D01*
X208461428Y-131245428D01*
X208606571Y-131318000D01*
X208679142Y-131390571D01*
X208751714Y-131535714D01*
X208751714Y-131680857D01*
X208679142Y-131898571D01*
X207808285Y-132769428D01*
X208751714Y-132769428D01*
X209695142Y-131245428D02*
X209840285Y-131245428D01*
X209985428Y-131318000D01*
X210058000Y-131390571D01*
X210130571Y-131535714D01*
X210203142Y-131826000D01*
X210203142Y-132188857D01*
X210130571Y-132479142D01*
X210058000Y-132624285D01*
X209985428Y-132696857D01*
X209840285Y-132769428D01*
X209695142Y-132769428D01*
X209550000Y-132696857D01*
X209477428Y-132624285D01*
X209404857Y-132479142D01*
X209332285Y-132188857D01*
X209332285Y-131826000D01*
X209404857Y-131535714D01*
X209477428Y-131390571D01*
X209550000Y-131318000D01*
X209695142Y-131245428D01*
X210783714Y-131390571D02*
X210856285Y-131318000D01*
X211001428Y-131245428D01*
X211364285Y-131245428D01*
X211509428Y-131318000D01*
X211582000Y-131390571D01*
X211654571Y-131535714D01*
X211654571Y-131680857D01*
X211582000Y-131898571D01*
X210711142Y-132769428D01*
X211654571Y-132769428D01*
X213106000Y-132769428D02*
X212235142Y-132769428D01*
X212670571Y-132769428D02*
X212670571Y-131245428D01*
X212525428Y-131463142D01*
X212380285Y-131608285D01*
X212235142Y-131680857D01*
D11*
X95885000Y-113030000D02*
X95885000Y-93345000D01*
X106680000Y-113030000D02*
X95885000Y-113030000D01*
X106680000Y-93345000D02*
X106680000Y-113030000D01*
X95885000Y-93345000D02*
X106680000Y-93345000D01*
D12*
X99634523Y-111034285D02*
X99211190Y-111034285D01*
X99211190Y-111699523D02*
X99211190Y-110429523D01*
X99815952Y-110429523D01*
X100299761Y-111699523D02*
X100299761Y-110429523D01*
X101630238Y-111699523D02*
X101206904Y-111094761D01*
X100904523Y-111699523D02*
X100904523Y-110429523D01*
X101388333Y-110429523D01*
X101509285Y-110490000D01*
X101569761Y-110550476D01*
X101630238Y-110671428D01*
X101630238Y-110852857D01*
X101569761Y-110973809D01*
X101509285Y-111034285D01*
X101388333Y-111094761D01*
X100904523Y-111094761D01*
X102174523Y-111034285D02*
X102597857Y-111034285D01*
X102779285Y-111699523D02*
X102174523Y-111699523D01*
X102174523Y-110429523D01*
X102779285Y-110429523D01*
D13*
X118056000Y-83312000D02*
G75*
G03*
X118056000Y-83312000I-200000J0D01*
G01*
X143964000Y-124587000D02*
G75*
G03*
X143964000Y-124587000I-200000J0D01*
G01*
X150949000Y-120396000D02*
G75*
G03*
X150949000Y-120396000I-200000J0D01*
G01*
X174317000Y-82550000D02*
G75*
G03*
X174317000Y-82550000I-200000J0D01*
G01*
X205178000Y-105972000D02*
G75*
G03*
X205178000Y-105972000I-200000J0D01*
G01*
D14*
X99084190Y-107774619D02*
X98600380Y-107774619D01*
X98600380Y-106758619D01*
X99374476Y-107484333D02*
X99858285Y-107484333D01*
X99277714Y-107774619D02*
X99616380Y-106758619D01*
X99955047Y-107774619D01*
X100148571Y-106758619D02*
X100729142Y-106758619D01*
X100438857Y-107774619D02*
X100438857Y-106758619D01*
X101648380Y-107677857D02*
X101600000Y-107726238D01*
X101454857Y-107774619D01*
X101358095Y-107774619D01*
X101212952Y-107726238D01*
X101116190Y-107629476D01*
X101067809Y-107532714D01*
X101019428Y-107339190D01*
X101019428Y-107194047D01*
X101067809Y-107000523D01*
X101116190Y-106903761D01*
X101212952Y-106807000D01*
X101358095Y-106758619D01*
X101454857Y-106758619D01*
X101600000Y-106807000D01*
X101648380Y-106855380D01*
X102083809Y-107774619D02*
X102083809Y-106758619D01*
X102083809Y-107242428D02*
X102664380Y-107242428D01*
X102664380Y-107774619D02*
X102664380Y-106758619D01*
X103148190Y-107242428D02*
X103486857Y-107242428D01*
X103632000Y-107774619D02*
X103148190Y-107774619D01*
X103148190Y-106758619D01*
X103632000Y-106758619D01*
X104067428Y-107774619D02*
X104067428Y-106758619D01*
X104309333Y-106758619D01*
X104454476Y-106807000D01*
X104551238Y-106903761D01*
X104599619Y-107000523D01*
X104648000Y-107194047D01*
X104648000Y-107339190D01*
X104599619Y-107532714D01*
X104551238Y-107629476D01*
X104454476Y-107726238D01*
X104309333Y-107774619D01*
X104067428Y-107774619D01*
X97390857Y-96344619D02*
X97390857Y-95328619D01*
X97729523Y-96054333D01*
X98068190Y-95328619D01*
X98068190Y-96344619D01*
X98745523Y-95328619D02*
X98939047Y-95328619D01*
X99035809Y-95377000D01*
X99132571Y-95473761D01*
X99180952Y-95667285D01*
X99180952Y-96005952D01*
X99132571Y-96199476D01*
X99035809Y-96296238D01*
X98939047Y-96344619D01*
X98745523Y-96344619D01*
X98648761Y-96296238D01*
X98552000Y-96199476D01*
X98503619Y-96005952D01*
X98503619Y-95667285D01*
X98552000Y-95473761D01*
X98648761Y-95377000D01*
X98745523Y-95328619D01*
X99616380Y-96344619D02*
X99616380Y-95328619D01*
X99955047Y-96054333D01*
X100293714Y-95328619D01*
X100293714Y-96344619D01*
X100777523Y-95812428D02*
X101116190Y-95812428D01*
X101261333Y-96344619D02*
X100777523Y-96344619D01*
X100777523Y-95328619D01*
X101261333Y-95328619D01*
X101696761Y-96344619D02*
X101696761Y-95328619D01*
X102277333Y-96344619D01*
X102277333Y-95328619D01*
X102616000Y-95328619D02*
X103196571Y-95328619D01*
X102906285Y-96344619D02*
X102906285Y-95328619D01*
X103486857Y-96054333D02*
X103970666Y-96054333D01*
X103390095Y-96344619D02*
X103728761Y-95328619D01*
X104067428Y-96344619D01*
X104986666Y-96344619D02*
X104648000Y-95860809D01*
X104406095Y-96344619D02*
X104406095Y-95328619D01*
X104793142Y-95328619D01*
X104889904Y-95377000D01*
X104938285Y-95425380D01*
X104986666Y-95522142D01*
X104986666Y-95667285D01*
X104938285Y-95764047D01*
X104889904Y-95812428D01*
X104793142Y-95860809D01*
X104406095Y-95860809D01*
X105615619Y-95860809D02*
X105615619Y-96344619D01*
X105276952Y-95328619D02*
X105615619Y-95860809D01*
X105954285Y-95328619D01*
D10*
X223520000Y-106680000D02*
X223520000Y-93980000D01*
X233045000Y-106680000D02*
X223520000Y-106680000D01*
X233045000Y-93980000D02*
X233045000Y-106680000D01*
X223520000Y-93980000D02*
X233045000Y-93980000D01*
X226634523Y-105137857D02*
X225364523Y-105137857D01*
X226634523Y-104533095D02*
X225364523Y-104533095D01*
X226634523Y-103807380D01*
X225364523Y-103807380D01*
X225364523Y-103384047D02*
X225364523Y-102658333D01*
X226634523Y-103021190D02*
X225364523Y-103021190D01*
X225969285Y-102235000D02*
X225969285Y-101811666D01*
X226634523Y-101630238D02*
X226634523Y-102235000D01*
X225364523Y-102235000D01*
X225364523Y-101630238D01*
X226634523Y-100360238D02*
X226029761Y-100783571D01*
X226634523Y-101085952D02*
X225364523Y-101085952D01*
X225364523Y-100602142D01*
X225425000Y-100481190D01*
X225485476Y-100420714D01*
X225606428Y-100360238D01*
X225787857Y-100360238D01*
X225908809Y-100420714D01*
X225969285Y-100481190D01*
X226029761Y-100602142D01*
X226029761Y-101085952D01*
X226634523Y-99211190D02*
X226634523Y-99815952D01*
X225364523Y-99815952D01*
X225364523Y-98545952D02*
X225364523Y-98304047D01*
X225425000Y-98183095D01*
X225545952Y-98062142D01*
X225787857Y-98001666D01*
X226211190Y-98001666D01*
X226453095Y-98062142D01*
X226574047Y-98183095D01*
X226634523Y-98304047D01*
X226634523Y-98545952D01*
X226574047Y-98666904D01*
X226453095Y-98787857D01*
X226211190Y-98848333D01*
X225787857Y-98848333D01*
X225545952Y-98787857D01*
X225425000Y-98666904D01*
X225364523Y-98545952D01*
X226513571Y-96731666D02*
X226574047Y-96792142D01*
X226634523Y-96973571D01*
X226634523Y-97094523D01*
X226574047Y-97275952D01*
X226453095Y-97396904D01*
X226332142Y-97457380D01*
X226090238Y-97517857D01*
X225908809Y-97517857D01*
X225666904Y-97457380D01*
X225545952Y-97396904D01*
X225425000Y-97275952D01*
X225364523Y-97094523D01*
X225364523Y-96973571D01*
X225425000Y-96792142D01*
X225485476Y-96731666D01*
X226634523Y-96187380D02*
X225364523Y-96187380D01*
X226634523Y-95461666D02*
X225908809Y-96005952D01*
X225364523Y-95461666D02*
X226090238Y-96187380D01*
D15*
%TO.C,USB1*%
G36*
X122844000Y-132763000D02*
G01*
X122844000Y-118263000D01*
X123594000Y-118263000D01*
X123594000Y-132763000D01*
X122844000Y-132763000D01*
G37*
X122844000Y-132763000D02*
X122844000Y-118263000D01*
X123594000Y-118263000D01*
X123594000Y-132763000D01*
X122844000Y-132763000D01*
D11*
X122844000Y-132763000D02*
X136944000Y-132763000D01*
X136944000Y-118263000D02*
X122844000Y-118263000D01*
X136944000Y-118263000D02*
X136944000Y-132763000D01*
X122844000Y-118263000D02*
X122844000Y-132763000D01*
%TO.C,C10*%
X125895000Y-82034748D02*
X125895000Y-82557252D01*
X124425000Y-82034748D02*
X124425000Y-82557252D01*
%TO.C,U3*%
X121350000Y-92102000D02*
X124110000Y-92102000D01*
X124110000Y-92102000D02*
X124110000Y-91827000D01*
X121350000Y-92102000D02*
X118590000Y-92102000D01*
X118590000Y-92102000D02*
X118590000Y-91827000D01*
X121350000Y-84682000D02*
X124110000Y-84682000D01*
X124110000Y-84682000D02*
X124110000Y-84957000D01*
X121350000Y-84682000D02*
X118590000Y-84682000D01*
X118590000Y-84682000D02*
X118590000Y-84957000D01*
X118590000Y-84957000D02*
X116900000Y-84957000D01*
%TO.C,C15*%
X209288748Y-104040000D02*
X209811252Y-104040000D01*
X209288748Y-105510000D02*
X209811252Y-105510000D01*
D16*
%TO.C,U4*%
X204285000Y-105225000D02*
X204285000Y-105000000D01*
X197035000Y-105225000D02*
X197035000Y-104900000D01*
X197035000Y-97975000D02*
X197035000Y-98300000D01*
X204285000Y-97975000D02*
X204285000Y-98300000D01*
X204285000Y-105225000D02*
X203960000Y-105225000D01*
X204285000Y-97975000D02*
X203960000Y-97975000D01*
X197035000Y-97975000D02*
X197360000Y-97975000D01*
X197035000Y-105225000D02*
X197360000Y-105225000D01*
X204285000Y-105000000D02*
X205710000Y-105000000D01*
D11*
%TO.C,Y1*%
X207900000Y-102965000D02*
X211200000Y-102965000D01*
X211200000Y-102965000D02*
X211200000Y-98965000D01*
%TO.C,U5*%
X142586000Y-121363000D02*
X140786000Y-121363000D01*
X140786000Y-124583000D02*
X143236000Y-124583000D01*
D16*
%TO.C,U2*%
X144472000Y-120973000D02*
X144472000Y-124973000D01*
X149872000Y-119698000D02*
X149872000Y-124973000D01*
D11*
%TO.C,U1*%
X177038000Y-88841000D02*
X179238000Y-88841000D01*
X177038000Y-88841000D02*
X174838000Y-88841000D01*
X177038000Y-83371000D02*
X179238000Y-83371000D01*
X177038000Y-83371000D02*
X173438000Y-83371000D01*
%TO.C,SW3*%
X100270000Y-105470000D02*
X102930000Y-105470000D01*
X100270000Y-100330000D02*
X100270000Y-105470000D01*
X102930000Y-100330000D02*
X102930000Y-105470000D01*
X100270000Y-100330000D02*
X102930000Y-100330000D01*
X100270000Y-99060000D02*
X100270000Y-97730000D01*
X100270000Y-97730000D02*
X101600000Y-97730000D01*
%TO.C,SW2*%
X228540000Y-102930000D02*
X231200000Y-102930000D01*
X228540000Y-100330000D02*
X228540000Y-102930000D01*
X231200000Y-100330000D02*
X231200000Y-102930000D01*
X228540000Y-100330000D02*
X231200000Y-100330000D01*
X228540000Y-99060000D02*
X228540000Y-97730000D01*
X228540000Y-97730000D02*
X229870000Y-97730000D01*
%TO.C,R7*%
X141458936Y-125413000D02*
X141913064Y-125413000D01*
X141458936Y-126883000D02*
X141913064Y-126883000D01*
%TO.C,R6*%
X141458936Y-119063000D02*
X141913064Y-119063000D01*
X141458936Y-120533000D02*
X141913064Y-120533000D01*
%TO.C,R3*%
X199925000Y-110717064D02*
X199925000Y-110262936D01*
X201395000Y-110717064D02*
X201395000Y-110262936D01*
%TO.C,R2*%
X145522936Y-132144000D02*
X145977064Y-132144000D01*
X145522936Y-133614000D02*
X145977064Y-133614000D01*
%TO.C,R1*%
X170715000Y-83539064D02*
X170715000Y-83084936D01*
X172185000Y-83539064D02*
X172185000Y-83084936D01*
%TO.C,MCU1*%
X210950000Y-65290000D02*
X210950000Y-74410000D01*
X210950000Y-74410000D02*
X185290000Y-74410000D01*
X185290000Y-74410000D02*
X185290000Y-65290000D01*
X185290000Y-65290000D02*
X210950000Y-65290000D01*
X200170000Y-65290000D02*
X200170000Y-66600000D01*
X200170000Y-66600000D02*
X209650000Y-66600000D01*
X209650000Y-66600000D02*
X209650000Y-73100000D01*
X209650000Y-73100000D02*
X186590000Y-73100000D01*
X186590000Y-73100000D02*
X186590000Y-66600000D01*
X186590000Y-66600000D02*
X196070000Y-66600000D01*
X196070000Y-66600000D02*
X196070000Y-66600000D01*
X196070000Y-66600000D02*
X196070000Y-65290000D01*
X205740000Y-64900000D02*
X206240000Y-63900000D01*
X206240000Y-63900000D02*
X205240000Y-63900000D01*
X205240000Y-63900000D02*
X205740000Y-64900000D01*
D14*
%TO.C,ISP1*%
X195580000Y-81280000D02*
X195580000Y-89408000D01*
X185166000Y-81280000D02*
X195580000Y-81280000D01*
X185166000Y-89408000D02*
X185166000Y-81280000D01*
X195580000Y-89408000D02*
X185166000Y-89408000D01*
D11*
%TO.C,C14*%
X192481252Y-96160000D02*
X191058748Y-96160000D01*
X192481252Y-94340000D02*
X191058748Y-94340000D01*
%TO.C,C13*%
X204266748Y-113390000D02*
X205689252Y-113390000D01*
X204266748Y-115210000D02*
X205689252Y-115210000D01*
%TO.C,C12*%
X215794000Y-69900748D02*
X215794000Y-71323252D01*
X213974000Y-69900748D02*
X213974000Y-71323252D01*
%TO.C,C11*%
X192143748Y-98325000D02*
X192666252Y-98325000D01*
X192143748Y-99795000D02*
X192666252Y-99795000D01*
%TO.C,C9*%
X192666252Y-102335000D02*
X192143748Y-102335000D01*
X192666252Y-100865000D02*
X192143748Y-100865000D01*
%TO.C,C8*%
X209811252Y-97890000D02*
X209288748Y-97890000D01*
X209811252Y-96420000D02*
X209288748Y-96420000D01*
%TO.C,C7*%
X211990000Y-101226252D02*
X211990000Y-100703748D01*
X213460000Y-101226252D02*
X213460000Y-100703748D01*
%TO.C,C6*%
X146011252Y-131328000D02*
X145488748Y-131328000D01*
X146011252Y-129858000D02*
X145488748Y-129858000D01*
%TO.C,C5*%
X204731252Y-117575000D02*
X204208748Y-117575000D01*
X204731252Y-116105000D02*
X204208748Y-116105000D01*
%TO.C,C4*%
X146011252Y-128788000D02*
X145488748Y-128788000D01*
X146011252Y-127318000D02*
X145488748Y-127318000D01*
%TO.C,C3*%
X181236252Y-82650000D02*
X180713748Y-82650000D01*
X181236252Y-81180000D02*
X180713748Y-81180000D01*
%TO.C,C2*%
X141947252Y-117993000D02*
X141424748Y-117993000D01*
X141947252Y-116523000D02*
X141424748Y-116523000D01*
%TO.C,C1*%
X141947252Y-129296000D02*
X141424748Y-129296000D01*
X141947252Y-127826000D02*
X141424748Y-127826000D01*
%TO.C,USB1*%
D16*
X123451904Y-116627380D02*
X123451904Y-117436904D01*
X123499523Y-117532142D01*
X123547142Y-117579761D01*
X123642380Y-117627380D01*
X123832857Y-117627380D01*
X123928095Y-117579761D01*
X123975714Y-117532142D01*
X124023333Y-117436904D01*
X124023333Y-116627380D01*
X124451904Y-117579761D02*
X124594761Y-117627380D01*
X124832857Y-117627380D01*
X124928095Y-117579761D01*
X124975714Y-117532142D01*
X125023333Y-117436904D01*
X125023333Y-117341666D01*
X124975714Y-117246428D01*
X124928095Y-117198809D01*
X124832857Y-117151190D01*
X124642380Y-117103571D01*
X124547142Y-117055952D01*
X124499523Y-117008333D01*
X124451904Y-116913095D01*
X124451904Y-116817857D01*
X124499523Y-116722619D01*
X124547142Y-116675000D01*
X124642380Y-116627380D01*
X124880476Y-116627380D01*
X125023333Y-116675000D01*
X125785238Y-117103571D02*
X125928095Y-117151190D01*
X125975714Y-117198809D01*
X126023333Y-117294047D01*
X126023333Y-117436904D01*
X125975714Y-117532142D01*
X125928095Y-117579761D01*
X125832857Y-117627380D01*
X125451904Y-117627380D01*
X125451904Y-116627380D01*
X125785238Y-116627380D01*
X125880476Y-116675000D01*
X125928095Y-116722619D01*
X125975714Y-116817857D01*
X125975714Y-116913095D01*
X125928095Y-117008333D01*
X125880476Y-117055952D01*
X125785238Y-117103571D01*
X125451904Y-117103571D01*
X126975714Y-117627380D02*
X126404285Y-117627380D01*
X126690000Y-117627380D02*
X126690000Y-116627380D01*
X126594761Y-116770238D01*
X126499523Y-116865476D01*
X126404285Y-116913095D01*
%TO.C,C10*%
X127197142Y-82938857D02*
X127244761Y-82986476D01*
X127292380Y-83129333D01*
X127292380Y-83224571D01*
X127244761Y-83367428D01*
X127149523Y-83462666D01*
X127054285Y-83510285D01*
X126863809Y-83557904D01*
X126720952Y-83557904D01*
X126530476Y-83510285D01*
X126435238Y-83462666D01*
X126340000Y-83367428D01*
X126292380Y-83224571D01*
X126292380Y-83129333D01*
X126340000Y-82986476D01*
X126387619Y-82938857D01*
X127292380Y-81986476D02*
X127292380Y-82557904D01*
X127292380Y-82272190D02*
X126292380Y-82272190D01*
X126435238Y-82367428D01*
X126530476Y-82462666D01*
X126578095Y-82557904D01*
X126292380Y-81367428D02*
X126292380Y-81272190D01*
X126340000Y-81176952D01*
X126387619Y-81129333D01*
X126482857Y-81081714D01*
X126673333Y-81034095D01*
X126911428Y-81034095D01*
X127101904Y-81081714D01*
X127197142Y-81129333D01*
X127244761Y-81176952D01*
X127292380Y-81272190D01*
X127292380Y-81367428D01*
X127244761Y-81462666D01*
X127197142Y-81510285D01*
X127101904Y-81557904D01*
X126911428Y-81605523D01*
X126673333Y-81605523D01*
X126482857Y-81557904D01*
X126387619Y-81510285D01*
X126340000Y-81462666D01*
X126292380Y-81367428D01*
%TO.C,U3*%
X120588095Y-83294380D02*
X120588095Y-84103904D01*
X120635714Y-84199142D01*
X120683333Y-84246761D01*
X120778571Y-84294380D01*
X120969047Y-84294380D01*
X121064285Y-84246761D01*
X121111904Y-84199142D01*
X121159523Y-84103904D01*
X121159523Y-83294380D01*
X121540476Y-83294380D02*
X122159523Y-83294380D01*
X121826190Y-83675333D01*
X121969047Y-83675333D01*
X122064285Y-83722952D01*
X122111904Y-83770571D01*
X122159523Y-83865809D01*
X122159523Y-84103904D01*
X122111904Y-84199142D01*
X122064285Y-84246761D01*
X121969047Y-84294380D01*
X121683333Y-84294380D01*
X121588095Y-84246761D01*
X121540476Y-84199142D01*
%TO.C,C15*%
X208907142Y-107037142D02*
X208859523Y-107084761D01*
X208716666Y-107132380D01*
X208621428Y-107132380D01*
X208478571Y-107084761D01*
X208383333Y-106989523D01*
X208335714Y-106894285D01*
X208288095Y-106703809D01*
X208288095Y-106560952D01*
X208335714Y-106370476D01*
X208383333Y-106275238D01*
X208478571Y-106180000D01*
X208621428Y-106132380D01*
X208716666Y-106132380D01*
X208859523Y-106180000D01*
X208907142Y-106227619D01*
X209859523Y-107132380D02*
X209288095Y-107132380D01*
X209573809Y-107132380D02*
X209573809Y-106132380D01*
X209478571Y-106275238D01*
X209383333Y-106370476D01*
X209288095Y-106418095D01*
X210764285Y-106132380D02*
X210288095Y-106132380D01*
X210240476Y-106608571D01*
X210288095Y-106560952D01*
X210383333Y-106513333D01*
X210621428Y-106513333D01*
X210716666Y-106560952D01*
X210764285Y-106608571D01*
X210811904Y-106703809D01*
X210811904Y-106941904D01*
X210764285Y-107037142D01*
X210716666Y-107084761D01*
X210621428Y-107132380D01*
X210383333Y-107132380D01*
X210288095Y-107084761D01*
X210240476Y-107037142D01*
%TO.C,U4*%
X204470095Y-107275380D02*
X204470095Y-108084904D01*
X204517714Y-108180142D01*
X204565333Y-108227761D01*
X204660571Y-108275380D01*
X204851047Y-108275380D01*
X204946285Y-108227761D01*
X204993904Y-108180142D01*
X205041523Y-108084904D01*
X205041523Y-107275380D01*
X205946285Y-107608714D02*
X205946285Y-108275380D01*
X205708190Y-107227761D02*
X205470095Y-107942047D01*
X206089142Y-107942047D01*
%TO.C,Y1*%
X206986190Y-101441190D02*
X207462380Y-101441190D01*
X206462380Y-101774523D02*
X206986190Y-101441190D01*
X206462380Y-101107857D01*
X207462380Y-100250714D02*
X207462380Y-100822142D01*
X207462380Y-100536428D02*
X206462380Y-100536428D01*
X206605238Y-100631666D01*
X206700476Y-100726904D01*
X206748095Y-100822142D01*
%TO.C,U5*%
X138598380Y-123734904D02*
X139407904Y-123734904D01*
X139503142Y-123687285D01*
X139550761Y-123639666D01*
X139598380Y-123544428D01*
X139598380Y-123353952D01*
X139550761Y-123258714D01*
X139503142Y-123211095D01*
X139407904Y-123163476D01*
X138598380Y-123163476D01*
X138598380Y-122211095D02*
X138598380Y-122687285D01*
X139074571Y-122734904D01*
X139026952Y-122687285D01*
X138979333Y-122592047D01*
X138979333Y-122353952D01*
X139026952Y-122258714D01*
X139074571Y-122211095D01*
X139169809Y-122163476D01*
X139407904Y-122163476D01*
X139503142Y-122211095D01*
X139550761Y-122258714D01*
X139598380Y-122353952D01*
X139598380Y-122592047D01*
X139550761Y-122687285D01*
X139503142Y-122734904D01*
%TO.C,U2*%
X145034095Y-118324380D02*
X145034095Y-119133904D01*
X145081714Y-119229142D01*
X145129333Y-119276761D01*
X145224571Y-119324380D01*
X145415047Y-119324380D01*
X145510285Y-119276761D01*
X145557904Y-119229142D01*
X145605523Y-119133904D01*
X145605523Y-118324380D01*
X146034095Y-118419619D02*
X146081714Y-118372000D01*
X146176952Y-118324380D01*
X146415047Y-118324380D01*
X146510285Y-118372000D01*
X146557904Y-118419619D01*
X146605523Y-118514857D01*
X146605523Y-118610095D01*
X146557904Y-118752952D01*
X145986476Y-119324380D01*
X146605523Y-119324380D01*
%TO.C,U1*%
X176403095Y-88987380D02*
X176403095Y-89796904D01*
X176450714Y-89892142D01*
X176498333Y-89939761D01*
X176593571Y-89987380D01*
X176784047Y-89987380D01*
X176879285Y-89939761D01*
X176926904Y-89892142D01*
X176974523Y-89796904D01*
X176974523Y-88987380D01*
X177974523Y-89987380D02*
X177403095Y-89987380D01*
X177688809Y-89987380D02*
X177688809Y-88987380D01*
X177593571Y-89130238D01*
X177498333Y-89225476D01*
X177403095Y-89273095D01*
%TO.C,SW3*%
X99464761Y-102933333D02*
X99512380Y-102790476D01*
X99512380Y-102552380D01*
X99464761Y-102457142D01*
X99417142Y-102409523D01*
X99321904Y-102361904D01*
X99226666Y-102361904D01*
X99131428Y-102409523D01*
X99083809Y-102457142D01*
X99036190Y-102552380D01*
X98988571Y-102742857D01*
X98940952Y-102838095D01*
X98893333Y-102885714D01*
X98798095Y-102933333D01*
X98702857Y-102933333D01*
X98607619Y-102885714D01*
X98560000Y-102838095D01*
X98512380Y-102742857D01*
X98512380Y-102504761D01*
X98560000Y-102361904D01*
X98512380Y-102028571D02*
X99512380Y-101790476D01*
X98798095Y-101600000D01*
X99512380Y-101409523D01*
X98512380Y-101171428D01*
X98512380Y-100885714D02*
X98512380Y-100266666D01*
X98893333Y-100600000D01*
X98893333Y-100457142D01*
X98940952Y-100361904D01*
X98988571Y-100314285D01*
X99083809Y-100266666D01*
X99321904Y-100266666D01*
X99417142Y-100314285D01*
X99464761Y-100361904D01*
X99512380Y-100457142D01*
X99512380Y-100742857D01*
X99464761Y-100838095D01*
X99417142Y-100885714D01*
%TO.C,SW2*%
X228536666Y-97134761D02*
X228679523Y-97182380D01*
X228917619Y-97182380D01*
X229012857Y-97134761D01*
X229060476Y-97087142D01*
X229108095Y-96991904D01*
X229108095Y-96896666D01*
X229060476Y-96801428D01*
X229012857Y-96753809D01*
X228917619Y-96706190D01*
X228727142Y-96658571D01*
X228631904Y-96610952D01*
X228584285Y-96563333D01*
X228536666Y-96468095D01*
X228536666Y-96372857D01*
X228584285Y-96277619D01*
X228631904Y-96230000D01*
X228727142Y-96182380D01*
X228965238Y-96182380D01*
X229108095Y-96230000D01*
X229441428Y-96182380D02*
X229679523Y-97182380D01*
X229870000Y-96468095D01*
X230060476Y-97182380D01*
X230298571Y-96182380D01*
X230631904Y-96277619D02*
X230679523Y-96230000D01*
X230774761Y-96182380D01*
X231012857Y-96182380D01*
X231108095Y-96230000D01*
X231155714Y-96277619D01*
X231203333Y-96372857D01*
X231203333Y-96468095D01*
X231155714Y-96610952D01*
X230584285Y-97182380D01*
X231203333Y-97182380D01*
%TO.C,R7*%
X139852380Y-126441666D02*
X139376190Y-126775000D01*
X139852380Y-127013095D02*
X138852380Y-127013095D01*
X138852380Y-126632142D01*
X138900000Y-126536904D01*
X138947619Y-126489285D01*
X139042857Y-126441666D01*
X139185714Y-126441666D01*
X139280952Y-126489285D01*
X139328571Y-126536904D01*
X139376190Y-126632142D01*
X139376190Y-127013095D01*
X138852380Y-126108333D02*
X138852380Y-125441666D01*
X139852380Y-125870238D01*
%TO.C,R6*%
X139852380Y-119837666D02*
X139376190Y-120171000D01*
X139852380Y-120409095D02*
X138852380Y-120409095D01*
X138852380Y-120028142D01*
X138900000Y-119932904D01*
X138947619Y-119885285D01*
X139042857Y-119837666D01*
X139185714Y-119837666D01*
X139280952Y-119885285D01*
X139328571Y-119932904D01*
X139376190Y-120028142D01*
X139376190Y-120409095D01*
X138852380Y-118980523D02*
X138852380Y-119171000D01*
X138900000Y-119266238D01*
X138947619Y-119313857D01*
X139090476Y-119409095D01*
X139280952Y-119456714D01*
X139661904Y-119456714D01*
X139757142Y-119409095D01*
X139804761Y-119361476D01*
X139852380Y-119266238D01*
X139852380Y-119075761D01*
X139804761Y-118980523D01*
X139757142Y-118932904D01*
X139661904Y-118885285D01*
X139423809Y-118885285D01*
X139328571Y-118932904D01*
X139280952Y-118980523D01*
X139233333Y-119075761D01*
X139233333Y-119266238D01*
X139280952Y-119361476D01*
X139328571Y-119409095D01*
X139423809Y-119456714D01*
%TO.C,R3*%
X199462380Y-110656666D02*
X198986190Y-110990000D01*
X199462380Y-111228095D02*
X198462380Y-111228095D01*
X198462380Y-110847142D01*
X198510000Y-110751904D01*
X198557619Y-110704285D01*
X198652857Y-110656666D01*
X198795714Y-110656666D01*
X198890952Y-110704285D01*
X198938571Y-110751904D01*
X198986190Y-110847142D01*
X198986190Y-111228095D01*
X198462380Y-110323333D02*
X198462380Y-109704285D01*
X198843333Y-110037619D01*
X198843333Y-109894761D01*
X198890952Y-109799523D01*
X198938571Y-109751904D01*
X199033809Y-109704285D01*
X199271904Y-109704285D01*
X199367142Y-109751904D01*
X199414761Y-109799523D01*
X199462380Y-109894761D01*
X199462380Y-110180476D01*
X199414761Y-110275714D01*
X199367142Y-110323333D01*
%TO.C,R2*%
X148377333Y-133331380D02*
X148044000Y-132855190D01*
X147805904Y-133331380D02*
X147805904Y-132331380D01*
X148186857Y-132331380D01*
X148282095Y-132379000D01*
X148329714Y-132426619D01*
X148377333Y-132521857D01*
X148377333Y-132664714D01*
X148329714Y-132759952D01*
X148282095Y-132807571D01*
X148186857Y-132855190D01*
X147805904Y-132855190D01*
X148758285Y-132426619D02*
X148805904Y-132379000D01*
X148901142Y-132331380D01*
X149139238Y-132331380D01*
X149234476Y-132379000D01*
X149282095Y-132426619D01*
X149329714Y-132521857D01*
X149329714Y-132617095D01*
X149282095Y-132759952D01*
X148710666Y-133331380D01*
X149329714Y-133331380D01*
%TO.C,R1*%
X170252380Y-83478666D02*
X169776190Y-83812000D01*
X170252380Y-84050095D02*
X169252380Y-84050095D01*
X169252380Y-83669142D01*
X169300000Y-83573904D01*
X169347619Y-83526285D01*
X169442857Y-83478666D01*
X169585714Y-83478666D01*
X169680952Y-83526285D01*
X169728571Y-83573904D01*
X169776190Y-83669142D01*
X169776190Y-84050095D01*
X170252380Y-82526285D02*
X170252380Y-83097714D01*
X170252380Y-82812000D02*
X169252380Y-82812000D01*
X169395238Y-82907238D01*
X169490476Y-83002476D01*
X169538095Y-83097714D01*
%TO.C,MCU1*%
X212292380Y-71683333D02*
X211292380Y-71683333D01*
X212006666Y-71350000D01*
X211292380Y-71016666D01*
X212292380Y-71016666D01*
X212197142Y-69969047D02*
X212244761Y-70016666D01*
X212292380Y-70159523D01*
X212292380Y-70254761D01*
X212244761Y-70397619D01*
X212149523Y-70492857D01*
X212054285Y-70540476D01*
X211863809Y-70588095D01*
X211720952Y-70588095D01*
X211530476Y-70540476D01*
X211435238Y-70492857D01*
X211340000Y-70397619D01*
X211292380Y-70254761D01*
X211292380Y-70159523D01*
X211340000Y-70016666D01*
X211387619Y-69969047D01*
X211292380Y-69540476D02*
X212101904Y-69540476D01*
X212197142Y-69492857D01*
X212244761Y-69445238D01*
X212292380Y-69350000D01*
X212292380Y-69159523D01*
X212244761Y-69064285D01*
X212197142Y-69016666D01*
X212101904Y-68969047D01*
X211292380Y-68969047D01*
X212292380Y-67969047D02*
X212292380Y-68540476D01*
X212292380Y-68254761D02*
X211292380Y-68254761D01*
X211435238Y-68350000D01*
X211530476Y-68445238D01*
X211578095Y-68540476D01*
%TO.C,ISP1*%
D17*
X191901404Y-91001547D02*
X191901404Y-89795047D01*
X192418476Y-90944095D02*
X192590833Y-91001547D01*
X192878095Y-91001547D01*
X192993000Y-90944095D01*
X193050452Y-90886642D01*
X193107904Y-90771738D01*
X193107904Y-90656833D01*
X193050452Y-90541928D01*
X192993000Y-90484476D01*
X192878095Y-90427023D01*
X192648285Y-90369571D01*
X192533381Y-90312119D01*
X192475928Y-90254666D01*
X192418476Y-90139761D01*
X192418476Y-90024857D01*
X192475928Y-89909952D01*
X192533381Y-89852500D01*
X192648285Y-89795047D01*
X192935547Y-89795047D01*
X193107904Y-89852500D01*
X193624976Y-91001547D02*
X193624976Y-89795047D01*
X194084595Y-89795047D01*
X194199500Y-89852500D01*
X194256952Y-89909952D01*
X194314404Y-90024857D01*
X194314404Y-90197214D01*
X194256952Y-90312119D01*
X194199500Y-90369571D01*
X194084595Y-90427023D01*
X193624976Y-90427023D01*
X195463452Y-91001547D02*
X194774023Y-91001547D01*
X195118738Y-91001547D02*
X195118738Y-89795047D01*
X195003833Y-89967404D01*
X194888928Y-90082309D01*
X194774023Y-90139761D01*
%TO.C,C14*%
D16*
X191127142Y-93702142D02*
X191079523Y-93749761D01*
X190936666Y-93797380D01*
X190841428Y-93797380D01*
X190698571Y-93749761D01*
X190603333Y-93654523D01*
X190555714Y-93559285D01*
X190508095Y-93368809D01*
X190508095Y-93225952D01*
X190555714Y-93035476D01*
X190603333Y-92940238D01*
X190698571Y-92845000D01*
X190841428Y-92797380D01*
X190936666Y-92797380D01*
X191079523Y-92845000D01*
X191127142Y-92892619D01*
X192079523Y-93797380D02*
X191508095Y-93797380D01*
X191793809Y-93797380D02*
X191793809Y-92797380D01*
X191698571Y-92940238D01*
X191603333Y-93035476D01*
X191508095Y-93083095D01*
X192936666Y-93130714D02*
X192936666Y-93797380D01*
X192698571Y-92749761D02*
X192460476Y-93464047D01*
X193079523Y-93464047D01*
%TO.C,C13*%
X199763142Y-114784142D02*
X199715523Y-114831761D01*
X199572666Y-114879380D01*
X199477428Y-114879380D01*
X199334571Y-114831761D01*
X199239333Y-114736523D01*
X199191714Y-114641285D01*
X199144095Y-114450809D01*
X199144095Y-114307952D01*
X199191714Y-114117476D01*
X199239333Y-114022238D01*
X199334571Y-113927000D01*
X199477428Y-113879380D01*
X199572666Y-113879380D01*
X199715523Y-113927000D01*
X199763142Y-113974619D01*
X200715523Y-114879380D02*
X200144095Y-114879380D01*
X200429809Y-114879380D02*
X200429809Y-113879380D01*
X200334571Y-114022238D01*
X200239333Y-114117476D01*
X200144095Y-114165095D01*
X201048857Y-113879380D02*
X201667904Y-113879380D01*
X201334571Y-114260333D01*
X201477428Y-114260333D01*
X201572666Y-114307952D01*
X201620285Y-114355571D01*
X201667904Y-114450809D01*
X201667904Y-114688904D01*
X201620285Y-114784142D01*
X201572666Y-114831761D01*
X201477428Y-114879380D01*
X201191714Y-114879380D01*
X201096476Y-114831761D01*
X201048857Y-114784142D01*
%TO.C,C12*%
X217273142Y-71254857D02*
X217320761Y-71302476D01*
X217368380Y-71445333D01*
X217368380Y-71540571D01*
X217320761Y-71683428D01*
X217225523Y-71778666D01*
X217130285Y-71826285D01*
X216939809Y-71873904D01*
X216796952Y-71873904D01*
X216606476Y-71826285D01*
X216511238Y-71778666D01*
X216416000Y-71683428D01*
X216368380Y-71540571D01*
X216368380Y-71445333D01*
X216416000Y-71302476D01*
X216463619Y-71254857D01*
X217368380Y-70302476D02*
X217368380Y-70873904D01*
X217368380Y-70588190D02*
X216368380Y-70588190D01*
X216511238Y-70683428D01*
X216606476Y-70778666D01*
X216654095Y-70873904D01*
X216463619Y-69921523D02*
X216416000Y-69873904D01*
X216368380Y-69778666D01*
X216368380Y-69540571D01*
X216416000Y-69445333D01*
X216463619Y-69397714D01*
X216558857Y-69350095D01*
X216654095Y-69350095D01*
X216796952Y-69397714D01*
X217368380Y-69969142D01*
X217368380Y-69350095D01*
%TO.C,C11*%
X191889142Y-97893142D02*
X191841523Y-97940761D01*
X191698666Y-97988380D01*
X191603428Y-97988380D01*
X191460571Y-97940761D01*
X191365333Y-97845523D01*
X191317714Y-97750285D01*
X191270095Y-97559809D01*
X191270095Y-97416952D01*
X191317714Y-97226476D01*
X191365333Y-97131238D01*
X191460571Y-97036000D01*
X191603428Y-96988380D01*
X191698666Y-96988380D01*
X191841523Y-97036000D01*
X191889142Y-97083619D01*
X192841523Y-97988380D02*
X192270095Y-97988380D01*
X192555809Y-97988380D02*
X192555809Y-96988380D01*
X192460571Y-97131238D01*
X192365333Y-97226476D01*
X192270095Y-97274095D01*
X193793904Y-97988380D02*
X193222476Y-97988380D01*
X193508190Y-97988380D02*
X193508190Y-96988380D01*
X193412952Y-97131238D01*
X193317714Y-97226476D01*
X193222476Y-97274095D01*
%TO.C,C9*%
X192365333Y-103989142D02*
X192317714Y-104036761D01*
X192174857Y-104084380D01*
X192079619Y-104084380D01*
X191936761Y-104036761D01*
X191841523Y-103941523D01*
X191793904Y-103846285D01*
X191746285Y-103655809D01*
X191746285Y-103512952D01*
X191793904Y-103322476D01*
X191841523Y-103227238D01*
X191936761Y-103132000D01*
X192079619Y-103084380D01*
X192174857Y-103084380D01*
X192317714Y-103132000D01*
X192365333Y-103179619D01*
X192841523Y-104084380D02*
X193032000Y-104084380D01*
X193127238Y-104036761D01*
X193174857Y-103989142D01*
X193270095Y-103846285D01*
X193317714Y-103655809D01*
X193317714Y-103274857D01*
X193270095Y-103179619D01*
X193222476Y-103132000D01*
X193127238Y-103084380D01*
X192936761Y-103084380D01*
X192841523Y-103132000D01*
X192793904Y-103179619D01*
X192746285Y-103274857D01*
X192746285Y-103512952D01*
X192793904Y-103608190D01*
X192841523Y-103655809D01*
X192936761Y-103703428D01*
X193127238Y-103703428D01*
X193222476Y-103655809D01*
X193270095Y-103608190D01*
X193317714Y-103512952D01*
%TO.C,C8*%
X209383333Y-95607142D02*
X209335714Y-95654761D01*
X209192857Y-95702380D01*
X209097619Y-95702380D01*
X208954761Y-95654761D01*
X208859523Y-95559523D01*
X208811904Y-95464285D01*
X208764285Y-95273809D01*
X208764285Y-95130952D01*
X208811904Y-94940476D01*
X208859523Y-94845238D01*
X208954761Y-94750000D01*
X209097619Y-94702380D01*
X209192857Y-94702380D01*
X209335714Y-94750000D01*
X209383333Y-94797619D01*
X209954761Y-95130952D02*
X209859523Y-95083333D01*
X209811904Y-95035714D01*
X209764285Y-94940476D01*
X209764285Y-94892857D01*
X209811904Y-94797619D01*
X209859523Y-94750000D01*
X209954761Y-94702380D01*
X210145238Y-94702380D01*
X210240476Y-94750000D01*
X210288095Y-94797619D01*
X210335714Y-94892857D01*
X210335714Y-94940476D01*
X210288095Y-95035714D01*
X210240476Y-95083333D01*
X210145238Y-95130952D01*
X209954761Y-95130952D01*
X209859523Y-95178571D01*
X209811904Y-95226190D01*
X209764285Y-95321428D01*
X209764285Y-95511904D01*
X209811904Y-95607142D01*
X209859523Y-95654761D01*
X209954761Y-95702380D01*
X210145238Y-95702380D01*
X210240476Y-95654761D01*
X210288095Y-95607142D01*
X210335714Y-95511904D01*
X210335714Y-95321428D01*
X210288095Y-95226190D01*
X210240476Y-95178571D01*
X210145238Y-95130952D01*
%TO.C,C7*%
X213082142Y-98591666D02*
X213129761Y-98639285D01*
X213177380Y-98782142D01*
X213177380Y-98877380D01*
X213129761Y-99020238D01*
X213034523Y-99115476D01*
X212939285Y-99163095D01*
X212748809Y-99210714D01*
X212605952Y-99210714D01*
X212415476Y-99163095D01*
X212320238Y-99115476D01*
X212225000Y-99020238D01*
X212177380Y-98877380D01*
X212177380Y-98782142D01*
X212225000Y-98639285D01*
X212272619Y-98591666D01*
X212177380Y-98258333D02*
X212177380Y-97591666D01*
X213177380Y-98020238D01*
%TO.C,C6*%
X148377333Y-130950142D02*
X148329714Y-130997761D01*
X148186857Y-131045380D01*
X148091619Y-131045380D01*
X147948761Y-130997761D01*
X147853523Y-130902523D01*
X147805904Y-130807285D01*
X147758285Y-130616809D01*
X147758285Y-130473952D01*
X147805904Y-130283476D01*
X147853523Y-130188238D01*
X147948761Y-130093000D01*
X148091619Y-130045380D01*
X148186857Y-130045380D01*
X148329714Y-130093000D01*
X148377333Y-130140619D01*
X149234476Y-130045380D02*
X149044000Y-130045380D01*
X148948761Y-130093000D01*
X148901142Y-130140619D01*
X148805904Y-130283476D01*
X148758285Y-130473952D01*
X148758285Y-130854904D01*
X148805904Y-130950142D01*
X148853523Y-130997761D01*
X148948761Y-131045380D01*
X149139238Y-131045380D01*
X149234476Y-130997761D01*
X149282095Y-130950142D01*
X149329714Y-130854904D01*
X149329714Y-130616809D01*
X149282095Y-130521571D01*
X149234476Y-130473952D01*
X149139238Y-130426333D01*
X148948761Y-130426333D01*
X148853523Y-130473952D01*
X148805904Y-130521571D01*
X148758285Y-130616809D01*
%TO.C,C5*%
X200747333Y-117324142D02*
X200699714Y-117371761D01*
X200556857Y-117419380D01*
X200461619Y-117419380D01*
X200318761Y-117371761D01*
X200223523Y-117276523D01*
X200175904Y-117181285D01*
X200128285Y-116990809D01*
X200128285Y-116847952D01*
X200175904Y-116657476D01*
X200223523Y-116562238D01*
X200318761Y-116467000D01*
X200461619Y-116419380D01*
X200556857Y-116419380D01*
X200699714Y-116467000D01*
X200747333Y-116514619D01*
X201652095Y-116419380D02*
X201175904Y-116419380D01*
X201128285Y-116895571D01*
X201175904Y-116847952D01*
X201271142Y-116800333D01*
X201509238Y-116800333D01*
X201604476Y-116847952D01*
X201652095Y-116895571D01*
X201699714Y-116990809D01*
X201699714Y-117228904D01*
X201652095Y-117324142D01*
X201604476Y-117371761D01*
X201509238Y-117419380D01*
X201271142Y-117419380D01*
X201175904Y-117371761D01*
X201128285Y-117324142D01*
%TO.C,C4*%
X148377333Y-128410142D02*
X148329714Y-128457761D01*
X148186857Y-128505380D01*
X148091619Y-128505380D01*
X147948761Y-128457761D01*
X147853523Y-128362523D01*
X147805904Y-128267285D01*
X147758285Y-128076809D01*
X147758285Y-127933952D01*
X147805904Y-127743476D01*
X147853523Y-127648238D01*
X147948761Y-127553000D01*
X148091619Y-127505380D01*
X148186857Y-127505380D01*
X148329714Y-127553000D01*
X148377333Y-127600619D01*
X149234476Y-127838714D02*
X149234476Y-128505380D01*
X148996380Y-127457761D02*
X148758285Y-128172047D01*
X149377333Y-128172047D01*
%TO.C,C3*%
X182078333Y-84177142D02*
X182030714Y-84224761D01*
X181887857Y-84272380D01*
X181792619Y-84272380D01*
X181649761Y-84224761D01*
X181554523Y-84129523D01*
X181506904Y-84034285D01*
X181459285Y-83843809D01*
X181459285Y-83700952D01*
X181506904Y-83510476D01*
X181554523Y-83415238D01*
X181649761Y-83320000D01*
X181792619Y-83272380D01*
X181887857Y-83272380D01*
X182030714Y-83320000D01*
X182078333Y-83367619D01*
X182411666Y-83272380D02*
X183030714Y-83272380D01*
X182697380Y-83653333D01*
X182840238Y-83653333D01*
X182935476Y-83700952D01*
X182983095Y-83748571D01*
X183030714Y-83843809D01*
X183030714Y-84081904D01*
X182983095Y-84177142D01*
X182935476Y-84224761D01*
X182840238Y-84272380D01*
X182554523Y-84272380D01*
X182459285Y-84224761D01*
X182411666Y-84177142D01*
%TO.C,C2*%
X141423333Y-115792142D02*
X141375714Y-115839761D01*
X141232857Y-115887380D01*
X141137619Y-115887380D01*
X140994761Y-115839761D01*
X140899523Y-115744523D01*
X140851904Y-115649285D01*
X140804285Y-115458809D01*
X140804285Y-115315952D01*
X140851904Y-115125476D01*
X140899523Y-115030238D01*
X140994761Y-114935000D01*
X141137619Y-114887380D01*
X141232857Y-114887380D01*
X141375714Y-114935000D01*
X141423333Y-114982619D01*
X141804285Y-114982619D02*
X141851904Y-114935000D01*
X141947142Y-114887380D01*
X142185238Y-114887380D01*
X142280476Y-114935000D01*
X142328095Y-114982619D01*
X142375714Y-115077857D01*
X142375714Y-115173095D01*
X142328095Y-115315952D01*
X141756666Y-115887380D01*
X142375714Y-115887380D01*
%TO.C,C1*%
X141523333Y-130792142D02*
X141475714Y-130839761D01*
X141332857Y-130887380D01*
X141237619Y-130887380D01*
X141094761Y-130839761D01*
X140999523Y-130744523D01*
X140951904Y-130649285D01*
X140904285Y-130458809D01*
X140904285Y-130315952D01*
X140951904Y-130125476D01*
X140999523Y-130030238D01*
X141094761Y-129935000D01*
X141237619Y-129887380D01*
X141332857Y-129887380D01*
X141475714Y-129935000D01*
X141523333Y-129982619D01*
X142475714Y-130887380D02*
X141904285Y-130887380D01*
X142190000Y-130887380D02*
X142190000Y-129887380D01*
X142094761Y-130030238D01*
X141999523Y-130125476D01*
X141904285Y-130173095D01*
%TD*%
M02*
