%TF.GenerationSoftware,KiCad,Pcbnew,(6.0.7-1)-1*%
%TF.CreationDate,2022-12-08T22:36:41-08:00*%
%TF.ProjectId,Control,436f6e74-726f-46c2-9e6b-696361645f70,1.1*%
%TF.SameCoordinates,Original*%
%TF.FileFunction,Legend,Bot*%
%TF.FilePolarity,Positive*%
%FSLAX46Y46*%
G04 Gerber Fmt 4.6, Leading zero omitted, Abs format (unit mm)*
G04 Created by KiCad (PCBNEW (6.0.7-1)-1) date 2022-12-08 22:36:41*
%MOMM*%
%LPD*%
G01*
G04 APERTURE LIST*
G04 Aperture macros list*
%AMRoundRect*
0 Rectangle with rounded corners*
0 $1 Rounding radius*
0 $2 $3 $4 $5 $6 $7 $8 $9 X,Y pos of 4 corners*
0 Add a 4 corners polygon primitive as box body*
4,1,4,$2,$3,$4,$5,$6,$7,$8,$9,$2,$3,0*
0 Add four circle primitives for the rounded corners*
1,1,$1+$1,$2,$3*
1,1,$1+$1,$4,$5*
1,1,$1+$1,$6,$7*
1,1,$1+$1,$8,$9*
0 Add four rect primitives between the rounded corners*
20,1,$1+$1,$2,$3,$4,$5,0*
20,1,$1+$1,$4,$5,$6,$7,0*
20,1,$1+$1,$6,$7,$8,$9,0*
20,1,$1+$1,$8,$9,$2,$3,0*%
G04 Aperture macros list end*
%ADD10C,0.120000*%
%ADD11C,0.500000*%
%ADD12C,0.150000*%
%ADD13C,2.374900*%
%ADD14C,0.990600*%
%ADD15C,1.612900*%
%ADD16RoundRect,0.250000X-0.600000X0.600000X-0.600000X-0.600000X0.600000X-0.600000X0.600000X0.600000X0*%
%ADD17C,1.700000*%
%ADD18R,1.700000X1.700000*%
%ADD19O,1.700000X1.700000*%
%ADD20RoundRect,0.375000X-0.625000X0.375000X-0.625000X-0.375000X0.625000X-0.375000X0.625000X0.375000X0*%
%ADD21C,4.000000*%
%ADD22C,0.800000*%
%ADD23C,6.000000*%
%ADD24RoundRect,0.250000X-0.262500X-0.450000X0.262500X-0.450000X0.262500X0.450000X-0.262500X0.450000X0*%
%ADD25O,4.000000X7.000000*%
%ADD26C,3.000000*%
%ADD27C,2.000000*%
%ADD28R,1.100000X1.500000*%
%ADD29R,2.000000X2.000000*%
G04 APERTURE END LIST*
D10*
X92710000Y-82550000D02*
X59690000Y-82550000D01*
D11*
X74495000Y-70485000D02*
G75*
G03*
X74495000Y-70485000I-200000J0D01*
G01*
D10*
X59690000Y-82550000D02*
X59690000Y-120650000D01*
X92710000Y-120650000D02*
X92710000Y-82550000D01*
X59690000Y-120650000D02*
X92710000Y-120650000D01*
D12*
%TO.C,R8*%
X86526666Y-74112380D02*
X86860000Y-73636190D01*
X87098095Y-74112380D02*
X87098095Y-73112380D01*
X86717142Y-73112380D01*
X86621904Y-73160000D01*
X86574285Y-73207619D01*
X86526666Y-73302857D01*
X86526666Y-73445714D01*
X86574285Y-73540952D01*
X86621904Y-73588571D01*
X86717142Y-73636190D01*
X87098095Y-73636190D01*
X85955238Y-73540952D02*
X86050476Y-73493333D01*
X86098095Y-73445714D01*
X86145714Y-73350476D01*
X86145714Y-73302857D01*
X86098095Y-73207619D01*
X86050476Y-73160000D01*
X85955238Y-73112380D01*
X85764761Y-73112380D01*
X85669523Y-73160000D01*
X85621904Y-73207619D01*
X85574285Y-73302857D01*
X85574285Y-73350476D01*
X85621904Y-73445714D01*
X85669523Y-73493333D01*
X85764761Y-73540952D01*
X85955238Y-73540952D01*
X86050476Y-73588571D01*
X86098095Y-73636190D01*
X86145714Y-73731428D01*
X86145714Y-73921904D01*
X86098095Y-74017142D01*
X86050476Y-74064761D01*
X85955238Y-74112380D01*
X85764761Y-74112380D01*
X85669523Y-74064761D01*
X85621904Y-74017142D01*
X85574285Y-73921904D01*
X85574285Y-73731428D01*
X85621904Y-73636190D01*
X85669523Y-73588571D01*
X85764761Y-73540952D01*
%TO.C,R9*%
X86526666Y-76652380D02*
X86860000Y-76176190D01*
X87098095Y-76652380D02*
X87098095Y-75652380D01*
X86717142Y-75652380D01*
X86621904Y-75700000D01*
X86574285Y-75747619D01*
X86526666Y-75842857D01*
X86526666Y-75985714D01*
X86574285Y-76080952D01*
X86621904Y-76128571D01*
X86717142Y-76176190D01*
X87098095Y-76176190D01*
X86050476Y-76652380D02*
X85860000Y-76652380D01*
X85764761Y-76604761D01*
X85717142Y-76557142D01*
X85621904Y-76414285D01*
X85574285Y-76223809D01*
X85574285Y-75842857D01*
X85621904Y-75747619D01*
X85669523Y-75700000D01*
X85764761Y-75652380D01*
X85955238Y-75652380D01*
X86050476Y-75700000D01*
X86098095Y-75747619D01*
X86145714Y-75842857D01*
X86145714Y-76080952D01*
X86098095Y-76176190D01*
X86050476Y-76223809D01*
X85955238Y-76271428D01*
X85764761Y-76271428D01*
X85669523Y-76223809D01*
X85621904Y-76176190D01*
X85574285Y-76080952D01*
%TO.C,R10*%
X87637857Y-71572380D02*
X87971190Y-71096190D01*
X88209285Y-71572380D02*
X88209285Y-70572380D01*
X87828333Y-70572380D01*
X87733095Y-70620000D01*
X87685476Y-70667619D01*
X87637857Y-70762857D01*
X87637857Y-70905714D01*
X87685476Y-71000952D01*
X87733095Y-71048571D01*
X87828333Y-71096190D01*
X88209285Y-71096190D01*
X86685476Y-71572380D02*
X87256904Y-71572380D01*
X86971190Y-71572380D02*
X86971190Y-70572380D01*
X87066428Y-70715238D01*
X87161666Y-70810476D01*
X87256904Y-70858095D01*
X86066428Y-70572380D02*
X85971190Y-70572380D01*
X85875952Y-70620000D01*
X85828333Y-70667619D01*
X85780714Y-70762857D01*
X85733095Y-70953333D01*
X85733095Y-71191428D01*
X85780714Y-71381904D01*
X85828333Y-71477142D01*
X85875952Y-71524761D01*
X85971190Y-71572380D01*
X86066428Y-71572380D01*
X86161666Y-71524761D01*
X86209285Y-71477142D01*
X86256904Y-71381904D01*
X86304523Y-71191428D01*
X86304523Y-70953333D01*
X86256904Y-70762857D01*
X86209285Y-70667619D01*
X86161666Y-70620000D01*
X86066428Y-70572380D01*
%TO.C,SW1*%
X125793333Y-112164761D02*
X125650476Y-112212380D01*
X125412380Y-112212380D01*
X125317142Y-112164761D01*
X125269523Y-112117142D01*
X125221904Y-112021904D01*
X125221904Y-111926666D01*
X125269523Y-111831428D01*
X125317142Y-111783809D01*
X125412380Y-111736190D01*
X125602857Y-111688571D01*
X125698095Y-111640952D01*
X125745714Y-111593333D01*
X125793333Y-111498095D01*
X125793333Y-111402857D01*
X125745714Y-111307619D01*
X125698095Y-111260000D01*
X125602857Y-111212380D01*
X125364761Y-111212380D01*
X125221904Y-111260000D01*
X124888571Y-111212380D02*
X124650476Y-112212380D01*
X124460000Y-111498095D01*
X124269523Y-112212380D01*
X124031428Y-111212380D01*
X123126666Y-112212380D02*
X123698095Y-112212380D01*
X123412380Y-112212380D02*
X123412380Y-111212380D01*
X123507619Y-111355238D01*
X123602857Y-111450476D01*
X123698095Y-111498095D01*
%TO.C,D1*%
X74002380Y-72921904D02*
X73002380Y-72921904D01*
X73002380Y-73160000D01*
X73050000Y-73302857D01*
X73145238Y-73398095D01*
X73240476Y-73445714D01*
X73430952Y-73493333D01*
X73573809Y-73493333D01*
X73764285Y-73445714D01*
X73859523Y-73398095D01*
X73954761Y-73302857D01*
X74002380Y-73160000D01*
X74002380Y-72921904D01*
X74002380Y-74445714D02*
X74002380Y-73874285D01*
X74002380Y-74160000D02*
X73002380Y-74160000D01*
X73145238Y-74064761D01*
X73240476Y-73969523D01*
X73288095Y-73874285D01*
%TO.C,DISP1*%
X146732380Y-91892380D02*
X146732380Y-90892380D01*
X146494285Y-90892380D01*
X146351428Y-90940000D01*
X146256190Y-91035238D01*
X146208571Y-91130476D01*
X146160952Y-91320952D01*
X146160952Y-91463809D01*
X146208571Y-91654285D01*
X146256190Y-91749523D01*
X146351428Y-91844761D01*
X146494285Y-91892380D01*
X146732380Y-91892380D01*
X145732380Y-91892380D02*
X145732380Y-90892380D01*
X145303809Y-91844761D02*
X145160952Y-91892380D01*
X144922857Y-91892380D01*
X144827619Y-91844761D01*
X144780000Y-91797142D01*
X144732380Y-91701904D01*
X144732380Y-91606666D01*
X144780000Y-91511428D01*
X144827619Y-91463809D01*
X144922857Y-91416190D01*
X145113333Y-91368571D01*
X145208571Y-91320952D01*
X145256190Y-91273333D01*
X145303809Y-91178095D01*
X145303809Y-91082857D01*
X145256190Y-90987619D01*
X145208571Y-90940000D01*
X145113333Y-90892380D01*
X144875238Y-90892380D01*
X144732380Y-90940000D01*
X144303809Y-91892380D02*
X144303809Y-90892380D01*
X143922857Y-90892380D01*
X143827619Y-90940000D01*
X143780000Y-90987619D01*
X143732380Y-91082857D01*
X143732380Y-91225714D01*
X143780000Y-91320952D01*
X143827619Y-91368571D01*
X143922857Y-91416190D01*
X144303809Y-91416190D01*
X142780000Y-91892380D02*
X143351428Y-91892380D01*
X143065714Y-91892380D02*
X143065714Y-90892380D01*
X143160952Y-91035238D01*
X143256190Y-91130476D01*
X143351428Y-91178095D01*
D10*
%TO.C,R8*%
X82957936Y-72925000D02*
X83412064Y-72925000D01*
X82957936Y-74395000D02*
X83412064Y-74395000D01*
%TO.C,R9*%
X82957936Y-76935000D02*
X83412064Y-76935000D01*
X82957936Y-75465000D02*
X83412064Y-75465000D01*
%TO.C,R10*%
X82957936Y-70385000D02*
X83412064Y-70385000D01*
X82957936Y-71855000D02*
X83412064Y-71855000D01*
%TO.C,SW1*%
X112840000Y-94600000D02*
X110840000Y-94600000D01*
X120840000Y-94600000D02*
X122840000Y-94600000D01*
X122840000Y-108100000D02*
X122840000Y-105600000D01*
X122840000Y-94600000D02*
X122840000Y-97600000D01*
X110840000Y-97600000D02*
X110840000Y-94600000D01*
X110840000Y-108100000D02*
X113284000Y-108100000D01*
X117840000Y-94600000D02*
X115840000Y-94600000D01*
X110840000Y-105600000D02*
X110840000Y-108100000D01*
X122840000Y-108100000D02*
X120650000Y-108100000D01*
X118872000Y-101600000D02*
G75*
G03*
X118872000Y-101600000I-2032000J0D01*
G01*
%TO.C,D1*%
X75500000Y-71160000D02*
X74700000Y-71160000D01*
X74700000Y-71159956D02*
X74700000Y-75610000D01*
X77700000Y-71710000D02*
X77700000Y-75610000D01*
%TO.C,DISP1*%
X227480000Y-123150000D02*
X227480000Y-79150000D01*
X141880000Y-112150000D02*
X141880000Y-90150000D01*
X138280000Y-123150000D02*
X227480000Y-123150000D01*
X138280000Y-123150000D02*
X138280000Y-79150000D01*
X223880000Y-112150000D02*
X223880000Y-90150000D01*
X138280000Y-79150000D02*
X227480000Y-79150000D01*
X141880000Y-112150000D02*
X223880000Y-112150000D01*
X141880000Y-90150000D02*
X223880000Y-90150000D01*
%TD*%
%LPC*%
D13*
%TO.C,ISP1*%
X173225351Y-104241351D03*
X173225351Y-109321351D03*
D14*
X178940351Y-106781351D03*
D13*
X178940351Y-104241351D03*
X178940351Y-109321351D03*
D15*
X171320351Y-105765351D03*
X171320351Y-107797351D03*
%TD*%
D16*
%TO.C,MCU1*%
X205740000Y-68580000D03*
D17*
X205740000Y-71120000D03*
X203200000Y-68580000D03*
X203200000Y-71120000D03*
X200660000Y-68580000D03*
X200660000Y-71120000D03*
X198120000Y-68580000D03*
X198120000Y-71120000D03*
X195580000Y-68580000D03*
X195580000Y-71120000D03*
X193040000Y-68580000D03*
X193040000Y-71120000D03*
X190500000Y-68580000D03*
X190500000Y-71120000D03*
%TD*%
D18*
%TO.C,SW2*%
X229870000Y-99060000D03*
D19*
X229870000Y-101600000D03*
%TD*%
D20*
%TO.C,USB1*%
X135844000Y-122013000D03*
X135844000Y-124513000D03*
X135844000Y-126513000D03*
X135844000Y-129013000D03*
D21*
X133134000Y-132083000D03*
X133134000Y-118943000D03*
%TD*%
D22*
%TO.C,H1*%
X61940000Y-68580000D03*
X59690000Y-66330000D03*
X61280990Y-70170990D03*
X58099010Y-70170990D03*
X61280990Y-66989010D03*
D23*
X59690000Y-68580000D03*
D22*
X59690000Y-70830000D03*
X58099010Y-66989010D03*
X57440000Y-68580000D03*
%TD*%
%TO.C,H2*%
X227009010Y-70170990D03*
X230190990Y-66989010D03*
X230850000Y-68580000D03*
X228600000Y-70830000D03*
D23*
X228600000Y-68580000D03*
D22*
X227009010Y-66989010D03*
X230190990Y-70170990D03*
X226350000Y-68580000D03*
X228600000Y-66330000D03*
%TD*%
%TO.C,H3*%
X61280990Y-132400990D03*
X61940000Y-130810000D03*
X59690000Y-133060000D03*
X57440000Y-130810000D03*
X59690000Y-128560000D03*
X58099010Y-129219010D03*
X58099010Y-132400990D03*
X61280990Y-129219010D03*
D23*
X59690000Y-130810000D03*
%TD*%
D22*
%TO.C,H4*%
X230850000Y-129540000D03*
X228600000Y-127290000D03*
X230190990Y-127949010D03*
X230190990Y-131130990D03*
D23*
X228600000Y-129540000D03*
D22*
X227009010Y-127949010D03*
X228600000Y-131790000D03*
X227009010Y-131130990D03*
X226350000Y-129540000D03*
%TD*%
D18*
%TO.C,SW3*%
X101600000Y-99324000D03*
D19*
X101600000Y-101864000D03*
X101600000Y-104404000D03*
X101600000Y-106944000D03*
%TD*%
D24*
%TO.C,R8*%
X82272500Y-73660000D03*
X84097500Y-73660000D03*
%TD*%
%TO.C,R9*%
X82272500Y-76200000D03*
X84097500Y-76200000D03*
%TD*%
%TO.C,R10*%
X82272500Y-71120000D03*
X84097500Y-71120000D03*
%TD*%
D25*
%TO.C,SW1*%
X121390000Y-101600000D03*
D26*
X116840000Y-101600000D03*
D25*
X112290000Y-101600000D03*
D27*
X119340000Y-109100000D03*
X114340000Y-109100000D03*
X116840000Y-109100000D03*
X119340000Y-94600000D03*
X114340000Y-94600000D03*
%TD*%
D28*
%TO.C,D1*%
X75450000Y-72160000D03*
X75450000Y-75160000D03*
X76950000Y-75160000D03*
X76950000Y-72160000D03*
%TD*%
D29*
%TO.C,DISP1*%
X207010000Y-120650000D03*
D27*
X204470000Y-120650000D03*
X201930000Y-120650000D03*
X199390000Y-120650000D03*
X196850000Y-120650000D03*
X194310000Y-120650000D03*
X191770000Y-120650000D03*
X189230000Y-120650000D03*
X186690000Y-120650000D03*
X184150000Y-120650000D03*
X181610000Y-120650000D03*
X179070000Y-120650000D03*
X176530000Y-120650000D03*
X173990000Y-120650000D03*
X171450000Y-120650000D03*
X168910000Y-120650000D03*
X166370000Y-120650000D03*
X163830000Y-120650000D03*
X161290000Y-120650000D03*
X158750000Y-120650000D03*
%TD*%
M02*
