G04 #@! TF.GenerationSoftware,KiCad,Pcbnew,8.0.5*
G04 #@! TF.CreationDate,2025-01-18T14:25:39-08:00*
G04 #@! TF.ProjectId,Control,436f6e74-726f-46c2-9e6b-696361645f70,2.1*
G04 #@! TF.SameCoordinates,Original*
G04 #@! TF.FileFunction,Copper,L4,Bot*
G04 #@! TF.FilePolarity,Positive*
%FSLAX46Y46*%
G04 Gerber Fmt 4.6, Leading zero omitted, Abs format (unit mm)*
G04 Created by KiCad (PCBNEW 8.0.5) date 2025-01-18 14:25:39*
%MOMM*%
%LPD*%
G01*
G04 APERTURE LIST*
G04 Aperture macros list*
%AMRoundRect*
0 Rectangle with rounded corners*
0 $1 Rounding radius*
0 $2 $3 $4 $5 $6 $7 $8 $9 X,Y pos of 4 corners*
0 Add a 4 corners polygon primitive as box body*
4,1,4,$2,$3,$4,$5,$6,$7,$8,$9,$2,$3,0*
0 Add four circle primitives for the rounded corners*
1,1,$1+$1,$2,$3*
1,1,$1+$1,$4,$5*
1,1,$1+$1,$6,$7*
1,1,$1+$1,$8,$9*
0 Add four rect primitives between the rounded corners*
20,1,$1+$1,$2,$3,$4,$5,0*
20,1,$1+$1,$4,$5,$6,$7,0*
20,1,$1+$1,$6,$7,$8,$9,0*
20,1,$1+$1,$8,$9,$2,$3,0*%
G04 Aperture macros list end*
G04 #@! TA.AperFunction,ComponentPad*
%ADD10RoundRect,0.250000X-0.600000X0.600000X-0.600000X-0.600000X0.600000X-0.600000X0.600000X0.600000X0*%
G04 #@! TD*
G04 #@! TA.AperFunction,ComponentPad*
%ADD11C,1.700000*%
G04 #@! TD*
G04 #@! TA.AperFunction,ComponentPad*
%ADD12R,1.700000X1.700000*%
G04 #@! TD*
G04 #@! TA.AperFunction,ComponentPad*
%ADD13O,1.700000X1.700000*%
G04 #@! TD*
G04 #@! TA.AperFunction,ComponentPad*
%ADD14RoundRect,0.375000X-0.625000X0.375000X-0.625000X-0.375000X0.625000X-0.375000X0.625000X0.375000X0*%
G04 #@! TD*
G04 #@! TA.AperFunction,ComponentPad*
%ADD15C,4.000000*%
G04 #@! TD*
G04 #@! TA.AperFunction,ComponentPad*
%ADD16C,0.800000*%
G04 #@! TD*
G04 #@! TA.AperFunction,ComponentPad*
%ADD17C,6.000000*%
G04 #@! TD*
G04 #@! TA.AperFunction,SMDPad,CuDef*
%ADD18RoundRect,0.250000X-0.262500X-0.450000X0.262500X-0.450000X0.262500X0.450000X-0.262500X0.450000X0*%
G04 #@! TD*
G04 #@! TA.AperFunction,ComponentPad*
%ADD19O,4.000000X7.000000*%
G04 #@! TD*
G04 #@! TA.AperFunction,ComponentPad*
%ADD20C,2.000000*%
G04 #@! TD*
G04 #@! TA.AperFunction,ComponentPad*
%ADD21R,2.000000X2.000000*%
G04 #@! TD*
G04 #@! TA.AperFunction,SMDPad,CuDef*
%ADD22R,0.500000X0.850000*%
G04 #@! TD*
G04 #@! TA.AperFunction,ViaPad*
%ADD23C,0.800000*%
G04 #@! TD*
G04 #@! TA.AperFunction,Conductor*
%ADD24C,0.254000*%
G04 #@! TD*
G04 #@! TA.AperFunction,Conductor*
%ADD25C,0.381000*%
G04 #@! TD*
G04 APERTURE END LIST*
D10*
G04 #@! TO.P,MCU1,1,Pin_1*
G04 #@! TO.N,+3V0*
X205740000Y-68580000D03*
D11*
G04 #@! TO.P,MCU1,2,Pin_2*
G04 #@! TO.N,MOSI*
X205740000Y-71120000D03*
G04 #@! TO.P,MCU1,3,Pin_3*
G04 #@! TO.N,MISO*
X203200000Y-68580000D03*
G04 #@! TO.P,MCU1,4,Pin_4*
G04 #@! TO.N,SCK*
X203200000Y-71120000D03*
G04 #@! TO.P,MCU1,5,Pin_5*
G04 #@! TO.N,CS_LASER*
X200660000Y-68580000D03*
G04 #@! TO.P,MCU1,6,Pin_6*
G04 #@! TO.N,RST_LASER*
X200660000Y-71120000D03*
G04 #@! TO.P,MCU1,7,Pin_7*
G04 #@! TO.N,TMP_LASER*
X198120000Y-68580000D03*
G04 #@! TO.P,MCU1,8,Pin_8*
G04 #@! TO.N,CS_TEC_SET*
X198120000Y-71120000D03*
G04 #@! TO.P,MCU1,9,Pin_9*
G04 #@! TO.N,CS_TEC_READ*
X195580000Y-68580000D03*
G04 #@! TO.P,MCU1,10,Pin_10*
G04 #@! TO.N,TEC_ENABLE*
X195580000Y-71120000D03*
G04 #@! TO.P,MCU1,11,Pin_11*
G04 #@! TO.N,CS_CHARGE*
X193040000Y-68580000D03*
G04 #@! TO.P,MCU1,12,Pin_12*
G04 #@! TO.N,INTERLOCK_SW*
X193040000Y-71120000D03*
G04 #@! TO.P,MCU1,13,Pin_13*
G04 #@! TO.N,INTERLOCK_EN*
X190500000Y-68580000D03*
G04 #@! TO.P,MCU1,14,Pin_14*
G04 #@! TO.N,GND*
X190500000Y-71120000D03*
G04 #@! TD*
D12*
G04 #@! TO.P,SW2,1,A*
G04 #@! TO.N,INTERLOCK_SW*
X229870000Y-99060000D03*
D13*
G04 #@! TO.P,SW2,2,B*
G04 #@! TO.N,GND*
X229870000Y-101600000D03*
G04 #@! TD*
D14*
G04 #@! TO.P,USB1,1,VBUS*
G04 #@! TO.N,Net-(U2-VDD)*
X135844000Y-122013000D03*
G04 #@! TO.P,USB1,2,D-*
G04 #@! TO.N,Net-(U2-IO4)*
X135844000Y-124513000D03*
G04 #@! TO.P,USB1,3,D+*
G04 #@! TO.N,Net-(U2-IO3)*
X135844000Y-126513000D03*
G04 #@! TO.P,USB1,4,GND*
G04 #@! TO.N,GND*
X135844000Y-129013000D03*
D15*
G04 #@! TO.P,USB1,5,Shield*
X133134000Y-118943000D03*
X133134000Y-132083000D03*
G04 #@! TD*
D16*
G04 #@! TO.P,H1,1,1*
G04 #@! TO.N,unconnected-(H1-Pad1)_2*
X57440000Y-68580000D03*
G04 #@! TO.N,unconnected-(H1-Pad1)_3*
X58099010Y-66989010D03*
G04 #@! TO.N,unconnected-(H1-Pad1)*
X58099010Y-70170990D03*
G04 #@! TO.N,unconnected-(H1-Pad1)_6*
X59690000Y-66330000D03*
D17*
G04 #@! TO.N,unconnected-(H1-Pad1)_1*
X59690000Y-68580000D03*
D16*
G04 #@! TO.N,unconnected-(H1-Pad1)_7*
X59690000Y-70830000D03*
G04 #@! TO.N,unconnected-(H1-Pad1)_8*
X61280990Y-66989010D03*
G04 #@! TO.N,unconnected-(H1-Pad1)_5*
X61280990Y-70170990D03*
G04 #@! TO.N,unconnected-(H1-Pad1)_4*
X61940000Y-68580000D03*
G04 #@! TD*
G04 #@! TO.P,H2,1,1*
G04 #@! TO.N,unconnected-(H2-Pad1)_1*
X226350000Y-68580000D03*
G04 #@! TO.N,unconnected-(H2-Pad1)_3*
X227009010Y-66989010D03*
G04 #@! TO.N,unconnected-(H2-Pad1)*
X227009010Y-70170990D03*
G04 #@! TO.N,unconnected-(H2-Pad1)_5*
X228600000Y-66330000D03*
D17*
G04 #@! TO.N,unconnected-(H2-Pad1)_4*
X228600000Y-68580000D03*
D16*
G04 #@! TO.N,unconnected-(H2-Pad1)_6*
X228600000Y-70830000D03*
G04 #@! TO.N,unconnected-(H2-Pad1)_7*
X230190990Y-66989010D03*
G04 #@! TO.N,unconnected-(H2-Pad1)_8*
X230190990Y-70170990D03*
G04 #@! TO.N,unconnected-(H2-Pad1)_2*
X230850000Y-68580000D03*
G04 #@! TD*
G04 #@! TO.P,H3,1,1*
G04 #@! TO.N,unconnected-(H3-Pad1)_1*
X57440000Y-130810000D03*
G04 #@! TO.N,unconnected-(H3-Pad1)_4*
X58099010Y-129219010D03*
G04 #@! TO.N,unconnected-(H3-Pad1)_2*
X58099010Y-132400990D03*
G04 #@! TO.N,unconnected-(H3-Pad1)_3*
X59690000Y-128560000D03*
D17*
G04 #@! TO.N,unconnected-(H3-Pad1)_7*
X59690000Y-130810000D03*
D16*
G04 #@! TO.N,unconnected-(H3-Pad1)_6*
X59690000Y-133060000D03*
G04 #@! TO.N,unconnected-(H3-Pad1)_5*
X61280990Y-129219010D03*
G04 #@! TO.N,unconnected-(H3-Pad1)_8*
X61280990Y-132400990D03*
G04 #@! TO.N,unconnected-(H3-Pad1)*
X61940000Y-130810000D03*
G04 #@! TD*
G04 #@! TO.P,H4,1,1*
G04 #@! TO.N,unconnected-(H4-Pad1)_7*
X226350000Y-129540000D03*
G04 #@! TO.N,unconnected-(H4-Pad1)_6*
X227009010Y-127949010D03*
G04 #@! TO.N,unconnected-(H4-Pad1)_1*
X227009010Y-131130990D03*
G04 #@! TO.N,unconnected-(H4-Pad1)_4*
X228600000Y-127290000D03*
D17*
G04 #@! TO.N,unconnected-(H4-Pad1)_8*
X228600000Y-129540000D03*
D16*
G04 #@! TO.N,unconnected-(H4-Pad1)_2*
X228600000Y-131790000D03*
G04 #@! TO.N,unconnected-(H4-Pad1)_3*
X230190990Y-127949010D03*
G04 #@! TO.N,unconnected-(H4-Pad1)_5*
X230190990Y-131130990D03*
G04 #@! TO.N,unconnected-(H4-Pad1)*
X230850000Y-129540000D03*
G04 #@! TD*
D12*
G04 #@! TO.P,SW3,1,Pin_1*
G04 #@! TO.N,Net-(SW3-Pin_1)*
X101500000Y-99340000D03*
D13*
G04 #@! TO.P,SW3,2,Pin_2*
G04 #@! TO.N,Net-(SW3-Pin_2)*
X101500000Y-101880000D03*
G04 #@! TO.P,SW3,3,Pin_3*
G04 #@! TO.N,Net-(SW3-Pin_3)*
X101500000Y-104420000D03*
G04 #@! TO.P,SW3,4,Pin_4*
G04 #@! TO.N,GND*
X101500000Y-106960000D03*
G04 #@! TO.P,SW3,5,Pin_5*
X101500000Y-109500000D03*
G04 #@! TO.P,SW3,6,Pin_6*
G04 #@! TO.N,FIRE*
X101500000Y-112040000D03*
G04 #@! TD*
D10*
G04 #@! TO.P,ISP1,1,Pin_1*
G04 #@! TO.N,UPDI*
X171045000Y-68580000D03*
D11*
G04 #@! TO.P,ISP1,2,Pin_2*
G04 #@! TO.N,+3V0*
X171045000Y-71120000D03*
G04 #@! TO.P,ISP1,3,Pin_3*
G04 #@! TO.N,unconnected-(ISP1-Pin_3-Pad3)*
X168505000Y-68580000D03*
G04 #@! TO.P,ISP1,4,Pin_4*
G04 #@! TO.N,unconnected-(ISP1-Pin_4-Pad4)*
X168505000Y-71120000D03*
G04 #@! TO.P,ISP1,5,Pin_5*
G04 #@! TO.N,unconnected-(ISP1-Pin_5-Pad5)*
X165965000Y-68580000D03*
G04 #@! TO.P,ISP1,6,Pin_6*
G04 #@! TO.N,GND*
X165965000Y-71120000D03*
G04 #@! TD*
D18*
G04 #@! TO.P,R5,1*
G04 #@! TO.N,Net-(D1-BA)*
X83161500Y-71120000D03*
G04 #@! TO.P,R5,2*
G04 #@! TO.N,LED_B*
X84986500Y-71120000D03*
G04 #@! TD*
G04 #@! TO.P,R6,1*
G04 #@! TO.N,Net-(D1-GA)*
X83161500Y-73660000D03*
G04 #@! TO.P,R6,2*
G04 #@! TO.N,LED_G*
X84986500Y-73660000D03*
G04 #@! TD*
G04 #@! TO.P,R7,1*
G04 #@! TO.N,Net-(D1-RA)*
X83161500Y-76200000D03*
G04 #@! TO.P,R7,2*
G04 #@! TO.N,LED_R*
X84986500Y-76200000D03*
G04 #@! TD*
D19*
G04 #@! TO.P,SW1,*
G04 #@! TO.N,*
X121390000Y-101600000D03*
X112290000Y-101600000D03*
D20*
G04 #@! TO.P,SW1,A,A*
G04 #@! TO.N,ENC_A*
X119340000Y-109100000D03*
G04 #@! TO.P,SW1,B,B*
G04 #@! TO.N,ENC_B*
X114340000Y-109100000D03*
G04 #@! TO.P,SW1,C,C*
G04 #@! TO.N,GND*
X116840000Y-109100000D03*
G04 #@! TO.P,SW1,S1,S1*
G04 #@! TO.N,ENC_SEL*
X119340000Y-94600000D03*
G04 #@! TO.P,SW1,S2,S2*
G04 #@! TO.N,GND*
X114340000Y-94600000D03*
G04 #@! TD*
D21*
G04 #@! TO.P,DISP1,1,VSS*
G04 #@! TO.N,GND*
X207010000Y-120650000D03*
D20*
G04 #@! TO.P,DISP1,2,VDD*
G04 #@! TO.N,+3V0*
X204470000Y-120650000D03*
G04 #@! TO.P,DISP1,3,NC*
G04 #@! TO.N,unconnected-(DISP1-NC-Pad3)*
X201930000Y-120650000D03*
G04 #@! TO.P,DISP1,4,D/C*
G04 #@! TO.N,DISP_DC*
X199390000Y-120650000D03*
G04 #@! TO.P,DISP1,5,VSS*
G04 #@! TO.N,GND*
X196850000Y-120650000D03*
G04 #@! TO.P,DISP1,6,VSS*
X194310000Y-120650000D03*
G04 #@! TO.P,DISP1,7,SCLK*
G04 #@! TO.N,SCK*
X191770000Y-120650000D03*
G04 #@! TO.P,DISP1,8,SDIN*
G04 #@! TO.N,MOSI*
X189230000Y-120650000D03*
G04 #@! TO.P,DISP1,9,NC*
G04 #@! TO.N,unconnected-(DISP1-NC-Pad9)*
X186690000Y-120650000D03*
G04 #@! TO.P,DISP1,10,VSS*
G04 #@! TO.N,GND*
X184150000Y-120650000D03*
G04 #@! TO.P,DISP1,11,VSS*
X181610000Y-120650000D03*
G04 #@! TO.P,DISP1,12,VSS*
X179070000Y-120650000D03*
G04 #@! TO.P,DISP1,13,VSS*
X176530000Y-120650000D03*
G04 #@! TO.P,DISP1,14,VSS*
X173990000Y-120650000D03*
G04 #@! TO.P,DISP1,15,NC*
G04 #@! TO.N,unconnected-(DISP1-NC-Pad15)*
X171450000Y-120650000D03*
G04 #@! TO.P,DISP1,16,~{RES}*
G04 #@! TO.N,DISP_RES*
X168910000Y-120650000D03*
G04 #@! TO.P,DISP1,17,~{CS}*
G04 #@! TO.N,DISP_CS*
X166370000Y-120650000D03*
G04 #@! TO.P,DISP1,18,NC*
G04 #@! TO.N,unconnected-(DISP1-NC-Pad18)*
X163830000Y-120650000D03*
G04 #@! TO.P,DISP1,19,BS1*
G04 #@! TO.N,GND*
X161290000Y-120650000D03*
G04 #@! TO.P,DISP1,20,BS0*
X158750000Y-120650000D03*
G04 #@! TD*
D22*
G04 #@! TO.P,D1,1,K*
G04 #@! TO.N,GND*
X76500000Y-72625000D03*
G04 #@! TO.P,D1,2,RA*
G04 #@! TO.N,Net-(D1-RA)*
X76500000Y-74375000D03*
G04 #@! TO.P,D1,3,GA*
G04 #@! TO.N,Net-(D1-GA)*
X75500000Y-74375000D03*
G04 #@! TO.P,D1,4,BA*
G04 #@! TO.N,Net-(D1-BA)*
X75500000Y-72625000D03*
G04 #@! TD*
D23*
G04 #@! TO.N,GND*
X146170546Y-121414467D03*
X139700000Y-117475000D03*
X147955000Y-124369798D03*
X144145000Y-123190000D03*
X144800000Y-129520000D03*
X139700000Y-128905000D03*
X95250000Y-120650000D03*
X222250000Y-95250000D03*
X82550000Y-133350000D03*
X116840000Y-113538000D03*
X171450000Y-133350000D03*
X69850000Y-63500000D03*
X69850000Y-133350000D03*
X209550000Y-133350000D03*
X107500000Y-109968000D03*
X207772000Y-123698000D03*
X82550000Y-82550000D03*
X171450000Y-107950000D03*
X82550000Y-63500000D03*
X158750000Y-63500000D03*
X57150000Y-107950000D03*
X209550000Y-63500000D03*
X120650000Y-82550000D03*
X158750000Y-133350000D03*
X214884000Y-73152000D03*
X188468000Y-113792000D03*
X107950000Y-120650000D03*
X133350000Y-107950000D03*
X133350000Y-63500000D03*
X57150000Y-95250000D03*
X146050000Y-107950000D03*
X95250000Y-82550000D03*
X184150000Y-133350000D03*
X202692000Y-103124000D03*
X171450000Y-82550000D03*
X196850000Y-63500000D03*
X222250000Y-120650000D03*
X192090497Y-98806000D03*
X120650000Y-63500000D03*
X171450000Y-95250000D03*
X120650000Y-133350000D03*
X209550000Y-107950000D03*
X82550000Y-120650000D03*
X184150000Y-63500000D03*
X133350000Y-95250000D03*
X95250000Y-133350000D03*
X158750000Y-107950000D03*
X95250000Y-63500000D03*
X57150000Y-120650000D03*
X146050000Y-82550000D03*
X200500000Y-75250000D03*
X209550000Y-120650000D03*
X57150000Y-82550000D03*
X209550000Y-95250000D03*
X222250000Y-133350000D03*
X222250000Y-82550000D03*
X158750000Y-82550000D03*
X195834000Y-102616000D03*
X133350000Y-82550000D03*
X120650000Y-120650000D03*
X171450000Y-63500000D03*
X208280000Y-129032000D03*
X187452000Y-101533503D03*
X158750000Y-95250000D03*
X193040000Y-92202000D03*
X69850000Y-82550000D03*
X107950000Y-82550000D03*
X146050000Y-63500000D03*
X222250000Y-107950000D03*
X107950000Y-133350000D03*
X222250000Y-63500000D03*
X195500000Y-80250000D03*
X95250000Y-95250000D03*
X107950000Y-63500000D03*
X146050000Y-95250000D03*
X116840000Y-112014000D03*
X189484000Y-106934000D03*
X196850000Y-133350000D03*
X114808000Y-92202000D03*
X208280000Y-126238000D03*
X181500000Y-99000000D03*
X69850000Y-120650000D03*
X78000000Y-72625000D03*
G04 #@! TO.N,+3V0*
X146700000Y-129525000D03*
X147967741Y-121431254D03*
X169672000Y-123698000D03*
X202692000Y-126238000D03*
X114808000Y-90170000D03*
X187452000Y-100584000D03*
X188468000Y-106934000D03*
X195834000Y-103632000D03*
X214884000Y-68072000D03*
X107500000Y-112000000D03*
X202692000Y-129032000D03*
X203200000Y-123698000D03*
X116840000Y-115316000D03*
X193040000Y-98806000D03*
X146700000Y-131684000D03*
G04 #@! TO.N,SCK*
X194020000Y-100330000D03*
G04 #@! TO.N,MOSI*
X195020000Y-98806000D03*
G04 #@! TO.N,RXD*
X149352000Y-105918000D03*
X191516000Y-101600000D03*
G04 #@! TO.N,TXD*
X148336000Y-106680000D03*
X191516000Y-102616000D03*
G04 #@! TO.N,INTERLOCK_EN*
X186500000Y-97250000D03*
X189500000Y-98800000D03*
G04 #@! TO.N,TMP_LASER*
X188250000Y-98800000D03*
X185750000Y-98250000D03*
G04 #@! TO.N,LED_R*
X184912000Y-76708000D03*
G04 #@! TO.N,LED_G*
X187283000Y-75500000D03*
G04 #@! TO.N,LED_B*
X188250000Y-74000000D03*
G04 #@! TO.N,UPDI*
X204470000Y-77978000D03*
X173000000Y-77978000D03*
G04 #@! TO.N,Net-(U2-IO4)*
X139192000Y-123952000D03*
G04 #@! TO.N,Net-(U2-VDD)*
X139192000Y-122936000D03*
G04 #@! TD*
D24*
G04 #@! TO.N,GND*
X78000000Y-72625000D02*
X76500000Y-72625000D01*
G04 #@! TO.N,Net-(D1-RA)*
X78125000Y-76000000D02*
X82961500Y-76000000D01*
X76500000Y-74375000D02*
X78125000Y-76000000D01*
X82961500Y-76000000D02*
X83161500Y-76200000D01*
G04 #@! TO.N,Net-(D1-GA)*
X75500000Y-73854000D02*
X75854000Y-73500000D01*
X75854000Y-73500000D02*
X83001500Y-73500000D01*
X75500000Y-74375000D02*
X75500000Y-73854000D01*
X83001500Y-73500000D02*
X83161500Y-73660000D01*
G04 #@! TO.N,Net-(D1-BA)*
X76830000Y-71120000D02*
X83161500Y-71120000D01*
X75500000Y-72450000D02*
X76830000Y-71120000D01*
X75500000Y-72625000D02*
X75500000Y-72450000D01*
D25*
G04 #@! TO.N,DISP_RES*
X168910000Y-120142000D02*
X168910000Y-120650000D01*
G04 #@! TO.N,SCK*
X194056000Y-118364000D02*
X191770000Y-120650000D01*
X194056000Y-100366000D02*
X194056000Y-118364000D01*
D24*
X194020000Y-100330000D02*
X194056000Y-100366000D01*
D25*
G04 #@! TO.N,MOSI*
X192786000Y-117094000D02*
X189230000Y-120650000D01*
X195020000Y-98806000D02*
X194310000Y-98806000D01*
X194310000Y-98806000D02*
X192786000Y-100330000D01*
X192786000Y-100330000D02*
X192786000Y-117094000D01*
G04 #@! TO.N,RXD*
X149352000Y-105918000D02*
X185166000Y-105918000D01*
X185166000Y-105918000D02*
X189484000Y-101600000D01*
X189484000Y-101600000D02*
X191516000Y-101600000D01*
G04 #@! TO.N,TXD*
X189738000Y-102616000D02*
X191516000Y-102616000D01*
X185674000Y-106680000D02*
X189738000Y-102616000D01*
X148336000Y-106680000D02*
X185674000Y-106680000D01*
G04 #@! TO.N,INTERLOCK_SW*
X193040000Y-71120000D02*
X194389500Y-69770500D01*
X195500000Y-65500000D02*
X216500000Y-65500000D01*
X229870000Y-78870000D02*
X229870000Y-99060000D01*
X216500000Y-65500000D02*
X229870000Y-78870000D01*
X194389500Y-66610500D02*
X195500000Y-65500000D01*
X194389500Y-69770500D02*
X194389500Y-66610500D01*
G04 #@! TO.N,INTERLOCK_EN*
X189500000Y-98800000D02*
X187950000Y-97250000D01*
X187950000Y-97250000D02*
X186500000Y-97250000D01*
G04 #@! TO.N,TMP_LASER*
X187700000Y-98250000D02*
X185750000Y-98250000D01*
X188250000Y-98800000D02*
X187700000Y-98250000D01*
G04 #@! TO.N,LED_R*
X87630000Y-74676000D02*
X157734000Y-74676000D01*
X84986500Y-76200000D02*
X86106000Y-76200000D01*
X159766000Y-76708000D02*
X184912000Y-76708000D01*
X157734000Y-74676000D02*
X159766000Y-76708000D01*
X86106000Y-76200000D02*
X87630000Y-74676000D01*
G04 #@! TO.N,LED_G*
X187218000Y-75565000D02*
X160147000Y-75565000D01*
X160147000Y-75565000D02*
X158242000Y-73660000D01*
X187283000Y-75500000D02*
X187218000Y-75565000D01*
X158242000Y-73660000D02*
X84986500Y-73660000D01*
G04 #@! TO.N,LED_B*
X85979000Y-71120000D02*
X84986500Y-71120000D01*
X158750000Y-72644000D02*
X87503000Y-72644000D01*
X160401000Y-74295000D02*
X158750000Y-72644000D01*
X187955000Y-74295000D02*
X160401000Y-74295000D01*
X87503000Y-72644000D02*
X85979000Y-71120000D01*
X188250000Y-74000000D02*
X187955000Y-74295000D01*
G04 #@! TO.N,UPDI*
X173000000Y-77978000D02*
X204470000Y-77978000D01*
G04 #@! TO.N,ENC_A*
X119900000Y-109100000D02*
X119340000Y-109100000D01*
G04 #@! TO.N,Net-(U2-IO4)*
X139192000Y-123952000D02*
X136405000Y-123952000D01*
X136405000Y-123952000D02*
X135844000Y-124513000D01*
G04 #@! TO.N,Net-(U2-VDD)*
X139192000Y-122936000D02*
X136767000Y-122936000D01*
X136767000Y-122936000D02*
X135844000Y-122013000D01*
G04 #@! TD*
G04 #@! TA.AperFunction,Conductor*
G04 #@! TO.N,GND*
G36*
X101754000Y-109069297D02*
G01*
X101692993Y-109034075D01*
X101565826Y-109000000D01*
X101434174Y-109000000D01*
X101307007Y-109034075D01*
X101246000Y-109069297D01*
X101246000Y-107390702D01*
X101307007Y-107425925D01*
X101434174Y-107460000D01*
X101565826Y-107460000D01*
X101692993Y-107425925D01*
X101754000Y-107390702D01*
X101754000Y-109069297D01*
G37*
G04 #@! TD.AperFunction*
G04 #@! TA.AperFunction,Conductor*
G36*
X191853225Y-69255669D02*
G01*
X191875480Y-69281353D01*
X191908607Y-69332058D01*
X191964275Y-69417265D01*
X191964279Y-69417270D01*
X192116762Y-69582908D01*
X192171331Y-69625381D01*
X192294424Y-69721189D01*
X192327680Y-69739186D01*
X192378071Y-69789200D01*
X192393423Y-69858516D01*
X192368862Y-69925129D01*
X192327680Y-69960813D01*
X192294426Y-69978810D01*
X192294424Y-69978811D01*
X192116762Y-70117091D01*
X191964279Y-70282729D01*
X191875183Y-70419101D01*
X191821179Y-70465189D01*
X191750831Y-70474764D01*
X191686474Y-70444786D01*
X191664217Y-70419100D01*
X191623078Y-70356132D01*
X190984157Y-70995051D01*
X190965925Y-70927007D01*
X190900099Y-70812993D01*
X190807007Y-70719901D01*
X190692993Y-70654075D01*
X190624947Y-70635841D01*
X191265688Y-69995100D01*
X191265687Y-69995099D01*
X191245308Y-69979237D01*
X191245298Y-69979231D01*
X191211791Y-69961097D01*
X191161401Y-69911083D01*
X191146050Y-69841766D01*
X191170612Y-69775153D01*
X191211790Y-69739472D01*
X191245576Y-69721189D01*
X191423240Y-69582906D01*
X191575722Y-69417268D01*
X191664518Y-69281354D01*
X191718520Y-69235268D01*
X191788868Y-69225692D01*
X191853225Y-69255669D01*
G37*
G04 #@! TD.AperFunction*
G04 #@! TA.AperFunction,Conductor*
G36*
X82138545Y-71775502D02*
G01*
X82185038Y-71829158D01*
X82190028Y-71841867D01*
X82206885Y-71892738D01*
X82255691Y-71971864D01*
X82299970Y-72043652D01*
X82299975Y-72043658D01*
X82425341Y-72169024D01*
X82425347Y-72169029D01*
X82425348Y-72169030D01*
X82576262Y-72262115D01*
X82601249Y-72270394D01*
X82659621Y-72310806D01*
X82686878Y-72376362D01*
X82674366Y-72446247D01*
X82626057Y-72498274D01*
X82601255Y-72509602D01*
X82576264Y-72517883D01*
X82425347Y-72610970D01*
X82425341Y-72610975D01*
X82299975Y-72736341D01*
X82299970Y-72736347D01*
X82257843Y-72804647D01*
X82205057Y-72852125D01*
X82150602Y-72864500D01*
X76384500Y-72864500D01*
X76316379Y-72844498D01*
X76269886Y-72790842D01*
X76258500Y-72738500D01*
X76258500Y-72642423D01*
X76278502Y-72574302D01*
X76295405Y-72553328D01*
X76436828Y-72411905D01*
X76499140Y-72377879D01*
X76525923Y-72375000D01*
X77258000Y-72375000D01*
X77258000Y-72151414D01*
X77257999Y-72151402D01*
X77251494Y-72090906D01*
X77200444Y-71954035D01*
X77196125Y-71946124D01*
X77198189Y-71944996D01*
X77177860Y-71890484D01*
X77192954Y-71821110D01*
X77243158Y-71770910D01*
X77303539Y-71755500D01*
X82070424Y-71755500D01*
X82138545Y-71775502D01*
G37*
G04 #@! TD.AperFunction*
G04 #@! TA.AperFunction,Conductor*
G36*
X167318225Y-69255669D02*
G01*
X167340480Y-69281353D01*
X167373607Y-69332058D01*
X167429275Y-69417265D01*
X167429279Y-69417270D01*
X167581762Y-69582908D01*
X167636331Y-69625381D01*
X167759424Y-69721189D01*
X167792680Y-69739186D01*
X167843071Y-69789200D01*
X167858423Y-69858516D01*
X167833862Y-69925129D01*
X167792680Y-69960813D01*
X167759426Y-69978810D01*
X167759424Y-69978811D01*
X167581762Y-70117091D01*
X167429279Y-70282729D01*
X167340183Y-70419101D01*
X167286179Y-70465189D01*
X167215831Y-70474764D01*
X167151474Y-70444786D01*
X167129217Y-70419100D01*
X167088078Y-70356132D01*
X166449157Y-70995051D01*
X166430925Y-70927007D01*
X166365099Y-70812993D01*
X166272007Y-70719901D01*
X166157993Y-70654075D01*
X166089947Y-70635841D01*
X166730688Y-69995100D01*
X166730687Y-69995099D01*
X166710308Y-69979237D01*
X166710298Y-69979231D01*
X166676791Y-69961097D01*
X166626401Y-69911083D01*
X166611050Y-69841766D01*
X166635612Y-69775153D01*
X166676790Y-69739472D01*
X166710576Y-69721189D01*
X166888240Y-69582906D01*
X167040722Y-69417268D01*
X167129518Y-69281354D01*
X167183520Y-69235268D01*
X167253868Y-69225692D01*
X167318225Y-69255669D01*
G37*
G04 #@! TD.AperFunction*
G04 #@! TA.AperFunction,Conductor*
G36*
X231142611Y-60985608D02*
G01*
X231552205Y-61002549D01*
X231562554Y-61003406D01*
X231966774Y-61053792D01*
X231977038Y-61055505D01*
X232375714Y-61139098D01*
X232385777Y-61141646D01*
X232776203Y-61257881D01*
X232786045Y-61261261D01*
X233165521Y-61409333D01*
X233175058Y-61413516D01*
X233540988Y-61592408D01*
X233550146Y-61597364D01*
X233900073Y-61805875D01*
X233908784Y-61811566D01*
X234154956Y-61987329D01*
X234240294Y-62048259D01*
X234248512Y-62054655D01*
X234559353Y-62317923D01*
X234567014Y-62324977D01*
X234855022Y-62612985D01*
X234862076Y-62620646D01*
X235125344Y-62931487D01*
X235131740Y-62939705D01*
X235368428Y-63271207D01*
X235374124Y-63279926D01*
X235582635Y-63629853D01*
X235587591Y-63639011D01*
X235766483Y-64004941D01*
X235770666Y-64014478D01*
X235918738Y-64393954D01*
X235922120Y-64403803D01*
X236038349Y-64794206D01*
X236040905Y-64804302D01*
X236124493Y-65202957D01*
X236126207Y-65213229D01*
X236176591Y-65617431D01*
X236177451Y-65627809D01*
X236194392Y-66037388D01*
X236194500Y-66042595D01*
X236194500Y-132077404D01*
X236194392Y-132082611D01*
X236177451Y-132492190D01*
X236176591Y-132502568D01*
X236126207Y-132906770D01*
X236124493Y-132917042D01*
X236040905Y-133315697D01*
X236038349Y-133325793D01*
X235922120Y-133716196D01*
X235918738Y-133726045D01*
X235770666Y-134105521D01*
X235766483Y-134115058D01*
X235587591Y-134480988D01*
X235582635Y-134490146D01*
X235374124Y-134840073D01*
X235368428Y-134848792D01*
X235131740Y-135180294D01*
X235125344Y-135188512D01*
X234862076Y-135499353D01*
X234855022Y-135507014D01*
X234567014Y-135795022D01*
X234559353Y-135802076D01*
X234248512Y-136065344D01*
X234240294Y-136071740D01*
X233908792Y-136308428D01*
X233900073Y-136314124D01*
X233550146Y-136522635D01*
X233540988Y-136527591D01*
X233175058Y-136706483D01*
X233165521Y-136710666D01*
X232786045Y-136858738D01*
X232776196Y-136862120D01*
X232385793Y-136978349D01*
X232375697Y-136980905D01*
X231977042Y-137064493D01*
X231966770Y-137066207D01*
X231562568Y-137116591D01*
X231552190Y-137117451D01*
X231142611Y-137134392D01*
X231137404Y-137134500D01*
X57152596Y-137134500D01*
X57147389Y-137134392D01*
X56737809Y-137117451D01*
X56727431Y-137116591D01*
X56323229Y-137066207D01*
X56312957Y-137064493D01*
X55914302Y-136980905D01*
X55904206Y-136978349D01*
X55513803Y-136862120D01*
X55503954Y-136858738D01*
X55124478Y-136710666D01*
X55114941Y-136706483D01*
X54749011Y-136527591D01*
X54739853Y-136522635D01*
X54389926Y-136314124D01*
X54381207Y-136308428D01*
X54049705Y-136071740D01*
X54041487Y-136065344D01*
X53730646Y-135802076D01*
X53722985Y-135795022D01*
X53434977Y-135507014D01*
X53427923Y-135499353D01*
X53164655Y-135188512D01*
X53158259Y-135180294D01*
X52921571Y-134848792D01*
X52915875Y-134840073D01*
X52707364Y-134490146D01*
X52702408Y-134480988D01*
X52625326Y-134323315D01*
X52523516Y-134115058D01*
X52519333Y-134105521D01*
X52371261Y-133726045D01*
X52367879Y-133716196D01*
X52353455Y-133667746D01*
X52251646Y-133325777D01*
X52249098Y-133315714D01*
X52165505Y-132917038D01*
X52163792Y-132906770D01*
X52160625Y-132881359D01*
X52113406Y-132502554D01*
X52112549Y-132492205D01*
X52095608Y-132082611D01*
X52095500Y-132077404D01*
X52095500Y-130809993D01*
X56176685Y-130809993D01*
X56176685Y-130810006D01*
X56195929Y-131177232D01*
X56253458Y-131540457D01*
X56348640Y-131895680D01*
X56480422Y-132238984D01*
X56480426Y-132238992D01*
X56647380Y-132566658D01*
X56847662Y-132875067D01*
X56847674Y-132875084D01*
X57079085Y-133160853D01*
X57079099Y-133160868D01*
X57339131Y-133420900D01*
X57339146Y-133420914D01*
X57624915Y-133652325D01*
X57624932Y-133652337D01*
X57723267Y-133716196D01*
X57933342Y-133852620D01*
X58261006Y-134019573D01*
X58261010Y-134019574D01*
X58261015Y-134019577D01*
X58604319Y-134151359D01*
X58604324Y-134151360D01*
X58604326Y-134151361D01*
X58959541Y-134246541D01*
X59322759Y-134304069D01*
X59322761Y-134304069D01*
X59322767Y-134304070D01*
X59689994Y-134323315D01*
X59690000Y-134323315D01*
X59690006Y-134323315D01*
X60057232Y-134304070D01*
X60057236Y-134304069D01*
X60057241Y-134304069D01*
X60420459Y-134246541D01*
X60775674Y-134151361D01*
X60775677Y-134151359D01*
X60775680Y-134151359D01*
X61118984Y-134019577D01*
X61118985Y-134019576D01*
X61118994Y-134019573D01*
X61446658Y-133852620D01*
X61755075Y-133652332D01*
X61755084Y-133652325D01*
X62040853Y-133420914D01*
X62040858Y-133420908D01*
X62040867Y-133420902D01*
X62300902Y-133160867D01*
X62300908Y-133160858D01*
X62300914Y-133160853D01*
X62532325Y-132875084D01*
X62532326Y-132875081D01*
X62532332Y-132875075D01*
X62732620Y-132566658D01*
X62899573Y-132238994D01*
X62959451Y-132083006D01*
X63031359Y-131895680D01*
X63031361Y-131895674D01*
X63126541Y-131540459D01*
X63184069Y-131177241D01*
X63184069Y-131177236D01*
X63184070Y-131177232D01*
X63203315Y-130810006D01*
X63203315Y-130809993D01*
X63184070Y-130442767D01*
X63182602Y-130433500D01*
X63126541Y-130079541D01*
X63031361Y-129724326D01*
X63031360Y-129724324D01*
X63031359Y-129724319D01*
X62899577Y-129381015D01*
X62899573Y-129381007D01*
X62899573Y-129381006D01*
X62732620Y-129053343D01*
X62532332Y-128744925D01*
X62532329Y-128744921D01*
X62532327Y-128744918D01*
X62300914Y-128459146D01*
X62300900Y-128459131D01*
X62040868Y-128199099D01*
X62040853Y-128199085D01*
X61755084Y-127967674D01*
X61755067Y-127967662D01*
X61446658Y-127767380D01*
X61118992Y-127600426D01*
X61118984Y-127600422D01*
X60775680Y-127468640D01*
X60420457Y-127373458D01*
X60057232Y-127315929D01*
X59690006Y-127296685D01*
X59689994Y-127296685D01*
X59322767Y-127315929D01*
X58959542Y-127373458D01*
X58604319Y-127468640D01*
X58261015Y-127600422D01*
X58261007Y-127600426D01*
X57933342Y-127767380D01*
X57624921Y-127967670D01*
X57624918Y-127967672D01*
X57339146Y-128199085D01*
X57339131Y-128199099D01*
X57079099Y-128459131D01*
X57079085Y-128459146D01*
X56847672Y-128744918D01*
X56847670Y-128744921D01*
X56647380Y-129053342D01*
X56480426Y-129381007D01*
X56480422Y-129381015D01*
X56348640Y-129724319D01*
X56253458Y-130079542D01*
X56195929Y-130442767D01*
X56176685Y-130809993D01*
X52095500Y-130809993D01*
X52095500Y-118942993D01*
X130621041Y-118942993D01*
X130621041Y-118943006D01*
X130640854Y-119257944D01*
X130640856Y-119257961D01*
X130699989Y-119567942D01*
X130699992Y-119567955D01*
X130797509Y-119868079D01*
X130797513Y-119868088D01*
X130931875Y-120153622D01*
X130931882Y-120153636D01*
X131100969Y-120420075D01*
X131100971Y-120420078D01*
X131190042Y-120527746D01*
X132087939Y-119629848D01*
X132180554Y-119757320D01*
X132319680Y-119896446D01*
X132447149Y-119989059D01*
X131546522Y-120889686D01*
X131546522Y-120889688D01*
X131787482Y-121064756D01*
X132064034Y-121216792D01*
X132357460Y-121332968D01*
X132357466Y-121332970D01*
X132663103Y-121411444D01*
X132663130Y-121411449D01*
X132976195Y-121450998D01*
X132976214Y-121451000D01*
X133291786Y-121451000D01*
X133291804Y-121450998D01*
X133604869Y-121411449D01*
X133604896Y-121411444D01*
X133910533Y-121332970D01*
X133910539Y-121332968D01*
X134207647Y-121215335D01*
X134208170Y-121216658D01*
X134272457Y-121206641D01*
X134337381Y-121235371D01*
X134376466Y-121294640D01*
X134377704Y-121364171D01*
X134341571Y-121499023D01*
X134341570Y-121499026D01*
X134341570Y-121499029D01*
X134339546Y-121524748D01*
X134335500Y-121576160D01*
X134335500Y-122449841D01*
X134341569Y-122526969D01*
X134389637Y-122706360D01*
X134473952Y-122871837D01*
X134473957Y-122871846D01*
X134590829Y-123016170D01*
X134735153Y-123133042D01*
X134735166Y-123133050D01*
X134769872Y-123150734D01*
X134821486Y-123199482D01*
X134838552Y-123268397D01*
X134815651Y-123335598D01*
X134769872Y-123375266D01*
X134735166Y-123392949D01*
X134735153Y-123392957D01*
X134590829Y-123509829D01*
X134473957Y-123654153D01*
X134473952Y-123654162D01*
X134389637Y-123819639D01*
X134354171Y-123952000D01*
X134341570Y-123999029D01*
X134336020Y-124069554D01*
X134335500Y-124076160D01*
X134335500Y-124949841D01*
X134341569Y-125026969D01*
X134341571Y-125026974D01*
X134389638Y-125206362D01*
X134473953Y-125371839D01*
X134510065Y-125416434D01*
X134524052Y-125433707D01*
X134551376Y-125499235D01*
X134538935Y-125569133D01*
X134524052Y-125592293D01*
X134473953Y-125654161D01*
X134473952Y-125654163D01*
X134389637Y-125819639D01*
X134341571Y-125999025D01*
X134341570Y-125999029D01*
X134335500Y-126076157D01*
X134335500Y-126076160D01*
X134335500Y-126949841D01*
X134341569Y-127026969D01*
X134389637Y-127206360D01*
X134473952Y-127371837D01*
X134473957Y-127371846D01*
X134590829Y-127516170D01*
X134735153Y-127633042D01*
X134735158Y-127633045D01*
X134735161Y-127633047D01*
X134766775Y-127649155D01*
X134770423Y-127651014D01*
X134822038Y-127699762D01*
X134839104Y-127768677D01*
X134816203Y-127835879D01*
X134770423Y-127875548D01*
X134735437Y-127893374D01*
X134735434Y-127893376D01*
X134591185Y-128010185D01*
X134474376Y-128154434D01*
X134474374Y-128154437D01*
X134390107Y-128319818D01*
X134342068Y-128499098D01*
X134336000Y-128576199D01*
X134336000Y-128759000D01*
X135413297Y-128759000D01*
X135378075Y-128820007D01*
X135344000Y-128947174D01*
X135344000Y-129078826D01*
X135378075Y-129205993D01*
X135413297Y-129267000D01*
X134336000Y-129267000D01*
X134336000Y-129449800D01*
X134342068Y-129526901D01*
X134378297Y-129662105D01*
X134376608Y-129733082D01*
X134336815Y-129791878D01*
X134271550Y-129819826D01*
X134208083Y-129809563D01*
X134207647Y-129810665D01*
X133910539Y-129693031D01*
X133910533Y-129693029D01*
X133604896Y-129614555D01*
X133604869Y-129614550D01*
X133291804Y-129575001D01*
X133291786Y-129575000D01*
X132976214Y-129575000D01*
X132976195Y-129575001D01*
X132663130Y-129614550D01*
X132663103Y-129614555D01*
X132357466Y-129693029D01*
X132357460Y-129693031D01*
X132064034Y-129809207D01*
X131787486Y-129961240D01*
X131546522Y-130136310D01*
X131546522Y-130136312D01*
X132447150Y-131036940D01*
X132319680Y-131129554D01*
X132180554Y-131268680D01*
X132087940Y-131396150D01*
X131190042Y-130498252D01*
X131100972Y-130605921D01*
X131100969Y-130605924D01*
X130931882Y-130872363D01*
X130931875Y-130872377D01*
X130797513Y-131157911D01*
X130797509Y-131157920D01*
X130699992Y-131458044D01*
X130699989Y-131458057D01*
X130640856Y-131768038D01*
X130640854Y-131768055D01*
X130621041Y-132082993D01*
X130621041Y-132083006D01*
X130640854Y-132397944D01*
X130640856Y-132397961D01*
X130699989Y-132707942D01*
X130699992Y-132707955D01*
X130797509Y-133008079D01*
X130797513Y-133008088D01*
X130931875Y-133293622D01*
X130931882Y-133293636D01*
X131100969Y-133560075D01*
X131100971Y-133560078D01*
X131190042Y-133667746D01*
X132087939Y-132769848D01*
X132180554Y-132897320D01*
X132319680Y-133036446D01*
X132447149Y-133129058D01*
X131546522Y-134029686D01*
X131546522Y-134029688D01*
X131787482Y-134204756D01*
X132064034Y-134356792D01*
X132357460Y-134472968D01*
X132357466Y-134472970D01*
X132663103Y-134551444D01*
X132663130Y-134551449D01*
X132976195Y-134590998D01*
X132976214Y-134591000D01*
X133291786Y-134591000D01*
X133291804Y-134590998D01*
X133604869Y-134551449D01*
X133604896Y-134551444D01*
X133910533Y-134472970D01*
X133910539Y-134472968D01*
X134203965Y-134356792D01*
X134480512Y-134204759D01*
X134721476Y-134029688D01*
X134721476Y-134029686D01*
X133820849Y-133129059D01*
X133948320Y-133036446D01*
X134087446Y-132897320D01*
X134180059Y-132769849D01*
X135077956Y-133667746D01*
X135167030Y-133560075D01*
X135167033Y-133560071D01*
X135336117Y-133293636D01*
X135336124Y-133293622D01*
X135470486Y-133008088D01*
X135470490Y-133008079D01*
X135568007Y-132707955D01*
X135568010Y-132707942D01*
X135627143Y-132397961D01*
X135627145Y-132397944D01*
X135646959Y-132083006D01*
X135646959Y-132082993D01*
X135627145Y-131768055D01*
X135627143Y-131768038D01*
X135611112Y-131684000D01*
X145786496Y-131684000D01*
X145806457Y-131873927D01*
X145836526Y-131966470D01*
X145865473Y-132055556D01*
X145865476Y-132055561D01*
X145960958Y-132220941D01*
X145960965Y-132220951D01*
X146088744Y-132362864D01*
X146137051Y-132397961D01*
X146243248Y-132475118D01*
X146417712Y-132552794D01*
X146604513Y-132592500D01*
X146795487Y-132592500D01*
X146982288Y-132552794D01*
X147156752Y-132475118D01*
X147311253Y-132362866D01*
X147439040Y-132220944D01*
X147534527Y-132055556D01*
X147593542Y-131873928D01*
X147613504Y-131684000D01*
X147593542Y-131494072D01*
X147534527Y-131312444D01*
X147439040Y-131147056D01*
X147439038Y-131147054D01*
X147439034Y-131147048D01*
X147311255Y-131005135D01*
X147156752Y-130892882D01*
X146982288Y-130815206D01*
X146795487Y-130775500D01*
X146604513Y-130775500D01*
X146417711Y-130815206D01*
X146243247Y-130892882D01*
X146088744Y-131005135D01*
X145960965Y-131147048D01*
X145960958Y-131147058D01*
X145865476Y-131312438D01*
X145865473Y-131312445D01*
X145806457Y-131494072D01*
X145786496Y-131684000D01*
X135611112Y-131684000D01*
X135568010Y-131458057D01*
X135568007Y-131458044D01*
X135470490Y-131157920D01*
X135470486Y-131157911D01*
X135336124Y-130872377D01*
X135336117Y-130872363D01*
X135167030Y-130605924D01*
X135167028Y-130605921D01*
X135060636Y-130477315D01*
X135032626Y-130412078D01*
X135044333Y-130342053D01*
X135092040Y-130289473D01*
X135157721Y-130271000D01*
X135590000Y-130271000D01*
X135590000Y-129443702D01*
X135651007Y-129478925D01*
X135778174Y-129513000D01*
X135909826Y-129513000D01*
X136036993Y-129478925D01*
X136098000Y-129443702D01*
X136098000Y-130271000D01*
X136530801Y-130271000D01*
X136607901Y-130264931D01*
X136787181Y-130216892D01*
X136952562Y-130132625D01*
X136952565Y-130132623D01*
X137096814Y-130015814D01*
X137213623Y-129871565D01*
X137213625Y-129871562D01*
X137297892Y-129706181D01*
X137345931Y-129526901D01*
X137346081Y-129525000D01*
X145786496Y-129525000D01*
X145806457Y-129714927D01*
X145831461Y-129791878D01*
X145865473Y-129896556D01*
X145865476Y-129896561D01*
X145960958Y-130061941D01*
X145960965Y-130061951D01*
X146088744Y-130203864D01*
X146088747Y-130203866D01*
X146243248Y-130316118D01*
X146417712Y-130393794D01*
X146604513Y-130433500D01*
X146795487Y-130433500D01*
X146982288Y-130393794D01*
X147156752Y-130316118D01*
X147311253Y-130203866D01*
X147375399Y-130132625D01*
X147439034Y-130061951D01*
X147439035Y-130061949D01*
X147439040Y-130061944D01*
X147534527Y-129896556D01*
X147593542Y-129714928D01*
X147613504Y-129525000D01*
X147593542Y-129335072D01*
X147534527Y-129153444D01*
X147464411Y-129032000D01*
X201778496Y-129032000D01*
X201798457Y-129221927D01*
X201813103Y-129267000D01*
X201857473Y-129403556D01*
X201857476Y-129403561D01*
X201952958Y-129568941D01*
X201952965Y-129568951D01*
X202080744Y-129710864D01*
X202141999Y-129755368D01*
X202235248Y-129823118D01*
X202409712Y-129900794D01*
X202596513Y-129940500D01*
X202787487Y-129940500D01*
X202974288Y-129900794D01*
X203148752Y-129823118D01*
X203303253Y-129710866D01*
X203303255Y-129710864D01*
X203431034Y-129568951D01*
X203431035Y-129568949D01*
X203431040Y-129568944D01*
X203447755Y-129539993D01*
X225086685Y-129539993D01*
X225086685Y-129540006D01*
X225105929Y-129907232D01*
X225163458Y-130270457D01*
X225258640Y-130625680D01*
X225390422Y-130968984D01*
X225390426Y-130968992D01*
X225557380Y-131296658D01*
X225757662Y-131605067D01*
X225757674Y-131605084D01*
X225989085Y-131890853D01*
X225989099Y-131890868D01*
X226249131Y-132150900D01*
X226249146Y-132150914D01*
X226534915Y-132382325D01*
X226534932Y-132382337D01*
X226677803Y-132475118D01*
X226843342Y-132582620D01*
X227171006Y-132749573D01*
X227171010Y-132749574D01*
X227171015Y-132749577D01*
X227514319Y-132881359D01*
X227514324Y-132881360D01*
X227514326Y-132881361D01*
X227869541Y-132976541D01*
X228232759Y-133034069D01*
X228232761Y-133034069D01*
X228232767Y-133034070D01*
X228599994Y-133053315D01*
X228600000Y-133053315D01*
X228600006Y-133053315D01*
X228967232Y-133034070D01*
X228967236Y-133034069D01*
X228967241Y-133034069D01*
X229330459Y-132976541D01*
X229685674Y-132881361D01*
X229685677Y-132881359D01*
X229685680Y-132881359D01*
X230028984Y-132749577D01*
X230028985Y-132749576D01*
X230028994Y-132749573D01*
X230356658Y-132582620D01*
X230665075Y-132382332D01*
X230673254Y-132375709D01*
X230950853Y-132150914D01*
X230950858Y-132150908D01*
X230950867Y-132150902D01*
X231210902Y-131890867D01*
X231210908Y-131890858D01*
X231210914Y-131890853D01*
X231442325Y-131605084D01*
X231442326Y-131605081D01*
X231442332Y-131605075D01*
X231642620Y-131296658D01*
X231809573Y-130968994D01*
X231870608Y-130809993D01*
X231941359Y-130625680D01*
X231946653Y-130605924D01*
X232036541Y-130270459D01*
X232094069Y-129907241D01*
X232094069Y-129907236D01*
X232094070Y-129907232D01*
X232113315Y-129540006D01*
X232113315Y-129539993D01*
X232094070Y-129172767D01*
X232064813Y-128988048D01*
X232036541Y-128809541D01*
X231941361Y-128454326D01*
X231941360Y-128454324D01*
X231941359Y-128454319D01*
X231809577Y-128111015D01*
X231809573Y-128111007D01*
X231809573Y-128111006D01*
X231642620Y-127783343D01*
X231442332Y-127474925D01*
X231442329Y-127474921D01*
X231442327Y-127474918D01*
X231210914Y-127189146D01*
X231210900Y-127189131D01*
X230950868Y-126929099D01*
X230950853Y-126929085D01*
X230665084Y-126697674D01*
X230665067Y-126697662D01*
X230356658Y-126497380D01*
X230028992Y-126330426D01*
X230028984Y-126330422D01*
X229685680Y-126198640D01*
X229330457Y-126103458D01*
X228967232Y-126045929D01*
X228600006Y-126026685D01*
X228599994Y-126026685D01*
X228232767Y-126045929D01*
X227869542Y-126103458D01*
X227514319Y-126198640D01*
X227171015Y-126330422D01*
X227171007Y-126330426D01*
X226843342Y-126497380D01*
X226534921Y-126697670D01*
X226534918Y-126697672D01*
X226249146Y-126929085D01*
X226249131Y-126929099D01*
X225989099Y-127189131D01*
X225989085Y-127189146D01*
X225757672Y-127474918D01*
X225757670Y-127474921D01*
X225557380Y-127783342D01*
X225390426Y-128111007D01*
X225390422Y-128111015D01*
X225258640Y-128454319D01*
X225163458Y-128809542D01*
X225105929Y-129172767D01*
X225086685Y-129539993D01*
X203447755Y-129539993D01*
X203526527Y-129403556D01*
X203585542Y-129221928D01*
X203605504Y-129032000D01*
X203585542Y-128842072D01*
X203526527Y-128660444D01*
X203431040Y-128495056D01*
X203431038Y-128495054D01*
X203431034Y-128495048D01*
X203303255Y-128353135D01*
X203148752Y-128240882D01*
X202974288Y-128163206D01*
X202787487Y-128123500D01*
X202596513Y-128123500D01*
X202409711Y-128163206D01*
X202235247Y-128240882D01*
X202080744Y-128353135D01*
X201952965Y-128495048D01*
X201952958Y-128495058D01*
X201857476Y-128660438D01*
X201857473Y-128660445D01*
X201798457Y-128842072D01*
X201778496Y-129032000D01*
X147464411Y-129032000D01*
X147439040Y-128988056D01*
X147439038Y-128988054D01*
X147439034Y-128988048D01*
X147311255Y-128846135D01*
X147156752Y-128733882D01*
X146982288Y-128656206D01*
X146795487Y-128616500D01*
X146604513Y-128616500D01*
X146417711Y-128656206D01*
X146243247Y-128733882D01*
X146088744Y-128846135D01*
X145960965Y-128988048D01*
X145960958Y-128988058D01*
X145865476Y-129153438D01*
X145865473Y-129153445D01*
X145806457Y-129335072D01*
X145786496Y-129525000D01*
X137346081Y-129525000D01*
X137352000Y-129449800D01*
X137352000Y-129267000D01*
X136274703Y-129267000D01*
X136309925Y-129205993D01*
X136344000Y-129078826D01*
X136344000Y-128947174D01*
X136309925Y-128820007D01*
X136274703Y-128759000D01*
X137352000Y-128759000D01*
X137352000Y-128576199D01*
X137345931Y-128499098D01*
X137297892Y-128319818D01*
X137213625Y-128154437D01*
X137213623Y-128154434D01*
X137096814Y-128010185D01*
X136952565Y-127893376D01*
X136952559Y-127893372D01*
X136917577Y-127875548D01*
X136865961Y-127826800D01*
X136848895Y-127757886D01*
X136871795Y-127690684D01*
X136917577Y-127651014D01*
X136920995Y-127649272D01*
X136952839Y-127633047D01*
X136952843Y-127633043D01*
X136952846Y-127633042D01*
X137097170Y-127516170D01*
X137214042Y-127371846D01*
X137214043Y-127371843D01*
X137214047Y-127371839D01*
X137298362Y-127206362D01*
X137346430Y-127026971D01*
X137352500Y-126949843D01*
X137352499Y-126238000D01*
X201778496Y-126238000D01*
X201798457Y-126427927D01*
X201828526Y-126520470D01*
X201857473Y-126609556D01*
X201857476Y-126609561D01*
X201952958Y-126774941D01*
X201952965Y-126774951D01*
X202080744Y-126916864D01*
X202080747Y-126916866D01*
X202235248Y-127029118D01*
X202409712Y-127106794D01*
X202596513Y-127146500D01*
X202787487Y-127146500D01*
X202974288Y-127106794D01*
X203148752Y-127029118D01*
X203303253Y-126916866D01*
X203431040Y-126774944D01*
X203526527Y-126609556D01*
X203585542Y-126427928D01*
X203605504Y-126238000D01*
X203585542Y-126048072D01*
X203526527Y-125866444D01*
X203431040Y-125701056D01*
X203431038Y-125701054D01*
X203431034Y-125701048D01*
X203303255Y-125559135D01*
X203148752Y-125446882D01*
X202974288Y-125369206D01*
X202787487Y-125329500D01*
X202596513Y-125329500D01*
X202409711Y-125369206D01*
X202235247Y-125446882D01*
X202080744Y-125559135D01*
X201952965Y-125701048D01*
X201952958Y-125701058D01*
X201857476Y-125866438D01*
X201857473Y-125866445D01*
X201798457Y-126048072D01*
X201778496Y-126238000D01*
X137352499Y-126238000D01*
X137352499Y-126076158D01*
X137346430Y-125999029D01*
X137298362Y-125819638D01*
X137214047Y-125654161D01*
X137163947Y-125592292D01*
X137136622Y-125526768D01*
X137149061Y-125456870D01*
X137163947Y-125433707D01*
X137214047Y-125371839D01*
X137298362Y-125206362D01*
X137346430Y-125026971D01*
X137352500Y-124949843D01*
X137352500Y-124777000D01*
X137372502Y-124708879D01*
X137426158Y-124662386D01*
X137478500Y-124651000D01*
X138567519Y-124651000D01*
X138635640Y-124671002D01*
X138641580Y-124675064D01*
X138735248Y-124743118D01*
X138909712Y-124820794D01*
X139096513Y-124860500D01*
X139287487Y-124860500D01*
X139474288Y-124820794D01*
X139648752Y-124743118D01*
X139803253Y-124630866D01*
X139860945Y-124566793D01*
X139931034Y-124488951D01*
X139931035Y-124488949D01*
X139931040Y-124488944D01*
X140026527Y-124323556D01*
X140085542Y-124141928D01*
X140105504Y-123952000D01*
X140085542Y-123762072D01*
X140064724Y-123698000D01*
X168758496Y-123698000D01*
X168778457Y-123887927D01*
X168799276Y-123952000D01*
X168837473Y-124069556D01*
X168837476Y-124069561D01*
X168932958Y-124234941D01*
X168932965Y-124234951D01*
X169060744Y-124376864D01*
X169060747Y-124376866D01*
X169215248Y-124489118D01*
X169389712Y-124566794D01*
X169576513Y-124606500D01*
X169767487Y-124606500D01*
X169954288Y-124566794D01*
X170128752Y-124489118D01*
X170283253Y-124376866D01*
X170331249Y-124323561D01*
X170411034Y-124234951D01*
X170411035Y-124234949D01*
X170411040Y-124234944D01*
X170506527Y-124069556D01*
X170565542Y-123887928D01*
X170585504Y-123698000D01*
X202286496Y-123698000D01*
X202306457Y-123887927D01*
X202327276Y-123952000D01*
X202365473Y-124069556D01*
X202365476Y-124069561D01*
X202460958Y-124234941D01*
X202460965Y-124234951D01*
X202588744Y-124376864D01*
X202588747Y-124376866D01*
X202743248Y-124489118D01*
X202917712Y-124566794D01*
X203104513Y-124606500D01*
X203295487Y-124606500D01*
X203482288Y-124566794D01*
X203656752Y-124489118D01*
X203811253Y-124376866D01*
X203859249Y-124323561D01*
X203939034Y-124234951D01*
X203939035Y-124234949D01*
X203939040Y-124234944D01*
X204034527Y-124069556D01*
X204093542Y-123887928D01*
X204113504Y-123698000D01*
X204093542Y-123508072D01*
X204034527Y-123326444D01*
X203939040Y-123161056D01*
X203939038Y-123161054D01*
X203939034Y-123161048D01*
X203811255Y-123019135D01*
X203656752Y-122906882D01*
X203482288Y-122829206D01*
X203295487Y-122789500D01*
X203104513Y-122789500D01*
X202917711Y-122829206D01*
X202743247Y-122906882D01*
X202588744Y-123019135D01*
X202460965Y-123161048D01*
X202460958Y-123161058D01*
X202365476Y-123326438D01*
X202365473Y-123326445D01*
X202306457Y-123508072D01*
X202286496Y-123698000D01*
X170585504Y-123698000D01*
X170565542Y-123508072D01*
X170506527Y-123326444D01*
X170411040Y-123161056D01*
X170411038Y-123161054D01*
X170411034Y-123161048D01*
X170283255Y-123019135D01*
X170128752Y-122906882D01*
X169954288Y-122829206D01*
X169767487Y-122789500D01*
X169576513Y-122789500D01*
X169389711Y-122829206D01*
X169215247Y-122906882D01*
X169060744Y-123019135D01*
X168932965Y-123161048D01*
X168932958Y-123161058D01*
X168837476Y-123326438D01*
X168837473Y-123326445D01*
X168778457Y-123508072D01*
X168758496Y-123698000D01*
X140064724Y-123698000D01*
X140026527Y-123580444D01*
X139984123Y-123507000D01*
X139967386Y-123438006D01*
X139984124Y-123380999D01*
X139987434Y-123375266D01*
X140026527Y-123307556D01*
X140085542Y-123125928D01*
X140105504Y-122936000D01*
X140085542Y-122746072D01*
X140026527Y-122564444D01*
X139931040Y-122399056D01*
X139931038Y-122399054D01*
X139931034Y-122399048D01*
X139803255Y-122257135D01*
X139648752Y-122144882D01*
X139474288Y-122067206D01*
X139287487Y-122027500D01*
X139096513Y-122027500D01*
X138909711Y-122067206D01*
X138735247Y-122144882D01*
X138641580Y-122212936D01*
X138574712Y-122236795D01*
X138567519Y-122237000D01*
X137478500Y-122237000D01*
X137410379Y-122216998D01*
X137363886Y-122163342D01*
X137352500Y-122111000D01*
X137352499Y-121576158D01*
X137348181Y-121521277D01*
X137346430Y-121499029D01*
X137328270Y-121431254D01*
X147054237Y-121431254D01*
X147074198Y-121621181D01*
X147099349Y-121698585D01*
X147133214Y-121802810D01*
X147133217Y-121802815D01*
X147228699Y-121968195D01*
X147228706Y-121968205D01*
X147356485Y-122110118D01*
X147356488Y-122110120D01*
X147510989Y-122222372D01*
X147685453Y-122300048D01*
X147872254Y-122339754D01*
X148063228Y-122339754D01*
X148250029Y-122300048D01*
X148424493Y-122222372D01*
X148578994Y-122110120D01*
X148578996Y-122110118D01*
X148706775Y-121968205D01*
X148706776Y-121968203D01*
X148706781Y-121968198D01*
X148802268Y-121802810D01*
X148861283Y-121621182D01*
X148881245Y-121431254D01*
X148861283Y-121241326D01*
X148802268Y-121059698D01*
X148706781Y-120894310D01*
X148706779Y-120894308D01*
X148706775Y-120894302D01*
X148578996Y-120752389D01*
X148424493Y-120640136D01*
X148250029Y-120562460D01*
X148063228Y-120522754D01*
X147872254Y-120522754D01*
X147685452Y-120562460D01*
X147510988Y-120640136D01*
X147356485Y-120752389D01*
X147228706Y-120894302D01*
X147228699Y-120894312D01*
X147133217Y-121059692D01*
X147133214Y-121059699D01*
X147074198Y-121241326D01*
X147054237Y-121431254D01*
X137328270Y-121431254D01*
X137298362Y-121319638D01*
X137214047Y-121154161D01*
X137214045Y-121154158D01*
X137214042Y-121154153D01*
X137097170Y-121009829D01*
X136952846Y-120892957D01*
X136952837Y-120892952D01*
X136787360Y-120808637D01*
X136661266Y-120774850D01*
X136607971Y-120760570D01*
X136530843Y-120754500D01*
X136530840Y-120754500D01*
X135158133Y-120754500D01*
X135090012Y-120734498D01*
X135043519Y-120680842D01*
X135033415Y-120610568D01*
X135061049Y-120548184D01*
X135167027Y-120420079D01*
X135167030Y-120420075D01*
X135336117Y-120153636D01*
X135336124Y-120153622D01*
X135470486Y-119868088D01*
X135470490Y-119868079D01*
X135568007Y-119567955D01*
X135568010Y-119567942D01*
X135603862Y-119380000D01*
X147320000Y-119380000D01*
X157480000Y-119380000D01*
X157480000Y-111760000D01*
X147320000Y-111760000D01*
X147320000Y-119380000D01*
X135603862Y-119380000D01*
X135627143Y-119257961D01*
X135627145Y-119257944D01*
X135646959Y-118943006D01*
X135646959Y-118942993D01*
X135627145Y-118628055D01*
X135627143Y-118628038D01*
X135568010Y-118318057D01*
X135568007Y-118318044D01*
X135470490Y-118017920D01*
X135470486Y-118017911D01*
X135336124Y-117732377D01*
X135336117Y-117732363D01*
X135167030Y-117465924D01*
X135167028Y-117465921D01*
X135077956Y-117358252D01*
X134180059Y-118256149D01*
X134087446Y-118128680D01*
X133948320Y-117989554D01*
X133820849Y-117896940D01*
X134721476Y-116996312D01*
X134721476Y-116996310D01*
X134480513Y-116821240D01*
X134203965Y-116669207D01*
X133910539Y-116553031D01*
X133910533Y-116553029D01*
X133604896Y-116474555D01*
X133604869Y-116474550D01*
X133291804Y-116435001D01*
X133291786Y-116435000D01*
X132976214Y-116435000D01*
X132976195Y-116435001D01*
X132663130Y-116474550D01*
X132663103Y-116474555D01*
X132357466Y-116553029D01*
X132357460Y-116553031D01*
X132064034Y-116669207D01*
X131787486Y-116821240D01*
X131546522Y-116996310D01*
X131546522Y-116996312D01*
X132447150Y-117896940D01*
X132319680Y-117989554D01*
X132180554Y-118128680D01*
X132087940Y-118256150D01*
X131190042Y-117358252D01*
X131100972Y-117465921D01*
X131100969Y-117465924D01*
X130931882Y-117732363D01*
X130931875Y-117732377D01*
X130797513Y-118017911D01*
X130797509Y-118017920D01*
X130699992Y-118318044D01*
X130699989Y-118318057D01*
X130640856Y-118628038D01*
X130640854Y-118628055D01*
X130621041Y-118942993D01*
X52095500Y-118942993D01*
X52095500Y-115316000D01*
X115926496Y-115316000D01*
X115946457Y-115505927D01*
X115976526Y-115598470D01*
X116005473Y-115687556D01*
X116005476Y-115687561D01*
X116100958Y-115852941D01*
X116100965Y-115852951D01*
X116228744Y-115994864D01*
X116228747Y-115994866D01*
X116383248Y-116107118D01*
X116557712Y-116184794D01*
X116744513Y-116224500D01*
X116935487Y-116224500D01*
X117122288Y-116184794D01*
X117296752Y-116107118D01*
X117451253Y-115994866D01*
X117579040Y-115852944D01*
X117674527Y-115687556D01*
X117733542Y-115505928D01*
X117753504Y-115316000D01*
X117733542Y-115126072D01*
X117674527Y-114944444D01*
X117579040Y-114779056D01*
X117579038Y-114779054D01*
X117579034Y-114779048D01*
X117451255Y-114637135D01*
X117296752Y-114524882D01*
X117122288Y-114447206D01*
X116935487Y-114407500D01*
X116744513Y-114407500D01*
X116557711Y-114447206D01*
X116383247Y-114524882D01*
X116228744Y-114637135D01*
X116100965Y-114779048D01*
X116100958Y-114779058D01*
X116005476Y-114944438D01*
X116005473Y-114944445D01*
X115946457Y-115126072D01*
X115926496Y-115316000D01*
X52095500Y-115316000D01*
X52095500Y-101599984D01*
X63469492Y-101599984D01*
X63469492Y-101600015D01*
X63489518Y-102313798D01*
X63489518Y-102313808D01*
X63549537Y-103025354D01*
X63649361Y-103732445D01*
X63788673Y-104432811D01*
X63788675Y-104432822D01*
X63967030Y-105124244D01*
X64183888Y-105804628D01*
X64183894Y-105804644D01*
X64438525Y-106471706D01*
X64438535Y-106471732D01*
X64438544Y-106471754D01*
X64616715Y-106869927D01*
X64730203Y-107123547D01*
X64730217Y-107123576D01*
X65057951Y-107757969D01*
X65057972Y-107758007D01*
X65420764Y-108373028D01*
X65420767Y-108373033D01*
X65420771Y-108373039D01*
X65817496Y-108966780D01*
X65817500Y-108966785D01*
X65817505Y-108966793D01*
X66246875Y-109537326D01*
X66246883Y-109537336D01*
X66246888Y-109537342D01*
X66628633Y-109989419D01*
X66707597Y-110082931D01*
X67198170Y-110601829D01*
X67658563Y-111037091D01*
X67717070Y-111092404D01*
X68262658Y-111553112D01*
X68262665Y-111553117D01*
X68262673Y-111553124D01*
X68833206Y-111982494D01*
X68833210Y-111982496D01*
X68833220Y-111982504D01*
X69426961Y-112379229D01*
X69426965Y-112379231D01*
X69426966Y-112379232D01*
X69426971Y-112379235D01*
X70041992Y-112742027D01*
X70042002Y-112742032D01*
X70042013Y-112742039D01*
X70676440Y-113069791D01*
X71328246Y-113361456D01*
X71328283Y-113361470D01*
X71995355Y-113616105D01*
X71995371Y-113616111D01*
X71995377Y-113616113D01*
X71995380Y-113616114D01*
X72675743Y-113832966D01*
X72675755Y-113832969D01*
X73367177Y-114011324D01*
X73367185Y-114011325D01*
X73367195Y-114011328D01*
X73792743Y-114095974D01*
X74067554Y-114150638D01*
X74067560Y-114150638D01*
X74067561Y-114150639D01*
X74774635Y-114250461D01*
X74774644Y-114250461D01*
X74774646Y-114250462D01*
X74774644Y-114250462D01*
X75301635Y-114294913D01*
X75486195Y-114310481D01*
X75530807Y-114311732D01*
X76199985Y-114330508D01*
X76200000Y-114330508D01*
X76200015Y-114330508D01*
X76686685Y-114316853D01*
X76913805Y-114310481D01*
X76913808Y-114310481D01*
X77625354Y-114250462D01*
X77625355Y-114250461D01*
X77625365Y-114250461D01*
X78332439Y-114150639D01*
X78332441Y-114150638D01*
X78332445Y-114150638D01*
X78467945Y-114123685D01*
X79032805Y-114011328D01*
X79032816Y-114011324D01*
X79032822Y-114011324D01*
X79393422Y-113918305D01*
X79724257Y-113832966D01*
X80404620Y-113616114D01*
X81071754Y-113361456D01*
X81723560Y-113069791D01*
X82357987Y-112742039D01*
X82973039Y-112379229D01*
X83566780Y-111982504D01*
X84137342Y-111553112D01*
X84682930Y-111092404D01*
X85201829Y-110601829D01*
X85692404Y-110082930D01*
X86153112Y-109537342D01*
X86582504Y-108966780D01*
X86979229Y-108373039D01*
X87342039Y-107757987D01*
X87669791Y-107123560D01*
X87961456Y-106471754D01*
X87961468Y-106471721D01*
X87961475Y-106471706D01*
X88216105Y-105804644D01*
X88216111Y-105804628D01*
X88216114Y-105804620D01*
X88432966Y-105124257D01*
X88518305Y-104793422D01*
X88611324Y-104432822D01*
X88611326Y-104432811D01*
X88611328Y-104432805D01*
X88750639Y-103732439D01*
X88850461Y-103025365D01*
X88862477Y-102882908D01*
X88910481Y-102313808D01*
X88910481Y-102313798D01*
X88922652Y-101880000D01*
X100136844Y-101880000D01*
X100152250Y-102065925D01*
X100155437Y-102104375D01*
X100210702Y-102322612D01*
X100210703Y-102322613D01*
X100210704Y-102322616D01*
X100260859Y-102436958D01*
X100301141Y-102528793D01*
X100424275Y-102717265D01*
X100424279Y-102717270D01*
X100576762Y-102882908D01*
X100623029Y-102918919D01*
X100754424Y-103021189D01*
X100787680Y-103039186D01*
X100838071Y-103089200D01*
X100853423Y-103158516D01*
X100828862Y-103225129D01*
X100787680Y-103260813D01*
X100754426Y-103278810D01*
X100754424Y-103278811D01*
X100576762Y-103417091D01*
X100424279Y-103582729D01*
X100424275Y-103582734D01*
X100301141Y-103771206D01*
X100210703Y-103977386D01*
X100210702Y-103977387D01*
X100155437Y-104195624D01*
X100155436Y-104195630D01*
X100155436Y-104195632D01*
X100136844Y-104420000D01*
X100137906Y-104432822D01*
X100155437Y-104644375D01*
X100210702Y-104862612D01*
X100210703Y-104862613D01*
X100301141Y-105068793D01*
X100424275Y-105257265D01*
X100424279Y-105257270D01*
X100576762Y-105422908D01*
X100631331Y-105465381D01*
X100754424Y-105561189D01*
X100788205Y-105579470D01*
X100838596Y-105629482D01*
X100853949Y-105698799D01*
X100829389Y-105765412D01*
X100788209Y-105801096D01*
X100754704Y-105819228D01*
X100754698Y-105819232D01*
X100577097Y-105957465D01*
X100424674Y-106123041D01*
X100301580Y-106311451D01*
X100211179Y-106517543D01*
X100211176Y-106517550D01*
X100163455Y-106705999D01*
X100163456Y-106706000D01*
X101069297Y-106706000D01*
X101034075Y-106767007D01*
X101000000Y-106894174D01*
X101000000Y-107025826D01*
X101034075Y-107152993D01*
X101069297Y-107214000D01*
X100163455Y-107214000D01*
X100211176Y-107402449D01*
X100211179Y-107402456D01*
X100301580Y-107608548D01*
X100424674Y-107796958D01*
X100577097Y-107962534D01*
X100754698Y-108100767D01*
X100754699Y-108100768D01*
X100788734Y-108119187D01*
X100839123Y-108169201D01*
X100854475Y-108238518D01*
X100829913Y-108305130D01*
X100788734Y-108340813D01*
X100754699Y-108359231D01*
X100754698Y-108359232D01*
X100577097Y-108497465D01*
X100424674Y-108663041D01*
X100301580Y-108851451D01*
X100211179Y-109057543D01*
X100211176Y-109057550D01*
X100163455Y-109245999D01*
X100163456Y-109246000D01*
X101069297Y-109246000D01*
X101034075Y-109307007D01*
X101000000Y-109434174D01*
X101000000Y-109565826D01*
X101034075Y-109692993D01*
X101069297Y-109754000D01*
X100163455Y-109754000D01*
X100211176Y-109942449D01*
X100211179Y-109942456D01*
X100301580Y-110148548D01*
X100424674Y-110336958D01*
X100577097Y-110502534D01*
X100754698Y-110640767D01*
X100754704Y-110640771D01*
X100788207Y-110658902D01*
X100838597Y-110708915D01*
X100853949Y-110778232D01*
X100829388Y-110844845D01*
X100788207Y-110880528D01*
X100754430Y-110898807D01*
X100754424Y-110898811D01*
X100576762Y-111037091D01*
X100424279Y-111202729D01*
X100424275Y-111202734D01*
X100301141Y-111391206D01*
X100210703Y-111597386D01*
X100210702Y-111597387D01*
X100155437Y-111815624D01*
X100155436Y-111815630D01*
X100155436Y-111815632D01*
X100141609Y-111982494D01*
X100136844Y-112040000D01*
X100155437Y-112264375D01*
X100210702Y-112482612D01*
X100210703Y-112482613D01*
X100210704Y-112482616D01*
X100296786Y-112678864D01*
X100301141Y-112688793D01*
X100424275Y-112877265D01*
X100424279Y-112877270D01*
X100576762Y-113042908D01*
X100611290Y-113069782D01*
X100754424Y-113181189D01*
X100952426Y-113288342D01*
X100952427Y-113288342D01*
X100952428Y-113288343D01*
X101064227Y-113326723D01*
X101165365Y-113361444D01*
X101387431Y-113398500D01*
X101387435Y-113398500D01*
X101612565Y-113398500D01*
X101612569Y-113398500D01*
X101834635Y-113361444D01*
X102047574Y-113288342D01*
X102245576Y-113181189D01*
X102423240Y-113042906D01*
X102575722Y-112877268D01*
X102698860Y-112688791D01*
X102789296Y-112482616D01*
X102844564Y-112264368D01*
X102863156Y-112040000D01*
X102859841Y-112000000D01*
X106586496Y-112000000D01*
X106606457Y-112189927D01*
X106630645Y-112264368D01*
X106665473Y-112371556D01*
X106693841Y-112420691D01*
X106760958Y-112536941D01*
X106760965Y-112536951D01*
X106888744Y-112678864D01*
X106902410Y-112688793D01*
X107043248Y-112791118D01*
X107217712Y-112868794D01*
X107404513Y-112908500D01*
X107595487Y-112908500D01*
X107782288Y-112868794D01*
X107956752Y-112791118D01*
X108111253Y-112678866D01*
X108239040Y-112536944D01*
X108334527Y-112371556D01*
X108393542Y-112189928D01*
X108413504Y-112000000D01*
X108393542Y-111810072D01*
X108334527Y-111628444D01*
X108239040Y-111463056D01*
X108239038Y-111463054D01*
X108239034Y-111463048D01*
X108111255Y-111321135D01*
X107956752Y-111208882D01*
X107782288Y-111131206D01*
X107595487Y-111091500D01*
X107404513Y-111091500D01*
X107217711Y-111131206D01*
X107043247Y-111208882D01*
X106888744Y-111321135D01*
X106760965Y-111463048D01*
X106760958Y-111463058D01*
X106665476Y-111628438D01*
X106665473Y-111628445D01*
X106606457Y-111810072D01*
X106586496Y-112000000D01*
X102859841Y-112000000D01*
X102844564Y-111815632D01*
X102797162Y-111628445D01*
X102789297Y-111597387D01*
X102789296Y-111597386D01*
X102789296Y-111597384D01*
X102698860Y-111391209D01*
X102692140Y-111380924D01*
X102575724Y-111202734D01*
X102575720Y-111202729D01*
X102423237Y-111037091D01*
X102341382Y-110973381D01*
X102245576Y-110898811D01*
X102211792Y-110880528D01*
X102161402Y-110830516D01*
X102146050Y-110761199D01*
X102170610Y-110694586D01*
X102211793Y-110658901D01*
X102245300Y-110640767D01*
X102245301Y-110640767D01*
X102422902Y-110502534D01*
X102575325Y-110336958D01*
X102698419Y-110148548D01*
X102788820Y-109942456D01*
X102788823Y-109942449D01*
X102836544Y-109754000D01*
X101930703Y-109754000D01*
X101965925Y-109692993D01*
X102000000Y-109565826D01*
X102000000Y-109434174D01*
X101965925Y-109307007D01*
X101930703Y-109246000D01*
X102836544Y-109246000D01*
X102836544Y-109245999D01*
X102799573Y-109100000D01*
X112826835Y-109100000D01*
X112845465Y-109336710D01*
X112900894Y-109567592D01*
X112952837Y-109692993D01*
X112991760Y-109786963D01*
X113114826Y-109987788D01*
X113115825Y-109989417D01*
X113115826Y-109989419D01*
X113270030Y-110169969D01*
X113450580Y-110324173D01*
X113450584Y-110324176D01*
X113653037Y-110448240D01*
X113872406Y-110539105D01*
X114103289Y-110594535D01*
X114340000Y-110613165D01*
X114576711Y-110594535D01*
X114807594Y-110539105D01*
X115026963Y-110448240D01*
X115229416Y-110324176D01*
X115409969Y-110169969D01*
X115536404Y-110021932D01*
X115595850Y-109983127D01*
X115597835Y-109982952D01*
X116355841Y-109224946D01*
X116374075Y-109292993D01*
X116439901Y-109407007D01*
X116532993Y-109500099D01*
X116647007Y-109565925D01*
X116715051Y-109584157D01*
X115966107Y-110333101D01*
X115966108Y-110333102D01*
X116153261Y-110447791D01*
X116372562Y-110538628D01*
X116603367Y-110594039D01*
X116840000Y-110612662D01*
X117076632Y-110594039D01*
X117307437Y-110538628D01*
X117526738Y-110447791D01*
X117713890Y-110333102D01*
X117713891Y-110333102D01*
X116964947Y-109584158D01*
X117032993Y-109565925D01*
X117147007Y-109500099D01*
X117240099Y-109407007D01*
X117305925Y-109292993D01*
X117324158Y-109224947D01*
X118086999Y-109987788D01*
X118102974Y-109990494D01*
X118143599Y-110021936D01*
X118270030Y-110169969D01*
X118450580Y-110324173D01*
X118450584Y-110324176D01*
X118653037Y-110448240D01*
X118872406Y-110539105D01*
X119103289Y-110594535D01*
X119340000Y-110613165D01*
X119576711Y-110594535D01*
X119807594Y-110539105D01*
X120026963Y-110448240D01*
X120229416Y-110324176D01*
X120409969Y-110169969D01*
X120564176Y-109989416D01*
X120688240Y-109786963D01*
X120779105Y-109567594D01*
X120834535Y-109336711D01*
X120853165Y-109100000D01*
X120834535Y-108863289D01*
X120779105Y-108632406D01*
X120688240Y-108413037D01*
X120564176Y-108210584D01*
X120563251Y-108209501D01*
X120409969Y-108030030D01*
X120229419Y-107875826D01*
X120229417Y-107875825D01*
X120229416Y-107875824D01*
X120026963Y-107751760D01*
X119976591Y-107730895D01*
X119807592Y-107660894D01*
X119607530Y-107612864D01*
X119576711Y-107605465D01*
X119340000Y-107586835D01*
X119103289Y-107605465D01*
X118872407Y-107660894D01*
X118653038Y-107751759D01*
X118450582Y-107875825D01*
X118450580Y-107875826D01*
X118270033Y-108030028D01*
X118143599Y-108178063D01*
X118084148Y-108216872D01*
X118082162Y-108217046D01*
X117324157Y-108975051D01*
X117305925Y-108907007D01*
X117240099Y-108792993D01*
X117147007Y-108699901D01*
X117032993Y-108634075D01*
X116964946Y-108615841D01*
X117713890Y-107866897D01*
X117713890Y-107866896D01*
X117526738Y-107752208D01*
X117307437Y-107661371D01*
X117076632Y-107605960D01*
X116840000Y-107587337D01*
X116603367Y-107605960D01*
X116372562Y-107661371D01*
X116153266Y-107752206D01*
X115966108Y-107866897D01*
X115966108Y-107866898D01*
X116715052Y-108615842D01*
X116647007Y-108634075D01*
X116532993Y-108699901D01*
X116439901Y-108792993D01*
X116374075Y-108907007D01*
X116355842Y-108975052D01*
X115592997Y-108212207D01*
X115577020Y-108209501D01*
X115536400Y-108178062D01*
X115409969Y-108030030D01*
X115229419Y-107875826D01*
X115229417Y-107875825D01*
X115229416Y-107875824D01*
X115026963Y-107751760D01*
X114976591Y-107730895D01*
X114807592Y-107660894D01*
X114607530Y-107612864D01*
X114576711Y-107605465D01*
X114340000Y-107586835D01*
X114103289Y-107605465D01*
X113872407Y-107660894D01*
X113653038Y-107751759D01*
X113450582Y-107875825D01*
X113450580Y-107875826D01*
X113270030Y-108030030D01*
X113115826Y-108210580D01*
X113115825Y-108210582D01*
X112991759Y-108413038D01*
X112900894Y-108632407D01*
X112845465Y-108863289D01*
X112826835Y-109100000D01*
X102799573Y-109100000D01*
X102788823Y-109057550D01*
X102788820Y-109057543D01*
X102698419Y-108851451D01*
X102575325Y-108663041D01*
X102422902Y-108497465D01*
X102245301Y-108359232D01*
X102245300Y-108359231D01*
X102211267Y-108340814D01*
X102160876Y-108290801D01*
X102145524Y-108221484D01*
X102170085Y-108154871D01*
X102211267Y-108119186D01*
X102245300Y-108100768D01*
X102245301Y-108100767D01*
X102422902Y-107962534D01*
X102575325Y-107796958D01*
X102698419Y-107608548D01*
X102788820Y-107402456D01*
X102788823Y-107402449D01*
X102836544Y-107214000D01*
X101930703Y-107214000D01*
X101965925Y-107152993D01*
X102000000Y-107025826D01*
X102000000Y-106894174D01*
X101965925Y-106767007D01*
X101930703Y-106706000D01*
X102836544Y-106706000D01*
X102836544Y-106705999D01*
X102829960Y-106680000D01*
X147422496Y-106680000D01*
X147442457Y-106869927D01*
X147450336Y-106894174D01*
X147501473Y-107051556D01*
X147501476Y-107051561D01*
X147596958Y-107216941D01*
X147596965Y-107216951D01*
X147724744Y-107358864D01*
X147752459Y-107379000D01*
X147879248Y-107471118D01*
X148053712Y-107548794D01*
X148240513Y-107588500D01*
X148431487Y-107588500D01*
X148618288Y-107548794D01*
X148792752Y-107471118D01*
X148886420Y-107403064D01*
X148953288Y-107379205D01*
X148960481Y-107379000D01*
X185742845Y-107379000D01*
X185742846Y-107379000D01*
X185877891Y-107352138D01*
X186005101Y-107299446D01*
X186119587Y-107222948D01*
X186408535Y-106934000D01*
X187554496Y-106934000D01*
X187574457Y-107123927D01*
X187603724Y-107214000D01*
X187633473Y-107305556D01*
X187633476Y-107305561D01*
X187728958Y-107470941D01*
X187728965Y-107470951D01*
X187856744Y-107612864D01*
X187856747Y-107612866D01*
X188011248Y-107725118D01*
X188185712Y-107802794D01*
X188372513Y-107842500D01*
X188563487Y-107842500D01*
X188750288Y-107802794D01*
X188924752Y-107725118D01*
X189079253Y-107612866D01*
X189101192Y-107588500D01*
X189207034Y-107470951D01*
X189207035Y-107470949D01*
X189207040Y-107470944D01*
X189302527Y-107305556D01*
X189361542Y-107123928D01*
X189381504Y-106934000D01*
X189361542Y-106744072D01*
X189302527Y-106562444D01*
X189207040Y-106397056D01*
X189207038Y-106397054D01*
X189207034Y-106397048D01*
X189079255Y-106255135D01*
X188924752Y-106142882D01*
X188750288Y-106065206D01*
X188563487Y-106025500D01*
X188372513Y-106025500D01*
X188185711Y-106065206D01*
X188011247Y-106142882D01*
X187856744Y-106255135D01*
X187728965Y-106397048D01*
X187728958Y-106397058D01*
X187633476Y-106562438D01*
X187633473Y-106562445D01*
X187574457Y-106744072D01*
X187554496Y-106934000D01*
X186408535Y-106934000D01*
X189990630Y-103351905D01*
X190052942Y-103317879D01*
X190079725Y-103315000D01*
X190891519Y-103315000D01*
X190959640Y-103335002D01*
X190965580Y-103339064D01*
X191059248Y-103407118D01*
X191233712Y-103484794D01*
X191420513Y-103524500D01*
X191611487Y-103524500D01*
X191798288Y-103484794D01*
X191909753Y-103435166D01*
X191980118Y-103425733D01*
X192044415Y-103455839D01*
X192082228Y-103515928D01*
X192087000Y-103550274D01*
X192087000Y-116752274D01*
X192066998Y-116820395D01*
X192050095Y-116841369D01*
X189733761Y-119157702D01*
X189671449Y-119191728D01*
X189615253Y-119191126D01*
X189466711Y-119155465D01*
X189230000Y-119136835D01*
X188993289Y-119155465D01*
X188762407Y-119210894D01*
X188543038Y-119301759D01*
X188340582Y-119425825D01*
X188340580Y-119425826D01*
X188160033Y-119580028D01*
X188055811Y-119702057D01*
X187996360Y-119740866D01*
X187925366Y-119741372D01*
X187865367Y-119703416D01*
X187864189Y-119702057D01*
X187759969Y-119580031D01*
X187759967Y-119580029D01*
X187759966Y-119580028D01*
X187579419Y-119425826D01*
X187579417Y-119425825D01*
X187579416Y-119425824D01*
X187376963Y-119301760D01*
X187341559Y-119287095D01*
X187157592Y-119210894D01*
X186999651Y-119172976D01*
X186926711Y-119155465D01*
X186690000Y-119136835D01*
X186453289Y-119155465D01*
X186222407Y-119210894D01*
X186003038Y-119301759D01*
X185800582Y-119425825D01*
X185800580Y-119425826D01*
X185620033Y-119580028D01*
X185489927Y-119732363D01*
X185430476Y-119771172D01*
X185383957Y-119775251D01*
X184634157Y-120525050D01*
X184615925Y-120457007D01*
X184550099Y-120342993D01*
X184457007Y-120249901D01*
X184342993Y-120184075D01*
X184274946Y-120165841D01*
X185023890Y-119416897D01*
X185023890Y-119416896D01*
X184836738Y-119302208D01*
X184617437Y-119211371D01*
X184386632Y-119155960D01*
X184150000Y-119137337D01*
X183913367Y-119155960D01*
X183682562Y-119211371D01*
X183463266Y-119302206D01*
X183276108Y-119416897D01*
X183276108Y-119416898D01*
X184025052Y-120165842D01*
X183957007Y-120184075D01*
X183842993Y-120249901D01*
X183749901Y-120342993D01*
X183684075Y-120457007D01*
X183665842Y-120525052D01*
X182916897Y-119776107D01*
X182894811Y-119778722D01*
X182865193Y-119778722D01*
X182843101Y-119776107D01*
X182094157Y-120525050D01*
X182075925Y-120457007D01*
X182010099Y-120342993D01*
X181917007Y-120249901D01*
X181802993Y-120184075D01*
X181734946Y-120165841D01*
X182483890Y-119416897D01*
X182483890Y-119416896D01*
X182296738Y-119302208D01*
X182077437Y-119211371D01*
X181846632Y-119155960D01*
X181610000Y-119137337D01*
X181373367Y-119155960D01*
X181142562Y-119211371D01*
X180923266Y-119302206D01*
X180736108Y-119416897D01*
X180736108Y-119416898D01*
X181485052Y-120165842D01*
X181417007Y-120184075D01*
X181302993Y-120249901D01*
X181209901Y-120342993D01*
X181144075Y-120457007D01*
X181125842Y-120525052D01*
X180376897Y-119776107D01*
X180354811Y-119778722D01*
X180325193Y-119778722D01*
X180303101Y-119776107D01*
X179554157Y-120525050D01*
X179535925Y-120457007D01*
X179470099Y-120342993D01*
X179377007Y-120249901D01*
X179262993Y-120184075D01*
X179194946Y-120165841D01*
X179943890Y-119416897D01*
X179943890Y-119416896D01*
X179756738Y-119302208D01*
X179537437Y-119211371D01*
X179306632Y-119155960D01*
X179070000Y-119137337D01*
X178833367Y-119155960D01*
X178602562Y-119211371D01*
X178383266Y-119302206D01*
X178196108Y-119416897D01*
X178196108Y-119416898D01*
X178945052Y-120165842D01*
X178877007Y-120184075D01*
X178762993Y-120249901D01*
X178669901Y-120342993D01*
X178604075Y-120457007D01*
X178585842Y-120525052D01*
X177836897Y-119776107D01*
X177814811Y-119778722D01*
X177785193Y-119778722D01*
X177763101Y-119776107D01*
X177014157Y-120525051D01*
X176995925Y-120457007D01*
X176930099Y-120342993D01*
X176837007Y-120249901D01*
X176722993Y-120184075D01*
X176654946Y-120165841D01*
X177403890Y-119416897D01*
X177403890Y-119416896D01*
X177216738Y-119302208D01*
X176997437Y-119211371D01*
X176766632Y-119155960D01*
X176530000Y-119137337D01*
X176293367Y-119155960D01*
X176062562Y-119211371D01*
X175843266Y-119302206D01*
X175656108Y-119416897D01*
X175656108Y-119416898D01*
X176405052Y-120165842D01*
X176337007Y-120184075D01*
X176222993Y-120249901D01*
X176129901Y-120342993D01*
X176064075Y-120457007D01*
X176045842Y-120525052D01*
X175296897Y-119776107D01*
X175274811Y-119778722D01*
X175245193Y-119778722D01*
X175223101Y-119776107D01*
X174474157Y-120525051D01*
X174455925Y-120457007D01*
X174390099Y-120342993D01*
X174297007Y-120249901D01*
X174182993Y-120184075D01*
X174114946Y-120165841D01*
X174863890Y-119416897D01*
X174863890Y-119416896D01*
X174676738Y-119302208D01*
X174457437Y-119211371D01*
X174226632Y-119155960D01*
X173990000Y-119137337D01*
X173753367Y-119155960D01*
X173522562Y-119211371D01*
X173303266Y-119302206D01*
X173116108Y-119416897D01*
X173116108Y-119416898D01*
X173865052Y-120165842D01*
X173797007Y-120184075D01*
X173682993Y-120249901D01*
X173589901Y-120342993D01*
X173524075Y-120457007D01*
X173505842Y-120525052D01*
X172755583Y-119774793D01*
X172690693Y-119763802D01*
X172650072Y-119732362D01*
X172519969Y-119580030D01*
X172339419Y-119425826D01*
X172339417Y-119425825D01*
X172339416Y-119425824D01*
X172136963Y-119301760D01*
X172101559Y-119287095D01*
X171917592Y-119210894D01*
X171759651Y-119172976D01*
X171686711Y-119155465D01*
X171450000Y-119136835D01*
X171213289Y-119155465D01*
X170982407Y-119210894D01*
X170763038Y-119301759D01*
X170560582Y-119425825D01*
X170560580Y-119425826D01*
X170380033Y-119580028D01*
X170275811Y-119702057D01*
X170216360Y-119740866D01*
X170145366Y-119741372D01*
X170085367Y-119703416D01*
X170084189Y-119702057D01*
X169979969Y-119580031D01*
X169979967Y-119580029D01*
X169979966Y-119580028D01*
X169799419Y-119425826D01*
X169799417Y-119425825D01*
X169799416Y-119425824D01*
X169596963Y-119301760D01*
X169561559Y-119287095D01*
X169377592Y-119210894D01*
X169219651Y-119172976D01*
X169146711Y-119155465D01*
X168910000Y-119136835D01*
X168673289Y-119155465D01*
X168442407Y-119210894D01*
X168223038Y-119301759D01*
X168020582Y-119425825D01*
X168020580Y-119425826D01*
X167840033Y-119580028D01*
X167735811Y-119702057D01*
X167676360Y-119740866D01*
X167605366Y-119741372D01*
X167545367Y-119703416D01*
X167544189Y-119702057D01*
X167439969Y-119580031D01*
X167439967Y-119580029D01*
X167439966Y-119580028D01*
X167259419Y-119425826D01*
X167259417Y-119425825D01*
X167259416Y-119425824D01*
X167056963Y-119301760D01*
X167021559Y-119287095D01*
X166837592Y-119210894D01*
X166679651Y-119172976D01*
X166606711Y-119155465D01*
X166370000Y-119136835D01*
X166133289Y-119155465D01*
X165902407Y-119210894D01*
X165683038Y-119301759D01*
X165480582Y-119425825D01*
X165480580Y-119425826D01*
X165300033Y-119580028D01*
X165195811Y-119702057D01*
X165136360Y-119740866D01*
X165065366Y-119741372D01*
X165005367Y-119703416D01*
X165004189Y-119702057D01*
X164899969Y-119580031D01*
X164899967Y-119580029D01*
X164899966Y-119580028D01*
X164719419Y-119425826D01*
X164719417Y-119425825D01*
X164719416Y-119425824D01*
X164516963Y-119301760D01*
X164481559Y-119287095D01*
X164297592Y-119210894D01*
X164139651Y-119172976D01*
X164066711Y-119155465D01*
X163830000Y-119136835D01*
X163593289Y-119155465D01*
X163362407Y-119210894D01*
X163143038Y-119301759D01*
X162940582Y-119425825D01*
X162940580Y-119425826D01*
X162760033Y-119580028D01*
X162629927Y-119732363D01*
X162570476Y-119771172D01*
X162523957Y-119775251D01*
X161774157Y-120525050D01*
X161755925Y-120457007D01*
X161690099Y-120342993D01*
X161597007Y-120249901D01*
X161482993Y-120184075D01*
X161414946Y-120165841D01*
X162163890Y-119416897D01*
X162163890Y-119416896D01*
X161976738Y-119302208D01*
X161757437Y-119211371D01*
X161526632Y-119155960D01*
X161290000Y-119137337D01*
X161053367Y-119155960D01*
X160822562Y-119211371D01*
X160603266Y-119302206D01*
X160416108Y-119416897D01*
X160416108Y-119416898D01*
X161165052Y-120165842D01*
X161097007Y-120184075D01*
X160982993Y-120249901D01*
X160889901Y-120342993D01*
X160824075Y-120457007D01*
X160805842Y-120525052D01*
X160056897Y-119776107D01*
X160034811Y-119778722D01*
X160005193Y-119778722D01*
X159983101Y-119776107D01*
X159234157Y-120525051D01*
X159215925Y-120457007D01*
X159150099Y-120342993D01*
X159057007Y-120249901D01*
X158942993Y-120184075D01*
X158874946Y-120165841D01*
X159623890Y-119416897D01*
X159623890Y-119416896D01*
X159436738Y-119302208D01*
X159217437Y-119211371D01*
X158986632Y-119155960D01*
X158750000Y-119137337D01*
X158513367Y-119155960D01*
X158282562Y-119211371D01*
X158063266Y-119302206D01*
X157876108Y-119416897D01*
X157876108Y-119416898D01*
X158625052Y-120165842D01*
X158557007Y-120184075D01*
X158442993Y-120249901D01*
X158349901Y-120342993D01*
X158284075Y-120457007D01*
X158265842Y-120525052D01*
X157516898Y-119776108D01*
X157516897Y-119776108D01*
X157402206Y-119963266D01*
X157311371Y-120182562D01*
X157255960Y-120413367D01*
X157237337Y-120650000D01*
X157255960Y-120886632D01*
X157311371Y-121117437D01*
X157402208Y-121336738D01*
X157516896Y-121523890D01*
X157516897Y-121523890D01*
X158265841Y-120774946D01*
X158284075Y-120842993D01*
X158349901Y-120957007D01*
X158442993Y-121050099D01*
X158557007Y-121115925D01*
X158625051Y-121134157D01*
X157876107Y-121883101D01*
X157876108Y-121883102D01*
X158063261Y-121997791D01*
X158282562Y-122088628D01*
X158513367Y-122144039D01*
X158750000Y-122162662D01*
X158986632Y-122144039D01*
X159217437Y-122088628D01*
X159436738Y-121997791D01*
X159623890Y-121883102D01*
X159623891Y-121883102D01*
X158874947Y-121134158D01*
X158942993Y-121115925D01*
X159057007Y-121050099D01*
X159150099Y-120957007D01*
X159215925Y-120842993D01*
X159234158Y-120774947D01*
X159983101Y-121523890D01*
X160005192Y-121521276D01*
X160034813Y-121521277D01*
X160056897Y-121523891D01*
X160805841Y-120774946D01*
X160824075Y-120842993D01*
X160889901Y-120957007D01*
X160982993Y-121050099D01*
X161097007Y-121115925D01*
X161165051Y-121134157D01*
X160416107Y-121883101D01*
X160416108Y-121883102D01*
X160603261Y-121997791D01*
X160822562Y-122088628D01*
X161053367Y-122144039D01*
X161290000Y-122162662D01*
X161526632Y-122144039D01*
X161757437Y-122088628D01*
X161976738Y-121997791D01*
X162163890Y-121883102D01*
X162163891Y-121883102D01*
X161414947Y-121134158D01*
X161482993Y-121115925D01*
X161597007Y-121050099D01*
X161690099Y-120957007D01*
X161755925Y-120842993D01*
X161774158Y-120774947D01*
X162524417Y-121525206D01*
X162589303Y-121536195D01*
X162629926Y-121567636D01*
X162760030Y-121719969D01*
X162940580Y-121874173D01*
X162940584Y-121874176D01*
X163143037Y-121998240D01*
X163362406Y-122089105D01*
X163593289Y-122144535D01*
X163830000Y-122163165D01*
X164066711Y-122144535D01*
X164297594Y-122089105D01*
X164516963Y-121998240D01*
X164719416Y-121874176D01*
X164899969Y-121719969D01*
X165004189Y-121597942D01*
X165063639Y-121559134D01*
X165134634Y-121558626D01*
X165194633Y-121596582D01*
X165195811Y-121597943D01*
X165300030Y-121719969D01*
X165480580Y-121874173D01*
X165480584Y-121874176D01*
X165683037Y-121998240D01*
X165902406Y-122089105D01*
X166133289Y-122144535D01*
X166370000Y-122163165D01*
X166606711Y-122144535D01*
X166837594Y-122089105D01*
X167056963Y-121998240D01*
X167259416Y-121874176D01*
X167439969Y-121719969D01*
X167544189Y-121597942D01*
X167603639Y-121559134D01*
X167674634Y-121558626D01*
X167734633Y-121596582D01*
X167735811Y-121597943D01*
X167840030Y-121719969D01*
X168020580Y-121874173D01*
X168020584Y-121874176D01*
X168223037Y-121998240D01*
X168442406Y-122089105D01*
X168673289Y-122144535D01*
X168910000Y-122163165D01*
X169146711Y-122144535D01*
X169377594Y-122089105D01*
X169596963Y-121998240D01*
X169799416Y-121874176D01*
X169979969Y-121719969D01*
X170084189Y-121597942D01*
X170143639Y-121559134D01*
X170214634Y-121558626D01*
X170274633Y-121596582D01*
X170275811Y-121597943D01*
X170380030Y-121719969D01*
X170560580Y-121874173D01*
X170560584Y-121874176D01*
X170763037Y-121998240D01*
X170982406Y-122089105D01*
X171213289Y-122144535D01*
X171450000Y-122163165D01*
X171686711Y-122144535D01*
X171917594Y-122089105D01*
X172136963Y-121998240D01*
X172339416Y-121874176D01*
X172519969Y-121719969D01*
X172650076Y-121567633D01*
X172709523Y-121528827D01*
X172756039Y-121524748D01*
X173505841Y-120774946D01*
X173524075Y-120842993D01*
X173589901Y-120957007D01*
X173682993Y-121050099D01*
X173797007Y-121115925D01*
X173865051Y-121134157D01*
X173116107Y-121883101D01*
X173116108Y-121883102D01*
X173303261Y-121997791D01*
X173522562Y-122088628D01*
X173753367Y-122144039D01*
X173990000Y-122162662D01*
X174226632Y-122144039D01*
X174457437Y-122088628D01*
X174676738Y-121997791D01*
X174863890Y-121883102D01*
X174863891Y-121883102D01*
X174114947Y-121134158D01*
X174182993Y-121115925D01*
X174297007Y-121050099D01*
X174390099Y-120957007D01*
X174455925Y-120842993D01*
X174474158Y-120774947D01*
X175223101Y-121523890D01*
X175245192Y-121521276D01*
X175274813Y-121521277D01*
X175296897Y-121523891D01*
X176045841Y-120774946D01*
X176064075Y-120842993D01*
X176129901Y-120957007D01*
X176222993Y-121050099D01*
X176337007Y-121115925D01*
X176405051Y-121134157D01*
X175656107Y-121883101D01*
X175656108Y-121883102D01*
X175843261Y-121997791D01*
X176062562Y-122088628D01*
X176293367Y-122144039D01*
X176530000Y-122162662D01*
X176766632Y-122144039D01*
X176997437Y-122088628D01*
X177216738Y-121997791D01*
X177403890Y-121883102D01*
X177403891Y-121883102D01*
X176654947Y-121134158D01*
X176722993Y-121115925D01*
X176837007Y-121050099D01*
X176930099Y-120957007D01*
X176995925Y-120842993D01*
X177014158Y-120774947D01*
X177763101Y-121523890D01*
X177785192Y-121521276D01*
X177814813Y-121521277D01*
X177836897Y-121523891D01*
X178585841Y-120774946D01*
X178604075Y-120842993D01*
X178669901Y-120957007D01*
X178762993Y-121050099D01*
X178877007Y-121115925D01*
X178945051Y-121134157D01*
X178196107Y-121883101D01*
X178196108Y-121883102D01*
X178383261Y-121997791D01*
X178602562Y-122088628D01*
X178833367Y-122144039D01*
X179070000Y-122162662D01*
X179306632Y-122144039D01*
X179537437Y-122088628D01*
X179756738Y-121997791D01*
X179943890Y-121883102D01*
X179943891Y-121883102D01*
X179194947Y-121134158D01*
X179262993Y-121115925D01*
X179377007Y-121050099D01*
X179470099Y-120957007D01*
X179535925Y-120842993D01*
X179554158Y-120774947D01*
X180303101Y-121523890D01*
X180325192Y-121521276D01*
X180354813Y-121521277D01*
X180376897Y-121523891D01*
X181125841Y-120774946D01*
X181144075Y-120842993D01*
X181209901Y-120957007D01*
X181302993Y-121050099D01*
X181417007Y-121115925D01*
X181485051Y-121134157D01*
X180736107Y-121883101D01*
X180736108Y-121883102D01*
X180923261Y-121997791D01*
X181142562Y-122088628D01*
X181373367Y-122144039D01*
X181610000Y-122162662D01*
X181846632Y-122144039D01*
X182077437Y-122088628D01*
X182296738Y-121997791D01*
X182483890Y-121883102D01*
X182483891Y-121883102D01*
X181734947Y-121134158D01*
X181802993Y-121115925D01*
X181917007Y-121050099D01*
X182010099Y-120957007D01*
X182075925Y-120842993D01*
X182094158Y-120774947D01*
X182843101Y-121523890D01*
X182865192Y-121521276D01*
X182894813Y-121521277D01*
X182916897Y-121523891D01*
X183665841Y-120774946D01*
X183684075Y-120842993D01*
X183749901Y-120957007D01*
X183842993Y-121050099D01*
X183957007Y-121115925D01*
X184025051Y-121134157D01*
X183276107Y-121883101D01*
X183276108Y-121883102D01*
X183463261Y-121997791D01*
X183682562Y-122088628D01*
X183913367Y-122144039D01*
X184150000Y-122162662D01*
X184386632Y-122144039D01*
X184617437Y-122088628D01*
X184836738Y-121997791D01*
X185023890Y-121883102D01*
X185023891Y-121883102D01*
X184274947Y-121134158D01*
X184342993Y-121115925D01*
X184457007Y-121050099D01*
X184550099Y-120957007D01*
X184615925Y-120842993D01*
X184634158Y-120774947D01*
X185384417Y-121525206D01*
X185449303Y-121536195D01*
X185489926Y-121567636D01*
X185620030Y-121719969D01*
X185800580Y-121874173D01*
X185800584Y-121874176D01*
X186003037Y-121998240D01*
X186222406Y-122089105D01*
X186453289Y-122144535D01*
X186690000Y-122163165D01*
X186926711Y-122144535D01*
X187157594Y-122089105D01*
X187376963Y-121998240D01*
X187579416Y-121874176D01*
X187759969Y-121719969D01*
X187864189Y-121597942D01*
X187923639Y-121559134D01*
X187994634Y-121558626D01*
X188054633Y-121596582D01*
X188055811Y-121597943D01*
X188160030Y-121719969D01*
X188340580Y-121874173D01*
X188340584Y-121874176D01*
X188543037Y-121998240D01*
X188762406Y-122089105D01*
X188993289Y-122144535D01*
X189230000Y-122163165D01*
X189466711Y-122144535D01*
X189697594Y-122089105D01*
X189916963Y-121998240D01*
X190119416Y-121874176D01*
X190299969Y-121719969D01*
X190404189Y-121597942D01*
X190463639Y-121559134D01*
X190534634Y-121558626D01*
X190594633Y-121596582D01*
X190595811Y-121597943D01*
X190700030Y-121719969D01*
X190880580Y-121874173D01*
X190880584Y-121874176D01*
X191083037Y-121998240D01*
X191302406Y-122089105D01*
X191533289Y-122144535D01*
X191770000Y-122163165D01*
X192006711Y-122144535D01*
X192237594Y-122089105D01*
X192456963Y-121998240D01*
X192659416Y-121874176D01*
X192839969Y-121719969D01*
X192970076Y-121567633D01*
X193029523Y-121528827D01*
X193076040Y-121524748D01*
X193825841Y-120774946D01*
X193844075Y-120842993D01*
X193909901Y-120957007D01*
X194002993Y-121050099D01*
X194117007Y-121115925D01*
X194185051Y-121134157D01*
X193436107Y-121883101D01*
X193436108Y-121883102D01*
X193623261Y-121997791D01*
X193842562Y-122088628D01*
X194073367Y-122144039D01*
X194310000Y-122162662D01*
X194546632Y-122144039D01*
X194777437Y-122088628D01*
X194996738Y-121997791D01*
X195183890Y-121883102D01*
X195183891Y-121883102D01*
X194434947Y-121134158D01*
X194502993Y-121115925D01*
X194617007Y-121050099D01*
X194710099Y-120957007D01*
X194775925Y-120842993D01*
X194794158Y-120774947D01*
X195543101Y-121523890D01*
X195565192Y-121521276D01*
X195594813Y-121521277D01*
X195616897Y-121523891D01*
X196365841Y-120774946D01*
X196384075Y-120842993D01*
X196449901Y-120957007D01*
X196542993Y-121050099D01*
X196657007Y-121115925D01*
X196725051Y-121134157D01*
X195976107Y-121883101D01*
X195976108Y-121883102D01*
X196163261Y-121997791D01*
X196382562Y-122088628D01*
X196613367Y-122144039D01*
X196850000Y-122162662D01*
X197086632Y-122144039D01*
X197317437Y-122088628D01*
X197536738Y-121997791D01*
X197723890Y-121883102D01*
X197723891Y-121883102D01*
X196974947Y-121134158D01*
X197042993Y-121115925D01*
X197157007Y-121050099D01*
X197250099Y-120957007D01*
X197315925Y-120842993D01*
X197334158Y-120774947D01*
X198084417Y-121525206D01*
X198149303Y-121536195D01*
X198189926Y-121567636D01*
X198320030Y-121719969D01*
X198500580Y-121874173D01*
X198500584Y-121874176D01*
X198703037Y-121998240D01*
X198922406Y-122089105D01*
X199153289Y-122144535D01*
X199390000Y-122163165D01*
X199626711Y-122144535D01*
X199857594Y-122089105D01*
X200076963Y-121998240D01*
X200279416Y-121874176D01*
X200459969Y-121719969D01*
X200564189Y-121597942D01*
X200623639Y-121559134D01*
X200694634Y-121558626D01*
X200754633Y-121596582D01*
X200755811Y-121597943D01*
X200860030Y-121719969D01*
X201040580Y-121874173D01*
X201040584Y-121874176D01*
X201243037Y-121998240D01*
X201462406Y-122089105D01*
X201693289Y-122144535D01*
X201930000Y-122163165D01*
X202166711Y-122144535D01*
X202397594Y-122089105D01*
X202616963Y-121998240D01*
X202819416Y-121874176D01*
X202999969Y-121719969D01*
X203104189Y-121597942D01*
X203163639Y-121559134D01*
X203234634Y-121558626D01*
X203294633Y-121596582D01*
X203295811Y-121597943D01*
X203400030Y-121719969D01*
X203580580Y-121874173D01*
X203580584Y-121874176D01*
X203783037Y-121998240D01*
X204002406Y-122089105D01*
X204233289Y-122144535D01*
X204470000Y-122163165D01*
X204706711Y-122144535D01*
X204937594Y-122089105D01*
X205156963Y-121998240D01*
X205359416Y-121874176D01*
X205369759Y-121865341D01*
X205434546Y-121836310D01*
X205504746Y-121846914D01*
X205553172Y-121889481D01*
X205554153Y-121888748D01*
X205557646Y-121893414D01*
X205558070Y-121893787D01*
X205558601Y-121894690D01*
X205647095Y-122012904D01*
X205764034Y-122100444D01*
X205900906Y-122151494D01*
X205961402Y-122157999D01*
X205961415Y-122158000D01*
X206756000Y-122158000D01*
X206756000Y-121080702D01*
X206817007Y-121115925D01*
X206944174Y-121150000D01*
X207075826Y-121150000D01*
X207202993Y-121115925D01*
X207264000Y-121080702D01*
X207264000Y-122158000D01*
X208058585Y-122158000D01*
X208058597Y-122157999D01*
X208119093Y-122151494D01*
X208255964Y-122100444D01*
X208255965Y-122100444D01*
X208372904Y-122012904D01*
X208460444Y-121895965D01*
X208460444Y-121895964D01*
X208511494Y-121759093D01*
X208517999Y-121698597D01*
X208518000Y-121698585D01*
X208518000Y-120904000D01*
X207440703Y-120904000D01*
X207475925Y-120842993D01*
X207510000Y-120715826D01*
X207510000Y-120584174D01*
X207475925Y-120457007D01*
X207440703Y-120396000D01*
X208518000Y-120396000D01*
X208518000Y-119601414D01*
X208517999Y-119601402D01*
X208511494Y-119540904D01*
X208510094Y-119534979D01*
X208513893Y-119464084D01*
X208555417Y-119406497D01*
X208621483Y-119380502D01*
X208632716Y-119380000D01*
X218440000Y-119380000D01*
X218440000Y-111760000D01*
X208280000Y-111760000D01*
X208280000Y-119027283D01*
X208259998Y-119095404D01*
X208206342Y-119141897D01*
X208136068Y-119152001D01*
X208125030Y-119149907D01*
X208119100Y-119148506D01*
X208058597Y-119142000D01*
X207264000Y-119142000D01*
X207264000Y-120219297D01*
X207202993Y-120184075D01*
X207075826Y-120150000D01*
X206944174Y-120150000D01*
X206817007Y-120184075D01*
X206756000Y-120219297D01*
X206756000Y-119142000D01*
X205961402Y-119142000D01*
X205900906Y-119148505D01*
X205764035Y-119199555D01*
X205764034Y-119199555D01*
X205647095Y-119287095D01*
X205554153Y-119411252D01*
X205551868Y-119409541D01*
X205511973Y-119449436D01*
X205442599Y-119464526D01*
X205376079Y-119439714D01*
X205369761Y-119434659D01*
X205359418Y-119425826D01*
X205359417Y-119425825D01*
X205359416Y-119425824D01*
X205156963Y-119301760D01*
X205121559Y-119287095D01*
X204937592Y-119210894D01*
X204779651Y-119172976D01*
X204706711Y-119155465D01*
X204470000Y-119136835D01*
X204233289Y-119155465D01*
X204002407Y-119210894D01*
X203783038Y-119301759D01*
X203580582Y-119425825D01*
X203580580Y-119425826D01*
X203400033Y-119580028D01*
X203295811Y-119702057D01*
X203236360Y-119740866D01*
X203165366Y-119741372D01*
X203105367Y-119703416D01*
X203104189Y-119702057D01*
X202999969Y-119580031D01*
X202999967Y-119580029D01*
X202999966Y-119580028D01*
X202819419Y-119425826D01*
X202819417Y-119425825D01*
X202819416Y-119425824D01*
X202616963Y-119301760D01*
X202581559Y-119287095D01*
X202397592Y-119210894D01*
X202239651Y-119172976D01*
X202166711Y-119155465D01*
X201930000Y-119136835D01*
X201693289Y-119155465D01*
X201462407Y-119210894D01*
X201243038Y-119301759D01*
X201040582Y-119425825D01*
X201040580Y-119425826D01*
X200860033Y-119580028D01*
X200755811Y-119702057D01*
X200696360Y-119740866D01*
X200625366Y-119741372D01*
X200565367Y-119703416D01*
X200564189Y-119702057D01*
X200459969Y-119580031D01*
X200459967Y-119580029D01*
X200459966Y-119580028D01*
X200279419Y-119425826D01*
X200279417Y-119425825D01*
X200279416Y-119425824D01*
X200076963Y-119301760D01*
X200041559Y-119287095D01*
X199857592Y-119210894D01*
X199699651Y-119172976D01*
X199626711Y-119155465D01*
X199390000Y-119136835D01*
X199153289Y-119155465D01*
X198922407Y-119210894D01*
X198703038Y-119301759D01*
X198500582Y-119425825D01*
X198500580Y-119425826D01*
X198320033Y-119580028D01*
X198189927Y-119732363D01*
X198130476Y-119771172D01*
X198083957Y-119775251D01*
X197334157Y-120525050D01*
X197315925Y-120457007D01*
X197250099Y-120342993D01*
X197157007Y-120249901D01*
X197042993Y-120184075D01*
X196974946Y-120165841D01*
X197723890Y-119416897D01*
X197723890Y-119416896D01*
X197536738Y-119302208D01*
X197317437Y-119211371D01*
X197086632Y-119155960D01*
X196850000Y-119137337D01*
X196613367Y-119155960D01*
X196382562Y-119211371D01*
X196163266Y-119302206D01*
X195976108Y-119416897D01*
X195976108Y-119416898D01*
X196725052Y-120165842D01*
X196657007Y-120184075D01*
X196542993Y-120249901D01*
X196449901Y-120342993D01*
X196384075Y-120457007D01*
X196365842Y-120525052D01*
X195616897Y-119776107D01*
X195594811Y-119778722D01*
X195565193Y-119778722D01*
X195543101Y-119776107D01*
X194794157Y-120525051D01*
X194775925Y-120457007D01*
X194710099Y-120342993D01*
X194617007Y-120249901D01*
X194502993Y-120184075D01*
X194434946Y-120165841D01*
X195183890Y-119416897D01*
X195183890Y-119416896D01*
X194996738Y-119302208D01*
X194777437Y-119211371D01*
X194546627Y-119155959D01*
X194546496Y-119155949D01*
X194546447Y-119155930D01*
X194541741Y-119155185D01*
X194541897Y-119154196D01*
X194480155Y-119130661D01*
X194438018Y-119073521D01*
X194433462Y-119002671D01*
X194467290Y-118941244D01*
X194598948Y-118809587D01*
X194675446Y-118695101D01*
X194728138Y-118567891D01*
X194755000Y-118432846D01*
X194755000Y-118295154D01*
X194755000Y-104046677D01*
X194775002Y-103978556D01*
X194828658Y-103932063D01*
X194898932Y-103921959D01*
X194963512Y-103951453D01*
X194994682Y-103998463D01*
X194996789Y-103997526D01*
X194999470Y-104003549D01*
X194999473Y-104003556D01*
X194999476Y-104003561D01*
X195094958Y-104168941D01*
X195094965Y-104168951D01*
X195222744Y-104310864D01*
X195222747Y-104310866D01*
X195377248Y-104423118D01*
X195551712Y-104500794D01*
X195738513Y-104540500D01*
X195929487Y-104540500D01*
X196116288Y-104500794D01*
X196290752Y-104423118D01*
X196445253Y-104310866D01*
X196549010Y-104195632D01*
X196573034Y-104168951D01*
X196573035Y-104168949D01*
X196573040Y-104168944D01*
X196668527Y-104003556D01*
X196727542Y-103821928D01*
X196747504Y-103632000D01*
X196727542Y-103442072D01*
X196668527Y-103260444D01*
X196573040Y-103095056D01*
X196573038Y-103095054D01*
X196573034Y-103095048D01*
X196445255Y-102953135D01*
X196290752Y-102840882D01*
X196116288Y-102763206D01*
X195929487Y-102723500D01*
X195738513Y-102723500D01*
X195551711Y-102763206D01*
X195377247Y-102840882D01*
X195222744Y-102953135D01*
X195094965Y-103095048D01*
X195094958Y-103095058D01*
X194999476Y-103260438D01*
X194996789Y-103266474D01*
X194994536Y-103265471D01*
X194960747Y-103314874D01*
X194895347Y-103342503D01*
X194825392Y-103330387D01*
X194773092Y-103282374D01*
X194755000Y-103217322D01*
X194755000Y-100907702D01*
X194771881Y-100844702D01*
X194783770Y-100824110D01*
X194854527Y-100701556D01*
X194913542Y-100519928D01*
X194933504Y-100330000D01*
X194913542Y-100140072D01*
X194854527Y-99958444D01*
X194822804Y-99903499D01*
X194806067Y-99834505D01*
X194829287Y-99767413D01*
X194885094Y-99723526D01*
X194931924Y-99714500D01*
X195115487Y-99714500D01*
X195302288Y-99674794D01*
X195476752Y-99597118D01*
X195631253Y-99484866D01*
X195631256Y-99484863D01*
X195759034Y-99342951D01*
X195759035Y-99342949D01*
X195759040Y-99342944D01*
X195854527Y-99177556D01*
X195913542Y-98995928D01*
X195933504Y-98806000D01*
X195913542Y-98616072D01*
X195854527Y-98434444D01*
X195759040Y-98269056D01*
X195759038Y-98269054D01*
X195759034Y-98269048D01*
X195631255Y-98127135D01*
X195476752Y-98014882D01*
X195302288Y-97937206D01*
X195115487Y-97897500D01*
X194924513Y-97897500D01*
X194737711Y-97937206D01*
X194563247Y-98014882D01*
X194469580Y-98082936D01*
X194402712Y-98106795D01*
X194395519Y-98107000D01*
X194241151Y-98107000D01*
X194139939Y-98127133D01*
X194112077Y-98132675D01*
X194112072Y-98132676D01*
X194106110Y-98133861D01*
X194106108Y-98133862D01*
X193978898Y-98186554D01*
X193898404Y-98240339D01*
X193830651Y-98261554D01*
X193762184Y-98242771D01*
X193734765Y-98219884D01*
X193651252Y-98127133D01*
X193496752Y-98014882D01*
X193322288Y-97937206D01*
X193135487Y-97897500D01*
X192944513Y-97897500D01*
X192757711Y-97937206D01*
X192583247Y-98014882D01*
X192428744Y-98127135D01*
X192300965Y-98269048D01*
X192300958Y-98269058D01*
X192205476Y-98434438D01*
X192205473Y-98434444D01*
X192203691Y-98439928D01*
X192146457Y-98616072D01*
X192126496Y-98806000D01*
X192146457Y-98995927D01*
X192161141Y-99041117D01*
X192205473Y-99177556D01*
X192205476Y-99177561D01*
X192300958Y-99342941D01*
X192300965Y-99342951D01*
X192428743Y-99484863D01*
X192433255Y-99488141D01*
X192476609Y-99544363D01*
X192482686Y-99615099D01*
X192449555Y-99677891D01*
X192448291Y-99679173D01*
X192340414Y-99787051D01*
X192340413Y-99787051D01*
X192243055Y-99884408D01*
X192243050Y-99884414D01*
X192166554Y-99998899D01*
X192113864Y-100126103D01*
X192113862Y-100126108D01*
X192087000Y-100261152D01*
X192087000Y-100665725D01*
X192066998Y-100733846D01*
X192013342Y-100780339D01*
X191943068Y-100790443D01*
X191909752Y-100780832D01*
X191798290Y-100731206D01*
X191611487Y-100691500D01*
X191420513Y-100691500D01*
X191233711Y-100731206D01*
X191059247Y-100808882D01*
X190965580Y-100876936D01*
X190898712Y-100900795D01*
X190891519Y-100901000D01*
X189415151Y-100901000D01*
X189313934Y-100921133D01*
X189313933Y-100921134D01*
X189280109Y-100927862D01*
X189280107Y-100927862D01*
X189280106Y-100927863D01*
X189280103Y-100927864D01*
X189152896Y-100980555D01*
X189066177Y-101038500D01*
X189038419Y-101057046D01*
X189038410Y-101057054D01*
X184913370Y-105182095D01*
X184851058Y-105216121D01*
X184824275Y-105219000D01*
X149976481Y-105219000D01*
X149908360Y-105198998D01*
X149902420Y-105194936D01*
X149808752Y-105126882D01*
X149634288Y-105049206D01*
X149447487Y-105009500D01*
X149256513Y-105009500D01*
X149069711Y-105049206D01*
X148895247Y-105126882D01*
X148740744Y-105239135D01*
X148612965Y-105381048D01*
X148612958Y-105381058D01*
X148536054Y-105514260D01*
X148517473Y-105546444D01*
X148506742Y-105579470D01*
X148472636Y-105684437D01*
X148432562Y-105743042D01*
X148367165Y-105770679D01*
X148352803Y-105771500D01*
X148240513Y-105771500D01*
X148053711Y-105811206D01*
X147879247Y-105888882D01*
X147724744Y-106001135D01*
X147596965Y-106143048D01*
X147596958Y-106143058D01*
X147501476Y-106308438D01*
X147501473Y-106308445D01*
X147442457Y-106490072D01*
X147422496Y-106680000D01*
X102829960Y-106680000D01*
X102788823Y-106517550D01*
X102788820Y-106517543D01*
X102698419Y-106311451D01*
X102575325Y-106123041D01*
X102422902Y-105957465D01*
X102245301Y-105819232D01*
X102245300Y-105819231D01*
X102211791Y-105801097D01*
X102161401Y-105751083D01*
X102146050Y-105681766D01*
X102170612Y-105615153D01*
X102211790Y-105579472D01*
X102245576Y-105561189D01*
X102423240Y-105422906D01*
X102575722Y-105257268D01*
X102698860Y-105068791D01*
X102789296Y-104862616D01*
X102844564Y-104644368D01*
X102863156Y-104420000D01*
X102844564Y-104195632D01*
X102810586Y-104061456D01*
X102789297Y-103977387D01*
X102789296Y-103977386D01*
X102789296Y-103977384D01*
X102698860Y-103771209D01*
X102673530Y-103732439D01*
X102575724Y-103582734D01*
X102575720Y-103582729D01*
X102446234Y-103442072D01*
X102423240Y-103417094D01*
X102423239Y-103417093D01*
X102423237Y-103417091D01*
X102337680Y-103350499D01*
X102245576Y-103278811D01*
X102212319Y-103260813D01*
X102161929Y-103210802D01*
X102146576Y-103141485D01*
X102171136Y-103074872D01*
X102212320Y-103039186D01*
X102245576Y-103021189D01*
X102423240Y-102882906D01*
X102575722Y-102717268D01*
X102698860Y-102528791D01*
X102789296Y-102322616D01*
X102844564Y-102104368D01*
X102863156Y-101880000D01*
X102844564Y-101655632D01*
X102801423Y-101485273D01*
X102789297Y-101437387D01*
X102789296Y-101437386D01*
X102789296Y-101437384D01*
X102698860Y-101231209D01*
X102692140Y-101220924D01*
X102575724Y-101042734D01*
X102575719Y-101042729D01*
X102569628Y-101036113D01*
X102432524Y-100887179D01*
X102401103Y-100823514D01*
X102409090Y-100752968D01*
X102453948Y-100697939D01*
X102481183Y-100683789D01*
X102596204Y-100640889D01*
X102713261Y-100553261D01*
X102800889Y-100436204D01*
X102851989Y-100299201D01*
X102856080Y-100261155D01*
X102858499Y-100238649D01*
X102858500Y-100238632D01*
X102858500Y-99959124D01*
X109781500Y-99959124D01*
X109781500Y-103240875D01*
X109813045Y-103520855D01*
X109875741Y-103795542D01*
X109968789Y-104061456D01*
X109968800Y-104061483D01*
X110091043Y-104315324D01*
X110240942Y-104553885D01*
X110416604Y-104774160D01*
X110615839Y-104973395D01*
X110836114Y-105149057D01*
X111074675Y-105298956D01*
X111074678Y-105298957D01*
X111074679Y-105298958D01*
X111328526Y-105421204D01*
X111328542Y-105421209D01*
X111328543Y-105421210D01*
X111594457Y-105514258D01*
X111594460Y-105514258D01*
X111594464Y-105514260D01*
X111869144Y-105576954D01*
X111869145Y-105576954D01*
X111869148Y-105576955D01*
X112034271Y-105595559D01*
X112149124Y-105608500D01*
X112149126Y-105608500D01*
X112430876Y-105608500D01*
X112501977Y-105600488D01*
X112710852Y-105576955D01*
X112985536Y-105514260D01*
X113251474Y-105421204D01*
X113505321Y-105298958D01*
X113743884Y-105149058D01*
X113794426Y-105108752D01*
X113964160Y-104973395D01*
X114163395Y-104774160D01*
X114339057Y-104553885D01*
X114347468Y-104540500D01*
X114488958Y-104315321D01*
X114611204Y-104061474D01*
X114704260Y-103795536D01*
X114766955Y-103520852D01*
X114798500Y-103240874D01*
X114798500Y-101485263D01*
X115089500Y-101485263D01*
X115089500Y-101714736D01*
X115119450Y-101942231D01*
X115119452Y-101942238D01*
X115178842Y-102163887D01*
X115266656Y-102375888D01*
X115266657Y-102375889D01*
X115266662Y-102375900D01*
X115381386Y-102574608D01*
X115381391Y-102574615D01*
X115521073Y-102756652D01*
X115521092Y-102756673D01*
X115683326Y-102918907D01*
X115683347Y-102918926D01*
X115865384Y-103058608D01*
X115865391Y-103058613D01*
X116064099Y-103173337D01*
X116064103Y-103173338D01*
X116064112Y-103173344D01*
X116276113Y-103261158D01*
X116497762Y-103320548D01*
X116497766Y-103320548D01*
X116497768Y-103320549D01*
X116556398Y-103328267D01*
X116725266Y-103350500D01*
X116725273Y-103350500D01*
X116954727Y-103350500D01*
X116954734Y-103350500D01*
X117160345Y-103323430D01*
X117182231Y-103320549D01*
X117182231Y-103320548D01*
X117182238Y-103320548D01*
X117403887Y-103261158D01*
X117615888Y-103173344D01*
X117814612Y-103058611D01*
X117996661Y-102918919D01*
X118158919Y-102756661D01*
X118298611Y-102574612D01*
X118413344Y-102375888D01*
X118501158Y-102163887D01*
X118560548Y-101942238D01*
X118590500Y-101714734D01*
X118590500Y-101485266D01*
X118560548Y-101257762D01*
X118501158Y-101036113D01*
X118413344Y-100824112D01*
X118413338Y-100824103D01*
X118413337Y-100824099D01*
X118298613Y-100625391D01*
X118298608Y-100625384D01*
X118158926Y-100443347D01*
X118158907Y-100443326D01*
X117996673Y-100281092D01*
X117996652Y-100281073D01*
X117814615Y-100141391D01*
X117814608Y-100141386D01*
X117615900Y-100026662D01*
X117615892Y-100026658D01*
X117615888Y-100026656D01*
X117452852Y-99959124D01*
X118881500Y-99959124D01*
X118881500Y-103240875D01*
X118913045Y-103520855D01*
X118975741Y-103795542D01*
X119068789Y-104061456D01*
X119068800Y-104061483D01*
X119191043Y-104315324D01*
X119340942Y-104553885D01*
X119516604Y-104774160D01*
X119715839Y-104973395D01*
X119936114Y-105149057D01*
X120174675Y-105298956D01*
X120174678Y-105298957D01*
X120174679Y-105298958D01*
X120428526Y-105421204D01*
X120428542Y-105421209D01*
X120428543Y-105421210D01*
X120694457Y-105514258D01*
X120694460Y-105514258D01*
X120694464Y-105514260D01*
X120969144Y-105576954D01*
X120969145Y-105576954D01*
X120969148Y-105576955D01*
X121134271Y-105595559D01*
X121249124Y-105608500D01*
X121249126Y-105608500D01*
X121530876Y-105608500D01*
X121601977Y-105600488D01*
X121810852Y-105576955D01*
X122085536Y-105514260D01*
X122351474Y-105421204D01*
X122605321Y-105298958D01*
X122843884Y-105149058D01*
X122894426Y-105108752D01*
X123064160Y-104973395D01*
X123263395Y-104774160D01*
X123439057Y-104553885D01*
X123447468Y-104540500D01*
X123588958Y-104315321D01*
X123711204Y-104061474D01*
X123804260Y-103795536D01*
X123866955Y-103520852D01*
X123898500Y-103240874D01*
X123898500Y-99959126D01*
X123898444Y-99958632D01*
X123878808Y-99784349D01*
X123866955Y-99679148D01*
X123804260Y-99404464D01*
X123782733Y-99342944D01*
X123711210Y-99138543D01*
X123711209Y-99138542D01*
X123711204Y-99138526D01*
X123588958Y-98884679D01*
X123588957Y-98884678D01*
X123588956Y-98884675D01*
X123439057Y-98646114D01*
X123263395Y-98425839D01*
X123087556Y-98250000D01*
X184836496Y-98250000D01*
X184856457Y-98439927D01*
X184886526Y-98532470D01*
X184915473Y-98621556D01*
X184915476Y-98621561D01*
X185010958Y-98786941D01*
X185010965Y-98786951D01*
X185138744Y-98928864D01*
X185138747Y-98928866D01*
X185293248Y-99041118D01*
X185467712Y-99118794D01*
X185654513Y-99158500D01*
X185845487Y-99158500D01*
X186032288Y-99118794D01*
X186206752Y-99041118D01*
X186300420Y-98973064D01*
X186367288Y-98949205D01*
X186374481Y-98949000D01*
X187251615Y-98949000D01*
X187319736Y-98969002D01*
X187366229Y-99022658D01*
X187371448Y-99036063D01*
X187415473Y-99171556D01*
X187415476Y-99171561D01*
X187510958Y-99336941D01*
X187510965Y-99336951D01*
X187626432Y-99465190D01*
X187657150Y-99529197D01*
X187648385Y-99599651D01*
X187602922Y-99654182D01*
X187535195Y-99675477D01*
X187532796Y-99675500D01*
X187356513Y-99675500D01*
X187169711Y-99715206D01*
X186995247Y-99792882D01*
X186840744Y-99905135D01*
X186712965Y-100047048D01*
X186712958Y-100047058D01*
X186617476Y-100212438D01*
X186617473Y-100212444D01*
X186602999Y-100256986D01*
X186558457Y-100394072D01*
X186538496Y-100584000D01*
X186558457Y-100773927D01*
X186574763Y-100824110D01*
X186617473Y-100955556D01*
X186617476Y-100955561D01*
X186712958Y-101120941D01*
X186712965Y-101120951D01*
X186840744Y-101262864D01*
X186840747Y-101262866D01*
X186995248Y-101375118D01*
X187169712Y-101452794D01*
X187356513Y-101492500D01*
X187547487Y-101492500D01*
X187734288Y-101452794D01*
X187908752Y-101375118D01*
X188063253Y-101262866D01*
X188191040Y-101120944D01*
X188286527Y-100955556D01*
X188345542Y-100773928D01*
X188365504Y-100584000D01*
X188345542Y-100394072D01*
X188286527Y-100212444D01*
X188191040Y-100047056D01*
X188191038Y-100047054D01*
X188191034Y-100047048D01*
X188075568Y-99918810D01*
X188044850Y-99854803D01*
X188053615Y-99784349D01*
X188099078Y-99729818D01*
X188166805Y-99708523D01*
X188169204Y-99708500D01*
X188345487Y-99708500D01*
X188532288Y-99668794D01*
X188706752Y-99591118D01*
X188800942Y-99522684D01*
X188867806Y-99498828D01*
X188936958Y-99514908D01*
X188949043Y-99522673D01*
X189043248Y-99591118D01*
X189217712Y-99668794D01*
X189404513Y-99708500D01*
X189595487Y-99708500D01*
X189782288Y-99668794D01*
X189956752Y-99591118D01*
X190111253Y-99478866D01*
X190111255Y-99478864D01*
X190239034Y-99336951D01*
X190239035Y-99336949D01*
X190239040Y-99336944D01*
X190334527Y-99171556D01*
X190393542Y-98989928D01*
X190413504Y-98800000D01*
X190393542Y-98610072D01*
X190334527Y-98428444D01*
X190239040Y-98263056D01*
X190239038Y-98263054D01*
X190239034Y-98263048D01*
X190111255Y-98121135D01*
X189956752Y-98008882D01*
X189855489Y-97963797D01*
X189782288Y-97931206D01*
X189782287Y-97931205D01*
X189782283Y-97931204D01*
X189612369Y-97895087D01*
X189549895Y-97861359D01*
X189549471Y-97860936D01*
X188395592Y-96707056D01*
X188395586Y-96707051D01*
X188357598Y-96681668D01*
X188281101Y-96630554D01*
X188153891Y-96577862D01*
X188120067Y-96571134D01*
X188018848Y-96551000D01*
X188018846Y-96551000D01*
X188018845Y-96551000D01*
X187124481Y-96551000D01*
X187056360Y-96530998D01*
X187050420Y-96526936D01*
X186956752Y-96458882D01*
X186782288Y-96381206D01*
X186595487Y-96341500D01*
X186404513Y-96341500D01*
X186217711Y-96381206D01*
X186043247Y-96458882D01*
X185888744Y-96571135D01*
X185760965Y-96713048D01*
X185760958Y-96713058D01*
X185665476Y-96878438D01*
X185665473Y-96878445D01*
X185606457Y-97060072D01*
X185586496Y-97250001D01*
X185586496Y-97253924D01*
X185585853Y-97256110D01*
X185585806Y-97256567D01*
X185585722Y-97256558D01*
X185566494Y-97322045D01*
X185512838Y-97368538D01*
X185486695Y-97377170D01*
X185467714Y-97381204D01*
X185293247Y-97458882D01*
X185138744Y-97571135D01*
X185010965Y-97713048D01*
X185010958Y-97713058D01*
X184925581Y-97860936D01*
X184915473Y-97878444D01*
X184908130Y-97901043D01*
X184856457Y-98060072D01*
X184836496Y-98250000D01*
X123087556Y-98250000D01*
X123064160Y-98226604D01*
X122843885Y-98050942D01*
X122605324Y-97901043D01*
X122351483Y-97778800D01*
X122351478Y-97778798D01*
X122351474Y-97778796D01*
X122351468Y-97778793D01*
X122351456Y-97778789D01*
X122085542Y-97685741D01*
X121810854Y-97623045D01*
X121810857Y-97623045D01*
X121530876Y-97591500D01*
X121530874Y-97591500D01*
X121249126Y-97591500D01*
X121249124Y-97591500D01*
X120969144Y-97623045D01*
X120694457Y-97685741D01*
X120428543Y-97778789D01*
X120428516Y-97778800D01*
X120174675Y-97901043D01*
X119936114Y-98050942D01*
X119715839Y-98226604D01*
X119516604Y-98425839D01*
X119340942Y-98646114D01*
X119191043Y-98884675D01*
X119068800Y-99138516D01*
X119068789Y-99138543D01*
X118975741Y-99404457D01*
X118913045Y-99679144D01*
X118881500Y-99959124D01*
X117452852Y-99959124D01*
X117403887Y-99938842D01*
X117200757Y-99884414D01*
X117182231Y-99879450D01*
X116954736Y-99849500D01*
X116954734Y-99849500D01*
X116725266Y-99849500D01*
X116725263Y-99849500D01*
X116497768Y-99879450D01*
X116276113Y-99938842D01*
X116064110Y-100026657D01*
X116064099Y-100026662D01*
X115865391Y-100141386D01*
X115865384Y-100141391D01*
X115683347Y-100281073D01*
X115683326Y-100281092D01*
X115521092Y-100443326D01*
X115521073Y-100443347D01*
X115381391Y-100625384D01*
X115381386Y-100625391D01*
X115266662Y-100824099D01*
X115266657Y-100824110D01*
X115266656Y-100824112D01*
X115226468Y-100921134D01*
X115178842Y-101036113D01*
X115119450Y-101257768D01*
X115089500Y-101485263D01*
X114798500Y-101485263D01*
X114798500Y-99959126D01*
X114798444Y-99958632D01*
X114778808Y-99784349D01*
X114766955Y-99679148D01*
X114704260Y-99404464D01*
X114682733Y-99342944D01*
X114611210Y-99138543D01*
X114611209Y-99138542D01*
X114611204Y-99138526D01*
X114488958Y-98884679D01*
X114488957Y-98884678D01*
X114488956Y-98884675D01*
X114339057Y-98646114D01*
X114163395Y-98425839D01*
X113964160Y-98226604D01*
X113743885Y-98050942D01*
X113505324Y-97901043D01*
X113251483Y-97778800D01*
X113251478Y-97778798D01*
X113251474Y-97778796D01*
X113251468Y-97778793D01*
X113251456Y-97778789D01*
X112985542Y-97685741D01*
X112710854Y-97623045D01*
X112710857Y-97623045D01*
X112430876Y-97591500D01*
X112430874Y-97591500D01*
X112149126Y-97591500D01*
X112149124Y-97591500D01*
X111869144Y-97623045D01*
X111594457Y-97685741D01*
X111328543Y-97778789D01*
X111328516Y-97778800D01*
X111074675Y-97901043D01*
X110836114Y-98050942D01*
X110615839Y-98226604D01*
X110416604Y-98425839D01*
X110240942Y-98646114D01*
X110091043Y-98884675D01*
X109968800Y-99138516D01*
X109968789Y-99138543D01*
X109875741Y-99404457D01*
X109813045Y-99679144D01*
X109781500Y-99959124D01*
X102858500Y-99959124D01*
X102858500Y-98441367D01*
X102858499Y-98441350D01*
X102851990Y-98380803D01*
X102851988Y-98380795D01*
X102810311Y-98269058D01*
X102800889Y-98243796D01*
X102800888Y-98243794D01*
X102800887Y-98243792D01*
X102713261Y-98126738D01*
X102596207Y-98039112D01*
X102596202Y-98039110D01*
X102459204Y-97988011D01*
X102459196Y-97988009D01*
X102398649Y-97981500D01*
X102398638Y-97981500D01*
X100601362Y-97981500D01*
X100601350Y-97981500D01*
X100540803Y-97988009D01*
X100540795Y-97988011D01*
X100403797Y-98039110D01*
X100403792Y-98039112D01*
X100286738Y-98126738D01*
X100199112Y-98243792D01*
X100199110Y-98243797D01*
X100148011Y-98380795D01*
X100148009Y-98380803D01*
X100141500Y-98441350D01*
X100141500Y-100238649D01*
X100148009Y-100299196D01*
X100148011Y-100299204D01*
X100199110Y-100436202D01*
X100199112Y-100436207D01*
X100286738Y-100553261D01*
X100403791Y-100640886D01*
X100403792Y-100640886D01*
X100403796Y-100640889D01*
X100518810Y-100683787D01*
X100575642Y-100726332D01*
X100600453Y-100792852D01*
X100585362Y-100862226D01*
X100567475Y-100887179D01*
X100424280Y-101042729D01*
X100424275Y-101042734D01*
X100301141Y-101231206D01*
X100210703Y-101437386D01*
X100210702Y-101437387D01*
X100155437Y-101655624D01*
X100155436Y-101655630D01*
X100155436Y-101655632D01*
X100136844Y-101880000D01*
X88922652Y-101880000D01*
X88930508Y-101600015D01*
X88930508Y-101599984D01*
X88915275Y-101057052D01*
X88910481Y-100886195D01*
X88909713Y-100877094D01*
X88850462Y-100174645D01*
X88847858Y-100156202D01*
X88750639Y-99467561D01*
X88750167Y-99465190D01*
X88664809Y-99036063D01*
X88611328Y-98767195D01*
X88611325Y-98767185D01*
X88611324Y-98767177D01*
X88439428Y-98100795D01*
X88432966Y-98075743D01*
X88216114Y-97395380D01*
X88216111Y-97395371D01*
X88216105Y-97395355D01*
X87961470Y-96728283D01*
X87961456Y-96728246D01*
X87669791Y-96076440D01*
X87459804Y-95669969D01*
X87342048Y-95442030D01*
X87342027Y-95441992D01*
X86979235Y-94826971D01*
X86979232Y-94826966D01*
X86871562Y-94665826D01*
X86827578Y-94600000D01*
X112827337Y-94600000D01*
X112845960Y-94836632D01*
X112901371Y-95067437D01*
X112992208Y-95286738D01*
X113106896Y-95473890D01*
X113106897Y-95473890D01*
X113855841Y-94724946D01*
X113874075Y-94792993D01*
X113939901Y-94907007D01*
X114032993Y-95000099D01*
X114147007Y-95065925D01*
X114215051Y-95084157D01*
X113466107Y-95833101D01*
X113466108Y-95833102D01*
X113653261Y-95947791D01*
X113872562Y-96038628D01*
X114103367Y-96094039D01*
X114340000Y-96112662D01*
X114576632Y-96094039D01*
X114807437Y-96038628D01*
X115026738Y-95947791D01*
X115213890Y-95833102D01*
X115213891Y-95833102D01*
X114464947Y-95084158D01*
X114532993Y-95065925D01*
X114647007Y-95000099D01*
X114740099Y-94907007D01*
X114805925Y-94792993D01*
X114824158Y-94724947D01*
X115573102Y-95473891D01*
X115573102Y-95473890D01*
X115687791Y-95286738D01*
X115778628Y-95067437D01*
X115834039Y-94836632D01*
X115852662Y-94600000D01*
X117826835Y-94600000D01*
X117844698Y-94826971D01*
X117845465Y-94836710D01*
X117900894Y-95067592D01*
X117900895Y-95067594D01*
X117991760Y-95286963D01*
X118106310Y-95473891D01*
X118115825Y-95489417D01*
X118115826Y-95489419D01*
X118270030Y-95669969D01*
X118450580Y-95824173D01*
X118450584Y-95824176D01*
X118653037Y-95948240D01*
X118872406Y-96039105D01*
X119103289Y-96094535D01*
X119340000Y-96113165D01*
X119576711Y-96094535D01*
X119807594Y-96039105D01*
X120026963Y-95948240D01*
X120229416Y-95824176D01*
X120409969Y-95669969D01*
X120564176Y-95489416D01*
X120688240Y-95286963D01*
X120779105Y-95067594D01*
X120834535Y-94836711D01*
X120853165Y-94600000D01*
X120834535Y-94363289D01*
X120779105Y-94132406D01*
X120688240Y-93913037D01*
X120564176Y-93710584D01*
X120553069Y-93697579D01*
X120409969Y-93530030D01*
X120229419Y-93375826D01*
X120229417Y-93375825D01*
X120229416Y-93375824D01*
X120026963Y-93251760D01*
X119808744Y-93161371D01*
X119807592Y-93160894D01*
X119625041Y-93117068D01*
X119576711Y-93105465D01*
X119340000Y-93086835D01*
X119103289Y-93105465D01*
X118872407Y-93160894D01*
X118653038Y-93251759D01*
X118450582Y-93375825D01*
X118450580Y-93375826D01*
X118270030Y-93530030D01*
X118115826Y-93710580D01*
X118115825Y-93710582D01*
X117991759Y-93913038D01*
X117900894Y-94132407D01*
X117845465Y-94363289D01*
X117826835Y-94600000D01*
X115852662Y-94600000D01*
X115834039Y-94363367D01*
X115778628Y-94132562D01*
X115687791Y-93913261D01*
X115573102Y-93726108D01*
X115573101Y-93726107D01*
X114824157Y-94475051D01*
X114805925Y-94407007D01*
X114740099Y-94292993D01*
X114647007Y-94199901D01*
X114532993Y-94134075D01*
X114464946Y-94115841D01*
X115213890Y-93366897D01*
X115213890Y-93366896D01*
X115026738Y-93252208D01*
X114807437Y-93161371D01*
X114576632Y-93105960D01*
X114340000Y-93087337D01*
X114103367Y-93105960D01*
X113872562Y-93161371D01*
X113653266Y-93252206D01*
X113466108Y-93366897D01*
X113466108Y-93366898D01*
X114215052Y-94115842D01*
X114147007Y-94134075D01*
X114032993Y-94199901D01*
X113939901Y-94292993D01*
X113874075Y-94407007D01*
X113855842Y-94475052D01*
X113106898Y-93726108D01*
X113106897Y-93726108D01*
X112992206Y-93913266D01*
X112901371Y-94132562D01*
X112845960Y-94363367D01*
X112827337Y-94600000D01*
X86827578Y-94600000D01*
X86582504Y-94233220D01*
X86582496Y-94233210D01*
X86582494Y-94233206D01*
X86153124Y-93662673D01*
X86153117Y-93662665D01*
X86153112Y-93662658D01*
X85692404Y-93117070D01*
X85641618Y-93063352D01*
X85201829Y-92598170D01*
X84682931Y-92107597D01*
X84682930Y-92107596D01*
X84137342Y-91646888D01*
X84137336Y-91646883D01*
X84137326Y-91646875D01*
X83566793Y-91217505D01*
X83566785Y-91217500D01*
X83566780Y-91217496D01*
X82973039Y-90820771D01*
X82973038Y-90820770D01*
X82973033Y-90820767D01*
X82973028Y-90820764D01*
X82358007Y-90457972D01*
X82357969Y-90457951D01*
X81800584Y-90170000D01*
X113894496Y-90170000D01*
X113914457Y-90359927D01*
X113944526Y-90452470D01*
X113973473Y-90541556D01*
X113973476Y-90541561D01*
X114068958Y-90706941D01*
X114068965Y-90706951D01*
X114196744Y-90848864D01*
X114257999Y-90893368D01*
X114351248Y-90961118D01*
X114525712Y-91038794D01*
X114712513Y-91078500D01*
X114903487Y-91078500D01*
X115090288Y-91038794D01*
X115264752Y-90961118D01*
X115419253Y-90848866D01*
X115444550Y-90820771D01*
X115547034Y-90706951D01*
X115547035Y-90706949D01*
X115547040Y-90706944D01*
X115642527Y-90541556D01*
X115701542Y-90359928D01*
X115721504Y-90170000D01*
X115701542Y-89980072D01*
X115642527Y-89798444D01*
X115547040Y-89633056D01*
X115547038Y-89633054D01*
X115547034Y-89633048D01*
X115419255Y-89491135D01*
X115264752Y-89378882D01*
X115090288Y-89301206D01*
X114903487Y-89261500D01*
X114712513Y-89261500D01*
X114525711Y-89301206D01*
X114351247Y-89378882D01*
X114196744Y-89491135D01*
X114068965Y-89633048D01*
X114068958Y-89633058D01*
X113973476Y-89798438D01*
X113973473Y-89798444D01*
X113960444Y-89838544D01*
X113914457Y-89980072D01*
X113894496Y-90170000D01*
X81800584Y-90170000D01*
X81723576Y-90130217D01*
X81723568Y-90130213D01*
X81723560Y-90130209D01*
X81071754Y-89838544D01*
X81071734Y-89838536D01*
X81071716Y-89838529D01*
X80404644Y-89583894D01*
X80404628Y-89583888D01*
X79865053Y-89411910D01*
X79724257Y-89367034D01*
X79724254Y-89367033D01*
X79724244Y-89367030D01*
X79032822Y-89188675D01*
X79032811Y-89188673D01*
X78332445Y-89049361D01*
X77625353Y-88949537D01*
X77625355Y-88949537D01*
X77038072Y-88900000D01*
X147320000Y-88900000D01*
X157480000Y-88900000D01*
X208280000Y-88900000D01*
X218440000Y-88900000D01*
X218440000Y-81280000D01*
X208280000Y-81280000D01*
X208280000Y-88900000D01*
X157480000Y-88900000D01*
X157480000Y-81280000D01*
X147320000Y-81280000D01*
X147320000Y-88900000D01*
X77038072Y-88900000D01*
X76913803Y-88889518D01*
X76200015Y-88869492D01*
X76199985Y-88869492D01*
X75486201Y-88889518D01*
X75486191Y-88889518D01*
X74774645Y-88949537D01*
X74067554Y-89049361D01*
X73367188Y-89188673D01*
X73367177Y-89188675D01*
X72675755Y-89367030D01*
X71995371Y-89583888D01*
X71995355Y-89583894D01*
X71328283Y-89838529D01*
X71328239Y-89838547D01*
X70676452Y-90130203D01*
X70676423Y-90130217D01*
X70042030Y-90457951D01*
X70041992Y-90457972D01*
X69426971Y-90820764D01*
X69426966Y-90820767D01*
X68833214Y-91217500D01*
X68833206Y-91217505D01*
X68262673Y-91646875D01*
X67717068Y-92107597D01*
X67198170Y-92598170D01*
X66707597Y-93117068D01*
X66246875Y-93662673D01*
X65817505Y-94233206D01*
X65817500Y-94233214D01*
X65420767Y-94826966D01*
X65420764Y-94826971D01*
X65057972Y-95441992D01*
X65057951Y-95442030D01*
X64730217Y-96076423D01*
X64730203Y-96076452D01*
X64438547Y-96728239D01*
X64438529Y-96728283D01*
X64183894Y-97395355D01*
X64183888Y-97395371D01*
X63967030Y-98075755D01*
X63788675Y-98767177D01*
X63788673Y-98767188D01*
X63649361Y-99467554D01*
X63549537Y-100174645D01*
X63489518Y-100886191D01*
X63489518Y-100886201D01*
X63469492Y-101599984D01*
X52095500Y-101599984D01*
X52095500Y-72151350D01*
X74741500Y-72151350D01*
X74741500Y-73098649D01*
X74748009Y-73159196D01*
X74748011Y-73159204D01*
X74799110Y-73296202D01*
X74799112Y-73296207D01*
X74892139Y-73420475D01*
X74890342Y-73421820D01*
X74918408Y-73473217D01*
X74913343Y-73544032D01*
X74891054Y-73578712D01*
X74892139Y-73579525D01*
X74799112Y-73703792D01*
X74799110Y-73703797D01*
X74748011Y-73840795D01*
X74748009Y-73840803D01*
X74741500Y-73901350D01*
X74741500Y-74848649D01*
X74748009Y-74909196D01*
X74748011Y-74909204D01*
X74799110Y-75046202D01*
X74799112Y-75046207D01*
X74886738Y-75163261D01*
X75003792Y-75250887D01*
X75003794Y-75250888D01*
X75003796Y-75250889D01*
X75061061Y-75272248D01*
X75140795Y-75301988D01*
X75140803Y-75301990D01*
X75201350Y-75308499D01*
X75201355Y-75308499D01*
X75201362Y-75308500D01*
X75201368Y-75308500D01*
X75798632Y-75308500D01*
X75798638Y-75308500D01*
X75798645Y-75308499D01*
X75798649Y-75308499D01*
X75859196Y-75301990D01*
X75859199Y-75301989D01*
X75859201Y-75301989D01*
X75907270Y-75284060D01*
X75955967Y-75265897D01*
X76026783Y-75260831D01*
X76044033Y-75265897D01*
X76140795Y-75301988D01*
X76140803Y-75301990D01*
X76201350Y-75308499D01*
X76201355Y-75308499D01*
X76201362Y-75308500D01*
X76482577Y-75308500D01*
X76550698Y-75328502D01*
X76571672Y-75345405D01*
X77719892Y-76493625D01*
X77823978Y-76563173D01*
X77939631Y-76611078D01*
X78062409Y-76635500D01*
X78187591Y-76635500D01*
X82020072Y-76635500D01*
X82088193Y-76655502D01*
X82134686Y-76709158D01*
X82145420Y-76748696D01*
X82151112Y-76804424D01*
X82206885Y-76972738D01*
X82299970Y-77123652D01*
X82299975Y-77123658D01*
X82425341Y-77249024D01*
X82425347Y-77249029D01*
X82425348Y-77249030D01*
X82576262Y-77342115D01*
X82744574Y-77397887D01*
X82848455Y-77408500D01*
X83474544Y-77408499D01*
X83578426Y-77397887D01*
X83746738Y-77342115D01*
X83897652Y-77249030D01*
X83901738Y-77244944D01*
X83984905Y-77161778D01*
X84047217Y-77127752D01*
X84118032Y-77132817D01*
X84163095Y-77161778D01*
X84250341Y-77249024D01*
X84250347Y-77249029D01*
X84250348Y-77249030D01*
X84401262Y-77342115D01*
X84569574Y-77397887D01*
X84673455Y-77408500D01*
X85299544Y-77408499D01*
X85403426Y-77397887D01*
X85571738Y-77342115D01*
X85722652Y-77249030D01*
X85848030Y-77123652D01*
X85941115Y-76972738D01*
X85941117Y-76972732D01*
X85941575Y-76971752D01*
X85942067Y-76971192D01*
X85944967Y-76966492D01*
X85945770Y-76966987D01*
X85988491Y-76918466D01*
X86055770Y-76899000D01*
X86174845Y-76899000D01*
X86174846Y-76899000D01*
X86309891Y-76872138D01*
X86437101Y-76819446D01*
X86551586Y-76742949D01*
X86648949Y-76645586D01*
X87882630Y-75411905D01*
X87944942Y-75377879D01*
X87971725Y-75375000D01*
X157392275Y-75375000D01*
X157460396Y-75395002D01*
X157481370Y-75411905D01*
X159223051Y-77153586D01*
X159320414Y-77250949D01*
X159402597Y-77305862D01*
X159434899Y-77327446D01*
X159562109Y-77380138D01*
X159697154Y-77407000D01*
X159697155Y-77407000D01*
X172062384Y-77407000D01*
X172130505Y-77427002D01*
X172176998Y-77480658D01*
X172187102Y-77550932D01*
X172171502Y-77596001D01*
X172165477Y-77606435D01*
X172165473Y-77606445D01*
X172106457Y-77788072D01*
X172086496Y-77978000D01*
X172106457Y-78167927D01*
X172136526Y-78260470D01*
X172165473Y-78349556D01*
X172165476Y-78349561D01*
X172260958Y-78514941D01*
X172260965Y-78514951D01*
X172388744Y-78656864D01*
X172401467Y-78666108D01*
X172543248Y-78769118D01*
X172717712Y-78846794D01*
X172904513Y-78886500D01*
X173095487Y-78886500D01*
X173282288Y-78846794D01*
X173456752Y-78769118D01*
X173550420Y-78701064D01*
X173617288Y-78677205D01*
X173624481Y-78677000D01*
X203845519Y-78677000D01*
X203913640Y-78697002D01*
X203919580Y-78701064D01*
X204013248Y-78769118D01*
X204187712Y-78846794D01*
X204374513Y-78886500D01*
X204565487Y-78886500D01*
X204752288Y-78846794D01*
X204926752Y-78769118D01*
X205081253Y-78656866D01*
X205209040Y-78514944D01*
X205304527Y-78349556D01*
X205363542Y-78167928D01*
X205383504Y-77978000D01*
X205363542Y-77788072D01*
X205304527Y-77606444D01*
X205209040Y-77441056D01*
X205209038Y-77441054D01*
X205209034Y-77441048D01*
X205081255Y-77299135D01*
X204926752Y-77186882D01*
X204752288Y-77109206D01*
X204565487Y-77069500D01*
X204374513Y-77069500D01*
X204187711Y-77109206D01*
X204013247Y-77186882D01*
X203919580Y-77254936D01*
X203852712Y-77278795D01*
X203845519Y-77279000D01*
X185849616Y-77279000D01*
X185781495Y-77258998D01*
X185735002Y-77205342D01*
X185724898Y-77135068D01*
X185740498Y-77089999D01*
X185746522Y-77079564D01*
X185746527Y-77079556D01*
X185805542Y-76897928D01*
X185825504Y-76708000D01*
X185805542Y-76518072D01*
X185776579Y-76428936D01*
X185774552Y-76357969D01*
X185811215Y-76297171D01*
X185874927Y-76265846D01*
X185896413Y-76264000D01*
X186747983Y-76264000D01*
X186816104Y-76284002D01*
X186822037Y-76288059D01*
X186826248Y-76291118D01*
X187000712Y-76368794D01*
X187187513Y-76408500D01*
X187378487Y-76408500D01*
X187565288Y-76368794D01*
X187739752Y-76291118D01*
X187894253Y-76178866D01*
X188022040Y-76036944D01*
X188117527Y-75871556D01*
X188176542Y-75689928D01*
X188196504Y-75500000D01*
X188176542Y-75310072D01*
X188117527Y-75128444D01*
X188117522Y-75128436D01*
X188115938Y-75124876D01*
X188115636Y-75122627D01*
X188115486Y-75122164D01*
X188115570Y-75122136D01*
X188106507Y-75054508D01*
X188136615Y-74990212D01*
X188182830Y-74957222D01*
X188277302Y-74918091D01*
X188325519Y-74908500D01*
X188345487Y-74908500D01*
X188532288Y-74868794D01*
X188706752Y-74791118D01*
X188861253Y-74678866D01*
X188938732Y-74592817D01*
X188989034Y-74536951D01*
X188989035Y-74536949D01*
X188989040Y-74536944D01*
X189084527Y-74371556D01*
X189143542Y-74189928D01*
X189163504Y-74000000D01*
X189143542Y-73810072D01*
X189084527Y-73628444D01*
X188989040Y-73463056D01*
X188989038Y-73463054D01*
X188989034Y-73463048D01*
X188861255Y-73321135D01*
X188706752Y-73208882D01*
X188532288Y-73131206D01*
X188345487Y-73091500D01*
X188154513Y-73091500D01*
X187967711Y-73131206D01*
X187793247Y-73208882D01*
X187638744Y-73321135D01*
X187510960Y-73463054D01*
X187470579Y-73532999D01*
X187419197Y-73581993D01*
X187361459Y-73596000D01*
X160742726Y-73596000D01*
X160674605Y-73575998D01*
X160653631Y-73559095D01*
X159195590Y-72101054D01*
X159195486Y-72100985D01*
X159180242Y-72090799D01*
X159081101Y-72024554D01*
X158953891Y-71971862D01*
X158818848Y-71945000D01*
X158818846Y-71945000D01*
X158818845Y-71945000D01*
X87844725Y-71945000D01*
X87776604Y-71924998D01*
X87755630Y-71908095D01*
X86424592Y-70577056D01*
X86424586Y-70577051D01*
X86390288Y-70554134D01*
X86390286Y-70554132D01*
X86310103Y-70500555D01*
X86269556Y-70483760D01*
X86182891Y-70447862D01*
X86156628Y-70442638D01*
X86156626Y-70442637D01*
X86047844Y-70420999D01*
X86043496Y-70420571D01*
X85977666Y-70393985D01*
X85945442Y-70353214D01*
X85944967Y-70353508D01*
X85942452Y-70349430D01*
X85941658Y-70348426D01*
X85941117Y-70347267D01*
X85941116Y-70347265D01*
X85941115Y-70347262D01*
X85848030Y-70196348D01*
X85848029Y-70196347D01*
X85848024Y-70196341D01*
X85722658Y-70070975D01*
X85722652Y-70070970D01*
X85622157Y-70008984D01*
X85571738Y-69977885D01*
X85452880Y-69938500D01*
X85403427Y-69922113D01*
X85403420Y-69922112D01*
X85299553Y-69911500D01*
X84673455Y-69911500D01*
X84569574Y-69922112D01*
X84401261Y-69977885D01*
X84250347Y-70070970D01*
X84250341Y-70070975D01*
X84163095Y-70158222D01*
X84100783Y-70192248D01*
X84029968Y-70187183D01*
X83984905Y-70158222D01*
X83897658Y-70070975D01*
X83897652Y-70070970D01*
X83797157Y-70008984D01*
X83746738Y-69977885D01*
X83627880Y-69938500D01*
X83578427Y-69922113D01*
X83578420Y-69922112D01*
X83474553Y-69911500D01*
X82848455Y-69911500D01*
X82744574Y-69922112D01*
X82576261Y-69977885D01*
X82425347Y-70070970D01*
X82425341Y-70070975D01*
X82299975Y-70196341D01*
X82299970Y-70196347D01*
X82206886Y-70347260D01*
X82206883Y-70347267D01*
X82190028Y-70398133D01*
X82149614Y-70456505D01*
X82084058Y-70483760D01*
X82070424Y-70484500D01*
X76767406Y-70484500D01*
X76644630Y-70508922D01*
X76644625Y-70508924D01*
X76528977Y-70556827D01*
X76424896Y-70626372D01*
X76424889Y-70626377D01*
X75396672Y-71654595D01*
X75334360Y-71688621D01*
X75307577Y-71691500D01*
X75201350Y-71691500D01*
X75140803Y-71698009D01*
X75140795Y-71698011D01*
X75003797Y-71749110D01*
X75003792Y-71749112D01*
X74886738Y-71836738D01*
X74799112Y-71953792D01*
X74799110Y-71953797D01*
X74748011Y-72090795D01*
X74748010Y-72090801D01*
X74741500Y-72151350D01*
X52095500Y-72151350D01*
X52095500Y-68579993D01*
X56176685Y-68579993D01*
X56176685Y-68580006D01*
X56195929Y-68947232D01*
X56253458Y-69310457D01*
X56348640Y-69665680D01*
X56480422Y-70008984D01*
X56480426Y-70008992D01*
X56480427Y-70008994D01*
X56575885Y-70196341D01*
X56647380Y-70336658D01*
X56847662Y-70645067D01*
X56847674Y-70645084D01*
X57079085Y-70930853D01*
X57079099Y-70930868D01*
X57339131Y-71190900D01*
X57339146Y-71190914D01*
X57624915Y-71422325D01*
X57624932Y-71422337D01*
X57775473Y-71520099D01*
X57933342Y-71622620D01*
X58261006Y-71789573D01*
X58261010Y-71789574D01*
X58261015Y-71789577D01*
X58604319Y-71921359D01*
X58604324Y-71921360D01*
X58604326Y-71921361D01*
X58959541Y-72016541D01*
X59322759Y-72074069D01*
X59322761Y-72074069D01*
X59322767Y-72074070D01*
X59689994Y-72093315D01*
X59690000Y-72093315D01*
X59690006Y-72093315D01*
X60057232Y-72074070D01*
X60057236Y-72074069D01*
X60057241Y-72074069D01*
X60420459Y-72016541D01*
X60775674Y-71921361D01*
X60775677Y-71921359D01*
X60775680Y-71921359D01*
X61118984Y-71789577D01*
X61118985Y-71789576D01*
X61118994Y-71789573D01*
X61446658Y-71622620D01*
X61755075Y-71422332D01*
X61851344Y-71344375D01*
X62040853Y-71190914D01*
X62040858Y-71190908D01*
X62040867Y-71190902D01*
X62300902Y-70930867D01*
X62300908Y-70930858D01*
X62300914Y-70930853D01*
X62532325Y-70645084D01*
X62532326Y-70645081D01*
X62532332Y-70645075D01*
X62732620Y-70336658D01*
X62899573Y-70008994D01*
X62899577Y-70008984D01*
X63031359Y-69665680D01*
X63031361Y-69665674D01*
X63126541Y-69310459D01*
X63184069Y-68947241D01*
X63184069Y-68947236D01*
X63184070Y-68947232D01*
X63203315Y-68580006D01*
X63203315Y-68580000D01*
X164601844Y-68580000D01*
X164616002Y-68750864D01*
X164620437Y-68804375D01*
X164675702Y-69022612D01*
X164675703Y-69022613D01*
X164766141Y-69228793D01*
X164889275Y-69417265D01*
X164889279Y-69417270D01*
X165041762Y-69582908D01*
X165096331Y-69625381D01*
X165219424Y-69721189D01*
X165253205Y-69739470D01*
X165303596Y-69789482D01*
X165318949Y-69858799D01*
X165294389Y-69925412D01*
X165253208Y-69961097D01*
X165219700Y-69979230D01*
X165219693Y-69979235D01*
X165199311Y-69995099D01*
X165199310Y-69995100D01*
X165840052Y-70635842D01*
X165772007Y-70654075D01*
X165657993Y-70719901D01*
X165564901Y-70812993D01*
X165499075Y-70927007D01*
X165480842Y-70995052D01*
X164841921Y-70356131D01*
X164841920Y-70356132D01*
X164766586Y-70471439D01*
X164766579Y-70471453D01*
X164676179Y-70677543D01*
X164676176Y-70677550D01*
X164620932Y-70895707D01*
X164602346Y-71120000D01*
X164620932Y-71344292D01*
X164676176Y-71562449D01*
X164676179Y-71562456D01*
X164766580Y-71768548D01*
X164841921Y-71883866D01*
X165480841Y-71244946D01*
X165499075Y-71312993D01*
X165564901Y-71427007D01*
X165657993Y-71520099D01*
X165772007Y-71585925D01*
X165840051Y-71604157D01*
X165199310Y-72244898D01*
X165219697Y-72260766D01*
X165219701Y-72260768D01*
X165417628Y-72367882D01*
X165417630Y-72367883D01*
X165630483Y-72440955D01*
X165630490Y-72440957D01*
X165852477Y-72478000D01*
X166077523Y-72478000D01*
X166299509Y-72440957D01*
X166299516Y-72440955D01*
X166512369Y-72367883D01*
X166512371Y-72367881D01*
X166710298Y-72260769D01*
X166730688Y-72244898D01*
X166089947Y-71604157D01*
X166157993Y-71585925D01*
X166272007Y-71520099D01*
X166365099Y-71427007D01*
X166430925Y-71312993D01*
X166449158Y-71244947D01*
X167088077Y-71883866D01*
X167088078Y-71883866D01*
X167129217Y-71820899D01*
X167183221Y-71774810D01*
X167253568Y-71765235D01*
X167317926Y-71795212D01*
X167340183Y-71820898D01*
X167429279Y-71957270D01*
X167581762Y-72122908D01*
X167636331Y-72165381D01*
X167759424Y-72261189D01*
X167957426Y-72368342D01*
X167957427Y-72368342D01*
X167957428Y-72368343D01*
X167980787Y-72376362D01*
X168170365Y-72441444D01*
X168392431Y-72478500D01*
X168392435Y-72478500D01*
X168617565Y-72478500D01*
X168617569Y-72478500D01*
X168839635Y-72441444D01*
X169052574Y-72368342D01*
X169250576Y-72261189D01*
X169428240Y-72122906D01*
X169580722Y-71957268D01*
X169669518Y-71821354D01*
X169723520Y-71775268D01*
X169793868Y-71765692D01*
X169858225Y-71795669D01*
X169880480Y-71821353D01*
X169885580Y-71829158D01*
X169969275Y-71957265D01*
X169969279Y-71957270D01*
X170121762Y-72122908D01*
X170176331Y-72165381D01*
X170299424Y-72261189D01*
X170497426Y-72368342D01*
X170497427Y-72368342D01*
X170497428Y-72368343D01*
X170520787Y-72376362D01*
X170710365Y-72441444D01*
X170932431Y-72478500D01*
X170932435Y-72478500D01*
X171157565Y-72478500D01*
X171157569Y-72478500D01*
X171379635Y-72441444D01*
X171592574Y-72368342D01*
X171790576Y-72261189D01*
X171968240Y-72122906D01*
X172120722Y-71957268D01*
X172243860Y-71768791D01*
X172334296Y-71562616D01*
X172389564Y-71344368D01*
X172408156Y-71120000D01*
X172389564Y-70895632D01*
X172334338Y-70677550D01*
X172334297Y-70677387D01*
X172334296Y-70677386D01*
X172334296Y-70677384D01*
X172243860Y-70471209D01*
X172226597Y-70444786D01*
X172120724Y-70282734D01*
X172120720Y-70282729D01*
X171968236Y-70117090D01*
X171933436Y-70090004D01*
X171891966Y-70032379D01*
X171888233Y-69961480D01*
X171923423Y-69899819D01*
X171961763Y-69876669D01*
X171961086Y-69875217D01*
X171967728Y-69872118D01*
X171967738Y-69872115D01*
X172118652Y-69779030D01*
X172244030Y-69653652D01*
X172337115Y-69502738D01*
X172392887Y-69334426D01*
X172403500Y-69230545D01*
X172403499Y-68580000D01*
X189136844Y-68580000D01*
X189151002Y-68750864D01*
X189155437Y-68804375D01*
X189210702Y-69022612D01*
X189210703Y-69022613D01*
X189301141Y-69228793D01*
X189424275Y-69417265D01*
X189424279Y-69417270D01*
X189576762Y-69582908D01*
X189631331Y-69625381D01*
X189754424Y-69721189D01*
X189788205Y-69739470D01*
X189838596Y-69789482D01*
X189853949Y-69858799D01*
X189829389Y-69925412D01*
X189788208Y-69961097D01*
X189754700Y-69979230D01*
X189754693Y-69979235D01*
X189734311Y-69995099D01*
X189734310Y-69995100D01*
X190375052Y-70635842D01*
X190307007Y-70654075D01*
X190192993Y-70719901D01*
X190099901Y-70812993D01*
X190034075Y-70927007D01*
X190015842Y-70995052D01*
X189376921Y-70356131D01*
X189376920Y-70356132D01*
X189301586Y-70471439D01*
X189301579Y-70471453D01*
X189211179Y-70677543D01*
X189211176Y-70677550D01*
X189155932Y-70895707D01*
X189137346Y-71120000D01*
X189155932Y-71344292D01*
X189211176Y-71562449D01*
X189211179Y-71562456D01*
X189301580Y-71768548D01*
X189376921Y-71883866D01*
X190015841Y-71244946D01*
X190034075Y-71312993D01*
X190099901Y-71427007D01*
X190192993Y-71520099D01*
X190307007Y-71585925D01*
X190375051Y-71604157D01*
X189734310Y-72244898D01*
X189754697Y-72260766D01*
X189754701Y-72260768D01*
X189952628Y-72367882D01*
X189952630Y-72367883D01*
X190165483Y-72440955D01*
X190165490Y-72440957D01*
X190387477Y-72478000D01*
X190612523Y-72478000D01*
X190834509Y-72440957D01*
X190834516Y-72440955D01*
X191047369Y-72367883D01*
X191047371Y-72367881D01*
X191245298Y-72260769D01*
X191265688Y-72244898D01*
X190624947Y-71604157D01*
X190692993Y-71585925D01*
X190807007Y-71520099D01*
X190900099Y-71427007D01*
X190965925Y-71312993D01*
X190984158Y-71244947D01*
X191623077Y-71883866D01*
X191623078Y-71883866D01*
X191664217Y-71820899D01*
X191718221Y-71774810D01*
X191788568Y-71765235D01*
X191852926Y-71795212D01*
X191875183Y-71820898D01*
X191964279Y-71957270D01*
X192116762Y-72122908D01*
X192171331Y-72165381D01*
X192294424Y-72261189D01*
X192492426Y-72368342D01*
X192492427Y-72368342D01*
X192492428Y-72368343D01*
X192515787Y-72376362D01*
X192705365Y-72441444D01*
X192927431Y-72478500D01*
X192927435Y-72478500D01*
X193152565Y-72478500D01*
X193152569Y-72478500D01*
X193374635Y-72441444D01*
X193587574Y-72368342D01*
X193785576Y-72261189D01*
X193963240Y-72122906D01*
X194115722Y-71957268D01*
X194204518Y-71821354D01*
X194258520Y-71775268D01*
X194328868Y-71765692D01*
X194393225Y-71795669D01*
X194415480Y-71821353D01*
X194420580Y-71829158D01*
X194504275Y-71957265D01*
X194504279Y-71957270D01*
X194656762Y-72122908D01*
X194711331Y-72165381D01*
X194834424Y-72261189D01*
X195032426Y-72368342D01*
X195032427Y-72368342D01*
X195032428Y-72368343D01*
X195055787Y-72376362D01*
X195245365Y-72441444D01*
X195467431Y-72478500D01*
X195467435Y-72478500D01*
X195692565Y-72478500D01*
X195692569Y-72478500D01*
X195914635Y-72441444D01*
X196127574Y-72368342D01*
X196325576Y-72261189D01*
X196503240Y-72122906D01*
X196655722Y-71957268D01*
X196744518Y-71821354D01*
X196798520Y-71775268D01*
X196868868Y-71765692D01*
X196933225Y-71795669D01*
X196955480Y-71821353D01*
X196960580Y-71829158D01*
X197044275Y-71957265D01*
X197044279Y-71957270D01*
X197196762Y-72122908D01*
X197251331Y-72165381D01*
X197374424Y-72261189D01*
X197572426Y-72368342D01*
X197572427Y-72368342D01*
X197572428Y-72368343D01*
X197595787Y-72376362D01*
X197785365Y-72441444D01*
X198007431Y-72478500D01*
X198007435Y-72478500D01*
X198232565Y-72478500D01*
X198232569Y-72478500D01*
X198454635Y-72441444D01*
X198667574Y-72368342D01*
X198865576Y-72261189D01*
X199043240Y-72122906D01*
X199195722Y-71957268D01*
X199284518Y-71821354D01*
X199338520Y-71775268D01*
X199408868Y-71765692D01*
X199473225Y-71795669D01*
X199495480Y-71821353D01*
X199500580Y-71829158D01*
X199584275Y-71957265D01*
X199584279Y-71957270D01*
X199736762Y-72122908D01*
X199791331Y-72165381D01*
X199914424Y-72261189D01*
X200112426Y-72368342D01*
X200112427Y-72368342D01*
X200112428Y-72368343D01*
X200135787Y-72376362D01*
X200325365Y-72441444D01*
X200547431Y-72478500D01*
X200547435Y-72478500D01*
X200772565Y-72478500D01*
X200772569Y-72478500D01*
X200994635Y-72441444D01*
X201207574Y-72368342D01*
X201405576Y-72261189D01*
X201583240Y-72122906D01*
X201735722Y-71957268D01*
X201824518Y-71821354D01*
X201878520Y-71775268D01*
X201948868Y-71765692D01*
X202013225Y-71795669D01*
X202035480Y-71821353D01*
X202040580Y-71829158D01*
X202124275Y-71957265D01*
X202124279Y-71957270D01*
X202276762Y-72122908D01*
X202331331Y-72165381D01*
X202454424Y-72261189D01*
X202652426Y-72368342D01*
X202652427Y-72368342D01*
X202652428Y-72368343D01*
X202675787Y-72376362D01*
X202865365Y-72441444D01*
X203087431Y-72478500D01*
X203087435Y-72478500D01*
X203312565Y-72478500D01*
X203312569Y-72478500D01*
X203534635Y-72441444D01*
X203747574Y-72368342D01*
X203945576Y-72261189D01*
X204123240Y-72122906D01*
X204275722Y-71957268D01*
X204364518Y-71821354D01*
X204418520Y-71775268D01*
X204488868Y-71765692D01*
X204553225Y-71795669D01*
X204575480Y-71821353D01*
X204580580Y-71829158D01*
X204664275Y-71957265D01*
X204664279Y-71957270D01*
X204816762Y-72122908D01*
X204871331Y-72165381D01*
X204994424Y-72261189D01*
X205192426Y-72368342D01*
X205192427Y-72368342D01*
X205192428Y-72368343D01*
X205215787Y-72376362D01*
X205405365Y-72441444D01*
X205627431Y-72478500D01*
X205627435Y-72478500D01*
X205852565Y-72478500D01*
X205852569Y-72478500D01*
X206074635Y-72441444D01*
X206287574Y-72368342D01*
X206485576Y-72261189D01*
X206663240Y-72122906D01*
X206815722Y-71957268D01*
X206938860Y-71768791D01*
X207029296Y-71562616D01*
X207084564Y-71344368D01*
X207103156Y-71120000D01*
X207084564Y-70895632D01*
X207029338Y-70677550D01*
X207029297Y-70677387D01*
X207029296Y-70677386D01*
X207029296Y-70677384D01*
X206938860Y-70471209D01*
X206921597Y-70444786D01*
X206815724Y-70282734D01*
X206815720Y-70282729D01*
X206663236Y-70117090D01*
X206628436Y-70090004D01*
X206586966Y-70032379D01*
X206583233Y-69961480D01*
X206618423Y-69899819D01*
X206656763Y-69876669D01*
X206656086Y-69875217D01*
X206662728Y-69872118D01*
X206662738Y-69872115D01*
X206813652Y-69779030D01*
X206939030Y-69653652D01*
X207032115Y-69502738D01*
X207087887Y-69334426D01*
X207098500Y-69230545D01*
X207098499Y-68072000D01*
X213970496Y-68072000D01*
X213990457Y-68261927D01*
X214020526Y-68354470D01*
X214049473Y-68443556D01*
X214049476Y-68443561D01*
X214144958Y-68608941D01*
X214144965Y-68608951D01*
X214272744Y-68750864D01*
X214272747Y-68750866D01*
X214427248Y-68863118D01*
X214601712Y-68940794D01*
X214788513Y-68980500D01*
X214979487Y-68980500D01*
X215166288Y-68940794D01*
X215340752Y-68863118D01*
X215495253Y-68750866D01*
X215623040Y-68608944D01*
X215718527Y-68443556D01*
X215777542Y-68261928D01*
X215797504Y-68072000D01*
X215777542Y-67882072D01*
X215718527Y-67700444D01*
X215623040Y-67535056D01*
X215623038Y-67535054D01*
X215623034Y-67535048D01*
X215495255Y-67393135D01*
X215340752Y-67280882D01*
X215166288Y-67203206D01*
X214979487Y-67163500D01*
X214788513Y-67163500D01*
X214601711Y-67203206D01*
X214427247Y-67280882D01*
X214272744Y-67393135D01*
X214144965Y-67535048D01*
X214144958Y-67535058D01*
X214049476Y-67700438D01*
X214049473Y-67700445D01*
X213990457Y-67882072D01*
X213970496Y-68072000D01*
X207098499Y-68072000D01*
X207098499Y-67929456D01*
X207096306Y-67907993D01*
X207087887Y-67825574D01*
X207059553Y-67740067D01*
X207032115Y-67657262D01*
X206939030Y-67506348D01*
X206939029Y-67506347D01*
X206939024Y-67506341D01*
X206813658Y-67380975D01*
X206813652Y-67380970D01*
X206662738Y-67287885D01*
X206566109Y-67255866D01*
X206494427Y-67232113D01*
X206494420Y-67232112D01*
X206390553Y-67221500D01*
X205089455Y-67221500D01*
X204985574Y-67232112D01*
X204817261Y-67287885D01*
X204666347Y-67380970D01*
X204666341Y-67380975D01*
X204540975Y-67506341D01*
X204540970Y-67506347D01*
X204447883Y-67657266D01*
X204444783Y-67663914D01*
X204442878Y-67663025D01*
X204408389Y-67712822D01*
X204342828Y-67740067D01*
X204272945Y-67727541D01*
X204236515Y-67700142D01*
X204123237Y-67577091D01*
X204041382Y-67513381D01*
X203945576Y-67438811D01*
X203747574Y-67331658D01*
X203747572Y-67331657D01*
X203747571Y-67331656D01*
X203534639Y-67258557D01*
X203534630Y-67258555D01*
X203490476Y-67251187D01*
X203312569Y-67221500D01*
X203087431Y-67221500D01*
X202939211Y-67246233D01*
X202865369Y-67258555D01*
X202865360Y-67258557D01*
X202652428Y-67331656D01*
X202652426Y-67331658D01*
X202454426Y-67438810D01*
X202454424Y-67438811D01*
X202276762Y-67577091D01*
X202124279Y-67742729D01*
X202035483Y-67878643D01*
X201981479Y-67924731D01*
X201911131Y-67934306D01*
X201846774Y-67904329D01*
X201824517Y-67878643D01*
X201735720Y-67742729D01*
X201583237Y-67577091D01*
X201501382Y-67513381D01*
X201405576Y-67438811D01*
X201207574Y-67331658D01*
X201207572Y-67331657D01*
X201207571Y-67331656D01*
X200994639Y-67258557D01*
X200994630Y-67258555D01*
X200950476Y-67251187D01*
X200772569Y-67221500D01*
X200547431Y-67221500D01*
X200399211Y-67246233D01*
X200325369Y-67258555D01*
X200325360Y-67258557D01*
X200112428Y-67331656D01*
X200112426Y-67331658D01*
X199914426Y-67438810D01*
X199914424Y-67438811D01*
X199736762Y-67577091D01*
X199584279Y-67742729D01*
X199495483Y-67878643D01*
X199441479Y-67924731D01*
X199371131Y-67934306D01*
X199306774Y-67904329D01*
X199284517Y-67878643D01*
X199195720Y-67742729D01*
X199043237Y-67577091D01*
X198961382Y-67513381D01*
X198865576Y-67438811D01*
X198667574Y-67331658D01*
X198667572Y-67331657D01*
X198667571Y-67331656D01*
X198454639Y-67258557D01*
X198454630Y-67258555D01*
X198410476Y-67251187D01*
X198232569Y-67221500D01*
X198007431Y-67221500D01*
X197859211Y-67246233D01*
X197785369Y-67258555D01*
X197785360Y-67258557D01*
X197572428Y-67331656D01*
X197572426Y-67331658D01*
X197374426Y-67438810D01*
X197374424Y-67438811D01*
X197196762Y-67577091D01*
X197044279Y-67742729D01*
X196955483Y-67878643D01*
X196901479Y-67924731D01*
X196831131Y-67934306D01*
X196766774Y-67904329D01*
X196744517Y-67878643D01*
X196655720Y-67742729D01*
X196503237Y-67577091D01*
X196421382Y-67513381D01*
X196325576Y-67438811D01*
X196127574Y-67331658D01*
X196127572Y-67331657D01*
X196127571Y-67331656D01*
X195914639Y-67258557D01*
X195914630Y-67258555D01*
X195870476Y-67251187D01*
X195692569Y-67221500D01*
X195467431Y-67221500D01*
X195245365Y-67258556D01*
X195245364Y-67258556D01*
X195240224Y-67259414D01*
X195240044Y-67258339D01*
X195174471Y-67255866D01*
X195116233Y-67215259D01*
X195089195Y-67149613D01*
X195088500Y-67136394D01*
X195088500Y-66952225D01*
X195108502Y-66884104D01*
X195125405Y-66863130D01*
X195752630Y-66235905D01*
X195814942Y-66201879D01*
X195841725Y-66199000D01*
X216158275Y-66199000D01*
X216226396Y-66219002D01*
X216247370Y-66235905D01*
X229134095Y-79122630D01*
X229168121Y-79184942D01*
X229171000Y-79211725D01*
X229171000Y-97575500D01*
X229150998Y-97643621D01*
X229097342Y-97690114D01*
X229045000Y-97701500D01*
X228971350Y-97701500D01*
X228910803Y-97708009D01*
X228910795Y-97708011D01*
X228773797Y-97759110D01*
X228773792Y-97759112D01*
X228656738Y-97846738D01*
X228569112Y-97963792D01*
X228569110Y-97963797D01*
X228518011Y-98100795D01*
X228518009Y-98100803D01*
X228511500Y-98161350D01*
X228511500Y-99958649D01*
X228518009Y-100019196D01*
X228518011Y-100019204D01*
X228569110Y-100156202D01*
X228569112Y-100156207D01*
X228656738Y-100273261D01*
X228773792Y-100360887D01*
X228773796Y-100360889D01*
X228889312Y-100403975D01*
X228946148Y-100446522D01*
X228970958Y-100513042D01*
X228955866Y-100582416D01*
X228937981Y-100607367D01*
X228794674Y-100763041D01*
X228671580Y-100951451D01*
X228581179Y-101157543D01*
X228581176Y-101157550D01*
X228533455Y-101345999D01*
X228533456Y-101346000D01*
X229439297Y-101346000D01*
X229404075Y-101407007D01*
X229370000Y-101534174D01*
X229370000Y-101665826D01*
X229404075Y-101792993D01*
X229439297Y-101854000D01*
X228533455Y-101854000D01*
X228581176Y-102042449D01*
X228581179Y-102042456D01*
X228671580Y-102248548D01*
X228794674Y-102436958D01*
X228947097Y-102602534D01*
X229124698Y-102740767D01*
X229124699Y-102740768D01*
X229322628Y-102847882D01*
X229322630Y-102847883D01*
X229535483Y-102920955D01*
X229535492Y-102920957D01*
X229616000Y-102934391D01*
X229616000Y-102030702D01*
X229677007Y-102065925D01*
X229804174Y-102100000D01*
X229935826Y-102100000D01*
X230062993Y-102065925D01*
X230124000Y-102030702D01*
X230124000Y-102934390D01*
X230204507Y-102920957D01*
X230204516Y-102920955D01*
X230417369Y-102847883D01*
X230417371Y-102847882D01*
X230615300Y-102740768D01*
X230615301Y-102740767D01*
X230792902Y-102602534D01*
X230945325Y-102436958D01*
X231068419Y-102248548D01*
X231158820Y-102042456D01*
X231158823Y-102042449D01*
X231206544Y-101854000D01*
X230300703Y-101854000D01*
X230335925Y-101792993D01*
X230370000Y-101665826D01*
X230370000Y-101534174D01*
X230335925Y-101407007D01*
X230300703Y-101346000D01*
X231206544Y-101346000D01*
X231206544Y-101345999D01*
X231158823Y-101157550D01*
X231158820Y-101157543D01*
X231068419Y-100951451D01*
X230945325Y-100763041D01*
X230802018Y-100607367D01*
X230770598Y-100543702D01*
X230778585Y-100473156D01*
X230823444Y-100418127D01*
X230850679Y-100403977D01*
X230966204Y-100360889D01*
X231083261Y-100273261D01*
X231109184Y-100238632D01*
X231170887Y-100156207D01*
X231170887Y-100156206D01*
X231170889Y-100156204D01*
X231221989Y-100019201D01*
X231228500Y-99958638D01*
X231228500Y-98161362D01*
X231225544Y-98133862D01*
X231221990Y-98100803D01*
X231221988Y-98100795D01*
X231170889Y-97963797D01*
X231170887Y-97963792D01*
X231083261Y-97846738D01*
X230966207Y-97759112D01*
X230966202Y-97759110D01*
X230829204Y-97708011D01*
X230829196Y-97708009D01*
X230768649Y-97701500D01*
X230768638Y-97701500D01*
X230695000Y-97701500D01*
X230626879Y-97681498D01*
X230580386Y-97627842D01*
X230569000Y-97575500D01*
X230569000Y-78801156D01*
X230568999Y-78801152D01*
X230542138Y-78666109D01*
X230489446Y-78538899D01*
X230412949Y-78424414D01*
X230315586Y-78327051D01*
X223643130Y-71654595D01*
X220568528Y-68579993D01*
X225086685Y-68579993D01*
X225086685Y-68580006D01*
X225105929Y-68947232D01*
X225163458Y-69310457D01*
X225258640Y-69665680D01*
X225390422Y-70008984D01*
X225390426Y-70008992D01*
X225390427Y-70008994D01*
X225485885Y-70196341D01*
X225557380Y-70336658D01*
X225757662Y-70645067D01*
X225757674Y-70645084D01*
X225989085Y-70930853D01*
X225989099Y-70930868D01*
X226249131Y-71190900D01*
X226249146Y-71190914D01*
X226534915Y-71422325D01*
X226534932Y-71422337D01*
X226685473Y-71520099D01*
X226843342Y-71622620D01*
X227171006Y-71789573D01*
X227171010Y-71789574D01*
X227171015Y-71789577D01*
X227514319Y-71921359D01*
X227514324Y-71921360D01*
X227514326Y-71921361D01*
X227869541Y-72016541D01*
X228232759Y-72074069D01*
X228232761Y-72074069D01*
X228232767Y-72074070D01*
X228599994Y-72093315D01*
X228600000Y-72093315D01*
X228600006Y-72093315D01*
X228967232Y-72074070D01*
X228967236Y-72074069D01*
X228967241Y-72074069D01*
X229330459Y-72016541D01*
X229685674Y-71921361D01*
X229685677Y-71921359D01*
X229685680Y-71921359D01*
X230028984Y-71789577D01*
X230028985Y-71789576D01*
X230028994Y-71789573D01*
X230356658Y-71622620D01*
X230665075Y-71422332D01*
X230761344Y-71344375D01*
X230950853Y-71190914D01*
X230950858Y-71190908D01*
X230950867Y-71190902D01*
X231210902Y-70930867D01*
X231210908Y-70930858D01*
X231210914Y-70930853D01*
X231442325Y-70645084D01*
X231442326Y-70645081D01*
X231442332Y-70645075D01*
X231642620Y-70336658D01*
X231809573Y-70008994D01*
X231809577Y-70008984D01*
X231941359Y-69665680D01*
X231941361Y-69665674D01*
X232036541Y-69310459D01*
X232094069Y-68947241D01*
X232094069Y-68947236D01*
X232094070Y-68947232D01*
X232113315Y-68580006D01*
X232113315Y-68579993D01*
X232094070Y-68212767D01*
X232045218Y-67904329D01*
X232036541Y-67849541D01*
X231941361Y-67494326D01*
X231941360Y-67494324D01*
X231941359Y-67494319D01*
X231809577Y-67151015D01*
X231809573Y-67151007D01*
X231809573Y-67151006D01*
X231642620Y-66823343D01*
X231442332Y-66514925D01*
X231442329Y-66514921D01*
X231442327Y-66514918D01*
X231210914Y-66229146D01*
X231210900Y-66229131D01*
X230950868Y-65969099D01*
X230950853Y-65969085D01*
X230665084Y-65737674D01*
X230665067Y-65737662D01*
X230356658Y-65537380D01*
X230028992Y-65370426D01*
X230028984Y-65370422D01*
X229685680Y-65238640D01*
X229330457Y-65143458D01*
X228967232Y-65085929D01*
X228600006Y-65066685D01*
X228599994Y-65066685D01*
X228232767Y-65085929D01*
X227869542Y-65143458D01*
X227514319Y-65238640D01*
X227171015Y-65370422D01*
X227171007Y-65370426D01*
X226843342Y-65537380D01*
X226534921Y-65737670D01*
X226534918Y-65737672D01*
X226249146Y-65969085D01*
X226249131Y-65969099D01*
X225989099Y-66229131D01*
X225989085Y-66229146D01*
X225757672Y-66514918D01*
X225757670Y-66514921D01*
X225557380Y-66823342D01*
X225390426Y-67151007D01*
X225390422Y-67151015D01*
X225258640Y-67494319D01*
X225163458Y-67849542D01*
X225105929Y-68212767D01*
X225086685Y-68579993D01*
X220568528Y-68579993D01*
X216945592Y-64957056D01*
X216945586Y-64957051D01*
X216907598Y-64931668D01*
X216831101Y-64880554D01*
X216703891Y-64827862D01*
X216568848Y-64801000D01*
X216568846Y-64801000D01*
X216568845Y-64801000D01*
X195568846Y-64801000D01*
X195431154Y-64801000D01*
X195431151Y-64801000D01*
X195296108Y-64827862D01*
X195296103Y-64827864D01*
X195168899Y-64880554D01*
X195054413Y-64957051D01*
X195054407Y-64957056D01*
X194182630Y-65828835D01*
X193943914Y-66067551D01*
X193895232Y-66116233D01*
X193846550Y-66164914D01*
X193770054Y-66279399D01*
X193717364Y-66406603D01*
X193717362Y-66406608D01*
X193690500Y-66541652D01*
X193690500Y-67190518D01*
X193670498Y-67258639D01*
X193616842Y-67305132D01*
X193546568Y-67315236D01*
X193523588Y-67309691D01*
X193374639Y-67258557D01*
X193374630Y-67258555D01*
X193330476Y-67251187D01*
X193152569Y-67221500D01*
X192927431Y-67221500D01*
X192779211Y-67246233D01*
X192705369Y-67258555D01*
X192705360Y-67258557D01*
X192492428Y-67331656D01*
X192492426Y-67331658D01*
X192294426Y-67438810D01*
X192294424Y-67438811D01*
X192116762Y-67577091D01*
X191964279Y-67742729D01*
X191875483Y-67878643D01*
X191821479Y-67924731D01*
X191751131Y-67934306D01*
X191686774Y-67904329D01*
X191664517Y-67878643D01*
X191575720Y-67742729D01*
X191423237Y-67577091D01*
X191341382Y-67513381D01*
X191245576Y-67438811D01*
X191047574Y-67331658D01*
X191047572Y-67331657D01*
X191047571Y-67331656D01*
X190834639Y-67258557D01*
X190834630Y-67258555D01*
X190790476Y-67251187D01*
X190612569Y-67221500D01*
X190387431Y-67221500D01*
X190239211Y-67246233D01*
X190165369Y-67258555D01*
X190165360Y-67258557D01*
X189952428Y-67331656D01*
X189952426Y-67331658D01*
X189754426Y-67438810D01*
X189754424Y-67438811D01*
X189576762Y-67577091D01*
X189424279Y-67742729D01*
X189424275Y-67742734D01*
X189301141Y-67931206D01*
X189210703Y-68137386D01*
X189210702Y-68137387D01*
X189155437Y-68355624D01*
X189155436Y-68355630D01*
X189155436Y-68355632D01*
X189136844Y-68580000D01*
X172403499Y-68580000D01*
X172403499Y-67929456D01*
X172401306Y-67907993D01*
X172392887Y-67825574D01*
X172364553Y-67740067D01*
X172337115Y-67657262D01*
X172244030Y-67506348D01*
X172244029Y-67506347D01*
X172244024Y-67506341D01*
X172118658Y-67380975D01*
X172118652Y-67380970D01*
X171967738Y-67287885D01*
X171871109Y-67255866D01*
X171799427Y-67232113D01*
X171799420Y-67232112D01*
X171695553Y-67221500D01*
X170394455Y-67221500D01*
X170290574Y-67232112D01*
X170122261Y-67287885D01*
X169971347Y-67380970D01*
X169971341Y-67380975D01*
X169845975Y-67506341D01*
X169845970Y-67506347D01*
X169752883Y-67657266D01*
X169749783Y-67663914D01*
X169747878Y-67663025D01*
X169713389Y-67712822D01*
X169647828Y-67740067D01*
X169577945Y-67727541D01*
X169541515Y-67700142D01*
X169428237Y-67577091D01*
X169346382Y-67513381D01*
X169250576Y-67438811D01*
X169052574Y-67331658D01*
X169052572Y-67331657D01*
X169052571Y-67331656D01*
X168839639Y-67258557D01*
X168839630Y-67258555D01*
X168795476Y-67251187D01*
X168617569Y-67221500D01*
X168392431Y-67221500D01*
X168244211Y-67246233D01*
X168170369Y-67258555D01*
X168170360Y-67258557D01*
X167957428Y-67331656D01*
X167957426Y-67331658D01*
X167759426Y-67438810D01*
X167759424Y-67438811D01*
X167581762Y-67577091D01*
X167429279Y-67742729D01*
X167340483Y-67878643D01*
X167286479Y-67924731D01*
X167216131Y-67934306D01*
X167151774Y-67904329D01*
X167129517Y-67878643D01*
X167040720Y-67742729D01*
X166888237Y-67577091D01*
X166806382Y-67513381D01*
X166710576Y-67438811D01*
X166512574Y-67331658D01*
X166512572Y-67331657D01*
X166512571Y-67331656D01*
X166299639Y-67258557D01*
X166299630Y-67258555D01*
X166255476Y-67251187D01*
X166077569Y-67221500D01*
X165852431Y-67221500D01*
X165704211Y-67246233D01*
X165630369Y-67258555D01*
X165630360Y-67258557D01*
X165417428Y-67331656D01*
X165417426Y-67331658D01*
X165219426Y-67438810D01*
X165219424Y-67438811D01*
X165041762Y-67577091D01*
X164889279Y-67742729D01*
X164889275Y-67742734D01*
X164766141Y-67931206D01*
X164675703Y-68137386D01*
X164675702Y-68137387D01*
X164620437Y-68355624D01*
X164620436Y-68355630D01*
X164620436Y-68355632D01*
X164601844Y-68580000D01*
X63203315Y-68580000D01*
X63203315Y-68579993D01*
X63184070Y-68212767D01*
X63135218Y-67904329D01*
X63126541Y-67849541D01*
X63031361Y-67494326D01*
X63031360Y-67494324D01*
X63031359Y-67494319D01*
X62899577Y-67151015D01*
X62899573Y-67151007D01*
X62899573Y-67151006D01*
X62732620Y-66823343D01*
X62532332Y-66514925D01*
X62532329Y-66514921D01*
X62532327Y-66514918D01*
X62300914Y-66229146D01*
X62300900Y-66229131D01*
X62040868Y-65969099D01*
X62040853Y-65969085D01*
X61755084Y-65737674D01*
X61755067Y-65737662D01*
X61446658Y-65537380D01*
X61118992Y-65370426D01*
X61118984Y-65370422D01*
X60775680Y-65238640D01*
X60420457Y-65143458D01*
X60057232Y-65085929D01*
X59690006Y-65066685D01*
X59689994Y-65066685D01*
X59322767Y-65085929D01*
X58959542Y-65143458D01*
X58604319Y-65238640D01*
X58261015Y-65370422D01*
X58261007Y-65370426D01*
X57933342Y-65537380D01*
X57624921Y-65737670D01*
X57624918Y-65737672D01*
X57339146Y-65969085D01*
X57339131Y-65969099D01*
X57079099Y-66229131D01*
X57079085Y-66229146D01*
X56847672Y-66514918D01*
X56847670Y-66514921D01*
X56647380Y-66823342D01*
X56480426Y-67151007D01*
X56480422Y-67151015D01*
X56348640Y-67494319D01*
X56253458Y-67849542D01*
X56195929Y-68212767D01*
X56176685Y-68579993D01*
X52095500Y-68579993D01*
X52095500Y-66042595D01*
X52095608Y-66037388D01*
X52095937Y-66029438D01*
X52112549Y-65627792D01*
X52113406Y-65617447D01*
X52163793Y-65213221D01*
X52165506Y-65202957D01*
X52249099Y-64804279D01*
X52251644Y-64794228D01*
X52367883Y-64403789D01*
X52371261Y-64393954D01*
X52519333Y-64014478D01*
X52523516Y-64004941D01*
X52625776Y-63795765D01*
X52702414Y-63638998D01*
X52707364Y-63629853D01*
X52915875Y-63279926D01*
X52921558Y-63271225D01*
X53158265Y-62939696D01*
X53164647Y-62931496D01*
X53427935Y-62620632D01*
X53434965Y-62612997D01*
X53722997Y-62324965D01*
X53730632Y-62317935D01*
X54041496Y-62054647D01*
X54049696Y-62048265D01*
X54381225Y-61811558D01*
X54389917Y-61805880D01*
X54739855Y-61597362D01*
X54748998Y-61592414D01*
X55114947Y-61413513D01*
X55124478Y-61409333D01*
X55503954Y-61261261D01*
X55513789Y-61257883D01*
X55904228Y-61141644D01*
X55914279Y-61139099D01*
X56312965Y-61055504D01*
X56323221Y-61053793D01*
X56727447Y-61003406D01*
X56737792Y-61002549D01*
X57147389Y-60985608D01*
X57152596Y-60985500D01*
X57158285Y-60985500D01*
X231131715Y-60985500D01*
X231137404Y-60985500D01*
X231142611Y-60985608D01*
G37*
G04 #@! TD.AperFunction*
G04 #@! TD*
M02*
