G04 #@! TF.GenerationSoftware,KiCad,Pcbnew,8.0.8*
G04 #@! TF.CreationDate,2025-01-19T09:56:13-08:00*
G04 #@! TF.ProjectId,Control,436f6e74-726f-46c2-9e6b-696361645f70,2.1*
G04 #@! TF.SameCoordinates,Original*
G04 #@! TF.FileFunction,Legend,Top*
G04 #@! TF.FilePolarity,Positive*
%FSLAX46Y46*%
G04 Gerber Fmt 4.6, Leading zero omitted, Abs format (unit mm)*
G04 Created by KiCad (PCBNEW 8.0.8) date 2025-01-19 09:56:13*
%MOMM*%
%LPD*%
G01*
G04 APERTURE LIST*
G04 Aperture macros list*
%AMRoundRect*
0 Rectangle with rounded corners*
0 $1 Rounding radius*
0 $2 $3 $4 $5 $6 $7 $8 $9 X,Y pos of 4 corners*
0 Add a 4 corners polygon primitive as box body*
4,1,4,$2,$3,$4,$5,$6,$7,$8,$9,$2,$3,0*
0 Add four circle primitives for the rounded corners*
1,1,$1+$1,$2,$3*
1,1,$1+$1,$4,$5*
1,1,$1+$1,$6,$7*
1,1,$1+$1,$8,$9*
0 Add four rect primitives between the rounded corners*
20,1,$1+$1,$2,$3,$4,$5,0*
20,1,$1+$1,$4,$5,$6,$7,0*
20,1,$1+$1,$6,$7,$8,$9,0*
20,1,$1+$1,$8,$9,$2,$3,0*%
G04 Aperture macros list end*
%ADD10C,0.254000*%
%ADD11C,0.120000*%
%ADD12C,0.127000*%
%ADD13C,0.203200*%
%ADD14C,0.150000*%
%ADD15C,0.100000*%
%ADD16RoundRect,0.067500X-0.067500X0.670000X-0.067500X-0.670000X0.067500X-0.670000X0.067500X0.670000X0*%
%ADD17RoundRect,0.067500X-0.670000X0.067500X-0.670000X-0.067500X0.670000X-0.067500X0.670000X0.067500X0*%
%ADD18RoundRect,0.250000X-0.600000X0.600000X-0.600000X-0.600000X0.600000X-0.600000X0.600000X0.600000X0*%
%ADD19C,1.700000*%
%ADD20R,1.700000X1.700000*%
%ADD21O,1.700000X1.700000*%
%ADD22RoundRect,0.250000X-0.650000X0.325000X-0.650000X-0.325000X0.650000X-0.325000X0.650000X0.325000X0*%
%ADD23RoundRect,0.375000X-0.625000X0.375000X-0.625000X-0.375000X0.625000X-0.375000X0.625000X0.375000X0*%
%ADD24C,4.000000*%
%ADD25RoundRect,0.250000X-0.262500X-0.450000X0.262500X-0.450000X0.262500X0.450000X-0.262500X0.450000X0*%
%ADD26R,0.400000X1.200000*%
%ADD27RoundRect,0.150000X0.512500X0.150000X-0.512500X0.150000X-0.512500X-0.150000X0.512500X-0.150000X0*%
%ADD28RoundRect,0.250000X0.250000X0.475000X-0.250000X0.475000X-0.250000X-0.475000X0.250000X-0.475000X0*%
%ADD29C,0.800000*%
%ADD30C,6.000000*%
%ADD31RoundRect,0.250000X-0.250000X-0.475000X0.250000X-0.475000X0.250000X0.475000X-0.250000X0.475000X0*%
%ADD32RoundRect,0.250000X-0.325000X-0.650000X0.325000X-0.650000X0.325000X0.650000X-0.325000X0.650000X0*%
%ADD33RoundRect,0.250000X0.262500X0.450000X-0.262500X0.450000X-0.262500X-0.450000X0.262500X-0.450000X0*%
%ADD34RoundRect,0.250000X0.475000X-0.250000X0.475000X0.250000X-0.475000X0.250000X-0.475000X-0.250000X0*%
%ADD35RoundRect,0.250000X-0.475000X0.250000X-0.475000X-0.250000X0.475000X-0.250000X0.475000X0.250000X0*%
%ADD36O,4.000000X7.000000*%
%ADD37C,3.000000*%
%ADD38C,2.000000*%
%ADD39R,2.000000X2.000000*%
G04 APERTURE END LIST*
D10*
X223520000Y-106680000D02*
X223520000Y-93980000D01*
D11*
X91500000Y-90500000D02*
X103500000Y-90500000D01*
X103500000Y-111000000D01*
X91500000Y-111000000D01*
X91500000Y-90500000D01*
X99750000Y-96500000D02*
X98750000Y-97000000D01*
X98750000Y-96000000D01*
X99750000Y-96500000D01*
G36*
X99750000Y-96500000D02*
G01*
X98750000Y-97000000D01*
X98750000Y-96000000D01*
X99750000Y-96500000D01*
G37*
D10*
X223520000Y-93980000D02*
X233045000Y-93980000D01*
X233045000Y-106680000D02*
X223520000Y-106680000D01*
X233045000Y-93980000D02*
X233045000Y-106680000D01*
D12*
X95207114Y-109181226D02*
X94868447Y-109181226D01*
X94868447Y-109713416D02*
X94868447Y-108697416D01*
X94868447Y-108697416D02*
X95352257Y-108697416D01*
X95739304Y-109713416D02*
X95739304Y-108697416D01*
X96803686Y-109713416D02*
X96465019Y-109229607D01*
X96223114Y-109713416D02*
X96223114Y-108697416D01*
X96223114Y-108697416D02*
X96610162Y-108697416D01*
X96610162Y-108697416D02*
X96706924Y-108745797D01*
X96706924Y-108745797D02*
X96755305Y-108794178D01*
X96755305Y-108794178D02*
X96803686Y-108890940D01*
X96803686Y-108890940D02*
X96803686Y-109036083D01*
X96803686Y-109036083D02*
X96755305Y-109132845D01*
X96755305Y-109132845D02*
X96706924Y-109181226D01*
X96706924Y-109181226D02*
X96610162Y-109229607D01*
X96610162Y-109229607D02*
X96223114Y-109229607D01*
X97239114Y-109181226D02*
X97577781Y-109181226D01*
X97722924Y-109713416D02*
X97239114Y-109713416D01*
X97239114Y-109713416D02*
X97239114Y-108697416D01*
X97239114Y-108697416D02*
X97722924Y-108697416D01*
X93485019Y-99035226D02*
X93146352Y-99035226D01*
X93146352Y-99567416D02*
X93146352Y-98551416D01*
X93146352Y-98551416D02*
X93630162Y-98551416D01*
X94017209Y-99567416D02*
X94017209Y-98551416D01*
X95081591Y-99567416D02*
X94742924Y-99083607D01*
X94501019Y-99567416D02*
X94501019Y-98551416D01*
X94501019Y-98551416D02*
X94888067Y-98551416D01*
X94888067Y-98551416D02*
X94984829Y-98599797D01*
X94984829Y-98599797D02*
X95033210Y-98648178D01*
X95033210Y-98648178D02*
X95081591Y-98744940D01*
X95081591Y-98744940D02*
X95081591Y-98890083D01*
X95081591Y-98890083D02*
X95033210Y-98986845D01*
X95033210Y-98986845D02*
X94984829Y-99035226D01*
X94984829Y-99035226D02*
X94888067Y-99083607D01*
X94888067Y-99083607D02*
X94501019Y-99083607D01*
X95517019Y-99035226D02*
X95855686Y-99035226D01*
X96000829Y-99567416D02*
X95517019Y-99567416D01*
X95517019Y-99567416D02*
X95517019Y-98551416D01*
X95517019Y-98551416D02*
X96000829Y-98551416D01*
X97742543Y-98599797D02*
X97645781Y-98551416D01*
X97645781Y-98551416D02*
X97500638Y-98551416D01*
X97500638Y-98551416D02*
X97355495Y-98599797D01*
X97355495Y-98599797D02*
X97258733Y-98696559D01*
X97258733Y-98696559D02*
X97210352Y-98793321D01*
X97210352Y-98793321D02*
X97161971Y-98986845D01*
X97161971Y-98986845D02*
X97161971Y-99131988D01*
X97161971Y-99131988D02*
X97210352Y-99325512D01*
X97210352Y-99325512D02*
X97258733Y-99422274D01*
X97258733Y-99422274D02*
X97355495Y-99519036D01*
X97355495Y-99519036D02*
X97500638Y-99567416D01*
X97500638Y-99567416D02*
X97597400Y-99567416D01*
X97597400Y-99567416D02*
X97742543Y-99519036D01*
X97742543Y-99519036D02*
X97790924Y-99470655D01*
X97790924Y-99470655D02*
X97790924Y-99131988D01*
X97790924Y-99131988D02*
X97597400Y-99131988D01*
D10*
X109455857Y-70628268D02*
X108730143Y-70628268D01*
X108730143Y-70628268D02*
X108730143Y-69104268D01*
X110617000Y-70628268D02*
X110617000Y-69829982D01*
X110617000Y-69829982D02*
X110544428Y-69684839D01*
X110544428Y-69684839D02*
X110399285Y-69612268D01*
X110399285Y-69612268D02*
X110109000Y-69612268D01*
X110109000Y-69612268D02*
X109963857Y-69684839D01*
X110617000Y-70555697D02*
X110471857Y-70628268D01*
X110471857Y-70628268D02*
X110109000Y-70628268D01*
X110109000Y-70628268D02*
X109963857Y-70555697D01*
X109963857Y-70555697D02*
X109891285Y-70410554D01*
X109891285Y-70410554D02*
X109891285Y-70265411D01*
X109891285Y-70265411D02*
X109963857Y-70120268D01*
X109963857Y-70120268D02*
X110109000Y-70047697D01*
X110109000Y-70047697D02*
X110471857Y-70047697D01*
X110471857Y-70047697D02*
X110617000Y-69975125D01*
X111270142Y-70555697D02*
X111415285Y-70628268D01*
X111415285Y-70628268D02*
X111705571Y-70628268D01*
X111705571Y-70628268D02*
X111850714Y-70555697D01*
X111850714Y-70555697D02*
X111923285Y-70410554D01*
X111923285Y-70410554D02*
X111923285Y-70337982D01*
X111923285Y-70337982D02*
X111850714Y-70192839D01*
X111850714Y-70192839D02*
X111705571Y-70120268D01*
X111705571Y-70120268D02*
X111487857Y-70120268D01*
X111487857Y-70120268D02*
X111342714Y-70047697D01*
X111342714Y-70047697D02*
X111270142Y-69902554D01*
X111270142Y-69902554D02*
X111270142Y-69829982D01*
X111270142Y-69829982D02*
X111342714Y-69684839D01*
X111342714Y-69684839D02*
X111487857Y-69612268D01*
X111487857Y-69612268D02*
X111705571Y-69612268D01*
X111705571Y-69612268D02*
X111850714Y-69684839D01*
X113156999Y-70555697D02*
X113011856Y-70628268D01*
X113011856Y-70628268D02*
X112721571Y-70628268D01*
X112721571Y-70628268D02*
X112576428Y-70555697D01*
X112576428Y-70555697D02*
X112503856Y-70410554D01*
X112503856Y-70410554D02*
X112503856Y-69829982D01*
X112503856Y-69829982D02*
X112576428Y-69684839D01*
X112576428Y-69684839D02*
X112721571Y-69612268D01*
X112721571Y-69612268D02*
X113011856Y-69612268D01*
X113011856Y-69612268D02*
X113156999Y-69684839D01*
X113156999Y-69684839D02*
X113229571Y-69829982D01*
X113229571Y-69829982D02*
X113229571Y-69975125D01*
X113229571Y-69975125D02*
X112503856Y-70120268D01*
X113882714Y-70628268D02*
X113882714Y-69612268D01*
X113882714Y-69902554D02*
X113955285Y-69757411D01*
X113955285Y-69757411D02*
X114027857Y-69684839D01*
X114027857Y-69684839D02*
X114172999Y-69612268D01*
X114172999Y-69612268D02*
X114318142Y-69612268D01*
X116858143Y-70483125D02*
X116785571Y-70555697D01*
X116785571Y-70555697D02*
X116567857Y-70628268D01*
X116567857Y-70628268D02*
X116422714Y-70628268D01*
X116422714Y-70628268D02*
X116205000Y-70555697D01*
X116205000Y-70555697D02*
X116059857Y-70410554D01*
X116059857Y-70410554D02*
X115987286Y-70265411D01*
X115987286Y-70265411D02*
X115914714Y-69975125D01*
X115914714Y-69975125D02*
X115914714Y-69757411D01*
X115914714Y-69757411D02*
X115987286Y-69467125D01*
X115987286Y-69467125D02*
X116059857Y-69321982D01*
X116059857Y-69321982D02*
X116205000Y-69176839D01*
X116205000Y-69176839D02*
X116422714Y-69104268D01*
X116422714Y-69104268D02*
X116567857Y-69104268D01*
X116567857Y-69104268D02*
X116785571Y-69176839D01*
X116785571Y-69176839D02*
X116858143Y-69249411D01*
X117729000Y-70628268D02*
X117583857Y-70555697D01*
X117583857Y-70555697D02*
X117511286Y-70483125D01*
X117511286Y-70483125D02*
X117438714Y-70337982D01*
X117438714Y-70337982D02*
X117438714Y-69902554D01*
X117438714Y-69902554D02*
X117511286Y-69757411D01*
X117511286Y-69757411D02*
X117583857Y-69684839D01*
X117583857Y-69684839D02*
X117729000Y-69612268D01*
X117729000Y-69612268D02*
X117946714Y-69612268D01*
X117946714Y-69612268D02*
X118091857Y-69684839D01*
X118091857Y-69684839D02*
X118164429Y-69757411D01*
X118164429Y-69757411D02*
X118237000Y-69902554D01*
X118237000Y-69902554D02*
X118237000Y-70337982D01*
X118237000Y-70337982D02*
X118164429Y-70483125D01*
X118164429Y-70483125D02*
X118091857Y-70555697D01*
X118091857Y-70555697D02*
X117946714Y-70628268D01*
X117946714Y-70628268D02*
X117729000Y-70628268D01*
X118890143Y-69612268D02*
X118890143Y-70628268D01*
X118890143Y-69757411D02*
X118962714Y-69684839D01*
X118962714Y-69684839D02*
X119107857Y-69612268D01*
X119107857Y-69612268D02*
X119325571Y-69612268D01*
X119325571Y-69612268D02*
X119470714Y-69684839D01*
X119470714Y-69684839D02*
X119543286Y-69829982D01*
X119543286Y-69829982D02*
X119543286Y-70628268D01*
X120051285Y-69612268D02*
X120631857Y-69612268D01*
X120269000Y-69104268D02*
X120269000Y-70410554D01*
X120269000Y-70410554D02*
X120341571Y-70555697D01*
X120341571Y-70555697D02*
X120486714Y-70628268D01*
X120486714Y-70628268D02*
X120631857Y-70628268D01*
X121139857Y-70628268D02*
X121139857Y-69612268D01*
X121139857Y-69902554D02*
X121212428Y-69757411D01*
X121212428Y-69757411D02*
X121285000Y-69684839D01*
X121285000Y-69684839D02*
X121430142Y-69612268D01*
X121430142Y-69612268D02*
X121575285Y-69612268D01*
X122301000Y-70628268D02*
X122155857Y-70555697D01*
X122155857Y-70555697D02*
X122083286Y-70483125D01*
X122083286Y-70483125D02*
X122010714Y-70337982D01*
X122010714Y-70337982D02*
X122010714Y-69902554D01*
X122010714Y-69902554D02*
X122083286Y-69757411D01*
X122083286Y-69757411D02*
X122155857Y-69684839D01*
X122155857Y-69684839D02*
X122301000Y-69612268D01*
X122301000Y-69612268D02*
X122518714Y-69612268D01*
X122518714Y-69612268D02*
X122663857Y-69684839D01*
X122663857Y-69684839D02*
X122736429Y-69757411D01*
X122736429Y-69757411D02*
X122809000Y-69902554D01*
X122809000Y-69902554D02*
X122809000Y-70337982D01*
X122809000Y-70337982D02*
X122736429Y-70483125D01*
X122736429Y-70483125D02*
X122663857Y-70555697D01*
X122663857Y-70555697D02*
X122518714Y-70628268D01*
X122518714Y-70628268D02*
X122301000Y-70628268D01*
X123679857Y-70628268D02*
X123534714Y-70555697D01*
X123534714Y-70555697D02*
X123462143Y-70410554D01*
X123462143Y-70410554D02*
X123462143Y-69104268D01*
X125929572Y-69829982D02*
X126147286Y-69902554D01*
X126147286Y-69902554D02*
X126219857Y-69975125D01*
X126219857Y-69975125D02*
X126292429Y-70120268D01*
X126292429Y-70120268D02*
X126292429Y-70337982D01*
X126292429Y-70337982D02*
X126219857Y-70483125D01*
X126219857Y-70483125D02*
X126147286Y-70555697D01*
X126147286Y-70555697D02*
X126002143Y-70628268D01*
X126002143Y-70628268D02*
X125421572Y-70628268D01*
X125421572Y-70628268D02*
X125421572Y-69104268D01*
X125421572Y-69104268D02*
X125929572Y-69104268D01*
X125929572Y-69104268D02*
X126074715Y-69176839D01*
X126074715Y-69176839D02*
X126147286Y-69249411D01*
X126147286Y-69249411D02*
X126219857Y-69394554D01*
X126219857Y-69394554D02*
X126219857Y-69539697D01*
X126219857Y-69539697D02*
X126147286Y-69684839D01*
X126147286Y-69684839D02*
X126074715Y-69757411D01*
X126074715Y-69757411D02*
X125929572Y-69829982D01*
X125929572Y-69829982D02*
X125421572Y-69829982D01*
X127163286Y-70628268D02*
X127018143Y-70555697D01*
X127018143Y-70555697D02*
X126945572Y-70483125D01*
X126945572Y-70483125D02*
X126873000Y-70337982D01*
X126873000Y-70337982D02*
X126873000Y-69902554D01*
X126873000Y-69902554D02*
X126945572Y-69757411D01*
X126945572Y-69757411D02*
X127018143Y-69684839D01*
X127018143Y-69684839D02*
X127163286Y-69612268D01*
X127163286Y-69612268D02*
X127381000Y-69612268D01*
X127381000Y-69612268D02*
X127526143Y-69684839D01*
X127526143Y-69684839D02*
X127598715Y-69757411D01*
X127598715Y-69757411D02*
X127671286Y-69902554D01*
X127671286Y-69902554D02*
X127671286Y-70337982D01*
X127671286Y-70337982D02*
X127598715Y-70483125D01*
X127598715Y-70483125D02*
X127526143Y-70555697D01*
X127526143Y-70555697D02*
X127381000Y-70628268D01*
X127381000Y-70628268D02*
X127163286Y-70628268D01*
X128977572Y-70628268D02*
X128977572Y-69829982D01*
X128977572Y-69829982D02*
X128905000Y-69684839D01*
X128905000Y-69684839D02*
X128759857Y-69612268D01*
X128759857Y-69612268D02*
X128469572Y-69612268D01*
X128469572Y-69612268D02*
X128324429Y-69684839D01*
X128977572Y-70555697D02*
X128832429Y-70628268D01*
X128832429Y-70628268D02*
X128469572Y-70628268D01*
X128469572Y-70628268D02*
X128324429Y-70555697D01*
X128324429Y-70555697D02*
X128251857Y-70410554D01*
X128251857Y-70410554D02*
X128251857Y-70265411D01*
X128251857Y-70265411D02*
X128324429Y-70120268D01*
X128324429Y-70120268D02*
X128469572Y-70047697D01*
X128469572Y-70047697D02*
X128832429Y-70047697D01*
X128832429Y-70047697D02*
X128977572Y-69975125D01*
X129703286Y-70628268D02*
X129703286Y-69612268D01*
X129703286Y-69902554D02*
X129775857Y-69757411D01*
X129775857Y-69757411D02*
X129848429Y-69684839D01*
X129848429Y-69684839D02*
X129993571Y-69612268D01*
X129993571Y-69612268D02*
X130138714Y-69612268D01*
X131299858Y-70628268D02*
X131299858Y-69104268D01*
X131299858Y-70555697D02*
X131154715Y-70628268D01*
X131154715Y-70628268D02*
X130864429Y-70628268D01*
X130864429Y-70628268D02*
X130719286Y-70555697D01*
X130719286Y-70555697D02*
X130646715Y-70483125D01*
X130646715Y-70483125D02*
X130574143Y-70337982D01*
X130574143Y-70337982D02*
X130574143Y-69902554D01*
X130574143Y-69902554D02*
X130646715Y-69757411D01*
X130646715Y-69757411D02*
X130719286Y-69684839D01*
X130719286Y-69684839D02*
X130864429Y-69612268D01*
X130864429Y-69612268D02*
X131154715Y-69612268D01*
X131154715Y-69612268D02*
X131299858Y-69684839D01*
X113628713Y-71557823D02*
X114136713Y-73081823D01*
X114136713Y-73081823D02*
X114644713Y-71557823D01*
X115733285Y-73009252D02*
X115588142Y-73081823D01*
X115588142Y-73081823D02*
X115297857Y-73081823D01*
X115297857Y-73081823D02*
X115152714Y-73009252D01*
X115152714Y-73009252D02*
X115080142Y-72864109D01*
X115080142Y-72864109D02*
X115080142Y-72283537D01*
X115080142Y-72283537D02*
X115152714Y-72138394D01*
X115152714Y-72138394D02*
X115297857Y-72065823D01*
X115297857Y-72065823D02*
X115588142Y-72065823D01*
X115588142Y-72065823D02*
X115733285Y-72138394D01*
X115733285Y-72138394D02*
X115805857Y-72283537D01*
X115805857Y-72283537D02*
X115805857Y-72428680D01*
X115805857Y-72428680D02*
X115080142Y-72573823D01*
X116459000Y-73081823D02*
X116459000Y-72065823D01*
X116459000Y-72356109D02*
X116531571Y-72210966D01*
X116531571Y-72210966D02*
X116604143Y-72138394D01*
X116604143Y-72138394D02*
X116749285Y-72065823D01*
X116749285Y-72065823D02*
X116894428Y-72065823D01*
X117329857Y-73009252D02*
X117475000Y-73081823D01*
X117475000Y-73081823D02*
X117765286Y-73081823D01*
X117765286Y-73081823D02*
X117910429Y-73009252D01*
X117910429Y-73009252D02*
X117983000Y-72864109D01*
X117983000Y-72864109D02*
X117983000Y-72791537D01*
X117983000Y-72791537D02*
X117910429Y-72646394D01*
X117910429Y-72646394D02*
X117765286Y-72573823D01*
X117765286Y-72573823D02*
X117547572Y-72573823D01*
X117547572Y-72573823D02*
X117402429Y-72501252D01*
X117402429Y-72501252D02*
X117329857Y-72356109D01*
X117329857Y-72356109D02*
X117329857Y-72283537D01*
X117329857Y-72283537D02*
X117402429Y-72138394D01*
X117402429Y-72138394D02*
X117547572Y-72065823D01*
X117547572Y-72065823D02*
X117765286Y-72065823D01*
X117765286Y-72065823D02*
X117910429Y-72138394D01*
X118636143Y-73081823D02*
X118636143Y-72065823D01*
X118636143Y-71557823D02*
X118563571Y-71630394D01*
X118563571Y-71630394D02*
X118636143Y-71702966D01*
X118636143Y-71702966D02*
X118708714Y-71630394D01*
X118708714Y-71630394D02*
X118636143Y-71557823D01*
X118636143Y-71557823D02*
X118636143Y-71702966D01*
X119579571Y-73081823D02*
X119434428Y-73009252D01*
X119434428Y-73009252D02*
X119361857Y-72936680D01*
X119361857Y-72936680D02*
X119289285Y-72791537D01*
X119289285Y-72791537D02*
X119289285Y-72356109D01*
X119289285Y-72356109D02*
X119361857Y-72210966D01*
X119361857Y-72210966D02*
X119434428Y-72138394D01*
X119434428Y-72138394D02*
X119579571Y-72065823D01*
X119579571Y-72065823D02*
X119797285Y-72065823D01*
X119797285Y-72065823D02*
X119942428Y-72138394D01*
X119942428Y-72138394D02*
X120015000Y-72210966D01*
X120015000Y-72210966D02*
X120087571Y-72356109D01*
X120087571Y-72356109D02*
X120087571Y-72791537D01*
X120087571Y-72791537D02*
X120015000Y-72936680D01*
X120015000Y-72936680D02*
X119942428Y-73009252D01*
X119942428Y-73009252D02*
X119797285Y-73081823D01*
X119797285Y-73081823D02*
X119579571Y-73081823D01*
X120740714Y-72065823D02*
X120740714Y-73081823D01*
X120740714Y-72210966D02*
X120813285Y-72138394D01*
X120813285Y-72138394D02*
X120958428Y-72065823D01*
X120958428Y-72065823D02*
X121176142Y-72065823D01*
X121176142Y-72065823D02*
X121321285Y-72138394D01*
X121321285Y-72138394D02*
X121393857Y-72283537D01*
X121393857Y-72283537D02*
X121393857Y-73081823D01*
X123208142Y-71702966D02*
X123280714Y-71630394D01*
X123280714Y-71630394D02*
X123425857Y-71557823D01*
X123425857Y-71557823D02*
X123788714Y-71557823D01*
X123788714Y-71557823D02*
X123933857Y-71630394D01*
X123933857Y-71630394D02*
X124006428Y-71702966D01*
X124006428Y-71702966D02*
X124078999Y-71848109D01*
X124078999Y-71848109D02*
X124078999Y-71993252D01*
X124078999Y-71993252D02*
X124006428Y-72210966D01*
X124006428Y-72210966D02*
X123135571Y-73081823D01*
X123135571Y-73081823D02*
X124078999Y-73081823D01*
X124732143Y-72936680D02*
X124804714Y-73009252D01*
X124804714Y-73009252D02*
X124732143Y-73081823D01*
X124732143Y-73081823D02*
X124659571Y-73009252D01*
X124659571Y-73009252D02*
X124732143Y-72936680D01*
X124732143Y-72936680D02*
X124732143Y-73081823D01*
X126256142Y-73081823D02*
X125385285Y-73081823D01*
X125820714Y-73081823D02*
X125820714Y-71557823D01*
X125820714Y-71557823D02*
X125675571Y-71775537D01*
X125675571Y-71775537D02*
X125530428Y-71920680D01*
X125530428Y-71920680D02*
X125385285Y-71993252D01*
X110689571Y-74737092D02*
X110907285Y-74809664D01*
X110907285Y-74809664D02*
X110979856Y-74882235D01*
X110979856Y-74882235D02*
X111052428Y-75027378D01*
X111052428Y-75027378D02*
X111052428Y-75245092D01*
X111052428Y-75245092D02*
X110979856Y-75390235D01*
X110979856Y-75390235D02*
X110907285Y-75462807D01*
X110907285Y-75462807D02*
X110762142Y-75535378D01*
X110762142Y-75535378D02*
X110181571Y-75535378D01*
X110181571Y-75535378D02*
X110181571Y-74011378D01*
X110181571Y-74011378D02*
X110689571Y-74011378D01*
X110689571Y-74011378D02*
X110834714Y-74083949D01*
X110834714Y-74083949D02*
X110907285Y-74156521D01*
X110907285Y-74156521D02*
X110979856Y-74301664D01*
X110979856Y-74301664D02*
X110979856Y-74446807D01*
X110979856Y-74446807D02*
X110907285Y-74591949D01*
X110907285Y-74591949D02*
X110834714Y-74664521D01*
X110834714Y-74664521D02*
X110689571Y-74737092D01*
X110689571Y-74737092D02*
X110181571Y-74737092D01*
X111705571Y-75535378D02*
X111705571Y-74519378D01*
X111705571Y-74809664D02*
X111778142Y-74664521D01*
X111778142Y-74664521D02*
X111850714Y-74591949D01*
X111850714Y-74591949D02*
X111995856Y-74519378D01*
X111995856Y-74519378D02*
X112140999Y-74519378D01*
X112649000Y-75535378D02*
X112649000Y-74519378D01*
X112649000Y-74011378D02*
X112576428Y-74083949D01*
X112576428Y-74083949D02*
X112649000Y-74156521D01*
X112649000Y-74156521D02*
X112721571Y-74083949D01*
X112721571Y-74083949D02*
X112649000Y-74011378D01*
X112649000Y-74011378D02*
X112649000Y-74156521D01*
X114027857Y-75535378D02*
X114027857Y-74737092D01*
X114027857Y-74737092D02*
X113955285Y-74591949D01*
X113955285Y-74591949D02*
X113810142Y-74519378D01*
X113810142Y-74519378D02*
X113519857Y-74519378D01*
X113519857Y-74519378D02*
X113374714Y-74591949D01*
X114027857Y-75462807D02*
X113882714Y-75535378D01*
X113882714Y-75535378D02*
X113519857Y-75535378D01*
X113519857Y-75535378D02*
X113374714Y-75462807D01*
X113374714Y-75462807D02*
X113302142Y-75317664D01*
X113302142Y-75317664D02*
X113302142Y-75172521D01*
X113302142Y-75172521D02*
X113374714Y-75027378D01*
X113374714Y-75027378D02*
X113519857Y-74954807D01*
X113519857Y-74954807D02*
X113882714Y-74954807D01*
X113882714Y-74954807D02*
X114027857Y-74882235D01*
X114753571Y-74519378D02*
X114753571Y-75535378D01*
X114753571Y-74664521D02*
X114826142Y-74591949D01*
X114826142Y-74591949D02*
X114971285Y-74519378D01*
X114971285Y-74519378D02*
X115188999Y-74519378D01*
X115188999Y-74519378D02*
X115334142Y-74591949D01*
X115334142Y-74591949D02*
X115406714Y-74737092D01*
X115406714Y-74737092D02*
X115406714Y-75535378D01*
X117293571Y-75535378D02*
X117293571Y-74011378D01*
X117293571Y-74011378D02*
X117874142Y-74011378D01*
X117874142Y-74011378D02*
X118019285Y-74083949D01*
X118019285Y-74083949D02*
X118091856Y-74156521D01*
X118091856Y-74156521D02*
X118164428Y-74301664D01*
X118164428Y-74301664D02*
X118164428Y-74519378D01*
X118164428Y-74519378D02*
X118091856Y-74664521D01*
X118091856Y-74664521D02*
X118019285Y-74737092D01*
X118019285Y-74737092D02*
X117874142Y-74809664D01*
X117874142Y-74809664D02*
X117293571Y-74809664D01*
X119398142Y-75462807D02*
X119252999Y-75535378D01*
X119252999Y-75535378D02*
X118962714Y-75535378D01*
X118962714Y-75535378D02*
X118817571Y-75462807D01*
X118817571Y-75462807D02*
X118744999Y-75317664D01*
X118744999Y-75317664D02*
X118744999Y-74737092D01*
X118744999Y-74737092D02*
X118817571Y-74591949D01*
X118817571Y-74591949D02*
X118962714Y-74519378D01*
X118962714Y-74519378D02*
X119252999Y-74519378D01*
X119252999Y-74519378D02*
X119398142Y-74591949D01*
X119398142Y-74591949D02*
X119470714Y-74737092D01*
X119470714Y-74737092D02*
X119470714Y-74882235D01*
X119470714Y-74882235D02*
X118744999Y-75027378D01*
X120123857Y-74519378D02*
X120123857Y-76043378D01*
X120123857Y-74591949D02*
X120269000Y-74519378D01*
X120269000Y-74519378D02*
X120559285Y-74519378D01*
X120559285Y-74519378D02*
X120704428Y-74591949D01*
X120704428Y-74591949D02*
X120777000Y-74664521D01*
X120777000Y-74664521D02*
X120849571Y-74809664D01*
X120849571Y-74809664D02*
X120849571Y-75245092D01*
X120849571Y-75245092D02*
X120777000Y-75390235D01*
X120777000Y-75390235D02*
X120704428Y-75462807D01*
X120704428Y-75462807D02*
X120559285Y-75535378D01*
X120559285Y-75535378D02*
X120269000Y-75535378D01*
X120269000Y-75535378D02*
X120123857Y-75462807D01*
X121502714Y-75535378D02*
X121502714Y-74519378D01*
X121502714Y-74011378D02*
X121430142Y-74083949D01*
X121430142Y-74083949D02*
X121502714Y-74156521D01*
X121502714Y-74156521D02*
X121575285Y-74083949D01*
X121575285Y-74083949D02*
X121502714Y-74011378D01*
X121502714Y-74011378D02*
X121502714Y-74156521D01*
X122228428Y-74519378D02*
X122228428Y-75535378D01*
X122228428Y-74664521D02*
X122300999Y-74591949D01*
X122300999Y-74591949D02*
X122446142Y-74519378D01*
X122446142Y-74519378D02*
X122663856Y-74519378D01*
X122663856Y-74519378D02*
X122808999Y-74591949D01*
X122808999Y-74591949D02*
X122881571Y-74737092D01*
X122881571Y-74737092D02*
X122881571Y-75535378D01*
X124695856Y-74156521D02*
X124768428Y-74083949D01*
X124768428Y-74083949D02*
X124913571Y-74011378D01*
X124913571Y-74011378D02*
X125276428Y-74011378D01*
X125276428Y-74011378D02*
X125421571Y-74083949D01*
X125421571Y-74083949D02*
X125494142Y-74156521D01*
X125494142Y-74156521D02*
X125566713Y-74301664D01*
X125566713Y-74301664D02*
X125566713Y-74446807D01*
X125566713Y-74446807D02*
X125494142Y-74664521D01*
X125494142Y-74664521D02*
X124623285Y-75535378D01*
X124623285Y-75535378D02*
X125566713Y-75535378D01*
X126510142Y-74011378D02*
X126655285Y-74011378D01*
X126655285Y-74011378D02*
X126800428Y-74083949D01*
X126800428Y-74083949D02*
X126873000Y-74156521D01*
X126873000Y-74156521D02*
X126945571Y-74301664D01*
X126945571Y-74301664D02*
X127018142Y-74591949D01*
X127018142Y-74591949D02*
X127018142Y-74954807D01*
X127018142Y-74954807D02*
X126945571Y-75245092D01*
X126945571Y-75245092D02*
X126873000Y-75390235D01*
X126873000Y-75390235D02*
X126800428Y-75462807D01*
X126800428Y-75462807D02*
X126655285Y-75535378D01*
X126655285Y-75535378D02*
X126510142Y-75535378D01*
X126510142Y-75535378D02*
X126365000Y-75462807D01*
X126365000Y-75462807D02*
X126292428Y-75390235D01*
X126292428Y-75390235D02*
X126219857Y-75245092D01*
X126219857Y-75245092D02*
X126147285Y-74954807D01*
X126147285Y-74954807D02*
X126147285Y-74591949D01*
X126147285Y-74591949D02*
X126219857Y-74301664D01*
X126219857Y-74301664D02*
X126292428Y-74156521D01*
X126292428Y-74156521D02*
X126365000Y-74083949D01*
X126365000Y-74083949D02*
X126510142Y-74011378D01*
X127598714Y-74156521D02*
X127671286Y-74083949D01*
X127671286Y-74083949D02*
X127816429Y-74011378D01*
X127816429Y-74011378D02*
X128179286Y-74011378D01*
X128179286Y-74011378D02*
X128324429Y-74083949D01*
X128324429Y-74083949D02*
X128397000Y-74156521D01*
X128397000Y-74156521D02*
X128469571Y-74301664D01*
X128469571Y-74301664D02*
X128469571Y-74446807D01*
X128469571Y-74446807D02*
X128397000Y-74664521D01*
X128397000Y-74664521D02*
X127526143Y-75535378D01*
X127526143Y-75535378D02*
X128469571Y-75535378D01*
X129848429Y-74011378D02*
X129122715Y-74011378D01*
X129122715Y-74011378D02*
X129050143Y-74737092D01*
X129050143Y-74737092D02*
X129122715Y-74664521D01*
X129122715Y-74664521D02*
X129267858Y-74591949D01*
X129267858Y-74591949D02*
X129630715Y-74591949D01*
X129630715Y-74591949D02*
X129775858Y-74664521D01*
X129775858Y-74664521D02*
X129848429Y-74737092D01*
X129848429Y-74737092D02*
X129921000Y-74882235D01*
X129921000Y-74882235D02*
X129921000Y-75245092D01*
X129921000Y-75245092D02*
X129848429Y-75390235D01*
X129848429Y-75390235D02*
X129775858Y-75462807D01*
X129775858Y-75462807D02*
X129630715Y-75535378D01*
X129630715Y-75535378D02*
X129267858Y-75535378D01*
X129267858Y-75535378D02*
X129122715Y-75462807D01*
X129122715Y-75462807D02*
X129050143Y-75390235D01*
D12*
X95594162Y-103745797D02*
X95497400Y-103697416D01*
X95497400Y-103697416D02*
X95352257Y-103697416D01*
X95352257Y-103697416D02*
X95207114Y-103745797D01*
X95207114Y-103745797D02*
X95110352Y-103842559D01*
X95110352Y-103842559D02*
X95061971Y-103939321D01*
X95061971Y-103939321D02*
X95013590Y-104132845D01*
X95013590Y-104132845D02*
X95013590Y-104277988D01*
X95013590Y-104277988D02*
X95061971Y-104471512D01*
X95061971Y-104471512D02*
X95110352Y-104568274D01*
X95110352Y-104568274D02*
X95207114Y-104665036D01*
X95207114Y-104665036D02*
X95352257Y-104713416D01*
X95352257Y-104713416D02*
X95449019Y-104713416D01*
X95449019Y-104713416D02*
X95594162Y-104665036D01*
X95594162Y-104665036D02*
X95642543Y-104616655D01*
X95642543Y-104616655D02*
X95642543Y-104277988D01*
X95642543Y-104277988D02*
X95449019Y-104277988D01*
X96077971Y-104713416D02*
X96077971Y-103697416D01*
X96077971Y-103697416D02*
X96658543Y-104713416D01*
X96658543Y-104713416D02*
X96658543Y-103697416D01*
X97142352Y-104713416D02*
X97142352Y-103697416D01*
X97142352Y-103697416D02*
X97384257Y-103697416D01*
X97384257Y-103697416D02*
X97529400Y-103745797D01*
X97529400Y-103745797D02*
X97626162Y-103842559D01*
X97626162Y-103842559D02*
X97674543Y-103939321D01*
X97674543Y-103939321D02*
X97722924Y-104132845D01*
X97722924Y-104132845D02*
X97722924Y-104277988D01*
X97722924Y-104277988D02*
X97674543Y-104471512D01*
X97674543Y-104471512D02*
X97626162Y-104568274D01*
X97626162Y-104568274D02*
X97529400Y-104665036D01*
X97529400Y-104665036D02*
X97384257Y-104713416D01*
X97384257Y-104713416D02*
X97142352Y-104713416D01*
X95594162Y-106245797D02*
X95497400Y-106197416D01*
X95497400Y-106197416D02*
X95352257Y-106197416D01*
X95352257Y-106197416D02*
X95207114Y-106245797D01*
X95207114Y-106245797D02*
X95110352Y-106342559D01*
X95110352Y-106342559D02*
X95061971Y-106439321D01*
X95061971Y-106439321D02*
X95013590Y-106632845D01*
X95013590Y-106632845D02*
X95013590Y-106777988D01*
X95013590Y-106777988D02*
X95061971Y-106971512D01*
X95061971Y-106971512D02*
X95110352Y-107068274D01*
X95110352Y-107068274D02*
X95207114Y-107165036D01*
X95207114Y-107165036D02*
X95352257Y-107213416D01*
X95352257Y-107213416D02*
X95449019Y-107213416D01*
X95449019Y-107213416D02*
X95594162Y-107165036D01*
X95594162Y-107165036D02*
X95642543Y-107116655D01*
X95642543Y-107116655D02*
X95642543Y-106777988D01*
X95642543Y-106777988D02*
X95449019Y-106777988D01*
X96077971Y-107213416D02*
X96077971Y-106197416D01*
X96077971Y-106197416D02*
X96658543Y-107213416D01*
X96658543Y-107213416D02*
X96658543Y-106197416D01*
X97142352Y-107213416D02*
X97142352Y-106197416D01*
X97142352Y-106197416D02*
X97384257Y-106197416D01*
X97384257Y-106197416D02*
X97529400Y-106245797D01*
X97529400Y-106245797D02*
X97626162Y-106342559D01*
X97626162Y-106342559D02*
X97674543Y-106439321D01*
X97674543Y-106439321D02*
X97722924Y-106632845D01*
X97722924Y-106632845D02*
X97722924Y-106777988D01*
X97722924Y-106777988D02*
X97674543Y-106971512D01*
X97674543Y-106971512D02*
X97626162Y-107068274D01*
X97626162Y-107068274D02*
X97529400Y-107165036D01*
X97529400Y-107165036D02*
X97384257Y-107213416D01*
X97384257Y-107213416D02*
X97142352Y-107213416D01*
X93485019Y-96505226D02*
X93146352Y-96505226D01*
X93146352Y-97037416D02*
X93146352Y-96021416D01*
X93146352Y-96021416D02*
X93630162Y-96021416D01*
X94017209Y-97037416D02*
X94017209Y-96021416D01*
X95081591Y-97037416D02*
X94742924Y-96553607D01*
X94501019Y-97037416D02*
X94501019Y-96021416D01*
X94501019Y-96021416D02*
X94888067Y-96021416D01*
X94888067Y-96021416D02*
X94984829Y-96069797D01*
X94984829Y-96069797D02*
X95033210Y-96118178D01*
X95033210Y-96118178D02*
X95081591Y-96214940D01*
X95081591Y-96214940D02*
X95081591Y-96360083D01*
X95081591Y-96360083D02*
X95033210Y-96456845D01*
X95033210Y-96456845D02*
X94984829Y-96505226D01*
X94984829Y-96505226D02*
X94888067Y-96553607D01*
X94888067Y-96553607D02*
X94501019Y-96553607D01*
X95517019Y-96505226D02*
X95855686Y-96505226D01*
X96000829Y-97037416D02*
X95517019Y-97037416D01*
X95517019Y-97037416D02*
X95517019Y-96021416D01*
X95517019Y-96021416D02*
X96000829Y-96021416D01*
X97790924Y-97037416D02*
X97452257Y-96553607D01*
X97210352Y-97037416D02*
X97210352Y-96021416D01*
X97210352Y-96021416D02*
X97597400Y-96021416D01*
X97597400Y-96021416D02*
X97694162Y-96069797D01*
X97694162Y-96069797D02*
X97742543Y-96118178D01*
X97742543Y-96118178D02*
X97790924Y-96214940D01*
X97790924Y-96214940D02*
X97790924Y-96360083D01*
X97790924Y-96360083D02*
X97742543Y-96456845D01*
X97742543Y-96456845D02*
X97694162Y-96505226D01*
X97694162Y-96505226D02*
X97597400Y-96553607D01*
X97597400Y-96553607D02*
X97210352Y-96553607D01*
X93417019Y-101681226D02*
X93078352Y-101681226D01*
X93078352Y-102213416D02*
X93078352Y-101197416D01*
X93078352Y-101197416D02*
X93562162Y-101197416D01*
X93949209Y-102213416D02*
X93949209Y-101197416D01*
X95013591Y-102213416D02*
X94674924Y-101729607D01*
X94433019Y-102213416D02*
X94433019Y-101197416D01*
X94433019Y-101197416D02*
X94820067Y-101197416D01*
X94820067Y-101197416D02*
X94916829Y-101245797D01*
X94916829Y-101245797D02*
X94965210Y-101294178D01*
X94965210Y-101294178D02*
X95013591Y-101390940D01*
X95013591Y-101390940D02*
X95013591Y-101536083D01*
X95013591Y-101536083D02*
X94965210Y-101632845D01*
X94965210Y-101632845D02*
X94916829Y-101681226D01*
X94916829Y-101681226D02*
X94820067Y-101729607D01*
X94820067Y-101729607D02*
X94433019Y-101729607D01*
X95449019Y-101681226D02*
X95787686Y-101681226D01*
X95932829Y-102213416D02*
X95449019Y-102213416D01*
X95449019Y-102213416D02*
X95449019Y-101197416D01*
X95449019Y-101197416D02*
X95932829Y-101197416D01*
X97481019Y-101681226D02*
X97626162Y-101729607D01*
X97626162Y-101729607D02*
X97674543Y-101777988D01*
X97674543Y-101777988D02*
X97722924Y-101874750D01*
X97722924Y-101874750D02*
X97722924Y-102019893D01*
X97722924Y-102019893D02*
X97674543Y-102116655D01*
X97674543Y-102116655D02*
X97626162Y-102165036D01*
X97626162Y-102165036D02*
X97529400Y-102213416D01*
X97529400Y-102213416D02*
X97142352Y-102213416D01*
X97142352Y-102213416D02*
X97142352Y-101197416D01*
X97142352Y-101197416D02*
X97481019Y-101197416D01*
X97481019Y-101197416D02*
X97577781Y-101245797D01*
X97577781Y-101245797D02*
X97626162Y-101294178D01*
X97626162Y-101294178D02*
X97674543Y-101390940D01*
X97674543Y-101390940D02*
X97674543Y-101487702D01*
X97674543Y-101487702D02*
X97626162Y-101584464D01*
X97626162Y-101584464D02*
X97577781Y-101632845D01*
X97577781Y-101632845D02*
X97481019Y-101681226D01*
X97481019Y-101681226D02*
X97142352Y-101681226D01*
D10*
G36*
X224773372Y-100695088D02*
G01*
X224804705Y-100726420D01*
X224842556Y-100802122D01*
X224842556Y-101128952D01*
X224431318Y-101128952D01*
X224431318Y-100802122D01*
X224469169Y-100726419D01*
X224500502Y-100695087D01*
X224576202Y-100657237D01*
X224697671Y-100657237D01*
X224773372Y-100695088D01*
G37*
G36*
X225327959Y-98346818D02*
G01*
X225409467Y-98428325D01*
X225447318Y-98504027D01*
X225447318Y-98685972D01*
X225409467Y-98761673D01*
X225327959Y-98843180D01*
X225135350Y-98891333D01*
X224743285Y-98891333D01*
X224550674Y-98843180D01*
X224469169Y-98761675D01*
X224431318Y-98685971D01*
X224431318Y-98504027D01*
X224469169Y-98428323D01*
X224550674Y-98346818D01*
X224743285Y-98298666D01*
X225135350Y-98298666D01*
X225327959Y-98346818D01*
G37*
G36*
X225842429Y-105575968D02*
G01*
X224036207Y-105575968D01*
X224036207Y-105283081D01*
X224179758Y-105283081D01*
X224179758Y-105332633D01*
X224198721Y-105378414D01*
X224233761Y-105413454D01*
X224279542Y-105432417D01*
X224304318Y-105434857D01*
X225574318Y-105434857D01*
X225599094Y-105432417D01*
X225644875Y-105413454D01*
X225679915Y-105378414D01*
X225698878Y-105332633D01*
X225698878Y-105283081D01*
X225679915Y-105237300D01*
X225644875Y-105202260D01*
X225599094Y-105183297D01*
X225574318Y-105180857D01*
X224304318Y-105180857D01*
X224279542Y-105183297D01*
X224233761Y-105202260D01*
X224198721Y-105237300D01*
X224179758Y-105283081D01*
X224036207Y-105283081D01*
X224036207Y-104694225D01*
X224177628Y-104694225D01*
X224179758Y-104710980D01*
X224179758Y-104727871D01*
X224182855Y-104735349D01*
X224183877Y-104743383D01*
X224192258Y-104758051D01*
X224198721Y-104773652D01*
X224204444Y-104779375D01*
X224208462Y-104786406D01*
X224221818Y-104796749D01*
X224233761Y-104808692D01*
X224241240Y-104811790D01*
X224247640Y-104816746D01*
X224263933Y-104821189D01*
X224279542Y-104827655D01*
X224292213Y-104828902D01*
X224295448Y-104829785D01*
X224297945Y-104829467D01*
X224304318Y-104830095D01*
X225574318Y-104830095D01*
X225599094Y-104827655D01*
X225644875Y-104808692D01*
X225679915Y-104773652D01*
X225698878Y-104727871D01*
X225698878Y-104678319D01*
X225679915Y-104632538D01*
X225644875Y-104597498D01*
X225599094Y-104578535D01*
X225574318Y-104576095D01*
X224782545Y-104576095D01*
X225637327Y-104087647D01*
X225642547Y-104083940D01*
X225644875Y-104082977D01*
X225647246Y-104080605D01*
X225657628Y-104073236D01*
X225667969Y-104059882D01*
X225679915Y-104047937D01*
X225683013Y-104040457D01*
X225687969Y-104034058D01*
X225692412Y-104017764D01*
X225698878Y-104002156D01*
X225698878Y-103994059D01*
X225701008Y-103986250D01*
X225698878Y-103969497D01*
X225698878Y-103952604D01*
X225695778Y-103945121D01*
X225694758Y-103937093D01*
X225686379Y-103922430D01*
X225679915Y-103906823D01*
X225674190Y-103901098D01*
X225670174Y-103894069D01*
X225656817Y-103883725D01*
X225644875Y-103871783D01*
X225637395Y-103868684D01*
X225630996Y-103863729D01*
X225614702Y-103859285D01*
X225599094Y-103852820D01*
X225586422Y-103851572D01*
X225583188Y-103850690D01*
X225580690Y-103851007D01*
X225574318Y-103850380D01*
X224304318Y-103850380D01*
X224279542Y-103852820D01*
X224233761Y-103871783D01*
X224198721Y-103906823D01*
X224179758Y-103952604D01*
X224179758Y-104002156D01*
X224198721Y-104047937D01*
X224233761Y-104082977D01*
X224279542Y-104101940D01*
X224304318Y-104104380D01*
X225096091Y-104104380D01*
X224241308Y-104592828D01*
X224236085Y-104596535D01*
X224233761Y-104597498D01*
X224231391Y-104599867D01*
X224221007Y-104607239D01*
X224210663Y-104620595D01*
X224198721Y-104632538D01*
X224195622Y-104640017D01*
X224190667Y-104646417D01*
X224186223Y-104662710D01*
X224179758Y-104678319D01*
X224179758Y-104686415D01*
X224177628Y-104694225D01*
X224036207Y-104694225D01*
X224036207Y-102828333D01*
X224177318Y-102828333D01*
X224177318Y-103554047D01*
X224179758Y-103578823D01*
X224198721Y-103624604D01*
X224233761Y-103659644D01*
X224279542Y-103678607D01*
X224329094Y-103678607D01*
X224374875Y-103659644D01*
X224409915Y-103624604D01*
X224428878Y-103578823D01*
X224431318Y-103554047D01*
X224431318Y-103318190D01*
X225574318Y-103318190D01*
X225599094Y-103315750D01*
X225644875Y-103296787D01*
X225679915Y-103261747D01*
X225698878Y-103215966D01*
X225698878Y-103166414D01*
X225679915Y-103120633D01*
X225644875Y-103085593D01*
X225599094Y-103066630D01*
X225574318Y-103064190D01*
X224431318Y-103064190D01*
X224431318Y-102828333D01*
X224428878Y-102803557D01*
X224409915Y-102757776D01*
X224374875Y-102722736D01*
X224329094Y-102703773D01*
X224279542Y-102703773D01*
X224233761Y-102722736D01*
X224198721Y-102757776D01*
X224179758Y-102803557D01*
X224177318Y-102828333D01*
X224036207Y-102828333D01*
X224036207Y-101800238D01*
X224177318Y-101800238D01*
X224177318Y-102405000D01*
X224179758Y-102429776D01*
X224198721Y-102475557D01*
X224233761Y-102510597D01*
X224279542Y-102529560D01*
X224304318Y-102532000D01*
X225574318Y-102532000D01*
X225599094Y-102529560D01*
X225644875Y-102510597D01*
X225679915Y-102475557D01*
X225698878Y-102429776D01*
X225701318Y-102405000D01*
X225701318Y-101800238D01*
X225698878Y-101775462D01*
X225679915Y-101729681D01*
X225644875Y-101694641D01*
X225599094Y-101675678D01*
X225549542Y-101675678D01*
X225503761Y-101694641D01*
X225468721Y-101729681D01*
X225449758Y-101775462D01*
X225447318Y-101800238D01*
X225447318Y-102278000D01*
X225036080Y-102278000D01*
X225036080Y-101981666D01*
X225033640Y-101956890D01*
X225014677Y-101911109D01*
X224979637Y-101876069D01*
X224933856Y-101857106D01*
X224884304Y-101857106D01*
X224838523Y-101876069D01*
X224803483Y-101911109D01*
X224784520Y-101956890D01*
X224782080Y-101981666D01*
X224782080Y-102278000D01*
X224431318Y-102278000D01*
X224431318Y-101800238D01*
X224428878Y-101775462D01*
X224409915Y-101729681D01*
X224374875Y-101694641D01*
X224329094Y-101675678D01*
X224279542Y-101675678D01*
X224233761Y-101694641D01*
X224198721Y-101729681D01*
X224179758Y-101775462D01*
X224177318Y-101800238D01*
X224036207Y-101800238D01*
X224036207Y-100772142D01*
X224177318Y-100772142D01*
X224177318Y-101255952D01*
X224179758Y-101280728D01*
X224198721Y-101326509D01*
X224233761Y-101361549D01*
X224279542Y-101380512D01*
X224304318Y-101382952D01*
X225574318Y-101382952D01*
X225599094Y-101380512D01*
X225644875Y-101361549D01*
X225679915Y-101326509D01*
X225698878Y-101280728D01*
X225698878Y-101231176D01*
X225679915Y-101185395D01*
X225644875Y-101150355D01*
X225599094Y-101131392D01*
X225574318Y-101128952D01*
X225096556Y-101128952D01*
X225096556Y-101019693D01*
X225647147Y-100634280D01*
X225666045Y-100618073D01*
X225692676Y-100576284D01*
X225701288Y-100527484D01*
X225690569Y-100479104D01*
X225662153Y-100438509D01*
X225620364Y-100411879D01*
X225571564Y-100403267D01*
X225523184Y-100413986D01*
X225501488Y-100426195D01*
X225084261Y-100718254D01*
X225083148Y-100715345D01*
X225022672Y-100594394D01*
X225015958Y-100583728D01*
X225014676Y-100580632D01*
X225011815Y-100577146D01*
X225009410Y-100573325D01*
X225006874Y-100571126D01*
X224998882Y-100561387D01*
X224938406Y-100500910D01*
X224928665Y-100492916D01*
X224926468Y-100490383D01*
X224922647Y-100487978D01*
X224919161Y-100485117D01*
X224916063Y-100483834D01*
X224905399Y-100477121D01*
X224784447Y-100416645D01*
X224761196Y-100407747D01*
X224756643Y-100407423D01*
X224752427Y-100405677D01*
X224727651Y-100403237D01*
X224546222Y-100403237D01*
X224521446Y-100405677D01*
X224517229Y-100407423D01*
X224512677Y-100407747D01*
X224489425Y-100416645D01*
X224368474Y-100477121D01*
X224357811Y-100483832D01*
X224354711Y-100485117D01*
X224351222Y-100487979D01*
X224347405Y-100490383D01*
X224345207Y-100492916D01*
X224335467Y-100500911D01*
X224274991Y-100561388D01*
X224266998Y-100571126D01*
X224264464Y-100573325D01*
X224262059Y-100577145D01*
X224259197Y-100580633D01*
X224257913Y-100583731D01*
X224251202Y-100594394D01*
X224190726Y-100715346D01*
X224181828Y-100738597D01*
X224181504Y-100743149D01*
X224179758Y-100747366D01*
X224177318Y-100772142D01*
X224036207Y-100772142D01*
X224036207Y-99961176D01*
X224179758Y-99961176D01*
X224179758Y-100010728D01*
X224198721Y-100056509D01*
X224233761Y-100091549D01*
X224279542Y-100110512D01*
X224304318Y-100112952D01*
X225574318Y-100112952D01*
X225599094Y-100110512D01*
X225644875Y-100091549D01*
X225679915Y-100056509D01*
X225698878Y-100010728D01*
X225701318Y-99985952D01*
X225701318Y-99381190D01*
X225698878Y-99356414D01*
X225679915Y-99310633D01*
X225644875Y-99275593D01*
X225599094Y-99256630D01*
X225549542Y-99256630D01*
X225503761Y-99275593D01*
X225468721Y-99310633D01*
X225449758Y-99356414D01*
X225447318Y-99381190D01*
X225447318Y-99858952D01*
X224304318Y-99858952D01*
X224279542Y-99861392D01*
X224233761Y-99880355D01*
X224198721Y-99915395D01*
X224179758Y-99961176D01*
X224036207Y-99961176D01*
X224036207Y-98474047D01*
X224177318Y-98474047D01*
X224177318Y-98715952D01*
X224179758Y-98740728D01*
X224181504Y-98744944D01*
X224181828Y-98749497D01*
X224190726Y-98772748D01*
X224251202Y-98893700D01*
X224257912Y-98904360D01*
X224259197Y-98907462D01*
X224262061Y-98910952D01*
X224264464Y-98914769D01*
X224266997Y-98916965D01*
X224274991Y-98926706D01*
X224395943Y-99047659D01*
X224415188Y-99063453D01*
X224423911Y-99067066D01*
X224431500Y-99072689D01*
X224454944Y-99081065D01*
X224696849Y-99141541D01*
X224701144Y-99142176D01*
X224702875Y-99142893D01*
X224712204Y-99143811D01*
X224721477Y-99145183D01*
X224723329Y-99144907D01*
X224727651Y-99145333D01*
X225150984Y-99145333D01*
X225155305Y-99144907D01*
X225157158Y-99145183D01*
X225166430Y-99143811D01*
X225175760Y-99142893D01*
X225177490Y-99142176D01*
X225181786Y-99141541D01*
X225423691Y-99081065D01*
X225447135Y-99072689D01*
X225454723Y-99067066D01*
X225463447Y-99063453D01*
X225482692Y-99047660D01*
X225603644Y-98926707D01*
X225611636Y-98916967D01*
X225614172Y-98914769D01*
X225616577Y-98910947D01*
X225619438Y-98907462D01*
X225620720Y-98904365D01*
X225627434Y-98893700D01*
X225687910Y-98772749D01*
X225696808Y-98749497D01*
X225697131Y-98744944D01*
X225698878Y-98740728D01*
X225701318Y-98715952D01*
X225701318Y-98474047D01*
X225698878Y-98449271D01*
X225697131Y-98445054D01*
X225696808Y-98440502D01*
X225687910Y-98417250D01*
X225627434Y-98296299D01*
X225620720Y-98285633D01*
X225619438Y-98282537D01*
X225616577Y-98279051D01*
X225614172Y-98275230D01*
X225611636Y-98273031D01*
X225603644Y-98263292D01*
X225482692Y-98142339D01*
X225463447Y-98126546D01*
X225454723Y-98122932D01*
X225447135Y-98117310D01*
X225423691Y-98108934D01*
X225181786Y-98048458D01*
X225177490Y-98047822D01*
X225175760Y-98047106D01*
X225166430Y-98046187D01*
X225157158Y-98044816D01*
X225155305Y-98045091D01*
X225150984Y-98044666D01*
X224727651Y-98044666D01*
X224723329Y-98045091D01*
X224721477Y-98044816D01*
X224712204Y-98046187D01*
X224702875Y-98047106D01*
X224701144Y-98047822D01*
X224696849Y-98048458D01*
X224454944Y-98108934D01*
X224431500Y-98117310D01*
X224423911Y-98122932D01*
X224415188Y-98126546D01*
X224395943Y-98142340D01*
X224274991Y-98263293D01*
X224266997Y-98273033D01*
X224264464Y-98275230D01*
X224262061Y-98279046D01*
X224259197Y-98282537D01*
X224257912Y-98285638D01*
X224251202Y-98296299D01*
X224190726Y-98417251D01*
X224181828Y-98440502D01*
X224181504Y-98445054D01*
X224179758Y-98449271D01*
X224177318Y-98474047D01*
X224036207Y-98474047D01*
X224036207Y-97143571D01*
X224177318Y-97143571D01*
X224177318Y-97264523D01*
X224178552Y-97277061D01*
X224178315Y-97280408D01*
X224179315Y-97284809D01*
X224179758Y-97289299D01*
X224181040Y-97292396D01*
X224183835Y-97304684D01*
X224244311Y-97486113D01*
X224254461Y-97508846D01*
X224257451Y-97512294D01*
X224259198Y-97516510D01*
X224274991Y-97535755D01*
X224395943Y-97656707D01*
X224405684Y-97664701D01*
X224407880Y-97667233D01*
X224411696Y-97669635D01*
X224415188Y-97672501D01*
X224418288Y-97673785D01*
X224428949Y-97680496D01*
X224549903Y-97740973D01*
X224551715Y-97741666D01*
X224552453Y-97742213D01*
X224562845Y-97745925D01*
X224573154Y-97749871D01*
X224574069Y-97749936D01*
X224575897Y-97750589D01*
X224817801Y-97811065D01*
X224822096Y-97811700D01*
X224823827Y-97812417D01*
X224833156Y-97813335D01*
X224842429Y-97814707D01*
X224844281Y-97814431D01*
X224848603Y-97814857D01*
X225030032Y-97814857D01*
X225034353Y-97814431D01*
X225036206Y-97814707D01*
X225045478Y-97813335D01*
X225054808Y-97812417D01*
X225056538Y-97811700D01*
X225060834Y-97811065D01*
X225302739Y-97750589D01*
X225304566Y-97749936D01*
X225305482Y-97749871D01*
X225315797Y-97745923D01*
X225326183Y-97742213D01*
X225326919Y-97741667D01*
X225328734Y-97740973D01*
X225449686Y-97680496D01*
X225460346Y-97673785D01*
X225463447Y-97672501D01*
X225466938Y-97669635D01*
X225470755Y-97667233D01*
X225472951Y-97664700D01*
X225482691Y-97656707D01*
X225603644Y-97535755D01*
X225619438Y-97516510D01*
X225621184Y-97512294D01*
X225624175Y-97508846D01*
X225634325Y-97486113D01*
X225694801Y-97304684D01*
X225697594Y-97292397D01*
X225698878Y-97289299D01*
X225699320Y-97284808D01*
X225700321Y-97280407D01*
X225700083Y-97277061D01*
X225701318Y-97264523D01*
X225701318Y-97143571D01*
X225700083Y-97131032D01*
X225700321Y-97127687D01*
X225699320Y-97123285D01*
X225698878Y-97118795D01*
X225697594Y-97115696D01*
X225694801Y-97103410D01*
X225634325Y-96921981D01*
X225624175Y-96899248D01*
X225621185Y-96895800D01*
X225619438Y-96891583D01*
X225603644Y-96872339D01*
X225543167Y-96811863D01*
X225523922Y-96796069D01*
X225478141Y-96777106D01*
X225428587Y-96777107D01*
X225382806Y-96796070D01*
X225347768Y-96831109D01*
X225328805Y-96876890D01*
X225328806Y-96926444D01*
X225347769Y-96972225D01*
X225363563Y-96991469D01*
X225402839Y-97030745D01*
X225447318Y-97164180D01*
X225447318Y-97243913D01*
X225402839Y-97377349D01*
X225317659Y-97462528D01*
X225227608Y-97507554D01*
X225014398Y-97560857D01*
X224864237Y-97560857D01*
X224651027Y-97507554D01*
X224560977Y-97462529D01*
X224475796Y-97377348D01*
X224431318Y-97243913D01*
X224431318Y-97164180D01*
X224475796Y-97030745D01*
X224515073Y-96991469D01*
X224530867Y-96972224D01*
X224549830Y-96926443D01*
X224549830Y-96876889D01*
X224530867Y-96831108D01*
X224495828Y-96796069D01*
X224450047Y-96777106D01*
X224400493Y-96777106D01*
X224354712Y-96796069D01*
X224335467Y-96811863D01*
X224274991Y-96872339D01*
X224259198Y-96891584D01*
X224257451Y-96895799D01*
X224254461Y-96899248D01*
X224244311Y-96921981D01*
X224183835Y-97103410D01*
X224181040Y-97115697D01*
X224179758Y-97118795D01*
X224179315Y-97123284D01*
X224178315Y-97127686D01*
X224178552Y-97131032D01*
X224177318Y-97143571D01*
X224036207Y-97143571D01*
X224036207Y-95606889D01*
X224179758Y-95606889D01*
X224179758Y-95656443D01*
X224198721Y-95702224D01*
X224214515Y-95721468D01*
X224723427Y-96230381D01*
X224304318Y-96230381D01*
X224279542Y-96232821D01*
X224233761Y-96251784D01*
X224198721Y-96286824D01*
X224179758Y-96332605D01*
X224179758Y-96382157D01*
X224198721Y-96427938D01*
X224233761Y-96462978D01*
X224279542Y-96481941D01*
X224304318Y-96484381D01*
X225574318Y-96484381D01*
X225599094Y-96481941D01*
X225644875Y-96462978D01*
X225679915Y-96427938D01*
X225698878Y-96382157D01*
X225698878Y-96332605D01*
X225679915Y-96286824D01*
X225644875Y-96251784D01*
X225599094Y-96232821D01*
X225574318Y-96230381D01*
X225082637Y-96230381D01*
X225041948Y-96189692D01*
X225650518Y-95733266D01*
X225668875Y-95716448D01*
X225694122Y-95673809D01*
X225701130Y-95624753D01*
X225688832Y-95576751D01*
X225659101Y-95537109D01*
X225616462Y-95511862D01*
X225567406Y-95504854D01*
X225519403Y-95517152D01*
X225498118Y-95530066D01*
X224860520Y-96008264D01*
X224394121Y-95541864D01*
X224374876Y-95526070D01*
X224329095Y-95507106D01*
X224279541Y-95507106D01*
X224233760Y-95526069D01*
X224198722Y-95561108D01*
X224179758Y-95606889D01*
X224036207Y-95606889D01*
X224036207Y-95363743D01*
X225842429Y-95363743D01*
X225842429Y-105575968D01*
G37*
D13*
G36*
X98234102Y-91450936D02*
G01*
X98271261Y-91488094D01*
X98313638Y-91572848D01*
X98313638Y-91706307D01*
X98271261Y-91791061D01*
X98234102Y-91828220D01*
X98149348Y-91870597D01*
X97791123Y-91870597D01*
X97791123Y-91408559D01*
X98149348Y-91408559D01*
X98234102Y-91450936D01*
G37*
G36*
X99805044Y-92819670D02*
G01*
X95753479Y-92819670D01*
X95753479Y-91306959D01*
X95894590Y-91306959D01*
X95894590Y-92576959D01*
X95896542Y-92596780D01*
X95911713Y-92633405D01*
X95939744Y-92661436D01*
X95976369Y-92676607D01*
X96016011Y-92676607D01*
X96052636Y-92661436D01*
X96080667Y-92633405D01*
X96095838Y-92596780D01*
X96097790Y-92576959D01*
X96097790Y-92013321D01*
X96419524Y-92013321D01*
X96439345Y-92011369D01*
X96475970Y-91996198D01*
X96504001Y-91968167D01*
X96519172Y-91931542D01*
X96519172Y-91891900D01*
X96504001Y-91855275D01*
X96475970Y-91827244D01*
X96439345Y-91812073D01*
X96419524Y-91810121D01*
X96097790Y-91810121D01*
X96097790Y-91408559D01*
X96600952Y-91408559D01*
X96620773Y-91406607D01*
X96657398Y-91391436D01*
X96685429Y-91363405D01*
X96700600Y-91326780D01*
X96700600Y-91306959D01*
X96983161Y-91306959D01*
X96983161Y-92576959D01*
X96985113Y-92596780D01*
X97000284Y-92633405D01*
X97028315Y-92661436D01*
X97064940Y-92676607D01*
X97104582Y-92676607D01*
X97141207Y-92661436D01*
X97169238Y-92633405D01*
X97184409Y-92596780D01*
X97186361Y-92576959D01*
X97186361Y-91306959D01*
X97587923Y-91306959D01*
X97587923Y-92576959D01*
X97589875Y-92596780D01*
X97605046Y-92633405D01*
X97633077Y-92661436D01*
X97669702Y-92676607D01*
X97709344Y-92676607D01*
X97745969Y-92661436D01*
X97774000Y-92633405D01*
X97789171Y-92596780D01*
X97791123Y-92576959D01*
X97791123Y-92073797D01*
X97939005Y-92073797D01*
X98332004Y-92635222D01*
X98344970Y-92650341D01*
X98378401Y-92671645D01*
X98417440Y-92678535D01*
X98456144Y-92669960D01*
X98488620Y-92647227D01*
X98509925Y-92613795D01*
X98516814Y-92574757D01*
X98508239Y-92536052D01*
X98498472Y-92518695D01*
X98186158Y-92072533D01*
X98193154Y-92071845D01*
X98196527Y-92070447D01*
X98200168Y-92070189D01*
X98218770Y-92063071D01*
X98339722Y-92002595D01*
X98348254Y-91997223D01*
X98350731Y-91996198D01*
X98353519Y-91993909D01*
X98356577Y-91991985D01*
X98358335Y-91989956D01*
X98366127Y-91983563D01*
X98426604Y-91923086D01*
X98432997Y-91915294D01*
X98435026Y-91913536D01*
X98436950Y-91910478D01*
X98439239Y-91907690D01*
X98440264Y-91905214D01*
X98445636Y-91896681D01*
X98506112Y-91775729D01*
X98513230Y-91757128D01*
X98513488Y-91753486D01*
X98514886Y-91750113D01*
X98516838Y-91730292D01*
X98516838Y-91548863D01*
X98514886Y-91529042D01*
X98513488Y-91525668D01*
X98513230Y-91522027D01*
X98506112Y-91503426D01*
X98445636Y-91382474D01*
X98440265Y-91373943D01*
X98439239Y-91371464D01*
X98436948Y-91368673D01*
X98435026Y-91365619D01*
X98432999Y-91363861D01*
X98426604Y-91356069D01*
X98377493Y-91306959D01*
X98857923Y-91306959D01*
X98857923Y-92576959D01*
X98859875Y-92596780D01*
X98875046Y-92633405D01*
X98903077Y-92661436D01*
X98939702Y-92676607D01*
X98959523Y-92678559D01*
X99564285Y-92678559D01*
X99584106Y-92676607D01*
X99620731Y-92661436D01*
X99648762Y-92633405D01*
X99663933Y-92596780D01*
X99663933Y-92557138D01*
X99648762Y-92520513D01*
X99620731Y-92492482D01*
X99584106Y-92477311D01*
X99564285Y-92475359D01*
X99061123Y-92475359D01*
X99061123Y-92013321D01*
X99382857Y-92013321D01*
X99402678Y-92011369D01*
X99439303Y-91996198D01*
X99467334Y-91968167D01*
X99482505Y-91931542D01*
X99482505Y-91891900D01*
X99467334Y-91855275D01*
X99439303Y-91827244D01*
X99402678Y-91812073D01*
X99382857Y-91810121D01*
X99061123Y-91810121D01*
X99061123Y-91408559D01*
X99564285Y-91408559D01*
X99584106Y-91406607D01*
X99620731Y-91391436D01*
X99648762Y-91363405D01*
X99663933Y-91326780D01*
X99663933Y-91287138D01*
X99648762Y-91250513D01*
X99620731Y-91222482D01*
X99584106Y-91207311D01*
X99564285Y-91205359D01*
X98959523Y-91205359D01*
X98939702Y-91207311D01*
X98903077Y-91222482D01*
X98875046Y-91250513D01*
X98859875Y-91287138D01*
X98857923Y-91306959D01*
X98377493Y-91306959D01*
X98366126Y-91295592D01*
X98358334Y-91289197D01*
X98356577Y-91287171D01*
X98353523Y-91285248D01*
X98350731Y-91282957D01*
X98348250Y-91281929D01*
X98339722Y-91276561D01*
X98218770Y-91216085D01*
X98200168Y-91208967D01*
X98196527Y-91208708D01*
X98193154Y-91207311D01*
X98173333Y-91205359D01*
X97689523Y-91205359D01*
X97669702Y-91207311D01*
X97633077Y-91222482D01*
X97605046Y-91250513D01*
X97589875Y-91287138D01*
X97587923Y-91306959D01*
X97186361Y-91306959D01*
X97184409Y-91287138D01*
X97169238Y-91250513D01*
X97141207Y-91222482D01*
X97104582Y-91207311D01*
X97064940Y-91207311D01*
X97028315Y-91222482D01*
X97000284Y-91250513D01*
X96985113Y-91287138D01*
X96983161Y-91306959D01*
X96700600Y-91306959D01*
X96700600Y-91287138D01*
X96685429Y-91250513D01*
X96657398Y-91222482D01*
X96620773Y-91207311D01*
X96600952Y-91205359D01*
X95996190Y-91205359D01*
X95976369Y-91207311D01*
X95939744Y-91222482D01*
X95911713Y-91250513D01*
X95896542Y-91287138D01*
X95894590Y-91306959D01*
X95753479Y-91306959D01*
X95753479Y-91064248D01*
X99805044Y-91064248D01*
X99805044Y-92819670D01*
G37*
D14*
X197358095Y-108039819D02*
X197358095Y-108849342D01*
X197358095Y-108849342D02*
X197405714Y-108944580D01*
X197405714Y-108944580D02*
X197453333Y-108992200D01*
X197453333Y-108992200D02*
X197548571Y-109039819D01*
X197548571Y-109039819D02*
X197739047Y-109039819D01*
X197739047Y-109039819D02*
X197834285Y-108992200D01*
X197834285Y-108992200D02*
X197881904Y-108944580D01*
X197881904Y-108944580D02*
X197929523Y-108849342D01*
X197929523Y-108849342D02*
X197929523Y-108039819D01*
X198929523Y-109039819D02*
X198358095Y-109039819D01*
X198643809Y-109039819D02*
X198643809Y-108039819D01*
X198643809Y-108039819D02*
X198548571Y-108182676D01*
X198548571Y-108182676D02*
X198453333Y-108277914D01*
X198453333Y-108277914D02*
X198358095Y-108325533D01*
G36*
X189565622Y-64640930D02*
G01*
X185480556Y-64640930D01*
X185480556Y-63454819D01*
X185591667Y-63454819D01*
X185591667Y-64454819D01*
X185593108Y-64469451D01*
X185604307Y-64496487D01*
X185624999Y-64517179D01*
X185652035Y-64528378D01*
X185681299Y-64528378D01*
X185708335Y-64517179D01*
X185729027Y-64496487D01*
X185740226Y-64469451D01*
X185741667Y-64454819D01*
X185741667Y-63792886D01*
X185932036Y-64200821D01*
X185935210Y-64206180D01*
X185935870Y-64207993D01*
X185937044Y-64209275D01*
X185939530Y-64213471D01*
X185947939Y-64221171D01*
X185955634Y-64229574D01*
X185958652Y-64230982D01*
X185961111Y-64233234D01*
X185971823Y-64237129D01*
X185982152Y-64241950D01*
X185985480Y-64242096D01*
X185988612Y-64243235D01*
X186000006Y-64242734D01*
X186011388Y-64243234D01*
X186014516Y-64242096D01*
X186017848Y-64241950D01*
X186028183Y-64237126D01*
X186038889Y-64233234D01*
X186041344Y-64230984D01*
X186044366Y-64229575D01*
X186052067Y-64221164D01*
X186060470Y-64213470D01*
X186062953Y-64209277D01*
X186064130Y-64207993D01*
X186064790Y-64206177D01*
X186067964Y-64200820D01*
X186258333Y-63792886D01*
X186258333Y-64454819D01*
X186259774Y-64469451D01*
X186270973Y-64496487D01*
X186291665Y-64517179D01*
X186318701Y-64528378D01*
X186347965Y-64528378D01*
X186375001Y-64517179D01*
X186395693Y-64496487D01*
X186406892Y-64469451D01*
X186408333Y-64454819D01*
X186408333Y-63883390D01*
X186686905Y-63883390D01*
X186686905Y-64026247D01*
X186687156Y-64028800D01*
X186686994Y-64029893D01*
X186687803Y-64035366D01*
X186688346Y-64040879D01*
X186688768Y-64041900D01*
X186689144Y-64044437D01*
X186736763Y-64234913D01*
X186737148Y-64235992D01*
X186737187Y-64236532D01*
X186739514Y-64242613D01*
X186741710Y-64248759D01*
X186742032Y-64249194D01*
X186742442Y-64250264D01*
X186790061Y-64345502D01*
X186794024Y-64351798D01*
X186794782Y-64353628D01*
X186796471Y-64355686D01*
X186797893Y-64357945D01*
X186799391Y-64359244D01*
X186804110Y-64364994D01*
X186899348Y-64460233D01*
X186910713Y-64469561D01*
X186913203Y-64470592D01*
X186915238Y-64472357D01*
X186928664Y-64478351D01*
X187071520Y-64525970D01*
X187078775Y-64527619D01*
X187080606Y-64528378D01*
X187083259Y-64528639D01*
X187085857Y-64529230D01*
X187087831Y-64529089D01*
X187095238Y-64529819D01*
X187190476Y-64529819D01*
X187197881Y-64529089D01*
X187199856Y-64529230D01*
X187202453Y-64528639D01*
X187205108Y-64528378D01*
X187206939Y-64527619D01*
X187214193Y-64525970D01*
X187357050Y-64478351D01*
X187370475Y-64472357D01*
X187372510Y-64470591D01*
X187375001Y-64469560D01*
X187386367Y-64460232D01*
X187433985Y-64412613D01*
X187443313Y-64401247D01*
X187454511Y-64374211D01*
X187454511Y-64344948D01*
X187443312Y-64317912D01*
X187422619Y-64297219D01*
X187395583Y-64286021D01*
X187366320Y-64286021D01*
X187339284Y-64297220D01*
X187327918Y-64306548D01*
X187292819Y-64341647D01*
X187178306Y-64379819D01*
X187107408Y-64379819D01*
X186992895Y-64341648D01*
X186918782Y-64267534D01*
X186880288Y-64190547D01*
X186836905Y-64017013D01*
X186836905Y-63892624D01*
X186880288Y-63719090D01*
X186918782Y-63642103D01*
X186992895Y-63567990D01*
X187107408Y-63529819D01*
X187178306Y-63529819D01*
X187292819Y-63567990D01*
X187327919Y-63603090D01*
X187339284Y-63612417D01*
X187366320Y-63623616D01*
X187395583Y-63623616D01*
X187422619Y-63612417D01*
X187443312Y-63591724D01*
X187454511Y-63564688D01*
X187454511Y-63535425D01*
X187443312Y-63508389D01*
X187433985Y-63497024D01*
X187391780Y-63454819D01*
X187734524Y-63454819D01*
X187734524Y-64264342D01*
X187735965Y-64278974D01*
X187736996Y-64281463D01*
X187737187Y-64284151D01*
X187742442Y-64297883D01*
X187790061Y-64393121D01*
X187794024Y-64399417D01*
X187794782Y-64401247D01*
X187796471Y-64403305D01*
X187797893Y-64405564D01*
X187799391Y-64406863D01*
X187804109Y-64412612D01*
X187851728Y-64460232D01*
X187857477Y-64464950D01*
X187858778Y-64466450D01*
X187861037Y-64467872D01*
X187863094Y-64469560D01*
X187864921Y-64470317D01*
X187871221Y-64474282D01*
X187966459Y-64521901D01*
X187980190Y-64527156D01*
X187982879Y-64527347D01*
X187985368Y-64528378D01*
X188000000Y-64529819D01*
X188190476Y-64529819D01*
X188205108Y-64528378D01*
X188207597Y-64527346D01*
X188210285Y-64527156D01*
X188224017Y-64521901D01*
X188319255Y-64474282D01*
X188325554Y-64470317D01*
X188327382Y-64469560D01*
X188329438Y-64467872D01*
X188331698Y-64466450D01*
X188332998Y-64464950D01*
X188338748Y-64460232D01*
X188386366Y-64412613D01*
X188391084Y-64406863D01*
X188392583Y-64405564D01*
X188394004Y-64403305D01*
X188395694Y-64401247D01*
X188396451Y-64399417D01*
X188400415Y-64393121D01*
X188448034Y-64297883D01*
X188453289Y-64284152D01*
X188453480Y-64281462D01*
X188454511Y-64278974D01*
X188455952Y-64264342D01*
X188455952Y-63731152D01*
X188735113Y-63731152D01*
X188737187Y-63760342D01*
X188750274Y-63786517D01*
X188772382Y-63805690D01*
X188800143Y-63814944D01*
X188829333Y-63812870D01*
X188843065Y-63807615D01*
X188938303Y-63759996D01*
X188944602Y-63756031D01*
X188946430Y-63755274D01*
X188948486Y-63753585D01*
X188950746Y-63752164D01*
X188952045Y-63750665D01*
X188957795Y-63745947D01*
X189020238Y-63683504D01*
X189020238Y-64379819D01*
X188809524Y-64379819D01*
X188794892Y-64381260D01*
X188767856Y-64392459D01*
X188747164Y-64413151D01*
X188735965Y-64440187D01*
X188735965Y-64469451D01*
X188747164Y-64496487D01*
X188767856Y-64517179D01*
X188794892Y-64528378D01*
X188809524Y-64529819D01*
X189380952Y-64529819D01*
X189395584Y-64528378D01*
X189422620Y-64517179D01*
X189443312Y-64496487D01*
X189454511Y-64469451D01*
X189454511Y-64440187D01*
X189443312Y-64413151D01*
X189422620Y-64392459D01*
X189395584Y-64381260D01*
X189380952Y-64379819D01*
X189170238Y-64379819D01*
X189170238Y-63454819D01*
X189170232Y-63454766D01*
X189170238Y-63454740D01*
X189170222Y-63454663D01*
X189168797Y-63440187D01*
X189165955Y-63433326D01*
X189164499Y-63426045D01*
X189160409Y-63419938D01*
X189157598Y-63413151D01*
X189152349Y-63407902D01*
X189148216Y-63401730D01*
X189142099Y-63397652D01*
X189136906Y-63392459D01*
X189130046Y-63389617D01*
X189123867Y-63385498D01*
X189116658Y-63384072D01*
X189109870Y-63381260D01*
X189102443Y-63381260D01*
X189095159Y-63379819D01*
X189087954Y-63381260D01*
X189080606Y-63381260D01*
X189073745Y-63384101D01*
X189066465Y-63385558D01*
X189060359Y-63389646D01*
X189053570Y-63392459D01*
X189048319Y-63397709D01*
X189042150Y-63401841D01*
X189032929Y-63413099D01*
X189032878Y-63413151D01*
X189032868Y-63413173D01*
X189032834Y-63413216D01*
X188941714Y-63549896D01*
X188860335Y-63631275D01*
X188775983Y-63673451D01*
X188763540Y-63681283D01*
X188744367Y-63703391D01*
X188735113Y-63731152D01*
X188455952Y-63731152D01*
X188455952Y-63454819D01*
X188454511Y-63440187D01*
X188443312Y-63413151D01*
X188422620Y-63392459D01*
X188395584Y-63381260D01*
X188366320Y-63381260D01*
X188339284Y-63392459D01*
X188318592Y-63413151D01*
X188307393Y-63440187D01*
X188305952Y-63454819D01*
X188305952Y-64246637D01*
X188271693Y-64315153D01*
X188241286Y-64345561D01*
X188172771Y-64379819D01*
X188017705Y-64379819D01*
X187949189Y-64345561D01*
X187918782Y-64315153D01*
X187884524Y-64246637D01*
X187884524Y-63454819D01*
X187883083Y-63440187D01*
X187871884Y-63413151D01*
X187851192Y-63392459D01*
X187824156Y-63381260D01*
X187794892Y-63381260D01*
X187767856Y-63392459D01*
X187747164Y-63413151D01*
X187735965Y-63440187D01*
X187734524Y-63454819D01*
X187391780Y-63454819D01*
X187386366Y-63449405D01*
X187375001Y-63440078D01*
X187372510Y-63439046D01*
X187370475Y-63437281D01*
X187357050Y-63431287D01*
X187214193Y-63383668D01*
X187206939Y-63382018D01*
X187205108Y-63381260D01*
X187202453Y-63380998D01*
X187199856Y-63380408D01*
X187197881Y-63380548D01*
X187190476Y-63379819D01*
X187095238Y-63379819D01*
X187087831Y-63380548D01*
X187085857Y-63380408D01*
X187083259Y-63380998D01*
X187080606Y-63381260D01*
X187078775Y-63382018D01*
X187071520Y-63383668D01*
X186928664Y-63431287D01*
X186915238Y-63437281D01*
X186913203Y-63439045D01*
X186910713Y-63440077D01*
X186899348Y-63449405D01*
X186804110Y-63544643D01*
X186799391Y-63550392D01*
X186797893Y-63551692D01*
X186796471Y-63553951D01*
X186794783Y-63556008D01*
X186794025Y-63557835D01*
X186790061Y-63564135D01*
X186742442Y-63659373D01*
X186742032Y-63660442D01*
X186741710Y-63660878D01*
X186739524Y-63666997D01*
X186737187Y-63673105D01*
X186737148Y-63673644D01*
X186736763Y-63674724D01*
X186689144Y-63865200D01*
X186688768Y-63867736D01*
X186688346Y-63868758D01*
X186687803Y-63874270D01*
X186686994Y-63879744D01*
X186687156Y-63880836D01*
X186686905Y-63883390D01*
X186408333Y-63883390D01*
X186408333Y-63454819D01*
X186407385Y-63445197D01*
X186407463Y-63443431D01*
X186407118Y-63442482D01*
X186406892Y-63440187D01*
X186401910Y-63428160D01*
X186397463Y-63415930D01*
X186396333Y-63414696D01*
X186395693Y-63413151D01*
X186386493Y-63403951D01*
X186377699Y-63394348D01*
X186376182Y-63393640D01*
X186375001Y-63392459D01*
X186362988Y-63387482D01*
X186351181Y-63381973D01*
X186349508Y-63381899D01*
X186347965Y-63381260D01*
X186334959Y-63381260D01*
X186321945Y-63380688D01*
X186320372Y-63381260D01*
X186318701Y-63381260D01*
X186306682Y-63386238D01*
X186294444Y-63390689D01*
X186293210Y-63391819D01*
X186291665Y-63392459D01*
X186282466Y-63401657D01*
X186272863Y-63410452D01*
X186271687Y-63412436D01*
X186270973Y-63413151D01*
X186270296Y-63414784D01*
X186265369Y-63423102D01*
X185999999Y-63991750D01*
X185734631Y-63423103D01*
X185729705Y-63414787D01*
X185729027Y-63413151D01*
X185728311Y-63412435D01*
X185727137Y-63410453D01*
X185717540Y-63401664D01*
X185708335Y-63392459D01*
X185706789Y-63391818D01*
X185705556Y-63390689D01*
X185693325Y-63386241D01*
X185681299Y-63381260D01*
X185679625Y-63381260D01*
X185678055Y-63380689D01*
X185665054Y-63381260D01*
X185652035Y-63381260D01*
X185650490Y-63381899D01*
X185648819Y-63381973D01*
X185637020Y-63387479D01*
X185624999Y-63392459D01*
X185623816Y-63393641D01*
X185622301Y-63394349D01*
X185613512Y-63403945D01*
X185604307Y-63413151D01*
X185603666Y-63414696D01*
X185602537Y-63415930D01*
X185598089Y-63428160D01*
X185593108Y-63440187D01*
X185592881Y-63442482D01*
X185592537Y-63443431D01*
X185592614Y-63445197D01*
X185591667Y-63454819D01*
X185480556Y-63454819D01*
X185480556Y-63268708D01*
X189565622Y-63268708D01*
X189565622Y-64640930D01*
G37*
X228536667Y-97137200D02*
X228679524Y-97184819D01*
X228679524Y-97184819D02*
X228917619Y-97184819D01*
X228917619Y-97184819D02*
X229012857Y-97137200D01*
X229012857Y-97137200D02*
X229060476Y-97089580D01*
X229060476Y-97089580D02*
X229108095Y-96994342D01*
X229108095Y-96994342D02*
X229108095Y-96899104D01*
X229108095Y-96899104D02*
X229060476Y-96803866D01*
X229060476Y-96803866D02*
X229012857Y-96756247D01*
X229012857Y-96756247D02*
X228917619Y-96708628D01*
X228917619Y-96708628D02*
X228727143Y-96661009D01*
X228727143Y-96661009D02*
X228631905Y-96613390D01*
X228631905Y-96613390D02*
X228584286Y-96565771D01*
X228584286Y-96565771D02*
X228536667Y-96470533D01*
X228536667Y-96470533D02*
X228536667Y-96375295D01*
X228536667Y-96375295D02*
X228584286Y-96280057D01*
X228584286Y-96280057D02*
X228631905Y-96232438D01*
X228631905Y-96232438D02*
X228727143Y-96184819D01*
X228727143Y-96184819D02*
X228965238Y-96184819D01*
X228965238Y-96184819D02*
X229108095Y-96232438D01*
X229441429Y-96184819D02*
X229679524Y-97184819D01*
X229679524Y-97184819D02*
X229870000Y-96470533D01*
X229870000Y-96470533D02*
X230060476Y-97184819D01*
X230060476Y-97184819D02*
X230298572Y-96184819D01*
X230631905Y-96280057D02*
X230679524Y-96232438D01*
X230679524Y-96232438D02*
X230774762Y-96184819D01*
X230774762Y-96184819D02*
X231012857Y-96184819D01*
X231012857Y-96184819D02*
X231108095Y-96232438D01*
X231108095Y-96232438D02*
X231155714Y-96280057D01*
X231155714Y-96280057D02*
X231203333Y-96375295D01*
X231203333Y-96375295D02*
X231203333Y-96470533D01*
X231203333Y-96470533D02*
X231155714Y-96613390D01*
X231155714Y-96613390D02*
X230584286Y-97184819D01*
X230584286Y-97184819D02*
X231203333Y-97184819D01*
X216781142Y-70971580D02*
X216733523Y-71019200D01*
X216733523Y-71019200D02*
X216590666Y-71066819D01*
X216590666Y-71066819D02*
X216495428Y-71066819D01*
X216495428Y-71066819D02*
X216352571Y-71019200D01*
X216352571Y-71019200D02*
X216257333Y-70923961D01*
X216257333Y-70923961D02*
X216209714Y-70828723D01*
X216209714Y-70828723D02*
X216162095Y-70638247D01*
X216162095Y-70638247D02*
X216162095Y-70495390D01*
X216162095Y-70495390D02*
X216209714Y-70304914D01*
X216209714Y-70304914D02*
X216257333Y-70209676D01*
X216257333Y-70209676D02*
X216352571Y-70114438D01*
X216352571Y-70114438D02*
X216495428Y-70066819D01*
X216495428Y-70066819D02*
X216590666Y-70066819D01*
X216590666Y-70066819D02*
X216733523Y-70114438D01*
X216733523Y-70114438D02*
X216781142Y-70162057D01*
X217733523Y-71066819D02*
X217162095Y-71066819D01*
X217447809Y-71066819D02*
X217447809Y-70066819D01*
X217447809Y-70066819D02*
X217352571Y-70209676D01*
X217352571Y-70209676D02*
X217257333Y-70304914D01*
X217257333Y-70304914D02*
X217162095Y-70352533D01*
X218352571Y-70066819D02*
X218447809Y-70066819D01*
X218447809Y-70066819D02*
X218543047Y-70114438D01*
X218543047Y-70114438D02*
X218590666Y-70162057D01*
X218590666Y-70162057D02*
X218638285Y-70257295D01*
X218638285Y-70257295D02*
X218685904Y-70447771D01*
X218685904Y-70447771D02*
X218685904Y-70685866D01*
X218685904Y-70685866D02*
X218638285Y-70876342D01*
X218638285Y-70876342D02*
X218590666Y-70971580D01*
X218590666Y-70971580D02*
X218543047Y-71019200D01*
X218543047Y-71019200D02*
X218447809Y-71066819D01*
X218447809Y-71066819D02*
X218352571Y-71066819D01*
X218352571Y-71066819D02*
X218257333Y-71019200D01*
X218257333Y-71019200D02*
X218209714Y-70971580D01*
X218209714Y-70971580D02*
X218162095Y-70876342D01*
X218162095Y-70876342D02*
X218114476Y-70685866D01*
X218114476Y-70685866D02*
X218114476Y-70447771D01*
X218114476Y-70447771D02*
X218162095Y-70257295D01*
X218162095Y-70257295D02*
X218209714Y-70162057D01*
X218209714Y-70162057D02*
X218257333Y-70114438D01*
X218257333Y-70114438D02*
X218352571Y-70066819D01*
X123451905Y-116629819D02*
X123451905Y-117439342D01*
X123451905Y-117439342D02*
X123499524Y-117534580D01*
X123499524Y-117534580D02*
X123547143Y-117582200D01*
X123547143Y-117582200D02*
X123642381Y-117629819D01*
X123642381Y-117629819D02*
X123832857Y-117629819D01*
X123832857Y-117629819D02*
X123928095Y-117582200D01*
X123928095Y-117582200D02*
X123975714Y-117534580D01*
X123975714Y-117534580D02*
X124023333Y-117439342D01*
X124023333Y-117439342D02*
X124023333Y-116629819D01*
X124451905Y-117582200D02*
X124594762Y-117629819D01*
X124594762Y-117629819D02*
X124832857Y-117629819D01*
X124832857Y-117629819D02*
X124928095Y-117582200D01*
X124928095Y-117582200D02*
X124975714Y-117534580D01*
X124975714Y-117534580D02*
X125023333Y-117439342D01*
X125023333Y-117439342D02*
X125023333Y-117344104D01*
X125023333Y-117344104D02*
X124975714Y-117248866D01*
X124975714Y-117248866D02*
X124928095Y-117201247D01*
X124928095Y-117201247D02*
X124832857Y-117153628D01*
X124832857Y-117153628D02*
X124642381Y-117106009D01*
X124642381Y-117106009D02*
X124547143Y-117058390D01*
X124547143Y-117058390D02*
X124499524Y-117010771D01*
X124499524Y-117010771D02*
X124451905Y-116915533D01*
X124451905Y-116915533D02*
X124451905Y-116820295D01*
X124451905Y-116820295D02*
X124499524Y-116725057D01*
X124499524Y-116725057D02*
X124547143Y-116677438D01*
X124547143Y-116677438D02*
X124642381Y-116629819D01*
X124642381Y-116629819D02*
X124880476Y-116629819D01*
X124880476Y-116629819D02*
X125023333Y-116677438D01*
X125785238Y-117106009D02*
X125928095Y-117153628D01*
X125928095Y-117153628D02*
X125975714Y-117201247D01*
X125975714Y-117201247D02*
X126023333Y-117296485D01*
X126023333Y-117296485D02*
X126023333Y-117439342D01*
X126023333Y-117439342D02*
X125975714Y-117534580D01*
X125975714Y-117534580D02*
X125928095Y-117582200D01*
X125928095Y-117582200D02*
X125832857Y-117629819D01*
X125832857Y-117629819D02*
X125451905Y-117629819D01*
X125451905Y-117629819D02*
X125451905Y-116629819D01*
X125451905Y-116629819D02*
X125785238Y-116629819D01*
X125785238Y-116629819D02*
X125880476Y-116677438D01*
X125880476Y-116677438D02*
X125928095Y-116725057D01*
X125928095Y-116725057D02*
X125975714Y-116820295D01*
X125975714Y-116820295D02*
X125975714Y-116915533D01*
X125975714Y-116915533D02*
X125928095Y-117010771D01*
X125928095Y-117010771D02*
X125880476Y-117058390D01*
X125880476Y-117058390D02*
X125785238Y-117106009D01*
X125785238Y-117106009D02*
X125451905Y-117106009D01*
X126975714Y-117629819D02*
X126404286Y-117629819D01*
X126690000Y-117629819D02*
X126690000Y-116629819D01*
X126690000Y-116629819D02*
X126594762Y-116772676D01*
X126594762Y-116772676D02*
X126499524Y-116867914D01*
X126499524Y-116867914D02*
X126404286Y-116915533D01*
X148377333Y-133333819D02*
X148044000Y-132857628D01*
X147805905Y-133333819D02*
X147805905Y-132333819D01*
X147805905Y-132333819D02*
X148186857Y-132333819D01*
X148186857Y-132333819D02*
X148282095Y-132381438D01*
X148282095Y-132381438D02*
X148329714Y-132429057D01*
X148329714Y-132429057D02*
X148377333Y-132524295D01*
X148377333Y-132524295D02*
X148377333Y-132667152D01*
X148377333Y-132667152D02*
X148329714Y-132762390D01*
X148329714Y-132762390D02*
X148282095Y-132810009D01*
X148282095Y-132810009D02*
X148186857Y-132857628D01*
X148186857Y-132857628D02*
X147805905Y-132857628D01*
X148758286Y-132429057D02*
X148805905Y-132381438D01*
X148805905Y-132381438D02*
X148901143Y-132333819D01*
X148901143Y-132333819D02*
X149139238Y-132333819D01*
X149139238Y-132333819D02*
X149234476Y-132381438D01*
X149234476Y-132381438D02*
X149282095Y-132429057D01*
X149282095Y-132429057D02*
X149329714Y-132524295D01*
X149329714Y-132524295D02*
X149329714Y-132619533D01*
X149329714Y-132619533D02*
X149282095Y-132762390D01*
X149282095Y-132762390D02*
X148710667Y-133333819D01*
X148710667Y-133333819D02*
X149329714Y-133333819D01*
X138898333Y-120342819D02*
X138565000Y-119866628D01*
X138326905Y-120342819D02*
X138326905Y-119342819D01*
X138326905Y-119342819D02*
X138707857Y-119342819D01*
X138707857Y-119342819D02*
X138803095Y-119390438D01*
X138803095Y-119390438D02*
X138850714Y-119438057D01*
X138850714Y-119438057D02*
X138898333Y-119533295D01*
X138898333Y-119533295D02*
X138898333Y-119676152D01*
X138898333Y-119676152D02*
X138850714Y-119771390D01*
X138850714Y-119771390D02*
X138803095Y-119819009D01*
X138803095Y-119819009D02*
X138707857Y-119866628D01*
X138707857Y-119866628D02*
X138326905Y-119866628D01*
X139231667Y-119342819D02*
X139850714Y-119342819D01*
X139850714Y-119342819D02*
X139517381Y-119723771D01*
X139517381Y-119723771D02*
X139660238Y-119723771D01*
X139660238Y-119723771D02*
X139755476Y-119771390D01*
X139755476Y-119771390D02*
X139803095Y-119819009D01*
X139803095Y-119819009D02*
X139850714Y-119914247D01*
X139850714Y-119914247D02*
X139850714Y-120152342D01*
X139850714Y-120152342D02*
X139803095Y-120247580D01*
X139803095Y-120247580D02*
X139755476Y-120295200D01*
X139755476Y-120295200D02*
X139660238Y-120342819D01*
X139660238Y-120342819D02*
X139374524Y-120342819D01*
X139374524Y-120342819D02*
X139279286Y-120295200D01*
X139279286Y-120295200D02*
X139231667Y-120247580D01*
X145034095Y-118326819D02*
X145034095Y-119136342D01*
X145034095Y-119136342D02*
X145081714Y-119231580D01*
X145081714Y-119231580D02*
X145129333Y-119279200D01*
X145129333Y-119279200D02*
X145224571Y-119326819D01*
X145224571Y-119326819D02*
X145415047Y-119326819D01*
X145415047Y-119326819D02*
X145510285Y-119279200D01*
X145510285Y-119279200D02*
X145557904Y-119231580D01*
X145557904Y-119231580D02*
X145605523Y-119136342D01*
X145605523Y-119136342D02*
X145605523Y-118326819D01*
X145986476Y-118326819D02*
X146605523Y-118326819D01*
X146605523Y-118326819D02*
X146272190Y-118707771D01*
X146272190Y-118707771D02*
X146415047Y-118707771D01*
X146415047Y-118707771D02*
X146510285Y-118755390D01*
X146510285Y-118755390D02*
X146557904Y-118803009D01*
X146557904Y-118803009D02*
X146605523Y-118898247D01*
X146605523Y-118898247D02*
X146605523Y-119136342D01*
X146605523Y-119136342D02*
X146557904Y-119231580D01*
X146557904Y-119231580D02*
X146510285Y-119279200D01*
X146510285Y-119279200D02*
X146415047Y-119326819D01*
X146415047Y-119326819D02*
X146129333Y-119326819D01*
X146129333Y-119326819D02*
X146034095Y-119279200D01*
X146034095Y-119279200D02*
X145986476Y-119231580D01*
X137668095Y-121374819D02*
X137668095Y-122184342D01*
X137668095Y-122184342D02*
X137715714Y-122279580D01*
X137715714Y-122279580D02*
X137763333Y-122327200D01*
X137763333Y-122327200D02*
X137858571Y-122374819D01*
X137858571Y-122374819D02*
X138049047Y-122374819D01*
X138049047Y-122374819D02*
X138144285Y-122327200D01*
X138144285Y-122327200D02*
X138191904Y-122279580D01*
X138191904Y-122279580D02*
X138239523Y-122184342D01*
X138239523Y-122184342D02*
X138239523Y-121374819D01*
X138668095Y-121470057D02*
X138715714Y-121422438D01*
X138715714Y-121422438D02*
X138810952Y-121374819D01*
X138810952Y-121374819D02*
X139049047Y-121374819D01*
X139049047Y-121374819D02*
X139144285Y-121422438D01*
X139144285Y-121422438D02*
X139191904Y-121470057D01*
X139191904Y-121470057D02*
X139239523Y-121565295D01*
X139239523Y-121565295D02*
X139239523Y-121660533D01*
X139239523Y-121660533D02*
X139191904Y-121803390D01*
X139191904Y-121803390D02*
X138620476Y-122374819D01*
X138620476Y-122374819D02*
X139239523Y-122374819D01*
X139025333Y-126729819D02*
X138692000Y-126253628D01*
X138453905Y-126729819D02*
X138453905Y-125729819D01*
X138453905Y-125729819D02*
X138834857Y-125729819D01*
X138834857Y-125729819D02*
X138930095Y-125777438D01*
X138930095Y-125777438D02*
X138977714Y-125825057D01*
X138977714Y-125825057D02*
X139025333Y-125920295D01*
X139025333Y-125920295D02*
X139025333Y-126063152D01*
X139025333Y-126063152D02*
X138977714Y-126158390D01*
X138977714Y-126158390D02*
X138930095Y-126206009D01*
X138930095Y-126206009D02*
X138834857Y-126253628D01*
X138834857Y-126253628D02*
X138453905Y-126253628D01*
X139882476Y-126063152D02*
X139882476Y-126729819D01*
X139644381Y-125682200D02*
X139406286Y-126396485D01*
X139406286Y-126396485D02*
X140025333Y-126396485D01*
X148377333Y-130952580D02*
X148329714Y-131000200D01*
X148329714Y-131000200D02*
X148186857Y-131047819D01*
X148186857Y-131047819D02*
X148091619Y-131047819D01*
X148091619Y-131047819D02*
X147948762Y-131000200D01*
X147948762Y-131000200D02*
X147853524Y-130904961D01*
X147853524Y-130904961D02*
X147805905Y-130809723D01*
X147805905Y-130809723D02*
X147758286Y-130619247D01*
X147758286Y-130619247D02*
X147758286Y-130476390D01*
X147758286Y-130476390D02*
X147805905Y-130285914D01*
X147805905Y-130285914D02*
X147853524Y-130190676D01*
X147853524Y-130190676D02*
X147948762Y-130095438D01*
X147948762Y-130095438D02*
X148091619Y-130047819D01*
X148091619Y-130047819D02*
X148186857Y-130047819D01*
X148186857Y-130047819D02*
X148329714Y-130095438D01*
X148329714Y-130095438D02*
X148377333Y-130143057D01*
X149282095Y-130047819D02*
X148805905Y-130047819D01*
X148805905Y-130047819D02*
X148758286Y-130524009D01*
X148758286Y-130524009D02*
X148805905Y-130476390D01*
X148805905Y-130476390D02*
X148901143Y-130428771D01*
X148901143Y-130428771D02*
X149139238Y-130428771D01*
X149139238Y-130428771D02*
X149234476Y-130476390D01*
X149234476Y-130476390D02*
X149282095Y-130524009D01*
X149282095Y-130524009D02*
X149329714Y-130619247D01*
X149329714Y-130619247D02*
X149329714Y-130857342D01*
X149329714Y-130857342D02*
X149282095Y-130952580D01*
X149282095Y-130952580D02*
X149234476Y-131000200D01*
X149234476Y-131000200D02*
X149139238Y-131047819D01*
X149139238Y-131047819D02*
X148901143Y-131047819D01*
X148901143Y-131047819D02*
X148805905Y-131000200D01*
X148805905Y-131000200D02*
X148758286Y-130952580D01*
X141423333Y-115794580D02*
X141375714Y-115842200D01*
X141375714Y-115842200D02*
X141232857Y-115889819D01*
X141232857Y-115889819D02*
X141137619Y-115889819D01*
X141137619Y-115889819D02*
X140994762Y-115842200D01*
X140994762Y-115842200D02*
X140899524Y-115746961D01*
X140899524Y-115746961D02*
X140851905Y-115651723D01*
X140851905Y-115651723D02*
X140804286Y-115461247D01*
X140804286Y-115461247D02*
X140804286Y-115318390D01*
X140804286Y-115318390D02*
X140851905Y-115127914D01*
X140851905Y-115127914D02*
X140899524Y-115032676D01*
X140899524Y-115032676D02*
X140994762Y-114937438D01*
X140994762Y-114937438D02*
X141137619Y-114889819D01*
X141137619Y-114889819D02*
X141232857Y-114889819D01*
X141232857Y-114889819D02*
X141375714Y-114937438D01*
X141375714Y-114937438D02*
X141423333Y-114985057D01*
X142280476Y-114889819D02*
X142090000Y-114889819D01*
X142090000Y-114889819D02*
X141994762Y-114937438D01*
X141994762Y-114937438D02*
X141947143Y-114985057D01*
X141947143Y-114985057D02*
X141851905Y-115127914D01*
X141851905Y-115127914D02*
X141804286Y-115318390D01*
X141804286Y-115318390D02*
X141804286Y-115699342D01*
X141804286Y-115699342D02*
X141851905Y-115794580D01*
X141851905Y-115794580D02*
X141899524Y-115842200D01*
X141899524Y-115842200D02*
X141994762Y-115889819D01*
X141994762Y-115889819D02*
X142185238Y-115889819D01*
X142185238Y-115889819D02*
X142280476Y-115842200D01*
X142280476Y-115842200D02*
X142328095Y-115794580D01*
X142328095Y-115794580D02*
X142375714Y-115699342D01*
X142375714Y-115699342D02*
X142375714Y-115461247D01*
X142375714Y-115461247D02*
X142328095Y-115366009D01*
X142328095Y-115366009D02*
X142280476Y-115318390D01*
X142280476Y-115318390D02*
X142185238Y-115270771D01*
X142185238Y-115270771D02*
X141994762Y-115270771D01*
X141994762Y-115270771D02*
X141899524Y-115318390D01*
X141899524Y-115318390D02*
X141851905Y-115366009D01*
X141851905Y-115366009D02*
X141804286Y-115461247D01*
X148377333Y-128412580D02*
X148329714Y-128460200D01*
X148329714Y-128460200D02*
X148186857Y-128507819D01*
X148186857Y-128507819D02*
X148091619Y-128507819D01*
X148091619Y-128507819D02*
X147948762Y-128460200D01*
X147948762Y-128460200D02*
X147853524Y-128364961D01*
X147853524Y-128364961D02*
X147805905Y-128269723D01*
X147805905Y-128269723D02*
X147758286Y-128079247D01*
X147758286Y-128079247D02*
X147758286Y-127936390D01*
X147758286Y-127936390D02*
X147805905Y-127745914D01*
X147805905Y-127745914D02*
X147853524Y-127650676D01*
X147853524Y-127650676D02*
X147948762Y-127555438D01*
X147948762Y-127555438D02*
X148091619Y-127507819D01*
X148091619Y-127507819D02*
X148186857Y-127507819D01*
X148186857Y-127507819D02*
X148329714Y-127555438D01*
X148329714Y-127555438D02*
X148377333Y-127603057D01*
X148758286Y-127603057D02*
X148805905Y-127555438D01*
X148805905Y-127555438D02*
X148901143Y-127507819D01*
X148901143Y-127507819D02*
X149139238Y-127507819D01*
X149139238Y-127507819D02*
X149234476Y-127555438D01*
X149234476Y-127555438D02*
X149282095Y-127603057D01*
X149282095Y-127603057D02*
X149329714Y-127698295D01*
X149329714Y-127698295D02*
X149329714Y-127793533D01*
X149329714Y-127793533D02*
X149282095Y-127936390D01*
X149282095Y-127936390D02*
X148710667Y-128507819D01*
X148710667Y-128507819D02*
X149329714Y-128507819D01*
X141523333Y-130794580D02*
X141475714Y-130842200D01*
X141475714Y-130842200D02*
X141332857Y-130889819D01*
X141332857Y-130889819D02*
X141237619Y-130889819D01*
X141237619Y-130889819D02*
X141094762Y-130842200D01*
X141094762Y-130842200D02*
X140999524Y-130746961D01*
X140999524Y-130746961D02*
X140951905Y-130651723D01*
X140951905Y-130651723D02*
X140904286Y-130461247D01*
X140904286Y-130461247D02*
X140904286Y-130318390D01*
X140904286Y-130318390D02*
X140951905Y-130127914D01*
X140951905Y-130127914D02*
X140999524Y-130032676D01*
X140999524Y-130032676D02*
X141094762Y-129937438D01*
X141094762Y-129937438D02*
X141237619Y-129889819D01*
X141237619Y-129889819D02*
X141332857Y-129889819D01*
X141332857Y-129889819D02*
X141475714Y-129937438D01*
X141475714Y-129937438D02*
X141523333Y-129985057D01*
X142380476Y-130223152D02*
X142380476Y-130889819D01*
X142142381Y-129842200D02*
X141904286Y-130556485D01*
X141904286Y-130556485D02*
X142523333Y-130556485D01*
X164425333Y-124152819D02*
X164092000Y-123676628D01*
X163853905Y-124152819D02*
X163853905Y-123152819D01*
X163853905Y-123152819D02*
X164234857Y-123152819D01*
X164234857Y-123152819D02*
X164330095Y-123200438D01*
X164330095Y-123200438D02*
X164377714Y-123248057D01*
X164377714Y-123248057D02*
X164425333Y-123343295D01*
X164425333Y-123343295D02*
X164425333Y-123486152D01*
X164425333Y-123486152D02*
X164377714Y-123581390D01*
X164377714Y-123581390D02*
X164330095Y-123629009D01*
X164330095Y-123629009D02*
X164234857Y-123676628D01*
X164234857Y-123676628D02*
X163853905Y-123676628D01*
X165377714Y-124152819D02*
X164806286Y-124152819D01*
X165092000Y-124152819D02*
X165092000Y-123152819D01*
X165092000Y-123152819D02*
X164996762Y-123295676D01*
X164996762Y-123295676D02*
X164901524Y-123390914D01*
X164901524Y-123390914D02*
X164806286Y-123438533D01*
X200427333Y-101959580D02*
X200379714Y-102007200D01*
X200379714Y-102007200D02*
X200236857Y-102054819D01*
X200236857Y-102054819D02*
X200141619Y-102054819D01*
X200141619Y-102054819D02*
X199998762Y-102007200D01*
X199998762Y-102007200D02*
X199903524Y-101911961D01*
X199903524Y-101911961D02*
X199855905Y-101816723D01*
X199855905Y-101816723D02*
X199808286Y-101626247D01*
X199808286Y-101626247D02*
X199808286Y-101483390D01*
X199808286Y-101483390D02*
X199855905Y-101292914D01*
X199855905Y-101292914D02*
X199903524Y-101197676D01*
X199903524Y-101197676D02*
X199998762Y-101102438D01*
X199998762Y-101102438D02*
X200141619Y-101054819D01*
X200141619Y-101054819D02*
X200236857Y-101054819D01*
X200236857Y-101054819D02*
X200379714Y-101102438D01*
X200379714Y-101102438D02*
X200427333Y-101150057D01*
X200903524Y-102054819D02*
X201094000Y-102054819D01*
X201094000Y-102054819D02*
X201189238Y-102007200D01*
X201189238Y-102007200D02*
X201236857Y-101959580D01*
X201236857Y-101959580D02*
X201332095Y-101816723D01*
X201332095Y-101816723D02*
X201379714Y-101626247D01*
X201379714Y-101626247D02*
X201379714Y-101245295D01*
X201379714Y-101245295D02*
X201332095Y-101150057D01*
X201332095Y-101150057D02*
X201284476Y-101102438D01*
X201284476Y-101102438D02*
X201189238Y-101054819D01*
X201189238Y-101054819D02*
X200998762Y-101054819D01*
X200998762Y-101054819D02*
X200903524Y-101102438D01*
X200903524Y-101102438D02*
X200855905Y-101150057D01*
X200855905Y-101150057D02*
X200808286Y-101245295D01*
X200808286Y-101245295D02*
X200808286Y-101483390D01*
X200808286Y-101483390D02*
X200855905Y-101578628D01*
X200855905Y-101578628D02*
X200903524Y-101626247D01*
X200903524Y-101626247D02*
X200998762Y-101673866D01*
X200998762Y-101673866D02*
X201189238Y-101673866D01*
X201189238Y-101673866D02*
X201284476Y-101626247D01*
X201284476Y-101626247D02*
X201332095Y-101578628D01*
X201332095Y-101578628D02*
X201379714Y-101483390D01*
X104857142Y-105929580D02*
X104809523Y-105977200D01*
X104809523Y-105977200D02*
X104666666Y-106024819D01*
X104666666Y-106024819D02*
X104571428Y-106024819D01*
X104571428Y-106024819D02*
X104428571Y-105977200D01*
X104428571Y-105977200D02*
X104333333Y-105881961D01*
X104333333Y-105881961D02*
X104285714Y-105786723D01*
X104285714Y-105786723D02*
X104238095Y-105596247D01*
X104238095Y-105596247D02*
X104238095Y-105453390D01*
X104238095Y-105453390D02*
X104285714Y-105262914D01*
X104285714Y-105262914D02*
X104333333Y-105167676D01*
X104333333Y-105167676D02*
X104428571Y-105072438D01*
X104428571Y-105072438D02*
X104571428Y-105024819D01*
X104571428Y-105024819D02*
X104666666Y-105024819D01*
X104666666Y-105024819D02*
X104809523Y-105072438D01*
X104809523Y-105072438D02*
X104857142Y-105120057D01*
X105809523Y-106024819D02*
X105238095Y-106024819D01*
X105523809Y-106024819D02*
X105523809Y-105024819D01*
X105523809Y-105024819D02*
X105428571Y-105167676D01*
X105428571Y-105167676D02*
X105333333Y-105262914D01*
X105333333Y-105262914D02*
X105238095Y-105310533D01*
X106666666Y-105024819D02*
X106476190Y-105024819D01*
X106476190Y-105024819D02*
X106380952Y-105072438D01*
X106380952Y-105072438D02*
X106333333Y-105120057D01*
X106333333Y-105120057D02*
X106238095Y-105262914D01*
X106238095Y-105262914D02*
X106190476Y-105453390D01*
X106190476Y-105453390D02*
X106190476Y-105834342D01*
X106190476Y-105834342D02*
X106238095Y-105929580D01*
X106238095Y-105929580D02*
X106285714Y-105977200D01*
X106285714Y-105977200D02*
X106380952Y-106024819D01*
X106380952Y-106024819D02*
X106571428Y-106024819D01*
X106571428Y-106024819D02*
X106666666Y-105977200D01*
X106666666Y-105977200D02*
X106714285Y-105929580D01*
X106714285Y-105929580D02*
X106761904Y-105834342D01*
X106761904Y-105834342D02*
X106761904Y-105596247D01*
X106761904Y-105596247D02*
X106714285Y-105501009D01*
X106714285Y-105501009D02*
X106666666Y-105453390D01*
X106666666Y-105453390D02*
X106571428Y-105405771D01*
X106571428Y-105405771D02*
X106380952Y-105405771D01*
X106380952Y-105405771D02*
X106285714Y-105453390D01*
X106285714Y-105453390D02*
X106238095Y-105501009D01*
X106238095Y-105501009D02*
X106190476Y-105596247D01*
X201509333Y-124057580D02*
X201461714Y-124105200D01*
X201461714Y-124105200D02*
X201318857Y-124152819D01*
X201318857Y-124152819D02*
X201223619Y-124152819D01*
X201223619Y-124152819D02*
X201080762Y-124105200D01*
X201080762Y-124105200D02*
X200985524Y-124009961D01*
X200985524Y-124009961D02*
X200937905Y-123914723D01*
X200937905Y-123914723D02*
X200890286Y-123724247D01*
X200890286Y-123724247D02*
X200890286Y-123581390D01*
X200890286Y-123581390D02*
X200937905Y-123390914D01*
X200937905Y-123390914D02*
X200985524Y-123295676D01*
X200985524Y-123295676D02*
X201080762Y-123200438D01*
X201080762Y-123200438D02*
X201223619Y-123152819D01*
X201223619Y-123152819D02*
X201318857Y-123152819D01*
X201318857Y-123152819D02*
X201461714Y-123200438D01*
X201461714Y-123200438D02*
X201509333Y-123248057D01*
X202461714Y-124152819D02*
X201890286Y-124152819D01*
X202176000Y-124152819D02*
X202176000Y-123152819D01*
X202176000Y-123152819D02*
X202080762Y-123295676D01*
X202080762Y-123295676D02*
X201985524Y-123390914D01*
X201985524Y-123390914D02*
X201890286Y-123438533D01*
X112133142Y-92561580D02*
X112085523Y-92609200D01*
X112085523Y-92609200D02*
X111942666Y-92656819D01*
X111942666Y-92656819D02*
X111847428Y-92656819D01*
X111847428Y-92656819D02*
X111704571Y-92609200D01*
X111704571Y-92609200D02*
X111609333Y-92513961D01*
X111609333Y-92513961D02*
X111561714Y-92418723D01*
X111561714Y-92418723D02*
X111514095Y-92228247D01*
X111514095Y-92228247D02*
X111514095Y-92085390D01*
X111514095Y-92085390D02*
X111561714Y-91894914D01*
X111561714Y-91894914D02*
X111609333Y-91799676D01*
X111609333Y-91799676D02*
X111704571Y-91704438D01*
X111704571Y-91704438D02*
X111847428Y-91656819D01*
X111847428Y-91656819D02*
X111942666Y-91656819D01*
X111942666Y-91656819D02*
X112085523Y-91704438D01*
X112085523Y-91704438D02*
X112133142Y-91752057D01*
X113085523Y-92656819D02*
X112514095Y-92656819D01*
X112799809Y-92656819D02*
X112799809Y-91656819D01*
X112799809Y-91656819D02*
X112704571Y-91799676D01*
X112704571Y-91799676D02*
X112609333Y-91894914D01*
X112609333Y-91894914D02*
X112514095Y-91942533D01*
X113990285Y-91656819D02*
X113514095Y-91656819D01*
X113514095Y-91656819D02*
X113466476Y-92133009D01*
X113466476Y-92133009D02*
X113514095Y-92085390D01*
X113514095Y-92085390D02*
X113609333Y-92037771D01*
X113609333Y-92037771D02*
X113847428Y-92037771D01*
X113847428Y-92037771D02*
X113942666Y-92085390D01*
X113942666Y-92085390D02*
X113990285Y-92133009D01*
X113990285Y-92133009D02*
X114037904Y-92228247D01*
X114037904Y-92228247D02*
X114037904Y-92466342D01*
X114037904Y-92466342D02*
X113990285Y-92561580D01*
X113990285Y-92561580D02*
X113942666Y-92609200D01*
X113942666Y-92609200D02*
X113847428Y-92656819D01*
X113847428Y-92656819D02*
X113609333Y-92656819D01*
X113609333Y-92656819D02*
X113514095Y-92609200D01*
X113514095Y-92609200D02*
X113466476Y-92561580D01*
X200017142Y-129391580D02*
X199969523Y-129439200D01*
X199969523Y-129439200D02*
X199826666Y-129486819D01*
X199826666Y-129486819D02*
X199731428Y-129486819D01*
X199731428Y-129486819D02*
X199588571Y-129439200D01*
X199588571Y-129439200D02*
X199493333Y-129343961D01*
X199493333Y-129343961D02*
X199445714Y-129248723D01*
X199445714Y-129248723D02*
X199398095Y-129058247D01*
X199398095Y-129058247D02*
X199398095Y-128915390D01*
X199398095Y-128915390D02*
X199445714Y-128724914D01*
X199445714Y-128724914D02*
X199493333Y-128629676D01*
X199493333Y-128629676D02*
X199588571Y-128534438D01*
X199588571Y-128534438D02*
X199731428Y-128486819D01*
X199731428Y-128486819D02*
X199826666Y-128486819D01*
X199826666Y-128486819D02*
X199969523Y-128534438D01*
X199969523Y-128534438D02*
X200017142Y-128582057D01*
X200969523Y-129486819D02*
X200398095Y-129486819D01*
X200683809Y-129486819D02*
X200683809Y-128486819D01*
X200683809Y-128486819D02*
X200588571Y-128629676D01*
X200588571Y-128629676D02*
X200493333Y-128724914D01*
X200493333Y-128724914D02*
X200398095Y-128772533D01*
X201350476Y-128582057D02*
X201398095Y-128534438D01*
X201398095Y-128534438D02*
X201493333Y-128486819D01*
X201493333Y-128486819D02*
X201731428Y-128486819D01*
X201731428Y-128486819D02*
X201826666Y-128534438D01*
X201826666Y-128534438D02*
X201874285Y-128582057D01*
X201874285Y-128582057D02*
X201921904Y-128677295D01*
X201921904Y-128677295D02*
X201921904Y-128772533D01*
X201921904Y-128772533D02*
X201874285Y-128915390D01*
X201874285Y-128915390D02*
X201302857Y-129486819D01*
X201302857Y-129486819D02*
X201921904Y-129486819D01*
X104889142Y-101668819D02*
X104555809Y-101192628D01*
X104317714Y-101668819D02*
X104317714Y-100668819D01*
X104317714Y-100668819D02*
X104698666Y-100668819D01*
X104698666Y-100668819D02*
X104793904Y-100716438D01*
X104793904Y-100716438D02*
X104841523Y-100764057D01*
X104841523Y-100764057D02*
X104889142Y-100859295D01*
X104889142Y-100859295D02*
X104889142Y-101002152D01*
X104889142Y-101002152D02*
X104841523Y-101097390D01*
X104841523Y-101097390D02*
X104793904Y-101145009D01*
X104793904Y-101145009D02*
X104698666Y-101192628D01*
X104698666Y-101192628D02*
X104317714Y-101192628D01*
X105841523Y-101668819D02*
X105270095Y-101668819D01*
X105555809Y-101668819D02*
X105555809Y-100668819D01*
X105555809Y-100668819D02*
X105460571Y-100811676D01*
X105460571Y-100811676D02*
X105365333Y-100906914D01*
X105365333Y-100906914D02*
X105270095Y-100954533D01*
X106460571Y-100668819D02*
X106555809Y-100668819D01*
X106555809Y-100668819D02*
X106651047Y-100716438D01*
X106651047Y-100716438D02*
X106698666Y-100764057D01*
X106698666Y-100764057D02*
X106746285Y-100859295D01*
X106746285Y-100859295D02*
X106793904Y-101049771D01*
X106793904Y-101049771D02*
X106793904Y-101287866D01*
X106793904Y-101287866D02*
X106746285Y-101478342D01*
X106746285Y-101478342D02*
X106698666Y-101573580D01*
X106698666Y-101573580D02*
X106651047Y-101621200D01*
X106651047Y-101621200D02*
X106555809Y-101668819D01*
X106555809Y-101668819D02*
X106460571Y-101668819D01*
X106460571Y-101668819D02*
X106365333Y-101621200D01*
X106365333Y-101621200D02*
X106317714Y-101573580D01*
X106317714Y-101573580D02*
X106270095Y-101478342D01*
X106270095Y-101478342D02*
X106222476Y-101287866D01*
X106222476Y-101287866D02*
X106222476Y-101049771D01*
X106222476Y-101049771D02*
X106270095Y-100859295D01*
X106270095Y-100859295D02*
X106317714Y-100764057D01*
X106317714Y-100764057D02*
X106365333Y-100716438D01*
X106365333Y-100716438D02*
X106460571Y-100668819D01*
X200017142Y-126597580D02*
X199969523Y-126645200D01*
X199969523Y-126645200D02*
X199826666Y-126692819D01*
X199826666Y-126692819D02*
X199731428Y-126692819D01*
X199731428Y-126692819D02*
X199588571Y-126645200D01*
X199588571Y-126645200D02*
X199493333Y-126549961D01*
X199493333Y-126549961D02*
X199445714Y-126454723D01*
X199445714Y-126454723D02*
X199398095Y-126264247D01*
X199398095Y-126264247D02*
X199398095Y-126121390D01*
X199398095Y-126121390D02*
X199445714Y-125930914D01*
X199445714Y-125930914D02*
X199493333Y-125835676D01*
X199493333Y-125835676D02*
X199588571Y-125740438D01*
X199588571Y-125740438D02*
X199731428Y-125692819D01*
X199731428Y-125692819D02*
X199826666Y-125692819D01*
X199826666Y-125692819D02*
X199969523Y-125740438D01*
X199969523Y-125740438D02*
X200017142Y-125788057D01*
X200969523Y-126692819D02*
X200398095Y-126692819D01*
X200683809Y-126692819D02*
X200683809Y-125692819D01*
X200683809Y-125692819D02*
X200588571Y-125835676D01*
X200588571Y-125835676D02*
X200493333Y-125930914D01*
X200493333Y-125930914D02*
X200398095Y-125978533D01*
X201921904Y-126692819D02*
X201350476Y-126692819D01*
X201636190Y-126692819D02*
X201636190Y-125692819D01*
X201636190Y-125692819D02*
X201540952Y-125835676D01*
X201540952Y-125835676D02*
X201445714Y-125930914D01*
X201445714Y-125930914D02*
X201350476Y-125978533D01*
X186523333Y-111865580D02*
X186475714Y-111913200D01*
X186475714Y-111913200D02*
X186332857Y-111960819D01*
X186332857Y-111960819D02*
X186237619Y-111960819D01*
X186237619Y-111960819D02*
X186094762Y-111913200D01*
X186094762Y-111913200D02*
X185999524Y-111817961D01*
X185999524Y-111817961D02*
X185951905Y-111722723D01*
X185951905Y-111722723D02*
X185904286Y-111532247D01*
X185904286Y-111532247D02*
X185904286Y-111389390D01*
X185904286Y-111389390D02*
X185951905Y-111198914D01*
X185951905Y-111198914D02*
X185999524Y-111103676D01*
X185999524Y-111103676D02*
X186094762Y-111008438D01*
X186094762Y-111008438D02*
X186237619Y-110960819D01*
X186237619Y-110960819D02*
X186332857Y-110960819D01*
X186332857Y-110960819D02*
X186475714Y-111008438D01*
X186475714Y-111008438D02*
X186523333Y-111056057D01*
X187094762Y-111389390D02*
X186999524Y-111341771D01*
X186999524Y-111341771D02*
X186951905Y-111294152D01*
X186951905Y-111294152D02*
X186904286Y-111198914D01*
X186904286Y-111198914D02*
X186904286Y-111151295D01*
X186904286Y-111151295D02*
X186951905Y-111056057D01*
X186951905Y-111056057D02*
X186999524Y-111008438D01*
X186999524Y-111008438D02*
X187094762Y-110960819D01*
X187094762Y-110960819D02*
X187285238Y-110960819D01*
X187285238Y-110960819D02*
X187380476Y-111008438D01*
X187380476Y-111008438D02*
X187428095Y-111056057D01*
X187428095Y-111056057D02*
X187475714Y-111151295D01*
X187475714Y-111151295D02*
X187475714Y-111198914D01*
X187475714Y-111198914D02*
X187428095Y-111294152D01*
X187428095Y-111294152D02*
X187380476Y-111341771D01*
X187380476Y-111341771D02*
X187285238Y-111389390D01*
X187285238Y-111389390D02*
X187094762Y-111389390D01*
X187094762Y-111389390D02*
X186999524Y-111437009D01*
X186999524Y-111437009D02*
X186951905Y-111484628D01*
X186951905Y-111484628D02*
X186904286Y-111579866D01*
X186904286Y-111579866D02*
X186904286Y-111770342D01*
X186904286Y-111770342D02*
X186951905Y-111865580D01*
X186951905Y-111865580D02*
X186999524Y-111913200D01*
X186999524Y-111913200D02*
X187094762Y-111960819D01*
X187094762Y-111960819D02*
X187285238Y-111960819D01*
X187285238Y-111960819D02*
X187380476Y-111913200D01*
X187380476Y-111913200D02*
X187428095Y-111865580D01*
X187428095Y-111865580D02*
X187475714Y-111770342D01*
X187475714Y-111770342D02*
X187475714Y-111579866D01*
X187475714Y-111579866D02*
X187428095Y-111484628D01*
X187428095Y-111484628D02*
X187380476Y-111437009D01*
X187380476Y-111437009D02*
X187285238Y-111389390D01*
X111120642Y-112432580D02*
X111073023Y-112480200D01*
X111073023Y-112480200D02*
X110930166Y-112527819D01*
X110930166Y-112527819D02*
X110834928Y-112527819D01*
X110834928Y-112527819D02*
X110692071Y-112480200D01*
X110692071Y-112480200D02*
X110596833Y-112384961D01*
X110596833Y-112384961D02*
X110549214Y-112289723D01*
X110549214Y-112289723D02*
X110501595Y-112099247D01*
X110501595Y-112099247D02*
X110501595Y-111956390D01*
X110501595Y-111956390D02*
X110549214Y-111765914D01*
X110549214Y-111765914D02*
X110596833Y-111670676D01*
X110596833Y-111670676D02*
X110692071Y-111575438D01*
X110692071Y-111575438D02*
X110834928Y-111527819D01*
X110834928Y-111527819D02*
X110930166Y-111527819D01*
X110930166Y-111527819D02*
X111073023Y-111575438D01*
X111073023Y-111575438D02*
X111120642Y-111623057D01*
X112073023Y-112527819D02*
X111501595Y-112527819D01*
X111787309Y-112527819D02*
X111787309Y-111527819D01*
X111787309Y-111527819D02*
X111692071Y-111670676D01*
X111692071Y-111670676D02*
X111596833Y-111765914D01*
X111596833Y-111765914D02*
X111501595Y-111813533D01*
X112406357Y-111527819D02*
X113025404Y-111527819D01*
X113025404Y-111527819D02*
X112692071Y-111908771D01*
X112692071Y-111908771D02*
X112834928Y-111908771D01*
X112834928Y-111908771D02*
X112930166Y-111956390D01*
X112930166Y-111956390D02*
X112977785Y-112004009D01*
X112977785Y-112004009D02*
X113025404Y-112099247D01*
X113025404Y-112099247D02*
X113025404Y-112337342D01*
X113025404Y-112337342D02*
X112977785Y-112432580D01*
X112977785Y-112432580D02*
X112930166Y-112480200D01*
X112930166Y-112480200D02*
X112834928Y-112527819D01*
X112834928Y-112527819D02*
X112549214Y-112527819D01*
X112549214Y-112527819D02*
X112453976Y-112480200D01*
X112453976Y-112480200D02*
X112406357Y-112432580D01*
X105365333Y-98252819D02*
X105032000Y-97776628D01*
X104793905Y-98252819D02*
X104793905Y-97252819D01*
X104793905Y-97252819D02*
X105174857Y-97252819D01*
X105174857Y-97252819D02*
X105270095Y-97300438D01*
X105270095Y-97300438D02*
X105317714Y-97348057D01*
X105317714Y-97348057D02*
X105365333Y-97443295D01*
X105365333Y-97443295D02*
X105365333Y-97586152D01*
X105365333Y-97586152D02*
X105317714Y-97681390D01*
X105317714Y-97681390D02*
X105270095Y-97729009D01*
X105270095Y-97729009D02*
X105174857Y-97776628D01*
X105174857Y-97776628D02*
X104793905Y-97776628D01*
X105841524Y-98252819D02*
X106032000Y-98252819D01*
X106032000Y-98252819D02*
X106127238Y-98205200D01*
X106127238Y-98205200D02*
X106174857Y-98157580D01*
X106174857Y-98157580D02*
X106270095Y-98014723D01*
X106270095Y-98014723D02*
X106317714Y-97824247D01*
X106317714Y-97824247D02*
X106317714Y-97443295D01*
X106317714Y-97443295D02*
X106270095Y-97348057D01*
X106270095Y-97348057D02*
X106222476Y-97300438D01*
X106222476Y-97300438D02*
X106127238Y-97252819D01*
X106127238Y-97252819D02*
X105936762Y-97252819D01*
X105936762Y-97252819D02*
X105841524Y-97300438D01*
X105841524Y-97300438D02*
X105793905Y-97348057D01*
X105793905Y-97348057D02*
X105746286Y-97443295D01*
X105746286Y-97443295D02*
X105746286Y-97681390D01*
X105746286Y-97681390D02*
X105793905Y-97776628D01*
X105793905Y-97776628D02*
X105841524Y-97824247D01*
X105841524Y-97824247D02*
X105936762Y-97871866D01*
X105936762Y-97871866D02*
X106127238Y-97871866D01*
X106127238Y-97871866D02*
X106222476Y-97824247D01*
X106222476Y-97824247D02*
X106270095Y-97776628D01*
X106270095Y-97776628D02*
X106317714Y-97681390D01*
X100198667Y-94631200D02*
X100341524Y-94678819D01*
X100341524Y-94678819D02*
X100579619Y-94678819D01*
X100579619Y-94678819D02*
X100674857Y-94631200D01*
X100674857Y-94631200D02*
X100722476Y-94583580D01*
X100722476Y-94583580D02*
X100770095Y-94488342D01*
X100770095Y-94488342D02*
X100770095Y-94393104D01*
X100770095Y-94393104D02*
X100722476Y-94297866D01*
X100722476Y-94297866D02*
X100674857Y-94250247D01*
X100674857Y-94250247D02*
X100579619Y-94202628D01*
X100579619Y-94202628D02*
X100389143Y-94155009D01*
X100389143Y-94155009D02*
X100293905Y-94107390D01*
X100293905Y-94107390D02*
X100246286Y-94059771D01*
X100246286Y-94059771D02*
X100198667Y-93964533D01*
X100198667Y-93964533D02*
X100198667Y-93869295D01*
X100198667Y-93869295D02*
X100246286Y-93774057D01*
X100246286Y-93774057D02*
X100293905Y-93726438D01*
X100293905Y-93726438D02*
X100389143Y-93678819D01*
X100389143Y-93678819D02*
X100627238Y-93678819D01*
X100627238Y-93678819D02*
X100770095Y-93726438D01*
X101103429Y-93678819D02*
X101341524Y-94678819D01*
X101341524Y-94678819D02*
X101532000Y-93964533D01*
X101532000Y-93964533D02*
X101722476Y-94678819D01*
X101722476Y-94678819D02*
X101960572Y-93678819D01*
X102246286Y-93678819D02*
X102865333Y-93678819D01*
X102865333Y-93678819D02*
X102532000Y-94059771D01*
X102532000Y-94059771D02*
X102674857Y-94059771D01*
X102674857Y-94059771D02*
X102770095Y-94107390D01*
X102770095Y-94107390D02*
X102817714Y-94155009D01*
X102817714Y-94155009D02*
X102865333Y-94250247D01*
X102865333Y-94250247D02*
X102865333Y-94488342D01*
X102865333Y-94488342D02*
X102817714Y-94583580D01*
X102817714Y-94583580D02*
X102770095Y-94631200D01*
X102770095Y-94631200D02*
X102674857Y-94678819D01*
X102674857Y-94678819D02*
X102389143Y-94678819D01*
X102389143Y-94678819D02*
X102293905Y-94631200D01*
X102293905Y-94631200D02*
X102246286Y-94583580D01*
X121531142Y-115770819D02*
X121197809Y-115294628D01*
X120959714Y-115770819D02*
X120959714Y-114770819D01*
X120959714Y-114770819D02*
X121340666Y-114770819D01*
X121340666Y-114770819D02*
X121435904Y-114818438D01*
X121435904Y-114818438D02*
X121483523Y-114866057D01*
X121483523Y-114866057D02*
X121531142Y-114961295D01*
X121531142Y-114961295D02*
X121531142Y-115104152D01*
X121531142Y-115104152D02*
X121483523Y-115199390D01*
X121483523Y-115199390D02*
X121435904Y-115247009D01*
X121435904Y-115247009D02*
X121340666Y-115294628D01*
X121340666Y-115294628D02*
X120959714Y-115294628D01*
X122483523Y-115770819D02*
X121912095Y-115770819D01*
X122197809Y-115770819D02*
X122197809Y-114770819D01*
X122197809Y-114770819D02*
X122102571Y-114913676D01*
X122102571Y-114913676D02*
X122007333Y-115008914D01*
X122007333Y-115008914D02*
X121912095Y-115056533D01*
X122864476Y-114866057D02*
X122912095Y-114818438D01*
X122912095Y-114818438D02*
X123007333Y-114770819D01*
X123007333Y-114770819D02*
X123245428Y-114770819D01*
X123245428Y-114770819D02*
X123340666Y-114818438D01*
X123340666Y-114818438D02*
X123388285Y-114866057D01*
X123388285Y-114866057D02*
X123435904Y-114961295D01*
X123435904Y-114961295D02*
X123435904Y-115056533D01*
X123435904Y-115056533D02*
X123388285Y-115199390D01*
X123388285Y-115199390D02*
X122816857Y-115770819D01*
X122816857Y-115770819D02*
X123435904Y-115770819D01*
X121407642Y-112305580D02*
X121360023Y-112353200D01*
X121360023Y-112353200D02*
X121217166Y-112400819D01*
X121217166Y-112400819D02*
X121121928Y-112400819D01*
X121121928Y-112400819D02*
X120979071Y-112353200D01*
X120979071Y-112353200D02*
X120883833Y-112257961D01*
X120883833Y-112257961D02*
X120836214Y-112162723D01*
X120836214Y-112162723D02*
X120788595Y-111972247D01*
X120788595Y-111972247D02*
X120788595Y-111829390D01*
X120788595Y-111829390D02*
X120836214Y-111638914D01*
X120836214Y-111638914D02*
X120883833Y-111543676D01*
X120883833Y-111543676D02*
X120979071Y-111448438D01*
X120979071Y-111448438D02*
X121121928Y-111400819D01*
X121121928Y-111400819D02*
X121217166Y-111400819D01*
X121217166Y-111400819D02*
X121360023Y-111448438D01*
X121360023Y-111448438D02*
X121407642Y-111496057D01*
X122360023Y-112400819D02*
X121788595Y-112400819D01*
X122074309Y-112400819D02*
X122074309Y-111400819D01*
X122074309Y-111400819D02*
X121979071Y-111543676D01*
X121979071Y-111543676D02*
X121883833Y-111638914D01*
X121883833Y-111638914D02*
X121788595Y-111686533D01*
X123217166Y-111734152D02*
X123217166Y-112400819D01*
X122979071Y-111353200D02*
X122740976Y-112067485D01*
X122740976Y-112067485D02*
X123360023Y-112067485D01*
X111093642Y-115897819D02*
X110760309Y-115421628D01*
X110522214Y-115897819D02*
X110522214Y-114897819D01*
X110522214Y-114897819D02*
X110903166Y-114897819D01*
X110903166Y-114897819D02*
X110998404Y-114945438D01*
X110998404Y-114945438D02*
X111046023Y-114993057D01*
X111046023Y-114993057D02*
X111093642Y-115088295D01*
X111093642Y-115088295D02*
X111093642Y-115231152D01*
X111093642Y-115231152D02*
X111046023Y-115326390D01*
X111046023Y-115326390D02*
X110998404Y-115374009D01*
X110998404Y-115374009D02*
X110903166Y-115421628D01*
X110903166Y-115421628D02*
X110522214Y-115421628D01*
X112046023Y-115897819D02*
X111474595Y-115897819D01*
X111760309Y-115897819D02*
X111760309Y-114897819D01*
X111760309Y-114897819D02*
X111665071Y-115040676D01*
X111665071Y-115040676D02*
X111569833Y-115135914D01*
X111569833Y-115135914D02*
X111474595Y-115183533D01*
X112998404Y-115897819D02*
X112426976Y-115897819D01*
X112712690Y-115897819D02*
X112712690Y-114897819D01*
X112712690Y-114897819D02*
X112617452Y-115040676D01*
X112617452Y-115040676D02*
X112522214Y-115135914D01*
X112522214Y-115135914D02*
X112426976Y-115183533D01*
X105365333Y-94950819D02*
X105032000Y-94474628D01*
X104793905Y-94950819D02*
X104793905Y-93950819D01*
X104793905Y-93950819D02*
X105174857Y-93950819D01*
X105174857Y-93950819D02*
X105270095Y-93998438D01*
X105270095Y-93998438D02*
X105317714Y-94046057D01*
X105317714Y-94046057D02*
X105365333Y-94141295D01*
X105365333Y-94141295D02*
X105365333Y-94284152D01*
X105365333Y-94284152D02*
X105317714Y-94379390D01*
X105317714Y-94379390D02*
X105270095Y-94427009D01*
X105270095Y-94427009D02*
X105174857Y-94474628D01*
X105174857Y-94474628D02*
X104793905Y-94474628D01*
X105936762Y-94379390D02*
X105841524Y-94331771D01*
X105841524Y-94331771D02*
X105793905Y-94284152D01*
X105793905Y-94284152D02*
X105746286Y-94188914D01*
X105746286Y-94188914D02*
X105746286Y-94141295D01*
X105746286Y-94141295D02*
X105793905Y-94046057D01*
X105793905Y-94046057D02*
X105841524Y-93998438D01*
X105841524Y-93998438D02*
X105936762Y-93950819D01*
X105936762Y-93950819D02*
X106127238Y-93950819D01*
X106127238Y-93950819D02*
X106222476Y-93998438D01*
X106222476Y-93998438D02*
X106270095Y-94046057D01*
X106270095Y-94046057D02*
X106317714Y-94141295D01*
X106317714Y-94141295D02*
X106317714Y-94188914D01*
X106317714Y-94188914D02*
X106270095Y-94284152D01*
X106270095Y-94284152D02*
X106222476Y-94331771D01*
X106222476Y-94331771D02*
X106127238Y-94379390D01*
X106127238Y-94379390D02*
X105936762Y-94379390D01*
X105936762Y-94379390D02*
X105841524Y-94427009D01*
X105841524Y-94427009D02*
X105793905Y-94474628D01*
X105793905Y-94474628D02*
X105746286Y-94569866D01*
X105746286Y-94569866D02*
X105746286Y-94760342D01*
X105746286Y-94760342D02*
X105793905Y-94855580D01*
X105793905Y-94855580D02*
X105841524Y-94903200D01*
X105841524Y-94903200D02*
X105936762Y-94950819D01*
X105936762Y-94950819D02*
X106127238Y-94950819D01*
X106127238Y-94950819D02*
X106222476Y-94903200D01*
X106222476Y-94903200D02*
X106270095Y-94855580D01*
X106270095Y-94855580D02*
X106317714Y-94760342D01*
X106317714Y-94760342D02*
X106317714Y-94569866D01*
X106317714Y-94569866D02*
X106270095Y-94474628D01*
X106270095Y-94474628D02*
X106222476Y-94427009D01*
X106222476Y-94427009D02*
X106127238Y-94379390D01*
X104857142Y-111318819D02*
X104523809Y-110842628D01*
X104285714Y-111318819D02*
X104285714Y-110318819D01*
X104285714Y-110318819D02*
X104666666Y-110318819D01*
X104666666Y-110318819D02*
X104761904Y-110366438D01*
X104761904Y-110366438D02*
X104809523Y-110414057D01*
X104809523Y-110414057D02*
X104857142Y-110509295D01*
X104857142Y-110509295D02*
X104857142Y-110652152D01*
X104857142Y-110652152D02*
X104809523Y-110747390D01*
X104809523Y-110747390D02*
X104761904Y-110795009D01*
X104761904Y-110795009D02*
X104666666Y-110842628D01*
X104666666Y-110842628D02*
X104285714Y-110842628D01*
X105809523Y-111318819D02*
X105238095Y-111318819D01*
X105523809Y-111318819D02*
X105523809Y-110318819D01*
X105523809Y-110318819D02*
X105428571Y-110461676D01*
X105428571Y-110461676D02*
X105333333Y-110556914D01*
X105333333Y-110556914D02*
X105238095Y-110604533D01*
X106666666Y-110652152D02*
X106666666Y-111318819D01*
X106428571Y-110271200D02*
X106190476Y-110985485D01*
X106190476Y-110985485D02*
X106809523Y-110985485D01*
X190968333Y-94593580D02*
X190920714Y-94641200D01*
X190920714Y-94641200D02*
X190777857Y-94688819D01*
X190777857Y-94688819D02*
X190682619Y-94688819D01*
X190682619Y-94688819D02*
X190539762Y-94641200D01*
X190539762Y-94641200D02*
X190444524Y-94545961D01*
X190444524Y-94545961D02*
X190396905Y-94450723D01*
X190396905Y-94450723D02*
X190349286Y-94260247D01*
X190349286Y-94260247D02*
X190349286Y-94117390D01*
X190349286Y-94117390D02*
X190396905Y-93926914D01*
X190396905Y-93926914D02*
X190444524Y-93831676D01*
X190444524Y-93831676D02*
X190539762Y-93736438D01*
X190539762Y-93736438D02*
X190682619Y-93688819D01*
X190682619Y-93688819D02*
X190777857Y-93688819D01*
X190777857Y-93688819D02*
X190920714Y-93736438D01*
X190920714Y-93736438D02*
X190968333Y-93784057D01*
X191301667Y-93688819D02*
X191920714Y-93688819D01*
X191920714Y-93688819D02*
X191587381Y-94069771D01*
X191587381Y-94069771D02*
X191730238Y-94069771D01*
X191730238Y-94069771D02*
X191825476Y-94117390D01*
X191825476Y-94117390D02*
X191873095Y-94165009D01*
X191873095Y-94165009D02*
X191920714Y-94260247D01*
X191920714Y-94260247D02*
X191920714Y-94498342D01*
X191920714Y-94498342D02*
X191873095Y-94593580D01*
X191873095Y-94593580D02*
X191825476Y-94641200D01*
X191825476Y-94641200D02*
X191730238Y-94688819D01*
X191730238Y-94688819D02*
X191444524Y-94688819D01*
X191444524Y-94688819D02*
X191349286Y-94641200D01*
X191349286Y-94641200D02*
X191301667Y-94593580D01*
G36*
X162907953Y-63396577D02*
G01*
X162938360Y-63426984D01*
X162972618Y-63495500D01*
X162972618Y-63602947D01*
X162938360Y-63671463D01*
X162907953Y-63701870D01*
X162839437Y-63736128D01*
X162551190Y-63736128D01*
X162551190Y-63362319D01*
X162839437Y-63362319D01*
X162907953Y-63396577D01*
G37*
G36*
X164184669Y-64473430D02*
G01*
X160861508Y-64473430D01*
X160861508Y-63287319D01*
X160972619Y-63287319D01*
X160972619Y-64287319D01*
X160974060Y-64301951D01*
X160985259Y-64328987D01*
X161005951Y-64349679D01*
X161032987Y-64360878D01*
X161062251Y-64360878D01*
X161089287Y-64349679D01*
X161109979Y-64328987D01*
X161121178Y-64301951D01*
X161122619Y-64287319D01*
X161122619Y-63477795D01*
X161401190Y-63477795D01*
X161401190Y-63573033D01*
X161402631Y-63587665D01*
X161403662Y-63590154D01*
X161403853Y-63592842D01*
X161409108Y-63606574D01*
X161456727Y-63701812D01*
X161460691Y-63708111D01*
X161461449Y-63709939D01*
X161463137Y-63711995D01*
X161464559Y-63714255D01*
X161466057Y-63715554D01*
X161470776Y-63721304D01*
X161518395Y-63768923D01*
X161524144Y-63773641D01*
X161525444Y-63775140D01*
X161527703Y-63776561D01*
X161529760Y-63778250D01*
X161531587Y-63779007D01*
X161537887Y-63782972D01*
X161633125Y-63830591D01*
X161634194Y-63831000D01*
X161634630Y-63831323D01*
X161640766Y-63833515D01*
X161646856Y-63835846D01*
X161647396Y-63835884D01*
X161648476Y-63836270D01*
X161830966Y-63881892D01*
X161907953Y-63920386D01*
X161938360Y-63950793D01*
X161972618Y-64019309D01*
X161972618Y-64079137D01*
X161938359Y-64147653D01*
X161907952Y-64178061D01*
X161839437Y-64212319D01*
X161631217Y-64212319D01*
X161499907Y-64168549D01*
X161485570Y-64165289D01*
X161456380Y-64167364D01*
X161430207Y-64180450D01*
X161411033Y-64202557D01*
X161401779Y-64230320D01*
X161403854Y-64259510D01*
X161416940Y-64285683D01*
X161439047Y-64304857D01*
X161452473Y-64310851D01*
X161595329Y-64358470D01*
X161602584Y-64360119D01*
X161604415Y-64360878D01*
X161607068Y-64361139D01*
X161609666Y-64361730D01*
X161611640Y-64361589D01*
X161619047Y-64362319D01*
X161857142Y-64362319D01*
X161871774Y-64360878D01*
X161874263Y-64359846D01*
X161876951Y-64359656D01*
X161890683Y-64354401D01*
X161985921Y-64306782D01*
X161992220Y-64302817D01*
X161994048Y-64302060D01*
X161996104Y-64300372D01*
X161998364Y-64298950D01*
X161999664Y-64297450D01*
X162005414Y-64292732D01*
X162053032Y-64245113D01*
X162057750Y-64239363D01*
X162059249Y-64238064D01*
X162060670Y-64235805D01*
X162062360Y-64233747D01*
X162063117Y-64231917D01*
X162067081Y-64225621D01*
X162114700Y-64130383D01*
X162119955Y-64116652D01*
X162120146Y-64113962D01*
X162121177Y-64111474D01*
X162122618Y-64096842D01*
X162122618Y-64001604D01*
X162121177Y-63986972D01*
X162120146Y-63984483D01*
X162119955Y-63981794D01*
X162114700Y-63968063D01*
X162067081Y-63872825D01*
X162063116Y-63866525D01*
X162062359Y-63864698D01*
X162060670Y-63862641D01*
X162059249Y-63860382D01*
X162057750Y-63859082D01*
X162053032Y-63853333D01*
X162005413Y-63805714D01*
X161999663Y-63800995D01*
X161998364Y-63799497D01*
X161996104Y-63798075D01*
X161994048Y-63796387D01*
X161992220Y-63795629D01*
X161985921Y-63791665D01*
X161890683Y-63744046D01*
X161889613Y-63743636D01*
X161889178Y-63743314D01*
X161883032Y-63741118D01*
X161876951Y-63738791D01*
X161876411Y-63738752D01*
X161875332Y-63738367D01*
X161692842Y-63692744D01*
X161615855Y-63654251D01*
X161585448Y-63623844D01*
X161551190Y-63555328D01*
X161551190Y-63495500D01*
X161585448Y-63426984D01*
X161615855Y-63396577D01*
X161684371Y-63362319D01*
X161892591Y-63362319D01*
X162023900Y-63406089D01*
X162038237Y-63409349D01*
X162067427Y-63407274D01*
X162093601Y-63394188D01*
X162112775Y-63372080D01*
X162122029Y-63344318D01*
X162119954Y-63315128D01*
X162106867Y-63288955D01*
X162104981Y-63287319D01*
X162401190Y-63287319D01*
X162401190Y-64287319D01*
X162402631Y-64301951D01*
X162413830Y-64328987D01*
X162434522Y-64349679D01*
X162461558Y-64360878D01*
X162490822Y-64360878D01*
X162517858Y-64349679D01*
X162538550Y-64328987D01*
X162549749Y-64301951D01*
X162551190Y-64287319D01*
X162551190Y-63886128D01*
X162857142Y-63886128D01*
X162871774Y-63884687D01*
X162874263Y-63883655D01*
X162876951Y-63883465D01*
X162890683Y-63878210D01*
X162985921Y-63830591D01*
X162992220Y-63826626D01*
X162994048Y-63825869D01*
X162996104Y-63824180D01*
X162998364Y-63822759D01*
X162999663Y-63821260D01*
X163005413Y-63816542D01*
X163053032Y-63768923D01*
X163057750Y-63763173D01*
X163059249Y-63761874D01*
X163060670Y-63759614D01*
X163062359Y-63757558D01*
X163063116Y-63755730D01*
X163067081Y-63749431D01*
X163114700Y-63654193D01*
X163119955Y-63640462D01*
X163120146Y-63637772D01*
X163121177Y-63635284D01*
X163122618Y-63620652D01*
X163122618Y-63563652D01*
X163354160Y-63563652D01*
X163356234Y-63592842D01*
X163369321Y-63619017D01*
X163391429Y-63638190D01*
X163419190Y-63647444D01*
X163448380Y-63645370D01*
X163462112Y-63640115D01*
X163557350Y-63592496D01*
X163563649Y-63588531D01*
X163565477Y-63587774D01*
X163567533Y-63586085D01*
X163569793Y-63584664D01*
X163571092Y-63583165D01*
X163576842Y-63578447D01*
X163639285Y-63516004D01*
X163639285Y-64212319D01*
X163428571Y-64212319D01*
X163413939Y-64213760D01*
X163386903Y-64224959D01*
X163366211Y-64245651D01*
X163355012Y-64272687D01*
X163355012Y-64301951D01*
X163366211Y-64328987D01*
X163386903Y-64349679D01*
X163413939Y-64360878D01*
X163428571Y-64362319D01*
X163999999Y-64362319D01*
X164014631Y-64360878D01*
X164041667Y-64349679D01*
X164062359Y-64328987D01*
X164073558Y-64301951D01*
X164073558Y-64272687D01*
X164062359Y-64245651D01*
X164041667Y-64224959D01*
X164014631Y-64213760D01*
X163999999Y-64212319D01*
X163789285Y-64212319D01*
X163789285Y-63287319D01*
X163789279Y-63287266D01*
X163789285Y-63287240D01*
X163789269Y-63287163D01*
X163787844Y-63272687D01*
X163785002Y-63265826D01*
X163783546Y-63258545D01*
X163779456Y-63252438D01*
X163776645Y-63245651D01*
X163771396Y-63240402D01*
X163767263Y-63234230D01*
X163761146Y-63230152D01*
X163755953Y-63224959D01*
X163749093Y-63222117D01*
X163742914Y-63217998D01*
X163735705Y-63216572D01*
X163728917Y-63213760D01*
X163721490Y-63213760D01*
X163714206Y-63212319D01*
X163707001Y-63213760D01*
X163699653Y-63213760D01*
X163692792Y-63216601D01*
X163685512Y-63218058D01*
X163679406Y-63222146D01*
X163672617Y-63224959D01*
X163667366Y-63230209D01*
X163661197Y-63234341D01*
X163651976Y-63245599D01*
X163651925Y-63245651D01*
X163651915Y-63245673D01*
X163651881Y-63245716D01*
X163560761Y-63382396D01*
X163479382Y-63463775D01*
X163395030Y-63505951D01*
X163382587Y-63513783D01*
X163363414Y-63535891D01*
X163354160Y-63563652D01*
X163122618Y-63563652D01*
X163122618Y-63477795D01*
X163121177Y-63463163D01*
X163120146Y-63460674D01*
X163119955Y-63457985D01*
X163114700Y-63444254D01*
X163067081Y-63349016D01*
X163063116Y-63342716D01*
X163062359Y-63340889D01*
X163060670Y-63338832D01*
X163059249Y-63336573D01*
X163057750Y-63335273D01*
X163053032Y-63329524D01*
X163005413Y-63281905D01*
X162999663Y-63277186D01*
X162998364Y-63275688D01*
X162996104Y-63274266D01*
X162994048Y-63272578D01*
X162992220Y-63271820D01*
X162985921Y-63267856D01*
X162890683Y-63220237D01*
X162876951Y-63214982D01*
X162874263Y-63214791D01*
X162871774Y-63213760D01*
X162857142Y-63212319D01*
X162476190Y-63212319D01*
X162461558Y-63213760D01*
X162434522Y-63224959D01*
X162413830Y-63245651D01*
X162402631Y-63272687D01*
X162401190Y-63287319D01*
X162104981Y-63287319D01*
X162084760Y-63269781D01*
X162071335Y-63263787D01*
X161928478Y-63216168D01*
X161921224Y-63214518D01*
X161919393Y-63213760D01*
X161916738Y-63213498D01*
X161914141Y-63212908D01*
X161912166Y-63213048D01*
X161904761Y-63212319D01*
X161666666Y-63212319D01*
X161652034Y-63213760D01*
X161649545Y-63214790D01*
X161646856Y-63214982D01*
X161633125Y-63220237D01*
X161537887Y-63267856D01*
X161531587Y-63271820D01*
X161529760Y-63272578D01*
X161527703Y-63274266D01*
X161525444Y-63275688D01*
X161524144Y-63277186D01*
X161518395Y-63281905D01*
X161470776Y-63329524D01*
X161466057Y-63335273D01*
X161464559Y-63336573D01*
X161463137Y-63338832D01*
X161461449Y-63340889D01*
X161460691Y-63342716D01*
X161456727Y-63349016D01*
X161409108Y-63444254D01*
X161403853Y-63457986D01*
X161403662Y-63460673D01*
X161402631Y-63463163D01*
X161401190Y-63477795D01*
X161122619Y-63477795D01*
X161122619Y-63287319D01*
X161121178Y-63272687D01*
X161109979Y-63245651D01*
X161089287Y-63224959D01*
X161062251Y-63213760D01*
X161032987Y-63213760D01*
X161005951Y-63224959D01*
X160985259Y-63245651D01*
X160974060Y-63272687D01*
X160972619Y-63287319D01*
X160861508Y-63287319D01*
X160861508Y-63101208D01*
X164184669Y-63101208D01*
X164184669Y-64473430D01*
G37*
X112133142Y-90624819D02*
X111799809Y-90148628D01*
X111561714Y-90624819D02*
X111561714Y-89624819D01*
X111561714Y-89624819D02*
X111942666Y-89624819D01*
X111942666Y-89624819D02*
X112037904Y-89672438D01*
X112037904Y-89672438D02*
X112085523Y-89720057D01*
X112085523Y-89720057D02*
X112133142Y-89815295D01*
X112133142Y-89815295D02*
X112133142Y-89958152D01*
X112133142Y-89958152D02*
X112085523Y-90053390D01*
X112085523Y-90053390D02*
X112037904Y-90101009D01*
X112037904Y-90101009D02*
X111942666Y-90148628D01*
X111942666Y-90148628D02*
X111561714Y-90148628D01*
X113085523Y-90624819D02*
X112514095Y-90624819D01*
X112799809Y-90624819D02*
X112799809Y-89624819D01*
X112799809Y-89624819D02*
X112704571Y-89767676D01*
X112704571Y-89767676D02*
X112609333Y-89862914D01*
X112609333Y-89862914D02*
X112514095Y-89910533D01*
X113418857Y-89624819D02*
X114037904Y-89624819D01*
X114037904Y-89624819D02*
X113704571Y-90005771D01*
X113704571Y-90005771D02*
X113847428Y-90005771D01*
X113847428Y-90005771D02*
X113942666Y-90053390D01*
X113942666Y-90053390D02*
X113990285Y-90101009D01*
X113990285Y-90101009D02*
X114037904Y-90196247D01*
X114037904Y-90196247D02*
X114037904Y-90434342D01*
X114037904Y-90434342D02*
X113990285Y-90529580D01*
X113990285Y-90529580D02*
X113942666Y-90577200D01*
X113942666Y-90577200D02*
X113847428Y-90624819D01*
X113847428Y-90624819D02*
X113561714Y-90624819D01*
X113561714Y-90624819D02*
X113466476Y-90577200D01*
X113466476Y-90577200D02*
X113418857Y-90529580D01*
X182333333Y-99679580D02*
X182285714Y-99727200D01*
X182285714Y-99727200D02*
X182142857Y-99774819D01*
X182142857Y-99774819D02*
X182047619Y-99774819D01*
X182047619Y-99774819D02*
X181904762Y-99727200D01*
X181904762Y-99727200D02*
X181809524Y-99631961D01*
X181809524Y-99631961D02*
X181761905Y-99536723D01*
X181761905Y-99536723D02*
X181714286Y-99346247D01*
X181714286Y-99346247D02*
X181714286Y-99203390D01*
X181714286Y-99203390D02*
X181761905Y-99012914D01*
X181761905Y-99012914D02*
X181809524Y-98917676D01*
X181809524Y-98917676D02*
X181904762Y-98822438D01*
X181904762Y-98822438D02*
X182047619Y-98774819D01*
X182047619Y-98774819D02*
X182142857Y-98774819D01*
X182142857Y-98774819D02*
X182285714Y-98822438D01*
X182285714Y-98822438D02*
X182333333Y-98870057D01*
X182666667Y-98774819D02*
X183333333Y-98774819D01*
X183333333Y-98774819D02*
X182904762Y-99774819D01*
D11*
G04 #@! TO.C,U1*
X186660000Y-97760000D02*
X187610000Y-97760000D01*
X186660000Y-98710000D02*
X186660000Y-97760000D01*
X186660000Y-107030000D02*
X186660000Y-107980000D01*
X186660000Y-107980000D02*
X187610000Y-107980000D01*
X196880000Y-97760000D02*
X195930000Y-97760000D01*
X196880000Y-98710000D02*
X196880000Y-97760000D01*
X196880000Y-107030000D02*
X196880000Y-107980000D01*
X196880000Y-107980000D02*
X195930000Y-107980000D01*
X196400000Y-97510000D02*
X195930000Y-97170000D01*
X196400000Y-96830000D01*
X196400000Y-97510000D01*
G36*
X196400000Y-97510000D02*
G01*
X195930000Y-97170000D01*
X196400000Y-96830000D01*
X196400000Y-97510000D01*
G37*
G04 #@! TO.C,MCU1*
X185290000Y-65290000D02*
X210950000Y-65290000D01*
X185290000Y-74410000D02*
X185290000Y-65290000D01*
X186590000Y-66600000D02*
X196070000Y-66600000D01*
X186590000Y-73100000D02*
X186590000Y-66600000D01*
X196070000Y-66600000D02*
X196070000Y-65290000D01*
X196070000Y-66600000D02*
X196070000Y-66600000D01*
X200170000Y-65290000D02*
X200170000Y-66600000D01*
X200170000Y-66600000D02*
X209650000Y-66600000D01*
X205240000Y-63900000D02*
X205740000Y-64900000D01*
X205740000Y-64900000D02*
X206240000Y-63900000D01*
X206240000Y-63900000D02*
X205240000Y-63900000D01*
X209650000Y-66600000D02*
X209650000Y-73100000D01*
X209650000Y-73100000D02*
X186590000Y-73100000D01*
X210950000Y-65290000D02*
X210950000Y-74410000D01*
X210950000Y-74410000D02*
X185290000Y-74410000D01*
G04 #@! TO.C,SW2*
X228540000Y-97730000D02*
X229870000Y-97730000D01*
X228540000Y-99060000D02*
X228540000Y-97730000D01*
X228540000Y-100330000D02*
X228540000Y-102930000D01*
X228540000Y-100330000D02*
X231200000Y-100330000D01*
X228540000Y-102930000D02*
X231200000Y-102930000D01*
X231200000Y-100330000D02*
X231200000Y-102930000D01*
G04 #@! TO.C,C10*
X213974000Y-69900748D02*
X213974000Y-71323252D01*
X215794000Y-69900748D02*
X215794000Y-71323252D01*
G04 #@! TO.C,USB1*
X122844000Y-118263000D02*
X122844000Y-132763000D01*
X122844000Y-132763000D02*
X130764000Y-132763000D01*
X130764000Y-118263000D02*
X122844000Y-118263000D01*
X135336000Y-132763000D02*
X136944000Y-132763000D01*
X136944000Y-118263000D02*
X135336000Y-118263000D01*
X136944000Y-118263000D02*
X136944000Y-132763000D01*
D15*
X123594000Y-132763000D02*
X122844000Y-132763000D01*
X122844000Y-118263000D01*
X123594000Y-118263000D01*
X123594000Y-132763000D01*
G36*
X123594000Y-132763000D02*
G01*
X122844000Y-132763000D01*
X122844000Y-118263000D01*
X123594000Y-118263000D01*
X123594000Y-132763000D01*
G37*
D11*
G04 #@! TO.C,R2*
X145522936Y-132144000D02*
X145977064Y-132144000D01*
X145522936Y-133614000D02*
X145977064Y-133614000D01*
G04 #@! TO.C,R3*
X141458936Y-119063000D02*
X141913064Y-119063000D01*
X141458936Y-120533000D02*
X141913064Y-120533000D01*
D14*
G04 #@! TO.C,U3*
X144447000Y-120973000D02*
X144447000Y-124973000D01*
X149847000Y-120973000D02*
X149847000Y-124973000D01*
D11*
X150177000Y-120863000D02*
X149847000Y-120623000D01*
X150177000Y-120383000D01*
X150177000Y-120863000D01*
G36*
X150177000Y-120863000D02*
G01*
X149847000Y-120623000D01*
X150177000Y-120383000D01*
X150177000Y-120863000D01*
G37*
G04 #@! TO.C,U2*
X141686000Y-121413000D02*
X140886000Y-121413000D01*
X141686000Y-121413000D02*
X142486000Y-121413000D01*
X141686000Y-124533000D02*
X140886000Y-124533000D01*
X141686000Y-124533000D02*
X142486000Y-124533000D01*
X143226000Y-124813000D02*
X142746000Y-124813000D01*
X142986000Y-124483000D01*
X143226000Y-124813000D01*
G36*
X143226000Y-124813000D02*
G01*
X142746000Y-124813000D01*
X142986000Y-124483000D01*
X143226000Y-124813000D01*
G37*
G04 #@! TO.C,R4*
X141458936Y-125413000D02*
X141913064Y-125413000D01*
X141458936Y-126883000D02*
X141913064Y-126883000D01*
G04 #@! TO.C,C5*
X146011252Y-129858000D02*
X145488748Y-129858000D01*
X146011252Y-131328000D02*
X145488748Y-131328000D01*
G04 #@! TO.C,C6*
X141947252Y-116523000D02*
X141424748Y-116523000D01*
X141947252Y-117993000D02*
X141424748Y-117993000D01*
G04 #@! TO.C,C2*
X146011252Y-127318000D02*
X145488748Y-127318000D01*
X146011252Y-128788000D02*
X145488748Y-128788000D01*
G04 #@! TO.C,C4*
X141947252Y-127826000D02*
X141424748Y-127826000D01*
X141947252Y-129296000D02*
X141424748Y-129296000D01*
G04 #@! TO.C,R1*
X167158936Y-122963000D02*
X167613064Y-122963000D01*
X167158936Y-124433000D02*
X167613064Y-124433000D01*
G04 #@! TO.C,C9*
X200855252Y-102389000D02*
X200332748Y-102389000D01*
X200855252Y-103859000D02*
X200332748Y-103859000D01*
G04 #@! TO.C,C16*
X105238748Y-106515000D02*
X105761252Y-106515000D01*
X105238748Y-107985000D02*
X105761252Y-107985000D01*
G04 #@! TO.C,C1*
X205747252Y-122963000D02*
X205224748Y-122963000D01*
X205747252Y-124433000D02*
X205224748Y-124433000D01*
G04 #@! TO.C,C15*
X117101252Y-91467000D02*
X116578748Y-91467000D01*
X117101252Y-92937000D02*
X116578748Y-92937000D01*
G04 #@! TO.C,C12*
X204774748Y-128122000D02*
X206197252Y-128122000D01*
X204774748Y-129942000D02*
X206197252Y-129942000D01*
G04 #@! TO.C,R10*
X105759064Y-101979000D02*
X105304936Y-101979000D01*
X105759064Y-103449000D02*
X105304936Y-103449000D01*
G04 #@! TO.C,C11*
X204774748Y-125328000D02*
X206197252Y-125328000D01*
X204774748Y-127148000D02*
X206197252Y-127148000D01*
G04 #@! TO.C,C8*
X187733000Y-111767252D02*
X187733000Y-111244748D01*
X189203000Y-111767252D02*
X189203000Y-111244748D01*
G04 #@! TO.C,C13*
X114546748Y-111279000D02*
X115069252Y-111279000D01*
X114546748Y-112749000D02*
X115069252Y-112749000D01*
G04 #@! TO.C,R9*
X105759064Y-98587000D02*
X105304936Y-98587000D01*
X105759064Y-100057000D02*
X105304936Y-100057000D01*
G04 #@! TO.C,SW3*
X100202000Y-95224000D02*
X101532000Y-95224000D01*
X100202000Y-96554000D02*
X100202000Y-95224000D01*
X100202000Y-97824000D02*
X100202000Y-110584000D01*
X100202000Y-97824000D02*
X102862000Y-97824000D01*
X100202000Y-110584000D02*
X102862000Y-110584000D01*
X102862000Y-97824000D02*
X102862000Y-110584000D01*
G04 #@! TO.C,R12*
X118644936Y-114581000D02*
X119099064Y-114581000D01*
X118644936Y-116051000D02*
X119099064Y-116051000D01*
G04 #@! TO.C,C14*
X119133252Y-111279000D02*
X118610748Y-111279000D01*
X119133252Y-112749000D02*
X118610748Y-112749000D01*
G04 #@! TO.C,R11*
X115035064Y-114581000D02*
X114580936Y-114581000D01*
X115035064Y-116051000D02*
X114580936Y-116051000D01*
G04 #@! TO.C,R8*
X105759064Y-95285000D02*
X105304936Y-95285000D01*
X105759064Y-96755000D02*
X105304936Y-96755000D01*
G04 #@! TO.C,R14*
X105727064Y-108479000D02*
X105272936Y-108479000D01*
X105727064Y-109949000D02*
X105272936Y-109949000D01*
G04 #@! TO.C,C3*
X192305000Y-93972748D02*
X192305000Y-94495252D01*
X193775000Y-93972748D02*
X193775000Y-94495252D01*
G04 #@! TO.C,ISP1*
X160755000Y-65290000D02*
X176255000Y-65290000D01*
X160755000Y-74410000D02*
X160755000Y-65290000D01*
X162055000Y-66600000D02*
X166455000Y-66600000D01*
X162055000Y-73100000D02*
X162055000Y-66600000D01*
X166455000Y-66600000D02*
X166455000Y-65290000D01*
X166455000Y-66600000D02*
X166455000Y-66600000D01*
X170545000Y-63900000D02*
X171045000Y-64900000D01*
X170555000Y-65290000D02*
X170555000Y-66600000D01*
X170555000Y-66600000D02*
X174955000Y-66600000D01*
X171045000Y-64900000D02*
X171545000Y-63900000D01*
X171545000Y-63900000D02*
X170545000Y-63900000D01*
X174955000Y-66600000D02*
X174955000Y-73100000D01*
X174955000Y-73100000D02*
X162055000Y-73100000D01*
X176255000Y-65290000D02*
X176255000Y-74410000D01*
X176255000Y-74410000D02*
X160755000Y-74410000D01*
G04 #@! TO.C,R13*
X116612936Y-89435000D02*
X117067064Y-89435000D01*
X116612936Y-90905000D02*
X117067064Y-90905000D01*
G04 #@! TO.C,C7*
X182238748Y-100265000D02*
X182761252Y-100265000D01*
X182238748Y-101735000D02*
X182761252Y-101735000D01*
G04 #@! TD*
%LPC*%
D16*
G04 #@! TO.C,U1*
X195520000Y-97207500D03*
X195020000Y-97207500D03*
X194520000Y-97207500D03*
X194020000Y-97207500D03*
X193520000Y-97207500D03*
X193020000Y-97207500D03*
X192520000Y-97207500D03*
X192020000Y-97207500D03*
X191520000Y-97207500D03*
X191020000Y-97207500D03*
X190520000Y-97207500D03*
X190020000Y-97207500D03*
X189520000Y-97207500D03*
X189020000Y-97207500D03*
X188520000Y-97207500D03*
X188020000Y-97207500D03*
D17*
X186107500Y-99120000D03*
X186107500Y-99620000D03*
X186107500Y-100120000D03*
X186107500Y-100620000D03*
X186107500Y-101120000D03*
X186107500Y-101620000D03*
X186107500Y-102120000D03*
X186107500Y-102620000D03*
X186107500Y-103120000D03*
X186107500Y-103620000D03*
X186107500Y-104120000D03*
X186107500Y-104620000D03*
X186107500Y-105120000D03*
X186107500Y-105620000D03*
X186107500Y-106120000D03*
X186107500Y-106620000D03*
D16*
X188020000Y-108532500D03*
X188520000Y-108532500D03*
X189020000Y-108532500D03*
X189520000Y-108532500D03*
X190020000Y-108532500D03*
X190520000Y-108532500D03*
X191020000Y-108532500D03*
X191520000Y-108532500D03*
X192020000Y-108532500D03*
X192520000Y-108532500D03*
X193020000Y-108532500D03*
X193520000Y-108532500D03*
X194020000Y-108532500D03*
X194520000Y-108532500D03*
X195020000Y-108532500D03*
X195520000Y-108532500D03*
D17*
X197432500Y-106620000D03*
X197432500Y-106120000D03*
X197432500Y-105620000D03*
X197432500Y-105120000D03*
X197432500Y-104620000D03*
X197432500Y-104120000D03*
X197432500Y-103620000D03*
X197432500Y-103120000D03*
X197432500Y-102620000D03*
X197432500Y-102120000D03*
X197432500Y-101620000D03*
X197432500Y-101120000D03*
X197432500Y-100620000D03*
X197432500Y-100120000D03*
X197432500Y-99620000D03*
X197432500Y-99120000D03*
G04 #@! TD*
D18*
G04 #@! TO.C,MCU1*
X205740000Y-68580000D03*
D19*
X205740000Y-71120000D03*
X203200000Y-68580000D03*
X203200000Y-71120000D03*
X200660000Y-68580000D03*
X200660000Y-71120000D03*
X198120000Y-68580000D03*
X198120000Y-71120000D03*
X195580000Y-68580000D03*
X195580000Y-71120000D03*
X193040000Y-68580000D03*
X193040000Y-71120000D03*
X190500000Y-68580000D03*
X190500000Y-71120000D03*
G04 #@! TD*
D20*
G04 #@! TO.C,SW2*
X229870000Y-99060000D03*
D21*
X229870000Y-101600000D03*
G04 #@! TD*
D22*
G04 #@! TO.C,C10*
X214884000Y-69137000D03*
X214884000Y-72087000D03*
G04 #@! TD*
D23*
G04 #@! TO.C,USB1*
X135844000Y-122013000D03*
X135844000Y-124513000D03*
X135844000Y-126513000D03*
X135844000Y-129013000D03*
D24*
X133134000Y-118943000D03*
X133134000Y-132083000D03*
G04 #@! TD*
D25*
G04 #@! TO.C,R2*
X144837500Y-132879000D03*
X146662500Y-132879000D03*
G04 #@! TD*
G04 #@! TO.C,R3*
X140773500Y-119798000D03*
X142598500Y-119798000D03*
G04 #@! TD*
D26*
G04 #@! TO.C,U3*
X149369500Y-120373000D03*
X148734500Y-120373000D03*
X148099500Y-120373000D03*
X147464500Y-120373000D03*
X146829500Y-120373000D03*
X146194500Y-120373000D03*
X145559500Y-120373000D03*
X144924500Y-120373000D03*
X144924500Y-125573000D03*
X145559500Y-125573000D03*
X146194500Y-125573000D03*
X146829500Y-125573000D03*
X147464500Y-125573000D03*
X148099500Y-125573000D03*
X148734500Y-125573000D03*
X149369500Y-125573000D03*
G04 #@! TD*
D27*
G04 #@! TO.C,U2*
X142823500Y-123923000D03*
X142823500Y-122973000D03*
X142823500Y-122023000D03*
X140548500Y-122023000D03*
X140548500Y-122973000D03*
X140548500Y-123923000D03*
G04 #@! TD*
D25*
G04 #@! TO.C,R4*
X140773500Y-126148000D03*
X142598500Y-126148000D03*
G04 #@! TD*
D28*
G04 #@! TO.C,C5*
X146700000Y-130593000D03*
X144800000Y-130593000D03*
G04 #@! TD*
G04 #@! TO.C,C6*
X142636000Y-117258000D03*
X140736000Y-117258000D03*
G04 #@! TD*
G04 #@! TO.C,C2*
X146700000Y-128053000D03*
X144800000Y-128053000D03*
G04 #@! TD*
G04 #@! TO.C,C4*
X142636000Y-128561000D03*
X140736000Y-128561000D03*
G04 #@! TD*
D29*
G04 #@! TO.C,H1*
X57440000Y-68580000D03*
X58099010Y-66989010D03*
X58099010Y-70170990D03*
X59690000Y-66330000D03*
D30*
X59690000Y-68580000D03*
D29*
X59690000Y-70830000D03*
X61280990Y-66989010D03*
X61280990Y-70170990D03*
X61940000Y-68580000D03*
G04 #@! TD*
G04 #@! TO.C,H2*
X226350000Y-68580000D03*
X227009010Y-66989010D03*
X227009010Y-70170990D03*
X228600000Y-66330000D03*
D30*
X228600000Y-68580000D03*
D29*
X228600000Y-70830000D03*
X230190990Y-66989010D03*
X230190990Y-70170990D03*
X230850000Y-68580000D03*
G04 #@! TD*
G04 #@! TO.C,H3*
X57440000Y-130810000D03*
X58099010Y-129219010D03*
X58099010Y-132400990D03*
X59690000Y-128560000D03*
D30*
X59690000Y-130810000D03*
D29*
X59690000Y-133060000D03*
X61280990Y-129219010D03*
X61280990Y-132400990D03*
X61940000Y-130810000D03*
G04 #@! TD*
G04 #@! TO.C,H4*
X226350000Y-129540000D03*
X227009010Y-127949010D03*
X227009010Y-131130990D03*
X228600000Y-127290000D03*
D30*
X228600000Y-129540000D03*
D29*
X228600000Y-131790000D03*
X230190990Y-127949010D03*
X230190990Y-131130990D03*
X230850000Y-129540000D03*
G04 #@! TD*
D25*
G04 #@! TO.C,R1*
X166473500Y-123698000D03*
X168298500Y-123698000D03*
G04 #@! TD*
D28*
G04 #@! TO.C,C9*
X201544000Y-103124000D03*
X199644000Y-103124000D03*
G04 #@! TD*
D31*
G04 #@! TO.C,C16*
X104550000Y-107250000D03*
X106450000Y-107250000D03*
G04 #@! TD*
D28*
G04 #@! TO.C,C1*
X206436000Y-123698000D03*
X204536000Y-123698000D03*
G04 #@! TD*
G04 #@! TO.C,C15*
X117790000Y-92202000D03*
X115890000Y-92202000D03*
G04 #@! TD*
D32*
G04 #@! TO.C,C12*
X204011000Y-129032000D03*
X206961000Y-129032000D03*
G04 #@! TD*
D33*
G04 #@! TO.C,R10*
X106444500Y-102714000D03*
X104619500Y-102714000D03*
G04 #@! TD*
D32*
G04 #@! TO.C,C11*
X204011000Y-126238000D03*
X206961000Y-126238000D03*
G04 #@! TD*
D34*
G04 #@! TO.C,C8*
X188468000Y-112456000D03*
X188468000Y-110556000D03*
G04 #@! TD*
D31*
G04 #@! TO.C,C13*
X113858000Y-112014000D03*
X115758000Y-112014000D03*
G04 #@! TD*
D33*
G04 #@! TO.C,R9*
X106444500Y-99322000D03*
X104619500Y-99322000D03*
G04 #@! TD*
D20*
G04 #@! TO.C,SW3*
X101532000Y-96554000D03*
D21*
X101532000Y-99094000D03*
X101532000Y-101634000D03*
X101532000Y-104174000D03*
X101532000Y-106714000D03*
X101532000Y-109254000D03*
G04 #@! TD*
D25*
G04 #@! TO.C,R12*
X117959500Y-115316000D03*
X119784500Y-115316000D03*
G04 #@! TD*
D28*
G04 #@! TO.C,C14*
X119822000Y-112014000D03*
X117922000Y-112014000D03*
G04 #@! TD*
D33*
G04 #@! TO.C,R11*
X115720500Y-115316000D03*
X113895500Y-115316000D03*
G04 #@! TD*
G04 #@! TO.C,R8*
X106444500Y-96020000D03*
X104619500Y-96020000D03*
G04 #@! TD*
G04 #@! TO.C,R14*
X106412500Y-109214000D03*
X104587500Y-109214000D03*
G04 #@! TD*
D35*
G04 #@! TO.C,C3*
X193040000Y-93284000D03*
X193040000Y-95184000D03*
G04 #@! TD*
D18*
G04 #@! TO.C,ISP1*
X171045000Y-68580000D03*
D19*
X171045000Y-71120000D03*
X168505000Y-68580000D03*
X168505000Y-71120000D03*
X165965000Y-68580000D03*
X165965000Y-71120000D03*
G04 #@! TD*
D25*
G04 #@! TO.C,R13*
X115927500Y-90170000D03*
X117752500Y-90170000D03*
G04 #@! TD*
D31*
G04 #@! TO.C,C7*
X181550000Y-101000000D03*
X183450000Y-101000000D03*
G04 #@! TD*
D36*
G04 #@! TO.C,SW1*
X121390000Y-101600000D03*
D37*
X116840000Y-101600000D03*
D36*
X112290000Y-101600000D03*
D38*
X119340000Y-109100000D03*
X114340000Y-109100000D03*
X116840000Y-109100000D03*
X119340000Y-94600000D03*
X114340000Y-94600000D03*
G04 #@! TD*
D39*
G04 #@! TO.C,DISP1*
X207010000Y-120650000D03*
D38*
X204470000Y-120650000D03*
X201930000Y-120650000D03*
X199390000Y-120650000D03*
X196850000Y-120650000D03*
X194310000Y-120650000D03*
X191770000Y-120650000D03*
X189230000Y-120650000D03*
X186690000Y-120650000D03*
X184150000Y-120650000D03*
X181610000Y-120650000D03*
X179070000Y-120650000D03*
X176530000Y-120650000D03*
X173990000Y-120650000D03*
X171450000Y-120650000D03*
X168910000Y-120650000D03*
X166370000Y-120650000D03*
X163830000Y-120650000D03*
X161290000Y-120650000D03*
X158750000Y-120650000D03*
G04 #@! TD*
%LPD*%
M02*
