%TF.GenerationSoftware,KiCad,Pcbnew,(6.0.7-1)-1*%
%TF.CreationDate,2022-12-08T22:36:41-08:00*%
%TF.ProjectId,Control,436f6e74-726f-46c2-9e6b-696361645f70,1.1*%
%TF.SameCoordinates,Original*%
%TF.FileFunction,Paste,Top*%
%TF.FilePolarity,Positive*%
%FSLAX46Y46*%
G04 Gerber Fmt 4.6, Leading zero omitted, Abs format (unit mm)*
G04 Created by KiCad (PCBNEW (6.0.7-1)-1) date 2022-12-08 22:36:41*
%MOMM*%
%LPD*%
G01*
G04 APERTURE LIST*
G04 Aperture macros list*
%AMRoundRect*
0 Rectangle with rounded corners*
0 $1 Rounding radius*
0 $2 $3 $4 $5 $6 $7 $8 $9 X,Y pos of 4 corners*
0 Add a 4 corners polygon primitive as box body*
4,1,4,$2,$3,$4,$5,$6,$7,$8,$9,$2,$3,0*
0 Add four circle primitives for the rounded corners*
1,1,$1+$1,$2,$3*
1,1,$1+$1,$4,$5*
1,1,$1+$1,$6,$7*
1,1,$1+$1,$8,$9*
0 Add four rect primitives between the rounded corners*
20,1,$1+$1,$2,$3,$4,$5,0*
20,1,$1+$1,$4,$5,$6,$7,0*
20,1,$1+$1,$6,$7,$8,$9,0*
20,1,$1+$1,$8,$9,$2,$3,0*%
G04 Aperture macros list end*
%ADD10RoundRect,0.250000X0.250000X0.475000X-0.250000X0.475000X-0.250000X-0.475000X0.250000X-0.475000X0*%
%ADD11RoundRect,0.250000X0.475000X-0.250000X0.475000X0.250000X-0.475000X0.250000X-0.475000X-0.250000X0*%
%ADD12RoundRect,0.250000X-0.250000X-0.475000X0.250000X-0.475000X0.250000X0.475000X-0.250000X0.475000X0*%
%ADD13RoundRect,0.250000X-0.325000X-0.650000X0.325000X-0.650000X0.325000X0.650000X-0.325000X0.650000X0*%
%ADD14RoundRect,0.250000X0.325000X0.650000X-0.325000X0.650000X-0.325000X-0.650000X0.325000X-0.650000X0*%
%ADD15RoundRect,0.250000X0.450000X-0.262500X0.450000X0.262500X-0.450000X0.262500X-0.450000X-0.262500X0*%
%ADD16RoundRect,0.100000X-0.637500X-0.100000X0.637500X-0.100000X0.637500X0.100000X-0.637500X0.100000X0*%
%ADD17R,1.600000X0.550000*%
%ADD18R,0.550000X1.600000*%
%ADD19R,1.200000X1.400000*%
%ADD20RoundRect,0.250000X-0.650000X0.325000X-0.650000X-0.325000X0.650000X-0.325000X0.650000X0.325000X0*%
%ADD21RoundRect,0.250000X-0.262500X-0.450000X0.262500X-0.450000X0.262500X0.450000X-0.262500X0.450000X0*%
%ADD22R,0.400000X1.200000*%
%ADD23RoundRect,0.150000X0.512500X0.150000X-0.512500X0.150000X-0.512500X-0.150000X0.512500X-0.150000X0*%
%ADD24RoundRect,0.250000X-0.475000X0.250000X-0.475000X-0.250000X0.475000X-0.250000X0.475000X0.250000X0*%
%ADD25RoundRect,0.250000X-0.450000X0.262500X-0.450000X-0.262500X0.450000X-0.262500X0.450000X0.262500X0*%
%ADD26R,0.250000X0.360000*%
G04 APERTURE END LIST*
D10*
%TO.C,C3*%
X181925000Y-81915000D03*
X180025000Y-81915000D03*
%TD*%
%TO.C,C5*%
X205420000Y-116840000D03*
X203520000Y-116840000D03*
%TD*%
D11*
%TO.C,C7*%
X212725000Y-101915000D03*
X212725000Y-100015000D03*
%TD*%
D10*
%TO.C,C8*%
X210500000Y-97155000D03*
X208600000Y-97155000D03*
%TD*%
%TO.C,C9*%
X193355000Y-101600000D03*
X191455000Y-101600000D03*
%TD*%
D12*
%TO.C,C11*%
X191455000Y-99060000D03*
X193355000Y-99060000D03*
%TD*%
D13*
%TO.C,C13*%
X203503000Y-114300000D03*
X206453000Y-114300000D03*
%TD*%
D14*
%TO.C,C14*%
X193245000Y-95250000D03*
X190295000Y-95250000D03*
%TD*%
D15*
%TO.C,R1*%
X171450000Y-84224500D03*
X171450000Y-82399500D03*
%TD*%
%TO.C,R3*%
X200152000Y-111402500D03*
X200152000Y-109577500D03*
%TD*%
D16*
%TO.C,U1*%
X174175500Y-83831000D03*
X174175500Y-84481000D03*
X174175500Y-85131000D03*
X174175500Y-85781000D03*
X174175500Y-86431000D03*
X174175500Y-87081000D03*
X174175500Y-87731000D03*
X174175500Y-88381000D03*
X179900500Y-88381000D03*
X179900500Y-87731000D03*
X179900500Y-87081000D03*
X179900500Y-86431000D03*
X179900500Y-85781000D03*
X179900500Y-85131000D03*
X179900500Y-84481000D03*
X179900500Y-83831000D03*
%TD*%
D17*
%TO.C,U4*%
X204910000Y-104400000D03*
X204910000Y-103600000D03*
X204910000Y-102800000D03*
X204910000Y-102000000D03*
X204910000Y-101200000D03*
X204910000Y-100400000D03*
X204910000Y-99600000D03*
X204910000Y-98800000D03*
D18*
X203460000Y-97350000D03*
X202660000Y-97350000D03*
X201860000Y-97350000D03*
X201060000Y-97350000D03*
X200260000Y-97350000D03*
X199460000Y-97350000D03*
X198660000Y-97350000D03*
X197860000Y-97350000D03*
D17*
X196410000Y-98800000D03*
X196410000Y-99600000D03*
X196410000Y-100400000D03*
X196410000Y-101200000D03*
X196410000Y-102000000D03*
X196410000Y-102800000D03*
X196410000Y-103600000D03*
X196410000Y-104400000D03*
D18*
X197860000Y-105850000D03*
X198660000Y-105850000D03*
X199460000Y-105850000D03*
X200260000Y-105850000D03*
X201060000Y-105850000D03*
X201860000Y-105850000D03*
X202660000Y-105850000D03*
X203460000Y-105850000D03*
%TD*%
D19*
%TO.C,Y1*%
X210400000Y-102065000D03*
X210400000Y-99865000D03*
X208700000Y-99865000D03*
X208700000Y-102065000D03*
%TD*%
D12*
%TO.C,C15*%
X208600000Y-104775000D03*
X210500000Y-104775000D03*
%TD*%
D20*
%TO.C,C12*%
X214884000Y-69137000D03*
X214884000Y-72087000D03*
%TD*%
D21*
%TO.C,R2*%
X144837500Y-132879000D03*
X146662500Y-132879000D03*
%TD*%
%TO.C,R6*%
X140773500Y-119798000D03*
X142598500Y-119798000D03*
%TD*%
D22*
%TO.C,U2*%
X149369500Y-120373000D03*
X148734500Y-120373000D03*
X148099500Y-120373000D03*
X147464500Y-120373000D03*
X146829500Y-120373000D03*
X146194500Y-120373000D03*
X145559500Y-120373000D03*
X144924500Y-120373000D03*
X144924500Y-125573000D03*
X145559500Y-125573000D03*
X146194500Y-125573000D03*
X146829500Y-125573000D03*
X147464500Y-125573000D03*
X148099500Y-125573000D03*
X148734500Y-125573000D03*
X149369500Y-125573000D03*
%TD*%
D23*
%TO.C,U5*%
X142823500Y-123923000D03*
X142823500Y-122973000D03*
X142823500Y-122023000D03*
X140548500Y-122023000D03*
X140548500Y-122973000D03*
X140548500Y-123923000D03*
%TD*%
D21*
%TO.C,R7*%
X140773500Y-126148000D03*
X142598500Y-126148000D03*
%TD*%
D10*
%TO.C,C6*%
X146700000Y-130593000D03*
X144800000Y-130593000D03*
%TD*%
%TO.C,C2*%
X142636000Y-117258000D03*
X140736000Y-117258000D03*
%TD*%
%TO.C,C4*%
X146700000Y-128053000D03*
X144800000Y-128053000D03*
%TD*%
%TO.C,C1*%
X142636000Y-128561000D03*
X140736000Y-128561000D03*
%TD*%
D24*
%TO.C,C16*%
X168000000Y-82300000D03*
X168000000Y-84200000D03*
%TD*%
D25*
%TO.C,R4*%
X164250000Y-82337500D03*
X164250000Y-84162500D03*
%TD*%
%TO.C,R5*%
X166500000Y-123587500D03*
X166500000Y-125412500D03*
%TD*%
%TO.C,R19*%
X129000000Y-92087500D03*
X129000000Y-93912500D03*
%TD*%
D15*
%TO.C,R11*%
X106680000Y-101092000D03*
X106680000Y-99267000D03*
%TD*%
D25*
%TO.C,R21*%
X137000000Y-92087500D03*
X137000000Y-93912500D03*
%TD*%
%TO.C,R18*%
X131000000Y-92087500D03*
X131000000Y-93912500D03*
%TD*%
D26*
%TO.C,D6*%
X140494000Y-93420000D03*
X140494000Y-92580000D03*
%TD*%
D12*
%TO.C,C22*%
X148495000Y-90840000D03*
X150395000Y-90840000D03*
%TD*%
D24*
%TO.C,C19*%
X134000000Y-97050000D03*
X134000000Y-98950000D03*
%TD*%
%TO.C,C18*%
X142050000Y-97100000D03*
X142050000Y-99000000D03*
%TD*%
D15*
%TO.C,R15*%
X137050000Y-98962500D03*
X137050000Y-97137500D03*
%TD*%
D26*
%TO.C,D4*%
X132500000Y-97580000D03*
X132500000Y-98420000D03*
%TD*%
D11*
%TO.C,C21*%
X142000000Y-93950000D03*
X142000000Y-92050000D03*
%TD*%
D26*
%TO.C,D2*%
X155000000Y-94420000D03*
X155000000Y-93580000D03*
%TD*%
D15*
%TO.C,R16*%
X131000000Y-98912500D03*
X131000000Y-97087500D03*
%TD*%
D16*
%TO.C,U3*%
X144607500Y-92545000D03*
X144607500Y-93195000D03*
X144607500Y-93845000D03*
X144607500Y-94495000D03*
X144607500Y-95145000D03*
X144607500Y-95795000D03*
X144607500Y-96445000D03*
X144607500Y-97095000D03*
X144607500Y-97745000D03*
X144607500Y-98395000D03*
X150332500Y-98395000D03*
X150332500Y-97745000D03*
X150332500Y-97095000D03*
X150332500Y-96445000D03*
X150332500Y-95795000D03*
X150332500Y-95145000D03*
X150332500Y-94495000D03*
X150332500Y-93845000D03*
X150332500Y-93195000D03*
X150332500Y-92545000D03*
%TD*%
D11*
%TO.C,C10*%
X153500000Y-95000000D03*
X153500000Y-93100000D03*
%TD*%
D26*
%TO.C,D5*%
X132500000Y-93420000D03*
X132500000Y-92580000D03*
%TD*%
D25*
%TO.C,R20*%
X138970000Y-92087500D03*
X138970000Y-93912500D03*
%TD*%
D11*
%TO.C,C20*%
X134000000Y-93950000D03*
X134000000Y-92050000D03*
%TD*%
D15*
%TO.C,R14*%
X139050000Y-98962500D03*
X139050000Y-97137500D03*
%TD*%
D24*
%TO.C,C17*%
X202184000Y-109540000D03*
X202184000Y-111440000D03*
%TD*%
D26*
%TO.C,D3*%
X140550000Y-97630000D03*
X140550000Y-98470000D03*
%TD*%
D15*
%TO.C,R17*%
X129000000Y-98912500D03*
X129000000Y-97087500D03*
%TD*%
D25*
%TO.C,R12*%
X156500000Y-93087500D03*
X156500000Y-94912500D03*
%TD*%
%TO.C,R13*%
X158500000Y-93087500D03*
X158500000Y-94912500D03*
%TD*%
M02*
