%TF.GenerationSoftware,KiCad,Pcbnew,8.0.8*%
%TF.CreationDate,2025-01-19T09:56:17-08:00*%
%TF.ProjectId,Control,436f6e74-726f-46c2-9e6b-696361645f70,2.1*%
%TF.SameCoordinates,Original*%
%TF.FileFunction,Drillmap*%
%TF.FilePolarity,Positive*%
%FSLAX45Y45*%
G04 Gerber Fmt 4.5, Leading zero omitted, Abs format (unit mm)*
G04 Created by KiCad (PCBNEW 8.0.8) date 2025-01-19 09:56:17*
%MOMM*%
%LPD*%
G01*
G04 APERTURE LIST*
%ADD10C,0.050000*%
%ADD11C,0.200000*%
%ADD12C,0.300000*%
G04 APERTURE END LIST*
D10*
X5207000Y-13208000D02*
X5207000Y-6604000D01*
X5715000Y-13716000D02*
G75*
G02*
X5207000Y-13208000I0J508000D01*
G01*
X23114000Y-6096000D02*
G75*
G02*
X23622000Y-6604000I0J-508000D01*
G01*
X23622000Y-6604000D02*
X23622000Y-13208000D01*
X5715000Y-6096000D02*
X23114000Y-6096000D01*
X5207000Y-6604000D02*
G75*
G02*
X5715000Y-6096000I508000J0D01*
G01*
X8890000Y-10160000D02*
G75*
G02*
X6350000Y-10160000I-1270000J0D01*
G01*
X6350000Y-10160000D02*
G75*
G02*
X8890000Y-10160000I1270000J0D01*
G01*
X23622000Y-13208000D02*
G75*
G02*
X23114000Y-13716000I-508000J0D01*
G01*
X23114000Y-13716000D02*
X5715000Y-13716000D01*
D11*
D12*
X11534000Y-10010000D02*
X11834000Y-10310000D01*
X11834000Y-10010000D02*
X11534000Y-10310000D01*
D11*
X5465277Y-14029984D02*
X5465277Y-13829984D01*
X5465277Y-13829984D02*
X5512896Y-13829984D01*
X5512896Y-13829984D02*
X5541467Y-13839508D01*
X5541467Y-13839508D02*
X5560515Y-13858555D01*
X5560515Y-13858555D02*
X5570039Y-13877603D01*
X5570039Y-13877603D02*
X5579563Y-13915698D01*
X5579563Y-13915698D02*
X5579563Y-13944269D01*
X5579563Y-13944269D02*
X5570039Y-13982365D01*
X5570039Y-13982365D02*
X5560515Y-14001412D01*
X5560515Y-14001412D02*
X5541467Y-14020460D01*
X5541467Y-14020460D02*
X5512896Y-14029984D01*
X5512896Y-14029984D02*
X5465277Y-14029984D01*
X5665277Y-14029984D02*
X5665277Y-13896650D01*
X5665277Y-13934746D02*
X5674801Y-13915698D01*
X5674801Y-13915698D02*
X5684324Y-13906174D01*
X5684324Y-13906174D02*
X5703372Y-13896650D01*
X5703372Y-13896650D02*
X5722420Y-13896650D01*
X5789086Y-14029984D02*
X5789086Y-13896650D01*
X5789086Y-13829984D02*
X5779562Y-13839508D01*
X5779562Y-13839508D02*
X5789086Y-13849031D01*
X5789086Y-13849031D02*
X5798610Y-13839508D01*
X5798610Y-13839508D02*
X5789086Y-13829984D01*
X5789086Y-13829984D02*
X5789086Y-13849031D01*
X5912896Y-14029984D02*
X5893848Y-14020460D01*
X5893848Y-14020460D02*
X5884324Y-14001412D01*
X5884324Y-14001412D02*
X5884324Y-13829984D01*
X6017658Y-14029984D02*
X5998610Y-14020460D01*
X5998610Y-14020460D02*
X5989086Y-14001412D01*
X5989086Y-14001412D02*
X5989086Y-13829984D01*
X6246229Y-14029984D02*
X6246229Y-13829984D01*
X6246229Y-13829984D02*
X6312896Y-13972841D01*
X6312896Y-13972841D02*
X6379562Y-13829984D01*
X6379562Y-13829984D02*
X6379562Y-14029984D01*
X6560515Y-14029984D02*
X6560515Y-13925222D01*
X6560515Y-13925222D02*
X6550991Y-13906174D01*
X6550991Y-13906174D02*
X6531943Y-13896650D01*
X6531943Y-13896650D02*
X6493848Y-13896650D01*
X6493848Y-13896650D02*
X6474801Y-13906174D01*
X6560515Y-14020460D02*
X6541467Y-14029984D01*
X6541467Y-14029984D02*
X6493848Y-14029984D01*
X6493848Y-14029984D02*
X6474801Y-14020460D01*
X6474801Y-14020460D02*
X6465277Y-14001412D01*
X6465277Y-14001412D02*
X6465277Y-13982365D01*
X6465277Y-13982365D02*
X6474801Y-13963317D01*
X6474801Y-13963317D02*
X6493848Y-13953793D01*
X6493848Y-13953793D02*
X6541467Y-13953793D01*
X6541467Y-13953793D02*
X6560515Y-13944269D01*
X6655753Y-13896650D02*
X6655753Y-14096650D01*
X6655753Y-13906174D02*
X6674801Y-13896650D01*
X6674801Y-13896650D02*
X6712896Y-13896650D01*
X6712896Y-13896650D02*
X6731943Y-13906174D01*
X6731943Y-13906174D02*
X6741467Y-13915698D01*
X6741467Y-13915698D02*
X6750991Y-13934746D01*
X6750991Y-13934746D02*
X6750991Y-13991888D01*
X6750991Y-13991888D02*
X6741467Y-14010936D01*
X6741467Y-14010936D02*
X6731943Y-14020460D01*
X6731943Y-14020460D02*
X6712896Y-14029984D01*
X6712896Y-14029984D02*
X6674801Y-14029984D01*
X6674801Y-14029984D02*
X6655753Y-14020460D01*
X6836705Y-14010936D02*
X6846229Y-14020460D01*
X6846229Y-14020460D02*
X6836705Y-14029984D01*
X6836705Y-14029984D02*
X6827182Y-14020460D01*
X6827182Y-14020460D02*
X6836705Y-14010936D01*
X6836705Y-14010936D02*
X6836705Y-14029984D01*
X6836705Y-13906174D02*
X6846229Y-13915698D01*
X6846229Y-13915698D02*
X6836705Y-13925222D01*
X6836705Y-13925222D02*
X6827182Y-13915698D01*
X6827182Y-13915698D02*
X6836705Y-13906174D01*
X6836705Y-13906174D02*
X6836705Y-13925222D01*
X5004500Y-14258500D02*
X5204500Y-14458500D01*
X5204500Y-14258500D02*
X5004500Y-14458500D01*
X5446229Y-14249984D02*
X5570039Y-14249984D01*
X5570039Y-14249984D02*
X5503372Y-14326174D01*
X5503372Y-14326174D02*
X5531944Y-14326174D01*
X5531944Y-14326174D02*
X5550991Y-14335698D01*
X5550991Y-14335698D02*
X5560515Y-14345222D01*
X5560515Y-14345222D02*
X5570039Y-14364269D01*
X5570039Y-14364269D02*
X5570039Y-14411888D01*
X5570039Y-14411888D02*
X5560515Y-14430936D01*
X5560515Y-14430936D02*
X5550991Y-14440460D01*
X5550991Y-14440460D02*
X5531944Y-14449984D01*
X5531944Y-14449984D02*
X5474801Y-14449984D01*
X5474801Y-14449984D02*
X5455753Y-14440460D01*
X5455753Y-14440460D02*
X5446229Y-14430936D01*
X5655753Y-14430936D02*
X5665277Y-14440460D01*
X5665277Y-14440460D02*
X5655753Y-14449984D01*
X5655753Y-14449984D02*
X5646229Y-14440460D01*
X5646229Y-14440460D02*
X5655753Y-14430936D01*
X5655753Y-14430936D02*
X5655753Y-14449984D01*
X5789086Y-14249984D02*
X5808134Y-14249984D01*
X5808134Y-14249984D02*
X5827182Y-14259508D01*
X5827182Y-14259508D02*
X5836705Y-14269031D01*
X5836705Y-14269031D02*
X5846229Y-14288079D01*
X5846229Y-14288079D02*
X5855753Y-14326174D01*
X5855753Y-14326174D02*
X5855753Y-14373793D01*
X5855753Y-14373793D02*
X5846229Y-14411888D01*
X5846229Y-14411888D02*
X5836705Y-14430936D01*
X5836705Y-14430936D02*
X5827182Y-14440460D01*
X5827182Y-14440460D02*
X5808134Y-14449984D01*
X5808134Y-14449984D02*
X5789086Y-14449984D01*
X5789086Y-14449984D02*
X5770039Y-14440460D01*
X5770039Y-14440460D02*
X5760515Y-14430936D01*
X5760515Y-14430936D02*
X5750991Y-14411888D01*
X5750991Y-14411888D02*
X5741467Y-14373793D01*
X5741467Y-14373793D02*
X5741467Y-14326174D01*
X5741467Y-14326174D02*
X5750991Y-14288079D01*
X5750991Y-14288079D02*
X5760515Y-14269031D01*
X5760515Y-14269031D02*
X5770039Y-14259508D01*
X5770039Y-14259508D02*
X5789086Y-14249984D01*
X5979562Y-14249984D02*
X5998610Y-14249984D01*
X5998610Y-14249984D02*
X6017658Y-14259508D01*
X6017658Y-14259508D02*
X6027182Y-14269031D01*
X6027182Y-14269031D02*
X6036705Y-14288079D01*
X6036705Y-14288079D02*
X6046229Y-14326174D01*
X6046229Y-14326174D02*
X6046229Y-14373793D01*
X6046229Y-14373793D02*
X6036705Y-14411888D01*
X6036705Y-14411888D02*
X6027182Y-14430936D01*
X6027182Y-14430936D02*
X6017658Y-14440460D01*
X6017658Y-14440460D02*
X5998610Y-14449984D01*
X5998610Y-14449984D02*
X5979562Y-14449984D01*
X5979562Y-14449984D02*
X5960515Y-14440460D01*
X5960515Y-14440460D02*
X5950991Y-14430936D01*
X5950991Y-14430936D02*
X5941467Y-14411888D01*
X5941467Y-14411888D02*
X5931943Y-14373793D01*
X5931943Y-14373793D02*
X5931943Y-14326174D01*
X5931943Y-14326174D02*
X5941467Y-14288079D01*
X5941467Y-14288079D02*
X5950991Y-14269031D01*
X5950991Y-14269031D02*
X5960515Y-14259508D01*
X5960515Y-14259508D02*
X5979562Y-14249984D01*
X6170039Y-14249984D02*
X6189086Y-14249984D01*
X6189086Y-14249984D02*
X6208134Y-14259508D01*
X6208134Y-14259508D02*
X6217658Y-14269031D01*
X6217658Y-14269031D02*
X6227182Y-14288079D01*
X6227182Y-14288079D02*
X6236705Y-14326174D01*
X6236705Y-14326174D02*
X6236705Y-14373793D01*
X6236705Y-14373793D02*
X6227182Y-14411888D01*
X6227182Y-14411888D02*
X6217658Y-14430936D01*
X6217658Y-14430936D02*
X6208134Y-14440460D01*
X6208134Y-14440460D02*
X6189086Y-14449984D01*
X6189086Y-14449984D02*
X6170039Y-14449984D01*
X6170039Y-14449984D02*
X6150991Y-14440460D01*
X6150991Y-14440460D02*
X6141467Y-14430936D01*
X6141467Y-14430936D02*
X6131943Y-14411888D01*
X6131943Y-14411888D02*
X6122420Y-14373793D01*
X6122420Y-14373793D02*
X6122420Y-14326174D01*
X6122420Y-14326174D02*
X6131943Y-14288079D01*
X6131943Y-14288079D02*
X6141467Y-14269031D01*
X6141467Y-14269031D02*
X6150991Y-14259508D01*
X6150991Y-14259508D02*
X6170039Y-14249984D01*
X6322420Y-14449984D02*
X6322420Y-14316650D01*
X6322420Y-14335698D02*
X6331943Y-14326174D01*
X6331943Y-14326174D02*
X6350991Y-14316650D01*
X6350991Y-14316650D02*
X6379563Y-14316650D01*
X6379563Y-14316650D02*
X6398610Y-14326174D01*
X6398610Y-14326174D02*
X6408134Y-14345222D01*
X6408134Y-14345222D02*
X6408134Y-14449984D01*
X6408134Y-14345222D02*
X6417658Y-14326174D01*
X6417658Y-14326174D02*
X6436705Y-14316650D01*
X6436705Y-14316650D02*
X6465277Y-14316650D01*
X6465277Y-14316650D02*
X6484324Y-14326174D01*
X6484324Y-14326174D02*
X6493848Y-14345222D01*
X6493848Y-14345222D02*
X6493848Y-14449984D01*
X6589086Y-14449984D02*
X6589086Y-14316650D01*
X6589086Y-14335698D02*
X6598610Y-14326174D01*
X6598610Y-14326174D02*
X6617658Y-14316650D01*
X6617658Y-14316650D02*
X6646229Y-14316650D01*
X6646229Y-14316650D02*
X6665277Y-14326174D01*
X6665277Y-14326174D02*
X6674801Y-14345222D01*
X6674801Y-14345222D02*
X6674801Y-14449984D01*
X6674801Y-14345222D02*
X6684324Y-14326174D01*
X6684324Y-14326174D02*
X6703372Y-14316650D01*
X6703372Y-14316650D02*
X6731943Y-14316650D01*
X6731943Y-14316650D02*
X6750991Y-14326174D01*
X6750991Y-14326174D02*
X6760515Y-14345222D01*
X6760515Y-14345222D02*
X6760515Y-14449984D01*
X7150991Y-14240460D02*
X6979563Y-14497603D01*
X7408134Y-14249984D02*
X7427182Y-14249984D01*
X7427182Y-14249984D02*
X7446229Y-14259508D01*
X7446229Y-14259508D02*
X7455753Y-14269031D01*
X7455753Y-14269031D02*
X7465277Y-14288079D01*
X7465277Y-14288079D02*
X7474801Y-14326174D01*
X7474801Y-14326174D02*
X7474801Y-14373793D01*
X7474801Y-14373793D02*
X7465277Y-14411888D01*
X7465277Y-14411888D02*
X7455753Y-14430936D01*
X7455753Y-14430936D02*
X7446229Y-14440460D01*
X7446229Y-14440460D02*
X7427182Y-14449984D01*
X7427182Y-14449984D02*
X7408134Y-14449984D01*
X7408134Y-14449984D02*
X7389086Y-14440460D01*
X7389086Y-14440460D02*
X7379563Y-14430936D01*
X7379563Y-14430936D02*
X7370039Y-14411888D01*
X7370039Y-14411888D02*
X7360515Y-14373793D01*
X7360515Y-14373793D02*
X7360515Y-14326174D01*
X7360515Y-14326174D02*
X7370039Y-14288079D01*
X7370039Y-14288079D02*
X7379563Y-14269031D01*
X7379563Y-14269031D02*
X7389086Y-14259508D01*
X7389086Y-14259508D02*
X7408134Y-14249984D01*
X7560515Y-14430936D02*
X7570039Y-14440460D01*
X7570039Y-14440460D02*
X7560515Y-14449984D01*
X7560515Y-14449984D02*
X7550991Y-14440460D01*
X7550991Y-14440460D02*
X7560515Y-14430936D01*
X7560515Y-14430936D02*
X7560515Y-14449984D01*
X7760515Y-14449984D02*
X7646229Y-14449984D01*
X7703372Y-14449984D02*
X7703372Y-14249984D01*
X7703372Y-14249984D02*
X7684325Y-14278555D01*
X7684325Y-14278555D02*
X7665277Y-14297603D01*
X7665277Y-14297603D02*
X7646229Y-14307127D01*
X7950991Y-14449984D02*
X7836706Y-14449984D01*
X7893848Y-14449984D02*
X7893848Y-14249984D01*
X7893848Y-14249984D02*
X7874801Y-14278555D01*
X7874801Y-14278555D02*
X7855753Y-14297603D01*
X7855753Y-14297603D02*
X7836706Y-14307127D01*
X8065277Y-14335698D02*
X8046229Y-14326174D01*
X8046229Y-14326174D02*
X8036706Y-14316650D01*
X8036706Y-14316650D02*
X8027182Y-14297603D01*
X8027182Y-14297603D02*
X8027182Y-14288079D01*
X8027182Y-14288079D02*
X8036706Y-14269031D01*
X8036706Y-14269031D02*
X8046229Y-14259508D01*
X8046229Y-14259508D02*
X8065277Y-14249984D01*
X8065277Y-14249984D02*
X8103372Y-14249984D01*
X8103372Y-14249984D02*
X8122420Y-14259508D01*
X8122420Y-14259508D02*
X8131944Y-14269031D01*
X8131944Y-14269031D02*
X8141467Y-14288079D01*
X8141467Y-14288079D02*
X8141467Y-14297603D01*
X8141467Y-14297603D02*
X8131944Y-14316650D01*
X8131944Y-14316650D02*
X8122420Y-14326174D01*
X8122420Y-14326174D02*
X8103372Y-14335698D01*
X8103372Y-14335698D02*
X8065277Y-14335698D01*
X8065277Y-14335698D02*
X8046229Y-14345222D01*
X8046229Y-14345222D02*
X8036706Y-14354746D01*
X8036706Y-14354746D02*
X8027182Y-14373793D01*
X8027182Y-14373793D02*
X8027182Y-14411888D01*
X8027182Y-14411888D02*
X8036706Y-14430936D01*
X8036706Y-14430936D02*
X8046229Y-14440460D01*
X8046229Y-14440460D02*
X8065277Y-14449984D01*
X8065277Y-14449984D02*
X8103372Y-14449984D01*
X8103372Y-14449984D02*
X8122420Y-14440460D01*
X8122420Y-14440460D02*
X8131944Y-14430936D01*
X8131944Y-14430936D02*
X8141467Y-14411888D01*
X8141467Y-14411888D02*
X8141467Y-14373793D01*
X8141467Y-14373793D02*
X8131944Y-14354746D01*
X8131944Y-14354746D02*
X8122420Y-14345222D01*
X8122420Y-14345222D02*
X8103372Y-14335698D01*
X8331944Y-14449984D02*
X8217658Y-14449984D01*
X8274801Y-14449984D02*
X8274801Y-14249984D01*
X8274801Y-14249984D02*
X8255753Y-14278555D01*
X8255753Y-14278555D02*
X8236706Y-14297603D01*
X8236706Y-14297603D02*
X8217658Y-14307127D01*
X8408134Y-14249984D02*
X8408134Y-14288079D01*
X8484325Y-14249984D02*
X8484325Y-14288079D01*
X8779563Y-14526174D02*
X8770039Y-14516650D01*
X8770039Y-14516650D02*
X8750991Y-14488079D01*
X8750991Y-14488079D02*
X8741468Y-14469031D01*
X8741468Y-14469031D02*
X8731944Y-14440460D01*
X8731944Y-14440460D02*
X8722420Y-14392841D01*
X8722420Y-14392841D02*
X8722420Y-14354746D01*
X8722420Y-14354746D02*
X8731944Y-14307127D01*
X8731944Y-14307127D02*
X8741468Y-14278555D01*
X8741468Y-14278555D02*
X8750991Y-14259508D01*
X8750991Y-14259508D02*
X8770039Y-14230936D01*
X8770039Y-14230936D02*
X8779563Y-14221412D01*
X8960515Y-14449984D02*
X8846230Y-14449984D01*
X8903372Y-14449984D02*
X8903372Y-14249984D01*
X8903372Y-14249984D02*
X8884325Y-14278555D01*
X8884325Y-14278555D02*
X8865277Y-14297603D01*
X8865277Y-14297603D02*
X8846230Y-14307127D01*
X9198611Y-14449984D02*
X9198611Y-14249984D01*
X9284325Y-14449984D02*
X9284325Y-14345222D01*
X9284325Y-14345222D02*
X9274801Y-14326174D01*
X9274801Y-14326174D02*
X9255753Y-14316650D01*
X9255753Y-14316650D02*
X9227182Y-14316650D01*
X9227182Y-14316650D02*
X9208134Y-14326174D01*
X9208134Y-14326174D02*
X9198611Y-14335698D01*
X9408134Y-14449984D02*
X9389087Y-14440460D01*
X9389087Y-14440460D02*
X9379563Y-14430936D01*
X9379563Y-14430936D02*
X9370039Y-14411888D01*
X9370039Y-14411888D02*
X9370039Y-14354746D01*
X9370039Y-14354746D02*
X9379563Y-14335698D01*
X9379563Y-14335698D02*
X9389087Y-14326174D01*
X9389087Y-14326174D02*
X9408134Y-14316650D01*
X9408134Y-14316650D02*
X9436706Y-14316650D01*
X9436706Y-14316650D02*
X9455753Y-14326174D01*
X9455753Y-14326174D02*
X9465277Y-14335698D01*
X9465277Y-14335698D02*
X9474801Y-14354746D01*
X9474801Y-14354746D02*
X9474801Y-14411888D01*
X9474801Y-14411888D02*
X9465277Y-14430936D01*
X9465277Y-14430936D02*
X9455753Y-14440460D01*
X9455753Y-14440460D02*
X9436706Y-14449984D01*
X9436706Y-14449984D02*
X9408134Y-14449984D01*
X9589087Y-14449984D02*
X9570039Y-14440460D01*
X9570039Y-14440460D02*
X9560515Y-14421412D01*
X9560515Y-14421412D02*
X9560515Y-14249984D01*
X9741468Y-14440460D02*
X9722420Y-14449984D01*
X9722420Y-14449984D02*
X9684325Y-14449984D01*
X9684325Y-14449984D02*
X9665277Y-14440460D01*
X9665277Y-14440460D02*
X9655753Y-14421412D01*
X9655753Y-14421412D02*
X9655753Y-14345222D01*
X9655753Y-14345222D02*
X9665277Y-14326174D01*
X9665277Y-14326174D02*
X9684325Y-14316650D01*
X9684325Y-14316650D02*
X9722420Y-14316650D01*
X9722420Y-14316650D02*
X9741468Y-14326174D01*
X9741468Y-14326174D02*
X9750992Y-14345222D01*
X9750992Y-14345222D02*
X9750992Y-14364269D01*
X9750992Y-14364269D02*
X9655753Y-14383317D01*
X9817658Y-14526174D02*
X9827182Y-14516650D01*
X9827182Y-14516650D02*
X9846230Y-14488079D01*
X9846230Y-14488079D02*
X9855753Y-14469031D01*
X9855753Y-14469031D02*
X9865277Y-14440460D01*
X9865277Y-14440460D02*
X9874801Y-14392841D01*
X9874801Y-14392841D02*
X9874801Y-14354746D01*
X9874801Y-14354746D02*
X9865277Y-14307127D01*
X9865277Y-14307127D02*
X9855753Y-14278555D01*
X9855753Y-14278555D02*
X9846230Y-14259508D01*
X9846230Y-14259508D02*
X9827182Y-14230936D01*
X9827182Y-14230936D02*
X9817658Y-14221412D01*
X10179563Y-14526174D02*
X10170039Y-14516650D01*
X10170039Y-14516650D02*
X10150992Y-14488079D01*
X10150992Y-14488079D02*
X10141468Y-14469031D01*
X10141468Y-14469031D02*
X10131944Y-14440460D01*
X10131944Y-14440460D02*
X10122420Y-14392841D01*
X10122420Y-14392841D02*
X10122420Y-14354746D01*
X10122420Y-14354746D02*
X10131944Y-14307127D01*
X10131944Y-14307127D02*
X10141468Y-14278555D01*
X10141468Y-14278555D02*
X10150992Y-14259508D01*
X10150992Y-14259508D02*
X10170039Y-14230936D01*
X10170039Y-14230936D02*
X10179563Y-14221412D01*
X10255753Y-14316650D02*
X10255753Y-14449984D01*
X10255753Y-14335698D02*
X10265277Y-14326174D01*
X10265277Y-14326174D02*
X10284325Y-14316650D01*
X10284325Y-14316650D02*
X10312896Y-14316650D01*
X10312896Y-14316650D02*
X10331944Y-14326174D01*
X10331944Y-14326174D02*
X10341468Y-14345222D01*
X10341468Y-14345222D02*
X10341468Y-14449984D01*
X10465277Y-14449984D02*
X10446230Y-14440460D01*
X10446230Y-14440460D02*
X10436706Y-14430936D01*
X10436706Y-14430936D02*
X10427182Y-14411888D01*
X10427182Y-14411888D02*
X10427182Y-14354746D01*
X10427182Y-14354746D02*
X10436706Y-14335698D01*
X10436706Y-14335698D02*
X10446230Y-14326174D01*
X10446230Y-14326174D02*
X10465277Y-14316650D01*
X10465277Y-14316650D02*
X10493849Y-14316650D01*
X10493849Y-14316650D02*
X10512896Y-14326174D01*
X10512896Y-14326174D02*
X10522420Y-14335698D01*
X10522420Y-14335698D02*
X10531944Y-14354746D01*
X10531944Y-14354746D02*
X10531944Y-14411888D01*
X10531944Y-14411888D02*
X10522420Y-14430936D01*
X10522420Y-14430936D02*
X10512896Y-14440460D01*
X10512896Y-14440460D02*
X10493849Y-14449984D01*
X10493849Y-14449984D02*
X10465277Y-14449984D01*
X10589087Y-14316650D02*
X10665277Y-14316650D01*
X10617658Y-14249984D02*
X10617658Y-14421412D01*
X10617658Y-14421412D02*
X10627182Y-14440460D01*
X10627182Y-14440460D02*
X10646230Y-14449984D01*
X10646230Y-14449984D02*
X10665277Y-14449984D01*
X10884325Y-14316650D02*
X10884325Y-14516650D01*
X10884325Y-14326174D02*
X10903373Y-14316650D01*
X10903373Y-14316650D02*
X10941468Y-14316650D01*
X10941468Y-14316650D02*
X10960515Y-14326174D01*
X10960515Y-14326174D02*
X10970039Y-14335698D01*
X10970039Y-14335698D02*
X10979563Y-14354746D01*
X10979563Y-14354746D02*
X10979563Y-14411888D01*
X10979563Y-14411888D02*
X10970039Y-14430936D01*
X10970039Y-14430936D02*
X10960515Y-14440460D01*
X10960515Y-14440460D02*
X10941468Y-14449984D01*
X10941468Y-14449984D02*
X10903373Y-14449984D01*
X10903373Y-14449984D02*
X10884325Y-14440460D01*
X11093849Y-14449984D02*
X11074801Y-14440460D01*
X11074801Y-14440460D02*
X11065277Y-14421412D01*
X11065277Y-14421412D02*
X11065277Y-14249984D01*
X11255753Y-14449984D02*
X11255753Y-14345222D01*
X11255753Y-14345222D02*
X11246230Y-14326174D01*
X11246230Y-14326174D02*
X11227182Y-14316650D01*
X11227182Y-14316650D02*
X11189087Y-14316650D01*
X11189087Y-14316650D02*
X11170039Y-14326174D01*
X11255753Y-14440460D02*
X11236706Y-14449984D01*
X11236706Y-14449984D02*
X11189087Y-14449984D01*
X11189087Y-14449984D02*
X11170039Y-14440460D01*
X11170039Y-14440460D02*
X11160515Y-14421412D01*
X11160515Y-14421412D02*
X11160515Y-14402365D01*
X11160515Y-14402365D02*
X11170039Y-14383317D01*
X11170039Y-14383317D02*
X11189087Y-14373793D01*
X11189087Y-14373793D02*
X11236706Y-14373793D01*
X11236706Y-14373793D02*
X11255753Y-14364269D01*
X11322420Y-14316650D02*
X11398611Y-14316650D01*
X11350992Y-14249984D02*
X11350992Y-14421412D01*
X11350992Y-14421412D02*
X11360515Y-14440460D01*
X11360515Y-14440460D02*
X11379563Y-14449984D01*
X11379563Y-14449984D02*
X11398611Y-14449984D01*
X11541468Y-14440460D02*
X11522420Y-14449984D01*
X11522420Y-14449984D02*
X11484325Y-14449984D01*
X11484325Y-14449984D02*
X11465277Y-14440460D01*
X11465277Y-14440460D02*
X11455753Y-14421412D01*
X11455753Y-14421412D02*
X11455753Y-14345222D01*
X11455753Y-14345222D02*
X11465277Y-14326174D01*
X11465277Y-14326174D02*
X11484325Y-14316650D01*
X11484325Y-14316650D02*
X11522420Y-14316650D01*
X11522420Y-14316650D02*
X11541468Y-14326174D01*
X11541468Y-14326174D02*
X11550992Y-14345222D01*
X11550992Y-14345222D02*
X11550992Y-14364269D01*
X11550992Y-14364269D02*
X11455753Y-14383317D01*
X11722420Y-14449984D02*
X11722420Y-14249984D01*
X11722420Y-14440460D02*
X11703373Y-14449984D01*
X11703373Y-14449984D02*
X11665277Y-14449984D01*
X11665277Y-14449984D02*
X11646230Y-14440460D01*
X11646230Y-14440460D02*
X11636706Y-14430936D01*
X11636706Y-14430936D02*
X11627182Y-14411888D01*
X11627182Y-14411888D02*
X11627182Y-14354746D01*
X11627182Y-14354746D02*
X11636706Y-14335698D01*
X11636706Y-14335698D02*
X11646230Y-14326174D01*
X11646230Y-14326174D02*
X11665277Y-14316650D01*
X11665277Y-14316650D02*
X11703373Y-14316650D01*
X11703373Y-14316650D02*
X11722420Y-14326174D01*
X11798611Y-14526174D02*
X11808134Y-14516650D01*
X11808134Y-14516650D02*
X11827182Y-14488079D01*
X11827182Y-14488079D02*
X11836706Y-14469031D01*
X11836706Y-14469031D02*
X11846230Y-14440460D01*
X11846230Y-14440460D02*
X11855753Y-14392841D01*
X11855753Y-14392841D02*
X11855753Y-14354746D01*
X11855753Y-14354746D02*
X11846230Y-14307127D01*
X11846230Y-14307127D02*
X11836706Y-14278555D01*
X11836706Y-14278555D02*
X11827182Y-14259508D01*
X11827182Y-14259508D02*
X11808134Y-14230936D01*
X11808134Y-14230936D02*
X11798611Y-14221412D01*
M02*
