%TF.GenerationSoftware,KiCad,Pcbnew,(6.0.7-1)-1*%
%TF.CreationDate,2022-12-08T22:36:41-08:00*%
%TF.ProjectId,Control,436f6e74-726f-46c2-9e6b-696361645f70,1.1*%
%TF.SameCoordinates,Original*%
%TF.FileFunction,Legend,Top*%
%TF.FilePolarity,Positive*%
%FSLAX46Y46*%
G04 Gerber Fmt 4.6, Leading zero omitted, Abs format (unit mm)*
G04 Created by KiCad (PCBNEW (6.0.7-1)-1) date 2022-12-08 22:36:41*
%MOMM*%
%LPD*%
G01*
G04 APERTURE LIST*
G04 Aperture macros list*
%AMRoundRect*
0 Rectangle with rounded corners*
0 $1 Rounding radius*
0 $2 $3 $4 $5 $6 $7 $8 $9 X,Y pos of 4 corners*
0 Add a 4 corners polygon primitive as box body*
4,1,4,$2,$3,$4,$5,$6,$7,$8,$9,$2,$3,0*
0 Add four circle primitives for the rounded corners*
1,1,$1+$1,$2,$3*
1,1,$1+$1,$4,$5*
1,1,$1+$1,$6,$7*
1,1,$1+$1,$8,$9*
0 Add four rect primitives between the rounded corners*
20,1,$1+$1,$2,$3,$4,$5,0*
20,1,$1+$1,$4,$5,$6,$7,0*
20,1,$1+$1,$6,$7,$8,$9,0*
20,1,$1+$1,$8,$9,$2,$3,0*%
G04 Aperture macros list end*
%ADD10C,0.120000*%
%ADD11C,0.254000*%
%ADD12C,0.500000*%
%ADD13C,0.127000*%
%ADD14C,0.203200*%
%ADD15C,0.150000*%
%ADD16C,0.096520*%
%ADD17C,0.100000*%
%ADD18RoundRect,0.250000X0.250000X0.475000X-0.250000X0.475000X-0.250000X-0.475000X0.250000X-0.475000X0*%
%ADD19RoundRect,0.250000X0.475000X-0.250000X0.475000X0.250000X-0.475000X0.250000X-0.475000X-0.250000X0*%
%ADD20RoundRect,0.250000X-0.250000X-0.475000X0.250000X-0.475000X0.250000X0.475000X-0.250000X0.475000X0*%
%ADD21RoundRect,0.250000X-0.325000X-0.650000X0.325000X-0.650000X0.325000X0.650000X-0.325000X0.650000X0*%
%ADD22RoundRect,0.250000X0.325000X0.650000X-0.325000X0.650000X-0.325000X-0.650000X0.325000X-0.650000X0*%
%ADD23C,2.374900*%
%ADD24C,0.990600*%
%ADD25RoundRect,0.457200X0.000000X0.000000X0.000000X0.000000X0.000000X0.000000X0.000000X0.000000X0*%
%ADD26C,1.612900*%
%ADD27RoundRect,0.250000X-0.600000X0.600000X-0.600000X-0.600000X0.600000X-0.600000X0.600000X0.600000X0*%
%ADD28C,1.700000*%
%ADD29RoundRect,0.250000X0.450000X-0.262500X0.450000X0.262500X-0.450000X0.262500X-0.450000X-0.262500X0*%
%ADD30R,1.700000X1.700000*%
%ADD31O,1.700000X1.700000*%
%ADD32RoundRect,0.100000X-0.637500X-0.100000X0.637500X-0.100000X0.637500X0.100000X-0.637500X0.100000X0*%
%ADD33R,1.600000X0.550000*%
%ADD34R,0.550000X1.600000*%
%ADD35R,1.200000X1.400000*%
%ADD36RoundRect,0.250000X-0.650000X0.325000X-0.650000X-0.325000X0.650000X-0.325000X0.650000X0.325000X0*%
%ADD37RoundRect,0.375000X-0.625000X0.375000X-0.625000X-0.375000X0.625000X-0.375000X0.625000X0.375000X0*%
%ADD38C,4.000000*%
%ADD39RoundRect,0.250000X-0.262500X-0.450000X0.262500X-0.450000X0.262500X0.450000X-0.262500X0.450000X0*%
%ADD40R,0.400000X1.200000*%
%ADD41RoundRect,0.150000X0.512500X0.150000X-0.512500X0.150000X-0.512500X-0.150000X0.512500X-0.150000X0*%
%ADD42C,0.800000*%
%ADD43C,6.000000*%
%ADD44RoundRect,0.250000X-0.475000X0.250000X-0.475000X-0.250000X0.475000X-0.250000X0.475000X0.250000X0*%
%ADD45RoundRect,0.250000X-0.450000X0.262500X-0.450000X-0.262500X0.450000X-0.262500X0.450000X0.262500X0*%
%ADD46R,0.250000X0.360000*%
%ADD47O,4.000000X7.000000*%
%ADD48C,3.000000*%
%ADD49C,2.000000*%
%ADD50R,2.000000X2.000000*%
G04 APERTURE END LIST*
D10*
X135000000Y-83500000D02*
X139000000Y-83500000D01*
X139000000Y-83500000D02*
X139000000Y-85500000D01*
X139000000Y-85500000D02*
X135000000Y-85500000D01*
X135000000Y-85500000D02*
X135000000Y-83500000D01*
G36*
X135000000Y-83500000D02*
G01*
X139000000Y-83500000D01*
X139000000Y-85500000D01*
X135000000Y-85500000D01*
X135000000Y-83500000D01*
G37*
X90424000Y-113030000D02*
X90424000Y-96012000D01*
D11*
X223520000Y-106680000D02*
X223520000Y-93980000D01*
D12*
X174317000Y-82550000D02*
G75*
G03*
X174317000Y-82550000I-200000J0D01*
G01*
X150949000Y-120396000D02*
G75*
G03*
X150949000Y-120396000I-200000J0D01*
G01*
X143964000Y-124968000D02*
G75*
G03*
X143964000Y-124968000I-200000J0D01*
G01*
X205178000Y-105972000D02*
G75*
G03*
X205178000Y-105972000I-200000J0D01*
G01*
D10*
X105156000Y-96012000D02*
X105156000Y-113030000D01*
X90424000Y-96012000D02*
X105156000Y-96012000D01*
X105156000Y-113030000D02*
X90424000Y-113030000D01*
D12*
X144200000Y-91000000D02*
G75*
G03*
X144200000Y-91000000I-200000J0D01*
G01*
D11*
X223520000Y-93980000D02*
X233045000Y-93980000D01*
X233045000Y-106680000D02*
X223520000Y-106680000D01*
X233045000Y-93980000D02*
X233045000Y-106680000D01*
D13*
X94430116Y-104893619D02*
X93946307Y-104893619D01*
X93946307Y-103877619D01*
X94720402Y-104603333D02*
X95204211Y-104603333D01*
X94623640Y-104893619D02*
X94962307Y-103877619D01*
X95300973Y-104893619D01*
X95494497Y-103877619D02*
X96075069Y-103877619D01*
X95784783Y-104893619D02*
X95784783Y-103877619D01*
X96994307Y-104796857D02*
X96945926Y-104845238D01*
X96800783Y-104893619D01*
X96704021Y-104893619D01*
X96558878Y-104845238D01*
X96462116Y-104748476D01*
X96413735Y-104651714D01*
X96365354Y-104458190D01*
X96365354Y-104313047D01*
X96413735Y-104119523D01*
X96462116Y-104022761D01*
X96558878Y-103926000D01*
X96704021Y-103877619D01*
X96800783Y-103877619D01*
X96945926Y-103926000D01*
X96994307Y-103974380D01*
X97429735Y-104893619D02*
X97429735Y-103877619D01*
X97429735Y-104361428D02*
X98010307Y-104361428D01*
X98010307Y-104893619D02*
X98010307Y-103877619D01*
X98494116Y-104361428D02*
X98832783Y-104361428D01*
X98977926Y-104893619D02*
X98494116Y-104893619D01*
X98494116Y-103877619D01*
X98977926Y-103877619D01*
X99413354Y-104893619D02*
X99413354Y-103877619D01*
X99655259Y-103877619D01*
X99800402Y-103926000D01*
X99897164Y-104022761D01*
X99945545Y-104119523D01*
X99993926Y-104313047D01*
X99993926Y-104458190D01*
X99945545Y-104651714D01*
X99897164Y-104748476D01*
X99800402Y-104845238D01*
X99655259Y-104893619D01*
X99413354Y-104893619D01*
X91333259Y-107647619D02*
X91333259Y-106631619D01*
X91671926Y-107357333D01*
X92010592Y-106631619D01*
X92010592Y-107647619D01*
X92687926Y-106631619D02*
X92881450Y-106631619D01*
X92978211Y-106680000D01*
X93074973Y-106776761D01*
X93123354Y-106970285D01*
X93123354Y-107308952D01*
X93074973Y-107502476D01*
X92978211Y-107599238D01*
X92881450Y-107647619D01*
X92687926Y-107647619D01*
X92591164Y-107599238D01*
X92494402Y-107502476D01*
X92446021Y-107308952D01*
X92446021Y-106970285D01*
X92494402Y-106776761D01*
X92591164Y-106680000D01*
X92687926Y-106631619D01*
X93558783Y-107647619D02*
X93558783Y-106631619D01*
X93897450Y-107357333D01*
X94236116Y-106631619D01*
X94236116Y-107647619D01*
X94719926Y-107115428D02*
X95058592Y-107115428D01*
X95203735Y-107647619D02*
X94719926Y-107647619D01*
X94719926Y-106631619D01*
X95203735Y-106631619D01*
X95639164Y-107647619D02*
X95639164Y-106631619D01*
X96219735Y-107647619D01*
X96219735Y-106631619D01*
X96558402Y-106631619D02*
X97138973Y-106631619D01*
X96848688Y-107647619D02*
X96848688Y-106631619D01*
X97429259Y-107357333D02*
X97913069Y-107357333D01*
X97332497Y-107647619D02*
X97671164Y-106631619D01*
X98009830Y-107647619D01*
X98929069Y-107647619D02*
X98590402Y-107163809D01*
X98348497Y-107647619D02*
X98348497Y-106631619D01*
X98735545Y-106631619D01*
X98832307Y-106680000D01*
X98880688Y-106728380D01*
X98929069Y-106825142D01*
X98929069Y-106970285D01*
X98880688Y-107067047D01*
X98832307Y-107115428D01*
X98735545Y-107163809D01*
X98348497Y-107163809D01*
X99558021Y-107163809D02*
X99558021Y-107647619D01*
X99219354Y-106631619D02*
X99558021Y-107163809D01*
X99896688Y-106631619D01*
D11*
X192640857Y-127775788D02*
X191915142Y-127775788D01*
X191915142Y-126251788D01*
X193802000Y-127775788D02*
X193802000Y-126977502D01*
X193729428Y-126832360D01*
X193584285Y-126759788D01*
X193294000Y-126759788D01*
X193148857Y-126832360D01*
X193802000Y-127703217D02*
X193656857Y-127775788D01*
X193294000Y-127775788D01*
X193148857Y-127703217D01*
X193076285Y-127558074D01*
X193076285Y-127412931D01*
X193148857Y-127267788D01*
X193294000Y-127195217D01*
X193656857Y-127195217D01*
X193802000Y-127122645D01*
X194455142Y-127703217D02*
X194600285Y-127775788D01*
X194890571Y-127775788D01*
X195035714Y-127703217D01*
X195108285Y-127558074D01*
X195108285Y-127485502D01*
X195035714Y-127340360D01*
X194890571Y-127267788D01*
X194672857Y-127267788D01*
X194527714Y-127195217D01*
X194455142Y-127050074D01*
X194455142Y-126977502D01*
X194527714Y-126832360D01*
X194672857Y-126759788D01*
X194890571Y-126759788D01*
X195035714Y-126832360D01*
X196342000Y-127703217D02*
X196196857Y-127775788D01*
X195906571Y-127775788D01*
X195761428Y-127703217D01*
X195688857Y-127558074D01*
X195688857Y-126977502D01*
X195761428Y-126832360D01*
X195906571Y-126759788D01*
X196196857Y-126759788D01*
X196342000Y-126832360D01*
X196414571Y-126977502D01*
X196414571Y-127122645D01*
X195688857Y-127267788D01*
X197067714Y-127775788D02*
X197067714Y-126759788D01*
X197067714Y-127050074D02*
X197140285Y-126904931D01*
X197212857Y-126832360D01*
X197358000Y-126759788D01*
X197503142Y-126759788D01*
X200043142Y-127630645D02*
X199970571Y-127703217D01*
X199752857Y-127775788D01*
X199607714Y-127775788D01*
X199390000Y-127703217D01*
X199244857Y-127558074D01*
X199172285Y-127412931D01*
X199099714Y-127122645D01*
X199099714Y-126904931D01*
X199172285Y-126614645D01*
X199244857Y-126469502D01*
X199390000Y-126324360D01*
X199607714Y-126251788D01*
X199752857Y-126251788D01*
X199970571Y-126324360D01*
X200043142Y-126396931D01*
X200914000Y-127775788D02*
X200768857Y-127703217D01*
X200696285Y-127630645D01*
X200623714Y-127485502D01*
X200623714Y-127050074D01*
X200696285Y-126904931D01*
X200768857Y-126832360D01*
X200914000Y-126759788D01*
X201131714Y-126759788D01*
X201276857Y-126832360D01*
X201349428Y-126904931D01*
X201422000Y-127050074D01*
X201422000Y-127485502D01*
X201349428Y-127630645D01*
X201276857Y-127703217D01*
X201131714Y-127775788D01*
X200914000Y-127775788D01*
X202075142Y-126759788D02*
X202075142Y-127775788D01*
X202075142Y-126904931D02*
X202147714Y-126832360D01*
X202292857Y-126759788D01*
X202510571Y-126759788D01*
X202655714Y-126832360D01*
X202728285Y-126977502D01*
X202728285Y-127775788D01*
X203236285Y-126759788D02*
X203816857Y-126759788D01*
X203454000Y-126251788D02*
X203454000Y-127558074D01*
X203526571Y-127703217D01*
X203671714Y-127775788D01*
X203816857Y-127775788D01*
X204324857Y-127775788D02*
X204324857Y-126759788D01*
X204324857Y-127050074D02*
X204397428Y-126904931D01*
X204470000Y-126832360D01*
X204615142Y-126759788D01*
X204760285Y-126759788D01*
X205486000Y-127775788D02*
X205340857Y-127703217D01*
X205268285Y-127630645D01*
X205195714Y-127485502D01*
X205195714Y-127050074D01*
X205268285Y-126904931D01*
X205340857Y-126832360D01*
X205486000Y-126759788D01*
X205703714Y-126759788D01*
X205848857Y-126832360D01*
X205921428Y-126904931D01*
X205994000Y-127050074D01*
X205994000Y-127485502D01*
X205921428Y-127630645D01*
X205848857Y-127703217D01*
X205703714Y-127775788D01*
X205486000Y-127775788D01*
X206864857Y-127775788D02*
X206719714Y-127703217D01*
X206647142Y-127558074D01*
X206647142Y-126251788D01*
X209114571Y-126977502D02*
X209332285Y-127050074D01*
X209404857Y-127122645D01*
X209477428Y-127267788D01*
X209477428Y-127485502D01*
X209404857Y-127630645D01*
X209332285Y-127703217D01*
X209187142Y-127775788D01*
X208606571Y-127775788D01*
X208606571Y-126251788D01*
X209114571Y-126251788D01*
X209259714Y-126324360D01*
X209332285Y-126396931D01*
X209404857Y-126542074D01*
X209404857Y-126687217D01*
X209332285Y-126832360D01*
X209259714Y-126904931D01*
X209114571Y-126977502D01*
X208606571Y-126977502D01*
X210348285Y-127775788D02*
X210203142Y-127703217D01*
X210130571Y-127630645D01*
X210058000Y-127485502D01*
X210058000Y-127050074D01*
X210130571Y-126904931D01*
X210203142Y-126832360D01*
X210348285Y-126759788D01*
X210566000Y-126759788D01*
X210711142Y-126832360D01*
X210783714Y-126904931D01*
X210856285Y-127050074D01*
X210856285Y-127485502D01*
X210783714Y-127630645D01*
X210711142Y-127703217D01*
X210566000Y-127775788D01*
X210348285Y-127775788D01*
X212162571Y-127775788D02*
X212162571Y-126977502D01*
X212090000Y-126832360D01*
X211944857Y-126759788D01*
X211654571Y-126759788D01*
X211509428Y-126832360D01*
X212162571Y-127703217D02*
X212017428Y-127775788D01*
X211654571Y-127775788D01*
X211509428Y-127703217D01*
X211436857Y-127558074D01*
X211436857Y-127412931D01*
X211509428Y-127267788D01*
X211654571Y-127195217D01*
X212017428Y-127195217D01*
X212162571Y-127122645D01*
X212888285Y-127775788D02*
X212888285Y-126759788D01*
X212888285Y-127050074D02*
X212960857Y-126904931D01*
X213033428Y-126832360D01*
X213178571Y-126759788D01*
X213323714Y-126759788D01*
X214484857Y-127775788D02*
X214484857Y-126251788D01*
X214484857Y-127703217D02*
X214339714Y-127775788D01*
X214049428Y-127775788D01*
X213904285Y-127703217D01*
X213831714Y-127630645D01*
X213759142Y-127485502D01*
X213759142Y-127050074D01*
X213831714Y-126904931D01*
X213904285Y-126832360D01*
X214049428Y-126759788D01*
X214339714Y-126759788D01*
X214484857Y-126832360D01*
X196813714Y-128705428D02*
X197321714Y-130229428D01*
X197829714Y-128705428D01*
X198918285Y-130156857D02*
X198773142Y-130229428D01*
X198482857Y-130229428D01*
X198337714Y-130156857D01*
X198265142Y-130011714D01*
X198265142Y-129431142D01*
X198337714Y-129286000D01*
X198482857Y-129213428D01*
X198773142Y-129213428D01*
X198918285Y-129286000D01*
X198990857Y-129431142D01*
X198990857Y-129576285D01*
X198265142Y-129721428D01*
X199644000Y-130229428D02*
X199644000Y-129213428D01*
X199644000Y-129503714D02*
X199716571Y-129358571D01*
X199789142Y-129286000D01*
X199934285Y-129213428D01*
X200079428Y-129213428D01*
X200514857Y-130156857D02*
X200660000Y-130229428D01*
X200950285Y-130229428D01*
X201095428Y-130156857D01*
X201168000Y-130011714D01*
X201168000Y-129939142D01*
X201095428Y-129794000D01*
X200950285Y-129721428D01*
X200732571Y-129721428D01*
X200587428Y-129648857D01*
X200514857Y-129503714D01*
X200514857Y-129431142D01*
X200587428Y-129286000D01*
X200732571Y-129213428D01*
X200950285Y-129213428D01*
X201095428Y-129286000D01*
X201821142Y-130229428D02*
X201821142Y-129213428D01*
X201821142Y-128705428D02*
X201748571Y-128778000D01*
X201821142Y-128850571D01*
X201893714Y-128778000D01*
X201821142Y-128705428D01*
X201821142Y-128850571D01*
X202764571Y-130229428D02*
X202619428Y-130156857D01*
X202546857Y-130084285D01*
X202474285Y-129939142D01*
X202474285Y-129503714D01*
X202546857Y-129358571D01*
X202619428Y-129286000D01*
X202764571Y-129213428D01*
X202982285Y-129213428D01*
X203127428Y-129286000D01*
X203200000Y-129358571D01*
X203272571Y-129503714D01*
X203272571Y-129939142D01*
X203200000Y-130084285D01*
X203127428Y-130156857D01*
X202982285Y-130229428D01*
X202764571Y-130229428D01*
X203925714Y-129213428D02*
X203925714Y-130229428D01*
X203925714Y-129358571D02*
X203998285Y-129286000D01*
X204143428Y-129213428D01*
X204361142Y-129213428D01*
X204506285Y-129286000D01*
X204578857Y-129431142D01*
X204578857Y-130229428D01*
X207264000Y-130229428D02*
X206393142Y-130229428D01*
X206828571Y-130229428D02*
X206828571Y-128705428D01*
X206683428Y-128923142D01*
X206538285Y-129068285D01*
X206393142Y-129140857D01*
X207917142Y-130084285D02*
X207989714Y-130156857D01*
X207917142Y-130229428D01*
X207844571Y-130156857D01*
X207917142Y-130084285D01*
X207917142Y-130229428D01*
X209441142Y-130229428D02*
X208570285Y-130229428D01*
X209005714Y-130229428D02*
X209005714Y-128705428D01*
X208860571Y-128923142D01*
X208715428Y-129068285D01*
X208570285Y-129140857D01*
X193874571Y-131884782D02*
X194092285Y-131957354D01*
X194164857Y-132029925D01*
X194237428Y-132175068D01*
X194237428Y-132392782D01*
X194164857Y-132537925D01*
X194092285Y-132610497D01*
X193947142Y-132683068D01*
X193366571Y-132683068D01*
X193366571Y-131159068D01*
X193874571Y-131159068D01*
X194019714Y-131231640D01*
X194092285Y-131304211D01*
X194164857Y-131449354D01*
X194164857Y-131594497D01*
X194092285Y-131739640D01*
X194019714Y-131812211D01*
X193874571Y-131884782D01*
X193366571Y-131884782D01*
X194890571Y-132683068D02*
X194890571Y-131667068D01*
X194890571Y-131957354D02*
X194963142Y-131812211D01*
X195035714Y-131739640D01*
X195180857Y-131667068D01*
X195326000Y-131667068D01*
X195834000Y-132683068D02*
X195834000Y-131667068D01*
X195834000Y-131159068D02*
X195761428Y-131231640D01*
X195834000Y-131304211D01*
X195906571Y-131231640D01*
X195834000Y-131159068D01*
X195834000Y-131304211D01*
X197212857Y-132683068D02*
X197212857Y-131884782D01*
X197140285Y-131739640D01*
X196995142Y-131667068D01*
X196704857Y-131667068D01*
X196559714Y-131739640D01*
X197212857Y-132610497D02*
X197067714Y-132683068D01*
X196704857Y-132683068D01*
X196559714Y-132610497D01*
X196487142Y-132465354D01*
X196487142Y-132320211D01*
X196559714Y-132175068D01*
X196704857Y-132102497D01*
X197067714Y-132102497D01*
X197212857Y-132029925D01*
X197938571Y-131667068D02*
X197938571Y-132683068D01*
X197938571Y-131812211D02*
X198011142Y-131739640D01*
X198156285Y-131667068D01*
X198374000Y-131667068D01*
X198519142Y-131739640D01*
X198591714Y-131884782D01*
X198591714Y-132683068D01*
X200478571Y-132683068D02*
X200478571Y-131159068D01*
X201059142Y-131159068D01*
X201204285Y-131231640D01*
X201276857Y-131304211D01*
X201349428Y-131449354D01*
X201349428Y-131667068D01*
X201276857Y-131812211D01*
X201204285Y-131884782D01*
X201059142Y-131957354D01*
X200478571Y-131957354D01*
X202583142Y-132610497D02*
X202438000Y-132683068D01*
X202147714Y-132683068D01*
X202002571Y-132610497D01*
X201930000Y-132465354D01*
X201930000Y-131884782D01*
X202002571Y-131739640D01*
X202147714Y-131667068D01*
X202438000Y-131667068D01*
X202583142Y-131739640D01*
X202655714Y-131884782D01*
X202655714Y-132029925D01*
X201930000Y-132175068D01*
X203308857Y-131667068D02*
X203308857Y-133191068D01*
X203308857Y-131739640D02*
X203454000Y-131667068D01*
X203744285Y-131667068D01*
X203889428Y-131739640D01*
X203962000Y-131812211D01*
X204034571Y-131957354D01*
X204034571Y-132392782D01*
X203962000Y-132537925D01*
X203889428Y-132610497D01*
X203744285Y-132683068D01*
X203454000Y-132683068D01*
X203308857Y-132610497D01*
X204687714Y-132683068D02*
X204687714Y-131667068D01*
X204687714Y-131159068D02*
X204615142Y-131231640D01*
X204687714Y-131304211D01*
X204760285Y-131231640D01*
X204687714Y-131159068D01*
X204687714Y-131304211D01*
X205413428Y-131667068D02*
X205413428Y-132683068D01*
X205413428Y-131812211D02*
X205486000Y-131739640D01*
X205631142Y-131667068D01*
X205848857Y-131667068D01*
X205994000Y-131739640D01*
X206066571Y-131884782D01*
X206066571Y-132683068D01*
X207880857Y-131304211D02*
X207953428Y-131231640D01*
X208098571Y-131159068D01*
X208461428Y-131159068D01*
X208606571Y-131231640D01*
X208679142Y-131304211D01*
X208751714Y-131449354D01*
X208751714Y-131594497D01*
X208679142Y-131812211D01*
X207808285Y-132683068D01*
X208751714Y-132683068D01*
X209695142Y-131159068D02*
X209840285Y-131159068D01*
X209985428Y-131231640D01*
X210058000Y-131304211D01*
X210130571Y-131449354D01*
X210203142Y-131739640D01*
X210203142Y-132102497D01*
X210130571Y-132392782D01*
X210058000Y-132537925D01*
X209985428Y-132610497D01*
X209840285Y-132683068D01*
X209695142Y-132683068D01*
X209550000Y-132610497D01*
X209477428Y-132537925D01*
X209404857Y-132392782D01*
X209332285Y-132102497D01*
X209332285Y-131739640D01*
X209404857Y-131449354D01*
X209477428Y-131304211D01*
X209550000Y-131231640D01*
X209695142Y-131159068D01*
X210783714Y-131304211D02*
X210856285Y-131231640D01*
X211001428Y-131159068D01*
X211364285Y-131159068D01*
X211509428Y-131231640D01*
X211582000Y-131304211D01*
X211654571Y-131449354D01*
X211654571Y-131594497D01*
X211582000Y-131812211D01*
X210711142Y-132683068D01*
X211654571Y-132683068D01*
X212162571Y-131159068D02*
X213106000Y-131159068D01*
X212598000Y-131739640D01*
X212815714Y-131739640D01*
X212960857Y-131812211D01*
X213033428Y-131884782D01*
X213106000Y-132029925D01*
X213106000Y-132392782D01*
X213033428Y-132537925D01*
X212960857Y-132610497D01*
X212815714Y-132683068D01*
X212380285Y-132683068D01*
X212235142Y-132610497D01*
X212162571Y-132537925D01*
D13*
X97671164Y-101092000D02*
X97574402Y-101043619D01*
X97429259Y-101043619D01*
X97284116Y-101092000D01*
X97187354Y-101188761D01*
X97138973Y-101285523D01*
X97090592Y-101479047D01*
X97090592Y-101624190D01*
X97138973Y-101817714D01*
X97187354Y-101914476D01*
X97284116Y-102011238D01*
X97429259Y-102059619D01*
X97526021Y-102059619D01*
X97671164Y-102011238D01*
X97719545Y-101962857D01*
X97719545Y-101624190D01*
X97526021Y-101624190D01*
X98154973Y-102059619D02*
X98154973Y-101043619D01*
X98735545Y-102059619D01*
X98735545Y-101043619D01*
X99219354Y-102059619D02*
X99219354Y-101043619D01*
X99461259Y-101043619D01*
X99606402Y-101092000D01*
X99703164Y-101188761D01*
X99751545Y-101285523D01*
X99799926Y-101479047D01*
X99799926Y-101624190D01*
X99751545Y-101817714D01*
X99703164Y-101914476D01*
X99606402Y-102011238D01*
X99461259Y-102059619D01*
X99219354Y-102059619D01*
X98155450Y-99783619D02*
X97671640Y-99783619D01*
X97671640Y-98767619D01*
X98494116Y-99251428D02*
X98832783Y-99251428D01*
X98977926Y-99783619D02*
X98494116Y-99783619D01*
X98494116Y-98767619D01*
X98977926Y-98767619D01*
X99413354Y-99783619D02*
X99413354Y-98767619D01*
X99655259Y-98767619D01*
X99800402Y-98816000D01*
X99897164Y-98912761D01*
X99945545Y-99009523D01*
X99993926Y-99203047D01*
X99993926Y-99348190D01*
X99945545Y-99541714D01*
X99897164Y-99638476D01*
X99800402Y-99735238D01*
X99655259Y-99783619D01*
X99413354Y-99783619D01*
D11*
X226634523Y-105137857D02*
X225364523Y-105137857D01*
X226634523Y-104533095D02*
X225364523Y-104533095D01*
X226634523Y-103807380D01*
X225364523Y-103807380D01*
X225364523Y-103384047D02*
X225364523Y-102658333D01*
X226634523Y-103021190D02*
X225364523Y-103021190D01*
X225969285Y-102235000D02*
X225969285Y-101811666D01*
X226634523Y-101630238D02*
X226634523Y-102235000D01*
X225364523Y-102235000D01*
X225364523Y-101630238D01*
X226634523Y-100360238D02*
X226029761Y-100783571D01*
X226634523Y-101085952D02*
X225364523Y-101085952D01*
X225364523Y-100602142D01*
X225425000Y-100481190D01*
X225485476Y-100420714D01*
X225606428Y-100360238D01*
X225787857Y-100360238D01*
X225908809Y-100420714D01*
X225969285Y-100481190D01*
X226029761Y-100602142D01*
X226029761Y-101085952D01*
X226634523Y-99211190D02*
X226634523Y-99815952D01*
X225364523Y-99815952D01*
X225364523Y-98545952D02*
X225364523Y-98304047D01*
X225425000Y-98183095D01*
X225545952Y-98062142D01*
X225787857Y-98001666D01*
X226211190Y-98001666D01*
X226453095Y-98062142D01*
X226574047Y-98183095D01*
X226634523Y-98304047D01*
X226634523Y-98545952D01*
X226574047Y-98666904D01*
X226453095Y-98787857D01*
X226211190Y-98848333D01*
X225787857Y-98848333D01*
X225545952Y-98787857D01*
X225425000Y-98666904D01*
X225364523Y-98545952D01*
X226513571Y-96731666D02*
X226574047Y-96792142D01*
X226634523Y-96973571D01*
X226634523Y-97094523D01*
X226574047Y-97275952D01*
X226453095Y-97396904D01*
X226332142Y-97457380D01*
X226090238Y-97517857D01*
X225908809Y-97517857D01*
X225666904Y-97457380D01*
X225545952Y-97396904D01*
X225425000Y-97275952D01*
X225364523Y-97094523D01*
X225364523Y-96973571D01*
X225425000Y-96792142D01*
X225485476Y-96731666D01*
X226634523Y-96187380D02*
X225364523Y-96187380D01*
X226634523Y-95461666D02*
X225908809Y-96005952D01*
X225364523Y-95461666D02*
X226090238Y-96187380D01*
D14*
X96205523Y-111161285D02*
X95782190Y-111161285D01*
X95782190Y-111826523D02*
X95782190Y-110556523D01*
X96386952Y-110556523D01*
X96870761Y-111826523D02*
X96870761Y-110556523D01*
X98201238Y-111826523D02*
X97777904Y-111221761D01*
X97475523Y-111826523D02*
X97475523Y-110556523D01*
X97959333Y-110556523D01*
X98080285Y-110617000D01*
X98140761Y-110677476D01*
X98201238Y-110798428D01*
X98201238Y-110979857D01*
X98140761Y-111100809D01*
X98080285Y-111161285D01*
X97959333Y-111221761D01*
X97475523Y-111221761D01*
X98745523Y-111161285D02*
X99168857Y-111161285D01*
X99350285Y-111826523D02*
X98745523Y-111826523D01*
X98745523Y-110556523D01*
X99350285Y-110556523D01*
D15*
%TO.C,C3*%
X182078333Y-84177142D02*
X182030714Y-84224761D01*
X181887857Y-84272380D01*
X181792619Y-84272380D01*
X181649761Y-84224761D01*
X181554523Y-84129523D01*
X181506904Y-84034285D01*
X181459285Y-83843809D01*
X181459285Y-83700952D01*
X181506904Y-83510476D01*
X181554523Y-83415238D01*
X181649761Y-83320000D01*
X181792619Y-83272380D01*
X181887857Y-83272380D01*
X182030714Y-83320000D01*
X182078333Y-83367619D01*
X182411666Y-83272380D02*
X183030714Y-83272380D01*
X182697380Y-83653333D01*
X182840238Y-83653333D01*
X182935476Y-83700952D01*
X182983095Y-83748571D01*
X183030714Y-83843809D01*
X183030714Y-84081904D01*
X182983095Y-84177142D01*
X182935476Y-84224761D01*
X182840238Y-84272380D01*
X182554523Y-84272380D01*
X182459285Y-84224761D01*
X182411666Y-84177142D01*
%TO.C,C5*%
X200747333Y-117324142D02*
X200699714Y-117371761D01*
X200556857Y-117419380D01*
X200461619Y-117419380D01*
X200318761Y-117371761D01*
X200223523Y-117276523D01*
X200175904Y-117181285D01*
X200128285Y-116990809D01*
X200128285Y-116847952D01*
X200175904Y-116657476D01*
X200223523Y-116562238D01*
X200318761Y-116467000D01*
X200461619Y-116419380D01*
X200556857Y-116419380D01*
X200699714Y-116467000D01*
X200747333Y-116514619D01*
X201652095Y-116419380D02*
X201175904Y-116419380D01*
X201128285Y-116895571D01*
X201175904Y-116847952D01*
X201271142Y-116800333D01*
X201509238Y-116800333D01*
X201604476Y-116847952D01*
X201652095Y-116895571D01*
X201699714Y-116990809D01*
X201699714Y-117228904D01*
X201652095Y-117324142D01*
X201604476Y-117371761D01*
X201509238Y-117419380D01*
X201271142Y-117419380D01*
X201175904Y-117371761D01*
X201128285Y-117324142D01*
%TO.C,C7*%
X213082142Y-98591666D02*
X213129761Y-98639285D01*
X213177380Y-98782142D01*
X213177380Y-98877380D01*
X213129761Y-99020238D01*
X213034523Y-99115476D01*
X212939285Y-99163095D01*
X212748809Y-99210714D01*
X212605952Y-99210714D01*
X212415476Y-99163095D01*
X212320238Y-99115476D01*
X212225000Y-99020238D01*
X212177380Y-98877380D01*
X212177380Y-98782142D01*
X212225000Y-98639285D01*
X212272619Y-98591666D01*
X212177380Y-98258333D02*
X212177380Y-97591666D01*
X213177380Y-98020238D01*
%TO.C,C8*%
X209383333Y-95607142D02*
X209335714Y-95654761D01*
X209192857Y-95702380D01*
X209097619Y-95702380D01*
X208954761Y-95654761D01*
X208859523Y-95559523D01*
X208811904Y-95464285D01*
X208764285Y-95273809D01*
X208764285Y-95130952D01*
X208811904Y-94940476D01*
X208859523Y-94845238D01*
X208954761Y-94750000D01*
X209097619Y-94702380D01*
X209192857Y-94702380D01*
X209335714Y-94750000D01*
X209383333Y-94797619D01*
X209954761Y-95130952D02*
X209859523Y-95083333D01*
X209811904Y-95035714D01*
X209764285Y-94940476D01*
X209764285Y-94892857D01*
X209811904Y-94797619D01*
X209859523Y-94750000D01*
X209954761Y-94702380D01*
X210145238Y-94702380D01*
X210240476Y-94750000D01*
X210288095Y-94797619D01*
X210335714Y-94892857D01*
X210335714Y-94940476D01*
X210288095Y-95035714D01*
X210240476Y-95083333D01*
X210145238Y-95130952D01*
X209954761Y-95130952D01*
X209859523Y-95178571D01*
X209811904Y-95226190D01*
X209764285Y-95321428D01*
X209764285Y-95511904D01*
X209811904Y-95607142D01*
X209859523Y-95654761D01*
X209954761Y-95702380D01*
X210145238Y-95702380D01*
X210240476Y-95654761D01*
X210288095Y-95607142D01*
X210335714Y-95511904D01*
X210335714Y-95321428D01*
X210288095Y-95226190D01*
X210240476Y-95178571D01*
X210145238Y-95130952D01*
%TO.C,C9*%
X192365333Y-103989142D02*
X192317714Y-104036761D01*
X192174857Y-104084380D01*
X192079619Y-104084380D01*
X191936761Y-104036761D01*
X191841523Y-103941523D01*
X191793904Y-103846285D01*
X191746285Y-103655809D01*
X191746285Y-103512952D01*
X191793904Y-103322476D01*
X191841523Y-103227238D01*
X191936761Y-103132000D01*
X192079619Y-103084380D01*
X192174857Y-103084380D01*
X192317714Y-103132000D01*
X192365333Y-103179619D01*
X192841523Y-104084380D02*
X193032000Y-104084380D01*
X193127238Y-104036761D01*
X193174857Y-103989142D01*
X193270095Y-103846285D01*
X193317714Y-103655809D01*
X193317714Y-103274857D01*
X193270095Y-103179619D01*
X193222476Y-103132000D01*
X193127238Y-103084380D01*
X192936761Y-103084380D01*
X192841523Y-103132000D01*
X192793904Y-103179619D01*
X192746285Y-103274857D01*
X192746285Y-103512952D01*
X192793904Y-103608190D01*
X192841523Y-103655809D01*
X192936761Y-103703428D01*
X193127238Y-103703428D01*
X193222476Y-103655809D01*
X193270095Y-103608190D01*
X193317714Y-103512952D01*
%TO.C,C11*%
X191889142Y-97893142D02*
X191841523Y-97940761D01*
X191698666Y-97988380D01*
X191603428Y-97988380D01*
X191460571Y-97940761D01*
X191365333Y-97845523D01*
X191317714Y-97750285D01*
X191270095Y-97559809D01*
X191270095Y-97416952D01*
X191317714Y-97226476D01*
X191365333Y-97131238D01*
X191460571Y-97036000D01*
X191603428Y-96988380D01*
X191698666Y-96988380D01*
X191841523Y-97036000D01*
X191889142Y-97083619D01*
X192841523Y-97988380D02*
X192270095Y-97988380D01*
X192555809Y-97988380D02*
X192555809Y-96988380D01*
X192460571Y-97131238D01*
X192365333Y-97226476D01*
X192270095Y-97274095D01*
X193793904Y-97988380D02*
X193222476Y-97988380D01*
X193508190Y-97988380D02*
X193508190Y-96988380D01*
X193412952Y-97131238D01*
X193317714Y-97226476D01*
X193222476Y-97274095D01*
%TO.C,C13*%
X199763142Y-114784142D02*
X199715523Y-114831761D01*
X199572666Y-114879380D01*
X199477428Y-114879380D01*
X199334571Y-114831761D01*
X199239333Y-114736523D01*
X199191714Y-114641285D01*
X199144095Y-114450809D01*
X199144095Y-114307952D01*
X199191714Y-114117476D01*
X199239333Y-114022238D01*
X199334571Y-113927000D01*
X199477428Y-113879380D01*
X199572666Y-113879380D01*
X199715523Y-113927000D01*
X199763142Y-113974619D01*
X200715523Y-114879380D02*
X200144095Y-114879380D01*
X200429809Y-114879380D02*
X200429809Y-113879380D01*
X200334571Y-114022238D01*
X200239333Y-114117476D01*
X200144095Y-114165095D01*
X201048857Y-113879380D02*
X201667904Y-113879380D01*
X201334571Y-114260333D01*
X201477428Y-114260333D01*
X201572666Y-114307952D01*
X201620285Y-114355571D01*
X201667904Y-114450809D01*
X201667904Y-114688904D01*
X201620285Y-114784142D01*
X201572666Y-114831761D01*
X201477428Y-114879380D01*
X201191714Y-114879380D01*
X201096476Y-114831761D01*
X201048857Y-114784142D01*
%TO.C,C14*%
X191127142Y-93702142D02*
X191079523Y-93749761D01*
X190936666Y-93797380D01*
X190841428Y-93797380D01*
X190698571Y-93749761D01*
X190603333Y-93654523D01*
X190555714Y-93559285D01*
X190508095Y-93368809D01*
X190508095Y-93225952D01*
X190555714Y-93035476D01*
X190603333Y-92940238D01*
X190698571Y-92845000D01*
X190841428Y-92797380D01*
X190936666Y-92797380D01*
X191079523Y-92845000D01*
X191127142Y-92892619D01*
X192079523Y-93797380D02*
X191508095Y-93797380D01*
X191793809Y-93797380D02*
X191793809Y-92797380D01*
X191698571Y-92940238D01*
X191603333Y-93035476D01*
X191508095Y-93083095D01*
X192936666Y-93130714D02*
X192936666Y-93797380D01*
X192698571Y-92749761D02*
X192460476Y-93464047D01*
X193079523Y-93464047D01*
D16*
%TO.C,ISP1*%
X176785755Y-112438898D02*
X176785755Y-111232398D01*
X177302827Y-112381446D02*
X177475184Y-112438898D01*
X177762446Y-112438898D01*
X177877351Y-112381446D01*
X177934803Y-112323993D01*
X177992255Y-112209089D01*
X177992255Y-112094184D01*
X177934803Y-111979279D01*
X177877351Y-111921827D01*
X177762446Y-111864374D01*
X177532636Y-111806922D01*
X177417732Y-111749470D01*
X177360279Y-111692017D01*
X177302827Y-111577112D01*
X177302827Y-111462208D01*
X177360279Y-111347303D01*
X177417732Y-111289851D01*
X177532636Y-111232398D01*
X177819898Y-111232398D01*
X177992255Y-111289851D01*
X178509327Y-112438898D02*
X178509327Y-111232398D01*
X178968946Y-111232398D01*
X179083851Y-111289851D01*
X179141303Y-111347303D01*
X179198755Y-111462208D01*
X179198755Y-111634565D01*
X179141303Y-111749470D01*
X179083851Y-111806922D01*
X178968946Y-111864374D01*
X178509327Y-111864374D01*
X180347803Y-112438898D02*
X179658374Y-112438898D01*
X180003089Y-112438898D02*
X180003089Y-111232398D01*
X179888184Y-111404755D01*
X179773279Y-111519660D01*
X179658374Y-111577112D01*
D15*
%TO.C,MCU1*%
X212292380Y-71683333D02*
X211292380Y-71683333D01*
X212006666Y-71350000D01*
X211292380Y-71016666D01*
X212292380Y-71016666D01*
X212197142Y-69969047D02*
X212244761Y-70016666D01*
X212292380Y-70159523D01*
X212292380Y-70254761D01*
X212244761Y-70397619D01*
X212149523Y-70492857D01*
X212054285Y-70540476D01*
X211863809Y-70588095D01*
X211720952Y-70588095D01*
X211530476Y-70540476D01*
X211435238Y-70492857D01*
X211340000Y-70397619D01*
X211292380Y-70254761D01*
X211292380Y-70159523D01*
X211340000Y-70016666D01*
X211387619Y-69969047D01*
X211292380Y-69540476D02*
X212101904Y-69540476D01*
X212197142Y-69492857D01*
X212244761Y-69445238D01*
X212292380Y-69350000D01*
X212292380Y-69159523D01*
X212244761Y-69064285D01*
X212197142Y-69016666D01*
X212101904Y-68969047D01*
X211292380Y-68969047D01*
X212292380Y-67969047D02*
X212292380Y-68540476D01*
X212292380Y-68254761D02*
X211292380Y-68254761D01*
X211435238Y-68350000D01*
X211530476Y-68445238D01*
X211578095Y-68540476D01*
%TO.C,R1*%
X170252380Y-83478666D02*
X169776190Y-83812000D01*
X170252380Y-84050095D02*
X169252380Y-84050095D01*
X169252380Y-83669142D01*
X169300000Y-83573904D01*
X169347619Y-83526285D01*
X169442857Y-83478666D01*
X169585714Y-83478666D01*
X169680952Y-83526285D01*
X169728571Y-83573904D01*
X169776190Y-83669142D01*
X169776190Y-84050095D01*
X170252380Y-82526285D02*
X170252380Y-83097714D01*
X170252380Y-82812000D02*
X169252380Y-82812000D01*
X169395238Y-82907238D01*
X169490476Y-83002476D01*
X169538095Y-83097714D01*
%TO.C,R3*%
X198954380Y-110656666D02*
X198478190Y-110990000D01*
X198954380Y-111228095D02*
X197954380Y-111228095D01*
X197954380Y-110847142D01*
X198002000Y-110751904D01*
X198049619Y-110704285D01*
X198144857Y-110656666D01*
X198287714Y-110656666D01*
X198382952Y-110704285D01*
X198430571Y-110751904D01*
X198478190Y-110847142D01*
X198478190Y-111228095D01*
X197954380Y-110323333D02*
X197954380Y-109704285D01*
X198335333Y-110037619D01*
X198335333Y-109894761D01*
X198382952Y-109799523D01*
X198430571Y-109751904D01*
X198525809Y-109704285D01*
X198763904Y-109704285D01*
X198859142Y-109751904D01*
X198906761Y-109799523D01*
X198954380Y-109894761D01*
X198954380Y-110180476D01*
X198906761Y-110275714D01*
X198859142Y-110323333D01*
%TO.C,SW2*%
X228536666Y-97134761D02*
X228679523Y-97182380D01*
X228917619Y-97182380D01*
X229012857Y-97134761D01*
X229060476Y-97087142D01*
X229108095Y-96991904D01*
X229108095Y-96896666D01*
X229060476Y-96801428D01*
X229012857Y-96753809D01*
X228917619Y-96706190D01*
X228727142Y-96658571D01*
X228631904Y-96610952D01*
X228584285Y-96563333D01*
X228536666Y-96468095D01*
X228536666Y-96372857D01*
X228584285Y-96277619D01*
X228631904Y-96230000D01*
X228727142Y-96182380D01*
X228965238Y-96182380D01*
X229108095Y-96230000D01*
X229441428Y-96182380D02*
X229679523Y-97182380D01*
X229870000Y-96468095D01*
X230060476Y-97182380D01*
X230298571Y-96182380D01*
X230631904Y-96277619D02*
X230679523Y-96230000D01*
X230774761Y-96182380D01*
X231012857Y-96182380D01*
X231108095Y-96230000D01*
X231155714Y-96277619D01*
X231203333Y-96372857D01*
X231203333Y-96468095D01*
X231155714Y-96610952D01*
X230584285Y-97182380D01*
X231203333Y-97182380D01*
%TO.C,U1*%
X176403095Y-88987380D02*
X176403095Y-89796904D01*
X176450714Y-89892142D01*
X176498333Y-89939761D01*
X176593571Y-89987380D01*
X176784047Y-89987380D01*
X176879285Y-89939761D01*
X176926904Y-89892142D01*
X176974523Y-89796904D01*
X176974523Y-88987380D01*
X177974523Y-89987380D02*
X177403095Y-89987380D01*
X177688809Y-89987380D02*
X177688809Y-88987380D01*
X177593571Y-89130238D01*
X177498333Y-89225476D01*
X177403095Y-89273095D01*
%TO.C,U4*%
X204470095Y-107275380D02*
X204470095Y-108084904D01*
X204517714Y-108180142D01*
X204565333Y-108227761D01*
X204660571Y-108275380D01*
X204851047Y-108275380D01*
X204946285Y-108227761D01*
X204993904Y-108180142D01*
X205041523Y-108084904D01*
X205041523Y-107275380D01*
X205946285Y-107608714D02*
X205946285Y-108275380D01*
X205708190Y-107227761D02*
X205470095Y-107942047D01*
X206089142Y-107942047D01*
%TO.C,Y1*%
X206986190Y-101441190D02*
X207462380Y-101441190D01*
X206462380Y-101774523D02*
X206986190Y-101441190D01*
X206462380Y-101107857D01*
X207462380Y-100250714D02*
X207462380Y-100822142D01*
X207462380Y-100536428D02*
X206462380Y-100536428D01*
X206605238Y-100631666D01*
X206700476Y-100726904D01*
X206748095Y-100822142D01*
%TO.C,C15*%
X208907142Y-107037142D02*
X208859523Y-107084761D01*
X208716666Y-107132380D01*
X208621428Y-107132380D01*
X208478571Y-107084761D01*
X208383333Y-106989523D01*
X208335714Y-106894285D01*
X208288095Y-106703809D01*
X208288095Y-106560952D01*
X208335714Y-106370476D01*
X208383333Y-106275238D01*
X208478571Y-106180000D01*
X208621428Y-106132380D01*
X208716666Y-106132380D01*
X208859523Y-106180000D01*
X208907142Y-106227619D01*
X209859523Y-107132380D02*
X209288095Y-107132380D01*
X209573809Y-107132380D02*
X209573809Y-106132380D01*
X209478571Y-106275238D01*
X209383333Y-106370476D01*
X209288095Y-106418095D01*
X210764285Y-106132380D02*
X210288095Y-106132380D01*
X210240476Y-106608571D01*
X210288095Y-106560952D01*
X210383333Y-106513333D01*
X210621428Y-106513333D01*
X210716666Y-106560952D01*
X210764285Y-106608571D01*
X210811904Y-106703809D01*
X210811904Y-106941904D01*
X210764285Y-107037142D01*
X210716666Y-107084761D01*
X210621428Y-107132380D01*
X210383333Y-107132380D01*
X210288095Y-107084761D01*
X210240476Y-107037142D01*
%TO.C,C12*%
X217273142Y-71254857D02*
X217320761Y-71302476D01*
X217368380Y-71445333D01*
X217368380Y-71540571D01*
X217320761Y-71683428D01*
X217225523Y-71778666D01*
X217130285Y-71826285D01*
X216939809Y-71873904D01*
X216796952Y-71873904D01*
X216606476Y-71826285D01*
X216511238Y-71778666D01*
X216416000Y-71683428D01*
X216368380Y-71540571D01*
X216368380Y-71445333D01*
X216416000Y-71302476D01*
X216463619Y-71254857D01*
X217368380Y-70302476D02*
X217368380Y-70873904D01*
X217368380Y-70588190D02*
X216368380Y-70588190D01*
X216511238Y-70683428D01*
X216606476Y-70778666D01*
X216654095Y-70873904D01*
X216463619Y-69921523D02*
X216416000Y-69873904D01*
X216368380Y-69778666D01*
X216368380Y-69540571D01*
X216416000Y-69445333D01*
X216463619Y-69397714D01*
X216558857Y-69350095D01*
X216654095Y-69350095D01*
X216796952Y-69397714D01*
X217368380Y-69969142D01*
X217368380Y-69350095D01*
%TO.C,USB1*%
X123451904Y-116627380D02*
X123451904Y-117436904D01*
X123499523Y-117532142D01*
X123547142Y-117579761D01*
X123642380Y-117627380D01*
X123832857Y-117627380D01*
X123928095Y-117579761D01*
X123975714Y-117532142D01*
X124023333Y-117436904D01*
X124023333Y-116627380D01*
X124451904Y-117579761D02*
X124594761Y-117627380D01*
X124832857Y-117627380D01*
X124928095Y-117579761D01*
X124975714Y-117532142D01*
X125023333Y-117436904D01*
X125023333Y-117341666D01*
X124975714Y-117246428D01*
X124928095Y-117198809D01*
X124832857Y-117151190D01*
X124642380Y-117103571D01*
X124547142Y-117055952D01*
X124499523Y-117008333D01*
X124451904Y-116913095D01*
X124451904Y-116817857D01*
X124499523Y-116722619D01*
X124547142Y-116675000D01*
X124642380Y-116627380D01*
X124880476Y-116627380D01*
X125023333Y-116675000D01*
X125785238Y-117103571D02*
X125928095Y-117151190D01*
X125975714Y-117198809D01*
X126023333Y-117294047D01*
X126023333Y-117436904D01*
X125975714Y-117532142D01*
X125928095Y-117579761D01*
X125832857Y-117627380D01*
X125451904Y-117627380D01*
X125451904Y-116627380D01*
X125785238Y-116627380D01*
X125880476Y-116675000D01*
X125928095Y-116722619D01*
X125975714Y-116817857D01*
X125975714Y-116913095D01*
X125928095Y-117008333D01*
X125880476Y-117055952D01*
X125785238Y-117103571D01*
X125451904Y-117103571D01*
X126975714Y-117627380D02*
X126404285Y-117627380D01*
X126690000Y-117627380D02*
X126690000Y-116627380D01*
X126594761Y-116770238D01*
X126499523Y-116865476D01*
X126404285Y-116913095D01*
%TO.C,R2*%
X148377333Y-133331380D02*
X148044000Y-132855190D01*
X147805904Y-133331380D02*
X147805904Y-132331380D01*
X148186857Y-132331380D01*
X148282095Y-132379000D01*
X148329714Y-132426619D01*
X148377333Y-132521857D01*
X148377333Y-132664714D01*
X148329714Y-132759952D01*
X148282095Y-132807571D01*
X148186857Y-132855190D01*
X147805904Y-132855190D01*
X148758285Y-132426619D02*
X148805904Y-132379000D01*
X148901142Y-132331380D01*
X149139238Y-132331380D01*
X149234476Y-132379000D01*
X149282095Y-132426619D01*
X149329714Y-132521857D01*
X149329714Y-132617095D01*
X149282095Y-132759952D01*
X148710666Y-133331380D01*
X149329714Y-133331380D01*
%TO.C,R6*%
X139852380Y-119837666D02*
X139376190Y-120171000D01*
X139852380Y-120409095D02*
X138852380Y-120409095D01*
X138852380Y-120028142D01*
X138900000Y-119932904D01*
X138947619Y-119885285D01*
X139042857Y-119837666D01*
X139185714Y-119837666D01*
X139280952Y-119885285D01*
X139328571Y-119932904D01*
X139376190Y-120028142D01*
X139376190Y-120409095D01*
X138852380Y-118980523D02*
X138852380Y-119171000D01*
X138900000Y-119266238D01*
X138947619Y-119313857D01*
X139090476Y-119409095D01*
X139280952Y-119456714D01*
X139661904Y-119456714D01*
X139757142Y-119409095D01*
X139804761Y-119361476D01*
X139852380Y-119266238D01*
X139852380Y-119075761D01*
X139804761Y-118980523D01*
X139757142Y-118932904D01*
X139661904Y-118885285D01*
X139423809Y-118885285D01*
X139328571Y-118932904D01*
X139280952Y-118980523D01*
X139233333Y-119075761D01*
X139233333Y-119266238D01*
X139280952Y-119361476D01*
X139328571Y-119409095D01*
X139423809Y-119456714D01*
%TO.C,U2*%
X145034095Y-118324380D02*
X145034095Y-119133904D01*
X145081714Y-119229142D01*
X145129333Y-119276761D01*
X145224571Y-119324380D01*
X145415047Y-119324380D01*
X145510285Y-119276761D01*
X145557904Y-119229142D01*
X145605523Y-119133904D01*
X145605523Y-118324380D01*
X146034095Y-118419619D02*
X146081714Y-118372000D01*
X146176952Y-118324380D01*
X146415047Y-118324380D01*
X146510285Y-118372000D01*
X146557904Y-118419619D01*
X146605523Y-118514857D01*
X146605523Y-118610095D01*
X146557904Y-118752952D01*
X145986476Y-119324380D01*
X146605523Y-119324380D01*
%TO.C,U5*%
X137628380Y-123734904D02*
X138437904Y-123734904D01*
X138533142Y-123687285D01*
X138580761Y-123639666D01*
X138628380Y-123544428D01*
X138628380Y-123353952D01*
X138580761Y-123258714D01*
X138533142Y-123211095D01*
X138437904Y-123163476D01*
X137628380Y-123163476D01*
X137628380Y-122211095D02*
X137628380Y-122687285D01*
X138104571Y-122734904D01*
X138056952Y-122687285D01*
X138009333Y-122592047D01*
X138009333Y-122353952D01*
X138056952Y-122258714D01*
X138104571Y-122211095D01*
X138199809Y-122163476D01*
X138437904Y-122163476D01*
X138533142Y-122211095D01*
X138580761Y-122258714D01*
X138628380Y-122353952D01*
X138628380Y-122592047D01*
X138580761Y-122687285D01*
X138533142Y-122734904D01*
%TO.C,R7*%
X139852380Y-126441666D02*
X139376190Y-126775000D01*
X139852380Y-127013095D02*
X138852380Y-127013095D01*
X138852380Y-126632142D01*
X138900000Y-126536904D01*
X138947619Y-126489285D01*
X139042857Y-126441666D01*
X139185714Y-126441666D01*
X139280952Y-126489285D01*
X139328571Y-126536904D01*
X139376190Y-126632142D01*
X139376190Y-127013095D01*
X138852380Y-126108333D02*
X138852380Y-125441666D01*
X139852380Y-125870238D01*
%TO.C,C6*%
X148377333Y-130950142D02*
X148329714Y-130997761D01*
X148186857Y-131045380D01*
X148091619Y-131045380D01*
X147948761Y-130997761D01*
X147853523Y-130902523D01*
X147805904Y-130807285D01*
X147758285Y-130616809D01*
X147758285Y-130473952D01*
X147805904Y-130283476D01*
X147853523Y-130188238D01*
X147948761Y-130093000D01*
X148091619Y-130045380D01*
X148186857Y-130045380D01*
X148329714Y-130093000D01*
X148377333Y-130140619D01*
X149234476Y-130045380D02*
X149044000Y-130045380D01*
X148948761Y-130093000D01*
X148901142Y-130140619D01*
X148805904Y-130283476D01*
X148758285Y-130473952D01*
X148758285Y-130854904D01*
X148805904Y-130950142D01*
X148853523Y-130997761D01*
X148948761Y-131045380D01*
X149139238Y-131045380D01*
X149234476Y-130997761D01*
X149282095Y-130950142D01*
X149329714Y-130854904D01*
X149329714Y-130616809D01*
X149282095Y-130521571D01*
X149234476Y-130473952D01*
X149139238Y-130426333D01*
X148948761Y-130426333D01*
X148853523Y-130473952D01*
X148805904Y-130521571D01*
X148758285Y-130616809D01*
%TO.C,C2*%
X141423333Y-115792142D02*
X141375714Y-115839761D01*
X141232857Y-115887380D01*
X141137619Y-115887380D01*
X140994761Y-115839761D01*
X140899523Y-115744523D01*
X140851904Y-115649285D01*
X140804285Y-115458809D01*
X140804285Y-115315952D01*
X140851904Y-115125476D01*
X140899523Y-115030238D01*
X140994761Y-114935000D01*
X141137619Y-114887380D01*
X141232857Y-114887380D01*
X141375714Y-114935000D01*
X141423333Y-114982619D01*
X141804285Y-114982619D02*
X141851904Y-114935000D01*
X141947142Y-114887380D01*
X142185238Y-114887380D01*
X142280476Y-114935000D01*
X142328095Y-114982619D01*
X142375714Y-115077857D01*
X142375714Y-115173095D01*
X142328095Y-115315952D01*
X141756666Y-115887380D01*
X142375714Y-115887380D01*
%TO.C,C4*%
X148377333Y-128410142D02*
X148329714Y-128457761D01*
X148186857Y-128505380D01*
X148091619Y-128505380D01*
X147948761Y-128457761D01*
X147853523Y-128362523D01*
X147805904Y-128267285D01*
X147758285Y-128076809D01*
X147758285Y-127933952D01*
X147805904Y-127743476D01*
X147853523Y-127648238D01*
X147948761Y-127553000D01*
X148091619Y-127505380D01*
X148186857Y-127505380D01*
X148329714Y-127553000D01*
X148377333Y-127600619D01*
X149234476Y-127838714D02*
X149234476Y-128505380D01*
X148996380Y-127457761D02*
X148758285Y-128172047D01*
X149377333Y-128172047D01*
%TO.C,C1*%
X141523333Y-130792142D02*
X141475714Y-130839761D01*
X141332857Y-130887380D01*
X141237619Y-130887380D01*
X141094761Y-130839761D01*
X140999523Y-130744523D01*
X140951904Y-130649285D01*
X140904285Y-130458809D01*
X140904285Y-130315952D01*
X140951904Y-130125476D01*
X140999523Y-130030238D01*
X141094761Y-129935000D01*
X141237619Y-129887380D01*
X141332857Y-129887380D01*
X141475714Y-129935000D01*
X141523333Y-129982619D01*
X142475714Y-130887380D02*
X141904285Y-130887380D01*
X142190000Y-130887380D02*
X142190000Y-129887380D01*
X142094761Y-130030238D01*
X141999523Y-130125476D01*
X141904285Y-130173095D01*
%TO.C,C16*%
X166607142Y-83892857D02*
X166654761Y-83940476D01*
X166702380Y-84083333D01*
X166702380Y-84178571D01*
X166654761Y-84321428D01*
X166559523Y-84416666D01*
X166464285Y-84464285D01*
X166273809Y-84511904D01*
X166130952Y-84511904D01*
X165940476Y-84464285D01*
X165845238Y-84416666D01*
X165750000Y-84321428D01*
X165702380Y-84178571D01*
X165702380Y-84083333D01*
X165750000Y-83940476D01*
X165797619Y-83892857D01*
X166702380Y-82940476D02*
X166702380Y-83511904D01*
X166702380Y-83226190D02*
X165702380Y-83226190D01*
X165845238Y-83321428D01*
X165940476Y-83416666D01*
X165988095Y-83511904D01*
X165702380Y-82083333D02*
X165702380Y-82273809D01*
X165750000Y-82369047D01*
X165797619Y-82416666D01*
X165940476Y-82511904D01*
X166130952Y-82559523D01*
X166511904Y-82559523D01*
X166607142Y-82511904D01*
X166654761Y-82464285D01*
X166702380Y-82369047D01*
X166702380Y-82178571D01*
X166654761Y-82083333D01*
X166607142Y-82035714D01*
X166511904Y-81988095D01*
X166273809Y-81988095D01*
X166178571Y-82035714D01*
X166130952Y-82083333D01*
X166083333Y-82178571D01*
X166083333Y-82369047D01*
X166130952Y-82464285D01*
X166178571Y-82511904D01*
X166273809Y-82559523D01*
%TO.C,R4*%
X163202380Y-83416666D02*
X162726190Y-83750000D01*
X163202380Y-83988095D02*
X162202380Y-83988095D01*
X162202380Y-83607142D01*
X162250000Y-83511904D01*
X162297619Y-83464285D01*
X162392857Y-83416666D01*
X162535714Y-83416666D01*
X162630952Y-83464285D01*
X162678571Y-83511904D01*
X162726190Y-83607142D01*
X162726190Y-83988095D01*
X162535714Y-82559523D02*
X163202380Y-82559523D01*
X162154761Y-82797619D02*
X162869047Y-83035714D01*
X162869047Y-82416666D01*
%TO.C,R5*%
X168602380Y-124666666D02*
X168126190Y-125000000D01*
X168602380Y-125238095D02*
X167602380Y-125238095D01*
X167602380Y-124857142D01*
X167650000Y-124761904D01*
X167697619Y-124714285D01*
X167792857Y-124666666D01*
X167935714Y-124666666D01*
X168030952Y-124714285D01*
X168078571Y-124761904D01*
X168126190Y-124857142D01*
X168126190Y-125238095D01*
X167602380Y-123761904D02*
X167602380Y-124238095D01*
X168078571Y-124285714D01*
X168030952Y-124238095D01*
X167983333Y-124142857D01*
X167983333Y-123904761D01*
X168030952Y-123809523D01*
X168078571Y-123761904D01*
X168173809Y-123714285D01*
X168411904Y-123714285D01*
X168507142Y-123761904D01*
X168554761Y-123809523D01*
X168602380Y-123904761D01*
X168602380Y-124142857D01*
X168554761Y-124238095D01*
X168507142Y-124285714D01*
%TO.C,R19*%
X129452380Y-90092976D02*
X128976190Y-90426309D01*
X129452380Y-90664404D02*
X128452380Y-90664404D01*
X128452380Y-90283452D01*
X128500000Y-90188214D01*
X128547619Y-90140595D01*
X128642857Y-90092976D01*
X128785714Y-90092976D01*
X128880952Y-90140595D01*
X128928571Y-90188214D01*
X128976190Y-90283452D01*
X128976190Y-90664404D01*
X129452380Y-89140595D02*
X129452380Y-89712023D01*
X129452380Y-89426309D02*
X128452380Y-89426309D01*
X128595238Y-89521547D01*
X128690476Y-89616785D01*
X128738095Y-89712023D01*
X129452380Y-88664404D02*
X129452380Y-88473928D01*
X129404761Y-88378690D01*
X129357142Y-88331071D01*
X129214285Y-88235833D01*
X129023809Y-88188214D01*
X128642857Y-88188214D01*
X128547619Y-88235833D01*
X128500000Y-88283452D01*
X128452380Y-88378690D01*
X128452380Y-88569166D01*
X128500000Y-88664404D01*
X128547619Y-88712023D01*
X128642857Y-88759642D01*
X128880952Y-88759642D01*
X128976190Y-88712023D01*
X129023809Y-88664404D01*
X129071428Y-88569166D01*
X129071428Y-88378690D01*
X129023809Y-88283452D01*
X128976190Y-88235833D01*
X128880952Y-88188214D01*
%TO.C,R11*%
X109164380Y-100822357D02*
X108688190Y-101155690D01*
X109164380Y-101393785D02*
X108164380Y-101393785D01*
X108164380Y-101012833D01*
X108212000Y-100917595D01*
X108259619Y-100869976D01*
X108354857Y-100822357D01*
X108497714Y-100822357D01*
X108592952Y-100869976D01*
X108640571Y-100917595D01*
X108688190Y-101012833D01*
X108688190Y-101393785D01*
X109164380Y-99869976D02*
X109164380Y-100441404D01*
X109164380Y-100155690D02*
X108164380Y-100155690D01*
X108307238Y-100250928D01*
X108402476Y-100346166D01*
X108450095Y-100441404D01*
X109164380Y-98917595D02*
X109164380Y-99489023D01*
X109164380Y-99203309D02*
X108164380Y-99203309D01*
X108307238Y-99298547D01*
X108402476Y-99393785D01*
X108450095Y-99489023D01*
%TO.C,R21*%
X137452380Y-90092976D02*
X136976190Y-90426309D01*
X137452380Y-90664404D02*
X136452380Y-90664404D01*
X136452380Y-90283452D01*
X136500000Y-90188214D01*
X136547619Y-90140595D01*
X136642857Y-90092976D01*
X136785714Y-90092976D01*
X136880952Y-90140595D01*
X136928571Y-90188214D01*
X136976190Y-90283452D01*
X136976190Y-90664404D01*
X136547619Y-89712023D02*
X136500000Y-89664404D01*
X136452380Y-89569166D01*
X136452380Y-89331071D01*
X136500000Y-89235833D01*
X136547619Y-89188214D01*
X136642857Y-89140595D01*
X136738095Y-89140595D01*
X136880952Y-89188214D01*
X137452380Y-89759642D01*
X137452380Y-89140595D01*
X137452380Y-88188214D02*
X137452380Y-88759642D01*
X137452380Y-88473928D02*
X136452380Y-88473928D01*
X136595238Y-88569166D01*
X136690476Y-88664404D01*
X136738095Y-88759642D01*
%TO.C,R18*%
X131452380Y-90092976D02*
X130976190Y-90426309D01*
X131452380Y-90664404D02*
X130452380Y-90664404D01*
X130452380Y-90283452D01*
X130500000Y-90188214D01*
X130547619Y-90140595D01*
X130642857Y-90092976D01*
X130785714Y-90092976D01*
X130880952Y-90140595D01*
X130928571Y-90188214D01*
X130976190Y-90283452D01*
X130976190Y-90664404D01*
X131452380Y-89140595D02*
X131452380Y-89712023D01*
X131452380Y-89426309D02*
X130452380Y-89426309D01*
X130595238Y-89521547D01*
X130690476Y-89616785D01*
X130738095Y-89712023D01*
X130880952Y-88569166D02*
X130833333Y-88664404D01*
X130785714Y-88712023D01*
X130690476Y-88759642D01*
X130642857Y-88759642D01*
X130547619Y-88712023D01*
X130500000Y-88664404D01*
X130452380Y-88569166D01*
X130452380Y-88378690D01*
X130500000Y-88283452D01*
X130547619Y-88235833D01*
X130642857Y-88188214D01*
X130690476Y-88188214D01*
X130785714Y-88235833D01*
X130833333Y-88283452D01*
X130880952Y-88378690D01*
X130880952Y-88569166D01*
X130928571Y-88664404D01*
X130976190Y-88712023D01*
X131071428Y-88759642D01*
X131261904Y-88759642D01*
X131357142Y-88712023D01*
X131404761Y-88664404D01*
X131452380Y-88569166D01*
X131452380Y-88378690D01*
X131404761Y-88283452D01*
X131357142Y-88235833D01*
X131261904Y-88188214D01*
X131071428Y-88188214D01*
X130976190Y-88235833D01*
X130928571Y-88283452D01*
X130880952Y-88378690D01*
%TO.C,D6*%
X140952380Y-90664404D02*
X139952380Y-90664404D01*
X139952380Y-90426309D01*
X140000000Y-90283452D01*
X140095238Y-90188214D01*
X140190476Y-90140595D01*
X140380952Y-90092976D01*
X140523809Y-90092976D01*
X140714285Y-90140595D01*
X140809523Y-90188214D01*
X140904761Y-90283452D01*
X140952380Y-90426309D01*
X140952380Y-90664404D01*
X139952380Y-89235833D02*
X139952380Y-89426309D01*
X140000000Y-89521547D01*
X140047619Y-89569166D01*
X140190476Y-89664404D01*
X140380952Y-89712023D01*
X140761904Y-89712023D01*
X140857142Y-89664404D01*
X140904761Y-89616785D01*
X140952380Y-89521547D01*
X140952380Y-89331071D01*
X140904761Y-89235833D01*
X140857142Y-89188214D01*
X140761904Y-89140595D01*
X140523809Y-89140595D01*
X140428571Y-89188214D01*
X140380952Y-89235833D01*
X140333333Y-89331071D01*
X140333333Y-89521547D01*
X140380952Y-89616785D01*
X140428571Y-89664404D01*
X140523809Y-89712023D01*
%TO.C,C22*%
X148802142Y-89517142D02*
X148754523Y-89564761D01*
X148611666Y-89612380D01*
X148516428Y-89612380D01*
X148373571Y-89564761D01*
X148278333Y-89469523D01*
X148230714Y-89374285D01*
X148183095Y-89183809D01*
X148183095Y-89040952D01*
X148230714Y-88850476D01*
X148278333Y-88755238D01*
X148373571Y-88660000D01*
X148516428Y-88612380D01*
X148611666Y-88612380D01*
X148754523Y-88660000D01*
X148802142Y-88707619D01*
X149183095Y-88707619D02*
X149230714Y-88660000D01*
X149325952Y-88612380D01*
X149564047Y-88612380D01*
X149659285Y-88660000D01*
X149706904Y-88707619D01*
X149754523Y-88802857D01*
X149754523Y-88898095D01*
X149706904Y-89040952D01*
X149135476Y-89612380D01*
X149754523Y-89612380D01*
X150135476Y-88707619D02*
X150183095Y-88660000D01*
X150278333Y-88612380D01*
X150516428Y-88612380D01*
X150611666Y-88660000D01*
X150659285Y-88707619D01*
X150706904Y-88802857D01*
X150706904Y-88898095D01*
X150659285Y-89040952D01*
X150087857Y-89612380D01*
X150706904Y-89612380D01*
%TO.C,C19*%
X134357142Y-102692738D02*
X134404761Y-102740357D01*
X134452380Y-102883214D01*
X134452380Y-102978452D01*
X134404761Y-103121309D01*
X134309523Y-103216547D01*
X134214285Y-103264166D01*
X134023809Y-103311785D01*
X133880952Y-103311785D01*
X133690476Y-103264166D01*
X133595238Y-103216547D01*
X133500000Y-103121309D01*
X133452380Y-102978452D01*
X133452380Y-102883214D01*
X133500000Y-102740357D01*
X133547619Y-102692738D01*
X134452380Y-101740357D02*
X134452380Y-102311785D01*
X134452380Y-102026071D02*
X133452380Y-102026071D01*
X133595238Y-102121309D01*
X133690476Y-102216547D01*
X133738095Y-102311785D01*
X134452380Y-101264166D02*
X134452380Y-101073690D01*
X134404761Y-100978452D01*
X134357142Y-100930833D01*
X134214285Y-100835595D01*
X134023809Y-100787976D01*
X133642857Y-100787976D01*
X133547619Y-100835595D01*
X133500000Y-100883214D01*
X133452380Y-100978452D01*
X133452380Y-101168928D01*
X133500000Y-101264166D01*
X133547619Y-101311785D01*
X133642857Y-101359404D01*
X133880952Y-101359404D01*
X133976190Y-101311785D01*
X134023809Y-101264166D01*
X134071428Y-101168928D01*
X134071428Y-100978452D01*
X134023809Y-100883214D01*
X133976190Y-100835595D01*
X133880952Y-100787976D01*
%TO.C,C18*%
X142357142Y-102692738D02*
X142404761Y-102740357D01*
X142452380Y-102883214D01*
X142452380Y-102978452D01*
X142404761Y-103121309D01*
X142309523Y-103216547D01*
X142214285Y-103264166D01*
X142023809Y-103311785D01*
X141880952Y-103311785D01*
X141690476Y-103264166D01*
X141595238Y-103216547D01*
X141500000Y-103121309D01*
X141452380Y-102978452D01*
X141452380Y-102883214D01*
X141500000Y-102740357D01*
X141547619Y-102692738D01*
X142452380Y-101740357D02*
X142452380Y-102311785D01*
X142452380Y-102026071D02*
X141452380Y-102026071D01*
X141595238Y-102121309D01*
X141690476Y-102216547D01*
X141738095Y-102311785D01*
X141880952Y-101168928D02*
X141833333Y-101264166D01*
X141785714Y-101311785D01*
X141690476Y-101359404D01*
X141642857Y-101359404D01*
X141547619Y-101311785D01*
X141500000Y-101264166D01*
X141452380Y-101168928D01*
X141452380Y-100978452D01*
X141500000Y-100883214D01*
X141547619Y-100835595D01*
X141642857Y-100787976D01*
X141690476Y-100787976D01*
X141785714Y-100835595D01*
X141833333Y-100883214D01*
X141880952Y-100978452D01*
X141880952Y-101168928D01*
X141928571Y-101264166D01*
X141976190Y-101311785D01*
X142071428Y-101359404D01*
X142261904Y-101359404D01*
X142357142Y-101311785D01*
X142404761Y-101264166D01*
X142452380Y-101168928D01*
X142452380Y-100978452D01*
X142404761Y-100883214D01*
X142357142Y-100835595D01*
X142261904Y-100787976D01*
X142071428Y-100787976D01*
X141976190Y-100835595D01*
X141928571Y-100883214D01*
X141880952Y-100978452D01*
%TO.C,R15*%
X137452380Y-104192738D02*
X136976190Y-104526071D01*
X137452380Y-104764166D02*
X136452380Y-104764166D01*
X136452380Y-104383214D01*
X136500000Y-104287976D01*
X136547619Y-104240357D01*
X136642857Y-104192738D01*
X136785714Y-104192738D01*
X136880952Y-104240357D01*
X136928571Y-104287976D01*
X136976190Y-104383214D01*
X136976190Y-104764166D01*
X137452380Y-103240357D02*
X137452380Y-103811785D01*
X137452380Y-103526071D02*
X136452380Y-103526071D01*
X136595238Y-103621309D01*
X136690476Y-103716547D01*
X136738095Y-103811785D01*
X136452380Y-102335595D02*
X136452380Y-102811785D01*
X136928571Y-102859404D01*
X136880952Y-102811785D01*
X136833333Y-102716547D01*
X136833333Y-102478452D01*
X136880952Y-102383214D01*
X136928571Y-102335595D01*
X137023809Y-102287976D01*
X137261904Y-102287976D01*
X137357142Y-102335595D01*
X137404761Y-102383214D01*
X137452380Y-102478452D01*
X137452380Y-102716547D01*
X137404761Y-102811785D01*
X137357142Y-102859404D01*
%TO.C,D4*%
X132952380Y-102311785D02*
X131952380Y-102311785D01*
X131952380Y-102073690D01*
X132000000Y-101930833D01*
X132095238Y-101835595D01*
X132190476Y-101787976D01*
X132380952Y-101740357D01*
X132523809Y-101740357D01*
X132714285Y-101787976D01*
X132809523Y-101835595D01*
X132904761Y-101930833D01*
X132952380Y-102073690D01*
X132952380Y-102311785D01*
X132285714Y-100883214D02*
X132952380Y-100883214D01*
X131904761Y-101121309D02*
X132619047Y-101359404D01*
X132619047Y-100740357D01*
%TO.C,C21*%
X142357142Y-90092976D02*
X142404761Y-90140595D01*
X142452380Y-90283452D01*
X142452380Y-90378690D01*
X142404761Y-90521547D01*
X142309523Y-90616785D01*
X142214285Y-90664404D01*
X142023809Y-90712023D01*
X141880952Y-90712023D01*
X141690476Y-90664404D01*
X141595238Y-90616785D01*
X141500000Y-90521547D01*
X141452380Y-90378690D01*
X141452380Y-90283452D01*
X141500000Y-90140595D01*
X141547619Y-90092976D01*
X141547619Y-89712023D02*
X141500000Y-89664404D01*
X141452380Y-89569166D01*
X141452380Y-89331071D01*
X141500000Y-89235833D01*
X141547619Y-89188214D01*
X141642857Y-89140595D01*
X141738095Y-89140595D01*
X141880952Y-89188214D01*
X142452380Y-89759642D01*
X142452380Y-89140595D01*
X142452380Y-88188214D02*
X142452380Y-88759642D01*
X142452380Y-88473928D02*
X141452380Y-88473928D01*
X141595238Y-88569166D01*
X141690476Y-88664404D01*
X141738095Y-88759642D01*
%TO.C,D2*%
X155452380Y-92238095D02*
X154452380Y-92238095D01*
X154452380Y-92000000D01*
X154500000Y-91857142D01*
X154595238Y-91761904D01*
X154690476Y-91714285D01*
X154880952Y-91666666D01*
X155023809Y-91666666D01*
X155214285Y-91714285D01*
X155309523Y-91761904D01*
X155404761Y-91857142D01*
X155452380Y-92000000D01*
X155452380Y-92238095D01*
X154547619Y-91285714D02*
X154500000Y-91238095D01*
X154452380Y-91142857D01*
X154452380Y-90904761D01*
X154500000Y-90809523D01*
X154547619Y-90761904D01*
X154642857Y-90714285D01*
X154738095Y-90714285D01*
X154880952Y-90761904D01*
X155452380Y-91333333D01*
X155452380Y-90714285D01*
%TO.C,R16*%
X131452380Y-102692738D02*
X130976190Y-103026071D01*
X131452380Y-103264166D02*
X130452380Y-103264166D01*
X130452380Y-102883214D01*
X130500000Y-102787976D01*
X130547619Y-102740357D01*
X130642857Y-102692738D01*
X130785714Y-102692738D01*
X130880952Y-102740357D01*
X130928571Y-102787976D01*
X130976190Y-102883214D01*
X130976190Y-103264166D01*
X131452380Y-101740357D02*
X131452380Y-102311785D01*
X131452380Y-102026071D02*
X130452380Y-102026071D01*
X130595238Y-102121309D01*
X130690476Y-102216547D01*
X130738095Y-102311785D01*
X130452380Y-100883214D02*
X130452380Y-101073690D01*
X130500000Y-101168928D01*
X130547619Y-101216547D01*
X130690476Y-101311785D01*
X130880952Y-101359404D01*
X131261904Y-101359404D01*
X131357142Y-101311785D01*
X131404761Y-101264166D01*
X131452380Y-101168928D01*
X131452380Y-100978452D01*
X131404761Y-100883214D01*
X131357142Y-100835595D01*
X131261904Y-100787976D01*
X131023809Y-100787976D01*
X130928571Y-100835595D01*
X130880952Y-100883214D01*
X130833333Y-100978452D01*
X130833333Y-101168928D01*
X130880952Y-101264166D01*
X130928571Y-101311785D01*
X131023809Y-101359404D01*
%TO.C,U3*%
X145828095Y-90722380D02*
X145828095Y-91531904D01*
X145875714Y-91627142D01*
X145923333Y-91674761D01*
X146018571Y-91722380D01*
X146209047Y-91722380D01*
X146304285Y-91674761D01*
X146351904Y-91627142D01*
X146399523Y-91531904D01*
X146399523Y-90722380D01*
X146780476Y-90722380D02*
X147399523Y-90722380D01*
X147066190Y-91103333D01*
X147209047Y-91103333D01*
X147304285Y-91150952D01*
X147351904Y-91198571D01*
X147399523Y-91293809D01*
X147399523Y-91531904D01*
X147351904Y-91627142D01*
X147304285Y-91674761D01*
X147209047Y-91722380D01*
X146923333Y-91722380D01*
X146828095Y-91674761D01*
X146780476Y-91627142D01*
%TO.C,C10*%
X153857142Y-91642857D02*
X153904761Y-91690476D01*
X153952380Y-91833333D01*
X153952380Y-91928571D01*
X153904761Y-92071428D01*
X153809523Y-92166666D01*
X153714285Y-92214285D01*
X153523809Y-92261904D01*
X153380952Y-92261904D01*
X153190476Y-92214285D01*
X153095238Y-92166666D01*
X153000000Y-92071428D01*
X152952380Y-91928571D01*
X152952380Y-91833333D01*
X153000000Y-91690476D01*
X153047619Y-91642857D01*
X153952380Y-90690476D02*
X153952380Y-91261904D01*
X153952380Y-90976190D02*
X152952380Y-90976190D01*
X153095238Y-91071428D01*
X153190476Y-91166666D01*
X153238095Y-91261904D01*
X152952380Y-90071428D02*
X152952380Y-89976190D01*
X153000000Y-89880952D01*
X153047619Y-89833333D01*
X153142857Y-89785714D01*
X153333333Y-89738095D01*
X153571428Y-89738095D01*
X153761904Y-89785714D01*
X153857142Y-89833333D01*
X153904761Y-89880952D01*
X153952380Y-89976190D01*
X153952380Y-90071428D01*
X153904761Y-90166666D01*
X153857142Y-90214285D01*
X153761904Y-90261904D01*
X153571428Y-90309523D01*
X153333333Y-90309523D01*
X153142857Y-90261904D01*
X153047619Y-90214285D01*
X153000000Y-90166666D01*
X152952380Y-90071428D01*
%TO.C,D5*%
X132952380Y-90664404D02*
X131952380Y-90664404D01*
X131952380Y-90426309D01*
X132000000Y-90283452D01*
X132095238Y-90188214D01*
X132190476Y-90140595D01*
X132380952Y-90092976D01*
X132523809Y-90092976D01*
X132714285Y-90140595D01*
X132809523Y-90188214D01*
X132904761Y-90283452D01*
X132952380Y-90426309D01*
X132952380Y-90664404D01*
X131952380Y-89188214D02*
X131952380Y-89664404D01*
X132428571Y-89712023D01*
X132380952Y-89664404D01*
X132333333Y-89569166D01*
X132333333Y-89331071D01*
X132380952Y-89235833D01*
X132428571Y-89188214D01*
X132523809Y-89140595D01*
X132761904Y-89140595D01*
X132857142Y-89188214D01*
X132904761Y-89235833D01*
X132952380Y-89331071D01*
X132952380Y-89569166D01*
X132904761Y-89664404D01*
X132857142Y-89712023D01*
%TO.C,R20*%
X139422380Y-90092976D02*
X138946190Y-90426309D01*
X139422380Y-90664404D02*
X138422380Y-90664404D01*
X138422380Y-90283452D01*
X138470000Y-90188214D01*
X138517619Y-90140595D01*
X138612857Y-90092976D01*
X138755714Y-90092976D01*
X138850952Y-90140595D01*
X138898571Y-90188214D01*
X138946190Y-90283452D01*
X138946190Y-90664404D01*
X138517619Y-89712023D02*
X138470000Y-89664404D01*
X138422380Y-89569166D01*
X138422380Y-89331071D01*
X138470000Y-89235833D01*
X138517619Y-89188214D01*
X138612857Y-89140595D01*
X138708095Y-89140595D01*
X138850952Y-89188214D01*
X139422380Y-89759642D01*
X139422380Y-89140595D01*
X138422380Y-88521547D02*
X138422380Y-88426309D01*
X138470000Y-88331071D01*
X138517619Y-88283452D01*
X138612857Y-88235833D01*
X138803333Y-88188214D01*
X139041428Y-88188214D01*
X139231904Y-88235833D01*
X139327142Y-88283452D01*
X139374761Y-88331071D01*
X139422380Y-88426309D01*
X139422380Y-88521547D01*
X139374761Y-88616785D01*
X139327142Y-88664404D01*
X139231904Y-88712023D01*
X139041428Y-88759642D01*
X138803333Y-88759642D01*
X138612857Y-88712023D01*
X138517619Y-88664404D01*
X138470000Y-88616785D01*
X138422380Y-88521547D01*
%TO.C,SW3*%
X104544761Y-105473333D02*
X104592380Y-105330476D01*
X104592380Y-105092380D01*
X104544761Y-104997142D01*
X104497142Y-104949523D01*
X104401904Y-104901904D01*
X104306666Y-104901904D01*
X104211428Y-104949523D01*
X104163809Y-104997142D01*
X104116190Y-105092380D01*
X104068571Y-105282857D01*
X104020952Y-105378095D01*
X103973333Y-105425714D01*
X103878095Y-105473333D01*
X103782857Y-105473333D01*
X103687619Y-105425714D01*
X103640000Y-105378095D01*
X103592380Y-105282857D01*
X103592380Y-105044761D01*
X103640000Y-104901904D01*
X103592380Y-104568571D02*
X104592380Y-104330476D01*
X103878095Y-104140000D01*
X104592380Y-103949523D01*
X103592380Y-103711428D01*
X103592380Y-103425714D02*
X103592380Y-102806666D01*
X103973333Y-103140000D01*
X103973333Y-102997142D01*
X104020952Y-102901904D01*
X104068571Y-102854285D01*
X104163809Y-102806666D01*
X104401904Y-102806666D01*
X104497142Y-102854285D01*
X104544761Y-102901904D01*
X104592380Y-102997142D01*
X104592380Y-103282857D01*
X104544761Y-103378095D01*
X104497142Y-103425714D01*
%TO.C,C20*%
X134357142Y-90092976D02*
X134404761Y-90140595D01*
X134452380Y-90283452D01*
X134452380Y-90378690D01*
X134404761Y-90521547D01*
X134309523Y-90616785D01*
X134214285Y-90664404D01*
X134023809Y-90712023D01*
X133880952Y-90712023D01*
X133690476Y-90664404D01*
X133595238Y-90616785D01*
X133500000Y-90521547D01*
X133452380Y-90378690D01*
X133452380Y-90283452D01*
X133500000Y-90140595D01*
X133547619Y-90092976D01*
X133547619Y-89712023D02*
X133500000Y-89664404D01*
X133452380Y-89569166D01*
X133452380Y-89331071D01*
X133500000Y-89235833D01*
X133547619Y-89188214D01*
X133642857Y-89140595D01*
X133738095Y-89140595D01*
X133880952Y-89188214D01*
X134452380Y-89759642D01*
X134452380Y-89140595D01*
X133452380Y-88521547D02*
X133452380Y-88426309D01*
X133500000Y-88331071D01*
X133547619Y-88283452D01*
X133642857Y-88235833D01*
X133833333Y-88188214D01*
X134071428Y-88188214D01*
X134261904Y-88235833D01*
X134357142Y-88283452D01*
X134404761Y-88331071D01*
X134452380Y-88426309D01*
X134452380Y-88521547D01*
X134404761Y-88616785D01*
X134357142Y-88664404D01*
X134261904Y-88712023D01*
X134071428Y-88759642D01*
X133833333Y-88759642D01*
X133642857Y-88712023D01*
X133547619Y-88664404D01*
X133500000Y-88616785D01*
X133452380Y-88521547D01*
%TO.C,R14*%
X139452380Y-102692738D02*
X138976190Y-103026071D01*
X139452380Y-103264166D02*
X138452380Y-103264166D01*
X138452380Y-102883214D01*
X138500000Y-102787976D01*
X138547619Y-102740357D01*
X138642857Y-102692738D01*
X138785714Y-102692738D01*
X138880952Y-102740357D01*
X138928571Y-102787976D01*
X138976190Y-102883214D01*
X138976190Y-103264166D01*
X139452380Y-101740357D02*
X139452380Y-102311785D01*
X139452380Y-102026071D02*
X138452380Y-102026071D01*
X138595238Y-102121309D01*
X138690476Y-102216547D01*
X138738095Y-102311785D01*
X138785714Y-100883214D02*
X139452380Y-100883214D01*
X138404761Y-101121309D02*
X139119047Y-101359404D01*
X139119047Y-100740357D01*
%TO.C,C17*%
X204221142Y-111132857D02*
X204268761Y-111180476D01*
X204316380Y-111323333D01*
X204316380Y-111418571D01*
X204268761Y-111561428D01*
X204173523Y-111656666D01*
X204078285Y-111704285D01*
X203887809Y-111751904D01*
X203744952Y-111751904D01*
X203554476Y-111704285D01*
X203459238Y-111656666D01*
X203364000Y-111561428D01*
X203316380Y-111418571D01*
X203316380Y-111323333D01*
X203364000Y-111180476D01*
X203411619Y-111132857D01*
X204316380Y-110180476D02*
X204316380Y-110751904D01*
X204316380Y-110466190D02*
X203316380Y-110466190D01*
X203459238Y-110561428D01*
X203554476Y-110656666D01*
X203602095Y-110751904D01*
X203316380Y-109847142D02*
X203316380Y-109180476D01*
X204316380Y-109609047D01*
%TO.C,D3*%
X141002380Y-102311785D02*
X140002380Y-102311785D01*
X140002380Y-102073690D01*
X140050000Y-101930833D01*
X140145238Y-101835595D01*
X140240476Y-101787976D01*
X140430952Y-101740357D01*
X140573809Y-101740357D01*
X140764285Y-101787976D01*
X140859523Y-101835595D01*
X140954761Y-101930833D01*
X141002380Y-102073690D01*
X141002380Y-102311785D01*
X140002380Y-101407023D02*
X140002380Y-100787976D01*
X140383333Y-101121309D01*
X140383333Y-100978452D01*
X140430952Y-100883214D01*
X140478571Y-100835595D01*
X140573809Y-100787976D01*
X140811904Y-100787976D01*
X140907142Y-100835595D01*
X140954761Y-100883214D01*
X141002380Y-100978452D01*
X141002380Y-101264166D01*
X140954761Y-101359404D01*
X140907142Y-101407023D01*
%TO.C,R17*%
X129452380Y-102692738D02*
X128976190Y-103026071D01*
X129452380Y-103264166D02*
X128452380Y-103264166D01*
X128452380Y-102883214D01*
X128500000Y-102787976D01*
X128547619Y-102740357D01*
X128642857Y-102692738D01*
X128785714Y-102692738D01*
X128880952Y-102740357D01*
X128928571Y-102787976D01*
X128976190Y-102883214D01*
X128976190Y-103264166D01*
X129452380Y-101740357D02*
X129452380Y-102311785D01*
X129452380Y-102026071D02*
X128452380Y-102026071D01*
X128595238Y-102121309D01*
X128690476Y-102216547D01*
X128738095Y-102311785D01*
X128452380Y-101407023D02*
X128452380Y-100740357D01*
X129452380Y-101168928D01*
%TO.C,R12*%
X156952380Y-91642857D02*
X156476190Y-91976190D01*
X156952380Y-92214285D02*
X155952380Y-92214285D01*
X155952380Y-91833333D01*
X156000000Y-91738095D01*
X156047619Y-91690476D01*
X156142857Y-91642857D01*
X156285714Y-91642857D01*
X156380952Y-91690476D01*
X156428571Y-91738095D01*
X156476190Y-91833333D01*
X156476190Y-92214285D01*
X156952380Y-90690476D02*
X156952380Y-91261904D01*
X156952380Y-90976190D02*
X155952380Y-90976190D01*
X156095238Y-91071428D01*
X156190476Y-91166666D01*
X156238095Y-91261904D01*
X156047619Y-90309523D02*
X156000000Y-90261904D01*
X155952380Y-90166666D01*
X155952380Y-89928571D01*
X156000000Y-89833333D01*
X156047619Y-89785714D01*
X156142857Y-89738095D01*
X156238095Y-89738095D01*
X156380952Y-89785714D01*
X156952380Y-90357142D01*
X156952380Y-89738095D01*
%TO.C,R13*%
X158952380Y-91642857D02*
X158476190Y-91976190D01*
X158952380Y-92214285D02*
X157952380Y-92214285D01*
X157952380Y-91833333D01*
X158000000Y-91738095D01*
X158047619Y-91690476D01*
X158142857Y-91642857D01*
X158285714Y-91642857D01*
X158380952Y-91690476D01*
X158428571Y-91738095D01*
X158476190Y-91833333D01*
X158476190Y-92214285D01*
X158952380Y-90690476D02*
X158952380Y-91261904D01*
X158952380Y-90976190D02*
X157952380Y-90976190D01*
X158095238Y-91071428D01*
X158190476Y-91166666D01*
X158238095Y-91261904D01*
X157952380Y-90357142D02*
X157952380Y-89738095D01*
X158333333Y-90071428D01*
X158333333Y-89928571D01*
X158380952Y-89833333D01*
X158428571Y-89785714D01*
X158523809Y-89738095D01*
X158761904Y-89738095D01*
X158857142Y-89785714D01*
X158904761Y-89833333D01*
X158952380Y-89928571D01*
X158952380Y-90214285D01*
X158904761Y-90309523D01*
X158857142Y-90357142D01*
D10*
%TO.C,C3*%
X181236252Y-82650000D02*
X180713748Y-82650000D01*
X181236252Y-81180000D02*
X180713748Y-81180000D01*
%TO.C,C5*%
X204731252Y-116105000D02*
X204208748Y-116105000D01*
X204731252Y-117575000D02*
X204208748Y-117575000D01*
%TO.C,C7*%
X211990000Y-101226252D02*
X211990000Y-100703748D01*
X213460000Y-101226252D02*
X213460000Y-100703748D01*
%TO.C,C8*%
X209811252Y-96420000D02*
X209288748Y-96420000D01*
X209811252Y-97890000D02*
X209288748Y-97890000D01*
%TO.C,C9*%
X192666252Y-100865000D02*
X192143748Y-100865000D01*
X192666252Y-102335000D02*
X192143748Y-102335000D01*
%TO.C,C11*%
X192143748Y-99795000D02*
X192666252Y-99795000D01*
X192143748Y-98325000D02*
X192666252Y-98325000D01*
%TO.C,C13*%
X204266748Y-115210000D02*
X205689252Y-115210000D01*
X204266748Y-113390000D02*
X205689252Y-113390000D01*
%TO.C,C14*%
X192481252Y-94340000D02*
X191058748Y-94340000D01*
X192481252Y-96160000D02*
X191058748Y-96160000D01*
D13*
%TO.C,ISP1*%
X170050351Y-110845351D02*
X170050351Y-102717351D01*
X180464351Y-110845351D02*
X170050351Y-110845351D01*
X180464351Y-102717351D02*
X180464351Y-110845351D01*
X170050351Y-102717351D02*
X180464351Y-102717351D01*
D10*
%TO.C,MCU1*%
X205240000Y-63900000D02*
X205740000Y-64900000D01*
X206240000Y-63900000D02*
X205240000Y-63900000D01*
X196070000Y-66600000D02*
X196070000Y-65290000D01*
X185290000Y-65290000D02*
X210950000Y-65290000D01*
X205740000Y-64900000D02*
X206240000Y-63900000D01*
X185290000Y-74410000D02*
X185290000Y-65290000D01*
X196070000Y-66600000D02*
X196070000Y-66600000D01*
X186590000Y-73100000D02*
X186590000Y-66600000D01*
X209650000Y-73100000D02*
X186590000Y-73100000D01*
X200170000Y-66600000D02*
X209650000Y-66600000D01*
X186590000Y-66600000D02*
X196070000Y-66600000D01*
X200170000Y-65290000D02*
X200170000Y-66600000D01*
X209650000Y-66600000D02*
X209650000Y-73100000D01*
X210950000Y-74410000D02*
X185290000Y-74410000D01*
X210950000Y-65290000D02*
X210950000Y-74410000D01*
%TO.C,R1*%
X172185000Y-83539064D02*
X172185000Y-83084936D01*
X170715000Y-83539064D02*
X170715000Y-83084936D01*
%TO.C,R3*%
X200887000Y-110717064D02*
X200887000Y-110262936D01*
X199417000Y-110717064D02*
X199417000Y-110262936D01*
%TO.C,SW2*%
X228540000Y-100330000D02*
X231200000Y-100330000D01*
X231200000Y-100330000D02*
X231200000Y-102930000D01*
X228540000Y-102930000D02*
X231200000Y-102930000D01*
X228540000Y-100330000D02*
X228540000Y-102930000D01*
X228540000Y-99060000D02*
X228540000Y-97730000D01*
X228540000Y-97730000D02*
X229870000Y-97730000D01*
%TO.C,U1*%
X177038000Y-83371000D02*
X179238000Y-83371000D01*
X177038000Y-88841000D02*
X174838000Y-88841000D01*
X177038000Y-88841000D02*
X179238000Y-88841000D01*
X177038000Y-83371000D02*
X173438000Y-83371000D01*
D15*
%TO.C,U4*%
X204285000Y-97975000D02*
X203960000Y-97975000D01*
X204285000Y-105000000D02*
X205710000Y-105000000D01*
X197035000Y-97975000D02*
X197360000Y-97975000D01*
X204285000Y-97975000D02*
X204285000Y-98300000D01*
X204285000Y-105225000D02*
X204285000Y-105000000D01*
X197035000Y-97975000D02*
X197035000Y-98300000D01*
X204285000Y-105225000D02*
X203960000Y-105225000D01*
X197035000Y-105225000D02*
X197360000Y-105225000D01*
X197035000Y-105225000D02*
X197035000Y-104900000D01*
D10*
%TO.C,Y1*%
X207900000Y-102965000D02*
X211200000Y-102965000D01*
X211200000Y-102965000D02*
X211200000Y-98965000D01*
%TO.C,C15*%
X209288748Y-105510000D02*
X209811252Y-105510000D01*
X209288748Y-104040000D02*
X209811252Y-104040000D01*
%TO.C,C12*%
X213974000Y-69900748D02*
X213974000Y-71323252D01*
X215794000Y-69900748D02*
X215794000Y-71323252D01*
%TO.C,USB1*%
X122844000Y-118263000D02*
X122844000Y-132763000D01*
X135336000Y-132763000D02*
X136944000Y-132763000D01*
X122844000Y-132763000D02*
X130764000Y-132763000D01*
X136944000Y-118263000D02*
X136944000Y-132763000D01*
X136944000Y-118263000D02*
X135336000Y-118263000D01*
X130764000Y-118263000D02*
X122844000Y-118263000D01*
G36*
X123594000Y-132763000D02*
G01*
X122844000Y-132763000D01*
X122844000Y-118263000D01*
X123594000Y-118263000D01*
X123594000Y-132763000D01*
G37*
D17*
X123594000Y-132763000D02*
X122844000Y-132763000D01*
X122844000Y-118263000D01*
X123594000Y-118263000D01*
X123594000Y-132763000D01*
D10*
%TO.C,R2*%
X145522936Y-132144000D02*
X145977064Y-132144000D01*
X145522936Y-133614000D02*
X145977064Y-133614000D01*
%TO.C,R6*%
X141458936Y-119063000D02*
X141913064Y-119063000D01*
X141458936Y-120533000D02*
X141913064Y-120533000D01*
D15*
%TO.C,U2*%
X149872000Y-119698000D02*
X149872000Y-124973000D01*
X144472000Y-120973000D02*
X144472000Y-124973000D01*
D10*
%TO.C,U5*%
X141686000Y-124533000D02*
X143486000Y-124533000D01*
X141686000Y-124533000D02*
X140886000Y-124533000D01*
X141686000Y-121413000D02*
X142486000Y-121413000D01*
X141686000Y-121413000D02*
X140886000Y-121413000D01*
%TO.C,R7*%
X141458936Y-126883000D02*
X141913064Y-126883000D01*
X141458936Y-125413000D02*
X141913064Y-125413000D01*
%TO.C,C6*%
X146011252Y-131328000D02*
X145488748Y-131328000D01*
X146011252Y-129858000D02*
X145488748Y-129858000D01*
%TO.C,C2*%
X141947252Y-116523000D02*
X141424748Y-116523000D01*
X141947252Y-117993000D02*
X141424748Y-117993000D01*
%TO.C,C4*%
X146011252Y-128788000D02*
X145488748Y-128788000D01*
X146011252Y-127318000D02*
X145488748Y-127318000D01*
%TO.C,C1*%
X141947252Y-129296000D02*
X141424748Y-129296000D01*
X141947252Y-127826000D02*
X141424748Y-127826000D01*
%TO.C,C16*%
X167265000Y-82988748D02*
X167265000Y-83511252D01*
X168735000Y-82988748D02*
X168735000Y-83511252D01*
%TO.C,R4*%
X164985000Y-83022936D02*
X164985000Y-83477064D01*
X163515000Y-83022936D02*
X163515000Y-83477064D01*
%TO.C,R5*%
X165765000Y-124272936D02*
X165765000Y-124727064D01*
X167235000Y-124272936D02*
X167235000Y-124727064D01*
%TO.C,R19*%
X129735000Y-92772936D02*
X129735000Y-93227064D01*
X128265000Y-92772936D02*
X128265000Y-93227064D01*
%TO.C,R11*%
X107415000Y-100406564D02*
X107415000Y-99952436D01*
X105945000Y-100406564D02*
X105945000Y-99952436D01*
%TO.C,R21*%
X137735000Y-92772936D02*
X137735000Y-93227064D01*
X136265000Y-92772936D02*
X136265000Y-93227064D01*
%TO.C,R18*%
X130265000Y-92772936D02*
X130265000Y-93227064D01*
X131735000Y-92772936D02*
X131735000Y-93227064D01*
%TO.C,D6*%
X140094000Y-92500000D02*
X140094000Y-93800000D01*
X140094000Y-93800000D02*
X140894000Y-93800000D01*
X140894000Y-92500000D02*
X140894000Y-93800000D01*
%TO.C,C22*%
X149183748Y-91575000D02*
X149706252Y-91575000D01*
X149183748Y-90105000D02*
X149706252Y-90105000D01*
%TO.C,C19*%
X134735000Y-97738748D02*
X134735000Y-98261252D01*
X133265000Y-97738748D02*
X133265000Y-98261252D01*
%TO.C,C18*%
X141315000Y-97788748D02*
X141315000Y-98311252D01*
X142785000Y-97788748D02*
X142785000Y-98311252D01*
%TO.C,R15*%
X137785000Y-98277064D02*
X137785000Y-97822936D01*
X136315000Y-98277064D02*
X136315000Y-97822936D01*
%TO.C,D4*%
X132100000Y-98500000D02*
X132100000Y-97200000D01*
X132900000Y-97200000D02*
X132100000Y-97200000D01*
X132900000Y-98500000D02*
X132900000Y-97200000D01*
%TO.C,C21*%
X142735000Y-93261252D02*
X142735000Y-92738748D01*
X141265000Y-93261252D02*
X141265000Y-92738748D01*
%TO.C,D2*%
X154600000Y-94800000D02*
X155400000Y-94800000D01*
X154600000Y-93500000D02*
X154600000Y-94800000D01*
X155400000Y-93500000D02*
X155400000Y-94800000D01*
%TO.C,R16*%
X131735000Y-98227064D02*
X131735000Y-97772936D01*
X130265000Y-98227064D02*
X130265000Y-97772936D01*
%TO.C,U3*%
X147470000Y-92085000D02*
X149670000Y-92085000D01*
X147470000Y-98855000D02*
X145270000Y-98855000D01*
X147470000Y-92085000D02*
X143870000Y-92085000D01*
X147470000Y-98855000D02*
X149670000Y-98855000D01*
%TO.C,C10*%
X152765000Y-94311252D02*
X152765000Y-93788748D01*
X154235000Y-94311252D02*
X154235000Y-93788748D01*
%TO.C,D5*%
X132100000Y-92500000D02*
X132100000Y-93800000D01*
X132900000Y-92500000D02*
X132900000Y-93800000D01*
X132100000Y-93800000D02*
X132900000Y-93800000D01*
%TO.C,R20*%
X138235000Y-92772936D02*
X138235000Y-93227064D01*
X139705000Y-92772936D02*
X139705000Y-93227064D01*
%TO.C,SW3*%
X100270000Y-100594000D02*
X100270000Y-108274000D01*
X100270000Y-99324000D02*
X100270000Y-97994000D01*
X102930000Y-100594000D02*
X102930000Y-108274000D01*
X100270000Y-100594000D02*
X102930000Y-100594000D01*
X100270000Y-97994000D02*
X101600000Y-97994000D01*
X100270000Y-108274000D02*
X102930000Y-108274000D01*
%TO.C,C20*%
X134735000Y-93261252D02*
X134735000Y-92738748D01*
X133265000Y-93261252D02*
X133265000Y-92738748D01*
%TO.C,R14*%
X138315000Y-98277064D02*
X138315000Y-97822936D01*
X139785000Y-98277064D02*
X139785000Y-97822936D01*
%TO.C,C17*%
X201449000Y-110228748D02*
X201449000Y-110751252D01*
X202919000Y-110228748D02*
X202919000Y-110751252D01*
%TO.C,D3*%
X140950000Y-97250000D02*
X140150000Y-97250000D01*
X140950000Y-98550000D02*
X140950000Y-97250000D01*
X140150000Y-98550000D02*
X140150000Y-97250000D01*
%TO.C,R17*%
X128265000Y-98227064D02*
X128265000Y-97772936D01*
X129735000Y-98227064D02*
X129735000Y-97772936D01*
%TO.C,R12*%
X155765000Y-93772936D02*
X155765000Y-94227064D01*
X157235000Y-93772936D02*
X157235000Y-94227064D01*
%TO.C,R13*%
X159235000Y-93772936D02*
X159235000Y-94227064D01*
X157765000Y-93772936D02*
X157765000Y-94227064D01*
%TD*%
%LPC*%
D15*
X135595238Y-83952380D02*
X136166666Y-83952380D01*
X135880952Y-84952380D02*
X135880952Y-83952380D01*
X136880952Y-84904761D02*
X136785714Y-84952380D01*
X136595238Y-84952380D01*
X136500000Y-84904761D01*
X136452380Y-84809523D01*
X136452380Y-84428571D01*
X136500000Y-84333333D01*
X136595238Y-84285714D01*
X136785714Y-84285714D01*
X136880952Y-84333333D01*
X136928571Y-84428571D01*
X136928571Y-84523809D01*
X136452380Y-84619047D01*
X137309523Y-84904761D02*
X137404761Y-84952380D01*
X137595238Y-84952380D01*
X137690476Y-84904761D01*
X137738095Y-84809523D01*
X137738095Y-84761904D01*
X137690476Y-84666666D01*
X137595238Y-84619047D01*
X137452380Y-84619047D01*
X137357142Y-84571428D01*
X137309523Y-84476190D01*
X137309523Y-84428571D01*
X137357142Y-84333333D01*
X137452380Y-84285714D01*
X137595238Y-84285714D01*
X137690476Y-84333333D01*
X138023809Y-84285714D02*
X138404761Y-84285714D01*
X138166666Y-83952380D02*
X138166666Y-84809523D01*
X138214285Y-84904761D01*
X138309523Y-84952380D01*
X138404761Y-84952380D01*
D18*
%TO.C,C3*%
X181925000Y-81915000D03*
X180025000Y-81915000D03*
%TD*%
%TO.C,C5*%
X205420000Y-116840000D03*
X203520000Y-116840000D03*
%TD*%
D19*
%TO.C,C7*%
X212725000Y-101915000D03*
X212725000Y-100015000D03*
%TD*%
D18*
%TO.C,C8*%
X210500000Y-97155000D03*
X208600000Y-97155000D03*
%TD*%
%TO.C,C9*%
X193355000Y-101600000D03*
X191455000Y-101600000D03*
%TD*%
D20*
%TO.C,C11*%
X191455000Y-99060000D03*
X193355000Y-99060000D03*
%TD*%
D21*
%TO.C,C13*%
X203503000Y-114300000D03*
X206453000Y-114300000D03*
%TD*%
D22*
%TO.C,C14*%
X193245000Y-95250000D03*
X190295000Y-95250000D03*
%TD*%
D23*
%TO.C,ISP1*%
X173225351Y-104241351D03*
X173225351Y-109321351D03*
D24*
X178940351Y-106781351D03*
D23*
X178940351Y-104241351D03*
X178940351Y-109321351D03*
D25*
X177670351Y-106146351D03*
X176400351Y-106146351D03*
X175130351Y-106146351D03*
X173860351Y-106146351D03*
D26*
X171320351Y-105765351D03*
D25*
X172590351Y-106146351D03*
D26*
X171320351Y-107797351D03*
D25*
X172590351Y-107416351D03*
X173860351Y-107416351D03*
X175130351Y-107416351D03*
X176400351Y-107416351D03*
X177670351Y-107416351D03*
%TD*%
D27*
%TO.C,MCU1*%
X205740000Y-68580000D03*
D28*
X205740000Y-71120000D03*
X203200000Y-68580000D03*
X203200000Y-71120000D03*
X200660000Y-68580000D03*
X200660000Y-71120000D03*
X198120000Y-68580000D03*
X198120000Y-71120000D03*
X195580000Y-68580000D03*
X195580000Y-71120000D03*
X193040000Y-68580000D03*
X193040000Y-71120000D03*
X190500000Y-68580000D03*
X190500000Y-71120000D03*
%TD*%
D29*
%TO.C,R1*%
X171450000Y-84224500D03*
X171450000Y-82399500D03*
%TD*%
%TO.C,R3*%
X200152000Y-111402500D03*
X200152000Y-109577500D03*
%TD*%
D30*
%TO.C,SW2*%
X229870000Y-99060000D03*
D31*
X229870000Y-101600000D03*
%TD*%
D32*
%TO.C,U1*%
X174175500Y-83831000D03*
X174175500Y-84481000D03*
X174175500Y-85131000D03*
X174175500Y-85781000D03*
X174175500Y-86431000D03*
X174175500Y-87081000D03*
X174175500Y-87731000D03*
X174175500Y-88381000D03*
X179900500Y-88381000D03*
X179900500Y-87731000D03*
X179900500Y-87081000D03*
X179900500Y-86431000D03*
X179900500Y-85781000D03*
X179900500Y-85131000D03*
X179900500Y-84481000D03*
X179900500Y-83831000D03*
%TD*%
D33*
%TO.C,U4*%
X204910000Y-104400000D03*
X204910000Y-103600000D03*
X204910000Y-102800000D03*
X204910000Y-102000000D03*
X204910000Y-101200000D03*
X204910000Y-100400000D03*
X204910000Y-99600000D03*
X204910000Y-98800000D03*
D34*
X203460000Y-97350000D03*
X202660000Y-97350000D03*
X201860000Y-97350000D03*
X201060000Y-97350000D03*
X200260000Y-97350000D03*
X199460000Y-97350000D03*
X198660000Y-97350000D03*
X197860000Y-97350000D03*
D33*
X196410000Y-98800000D03*
X196410000Y-99600000D03*
X196410000Y-100400000D03*
X196410000Y-101200000D03*
X196410000Y-102000000D03*
X196410000Y-102800000D03*
X196410000Y-103600000D03*
X196410000Y-104400000D03*
D34*
X197860000Y-105850000D03*
X198660000Y-105850000D03*
X199460000Y-105850000D03*
X200260000Y-105850000D03*
X201060000Y-105850000D03*
X201860000Y-105850000D03*
X202660000Y-105850000D03*
X203460000Y-105850000D03*
%TD*%
D35*
%TO.C,Y1*%
X210400000Y-102065000D03*
X210400000Y-99865000D03*
X208700000Y-99865000D03*
X208700000Y-102065000D03*
%TD*%
D20*
%TO.C,C15*%
X208600000Y-104775000D03*
X210500000Y-104775000D03*
%TD*%
D36*
%TO.C,C12*%
X214884000Y-69137000D03*
X214884000Y-72087000D03*
%TD*%
D37*
%TO.C,USB1*%
X135844000Y-122013000D03*
X135844000Y-124513000D03*
X135844000Y-126513000D03*
X135844000Y-129013000D03*
D38*
X133134000Y-132083000D03*
X133134000Y-118943000D03*
%TD*%
D39*
%TO.C,R2*%
X144837500Y-132879000D03*
X146662500Y-132879000D03*
%TD*%
%TO.C,R6*%
X140773500Y-119798000D03*
X142598500Y-119798000D03*
%TD*%
D40*
%TO.C,U2*%
X149369500Y-120373000D03*
X148734500Y-120373000D03*
X148099500Y-120373000D03*
X147464500Y-120373000D03*
X146829500Y-120373000D03*
X146194500Y-120373000D03*
X145559500Y-120373000D03*
X144924500Y-120373000D03*
X144924500Y-125573000D03*
X145559500Y-125573000D03*
X146194500Y-125573000D03*
X146829500Y-125573000D03*
X147464500Y-125573000D03*
X148099500Y-125573000D03*
X148734500Y-125573000D03*
X149369500Y-125573000D03*
%TD*%
D41*
%TO.C,U5*%
X142823500Y-123923000D03*
X142823500Y-122973000D03*
X142823500Y-122023000D03*
X140548500Y-122023000D03*
X140548500Y-122973000D03*
X140548500Y-123923000D03*
%TD*%
D39*
%TO.C,R7*%
X140773500Y-126148000D03*
X142598500Y-126148000D03*
%TD*%
D18*
%TO.C,C6*%
X146700000Y-130593000D03*
X144800000Y-130593000D03*
%TD*%
%TO.C,C2*%
X142636000Y-117258000D03*
X140736000Y-117258000D03*
%TD*%
%TO.C,C4*%
X146700000Y-128053000D03*
X144800000Y-128053000D03*
%TD*%
%TO.C,C1*%
X142636000Y-128561000D03*
X140736000Y-128561000D03*
%TD*%
D42*
%TO.C,H1*%
X61940000Y-68580000D03*
X59690000Y-66330000D03*
X61280990Y-70170990D03*
X58099010Y-70170990D03*
X61280990Y-66989010D03*
D43*
X59690000Y-68580000D03*
D42*
X59690000Y-70830000D03*
X58099010Y-66989010D03*
X57440000Y-68580000D03*
%TD*%
%TO.C,H2*%
X227009010Y-70170990D03*
X230190990Y-66989010D03*
X230850000Y-68580000D03*
X228600000Y-70830000D03*
D43*
X228600000Y-68580000D03*
D42*
X227009010Y-66989010D03*
X230190990Y-70170990D03*
X226350000Y-68580000D03*
X228600000Y-66330000D03*
%TD*%
%TO.C,H3*%
X61280990Y-132400990D03*
X61940000Y-130810000D03*
X59690000Y-133060000D03*
X57440000Y-130810000D03*
X59690000Y-128560000D03*
X58099010Y-129219010D03*
X58099010Y-132400990D03*
X61280990Y-129219010D03*
D43*
X59690000Y-130810000D03*
%TD*%
D42*
%TO.C,H4*%
X230850000Y-129540000D03*
X228600000Y-127290000D03*
X230190990Y-127949010D03*
X230190990Y-131130990D03*
D43*
X228600000Y-129540000D03*
D42*
X227009010Y-127949010D03*
X228600000Y-131790000D03*
X227009010Y-131130990D03*
X226350000Y-129540000D03*
%TD*%
D44*
%TO.C,C16*%
X168000000Y-82300000D03*
X168000000Y-84200000D03*
%TD*%
D45*
%TO.C,R4*%
X164250000Y-82337500D03*
X164250000Y-84162500D03*
%TD*%
%TO.C,R5*%
X166500000Y-123587500D03*
X166500000Y-125412500D03*
%TD*%
%TO.C,R19*%
X129000000Y-92087500D03*
X129000000Y-93912500D03*
%TD*%
D29*
%TO.C,R11*%
X106680000Y-101092000D03*
X106680000Y-99267000D03*
%TD*%
D45*
%TO.C,R21*%
X137000000Y-92087500D03*
X137000000Y-93912500D03*
%TD*%
%TO.C,R18*%
X131000000Y-92087500D03*
X131000000Y-93912500D03*
%TD*%
D46*
%TO.C,D6*%
X140494000Y-93420000D03*
X140494000Y-92580000D03*
%TD*%
D20*
%TO.C,C22*%
X148495000Y-90840000D03*
X150395000Y-90840000D03*
%TD*%
D44*
%TO.C,C19*%
X134000000Y-97050000D03*
X134000000Y-98950000D03*
%TD*%
%TO.C,C18*%
X142050000Y-97100000D03*
X142050000Y-99000000D03*
%TD*%
D29*
%TO.C,R15*%
X137050000Y-98962500D03*
X137050000Y-97137500D03*
%TD*%
D46*
%TO.C,D4*%
X132500000Y-97580000D03*
X132500000Y-98420000D03*
%TD*%
D19*
%TO.C,C21*%
X142000000Y-93950000D03*
X142000000Y-92050000D03*
%TD*%
D46*
%TO.C,D2*%
X155000000Y-94420000D03*
X155000000Y-93580000D03*
%TD*%
D29*
%TO.C,R16*%
X131000000Y-98912500D03*
X131000000Y-97087500D03*
%TD*%
D32*
%TO.C,U3*%
X144607500Y-92545000D03*
X144607500Y-93195000D03*
X144607500Y-93845000D03*
X144607500Y-94495000D03*
X144607500Y-95145000D03*
X144607500Y-95795000D03*
X144607500Y-96445000D03*
X144607500Y-97095000D03*
X144607500Y-97745000D03*
X144607500Y-98395000D03*
X150332500Y-98395000D03*
X150332500Y-97745000D03*
X150332500Y-97095000D03*
X150332500Y-96445000D03*
X150332500Y-95795000D03*
X150332500Y-95145000D03*
X150332500Y-94495000D03*
X150332500Y-93845000D03*
X150332500Y-93195000D03*
X150332500Y-92545000D03*
%TD*%
D19*
%TO.C,C10*%
X153500000Y-95000000D03*
X153500000Y-93100000D03*
%TD*%
D46*
%TO.C,D5*%
X132500000Y-93420000D03*
X132500000Y-92580000D03*
%TD*%
D45*
%TO.C,R20*%
X138970000Y-92087500D03*
X138970000Y-93912500D03*
%TD*%
D30*
%TO.C,SW3*%
X101600000Y-99324000D03*
D31*
X101600000Y-101864000D03*
X101600000Y-104404000D03*
X101600000Y-106944000D03*
%TD*%
D19*
%TO.C,C20*%
X134000000Y-93950000D03*
X134000000Y-92050000D03*
%TD*%
D29*
%TO.C,R14*%
X139050000Y-98962500D03*
X139050000Y-97137500D03*
%TD*%
D44*
%TO.C,C17*%
X202184000Y-109540000D03*
X202184000Y-111440000D03*
%TD*%
D46*
%TO.C,D3*%
X140550000Y-97630000D03*
X140550000Y-98470000D03*
%TD*%
D29*
%TO.C,R17*%
X129000000Y-98912500D03*
X129000000Y-97087500D03*
%TD*%
D45*
%TO.C,R12*%
X156500000Y-93087500D03*
X156500000Y-94912500D03*
%TD*%
%TO.C,R13*%
X158500000Y-93087500D03*
X158500000Y-94912500D03*
%TD*%
D47*
%TO.C,SW1*%
X121390000Y-101600000D03*
D48*
X116840000Y-101600000D03*
D47*
X112290000Y-101600000D03*
D49*
X119340000Y-109100000D03*
X114340000Y-109100000D03*
X116840000Y-109100000D03*
X119340000Y-94600000D03*
X114340000Y-94600000D03*
%TD*%
D50*
%TO.C,DISP1*%
X207010000Y-120650000D03*
D49*
X204470000Y-120650000D03*
X201930000Y-120650000D03*
X199390000Y-120650000D03*
X196850000Y-120650000D03*
X194310000Y-120650000D03*
X191770000Y-120650000D03*
X189230000Y-120650000D03*
X186690000Y-120650000D03*
X184150000Y-120650000D03*
X181610000Y-120650000D03*
X179070000Y-120650000D03*
X176530000Y-120650000D03*
X173990000Y-120650000D03*
X171450000Y-120650000D03*
X168910000Y-120650000D03*
X166370000Y-120650000D03*
X163830000Y-120650000D03*
X161290000Y-120650000D03*
X158750000Y-120650000D03*
%TD*%
M02*
