%TF.GenerationSoftware,KiCad,Pcbnew,8.0.5*%
%TF.CreationDate,2025-01-18T14:25:35-08:00*%
%TF.ProjectId,Control,436f6e74-726f-46c2-9e6b-696361645f70,2.1*%
%TF.SameCoordinates,Original*%
%TF.FileFunction,Drillmap*%
%TF.FilePolarity,Positive*%
%FSLAX45Y45*%
G04 Gerber Fmt 4.5, Leading zero omitted, Abs format (unit mm)*
G04 Created by KiCad (PCBNEW 8.0.5) date 2025-01-18 14:25:35*
%MOMM*%
%LPD*%
G01*
G04 APERTURE LIST*
%ADD10C,0.050000*%
%ADD11C,0.200000*%
%ADD12C,0.100000*%
%ADD13C,0.250000*%
%ADD14C,0.300000*%
G04 APERTURE END LIST*
D10*
X5207000Y-13208000D02*
X5207000Y-6604000D01*
X5715000Y-13716000D02*
G75*
G02*
X5207000Y-13208000I0J508000D01*
G01*
X23114000Y-6096000D02*
G75*
G02*
X23622000Y-6604000I0J-508000D01*
G01*
X23622000Y-6604000D02*
X23622000Y-13208000D01*
X5715000Y-6096000D02*
X23114000Y-6096000D01*
X5207000Y-6604000D02*
G75*
G02*
X5715000Y-6096000I508000J0D01*
G01*
X8890000Y-10160000D02*
G75*
G02*
X6350000Y-10160000I-1270000J0D01*
G01*
X6350000Y-10160000D02*
G75*
G02*
X8890000Y-10160000I1270000J0D01*
G01*
X23622000Y-13208000D02*
G75*
G02*
X23114000Y-13716000I-508000J0D01*
G01*
X23114000Y-13716000D02*
X5715000Y-13716000D01*
D11*
D12*
X5695000Y-8235000D02*
X5735000Y-8275000D01*
X5735000Y-8235000D02*
X5695000Y-8275000D01*
X5695000Y-9505000D02*
X5735000Y-9545000D01*
X5735000Y-9505000D02*
X5695000Y-9545000D01*
X5695000Y-10775000D02*
X5735000Y-10815000D01*
X5735000Y-10775000D02*
X5695000Y-10815000D01*
X5695000Y-12045000D02*
X5735000Y-12085000D01*
X5735000Y-12045000D02*
X5695000Y-12085000D01*
X6965000Y-6330000D02*
X7005000Y-6370000D01*
X7005000Y-6330000D02*
X6965000Y-6370000D01*
X6965000Y-8235000D02*
X7005000Y-8275000D01*
X7005000Y-8235000D02*
X6965000Y-8275000D01*
X6965000Y-12045000D02*
X7005000Y-12085000D01*
X7005000Y-12045000D02*
X6965000Y-12085000D01*
X6965000Y-13315000D02*
X7005000Y-13355000D01*
X7005000Y-13315000D02*
X6965000Y-13355000D01*
X7780000Y-7242500D02*
X7820000Y-7282500D01*
X7820000Y-7242500D02*
X7780000Y-7282500D01*
X8235000Y-6330000D02*
X8275000Y-6370000D01*
X8275000Y-6330000D02*
X8235000Y-6370000D01*
X8235000Y-8235000D02*
X8275000Y-8275000D01*
X8275000Y-8235000D02*
X8235000Y-8275000D01*
X8235000Y-12045000D02*
X8275000Y-12085000D01*
X8275000Y-12045000D02*
X8235000Y-12085000D01*
X8235000Y-13315000D02*
X8275000Y-13355000D01*
X8275000Y-13315000D02*
X8235000Y-13355000D01*
X9505000Y-6330000D02*
X9545000Y-6370000D01*
X9545000Y-6330000D02*
X9505000Y-6370000D01*
X9505000Y-8235000D02*
X9545000Y-8275000D01*
X9545000Y-8235000D02*
X9505000Y-8275000D01*
X9505000Y-9505000D02*
X9545000Y-9545000D01*
X9545000Y-9505000D02*
X9505000Y-9545000D01*
X9505000Y-12045000D02*
X9545000Y-12085000D01*
X9545000Y-12045000D02*
X9505000Y-12085000D01*
X9505000Y-13315000D02*
X9545000Y-13355000D01*
X9545000Y-13315000D02*
X9505000Y-13355000D01*
X10730000Y-10976800D02*
X10770000Y-11016800D01*
X10770000Y-10976800D02*
X10730000Y-11016800D01*
X10730000Y-11180000D02*
X10770000Y-11220000D01*
X10770000Y-11180000D02*
X10730000Y-11220000D01*
X10775000Y-6330000D02*
X10815000Y-6370000D01*
X10815000Y-6330000D02*
X10775000Y-6370000D01*
X10775000Y-8235000D02*
X10815000Y-8275000D01*
X10815000Y-8235000D02*
X10775000Y-8275000D01*
X10775000Y-12045000D02*
X10815000Y-12085000D01*
X10815000Y-12045000D02*
X10775000Y-12085000D01*
X10775000Y-13315000D02*
X10815000Y-13355000D01*
X10815000Y-13315000D02*
X10775000Y-13355000D01*
X11460800Y-8997000D02*
X11500800Y-9037000D01*
X11500800Y-8997000D02*
X11460800Y-9037000D01*
X11460800Y-9200200D02*
X11500800Y-9240200D01*
X11500800Y-9200200D02*
X11460800Y-9240200D01*
X11664000Y-11181400D02*
X11704000Y-11221400D01*
X11704000Y-11181400D02*
X11664000Y-11221400D01*
X11664000Y-11333800D02*
X11704000Y-11373800D01*
X11704000Y-11333800D02*
X11664000Y-11373800D01*
X11664000Y-11511600D02*
X11704000Y-11551600D01*
X11704000Y-11511600D02*
X11664000Y-11551600D01*
X12045000Y-6330000D02*
X12085000Y-6370000D01*
X12085000Y-6330000D02*
X12045000Y-6370000D01*
X12045000Y-8235000D02*
X12085000Y-8275000D01*
X12085000Y-8235000D02*
X12045000Y-8275000D01*
X12045000Y-12045000D02*
X12085000Y-12085000D01*
X12085000Y-12045000D02*
X12045000Y-12085000D01*
X12045000Y-13315000D02*
X12085000Y-13355000D01*
X12085000Y-13315000D02*
X12045000Y-13355000D01*
X13315000Y-6330000D02*
X13355000Y-6370000D01*
X13355000Y-6330000D02*
X13315000Y-6370000D01*
X13315000Y-8235000D02*
X13355000Y-8275000D01*
X13355000Y-8235000D02*
X13315000Y-8275000D01*
X13315000Y-9505000D02*
X13355000Y-9545000D01*
X13355000Y-9505000D02*
X13315000Y-9545000D01*
X13315000Y-10775000D02*
X13355000Y-10815000D01*
X13355000Y-10775000D02*
X13315000Y-10815000D01*
X13899200Y-12273600D02*
X13939200Y-12313600D01*
X13939200Y-12273600D02*
X13899200Y-12313600D01*
X13899200Y-12375200D02*
X13939200Y-12415200D01*
X13939200Y-12375200D02*
X13899200Y-12415200D01*
X13950000Y-11727500D02*
X13990000Y-11767500D01*
X13990000Y-11727500D02*
X13950000Y-11767500D01*
X13950000Y-12870500D02*
X13990000Y-12910500D01*
X13990000Y-12870500D02*
X13950000Y-12910500D01*
X14394500Y-12299000D02*
X14434500Y-12339000D01*
X14434500Y-12299000D02*
X14394500Y-12339000D01*
X14460000Y-12932000D02*
X14500000Y-12972000D01*
X14500000Y-12932000D02*
X14460000Y-12972000D01*
X14585000Y-6330000D02*
X14625000Y-6370000D01*
X14625000Y-6330000D02*
X14585000Y-6370000D01*
X14585000Y-8235000D02*
X14625000Y-8275000D01*
X14625000Y-8235000D02*
X14585000Y-8275000D01*
X14585000Y-9505000D02*
X14625000Y-9545000D01*
X14625000Y-9505000D02*
X14585000Y-9545000D01*
X14585000Y-10775000D02*
X14625000Y-10815000D01*
X14625000Y-10775000D02*
X14585000Y-10815000D01*
X14597055Y-12121447D02*
X14637055Y-12161447D01*
X14637055Y-12121447D02*
X14597055Y-12161447D01*
X14650000Y-12932500D02*
X14690000Y-12972500D01*
X14690000Y-12932500D02*
X14650000Y-12972500D01*
X14650000Y-13148400D02*
X14690000Y-13188400D01*
X14690000Y-13148400D02*
X14650000Y-13188400D01*
X14775500Y-12416980D02*
X14815500Y-12456980D01*
X14815500Y-12416980D02*
X14775500Y-12456980D01*
X14776774Y-12123125D02*
X14816774Y-12163125D01*
X14816774Y-12123125D02*
X14776774Y-12163125D01*
X14813600Y-10648000D02*
X14853600Y-10688000D01*
X14853600Y-10648000D02*
X14813600Y-10688000D01*
X14915200Y-10571800D02*
X14955200Y-10611800D01*
X14955200Y-10571800D02*
X14915200Y-10611800D01*
X15855000Y-6330000D02*
X15895000Y-6370000D01*
X15895000Y-6330000D02*
X15855000Y-6370000D01*
X15855000Y-8235000D02*
X15895000Y-8275000D01*
X15895000Y-8235000D02*
X15855000Y-8275000D01*
X15855000Y-9505000D02*
X15895000Y-9545000D01*
X15895000Y-9505000D02*
X15855000Y-9545000D01*
X15855000Y-10775000D02*
X15895000Y-10815000D01*
X15895000Y-10775000D02*
X15855000Y-10815000D01*
X15855000Y-13315000D02*
X15895000Y-13355000D01*
X15895000Y-13315000D02*
X15855000Y-13355000D01*
X16947200Y-12349800D02*
X16987200Y-12389800D01*
X16987200Y-12349800D02*
X16947200Y-12389800D01*
X17125000Y-6330000D02*
X17165000Y-6370000D01*
X17165000Y-6330000D02*
X17125000Y-6370000D01*
X17125000Y-8235000D02*
X17165000Y-8275000D01*
X17165000Y-8235000D02*
X17125000Y-8275000D01*
X17125000Y-9505000D02*
X17165000Y-9545000D01*
X17165000Y-9505000D02*
X17125000Y-9545000D01*
X17125000Y-10775000D02*
X17165000Y-10815000D01*
X17165000Y-10775000D02*
X17125000Y-10815000D01*
X17125000Y-13315000D02*
X17165000Y-13355000D01*
X17165000Y-13315000D02*
X17125000Y-13355000D01*
X17280000Y-7777800D02*
X17320000Y-7817800D01*
X17320000Y-7777800D02*
X17280000Y-7817800D01*
X18130000Y-9880000D02*
X18170000Y-9920000D01*
X18170000Y-9880000D02*
X18130000Y-9920000D01*
X18395000Y-6330000D02*
X18435000Y-6370000D01*
X18435000Y-6330000D02*
X18395000Y-6370000D01*
X18395000Y-13315000D02*
X18435000Y-13355000D01*
X18435000Y-13315000D02*
X18395000Y-13355000D01*
X18471200Y-7650800D02*
X18511200Y-7690800D01*
X18511200Y-7650800D02*
X18471200Y-7690800D01*
X18555000Y-9805000D02*
X18595000Y-9845000D01*
X18595000Y-9805000D02*
X18555000Y-9845000D01*
X18630000Y-9705000D02*
X18670000Y-9745000D01*
X18670000Y-9705000D02*
X18630000Y-9745000D01*
X18708300Y-7530000D02*
X18748300Y-7570000D01*
X18748300Y-7530000D02*
X18708300Y-7570000D01*
X18725200Y-10038400D02*
X18765200Y-10078400D01*
X18765200Y-10038400D02*
X18725200Y-10078400D01*
X18725200Y-10133350D02*
X18765200Y-10173350D01*
X18765200Y-10133350D02*
X18725200Y-10173350D01*
X18805000Y-7380000D02*
X18845000Y-7420000D01*
X18845000Y-7380000D02*
X18805000Y-7420000D01*
X18805000Y-9860000D02*
X18845000Y-9900000D01*
X18845000Y-9860000D02*
X18805000Y-9900000D01*
X18826800Y-10673400D02*
X18866800Y-10713400D01*
X18866800Y-10673400D02*
X18826800Y-10713400D01*
X18826800Y-11359200D02*
X18866800Y-11399200D01*
X18866800Y-11359200D02*
X18826800Y-11399200D01*
X18928400Y-10673400D02*
X18968400Y-10713400D01*
X18968400Y-10673400D02*
X18928400Y-10713400D01*
X18930000Y-9860000D02*
X18970000Y-9900000D01*
X18970000Y-9860000D02*
X18930000Y-9900000D01*
X19131600Y-10140000D02*
X19171600Y-10180000D01*
X19171600Y-10140000D02*
X19131600Y-10180000D01*
X19131600Y-10241600D02*
X19171600Y-10281600D01*
X19171600Y-10241600D02*
X19131600Y-10281600D01*
X19189050Y-9860600D02*
X19229050Y-9900600D01*
X19229050Y-9860600D02*
X19189050Y-9900600D01*
X19284000Y-9200200D02*
X19324000Y-9240200D01*
X19324000Y-9200200D02*
X19284000Y-9240200D01*
X19284000Y-9860600D02*
X19324000Y-9900600D01*
X19324000Y-9860600D02*
X19284000Y-9900600D01*
X19382000Y-10013000D02*
X19422000Y-10053000D01*
X19422000Y-10013000D02*
X19382000Y-10053000D01*
X19482000Y-9860600D02*
X19522000Y-9900600D01*
X19522000Y-9860600D02*
X19482000Y-9900600D01*
X19530000Y-8005000D02*
X19570000Y-8045000D01*
X19570000Y-8005000D02*
X19530000Y-8045000D01*
X19563400Y-10241600D02*
X19603400Y-10281600D01*
X19603400Y-10241600D02*
X19563400Y-10281600D01*
X19563400Y-10343200D02*
X19603400Y-10383200D01*
X19603400Y-10343200D02*
X19563400Y-10383200D01*
X19665000Y-6330000D02*
X19705000Y-6370000D01*
X19705000Y-6330000D02*
X19665000Y-6370000D01*
X19665000Y-13315000D02*
X19705000Y-13355000D01*
X19705000Y-13315000D02*
X19665000Y-13355000D01*
X20030000Y-7505000D02*
X20070000Y-7545000D01*
X20070000Y-7505000D02*
X20030000Y-7545000D01*
X20249200Y-10292400D02*
X20289200Y-10332400D01*
X20289200Y-10292400D02*
X20249200Y-10332400D01*
X20249200Y-12603800D02*
X20289200Y-12643800D01*
X20289200Y-12603800D02*
X20249200Y-12643800D01*
X20249200Y-12883200D02*
X20289200Y-12923200D01*
X20289200Y-12883200D02*
X20249200Y-12923200D01*
X20300000Y-12349800D02*
X20340000Y-12389800D01*
X20340000Y-12349800D02*
X20300000Y-12389800D01*
X20427000Y-7777800D02*
X20467000Y-7817800D01*
X20467000Y-7777800D02*
X20427000Y-7817800D01*
X20757200Y-12349800D02*
X20797200Y-12389800D01*
X20797200Y-12349800D02*
X20757200Y-12389800D01*
X20808000Y-12603800D02*
X20848000Y-12643800D01*
X20848000Y-12603800D02*
X20808000Y-12643800D01*
X20808000Y-12883200D02*
X20848000Y-12923200D01*
X20848000Y-12883200D02*
X20808000Y-12923200D01*
X20935000Y-6330000D02*
X20975000Y-6370000D01*
X20975000Y-6330000D02*
X20935000Y-6370000D01*
X20935000Y-9505000D02*
X20975000Y-9545000D01*
X20975000Y-9505000D02*
X20935000Y-9545000D01*
X20935000Y-10775000D02*
X20975000Y-10815000D01*
X20975000Y-10775000D02*
X20935000Y-10815000D01*
X20935000Y-12045000D02*
X20975000Y-12085000D01*
X20975000Y-12045000D02*
X20935000Y-12085000D01*
X20935000Y-13315000D02*
X20975000Y-13355000D01*
X20975000Y-13315000D02*
X20935000Y-13355000D01*
X21468400Y-6787200D02*
X21508400Y-6827200D01*
X21508400Y-6787200D02*
X21468400Y-6827200D01*
X21468400Y-7295200D02*
X21508400Y-7335200D01*
X21508400Y-7295200D02*
X21468400Y-7335200D01*
X22205000Y-6330000D02*
X22245000Y-6370000D01*
X22245000Y-6330000D02*
X22205000Y-6370000D01*
X22205000Y-8235000D02*
X22245000Y-8275000D01*
X22245000Y-8235000D02*
X22205000Y-8275000D01*
X22205000Y-9505000D02*
X22245000Y-9545000D01*
X22245000Y-9505000D02*
X22205000Y-9545000D01*
X22205000Y-10775000D02*
X22245000Y-10815000D01*
X22245000Y-10775000D02*
X22205000Y-10815000D01*
X22205000Y-12045000D02*
X22245000Y-12085000D01*
X22245000Y-12045000D02*
X22205000Y-12085000D01*
X22205000Y-13315000D02*
X22245000Y-13355000D01*
X22245000Y-13315000D02*
X22205000Y-13355000D01*
X5769000Y-6858000D02*
G75*
G02*
X5719000Y-6858000I-25000J0D01*
G01*
X5719000Y-6858000D02*
G75*
G02*
X5769000Y-6858000I25000J0D01*
G01*
X5769000Y-13081000D02*
G75*
G02*
X5719000Y-13081000I-25000J0D01*
G01*
X5719000Y-13081000D02*
G75*
G02*
X5769000Y-13081000I25000J0D01*
G01*
X5834901Y-6698901D02*
G75*
G02*
X5784901Y-6698901I-25000J0D01*
G01*
X5784901Y-6698901D02*
G75*
G02*
X5834901Y-6698901I25000J0D01*
G01*
X5834901Y-7017099D02*
G75*
G02*
X5784901Y-7017099I-25000J0D01*
G01*
X5784901Y-7017099D02*
G75*
G02*
X5834901Y-7017099I25000J0D01*
G01*
X5834901Y-12921901D02*
G75*
G02*
X5784901Y-12921901I-25000J0D01*
G01*
X5784901Y-12921901D02*
G75*
G02*
X5834901Y-12921901I25000J0D01*
G01*
X5834901Y-13240099D02*
G75*
G02*
X5784901Y-13240099I-25000J0D01*
G01*
X5784901Y-13240099D02*
G75*
G02*
X5834901Y-13240099I25000J0D01*
G01*
X5994000Y-6633000D02*
G75*
G02*
X5944000Y-6633000I-25000J0D01*
G01*
X5944000Y-6633000D02*
G75*
G02*
X5994000Y-6633000I25000J0D01*
G01*
X5994000Y-7083000D02*
G75*
G02*
X5944000Y-7083000I-25000J0D01*
G01*
X5944000Y-7083000D02*
G75*
G02*
X5994000Y-7083000I25000J0D01*
G01*
X5994000Y-12856000D02*
G75*
G02*
X5944000Y-12856000I-25000J0D01*
G01*
X5944000Y-12856000D02*
G75*
G02*
X5994000Y-12856000I25000J0D01*
G01*
X5994000Y-13306000D02*
G75*
G02*
X5944000Y-13306000I-25000J0D01*
G01*
X5944000Y-13306000D02*
G75*
G02*
X5994000Y-13306000I25000J0D01*
G01*
X6153099Y-6698901D02*
G75*
G02*
X6103099Y-6698901I-25000J0D01*
G01*
X6103099Y-6698901D02*
G75*
G02*
X6153099Y-6698901I25000J0D01*
G01*
X6153099Y-7017099D02*
G75*
G02*
X6103099Y-7017099I-25000J0D01*
G01*
X6103099Y-7017099D02*
G75*
G02*
X6153099Y-7017099I25000J0D01*
G01*
X6153099Y-12921901D02*
G75*
G02*
X6103099Y-12921901I-25000J0D01*
G01*
X6103099Y-12921901D02*
G75*
G02*
X6153099Y-12921901I25000J0D01*
G01*
X6153099Y-13240099D02*
G75*
G02*
X6103099Y-13240099I-25000J0D01*
G01*
X6103099Y-13240099D02*
G75*
G02*
X6153099Y-13240099I25000J0D01*
G01*
X6219000Y-6858000D02*
G75*
G02*
X6169000Y-6858000I-25000J0D01*
G01*
X6169000Y-6858000D02*
G75*
G02*
X6219000Y-6858000I25000J0D01*
G01*
X6219000Y-13081000D02*
G75*
G02*
X6169000Y-13081000I-25000J0D01*
G01*
X6169000Y-13081000D02*
G75*
G02*
X6219000Y-13081000I25000J0D01*
G01*
X22660000Y-6858000D02*
G75*
G02*
X22610000Y-6858000I-25000J0D01*
G01*
X22610000Y-6858000D02*
G75*
G02*
X22660000Y-6858000I25000J0D01*
G01*
X22660000Y-12954000D02*
G75*
G02*
X22610000Y-12954000I-25000J0D01*
G01*
X22610000Y-12954000D02*
G75*
G02*
X22660000Y-12954000I25000J0D01*
G01*
X22725901Y-6698901D02*
G75*
G02*
X22675901Y-6698901I-25000J0D01*
G01*
X22675901Y-6698901D02*
G75*
G02*
X22725901Y-6698901I25000J0D01*
G01*
X22725901Y-7017099D02*
G75*
G02*
X22675901Y-7017099I-25000J0D01*
G01*
X22675901Y-7017099D02*
G75*
G02*
X22725901Y-7017099I25000J0D01*
G01*
X22725901Y-12794901D02*
G75*
G02*
X22675901Y-12794901I-25000J0D01*
G01*
X22675901Y-12794901D02*
G75*
G02*
X22725901Y-12794901I25000J0D01*
G01*
X22725901Y-13113099D02*
G75*
G02*
X22675901Y-13113099I-25000J0D01*
G01*
X22675901Y-13113099D02*
G75*
G02*
X22725901Y-13113099I25000J0D01*
G01*
X22885000Y-6633000D02*
G75*
G02*
X22835000Y-6633000I-25000J0D01*
G01*
X22835000Y-6633000D02*
G75*
G02*
X22885000Y-6633000I25000J0D01*
G01*
X22885000Y-7083000D02*
G75*
G02*
X22835000Y-7083000I-25000J0D01*
G01*
X22835000Y-7083000D02*
G75*
G02*
X22885000Y-7083000I25000J0D01*
G01*
X22885000Y-12729000D02*
G75*
G02*
X22835000Y-12729000I-25000J0D01*
G01*
X22835000Y-12729000D02*
G75*
G02*
X22885000Y-12729000I25000J0D01*
G01*
X22885000Y-13179000D02*
G75*
G02*
X22835000Y-13179000I-25000J0D01*
G01*
X22835000Y-13179000D02*
G75*
G02*
X22885000Y-13179000I25000J0D01*
G01*
X23044099Y-6698901D02*
G75*
G02*
X22994099Y-6698901I-25000J0D01*
G01*
X22994099Y-6698901D02*
G75*
G02*
X23044099Y-6698901I25000J0D01*
G01*
X23044099Y-7017099D02*
G75*
G02*
X22994099Y-7017099I-25000J0D01*
G01*
X22994099Y-7017099D02*
G75*
G02*
X23044099Y-7017099I25000J0D01*
G01*
X23044099Y-12794901D02*
G75*
G02*
X22994099Y-12794901I-25000J0D01*
G01*
X22994099Y-12794901D02*
G75*
G02*
X23044099Y-12794901I25000J0D01*
G01*
X23044099Y-13113099D02*
G75*
G02*
X22994099Y-13113099I-25000J0D01*
G01*
X22994099Y-13113099D02*
G75*
G02*
X23044099Y-13113099I25000J0D01*
G01*
X23110000Y-6858000D02*
G75*
G02*
X23060000Y-6858000I-25000J0D01*
G01*
X23060000Y-6858000D02*
G75*
G02*
X23110000Y-6858000I25000J0D01*
G01*
X23110000Y-12954000D02*
G75*
G02*
X23060000Y-12954000I-25000J0D01*
G01*
X23060000Y-12954000D02*
G75*
G02*
X23110000Y-12954000I25000J0D01*
G01*
X10150000Y-9884000D02*
X10150000Y-9984000D01*
X10100000Y-9934000D02*
X10200000Y-9934000D01*
X10150000Y-10138000D02*
X10150000Y-10238000D01*
X10100000Y-10188000D02*
X10200000Y-10188000D01*
X10150000Y-10392000D02*
X10150000Y-10492000D01*
X10100000Y-10442000D02*
X10200000Y-10442000D01*
X10150000Y-10646000D02*
X10150000Y-10746000D01*
X10100000Y-10696000D02*
X10200000Y-10696000D01*
X10150000Y-10900000D02*
X10150000Y-11000000D01*
X10100000Y-10950000D02*
X10200000Y-10950000D01*
X10150000Y-11154000D02*
X10150000Y-11254000D01*
X10100000Y-11204000D02*
X10200000Y-11204000D01*
X11434000Y-9410000D02*
X11434000Y-9510000D01*
X11384000Y-9460000D02*
X11484000Y-9460000D01*
X11434000Y-10860000D02*
X11434000Y-10960000D01*
X11384000Y-10910000D02*
X11484000Y-10910000D01*
X11684000Y-10860000D02*
X11684000Y-10960000D01*
X11634000Y-10910000D02*
X11734000Y-10910000D01*
X11934000Y-9410000D02*
X11934000Y-9510000D01*
X11884000Y-9460000D02*
X11984000Y-9460000D01*
X11934000Y-10860000D02*
X11934000Y-10960000D01*
X11884000Y-10910000D02*
X11984000Y-10910000D01*
X13584400Y-12151300D02*
X13584400Y-12251300D01*
X13534400Y-12201300D02*
X13634400Y-12201300D01*
X13584400Y-12401300D02*
X13584400Y-12501300D01*
X13534400Y-12451300D02*
X13634400Y-12451300D01*
X13584400Y-12601300D02*
X13584400Y-12701300D01*
X13534400Y-12651300D02*
X13634400Y-12651300D01*
X13584400Y-12851300D02*
X13584400Y-12951300D01*
X13534400Y-12901300D02*
X13634400Y-12901300D01*
X15875000Y-12015000D02*
X15875000Y-12115000D01*
X15825000Y-12065000D02*
X15925000Y-12065000D01*
X16129000Y-12015000D02*
X16129000Y-12115000D01*
X16079000Y-12065000D02*
X16179000Y-12065000D01*
X16383000Y-12015000D02*
X16383000Y-12115000D01*
X16333000Y-12065000D02*
X16433000Y-12065000D01*
X16596500Y-6808000D02*
X16596500Y-6908000D01*
X16546500Y-6858000D02*
X16646500Y-6858000D01*
X16596500Y-7062000D02*
X16596500Y-7162000D01*
X16546500Y-7112000D02*
X16646500Y-7112000D01*
X16637000Y-12015000D02*
X16637000Y-12115000D01*
X16587000Y-12065000D02*
X16687000Y-12065000D01*
X16850500Y-6808000D02*
X16850500Y-6908000D01*
X16800500Y-6858000D02*
X16900500Y-6858000D01*
X16850500Y-7062000D02*
X16850500Y-7162000D01*
X16800500Y-7112000D02*
X16900500Y-7112000D01*
X16891000Y-12015000D02*
X16891000Y-12115000D01*
X16841000Y-12065000D02*
X16941000Y-12065000D01*
X17104500Y-6808000D02*
X17104500Y-6908000D01*
X17054500Y-6858000D02*
X17154500Y-6858000D01*
X17104500Y-7062000D02*
X17104500Y-7162000D01*
X17054500Y-7112000D02*
X17154500Y-7112000D01*
X17145000Y-12015000D02*
X17145000Y-12115000D01*
X17095000Y-12065000D02*
X17195000Y-12065000D01*
X17399000Y-12015000D02*
X17399000Y-12115000D01*
X17349000Y-12065000D02*
X17449000Y-12065000D01*
X17653000Y-12015000D02*
X17653000Y-12115000D01*
X17603000Y-12065000D02*
X17703000Y-12065000D01*
X17907000Y-12015000D02*
X17907000Y-12115000D01*
X17857000Y-12065000D02*
X17957000Y-12065000D01*
X18161000Y-12015000D02*
X18161000Y-12115000D01*
X18111000Y-12065000D02*
X18211000Y-12065000D01*
X18415000Y-12015000D02*
X18415000Y-12115000D01*
X18365000Y-12065000D02*
X18465000Y-12065000D01*
X18669000Y-12015000D02*
X18669000Y-12115000D01*
X18619000Y-12065000D02*
X18719000Y-12065000D01*
X18923000Y-12015000D02*
X18923000Y-12115000D01*
X18873000Y-12065000D02*
X18973000Y-12065000D01*
X19050000Y-6808000D02*
X19050000Y-6908000D01*
X19000000Y-6858000D02*
X19100000Y-6858000D01*
X19050000Y-7062000D02*
X19050000Y-7162000D01*
X19000000Y-7112000D02*
X19100000Y-7112000D01*
X19177000Y-12015000D02*
X19177000Y-12115000D01*
X19127000Y-12065000D02*
X19227000Y-12065000D01*
X19304000Y-6808000D02*
X19304000Y-6908000D01*
X19254000Y-6858000D02*
X19354000Y-6858000D01*
X19304000Y-7062000D02*
X19304000Y-7162000D01*
X19254000Y-7112000D02*
X19354000Y-7112000D01*
X19431000Y-12015000D02*
X19431000Y-12115000D01*
X19381000Y-12065000D02*
X19481000Y-12065000D01*
X19558000Y-6808000D02*
X19558000Y-6908000D01*
X19508000Y-6858000D02*
X19608000Y-6858000D01*
X19558000Y-7062000D02*
X19558000Y-7162000D01*
X19508000Y-7112000D02*
X19608000Y-7112000D01*
X19685000Y-12015000D02*
X19685000Y-12115000D01*
X19635000Y-12065000D02*
X19735000Y-12065000D01*
X19812000Y-6808000D02*
X19812000Y-6908000D01*
X19762000Y-6858000D02*
X19862000Y-6858000D01*
X19812000Y-7062000D02*
X19812000Y-7162000D01*
X19762000Y-7112000D02*
X19862000Y-7112000D01*
X19939000Y-12015000D02*
X19939000Y-12115000D01*
X19889000Y-12065000D02*
X19989000Y-12065000D01*
X20066000Y-6808000D02*
X20066000Y-6908000D01*
X20016000Y-6858000D02*
X20116000Y-6858000D01*
X20066000Y-7062000D02*
X20066000Y-7162000D01*
X20016000Y-7112000D02*
X20116000Y-7112000D01*
X20193000Y-12015000D02*
X20193000Y-12115000D01*
X20143000Y-12065000D02*
X20243000Y-12065000D01*
X20320000Y-6808000D02*
X20320000Y-6908000D01*
X20270000Y-6858000D02*
X20370000Y-6858000D01*
X20320000Y-7062000D02*
X20320000Y-7162000D01*
X20270000Y-7112000D02*
X20370000Y-7112000D01*
X20447000Y-12015000D02*
X20447000Y-12115000D01*
X20397000Y-12065000D02*
X20497000Y-12065000D01*
X20574000Y-6808000D02*
X20574000Y-6908000D01*
X20524000Y-6858000D02*
X20624000Y-6858000D01*
X20574000Y-7062000D02*
X20574000Y-7162000D01*
X20524000Y-7112000D02*
X20624000Y-7112000D01*
X20701000Y-12015000D02*
X20701000Y-12115000D01*
X20651000Y-12065000D02*
X20751000Y-12065000D01*
X22987000Y-9856000D02*
X22987000Y-9956000D01*
X22937000Y-9906000D02*
X23037000Y-9906000D01*
X22987000Y-10110000D02*
X22987000Y-10210000D01*
X22937000Y-10160000D02*
X23037000Y-10160000D01*
D11*
X11299711Y-10230711D02*
X11299711Y-10089289D01*
X11158289Y-10089289D01*
X11158289Y-10230711D01*
X11299711Y-10230711D01*
D12*
X11329000Y-10310000D02*
X11329000Y-10010000D01*
X11129000Y-10010000D02*
G75*
G02*
X11329000Y-10010000I100000J0D01*
G01*
X11129000Y-10010000D02*
X11129000Y-10310000D01*
X11129000Y-10310000D02*
G75*
G03*
X11329000Y-10310000I100000J0D01*
G01*
D11*
X12209711Y-10230711D02*
X12209711Y-10089289D01*
X12068289Y-10089289D01*
X12068289Y-10230711D01*
X12209711Y-10230711D01*
D12*
X12239000Y-10310000D02*
X12239000Y-10010000D01*
X12039000Y-10010000D02*
G75*
G02*
X12239000Y-10010000I100000J0D01*
G01*
X12039000Y-10010000D02*
X12039000Y-10310000D01*
X12039000Y-10310000D02*
G75*
G03*
X12239000Y-10310000I100000J0D01*
G01*
D13*
X13313400Y-12019300D02*
X13438400Y-11894300D01*
X13313400Y-11769300D01*
X13188400Y-11894300D01*
X13313400Y-12019300D01*
X13313400Y-13333300D02*
X13438400Y-13208300D01*
X13313400Y-13083300D01*
X13188400Y-13208300D01*
X13313400Y-13333300D01*
D14*
X5819000Y-6708000D02*
X6119000Y-7008000D01*
X6119000Y-6708000D02*
X5819000Y-7008000D01*
X6119000Y-6858000D02*
G75*
G02*
X5819000Y-6858000I-150000J0D01*
G01*
X5819000Y-6858000D02*
G75*
G02*
X6119000Y-6858000I150000J0D01*
G01*
X5819000Y-12931000D02*
X6119000Y-13231000D01*
X6119000Y-12931000D02*
X5819000Y-13231000D01*
X6119000Y-13081000D02*
G75*
G02*
X5819000Y-13081000I-150000J0D01*
G01*
X5819000Y-13081000D02*
G75*
G02*
X6119000Y-13081000I150000J0D01*
G01*
X22710000Y-6708000D02*
X23010000Y-7008000D01*
X23010000Y-6708000D02*
X22710000Y-7008000D01*
X23010000Y-6858000D02*
G75*
G02*
X22710000Y-6858000I-150000J0D01*
G01*
X22710000Y-6858000D02*
G75*
G02*
X23010000Y-6858000I150000J0D01*
G01*
X22710000Y-12804000D02*
X23010000Y-13104000D01*
X23010000Y-12804000D02*
X22710000Y-13104000D01*
X23010000Y-12954000D02*
G75*
G02*
X22710000Y-12954000I-150000J0D01*
G01*
X22710000Y-12954000D02*
G75*
G02*
X23010000Y-12954000I150000J0D01*
G01*
D11*
X5465277Y-14029984D02*
X5465277Y-13829984D01*
X5465277Y-13829984D02*
X5512896Y-13829984D01*
X5512896Y-13829984D02*
X5541467Y-13839508D01*
X5541467Y-13839508D02*
X5560515Y-13858555D01*
X5560515Y-13858555D02*
X5570039Y-13877603D01*
X5570039Y-13877603D02*
X5579563Y-13915698D01*
X5579563Y-13915698D02*
X5579563Y-13944269D01*
X5579563Y-13944269D02*
X5570039Y-13982365D01*
X5570039Y-13982365D02*
X5560515Y-14001412D01*
X5560515Y-14001412D02*
X5541467Y-14020460D01*
X5541467Y-14020460D02*
X5512896Y-14029984D01*
X5512896Y-14029984D02*
X5465277Y-14029984D01*
X5665277Y-14029984D02*
X5665277Y-13896650D01*
X5665277Y-13934746D02*
X5674801Y-13915698D01*
X5674801Y-13915698D02*
X5684324Y-13906174D01*
X5684324Y-13906174D02*
X5703372Y-13896650D01*
X5703372Y-13896650D02*
X5722420Y-13896650D01*
X5789086Y-14029984D02*
X5789086Y-13896650D01*
X5789086Y-13829984D02*
X5779562Y-13839508D01*
X5779562Y-13839508D02*
X5789086Y-13849031D01*
X5789086Y-13849031D02*
X5798610Y-13839508D01*
X5798610Y-13839508D02*
X5789086Y-13829984D01*
X5789086Y-13829984D02*
X5789086Y-13849031D01*
X5912896Y-14029984D02*
X5893848Y-14020460D01*
X5893848Y-14020460D02*
X5884324Y-14001412D01*
X5884324Y-14001412D02*
X5884324Y-13829984D01*
X6017658Y-14029984D02*
X5998610Y-14020460D01*
X5998610Y-14020460D02*
X5989086Y-14001412D01*
X5989086Y-14001412D02*
X5989086Y-13829984D01*
X6246229Y-14029984D02*
X6246229Y-13829984D01*
X6246229Y-13829984D02*
X6312896Y-13972841D01*
X6312896Y-13972841D02*
X6379562Y-13829984D01*
X6379562Y-13829984D02*
X6379562Y-14029984D01*
X6560515Y-14029984D02*
X6560515Y-13925222D01*
X6560515Y-13925222D02*
X6550991Y-13906174D01*
X6550991Y-13906174D02*
X6531943Y-13896650D01*
X6531943Y-13896650D02*
X6493848Y-13896650D01*
X6493848Y-13896650D02*
X6474801Y-13906174D01*
X6560515Y-14020460D02*
X6541467Y-14029984D01*
X6541467Y-14029984D02*
X6493848Y-14029984D01*
X6493848Y-14029984D02*
X6474801Y-14020460D01*
X6474801Y-14020460D02*
X6465277Y-14001412D01*
X6465277Y-14001412D02*
X6465277Y-13982365D01*
X6465277Y-13982365D02*
X6474801Y-13963317D01*
X6474801Y-13963317D02*
X6493848Y-13953793D01*
X6493848Y-13953793D02*
X6541467Y-13953793D01*
X6541467Y-13953793D02*
X6560515Y-13944269D01*
X6655753Y-13896650D02*
X6655753Y-14096650D01*
X6655753Y-13906174D02*
X6674801Y-13896650D01*
X6674801Y-13896650D02*
X6712896Y-13896650D01*
X6712896Y-13896650D02*
X6731943Y-13906174D01*
X6731943Y-13906174D02*
X6741467Y-13915698D01*
X6741467Y-13915698D02*
X6750991Y-13934746D01*
X6750991Y-13934746D02*
X6750991Y-13991888D01*
X6750991Y-13991888D02*
X6741467Y-14010936D01*
X6741467Y-14010936D02*
X6731943Y-14020460D01*
X6731943Y-14020460D02*
X6712896Y-14029984D01*
X6712896Y-14029984D02*
X6674801Y-14029984D01*
X6674801Y-14029984D02*
X6655753Y-14020460D01*
X6836705Y-14010936D02*
X6846229Y-14020460D01*
X6846229Y-14020460D02*
X6836705Y-14029984D01*
X6836705Y-14029984D02*
X6827182Y-14020460D01*
X6827182Y-14020460D02*
X6836705Y-14010936D01*
X6836705Y-14010936D02*
X6836705Y-14029984D01*
X6836705Y-13906174D02*
X6846229Y-13915698D01*
X6846229Y-13915698D02*
X6836705Y-13925222D01*
X6836705Y-13925222D02*
X6827182Y-13915698D01*
X6827182Y-13915698D02*
X6836705Y-13906174D01*
X6836705Y-13906174D02*
X6836705Y-13925222D01*
D12*
X5164500Y-14338500D02*
X5204500Y-14378500D01*
X5204500Y-14338500D02*
X5164500Y-14378500D01*
D11*
X5503372Y-14249984D02*
X5522420Y-14249984D01*
X5522420Y-14249984D02*
X5541467Y-14259508D01*
X5541467Y-14259508D02*
X5550991Y-14269031D01*
X5550991Y-14269031D02*
X5560515Y-14288079D01*
X5560515Y-14288079D02*
X5570039Y-14326174D01*
X5570039Y-14326174D02*
X5570039Y-14373793D01*
X5570039Y-14373793D02*
X5560515Y-14411888D01*
X5560515Y-14411888D02*
X5550991Y-14430936D01*
X5550991Y-14430936D02*
X5541467Y-14440460D01*
X5541467Y-14440460D02*
X5522420Y-14449984D01*
X5522420Y-14449984D02*
X5503372Y-14449984D01*
X5503372Y-14449984D02*
X5484324Y-14440460D01*
X5484324Y-14440460D02*
X5474801Y-14430936D01*
X5474801Y-14430936D02*
X5465277Y-14411888D01*
X5465277Y-14411888D02*
X5455753Y-14373793D01*
X5455753Y-14373793D02*
X5455753Y-14326174D01*
X5455753Y-14326174D02*
X5465277Y-14288079D01*
X5465277Y-14288079D02*
X5474801Y-14269031D01*
X5474801Y-14269031D02*
X5484324Y-14259508D01*
X5484324Y-14259508D02*
X5503372Y-14249984D01*
X5655753Y-14430936D02*
X5665277Y-14440460D01*
X5665277Y-14440460D02*
X5655753Y-14449984D01*
X5655753Y-14449984D02*
X5646229Y-14440460D01*
X5646229Y-14440460D02*
X5655753Y-14430936D01*
X5655753Y-14430936D02*
X5655753Y-14449984D01*
X5836705Y-14316650D02*
X5836705Y-14449984D01*
X5789086Y-14240460D02*
X5741467Y-14383317D01*
X5741467Y-14383317D02*
X5865277Y-14383317D01*
X5979562Y-14249984D02*
X5998610Y-14249984D01*
X5998610Y-14249984D02*
X6017658Y-14259508D01*
X6017658Y-14259508D02*
X6027182Y-14269031D01*
X6027182Y-14269031D02*
X6036705Y-14288079D01*
X6036705Y-14288079D02*
X6046229Y-14326174D01*
X6046229Y-14326174D02*
X6046229Y-14373793D01*
X6046229Y-14373793D02*
X6036705Y-14411888D01*
X6036705Y-14411888D02*
X6027182Y-14430936D01*
X6027182Y-14430936D02*
X6017658Y-14440460D01*
X6017658Y-14440460D02*
X5998610Y-14449984D01*
X5998610Y-14449984D02*
X5979562Y-14449984D01*
X5979562Y-14449984D02*
X5960515Y-14440460D01*
X5960515Y-14440460D02*
X5950991Y-14430936D01*
X5950991Y-14430936D02*
X5941467Y-14411888D01*
X5941467Y-14411888D02*
X5931943Y-14373793D01*
X5931943Y-14373793D02*
X5931943Y-14326174D01*
X5931943Y-14326174D02*
X5941467Y-14288079D01*
X5941467Y-14288079D02*
X5950991Y-14269031D01*
X5950991Y-14269031D02*
X5960515Y-14259508D01*
X5960515Y-14259508D02*
X5979562Y-14249984D01*
X6170039Y-14249984D02*
X6189086Y-14249984D01*
X6189086Y-14249984D02*
X6208134Y-14259508D01*
X6208134Y-14259508D02*
X6217658Y-14269031D01*
X6217658Y-14269031D02*
X6227182Y-14288079D01*
X6227182Y-14288079D02*
X6236705Y-14326174D01*
X6236705Y-14326174D02*
X6236705Y-14373793D01*
X6236705Y-14373793D02*
X6227182Y-14411888D01*
X6227182Y-14411888D02*
X6217658Y-14430936D01*
X6217658Y-14430936D02*
X6208134Y-14440460D01*
X6208134Y-14440460D02*
X6189086Y-14449984D01*
X6189086Y-14449984D02*
X6170039Y-14449984D01*
X6170039Y-14449984D02*
X6150991Y-14440460D01*
X6150991Y-14440460D02*
X6141467Y-14430936D01*
X6141467Y-14430936D02*
X6131943Y-14411888D01*
X6131943Y-14411888D02*
X6122420Y-14373793D01*
X6122420Y-14373793D02*
X6122420Y-14326174D01*
X6122420Y-14326174D02*
X6131943Y-14288079D01*
X6131943Y-14288079D02*
X6141467Y-14269031D01*
X6141467Y-14269031D02*
X6150991Y-14259508D01*
X6150991Y-14259508D02*
X6170039Y-14249984D01*
X6322420Y-14449984D02*
X6322420Y-14316650D01*
X6322420Y-14335698D02*
X6331943Y-14326174D01*
X6331943Y-14326174D02*
X6350991Y-14316650D01*
X6350991Y-14316650D02*
X6379563Y-14316650D01*
X6379563Y-14316650D02*
X6398610Y-14326174D01*
X6398610Y-14326174D02*
X6408134Y-14345222D01*
X6408134Y-14345222D02*
X6408134Y-14449984D01*
X6408134Y-14345222D02*
X6417658Y-14326174D01*
X6417658Y-14326174D02*
X6436705Y-14316650D01*
X6436705Y-14316650D02*
X6465277Y-14316650D01*
X6465277Y-14316650D02*
X6484324Y-14326174D01*
X6484324Y-14326174D02*
X6493848Y-14345222D01*
X6493848Y-14345222D02*
X6493848Y-14449984D01*
X6589086Y-14449984D02*
X6589086Y-14316650D01*
X6589086Y-14335698D02*
X6598610Y-14326174D01*
X6598610Y-14326174D02*
X6617658Y-14316650D01*
X6617658Y-14316650D02*
X6646229Y-14316650D01*
X6646229Y-14316650D02*
X6665277Y-14326174D01*
X6665277Y-14326174D02*
X6674801Y-14345222D01*
X6674801Y-14345222D02*
X6674801Y-14449984D01*
X6674801Y-14345222D02*
X6684324Y-14326174D01*
X6684324Y-14326174D02*
X6703372Y-14316650D01*
X6703372Y-14316650D02*
X6731943Y-14316650D01*
X6731943Y-14316650D02*
X6750991Y-14326174D01*
X6750991Y-14326174D02*
X6760515Y-14345222D01*
X6760515Y-14345222D02*
X6760515Y-14449984D01*
X7150991Y-14240460D02*
X6979563Y-14497603D01*
X7408134Y-14249984D02*
X7427182Y-14249984D01*
X7427182Y-14249984D02*
X7446229Y-14259508D01*
X7446229Y-14259508D02*
X7455753Y-14269031D01*
X7455753Y-14269031D02*
X7465277Y-14288079D01*
X7465277Y-14288079D02*
X7474801Y-14326174D01*
X7474801Y-14326174D02*
X7474801Y-14373793D01*
X7474801Y-14373793D02*
X7465277Y-14411888D01*
X7465277Y-14411888D02*
X7455753Y-14430936D01*
X7455753Y-14430936D02*
X7446229Y-14440460D01*
X7446229Y-14440460D02*
X7427182Y-14449984D01*
X7427182Y-14449984D02*
X7408134Y-14449984D01*
X7408134Y-14449984D02*
X7389086Y-14440460D01*
X7389086Y-14440460D02*
X7379563Y-14430936D01*
X7379563Y-14430936D02*
X7370039Y-14411888D01*
X7370039Y-14411888D02*
X7360515Y-14373793D01*
X7360515Y-14373793D02*
X7360515Y-14326174D01*
X7360515Y-14326174D02*
X7370039Y-14288079D01*
X7370039Y-14288079D02*
X7379563Y-14269031D01*
X7379563Y-14269031D02*
X7389086Y-14259508D01*
X7389086Y-14259508D02*
X7408134Y-14249984D01*
X7560515Y-14430936D02*
X7570039Y-14440460D01*
X7570039Y-14440460D02*
X7560515Y-14449984D01*
X7560515Y-14449984D02*
X7550991Y-14440460D01*
X7550991Y-14440460D02*
X7560515Y-14430936D01*
X7560515Y-14430936D02*
X7560515Y-14449984D01*
X7693848Y-14249984D02*
X7712896Y-14249984D01*
X7712896Y-14249984D02*
X7731944Y-14259508D01*
X7731944Y-14259508D02*
X7741467Y-14269031D01*
X7741467Y-14269031D02*
X7750991Y-14288079D01*
X7750991Y-14288079D02*
X7760515Y-14326174D01*
X7760515Y-14326174D02*
X7760515Y-14373793D01*
X7760515Y-14373793D02*
X7750991Y-14411888D01*
X7750991Y-14411888D02*
X7741467Y-14430936D01*
X7741467Y-14430936D02*
X7731944Y-14440460D01*
X7731944Y-14440460D02*
X7712896Y-14449984D01*
X7712896Y-14449984D02*
X7693848Y-14449984D01*
X7693848Y-14449984D02*
X7674801Y-14440460D01*
X7674801Y-14440460D02*
X7665277Y-14430936D01*
X7665277Y-14430936D02*
X7655753Y-14411888D01*
X7655753Y-14411888D02*
X7646229Y-14373793D01*
X7646229Y-14373793D02*
X7646229Y-14326174D01*
X7646229Y-14326174D02*
X7655753Y-14288079D01*
X7655753Y-14288079D02*
X7665277Y-14269031D01*
X7665277Y-14269031D02*
X7674801Y-14259508D01*
X7674801Y-14259508D02*
X7693848Y-14249984D01*
X7950991Y-14449984D02*
X7836706Y-14449984D01*
X7893848Y-14449984D02*
X7893848Y-14249984D01*
X7893848Y-14249984D02*
X7874801Y-14278555D01*
X7874801Y-14278555D02*
X7855753Y-14297603D01*
X7855753Y-14297603D02*
X7836706Y-14307127D01*
X8131944Y-14249984D02*
X8036706Y-14249984D01*
X8036706Y-14249984D02*
X8027182Y-14345222D01*
X8027182Y-14345222D02*
X8036706Y-14335698D01*
X8036706Y-14335698D02*
X8055753Y-14326174D01*
X8055753Y-14326174D02*
X8103372Y-14326174D01*
X8103372Y-14326174D02*
X8122420Y-14335698D01*
X8122420Y-14335698D02*
X8131944Y-14345222D01*
X8131944Y-14345222D02*
X8141467Y-14364269D01*
X8141467Y-14364269D02*
X8141467Y-14411888D01*
X8141467Y-14411888D02*
X8131944Y-14430936D01*
X8131944Y-14430936D02*
X8122420Y-14440460D01*
X8122420Y-14440460D02*
X8103372Y-14449984D01*
X8103372Y-14449984D02*
X8055753Y-14449984D01*
X8055753Y-14449984D02*
X8036706Y-14440460D01*
X8036706Y-14440460D02*
X8027182Y-14430936D01*
X8208134Y-14249984D02*
X8341467Y-14249984D01*
X8341467Y-14249984D02*
X8255753Y-14449984D01*
X8408134Y-14249984D02*
X8408134Y-14288079D01*
X8484325Y-14249984D02*
X8484325Y-14288079D01*
X8779563Y-14526174D02*
X8770039Y-14516650D01*
X8770039Y-14516650D02*
X8750991Y-14488079D01*
X8750991Y-14488079D02*
X8741468Y-14469031D01*
X8741468Y-14469031D02*
X8731944Y-14440460D01*
X8731944Y-14440460D02*
X8722420Y-14392841D01*
X8722420Y-14392841D02*
X8722420Y-14354746D01*
X8722420Y-14354746D02*
X8731944Y-14307127D01*
X8731944Y-14307127D02*
X8741468Y-14278555D01*
X8741468Y-14278555D02*
X8750991Y-14259508D01*
X8750991Y-14259508D02*
X8770039Y-14230936D01*
X8770039Y-14230936D02*
X8779563Y-14221412D01*
X8960515Y-14449984D02*
X8846230Y-14449984D01*
X8903372Y-14449984D02*
X8903372Y-14249984D01*
X8903372Y-14249984D02*
X8884325Y-14278555D01*
X8884325Y-14278555D02*
X8865277Y-14297603D01*
X8865277Y-14297603D02*
X8846230Y-14307127D01*
X9150991Y-14449984D02*
X9036706Y-14449984D01*
X9093849Y-14449984D02*
X9093849Y-14249984D01*
X9093849Y-14249984D02*
X9074801Y-14278555D01*
X9074801Y-14278555D02*
X9055753Y-14297603D01*
X9055753Y-14297603D02*
X9036706Y-14307127D01*
X9331944Y-14249984D02*
X9236706Y-14249984D01*
X9236706Y-14249984D02*
X9227182Y-14345222D01*
X9227182Y-14345222D02*
X9236706Y-14335698D01*
X9236706Y-14335698D02*
X9255753Y-14326174D01*
X9255753Y-14326174D02*
X9303372Y-14326174D01*
X9303372Y-14326174D02*
X9322420Y-14335698D01*
X9322420Y-14335698D02*
X9331944Y-14345222D01*
X9331944Y-14345222D02*
X9341468Y-14364269D01*
X9341468Y-14364269D02*
X9341468Y-14411888D01*
X9341468Y-14411888D02*
X9331944Y-14430936D01*
X9331944Y-14430936D02*
X9322420Y-14440460D01*
X9322420Y-14440460D02*
X9303372Y-14449984D01*
X9303372Y-14449984D02*
X9255753Y-14449984D01*
X9255753Y-14449984D02*
X9236706Y-14440460D01*
X9236706Y-14440460D02*
X9227182Y-14430936D01*
X9579563Y-14449984D02*
X9579563Y-14249984D01*
X9665277Y-14449984D02*
X9665277Y-14345222D01*
X9665277Y-14345222D02*
X9655753Y-14326174D01*
X9655753Y-14326174D02*
X9636706Y-14316650D01*
X9636706Y-14316650D02*
X9608134Y-14316650D01*
X9608134Y-14316650D02*
X9589087Y-14326174D01*
X9589087Y-14326174D02*
X9579563Y-14335698D01*
X9789087Y-14449984D02*
X9770039Y-14440460D01*
X9770039Y-14440460D02*
X9760515Y-14430936D01*
X9760515Y-14430936D02*
X9750992Y-14411888D01*
X9750992Y-14411888D02*
X9750992Y-14354746D01*
X9750992Y-14354746D02*
X9760515Y-14335698D01*
X9760515Y-14335698D02*
X9770039Y-14326174D01*
X9770039Y-14326174D02*
X9789087Y-14316650D01*
X9789087Y-14316650D02*
X9817658Y-14316650D01*
X9817658Y-14316650D02*
X9836706Y-14326174D01*
X9836706Y-14326174D02*
X9846230Y-14335698D01*
X9846230Y-14335698D02*
X9855753Y-14354746D01*
X9855753Y-14354746D02*
X9855753Y-14411888D01*
X9855753Y-14411888D02*
X9846230Y-14430936D01*
X9846230Y-14430936D02*
X9836706Y-14440460D01*
X9836706Y-14440460D02*
X9817658Y-14449984D01*
X9817658Y-14449984D02*
X9789087Y-14449984D01*
X9970039Y-14449984D02*
X9950992Y-14440460D01*
X9950992Y-14440460D02*
X9941468Y-14421412D01*
X9941468Y-14421412D02*
X9941468Y-14249984D01*
X10122420Y-14440460D02*
X10103373Y-14449984D01*
X10103373Y-14449984D02*
X10065277Y-14449984D01*
X10065277Y-14449984D02*
X10046230Y-14440460D01*
X10046230Y-14440460D02*
X10036706Y-14421412D01*
X10036706Y-14421412D02*
X10036706Y-14345222D01*
X10036706Y-14345222D02*
X10046230Y-14326174D01*
X10046230Y-14326174D02*
X10065277Y-14316650D01*
X10065277Y-14316650D02*
X10103373Y-14316650D01*
X10103373Y-14316650D02*
X10122420Y-14326174D01*
X10122420Y-14326174D02*
X10131944Y-14345222D01*
X10131944Y-14345222D02*
X10131944Y-14364269D01*
X10131944Y-14364269D02*
X10036706Y-14383317D01*
X10208134Y-14440460D02*
X10227182Y-14449984D01*
X10227182Y-14449984D02*
X10265277Y-14449984D01*
X10265277Y-14449984D02*
X10284325Y-14440460D01*
X10284325Y-14440460D02*
X10293849Y-14421412D01*
X10293849Y-14421412D02*
X10293849Y-14411888D01*
X10293849Y-14411888D02*
X10284325Y-14392841D01*
X10284325Y-14392841D02*
X10265277Y-14383317D01*
X10265277Y-14383317D02*
X10236706Y-14383317D01*
X10236706Y-14383317D02*
X10217658Y-14373793D01*
X10217658Y-14373793D02*
X10208134Y-14354746D01*
X10208134Y-14354746D02*
X10208134Y-14345222D01*
X10208134Y-14345222D02*
X10217658Y-14326174D01*
X10217658Y-14326174D02*
X10236706Y-14316650D01*
X10236706Y-14316650D02*
X10265277Y-14316650D01*
X10265277Y-14316650D02*
X10284325Y-14326174D01*
X10360515Y-14526174D02*
X10370039Y-14516650D01*
X10370039Y-14516650D02*
X10389087Y-14488079D01*
X10389087Y-14488079D02*
X10398611Y-14469031D01*
X10398611Y-14469031D02*
X10408134Y-14440460D01*
X10408134Y-14440460D02*
X10417658Y-14392841D01*
X10417658Y-14392841D02*
X10417658Y-14354746D01*
X10417658Y-14354746D02*
X10408134Y-14307127D01*
X10408134Y-14307127D02*
X10398611Y-14278555D01*
X10398611Y-14278555D02*
X10389087Y-14259508D01*
X10389087Y-14259508D02*
X10370039Y-14230936D01*
X10370039Y-14230936D02*
X10360515Y-14221412D01*
D12*
X5204500Y-14622500D02*
G75*
G02*
X5154500Y-14622500I-25000J0D01*
G01*
X5154500Y-14622500D02*
G75*
G02*
X5204500Y-14622500I25000J0D01*
G01*
D11*
X5503372Y-14513984D02*
X5522420Y-14513984D01*
X5522420Y-14513984D02*
X5541467Y-14523508D01*
X5541467Y-14523508D02*
X5550991Y-14533031D01*
X5550991Y-14533031D02*
X5560515Y-14552079D01*
X5560515Y-14552079D02*
X5570039Y-14590174D01*
X5570039Y-14590174D02*
X5570039Y-14637793D01*
X5570039Y-14637793D02*
X5560515Y-14675888D01*
X5560515Y-14675888D02*
X5550991Y-14694936D01*
X5550991Y-14694936D02*
X5541467Y-14704460D01*
X5541467Y-14704460D02*
X5522420Y-14713984D01*
X5522420Y-14713984D02*
X5503372Y-14713984D01*
X5503372Y-14713984D02*
X5484324Y-14704460D01*
X5484324Y-14704460D02*
X5474801Y-14694936D01*
X5474801Y-14694936D02*
X5465277Y-14675888D01*
X5465277Y-14675888D02*
X5455753Y-14637793D01*
X5455753Y-14637793D02*
X5455753Y-14590174D01*
X5455753Y-14590174D02*
X5465277Y-14552079D01*
X5465277Y-14552079D02*
X5474801Y-14533031D01*
X5474801Y-14533031D02*
X5484324Y-14523508D01*
X5484324Y-14523508D02*
X5503372Y-14513984D01*
X5655753Y-14694936D02*
X5665277Y-14704460D01*
X5665277Y-14704460D02*
X5655753Y-14713984D01*
X5655753Y-14713984D02*
X5646229Y-14704460D01*
X5646229Y-14704460D02*
X5655753Y-14694936D01*
X5655753Y-14694936D02*
X5655753Y-14713984D01*
X5846229Y-14513984D02*
X5750991Y-14513984D01*
X5750991Y-14513984D02*
X5741467Y-14609222D01*
X5741467Y-14609222D02*
X5750991Y-14599698D01*
X5750991Y-14599698D02*
X5770039Y-14590174D01*
X5770039Y-14590174D02*
X5817658Y-14590174D01*
X5817658Y-14590174D02*
X5836705Y-14599698D01*
X5836705Y-14599698D02*
X5846229Y-14609222D01*
X5846229Y-14609222D02*
X5855753Y-14628269D01*
X5855753Y-14628269D02*
X5855753Y-14675888D01*
X5855753Y-14675888D02*
X5846229Y-14694936D01*
X5846229Y-14694936D02*
X5836705Y-14704460D01*
X5836705Y-14704460D02*
X5817658Y-14713984D01*
X5817658Y-14713984D02*
X5770039Y-14713984D01*
X5770039Y-14713984D02*
X5750991Y-14704460D01*
X5750991Y-14704460D02*
X5741467Y-14694936D01*
X5979562Y-14513984D02*
X5998610Y-14513984D01*
X5998610Y-14513984D02*
X6017658Y-14523508D01*
X6017658Y-14523508D02*
X6027182Y-14533031D01*
X6027182Y-14533031D02*
X6036705Y-14552079D01*
X6036705Y-14552079D02*
X6046229Y-14590174D01*
X6046229Y-14590174D02*
X6046229Y-14637793D01*
X6046229Y-14637793D02*
X6036705Y-14675888D01*
X6036705Y-14675888D02*
X6027182Y-14694936D01*
X6027182Y-14694936D02*
X6017658Y-14704460D01*
X6017658Y-14704460D02*
X5998610Y-14713984D01*
X5998610Y-14713984D02*
X5979562Y-14713984D01*
X5979562Y-14713984D02*
X5960515Y-14704460D01*
X5960515Y-14704460D02*
X5950991Y-14694936D01*
X5950991Y-14694936D02*
X5941467Y-14675888D01*
X5941467Y-14675888D02*
X5931943Y-14637793D01*
X5931943Y-14637793D02*
X5931943Y-14590174D01*
X5931943Y-14590174D02*
X5941467Y-14552079D01*
X5941467Y-14552079D02*
X5950991Y-14533031D01*
X5950991Y-14533031D02*
X5960515Y-14523508D01*
X5960515Y-14523508D02*
X5979562Y-14513984D01*
X6170039Y-14513984D02*
X6189086Y-14513984D01*
X6189086Y-14513984D02*
X6208134Y-14523508D01*
X6208134Y-14523508D02*
X6217658Y-14533031D01*
X6217658Y-14533031D02*
X6227182Y-14552079D01*
X6227182Y-14552079D02*
X6236705Y-14590174D01*
X6236705Y-14590174D02*
X6236705Y-14637793D01*
X6236705Y-14637793D02*
X6227182Y-14675888D01*
X6227182Y-14675888D02*
X6217658Y-14694936D01*
X6217658Y-14694936D02*
X6208134Y-14704460D01*
X6208134Y-14704460D02*
X6189086Y-14713984D01*
X6189086Y-14713984D02*
X6170039Y-14713984D01*
X6170039Y-14713984D02*
X6150991Y-14704460D01*
X6150991Y-14704460D02*
X6141467Y-14694936D01*
X6141467Y-14694936D02*
X6131943Y-14675888D01*
X6131943Y-14675888D02*
X6122420Y-14637793D01*
X6122420Y-14637793D02*
X6122420Y-14590174D01*
X6122420Y-14590174D02*
X6131943Y-14552079D01*
X6131943Y-14552079D02*
X6141467Y-14533031D01*
X6141467Y-14533031D02*
X6150991Y-14523508D01*
X6150991Y-14523508D02*
X6170039Y-14513984D01*
X6322420Y-14713984D02*
X6322420Y-14580650D01*
X6322420Y-14599698D02*
X6331943Y-14590174D01*
X6331943Y-14590174D02*
X6350991Y-14580650D01*
X6350991Y-14580650D02*
X6379563Y-14580650D01*
X6379563Y-14580650D02*
X6398610Y-14590174D01*
X6398610Y-14590174D02*
X6408134Y-14609222D01*
X6408134Y-14609222D02*
X6408134Y-14713984D01*
X6408134Y-14609222D02*
X6417658Y-14590174D01*
X6417658Y-14590174D02*
X6436705Y-14580650D01*
X6436705Y-14580650D02*
X6465277Y-14580650D01*
X6465277Y-14580650D02*
X6484324Y-14590174D01*
X6484324Y-14590174D02*
X6493848Y-14609222D01*
X6493848Y-14609222D02*
X6493848Y-14713984D01*
X6589086Y-14713984D02*
X6589086Y-14580650D01*
X6589086Y-14599698D02*
X6598610Y-14590174D01*
X6598610Y-14590174D02*
X6617658Y-14580650D01*
X6617658Y-14580650D02*
X6646229Y-14580650D01*
X6646229Y-14580650D02*
X6665277Y-14590174D01*
X6665277Y-14590174D02*
X6674801Y-14609222D01*
X6674801Y-14609222D02*
X6674801Y-14713984D01*
X6674801Y-14609222D02*
X6684324Y-14590174D01*
X6684324Y-14590174D02*
X6703372Y-14580650D01*
X6703372Y-14580650D02*
X6731943Y-14580650D01*
X6731943Y-14580650D02*
X6750991Y-14590174D01*
X6750991Y-14590174D02*
X6760515Y-14609222D01*
X6760515Y-14609222D02*
X6760515Y-14713984D01*
X7150991Y-14504460D02*
X6979563Y-14761603D01*
X7408134Y-14513984D02*
X7427182Y-14513984D01*
X7427182Y-14513984D02*
X7446229Y-14523508D01*
X7446229Y-14523508D02*
X7455753Y-14533031D01*
X7455753Y-14533031D02*
X7465277Y-14552079D01*
X7465277Y-14552079D02*
X7474801Y-14590174D01*
X7474801Y-14590174D02*
X7474801Y-14637793D01*
X7474801Y-14637793D02*
X7465277Y-14675888D01*
X7465277Y-14675888D02*
X7455753Y-14694936D01*
X7455753Y-14694936D02*
X7446229Y-14704460D01*
X7446229Y-14704460D02*
X7427182Y-14713984D01*
X7427182Y-14713984D02*
X7408134Y-14713984D01*
X7408134Y-14713984D02*
X7389086Y-14704460D01*
X7389086Y-14704460D02*
X7379563Y-14694936D01*
X7379563Y-14694936D02*
X7370039Y-14675888D01*
X7370039Y-14675888D02*
X7360515Y-14637793D01*
X7360515Y-14637793D02*
X7360515Y-14590174D01*
X7360515Y-14590174D02*
X7370039Y-14552079D01*
X7370039Y-14552079D02*
X7379563Y-14533031D01*
X7379563Y-14533031D02*
X7389086Y-14523508D01*
X7389086Y-14523508D02*
X7408134Y-14513984D01*
X7560515Y-14694936D02*
X7570039Y-14704460D01*
X7570039Y-14704460D02*
X7560515Y-14713984D01*
X7560515Y-14713984D02*
X7550991Y-14704460D01*
X7550991Y-14704460D02*
X7560515Y-14694936D01*
X7560515Y-14694936D02*
X7560515Y-14713984D01*
X7693848Y-14513984D02*
X7712896Y-14513984D01*
X7712896Y-14513984D02*
X7731944Y-14523508D01*
X7731944Y-14523508D02*
X7741467Y-14533031D01*
X7741467Y-14533031D02*
X7750991Y-14552079D01*
X7750991Y-14552079D02*
X7760515Y-14590174D01*
X7760515Y-14590174D02*
X7760515Y-14637793D01*
X7760515Y-14637793D02*
X7750991Y-14675888D01*
X7750991Y-14675888D02*
X7741467Y-14694936D01*
X7741467Y-14694936D02*
X7731944Y-14704460D01*
X7731944Y-14704460D02*
X7712896Y-14713984D01*
X7712896Y-14713984D02*
X7693848Y-14713984D01*
X7693848Y-14713984D02*
X7674801Y-14704460D01*
X7674801Y-14704460D02*
X7665277Y-14694936D01*
X7665277Y-14694936D02*
X7655753Y-14675888D01*
X7655753Y-14675888D02*
X7646229Y-14637793D01*
X7646229Y-14637793D02*
X7646229Y-14590174D01*
X7646229Y-14590174D02*
X7655753Y-14552079D01*
X7655753Y-14552079D02*
X7665277Y-14533031D01*
X7665277Y-14533031D02*
X7674801Y-14523508D01*
X7674801Y-14523508D02*
X7693848Y-14513984D01*
X7950991Y-14713984D02*
X7836706Y-14713984D01*
X7893848Y-14713984D02*
X7893848Y-14513984D01*
X7893848Y-14513984D02*
X7874801Y-14542555D01*
X7874801Y-14542555D02*
X7855753Y-14561603D01*
X7855753Y-14561603D02*
X7836706Y-14571127D01*
X8046229Y-14713984D02*
X8084325Y-14713984D01*
X8084325Y-14713984D02*
X8103372Y-14704460D01*
X8103372Y-14704460D02*
X8112896Y-14694936D01*
X8112896Y-14694936D02*
X8131944Y-14666365D01*
X8131944Y-14666365D02*
X8141467Y-14628269D01*
X8141467Y-14628269D02*
X8141467Y-14552079D01*
X8141467Y-14552079D02*
X8131944Y-14533031D01*
X8131944Y-14533031D02*
X8122420Y-14523508D01*
X8122420Y-14523508D02*
X8103372Y-14513984D01*
X8103372Y-14513984D02*
X8065277Y-14513984D01*
X8065277Y-14513984D02*
X8046229Y-14523508D01*
X8046229Y-14523508D02*
X8036706Y-14533031D01*
X8036706Y-14533031D02*
X8027182Y-14552079D01*
X8027182Y-14552079D02*
X8027182Y-14599698D01*
X8027182Y-14599698D02*
X8036706Y-14618746D01*
X8036706Y-14618746D02*
X8046229Y-14628269D01*
X8046229Y-14628269D02*
X8065277Y-14637793D01*
X8065277Y-14637793D02*
X8103372Y-14637793D01*
X8103372Y-14637793D02*
X8122420Y-14628269D01*
X8122420Y-14628269D02*
X8131944Y-14618746D01*
X8131944Y-14618746D02*
X8141467Y-14599698D01*
X8208134Y-14513984D02*
X8341467Y-14513984D01*
X8341467Y-14513984D02*
X8255753Y-14713984D01*
X8408134Y-14513984D02*
X8408134Y-14552079D01*
X8484325Y-14513984D02*
X8484325Y-14552079D01*
X8779563Y-14790174D02*
X8770039Y-14780650D01*
X8770039Y-14780650D02*
X8750991Y-14752079D01*
X8750991Y-14752079D02*
X8741468Y-14733031D01*
X8741468Y-14733031D02*
X8731944Y-14704460D01*
X8731944Y-14704460D02*
X8722420Y-14656841D01*
X8722420Y-14656841D02*
X8722420Y-14618746D01*
X8722420Y-14618746D02*
X8731944Y-14571127D01*
X8731944Y-14571127D02*
X8741468Y-14542555D01*
X8741468Y-14542555D02*
X8750991Y-14523508D01*
X8750991Y-14523508D02*
X8770039Y-14494936D01*
X8770039Y-14494936D02*
X8779563Y-14485412D01*
X8836706Y-14513984D02*
X8960515Y-14513984D01*
X8960515Y-14513984D02*
X8893849Y-14590174D01*
X8893849Y-14590174D02*
X8922420Y-14590174D01*
X8922420Y-14590174D02*
X8941468Y-14599698D01*
X8941468Y-14599698D02*
X8950991Y-14609222D01*
X8950991Y-14609222D02*
X8960515Y-14628269D01*
X8960515Y-14628269D02*
X8960515Y-14675888D01*
X8960515Y-14675888D02*
X8950991Y-14694936D01*
X8950991Y-14694936D02*
X8941468Y-14704460D01*
X8941468Y-14704460D02*
X8922420Y-14713984D01*
X8922420Y-14713984D02*
X8865277Y-14713984D01*
X8865277Y-14713984D02*
X8846230Y-14704460D01*
X8846230Y-14704460D02*
X8836706Y-14694936D01*
X9036706Y-14533031D02*
X9046230Y-14523508D01*
X9046230Y-14523508D02*
X9065277Y-14513984D01*
X9065277Y-14513984D02*
X9112896Y-14513984D01*
X9112896Y-14513984D02*
X9131944Y-14523508D01*
X9131944Y-14523508D02*
X9141468Y-14533031D01*
X9141468Y-14533031D02*
X9150991Y-14552079D01*
X9150991Y-14552079D02*
X9150991Y-14571127D01*
X9150991Y-14571127D02*
X9141468Y-14599698D01*
X9141468Y-14599698D02*
X9027182Y-14713984D01*
X9027182Y-14713984D02*
X9150991Y-14713984D01*
X9389087Y-14713984D02*
X9389087Y-14513984D01*
X9474801Y-14713984D02*
X9474801Y-14609222D01*
X9474801Y-14609222D02*
X9465277Y-14590174D01*
X9465277Y-14590174D02*
X9446230Y-14580650D01*
X9446230Y-14580650D02*
X9417658Y-14580650D01*
X9417658Y-14580650D02*
X9398611Y-14590174D01*
X9398611Y-14590174D02*
X9389087Y-14599698D01*
X9598611Y-14713984D02*
X9579563Y-14704460D01*
X9579563Y-14704460D02*
X9570039Y-14694936D01*
X9570039Y-14694936D02*
X9560515Y-14675888D01*
X9560515Y-14675888D02*
X9560515Y-14618746D01*
X9560515Y-14618746D02*
X9570039Y-14599698D01*
X9570039Y-14599698D02*
X9579563Y-14590174D01*
X9579563Y-14590174D02*
X9598611Y-14580650D01*
X9598611Y-14580650D02*
X9627182Y-14580650D01*
X9627182Y-14580650D02*
X9646230Y-14590174D01*
X9646230Y-14590174D02*
X9655753Y-14599698D01*
X9655753Y-14599698D02*
X9665277Y-14618746D01*
X9665277Y-14618746D02*
X9665277Y-14675888D01*
X9665277Y-14675888D02*
X9655753Y-14694936D01*
X9655753Y-14694936D02*
X9646230Y-14704460D01*
X9646230Y-14704460D02*
X9627182Y-14713984D01*
X9627182Y-14713984D02*
X9598611Y-14713984D01*
X9779563Y-14713984D02*
X9760515Y-14704460D01*
X9760515Y-14704460D02*
X9750992Y-14685412D01*
X9750992Y-14685412D02*
X9750992Y-14513984D01*
X9931944Y-14704460D02*
X9912896Y-14713984D01*
X9912896Y-14713984D02*
X9874801Y-14713984D01*
X9874801Y-14713984D02*
X9855753Y-14704460D01*
X9855753Y-14704460D02*
X9846230Y-14685412D01*
X9846230Y-14685412D02*
X9846230Y-14609222D01*
X9846230Y-14609222D02*
X9855753Y-14590174D01*
X9855753Y-14590174D02*
X9874801Y-14580650D01*
X9874801Y-14580650D02*
X9912896Y-14580650D01*
X9912896Y-14580650D02*
X9931944Y-14590174D01*
X9931944Y-14590174D02*
X9941468Y-14609222D01*
X9941468Y-14609222D02*
X9941468Y-14628269D01*
X9941468Y-14628269D02*
X9846230Y-14647317D01*
X10017658Y-14704460D02*
X10036706Y-14713984D01*
X10036706Y-14713984D02*
X10074801Y-14713984D01*
X10074801Y-14713984D02*
X10093849Y-14704460D01*
X10093849Y-14704460D02*
X10103373Y-14685412D01*
X10103373Y-14685412D02*
X10103373Y-14675888D01*
X10103373Y-14675888D02*
X10093849Y-14656841D01*
X10093849Y-14656841D02*
X10074801Y-14647317D01*
X10074801Y-14647317D02*
X10046230Y-14647317D01*
X10046230Y-14647317D02*
X10027182Y-14637793D01*
X10027182Y-14637793D02*
X10017658Y-14618746D01*
X10017658Y-14618746D02*
X10017658Y-14609222D01*
X10017658Y-14609222D02*
X10027182Y-14590174D01*
X10027182Y-14590174D02*
X10046230Y-14580650D01*
X10046230Y-14580650D02*
X10074801Y-14580650D01*
X10074801Y-14580650D02*
X10093849Y-14590174D01*
X10170039Y-14790174D02*
X10179563Y-14780650D01*
X10179563Y-14780650D02*
X10198611Y-14752079D01*
X10198611Y-14752079D02*
X10208134Y-14733031D01*
X10208134Y-14733031D02*
X10217658Y-14704460D01*
X10217658Y-14704460D02*
X10227182Y-14656841D01*
X10227182Y-14656841D02*
X10227182Y-14618746D01*
X10227182Y-14618746D02*
X10217658Y-14571127D01*
X10217658Y-14571127D02*
X10208134Y-14542555D01*
X10208134Y-14542555D02*
X10198611Y-14523508D01*
X10198611Y-14523508D02*
X10179563Y-14494936D01*
X10179563Y-14494936D02*
X10170039Y-14485412D01*
D12*
X5154500Y-14836500D02*
X5154500Y-14936500D01*
X5104500Y-14886500D02*
X5204500Y-14886500D01*
D11*
X5570039Y-14977984D02*
X5455753Y-14977984D01*
X5512896Y-14977984D02*
X5512896Y-14777984D01*
X5512896Y-14777984D02*
X5493848Y-14806555D01*
X5493848Y-14806555D02*
X5474801Y-14825603D01*
X5474801Y-14825603D02*
X5455753Y-14835127D01*
X5655753Y-14958936D02*
X5665277Y-14968460D01*
X5665277Y-14968460D02*
X5655753Y-14977984D01*
X5655753Y-14977984D02*
X5646229Y-14968460D01*
X5646229Y-14968460D02*
X5655753Y-14958936D01*
X5655753Y-14958936D02*
X5655753Y-14977984D01*
X5789086Y-14777984D02*
X5808134Y-14777984D01*
X5808134Y-14777984D02*
X5827182Y-14787508D01*
X5827182Y-14787508D02*
X5836705Y-14797031D01*
X5836705Y-14797031D02*
X5846229Y-14816079D01*
X5846229Y-14816079D02*
X5855753Y-14854174D01*
X5855753Y-14854174D02*
X5855753Y-14901793D01*
X5855753Y-14901793D02*
X5846229Y-14939888D01*
X5846229Y-14939888D02*
X5836705Y-14958936D01*
X5836705Y-14958936D02*
X5827182Y-14968460D01*
X5827182Y-14968460D02*
X5808134Y-14977984D01*
X5808134Y-14977984D02*
X5789086Y-14977984D01*
X5789086Y-14977984D02*
X5770039Y-14968460D01*
X5770039Y-14968460D02*
X5760515Y-14958936D01*
X5760515Y-14958936D02*
X5750991Y-14939888D01*
X5750991Y-14939888D02*
X5741467Y-14901793D01*
X5741467Y-14901793D02*
X5741467Y-14854174D01*
X5741467Y-14854174D02*
X5750991Y-14816079D01*
X5750991Y-14816079D02*
X5760515Y-14797031D01*
X5760515Y-14797031D02*
X5770039Y-14787508D01*
X5770039Y-14787508D02*
X5789086Y-14777984D01*
X5979562Y-14777984D02*
X5998610Y-14777984D01*
X5998610Y-14777984D02*
X6017658Y-14787508D01*
X6017658Y-14787508D02*
X6027182Y-14797031D01*
X6027182Y-14797031D02*
X6036705Y-14816079D01*
X6036705Y-14816079D02*
X6046229Y-14854174D01*
X6046229Y-14854174D02*
X6046229Y-14901793D01*
X6046229Y-14901793D02*
X6036705Y-14939888D01*
X6036705Y-14939888D02*
X6027182Y-14958936D01*
X6027182Y-14958936D02*
X6017658Y-14968460D01*
X6017658Y-14968460D02*
X5998610Y-14977984D01*
X5998610Y-14977984D02*
X5979562Y-14977984D01*
X5979562Y-14977984D02*
X5960515Y-14968460D01*
X5960515Y-14968460D02*
X5950991Y-14958936D01*
X5950991Y-14958936D02*
X5941467Y-14939888D01*
X5941467Y-14939888D02*
X5931943Y-14901793D01*
X5931943Y-14901793D02*
X5931943Y-14854174D01*
X5931943Y-14854174D02*
X5941467Y-14816079D01*
X5941467Y-14816079D02*
X5950991Y-14797031D01*
X5950991Y-14797031D02*
X5960515Y-14787508D01*
X5960515Y-14787508D02*
X5979562Y-14777984D01*
X6170039Y-14777984D02*
X6189086Y-14777984D01*
X6189086Y-14777984D02*
X6208134Y-14787508D01*
X6208134Y-14787508D02*
X6217658Y-14797031D01*
X6217658Y-14797031D02*
X6227182Y-14816079D01*
X6227182Y-14816079D02*
X6236705Y-14854174D01*
X6236705Y-14854174D02*
X6236705Y-14901793D01*
X6236705Y-14901793D02*
X6227182Y-14939888D01*
X6227182Y-14939888D02*
X6217658Y-14958936D01*
X6217658Y-14958936D02*
X6208134Y-14968460D01*
X6208134Y-14968460D02*
X6189086Y-14977984D01*
X6189086Y-14977984D02*
X6170039Y-14977984D01*
X6170039Y-14977984D02*
X6150991Y-14968460D01*
X6150991Y-14968460D02*
X6141467Y-14958936D01*
X6141467Y-14958936D02*
X6131943Y-14939888D01*
X6131943Y-14939888D02*
X6122420Y-14901793D01*
X6122420Y-14901793D02*
X6122420Y-14854174D01*
X6122420Y-14854174D02*
X6131943Y-14816079D01*
X6131943Y-14816079D02*
X6141467Y-14797031D01*
X6141467Y-14797031D02*
X6150991Y-14787508D01*
X6150991Y-14787508D02*
X6170039Y-14777984D01*
X6322420Y-14977984D02*
X6322420Y-14844650D01*
X6322420Y-14863698D02*
X6331943Y-14854174D01*
X6331943Y-14854174D02*
X6350991Y-14844650D01*
X6350991Y-14844650D02*
X6379563Y-14844650D01*
X6379563Y-14844650D02*
X6398610Y-14854174D01*
X6398610Y-14854174D02*
X6408134Y-14873222D01*
X6408134Y-14873222D02*
X6408134Y-14977984D01*
X6408134Y-14873222D02*
X6417658Y-14854174D01*
X6417658Y-14854174D02*
X6436705Y-14844650D01*
X6436705Y-14844650D02*
X6465277Y-14844650D01*
X6465277Y-14844650D02*
X6484324Y-14854174D01*
X6484324Y-14854174D02*
X6493848Y-14873222D01*
X6493848Y-14873222D02*
X6493848Y-14977984D01*
X6589086Y-14977984D02*
X6589086Y-14844650D01*
X6589086Y-14863698D02*
X6598610Y-14854174D01*
X6598610Y-14854174D02*
X6617658Y-14844650D01*
X6617658Y-14844650D02*
X6646229Y-14844650D01*
X6646229Y-14844650D02*
X6665277Y-14854174D01*
X6665277Y-14854174D02*
X6674801Y-14873222D01*
X6674801Y-14873222D02*
X6674801Y-14977984D01*
X6674801Y-14873222D02*
X6684324Y-14854174D01*
X6684324Y-14854174D02*
X6703372Y-14844650D01*
X6703372Y-14844650D02*
X6731943Y-14844650D01*
X6731943Y-14844650D02*
X6750991Y-14854174D01*
X6750991Y-14854174D02*
X6760515Y-14873222D01*
X6760515Y-14873222D02*
X6760515Y-14977984D01*
X7150991Y-14768460D02*
X6979563Y-15025603D01*
X7408134Y-14777984D02*
X7427182Y-14777984D01*
X7427182Y-14777984D02*
X7446229Y-14787508D01*
X7446229Y-14787508D02*
X7455753Y-14797031D01*
X7455753Y-14797031D02*
X7465277Y-14816079D01*
X7465277Y-14816079D02*
X7474801Y-14854174D01*
X7474801Y-14854174D02*
X7474801Y-14901793D01*
X7474801Y-14901793D02*
X7465277Y-14939888D01*
X7465277Y-14939888D02*
X7455753Y-14958936D01*
X7455753Y-14958936D02*
X7446229Y-14968460D01*
X7446229Y-14968460D02*
X7427182Y-14977984D01*
X7427182Y-14977984D02*
X7408134Y-14977984D01*
X7408134Y-14977984D02*
X7389086Y-14968460D01*
X7389086Y-14968460D02*
X7379563Y-14958936D01*
X7379563Y-14958936D02*
X7370039Y-14939888D01*
X7370039Y-14939888D02*
X7360515Y-14901793D01*
X7360515Y-14901793D02*
X7360515Y-14854174D01*
X7360515Y-14854174D02*
X7370039Y-14816079D01*
X7370039Y-14816079D02*
X7379563Y-14797031D01*
X7379563Y-14797031D02*
X7389086Y-14787508D01*
X7389086Y-14787508D02*
X7408134Y-14777984D01*
X7560515Y-14958936D02*
X7570039Y-14968460D01*
X7570039Y-14968460D02*
X7560515Y-14977984D01*
X7560515Y-14977984D02*
X7550991Y-14968460D01*
X7550991Y-14968460D02*
X7560515Y-14958936D01*
X7560515Y-14958936D02*
X7560515Y-14977984D01*
X7693848Y-14777984D02*
X7712896Y-14777984D01*
X7712896Y-14777984D02*
X7731944Y-14787508D01*
X7731944Y-14787508D02*
X7741467Y-14797031D01*
X7741467Y-14797031D02*
X7750991Y-14816079D01*
X7750991Y-14816079D02*
X7760515Y-14854174D01*
X7760515Y-14854174D02*
X7760515Y-14901793D01*
X7760515Y-14901793D02*
X7750991Y-14939888D01*
X7750991Y-14939888D02*
X7741467Y-14958936D01*
X7741467Y-14958936D02*
X7731944Y-14968460D01*
X7731944Y-14968460D02*
X7712896Y-14977984D01*
X7712896Y-14977984D02*
X7693848Y-14977984D01*
X7693848Y-14977984D02*
X7674801Y-14968460D01*
X7674801Y-14968460D02*
X7665277Y-14958936D01*
X7665277Y-14958936D02*
X7655753Y-14939888D01*
X7655753Y-14939888D02*
X7646229Y-14901793D01*
X7646229Y-14901793D02*
X7646229Y-14854174D01*
X7646229Y-14854174D02*
X7655753Y-14816079D01*
X7655753Y-14816079D02*
X7665277Y-14797031D01*
X7665277Y-14797031D02*
X7674801Y-14787508D01*
X7674801Y-14787508D02*
X7693848Y-14777984D01*
X7827182Y-14777984D02*
X7950991Y-14777984D01*
X7950991Y-14777984D02*
X7884325Y-14854174D01*
X7884325Y-14854174D02*
X7912896Y-14854174D01*
X7912896Y-14854174D02*
X7931944Y-14863698D01*
X7931944Y-14863698D02*
X7941467Y-14873222D01*
X7941467Y-14873222D02*
X7950991Y-14892269D01*
X7950991Y-14892269D02*
X7950991Y-14939888D01*
X7950991Y-14939888D02*
X7941467Y-14958936D01*
X7941467Y-14958936D02*
X7931944Y-14968460D01*
X7931944Y-14968460D02*
X7912896Y-14977984D01*
X7912896Y-14977984D02*
X7855753Y-14977984D01*
X7855753Y-14977984D02*
X7836706Y-14968460D01*
X7836706Y-14968460D02*
X7827182Y-14958936D01*
X8046229Y-14977984D02*
X8084325Y-14977984D01*
X8084325Y-14977984D02*
X8103372Y-14968460D01*
X8103372Y-14968460D02*
X8112896Y-14958936D01*
X8112896Y-14958936D02*
X8131944Y-14930365D01*
X8131944Y-14930365D02*
X8141467Y-14892269D01*
X8141467Y-14892269D02*
X8141467Y-14816079D01*
X8141467Y-14816079D02*
X8131944Y-14797031D01*
X8131944Y-14797031D02*
X8122420Y-14787508D01*
X8122420Y-14787508D02*
X8103372Y-14777984D01*
X8103372Y-14777984D02*
X8065277Y-14777984D01*
X8065277Y-14777984D02*
X8046229Y-14787508D01*
X8046229Y-14787508D02*
X8036706Y-14797031D01*
X8036706Y-14797031D02*
X8027182Y-14816079D01*
X8027182Y-14816079D02*
X8027182Y-14863698D01*
X8027182Y-14863698D02*
X8036706Y-14882746D01*
X8036706Y-14882746D02*
X8046229Y-14892269D01*
X8046229Y-14892269D02*
X8065277Y-14901793D01*
X8065277Y-14901793D02*
X8103372Y-14901793D01*
X8103372Y-14901793D02*
X8122420Y-14892269D01*
X8122420Y-14892269D02*
X8131944Y-14882746D01*
X8131944Y-14882746D02*
X8141467Y-14863698D01*
X8312896Y-14844650D02*
X8312896Y-14977984D01*
X8265277Y-14768460D02*
X8217658Y-14911317D01*
X8217658Y-14911317D02*
X8341467Y-14911317D01*
X8408134Y-14777984D02*
X8408134Y-14816079D01*
X8484325Y-14777984D02*
X8484325Y-14816079D01*
X8779563Y-15054174D02*
X8770039Y-15044650D01*
X8770039Y-15044650D02*
X8750991Y-15016079D01*
X8750991Y-15016079D02*
X8741468Y-14997031D01*
X8741468Y-14997031D02*
X8731944Y-14968460D01*
X8731944Y-14968460D02*
X8722420Y-14920841D01*
X8722420Y-14920841D02*
X8722420Y-14882746D01*
X8722420Y-14882746D02*
X8731944Y-14835127D01*
X8731944Y-14835127D02*
X8741468Y-14806555D01*
X8741468Y-14806555D02*
X8750991Y-14787508D01*
X8750991Y-14787508D02*
X8770039Y-14758936D01*
X8770039Y-14758936D02*
X8779563Y-14749412D01*
X8950991Y-14777984D02*
X8855753Y-14777984D01*
X8855753Y-14777984D02*
X8846230Y-14873222D01*
X8846230Y-14873222D02*
X8855753Y-14863698D01*
X8855753Y-14863698D02*
X8874801Y-14854174D01*
X8874801Y-14854174D02*
X8922420Y-14854174D01*
X8922420Y-14854174D02*
X8941468Y-14863698D01*
X8941468Y-14863698D02*
X8950991Y-14873222D01*
X8950991Y-14873222D02*
X8960515Y-14892269D01*
X8960515Y-14892269D02*
X8960515Y-14939888D01*
X8960515Y-14939888D02*
X8950991Y-14958936D01*
X8950991Y-14958936D02*
X8941468Y-14968460D01*
X8941468Y-14968460D02*
X8922420Y-14977984D01*
X8922420Y-14977984D02*
X8874801Y-14977984D01*
X8874801Y-14977984D02*
X8855753Y-14968460D01*
X8855753Y-14968460D02*
X8846230Y-14958936D01*
X9027182Y-14777984D02*
X9160515Y-14777984D01*
X9160515Y-14777984D02*
X9074801Y-14977984D01*
X9389087Y-14977984D02*
X9389087Y-14777984D01*
X9474801Y-14977984D02*
X9474801Y-14873222D01*
X9474801Y-14873222D02*
X9465277Y-14854174D01*
X9465277Y-14854174D02*
X9446230Y-14844650D01*
X9446230Y-14844650D02*
X9417658Y-14844650D01*
X9417658Y-14844650D02*
X9398611Y-14854174D01*
X9398611Y-14854174D02*
X9389087Y-14863698D01*
X9598611Y-14977984D02*
X9579563Y-14968460D01*
X9579563Y-14968460D02*
X9570039Y-14958936D01*
X9570039Y-14958936D02*
X9560515Y-14939888D01*
X9560515Y-14939888D02*
X9560515Y-14882746D01*
X9560515Y-14882746D02*
X9570039Y-14863698D01*
X9570039Y-14863698D02*
X9579563Y-14854174D01*
X9579563Y-14854174D02*
X9598611Y-14844650D01*
X9598611Y-14844650D02*
X9627182Y-14844650D01*
X9627182Y-14844650D02*
X9646230Y-14854174D01*
X9646230Y-14854174D02*
X9655753Y-14863698D01*
X9655753Y-14863698D02*
X9665277Y-14882746D01*
X9665277Y-14882746D02*
X9665277Y-14939888D01*
X9665277Y-14939888D02*
X9655753Y-14958936D01*
X9655753Y-14958936D02*
X9646230Y-14968460D01*
X9646230Y-14968460D02*
X9627182Y-14977984D01*
X9627182Y-14977984D02*
X9598611Y-14977984D01*
X9779563Y-14977984D02*
X9760515Y-14968460D01*
X9760515Y-14968460D02*
X9750992Y-14949412D01*
X9750992Y-14949412D02*
X9750992Y-14777984D01*
X9931944Y-14968460D02*
X9912896Y-14977984D01*
X9912896Y-14977984D02*
X9874801Y-14977984D01*
X9874801Y-14977984D02*
X9855753Y-14968460D01*
X9855753Y-14968460D02*
X9846230Y-14949412D01*
X9846230Y-14949412D02*
X9846230Y-14873222D01*
X9846230Y-14873222D02*
X9855753Y-14854174D01*
X9855753Y-14854174D02*
X9874801Y-14844650D01*
X9874801Y-14844650D02*
X9912896Y-14844650D01*
X9912896Y-14844650D02*
X9931944Y-14854174D01*
X9931944Y-14854174D02*
X9941468Y-14873222D01*
X9941468Y-14873222D02*
X9941468Y-14892269D01*
X9941468Y-14892269D02*
X9846230Y-14911317D01*
X10017658Y-14968460D02*
X10036706Y-14977984D01*
X10036706Y-14977984D02*
X10074801Y-14977984D01*
X10074801Y-14977984D02*
X10093849Y-14968460D01*
X10093849Y-14968460D02*
X10103373Y-14949412D01*
X10103373Y-14949412D02*
X10103373Y-14939888D01*
X10103373Y-14939888D02*
X10093849Y-14920841D01*
X10093849Y-14920841D02*
X10074801Y-14911317D01*
X10074801Y-14911317D02*
X10046230Y-14911317D01*
X10046230Y-14911317D02*
X10027182Y-14901793D01*
X10027182Y-14901793D02*
X10017658Y-14882746D01*
X10017658Y-14882746D02*
X10017658Y-14873222D01*
X10017658Y-14873222D02*
X10027182Y-14854174D01*
X10027182Y-14854174D02*
X10046230Y-14844650D01*
X10046230Y-14844650D02*
X10074801Y-14844650D01*
X10074801Y-14844650D02*
X10093849Y-14854174D01*
X10170039Y-15054174D02*
X10179563Y-15044650D01*
X10179563Y-15044650D02*
X10198611Y-15016079D01*
X10198611Y-15016079D02*
X10208134Y-14997031D01*
X10208134Y-14997031D02*
X10217658Y-14968460D01*
X10217658Y-14968460D02*
X10227182Y-14920841D01*
X10227182Y-14920841D02*
X10227182Y-14882746D01*
X10227182Y-14882746D02*
X10217658Y-14835127D01*
X10217658Y-14835127D02*
X10208134Y-14806555D01*
X10208134Y-14806555D02*
X10198611Y-14787508D01*
X10198611Y-14787508D02*
X10179563Y-14758936D01*
X10179563Y-14758936D02*
X10170039Y-14749412D01*
X5175211Y-15221211D02*
X5175211Y-15079789D01*
X5033789Y-15079789D01*
X5033789Y-15221211D01*
X5175211Y-15221211D01*
X5455753Y-15061031D02*
X5465277Y-15051508D01*
X5465277Y-15051508D02*
X5484324Y-15041984D01*
X5484324Y-15041984D02*
X5531944Y-15041984D01*
X5531944Y-15041984D02*
X5550991Y-15051508D01*
X5550991Y-15051508D02*
X5560515Y-15061031D01*
X5560515Y-15061031D02*
X5570039Y-15080079D01*
X5570039Y-15080079D02*
X5570039Y-15099127D01*
X5570039Y-15099127D02*
X5560515Y-15127698D01*
X5560515Y-15127698D02*
X5446229Y-15241984D01*
X5446229Y-15241984D02*
X5570039Y-15241984D01*
X5655753Y-15222936D02*
X5665277Y-15232460D01*
X5665277Y-15232460D02*
X5655753Y-15241984D01*
X5655753Y-15241984D02*
X5646229Y-15232460D01*
X5646229Y-15232460D02*
X5655753Y-15222936D01*
X5655753Y-15222936D02*
X5655753Y-15241984D01*
X5789086Y-15041984D02*
X5808134Y-15041984D01*
X5808134Y-15041984D02*
X5827182Y-15051508D01*
X5827182Y-15051508D02*
X5836705Y-15061031D01*
X5836705Y-15061031D02*
X5846229Y-15080079D01*
X5846229Y-15080079D02*
X5855753Y-15118174D01*
X5855753Y-15118174D02*
X5855753Y-15165793D01*
X5855753Y-15165793D02*
X5846229Y-15203888D01*
X5846229Y-15203888D02*
X5836705Y-15222936D01*
X5836705Y-15222936D02*
X5827182Y-15232460D01*
X5827182Y-15232460D02*
X5808134Y-15241984D01*
X5808134Y-15241984D02*
X5789086Y-15241984D01*
X5789086Y-15241984D02*
X5770039Y-15232460D01*
X5770039Y-15232460D02*
X5760515Y-15222936D01*
X5760515Y-15222936D02*
X5750991Y-15203888D01*
X5750991Y-15203888D02*
X5741467Y-15165793D01*
X5741467Y-15165793D02*
X5741467Y-15118174D01*
X5741467Y-15118174D02*
X5750991Y-15080079D01*
X5750991Y-15080079D02*
X5760515Y-15061031D01*
X5760515Y-15061031D02*
X5770039Y-15051508D01*
X5770039Y-15051508D02*
X5789086Y-15041984D01*
X5979562Y-15041984D02*
X5998610Y-15041984D01*
X5998610Y-15041984D02*
X6017658Y-15051508D01*
X6017658Y-15051508D02*
X6027182Y-15061031D01*
X6027182Y-15061031D02*
X6036705Y-15080079D01*
X6036705Y-15080079D02*
X6046229Y-15118174D01*
X6046229Y-15118174D02*
X6046229Y-15165793D01*
X6046229Y-15165793D02*
X6036705Y-15203888D01*
X6036705Y-15203888D02*
X6027182Y-15222936D01*
X6027182Y-15222936D02*
X6017658Y-15232460D01*
X6017658Y-15232460D02*
X5998610Y-15241984D01*
X5998610Y-15241984D02*
X5979562Y-15241984D01*
X5979562Y-15241984D02*
X5960515Y-15232460D01*
X5960515Y-15232460D02*
X5950991Y-15222936D01*
X5950991Y-15222936D02*
X5941467Y-15203888D01*
X5941467Y-15203888D02*
X5931943Y-15165793D01*
X5931943Y-15165793D02*
X5931943Y-15118174D01*
X5931943Y-15118174D02*
X5941467Y-15080079D01*
X5941467Y-15080079D02*
X5950991Y-15061031D01*
X5950991Y-15061031D02*
X5960515Y-15051508D01*
X5960515Y-15051508D02*
X5979562Y-15041984D01*
X6170039Y-15041984D02*
X6189086Y-15041984D01*
X6189086Y-15041984D02*
X6208134Y-15051508D01*
X6208134Y-15051508D02*
X6217658Y-15061031D01*
X6217658Y-15061031D02*
X6227182Y-15080079D01*
X6227182Y-15080079D02*
X6236705Y-15118174D01*
X6236705Y-15118174D02*
X6236705Y-15165793D01*
X6236705Y-15165793D02*
X6227182Y-15203888D01*
X6227182Y-15203888D02*
X6217658Y-15222936D01*
X6217658Y-15222936D02*
X6208134Y-15232460D01*
X6208134Y-15232460D02*
X6189086Y-15241984D01*
X6189086Y-15241984D02*
X6170039Y-15241984D01*
X6170039Y-15241984D02*
X6150991Y-15232460D01*
X6150991Y-15232460D02*
X6141467Y-15222936D01*
X6141467Y-15222936D02*
X6131943Y-15203888D01*
X6131943Y-15203888D02*
X6122420Y-15165793D01*
X6122420Y-15165793D02*
X6122420Y-15118174D01*
X6122420Y-15118174D02*
X6131943Y-15080079D01*
X6131943Y-15080079D02*
X6141467Y-15061031D01*
X6141467Y-15061031D02*
X6150991Y-15051508D01*
X6150991Y-15051508D02*
X6170039Y-15041984D01*
X6322420Y-15241984D02*
X6322420Y-15108650D01*
X6322420Y-15127698D02*
X6331943Y-15118174D01*
X6331943Y-15118174D02*
X6350991Y-15108650D01*
X6350991Y-15108650D02*
X6379563Y-15108650D01*
X6379563Y-15108650D02*
X6398610Y-15118174D01*
X6398610Y-15118174D02*
X6408134Y-15137222D01*
X6408134Y-15137222D02*
X6408134Y-15241984D01*
X6408134Y-15137222D02*
X6417658Y-15118174D01*
X6417658Y-15118174D02*
X6436705Y-15108650D01*
X6436705Y-15108650D02*
X6465277Y-15108650D01*
X6465277Y-15108650D02*
X6484324Y-15118174D01*
X6484324Y-15118174D02*
X6493848Y-15137222D01*
X6493848Y-15137222D02*
X6493848Y-15241984D01*
X6589086Y-15241984D02*
X6589086Y-15108650D01*
X6589086Y-15127698D02*
X6598610Y-15118174D01*
X6598610Y-15118174D02*
X6617658Y-15108650D01*
X6617658Y-15108650D02*
X6646229Y-15108650D01*
X6646229Y-15108650D02*
X6665277Y-15118174D01*
X6665277Y-15118174D02*
X6674801Y-15137222D01*
X6674801Y-15137222D02*
X6674801Y-15241984D01*
X6674801Y-15137222D02*
X6684324Y-15118174D01*
X6684324Y-15118174D02*
X6703372Y-15108650D01*
X6703372Y-15108650D02*
X6731943Y-15108650D01*
X6731943Y-15108650D02*
X6750991Y-15118174D01*
X6750991Y-15118174D02*
X6760515Y-15137222D01*
X6760515Y-15137222D02*
X6760515Y-15241984D01*
X7150991Y-15032460D02*
X6979563Y-15289603D01*
X7408134Y-15041984D02*
X7427182Y-15041984D01*
X7427182Y-15041984D02*
X7446229Y-15051508D01*
X7446229Y-15051508D02*
X7455753Y-15061031D01*
X7455753Y-15061031D02*
X7465277Y-15080079D01*
X7465277Y-15080079D02*
X7474801Y-15118174D01*
X7474801Y-15118174D02*
X7474801Y-15165793D01*
X7474801Y-15165793D02*
X7465277Y-15203888D01*
X7465277Y-15203888D02*
X7455753Y-15222936D01*
X7455753Y-15222936D02*
X7446229Y-15232460D01*
X7446229Y-15232460D02*
X7427182Y-15241984D01*
X7427182Y-15241984D02*
X7408134Y-15241984D01*
X7408134Y-15241984D02*
X7389086Y-15232460D01*
X7389086Y-15232460D02*
X7379563Y-15222936D01*
X7379563Y-15222936D02*
X7370039Y-15203888D01*
X7370039Y-15203888D02*
X7360515Y-15165793D01*
X7360515Y-15165793D02*
X7360515Y-15118174D01*
X7360515Y-15118174D02*
X7370039Y-15080079D01*
X7370039Y-15080079D02*
X7379563Y-15061031D01*
X7379563Y-15061031D02*
X7389086Y-15051508D01*
X7389086Y-15051508D02*
X7408134Y-15041984D01*
X7560515Y-15222936D02*
X7570039Y-15232460D01*
X7570039Y-15232460D02*
X7560515Y-15241984D01*
X7560515Y-15241984D02*
X7550991Y-15232460D01*
X7550991Y-15232460D02*
X7560515Y-15222936D01*
X7560515Y-15222936D02*
X7560515Y-15241984D01*
X7693848Y-15041984D02*
X7712896Y-15041984D01*
X7712896Y-15041984D02*
X7731944Y-15051508D01*
X7731944Y-15051508D02*
X7741467Y-15061031D01*
X7741467Y-15061031D02*
X7750991Y-15080079D01*
X7750991Y-15080079D02*
X7760515Y-15118174D01*
X7760515Y-15118174D02*
X7760515Y-15165793D01*
X7760515Y-15165793D02*
X7750991Y-15203888D01*
X7750991Y-15203888D02*
X7741467Y-15222936D01*
X7741467Y-15222936D02*
X7731944Y-15232460D01*
X7731944Y-15232460D02*
X7712896Y-15241984D01*
X7712896Y-15241984D02*
X7693848Y-15241984D01*
X7693848Y-15241984D02*
X7674801Y-15232460D01*
X7674801Y-15232460D02*
X7665277Y-15222936D01*
X7665277Y-15222936D02*
X7655753Y-15203888D01*
X7655753Y-15203888D02*
X7646229Y-15165793D01*
X7646229Y-15165793D02*
X7646229Y-15118174D01*
X7646229Y-15118174D02*
X7655753Y-15080079D01*
X7655753Y-15080079D02*
X7665277Y-15061031D01*
X7665277Y-15061031D02*
X7674801Y-15051508D01*
X7674801Y-15051508D02*
X7693848Y-15041984D01*
X7827182Y-15041984D02*
X7960515Y-15041984D01*
X7960515Y-15041984D02*
X7874801Y-15241984D01*
X8065277Y-15127698D02*
X8046229Y-15118174D01*
X8046229Y-15118174D02*
X8036706Y-15108650D01*
X8036706Y-15108650D02*
X8027182Y-15089603D01*
X8027182Y-15089603D02*
X8027182Y-15080079D01*
X8027182Y-15080079D02*
X8036706Y-15061031D01*
X8036706Y-15061031D02*
X8046229Y-15051508D01*
X8046229Y-15051508D02*
X8065277Y-15041984D01*
X8065277Y-15041984D02*
X8103372Y-15041984D01*
X8103372Y-15041984D02*
X8122420Y-15051508D01*
X8122420Y-15051508D02*
X8131944Y-15061031D01*
X8131944Y-15061031D02*
X8141467Y-15080079D01*
X8141467Y-15080079D02*
X8141467Y-15089603D01*
X8141467Y-15089603D02*
X8131944Y-15108650D01*
X8131944Y-15108650D02*
X8122420Y-15118174D01*
X8122420Y-15118174D02*
X8103372Y-15127698D01*
X8103372Y-15127698D02*
X8065277Y-15127698D01*
X8065277Y-15127698D02*
X8046229Y-15137222D01*
X8046229Y-15137222D02*
X8036706Y-15146746D01*
X8036706Y-15146746D02*
X8027182Y-15165793D01*
X8027182Y-15165793D02*
X8027182Y-15203888D01*
X8027182Y-15203888D02*
X8036706Y-15222936D01*
X8036706Y-15222936D02*
X8046229Y-15232460D01*
X8046229Y-15232460D02*
X8065277Y-15241984D01*
X8065277Y-15241984D02*
X8103372Y-15241984D01*
X8103372Y-15241984D02*
X8122420Y-15232460D01*
X8122420Y-15232460D02*
X8131944Y-15222936D01*
X8131944Y-15222936D02*
X8141467Y-15203888D01*
X8141467Y-15203888D02*
X8141467Y-15165793D01*
X8141467Y-15165793D02*
X8131944Y-15146746D01*
X8131944Y-15146746D02*
X8122420Y-15137222D01*
X8122420Y-15137222D02*
X8103372Y-15127698D01*
X8208134Y-15041984D02*
X8341467Y-15041984D01*
X8341467Y-15041984D02*
X8255753Y-15241984D01*
X8408134Y-15041984D02*
X8408134Y-15080079D01*
X8484325Y-15041984D02*
X8484325Y-15080079D01*
X8779563Y-15318174D02*
X8770039Y-15308650D01*
X8770039Y-15308650D02*
X8750991Y-15280079D01*
X8750991Y-15280079D02*
X8741468Y-15261031D01*
X8741468Y-15261031D02*
X8731944Y-15232460D01*
X8731944Y-15232460D02*
X8722420Y-15184841D01*
X8722420Y-15184841D02*
X8722420Y-15146746D01*
X8722420Y-15146746D02*
X8731944Y-15099127D01*
X8731944Y-15099127D02*
X8741468Y-15070555D01*
X8741468Y-15070555D02*
X8750991Y-15051508D01*
X8750991Y-15051508D02*
X8770039Y-15022936D01*
X8770039Y-15022936D02*
X8779563Y-15013412D01*
X8893849Y-15041984D02*
X8912896Y-15041984D01*
X8912896Y-15041984D02*
X8931944Y-15051508D01*
X8931944Y-15051508D02*
X8941468Y-15061031D01*
X8941468Y-15061031D02*
X8950991Y-15080079D01*
X8950991Y-15080079D02*
X8960515Y-15118174D01*
X8960515Y-15118174D02*
X8960515Y-15165793D01*
X8960515Y-15165793D02*
X8950991Y-15203888D01*
X8950991Y-15203888D02*
X8941468Y-15222936D01*
X8941468Y-15222936D02*
X8931944Y-15232460D01*
X8931944Y-15232460D02*
X8912896Y-15241984D01*
X8912896Y-15241984D02*
X8893849Y-15241984D01*
X8893849Y-15241984D02*
X8874801Y-15232460D01*
X8874801Y-15232460D02*
X8865277Y-15222936D01*
X8865277Y-15222936D02*
X8855753Y-15203888D01*
X8855753Y-15203888D02*
X8846230Y-15165793D01*
X8846230Y-15165793D02*
X8846230Y-15118174D01*
X8846230Y-15118174D02*
X8855753Y-15080079D01*
X8855753Y-15080079D02*
X8865277Y-15061031D01*
X8865277Y-15061031D02*
X8874801Y-15051508D01*
X8874801Y-15051508D02*
X8893849Y-15041984D01*
X9198611Y-15241984D02*
X9198611Y-15041984D01*
X9284325Y-15241984D02*
X9284325Y-15137222D01*
X9284325Y-15137222D02*
X9274801Y-15118174D01*
X9274801Y-15118174D02*
X9255753Y-15108650D01*
X9255753Y-15108650D02*
X9227182Y-15108650D01*
X9227182Y-15108650D02*
X9208134Y-15118174D01*
X9208134Y-15118174D02*
X9198611Y-15127698D01*
X9408134Y-15241984D02*
X9389087Y-15232460D01*
X9389087Y-15232460D02*
X9379563Y-15222936D01*
X9379563Y-15222936D02*
X9370039Y-15203888D01*
X9370039Y-15203888D02*
X9370039Y-15146746D01*
X9370039Y-15146746D02*
X9379563Y-15127698D01*
X9379563Y-15127698D02*
X9389087Y-15118174D01*
X9389087Y-15118174D02*
X9408134Y-15108650D01*
X9408134Y-15108650D02*
X9436706Y-15108650D01*
X9436706Y-15108650D02*
X9455753Y-15118174D01*
X9455753Y-15118174D02*
X9465277Y-15127698D01*
X9465277Y-15127698D02*
X9474801Y-15146746D01*
X9474801Y-15146746D02*
X9474801Y-15203888D01*
X9474801Y-15203888D02*
X9465277Y-15222936D01*
X9465277Y-15222936D02*
X9455753Y-15232460D01*
X9455753Y-15232460D02*
X9436706Y-15241984D01*
X9436706Y-15241984D02*
X9408134Y-15241984D01*
X9589087Y-15241984D02*
X9570039Y-15232460D01*
X9570039Y-15232460D02*
X9560515Y-15213412D01*
X9560515Y-15213412D02*
X9560515Y-15041984D01*
X9741468Y-15232460D02*
X9722420Y-15241984D01*
X9722420Y-15241984D02*
X9684325Y-15241984D01*
X9684325Y-15241984D02*
X9665277Y-15232460D01*
X9665277Y-15232460D02*
X9655753Y-15213412D01*
X9655753Y-15213412D02*
X9655753Y-15137222D01*
X9655753Y-15137222D02*
X9665277Y-15118174D01*
X9665277Y-15118174D02*
X9684325Y-15108650D01*
X9684325Y-15108650D02*
X9722420Y-15108650D01*
X9722420Y-15108650D02*
X9741468Y-15118174D01*
X9741468Y-15118174D02*
X9750992Y-15137222D01*
X9750992Y-15137222D02*
X9750992Y-15156269D01*
X9750992Y-15156269D02*
X9655753Y-15175317D01*
X9827182Y-15232460D02*
X9846230Y-15241984D01*
X9846230Y-15241984D02*
X9884325Y-15241984D01*
X9884325Y-15241984D02*
X9903373Y-15232460D01*
X9903373Y-15232460D02*
X9912896Y-15213412D01*
X9912896Y-15213412D02*
X9912896Y-15203888D01*
X9912896Y-15203888D02*
X9903373Y-15184841D01*
X9903373Y-15184841D02*
X9884325Y-15175317D01*
X9884325Y-15175317D02*
X9855753Y-15175317D01*
X9855753Y-15175317D02*
X9836706Y-15165793D01*
X9836706Y-15165793D02*
X9827182Y-15146746D01*
X9827182Y-15146746D02*
X9827182Y-15137222D01*
X9827182Y-15137222D02*
X9836706Y-15118174D01*
X9836706Y-15118174D02*
X9855753Y-15108650D01*
X9855753Y-15108650D02*
X9884325Y-15108650D01*
X9884325Y-15108650D02*
X9903373Y-15118174D01*
X10150992Y-15165793D02*
X10303373Y-15165793D01*
X10227182Y-15241984D02*
X10227182Y-15089603D01*
X10541468Y-15061031D02*
X10550992Y-15051508D01*
X10550992Y-15051508D02*
X10570039Y-15041984D01*
X10570039Y-15041984D02*
X10617658Y-15041984D01*
X10617658Y-15041984D02*
X10636706Y-15051508D01*
X10636706Y-15051508D02*
X10646230Y-15061031D01*
X10646230Y-15061031D02*
X10655754Y-15080079D01*
X10655754Y-15080079D02*
X10655754Y-15099127D01*
X10655754Y-15099127D02*
X10646230Y-15127698D01*
X10646230Y-15127698D02*
X10531944Y-15241984D01*
X10531944Y-15241984D02*
X10655754Y-15241984D01*
X10884325Y-15232460D02*
X10903373Y-15241984D01*
X10903373Y-15241984D02*
X10941468Y-15241984D01*
X10941468Y-15241984D02*
X10960516Y-15232460D01*
X10960516Y-15232460D02*
X10970039Y-15213412D01*
X10970039Y-15213412D02*
X10970039Y-15203888D01*
X10970039Y-15203888D02*
X10960516Y-15184841D01*
X10960516Y-15184841D02*
X10941468Y-15175317D01*
X10941468Y-15175317D02*
X10912896Y-15175317D01*
X10912896Y-15175317D02*
X10893849Y-15165793D01*
X10893849Y-15165793D02*
X10884325Y-15146746D01*
X10884325Y-15146746D02*
X10884325Y-15137222D01*
X10884325Y-15137222D02*
X10893849Y-15118174D01*
X10893849Y-15118174D02*
X10912896Y-15108650D01*
X10912896Y-15108650D02*
X10941468Y-15108650D01*
X10941468Y-15108650D02*
X10960516Y-15118174D01*
X11084325Y-15241984D02*
X11065277Y-15232460D01*
X11065277Y-15232460D02*
X11055754Y-15213412D01*
X11055754Y-15213412D02*
X11055754Y-15041984D01*
X11189087Y-15241984D02*
X11170039Y-15232460D01*
X11170039Y-15232460D02*
X11160516Y-15222936D01*
X11160516Y-15222936D02*
X11150992Y-15203888D01*
X11150992Y-15203888D02*
X11150992Y-15146746D01*
X11150992Y-15146746D02*
X11160516Y-15127698D01*
X11160516Y-15127698D02*
X11170039Y-15118174D01*
X11170039Y-15118174D02*
X11189087Y-15108650D01*
X11189087Y-15108650D02*
X11217658Y-15108650D01*
X11217658Y-15108650D02*
X11236706Y-15118174D01*
X11236706Y-15118174D02*
X11246230Y-15127698D01*
X11246230Y-15127698D02*
X11255754Y-15146746D01*
X11255754Y-15146746D02*
X11255754Y-15203888D01*
X11255754Y-15203888D02*
X11246230Y-15222936D01*
X11246230Y-15222936D02*
X11236706Y-15232460D01*
X11236706Y-15232460D02*
X11217658Y-15241984D01*
X11217658Y-15241984D02*
X11189087Y-15241984D01*
X11312896Y-15108650D02*
X11389087Y-15108650D01*
X11341468Y-15041984D02*
X11341468Y-15213412D01*
X11341468Y-15213412D02*
X11350992Y-15232460D01*
X11350992Y-15232460D02*
X11370039Y-15241984D01*
X11370039Y-15241984D02*
X11389087Y-15241984D01*
X11446230Y-15232460D02*
X11465277Y-15241984D01*
X11465277Y-15241984D02*
X11503373Y-15241984D01*
X11503373Y-15241984D02*
X11522420Y-15232460D01*
X11522420Y-15232460D02*
X11531944Y-15213412D01*
X11531944Y-15213412D02*
X11531944Y-15203888D01*
X11531944Y-15203888D02*
X11522420Y-15184841D01*
X11522420Y-15184841D02*
X11503373Y-15175317D01*
X11503373Y-15175317D02*
X11474801Y-15175317D01*
X11474801Y-15175317D02*
X11455754Y-15165793D01*
X11455754Y-15165793D02*
X11446230Y-15146746D01*
X11446230Y-15146746D02*
X11446230Y-15137222D01*
X11446230Y-15137222D02*
X11455754Y-15118174D01*
X11455754Y-15118174D02*
X11474801Y-15108650D01*
X11474801Y-15108650D02*
X11503373Y-15108650D01*
X11503373Y-15108650D02*
X11522420Y-15118174D01*
X11598611Y-15318174D02*
X11608135Y-15308650D01*
X11608135Y-15308650D02*
X11627182Y-15280079D01*
X11627182Y-15280079D02*
X11636706Y-15261031D01*
X11636706Y-15261031D02*
X11646230Y-15232460D01*
X11646230Y-15232460D02*
X11655754Y-15184841D01*
X11655754Y-15184841D02*
X11655754Y-15146746D01*
X11655754Y-15146746D02*
X11646230Y-15099127D01*
X11646230Y-15099127D02*
X11636706Y-15070555D01*
X11636706Y-15070555D02*
X11627182Y-15051508D01*
X11627182Y-15051508D02*
X11608135Y-15022936D01*
X11608135Y-15022936D02*
X11598611Y-15013412D01*
X5104500Y-15570500D02*
X5204500Y-15470500D01*
X5104500Y-15370500D01*
X5004500Y-15470500D01*
X5104500Y-15570500D01*
X5455753Y-15381031D02*
X5465277Y-15371508D01*
X5465277Y-15371508D02*
X5484324Y-15361984D01*
X5484324Y-15361984D02*
X5531944Y-15361984D01*
X5531944Y-15361984D02*
X5550991Y-15371508D01*
X5550991Y-15371508D02*
X5560515Y-15381031D01*
X5560515Y-15381031D02*
X5570039Y-15400079D01*
X5570039Y-15400079D02*
X5570039Y-15419127D01*
X5570039Y-15419127D02*
X5560515Y-15447698D01*
X5560515Y-15447698D02*
X5446229Y-15561984D01*
X5446229Y-15561984D02*
X5570039Y-15561984D01*
X5655753Y-15542936D02*
X5665277Y-15552460D01*
X5665277Y-15552460D02*
X5655753Y-15561984D01*
X5655753Y-15561984D02*
X5646229Y-15552460D01*
X5646229Y-15552460D02*
X5655753Y-15542936D01*
X5655753Y-15542936D02*
X5655753Y-15561984D01*
X5846229Y-15361984D02*
X5750991Y-15361984D01*
X5750991Y-15361984D02*
X5741467Y-15457222D01*
X5741467Y-15457222D02*
X5750991Y-15447698D01*
X5750991Y-15447698D02*
X5770039Y-15438174D01*
X5770039Y-15438174D02*
X5817658Y-15438174D01*
X5817658Y-15438174D02*
X5836705Y-15447698D01*
X5836705Y-15447698D02*
X5846229Y-15457222D01*
X5846229Y-15457222D02*
X5855753Y-15476269D01*
X5855753Y-15476269D02*
X5855753Y-15523888D01*
X5855753Y-15523888D02*
X5846229Y-15542936D01*
X5846229Y-15542936D02*
X5836705Y-15552460D01*
X5836705Y-15552460D02*
X5817658Y-15561984D01*
X5817658Y-15561984D02*
X5770039Y-15561984D01*
X5770039Y-15561984D02*
X5750991Y-15552460D01*
X5750991Y-15552460D02*
X5741467Y-15542936D01*
X5979562Y-15361984D02*
X5998610Y-15361984D01*
X5998610Y-15361984D02*
X6017658Y-15371508D01*
X6017658Y-15371508D02*
X6027182Y-15381031D01*
X6027182Y-15381031D02*
X6036705Y-15400079D01*
X6036705Y-15400079D02*
X6046229Y-15438174D01*
X6046229Y-15438174D02*
X6046229Y-15485793D01*
X6046229Y-15485793D02*
X6036705Y-15523888D01*
X6036705Y-15523888D02*
X6027182Y-15542936D01*
X6027182Y-15542936D02*
X6017658Y-15552460D01*
X6017658Y-15552460D02*
X5998610Y-15561984D01*
X5998610Y-15561984D02*
X5979562Y-15561984D01*
X5979562Y-15561984D02*
X5960515Y-15552460D01*
X5960515Y-15552460D02*
X5950991Y-15542936D01*
X5950991Y-15542936D02*
X5941467Y-15523888D01*
X5941467Y-15523888D02*
X5931943Y-15485793D01*
X5931943Y-15485793D02*
X5931943Y-15438174D01*
X5931943Y-15438174D02*
X5941467Y-15400079D01*
X5941467Y-15400079D02*
X5950991Y-15381031D01*
X5950991Y-15381031D02*
X5960515Y-15371508D01*
X5960515Y-15371508D02*
X5979562Y-15361984D01*
X6170039Y-15361984D02*
X6189086Y-15361984D01*
X6189086Y-15361984D02*
X6208134Y-15371508D01*
X6208134Y-15371508D02*
X6217658Y-15381031D01*
X6217658Y-15381031D02*
X6227182Y-15400079D01*
X6227182Y-15400079D02*
X6236705Y-15438174D01*
X6236705Y-15438174D02*
X6236705Y-15485793D01*
X6236705Y-15485793D02*
X6227182Y-15523888D01*
X6227182Y-15523888D02*
X6217658Y-15542936D01*
X6217658Y-15542936D02*
X6208134Y-15552460D01*
X6208134Y-15552460D02*
X6189086Y-15561984D01*
X6189086Y-15561984D02*
X6170039Y-15561984D01*
X6170039Y-15561984D02*
X6150991Y-15552460D01*
X6150991Y-15552460D02*
X6141467Y-15542936D01*
X6141467Y-15542936D02*
X6131943Y-15523888D01*
X6131943Y-15523888D02*
X6122420Y-15485793D01*
X6122420Y-15485793D02*
X6122420Y-15438174D01*
X6122420Y-15438174D02*
X6131943Y-15400079D01*
X6131943Y-15400079D02*
X6141467Y-15381031D01*
X6141467Y-15381031D02*
X6150991Y-15371508D01*
X6150991Y-15371508D02*
X6170039Y-15361984D01*
X6322420Y-15561984D02*
X6322420Y-15428650D01*
X6322420Y-15447698D02*
X6331943Y-15438174D01*
X6331943Y-15438174D02*
X6350991Y-15428650D01*
X6350991Y-15428650D02*
X6379563Y-15428650D01*
X6379563Y-15428650D02*
X6398610Y-15438174D01*
X6398610Y-15438174D02*
X6408134Y-15457222D01*
X6408134Y-15457222D02*
X6408134Y-15561984D01*
X6408134Y-15457222D02*
X6417658Y-15438174D01*
X6417658Y-15438174D02*
X6436705Y-15428650D01*
X6436705Y-15428650D02*
X6465277Y-15428650D01*
X6465277Y-15428650D02*
X6484324Y-15438174D01*
X6484324Y-15438174D02*
X6493848Y-15457222D01*
X6493848Y-15457222D02*
X6493848Y-15561984D01*
X6589086Y-15561984D02*
X6589086Y-15428650D01*
X6589086Y-15447698D02*
X6598610Y-15438174D01*
X6598610Y-15438174D02*
X6617658Y-15428650D01*
X6617658Y-15428650D02*
X6646229Y-15428650D01*
X6646229Y-15428650D02*
X6665277Y-15438174D01*
X6665277Y-15438174D02*
X6674801Y-15457222D01*
X6674801Y-15457222D02*
X6674801Y-15561984D01*
X6674801Y-15457222D02*
X6684324Y-15438174D01*
X6684324Y-15438174D02*
X6703372Y-15428650D01*
X6703372Y-15428650D02*
X6731943Y-15428650D01*
X6731943Y-15428650D02*
X6750991Y-15438174D01*
X6750991Y-15438174D02*
X6760515Y-15457222D01*
X6760515Y-15457222D02*
X6760515Y-15561984D01*
X7150991Y-15352460D02*
X6979563Y-15609603D01*
X7408134Y-15361984D02*
X7427182Y-15361984D01*
X7427182Y-15361984D02*
X7446229Y-15371508D01*
X7446229Y-15371508D02*
X7455753Y-15381031D01*
X7455753Y-15381031D02*
X7465277Y-15400079D01*
X7465277Y-15400079D02*
X7474801Y-15438174D01*
X7474801Y-15438174D02*
X7474801Y-15485793D01*
X7474801Y-15485793D02*
X7465277Y-15523888D01*
X7465277Y-15523888D02*
X7455753Y-15542936D01*
X7455753Y-15542936D02*
X7446229Y-15552460D01*
X7446229Y-15552460D02*
X7427182Y-15561984D01*
X7427182Y-15561984D02*
X7408134Y-15561984D01*
X7408134Y-15561984D02*
X7389086Y-15552460D01*
X7389086Y-15552460D02*
X7379563Y-15542936D01*
X7379563Y-15542936D02*
X7370039Y-15523888D01*
X7370039Y-15523888D02*
X7360515Y-15485793D01*
X7360515Y-15485793D02*
X7360515Y-15438174D01*
X7360515Y-15438174D02*
X7370039Y-15400079D01*
X7370039Y-15400079D02*
X7379563Y-15381031D01*
X7379563Y-15381031D02*
X7389086Y-15371508D01*
X7389086Y-15371508D02*
X7408134Y-15361984D01*
X7560515Y-15542936D02*
X7570039Y-15552460D01*
X7570039Y-15552460D02*
X7560515Y-15561984D01*
X7560515Y-15561984D02*
X7550991Y-15552460D01*
X7550991Y-15552460D02*
X7560515Y-15542936D01*
X7560515Y-15542936D02*
X7560515Y-15561984D01*
X7693848Y-15361984D02*
X7712896Y-15361984D01*
X7712896Y-15361984D02*
X7731944Y-15371508D01*
X7731944Y-15371508D02*
X7741467Y-15381031D01*
X7741467Y-15381031D02*
X7750991Y-15400079D01*
X7750991Y-15400079D02*
X7760515Y-15438174D01*
X7760515Y-15438174D02*
X7760515Y-15485793D01*
X7760515Y-15485793D02*
X7750991Y-15523888D01*
X7750991Y-15523888D02*
X7741467Y-15542936D01*
X7741467Y-15542936D02*
X7731944Y-15552460D01*
X7731944Y-15552460D02*
X7712896Y-15561984D01*
X7712896Y-15561984D02*
X7693848Y-15561984D01*
X7693848Y-15561984D02*
X7674801Y-15552460D01*
X7674801Y-15552460D02*
X7665277Y-15542936D01*
X7665277Y-15542936D02*
X7655753Y-15523888D01*
X7655753Y-15523888D02*
X7646229Y-15485793D01*
X7646229Y-15485793D02*
X7646229Y-15438174D01*
X7646229Y-15438174D02*
X7655753Y-15400079D01*
X7655753Y-15400079D02*
X7665277Y-15381031D01*
X7665277Y-15381031D02*
X7674801Y-15371508D01*
X7674801Y-15371508D02*
X7693848Y-15361984D01*
X7855753Y-15561984D02*
X7893848Y-15561984D01*
X7893848Y-15561984D02*
X7912896Y-15552460D01*
X7912896Y-15552460D02*
X7922420Y-15542936D01*
X7922420Y-15542936D02*
X7941467Y-15514365D01*
X7941467Y-15514365D02*
X7950991Y-15476269D01*
X7950991Y-15476269D02*
X7950991Y-15400079D01*
X7950991Y-15400079D02*
X7941467Y-15381031D01*
X7941467Y-15381031D02*
X7931944Y-15371508D01*
X7931944Y-15371508D02*
X7912896Y-15361984D01*
X7912896Y-15361984D02*
X7874801Y-15361984D01*
X7874801Y-15361984D02*
X7855753Y-15371508D01*
X7855753Y-15371508D02*
X7846229Y-15381031D01*
X7846229Y-15381031D02*
X7836706Y-15400079D01*
X7836706Y-15400079D02*
X7836706Y-15447698D01*
X7836706Y-15447698D02*
X7846229Y-15466746D01*
X7846229Y-15466746D02*
X7855753Y-15476269D01*
X7855753Y-15476269D02*
X7874801Y-15485793D01*
X7874801Y-15485793D02*
X7912896Y-15485793D01*
X7912896Y-15485793D02*
X7931944Y-15476269D01*
X7931944Y-15476269D02*
X7941467Y-15466746D01*
X7941467Y-15466746D02*
X7950991Y-15447698D01*
X8065277Y-15447698D02*
X8046229Y-15438174D01*
X8046229Y-15438174D02*
X8036706Y-15428650D01*
X8036706Y-15428650D02*
X8027182Y-15409603D01*
X8027182Y-15409603D02*
X8027182Y-15400079D01*
X8027182Y-15400079D02*
X8036706Y-15381031D01*
X8036706Y-15381031D02*
X8046229Y-15371508D01*
X8046229Y-15371508D02*
X8065277Y-15361984D01*
X8065277Y-15361984D02*
X8103372Y-15361984D01*
X8103372Y-15361984D02*
X8122420Y-15371508D01*
X8122420Y-15371508D02*
X8131944Y-15381031D01*
X8131944Y-15381031D02*
X8141467Y-15400079D01*
X8141467Y-15400079D02*
X8141467Y-15409603D01*
X8141467Y-15409603D02*
X8131944Y-15428650D01*
X8131944Y-15428650D02*
X8122420Y-15438174D01*
X8122420Y-15438174D02*
X8103372Y-15447698D01*
X8103372Y-15447698D02*
X8065277Y-15447698D01*
X8065277Y-15447698D02*
X8046229Y-15457222D01*
X8046229Y-15457222D02*
X8036706Y-15466746D01*
X8036706Y-15466746D02*
X8027182Y-15485793D01*
X8027182Y-15485793D02*
X8027182Y-15523888D01*
X8027182Y-15523888D02*
X8036706Y-15542936D01*
X8036706Y-15542936D02*
X8046229Y-15552460D01*
X8046229Y-15552460D02*
X8065277Y-15561984D01*
X8065277Y-15561984D02*
X8103372Y-15561984D01*
X8103372Y-15561984D02*
X8122420Y-15552460D01*
X8122420Y-15552460D02*
X8131944Y-15542936D01*
X8131944Y-15542936D02*
X8141467Y-15523888D01*
X8141467Y-15523888D02*
X8141467Y-15485793D01*
X8141467Y-15485793D02*
X8131944Y-15466746D01*
X8131944Y-15466746D02*
X8122420Y-15457222D01*
X8122420Y-15457222D02*
X8103372Y-15447698D01*
X8312896Y-15428650D02*
X8312896Y-15561984D01*
X8265277Y-15352460D02*
X8217658Y-15495317D01*
X8217658Y-15495317D02*
X8341467Y-15495317D01*
X8408134Y-15361984D02*
X8408134Y-15400079D01*
X8484325Y-15361984D02*
X8484325Y-15400079D01*
X8779563Y-15638174D02*
X8770039Y-15628650D01*
X8770039Y-15628650D02*
X8750991Y-15600079D01*
X8750991Y-15600079D02*
X8741468Y-15581031D01*
X8741468Y-15581031D02*
X8731944Y-15552460D01*
X8731944Y-15552460D02*
X8722420Y-15504841D01*
X8722420Y-15504841D02*
X8722420Y-15466746D01*
X8722420Y-15466746D02*
X8731944Y-15419127D01*
X8731944Y-15419127D02*
X8741468Y-15390555D01*
X8741468Y-15390555D02*
X8750991Y-15371508D01*
X8750991Y-15371508D02*
X8770039Y-15342936D01*
X8770039Y-15342936D02*
X8779563Y-15333412D01*
X8846230Y-15381031D02*
X8855753Y-15371508D01*
X8855753Y-15371508D02*
X8874801Y-15361984D01*
X8874801Y-15361984D02*
X8922420Y-15361984D01*
X8922420Y-15361984D02*
X8941468Y-15371508D01*
X8941468Y-15371508D02*
X8950991Y-15381031D01*
X8950991Y-15381031D02*
X8960515Y-15400079D01*
X8960515Y-15400079D02*
X8960515Y-15419127D01*
X8960515Y-15419127D02*
X8950991Y-15447698D01*
X8950991Y-15447698D02*
X8836706Y-15561984D01*
X8836706Y-15561984D02*
X8960515Y-15561984D01*
X9198611Y-15561984D02*
X9198611Y-15361984D01*
X9284325Y-15561984D02*
X9284325Y-15457222D01*
X9284325Y-15457222D02*
X9274801Y-15438174D01*
X9274801Y-15438174D02*
X9255753Y-15428650D01*
X9255753Y-15428650D02*
X9227182Y-15428650D01*
X9227182Y-15428650D02*
X9208134Y-15438174D01*
X9208134Y-15438174D02*
X9198611Y-15447698D01*
X9408134Y-15561984D02*
X9389087Y-15552460D01*
X9389087Y-15552460D02*
X9379563Y-15542936D01*
X9379563Y-15542936D02*
X9370039Y-15523888D01*
X9370039Y-15523888D02*
X9370039Y-15466746D01*
X9370039Y-15466746D02*
X9379563Y-15447698D01*
X9379563Y-15447698D02*
X9389087Y-15438174D01*
X9389087Y-15438174D02*
X9408134Y-15428650D01*
X9408134Y-15428650D02*
X9436706Y-15428650D01*
X9436706Y-15428650D02*
X9455753Y-15438174D01*
X9455753Y-15438174D02*
X9465277Y-15447698D01*
X9465277Y-15447698D02*
X9474801Y-15466746D01*
X9474801Y-15466746D02*
X9474801Y-15523888D01*
X9474801Y-15523888D02*
X9465277Y-15542936D01*
X9465277Y-15542936D02*
X9455753Y-15552460D01*
X9455753Y-15552460D02*
X9436706Y-15561984D01*
X9436706Y-15561984D02*
X9408134Y-15561984D01*
X9589087Y-15561984D02*
X9570039Y-15552460D01*
X9570039Y-15552460D02*
X9560515Y-15533412D01*
X9560515Y-15533412D02*
X9560515Y-15361984D01*
X9741468Y-15552460D02*
X9722420Y-15561984D01*
X9722420Y-15561984D02*
X9684325Y-15561984D01*
X9684325Y-15561984D02*
X9665277Y-15552460D01*
X9665277Y-15552460D02*
X9655753Y-15533412D01*
X9655753Y-15533412D02*
X9655753Y-15457222D01*
X9655753Y-15457222D02*
X9665277Y-15438174D01*
X9665277Y-15438174D02*
X9684325Y-15428650D01*
X9684325Y-15428650D02*
X9722420Y-15428650D01*
X9722420Y-15428650D02*
X9741468Y-15438174D01*
X9741468Y-15438174D02*
X9750992Y-15457222D01*
X9750992Y-15457222D02*
X9750992Y-15476269D01*
X9750992Y-15476269D02*
X9655753Y-15495317D01*
X9827182Y-15552460D02*
X9846230Y-15561984D01*
X9846230Y-15561984D02*
X9884325Y-15561984D01*
X9884325Y-15561984D02*
X9903373Y-15552460D01*
X9903373Y-15552460D02*
X9912896Y-15533412D01*
X9912896Y-15533412D02*
X9912896Y-15523888D01*
X9912896Y-15523888D02*
X9903373Y-15504841D01*
X9903373Y-15504841D02*
X9884325Y-15495317D01*
X9884325Y-15495317D02*
X9855753Y-15495317D01*
X9855753Y-15495317D02*
X9836706Y-15485793D01*
X9836706Y-15485793D02*
X9827182Y-15466746D01*
X9827182Y-15466746D02*
X9827182Y-15457222D01*
X9827182Y-15457222D02*
X9836706Y-15438174D01*
X9836706Y-15438174D02*
X9855753Y-15428650D01*
X9855753Y-15428650D02*
X9884325Y-15428650D01*
X9884325Y-15428650D02*
X9903373Y-15438174D01*
X9979563Y-15638174D02*
X9989087Y-15628650D01*
X9989087Y-15628650D02*
X10008134Y-15600079D01*
X10008134Y-15600079D02*
X10017658Y-15581031D01*
X10017658Y-15581031D02*
X10027182Y-15552460D01*
X10027182Y-15552460D02*
X10036706Y-15504841D01*
X10036706Y-15504841D02*
X10036706Y-15466746D01*
X10036706Y-15466746D02*
X10027182Y-15419127D01*
X10027182Y-15419127D02*
X10017658Y-15390555D01*
X10017658Y-15390555D02*
X10008134Y-15371508D01*
X10008134Y-15371508D02*
X9989087Y-15342936D01*
X9989087Y-15342936D02*
X9979563Y-15333412D01*
X5004500Y-15690500D02*
X5204500Y-15890500D01*
X5204500Y-15690500D02*
X5004500Y-15890500D01*
X5204500Y-15790500D02*
G75*
G02*
X5004500Y-15790500I-100000J0D01*
G01*
X5004500Y-15790500D02*
G75*
G02*
X5204500Y-15790500I100000J0D01*
G01*
X5446229Y-15681984D02*
X5570039Y-15681984D01*
X5570039Y-15681984D02*
X5503372Y-15758174D01*
X5503372Y-15758174D02*
X5531944Y-15758174D01*
X5531944Y-15758174D02*
X5550991Y-15767698D01*
X5550991Y-15767698D02*
X5560515Y-15777222D01*
X5560515Y-15777222D02*
X5570039Y-15796269D01*
X5570039Y-15796269D02*
X5570039Y-15843888D01*
X5570039Y-15843888D02*
X5560515Y-15862936D01*
X5560515Y-15862936D02*
X5550991Y-15872460D01*
X5550991Y-15872460D02*
X5531944Y-15881984D01*
X5531944Y-15881984D02*
X5474801Y-15881984D01*
X5474801Y-15881984D02*
X5455753Y-15872460D01*
X5455753Y-15872460D02*
X5446229Y-15862936D01*
X5655753Y-15862936D02*
X5665277Y-15872460D01*
X5665277Y-15872460D02*
X5655753Y-15881984D01*
X5655753Y-15881984D02*
X5646229Y-15872460D01*
X5646229Y-15872460D02*
X5655753Y-15862936D01*
X5655753Y-15862936D02*
X5655753Y-15881984D01*
X5789086Y-15681984D02*
X5808134Y-15681984D01*
X5808134Y-15681984D02*
X5827182Y-15691508D01*
X5827182Y-15691508D02*
X5836705Y-15701031D01*
X5836705Y-15701031D02*
X5846229Y-15720079D01*
X5846229Y-15720079D02*
X5855753Y-15758174D01*
X5855753Y-15758174D02*
X5855753Y-15805793D01*
X5855753Y-15805793D02*
X5846229Y-15843888D01*
X5846229Y-15843888D02*
X5836705Y-15862936D01*
X5836705Y-15862936D02*
X5827182Y-15872460D01*
X5827182Y-15872460D02*
X5808134Y-15881984D01*
X5808134Y-15881984D02*
X5789086Y-15881984D01*
X5789086Y-15881984D02*
X5770039Y-15872460D01*
X5770039Y-15872460D02*
X5760515Y-15862936D01*
X5760515Y-15862936D02*
X5750991Y-15843888D01*
X5750991Y-15843888D02*
X5741467Y-15805793D01*
X5741467Y-15805793D02*
X5741467Y-15758174D01*
X5741467Y-15758174D02*
X5750991Y-15720079D01*
X5750991Y-15720079D02*
X5760515Y-15701031D01*
X5760515Y-15701031D02*
X5770039Y-15691508D01*
X5770039Y-15691508D02*
X5789086Y-15681984D01*
X5979562Y-15681984D02*
X5998610Y-15681984D01*
X5998610Y-15681984D02*
X6017658Y-15691508D01*
X6017658Y-15691508D02*
X6027182Y-15701031D01*
X6027182Y-15701031D02*
X6036705Y-15720079D01*
X6036705Y-15720079D02*
X6046229Y-15758174D01*
X6046229Y-15758174D02*
X6046229Y-15805793D01*
X6046229Y-15805793D02*
X6036705Y-15843888D01*
X6036705Y-15843888D02*
X6027182Y-15862936D01*
X6027182Y-15862936D02*
X6017658Y-15872460D01*
X6017658Y-15872460D02*
X5998610Y-15881984D01*
X5998610Y-15881984D02*
X5979562Y-15881984D01*
X5979562Y-15881984D02*
X5960515Y-15872460D01*
X5960515Y-15872460D02*
X5950991Y-15862936D01*
X5950991Y-15862936D02*
X5941467Y-15843888D01*
X5941467Y-15843888D02*
X5931943Y-15805793D01*
X5931943Y-15805793D02*
X5931943Y-15758174D01*
X5931943Y-15758174D02*
X5941467Y-15720079D01*
X5941467Y-15720079D02*
X5950991Y-15701031D01*
X5950991Y-15701031D02*
X5960515Y-15691508D01*
X5960515Y-15691508D02*
X5979562Y-15681984D01*
X6170039Y-15681984D02*
X6189086Y-15681984D01*
X6189086Y-15681984D02*
X6208134Y-15691508D01*
X6208134Y-15691508D02*
X6217658Y-15701031D01*
X6217658Y-15701031D02*
X6227182Y-15720079D01*
X6227182Y-15720079D02*
X6236705Y-15758174D01*
X6236705Y-15758174D02*
X6236705Y-15805793D01*
X6236705Y-15805793D02*
X6227182Y-15843888D01*
X6227182Y-15843888D02*
X6217658Y-15862936D01*
X6217658Y-15862936D02*
X6208134Y-15872460D01*
X6208134Y-15872460D02*
X6189086Y-15881984D01*
X6189086Y-15881984D02*
X6170039Y-15881984D01*
X6170039Y-15881984D02*
X6150991Y-15872460D01*
X6150991Y-15872460D02*
X6141467Y-15862936D01*
X6141467Y-15862936D02*
X6131943Y-15843888D01*
X6131943Y-15843888D02*
X6122420Y-15805793D01*
X6122420Y-15805793D02*
X6122420Y-15758174D01*
X6122420Y-15758174D02*
X6131943Y-15720079D01*
X6131943Y-15720079D02*
X6141467Y-15701031D01*
X6141467Y-15701031D02*
X6150991Y-15691508D01*
X6150991Y-15691508D02*
X6170039Y-15681984D01*
X6322420Y-15881984D02*
X6322420Y-15748650D01*
X6322420Y-15767698D02*
X6331943Y-15758174D01*
X6331943Y-15758174D02*
X6350991Y-15748650D01*
X6350991Y-15748650D02*
X6379563Y-15748650D01*
X6379563Y-15748650D02*
X6398610Y-15758174D01*
X6398610Y-15758174D02*
X6408134Y-15777222D01*
X6408134Y-15777222D02*
X6408134Y-15881984D01*
X6408134Y-15777222D02*
X6417658Y-15758174D01*
X6417658Y-15758174D02*
X6436705Y-15748650D01*
X6436705Y-15748650D02*
X6465277Y-15748650D01*
X6465277Y-15748650D02*
X6484324Y-15758174D01*
X6484324Y-15758174D02*
X6493848Y-15777222D01*
X6493848Y-15777222D02*
X6493848Y-15881984D01*
X6589086Y-15881984D02*
X6589086Y-15748650D01*
X6589086Y-15767698D02*
X6598610Y-15758174D01*
X6598610Y-15758174D02*
X6617658Y-15748650D01*
X6617658Y-15748650D02*
X6646229Y-15748650D01*
X6646229Y-15748650D02*
X6665277Y-15758174D01*
X6665277Y-15758174D02*
X6674801Y-15777222D01*
X6674801Y-15777222D02*
X6674801Y-15881984D01*
X6674801Y-15777222D02*
X6684324Y-15758174D01*
X6684324Y-15758174D02*
X6703372Y-15748650D01*
X6703372Y-15748650D02*
X6731943Y-15748650D01*
X6731943Y-15748650D02*
X6750991Y-15758174D01*
X6750991Y-15758174D02*
X6760515Y-15777222D01*
X6760515Y-15777222D02*
X6760515Y-15881984D01*
X7150991Y-15672460D02*
X6979563Y-15929603D01*
X7408134Y-15681984D02*
X7427182Y-15681984D01*
X7427182Y-15681984D02*
X7446229Y-15691508D01*
X7446229Y-15691508D02*
X7455753Y-15701031D01*
X7455753Y-15701031D02*
X7465277Y-15720079D01*
X7465277Y-15720079D02*
X7474801Y-15758174D01*
X7474801Y-15758174D02*
X7474801Y-15805793D01*
X7474801Y-15805793D02*
X7465277Y-15843888D01*
X7465277Y-15843888D02*
X7455753Y-15862936D01*
X7455753Y-15862936D02*
X7446229Y-15872460D01*
X7446229Y-15872460D02*
X7427182Y-15881984D01*
X7427182Y-15881984D02*
X7408134Y-15881984D01*
X7408134Y-15881984D02*
X7389086Y-15872460D01*
X7389086Y-15872460D02*
X7379563Y-15862936D01*
X7379563Y-15862936D02*
X7370039Y-15843888D01*
X7370039Y-15843888D02*
X7360515Y-15805793D01*
X7360515Y-15805793D02*
X7360515Y-15758174D01*
X7360515Y-15758174D02*
X7370039Y-15720079D01*
X7370039Y-15720079D02*
X7379563Y-15701031D01*
X7379563Y-15701031D02*
X7389086Y-15691508D01*
X7389086Y-15691508D02*
X7408134Y-15681984D01*
X7560515Y-15862936D02*
X7570039Y-15872460D01*
X7570039Y-15872460D02*
X7560515Y-15881984D01*
X7560515Y-15881984D02*
X7550991Y-15872460D01*
X7550991Y-15872460D02*
X7560515Y-15862936D01*
X7560515Y-15862936D02*
X7560515Y-15881984D01*
X7760515Y-15881984D02*
X7646229Y-15881984D01*
X7703372Y-15881984D02*
X7703372Y-15681984D01*
X7703372Y-15681984D02*
X7684325Y-15710555D01*
X7684325Y-15710555D02*
X7665277Y-15729603D01*
X7665277Y-15729603D02*
X7646229Y-15739127D01*
X7950991Y-15881984D02*
X7836706Y-15881984D01*
X7893848Y-15881984D02*
X7893848Y-15681984D01*
X7893848Y-15681984D02*
X7874801Y-15710555D01*
X7874801Y-15710555D02*
X7855753Y-15729603D01*
X7855753Y-15729603D02*
X7836706Y-15739127D01*
X8065277Y-15767698D02*
X8046229Y-15758174D01*
X8046229Y-15758174D02*
X8036706Y-15748650D01*
X8036706Y-15748650D02*
X8027182Y-15729603D01*
X8027182Y-15729603D02*
X8027182Y-15720079D01*
X8027182Y-15720079D02*
X8036706Y-15701031D01*
X8036706Y-15701031D02*
X8046229Y-15691508D01*
X8046229Y-15691508D02*
X8065277Y-15681984D01*
X8065277Y-15681984D02*
X8103372Y-15681984D01*
X8103372Y-15681984D02*
X8122420Y-15691508D01*
X8122420Y-15691508D02*
X8131944Y-15701031D01*
X8131944Y-15701031D02*
X8141467Y-15720079D01*
X8141467Y-15720079D02*
X8141467Y-15729603D01*
X8141467Y-15729603D02*
X8131944Y-15748650D01*
X8131944Y-15748650D02*
X8122420Y-15758174D01*
X8122420Y-15758174D02*
X8103372Y-15767698D01*
X8103372Y-15767698D02*
X8065277Y-15767698D01*
X8065277Y-15767698D02*
X8046229Y-15777222D01*
X8046229Y-15777222D02*
X8036706Y-15786746D01*
X8036706Y-15786746D02*
X8027182Y-15805793D01*
X8027182Y-15805793D02*
X8027182Y-15843888D01*
X8027182Y-15843888D02*
X8036706Y-15862936D01*
X8036706Y-15862936D02*
X8046229Y-15872460D01*
X8046229Y-15872460D02*
X8065277Y-15881984D01*
X8065277Y-15881984D02*
X8103372Y-15881984D01*
X8103372Y-15881984D02*
X8122420Y-15872460D01*
X8122420Y-15872460D02*
X8131944Y-15862936D01*
X8131944Y-15862936D02*
X8141467Y-15843888D01*
X8141467Y-15843888D02*
X8141467Y-15805793D01*
X8141467Y-15805793D02*
X8131944Y-15786746D01*
X8131944Y-15786746D02*
X8122420Y-15777222D01*
X8122420Y-15777222D02*
X8103372Y-15767698D01*
X8331944Y-15881984D02*
X8217658Y-15881984D01*
X8274801Y-15881984D02*
X8274801Y-15681984D01*
X8274801Y-15681984D02*
X8255753Y-15710555D01*
X8255753Y-15710555D02*
X8236706Y-15729603D01*
X8236706Y-15729603D02*
X8217658Y-15739127D01*
X8408134Y-15681984D02*
X8408134Y-15720079D01*
X8484325Y-15681984D02*
X8484325Y-15720079D01*
X8779563Y-15958174D02*
X8770039Y-15948650D01*
X8770039Y-15948650D02*
X8750991Y-15920079D01*
X8750991Y-15920079D02*
X8741468Y-15901031D01*
X8741468Y-15901031D02*
X8731944Y-15872460D01*
X8731944Y-15872460D02*
X8722420Y-15824841D01*
X8722420Y-15824841D02*
X8722420Y-15786746D01*
X8722420Y-15786746D02*
X8731944Y-15739127D01*
X8731944Y-15739127D02*
X8741468Y-15710555D01*
X8741468Y-15710555D02*
X8750991Y-15691508D01*
X8750991Y-15691508D02*
X8770039Y-15662936D01*
X8770039Y-15662936D02*
X8779563Y-15653412D01*
X8941468Y-15748650D02*
X8941468Y-15881984D01*
X8893849Y-15672460D02*
X8846230Y-15815317D01*
X8846230Y-15815317D02*
X8970039Y-15815317D01*
X9198611Y-15881984D02*
X9198611Y-15681984D01*
X9284325Y-15881984D02*
X9284325Y-15777222D01*
X9284325Y-15777222D02*
X9274801Y-15758174D01*
X9274801Y-15758174D02*
X9255753Y-15748650D01*
X9255753Y-15748650D02*
X9227182Y-15748650D01*
X9227182Y-15748650D02*
X9208134Y-15758174D01*
X9208134Y-15758174D02*
X9198611Y-15767698D01*
X9408134Y-15881984D02*
X9389087Y-15872460D01*
X9389087Y-15872460D02*
X9379563Y-15862936D01*
X9379563Y-15862936D02*
X9370039Y-15843888D01*
X9370039Y-15843888D02*
X9370039Y-15786746D01*
X9370039Y-15786746D02*
X9379563Y-15767698D01*
X9379563Y-15767698D02*
X9389087Y-15758174D01*
X9389087Y-15758174D02*
X9408134Y-15748650D01*
X9408134Y-15748650D02*
X9436706Y-15748650D01*
X9436706Y-15748650D02*
X9455753Y-15758174D01*
X9455753Y-15758174D02*
X9465277Y-15767698D01*
X9465277Y-15767698D02*
X9474801Y-15786746D01*
X9474801Y-15786746D02*
X9474801Y-15843888D01*
X9474801Y-15843888D02*
X9465277Y-15862936D01*
X9465277Y-15862936D02*
X9455753Y-15872460D01*
X9455753Y-15872460D02*
X9436706Y-15881984D01*
X9436706Y-15881984D02*
X9408134Y-15881984D01*
X9589087Y-15881984D02*
X9570039Y-15872460D01*
X9570039Y-15872460D02*
X9560515Y-15853412D01*
X9560515Y-15853412D02*
X9560515Y-15681984D01*
X9741468Y-15872460D02*
X9722420Y-15881984D01*
X9722420Y-15881984D02*
X9684325Y-15881984D01*
X9684325Y-15881984D02*
X9665277Y-15872460D01*
X9665277Y-15872460D02*
X9655753Y-15853412D01*
X9655753Y-15853412D02*
X9655753Y-15777222D01*
X9655753Y-15777222D02*
X9665277Y-15758174D01*
X9665277Y-15758174D02*
X9684325Y-15748650D01*
X9684325Y-15748650D02*
X9722420Y-15748650D01*
X9722420Y-15748650D02*
X9741468Y-15758174D01*
X9741468Y-15758174D02*
X9750992Y-15777222D01*
X9750992Y-15777222D02*
X9750992Y-15796269D01*
X9750992Y-15796269D02*
X9655753Y-15815317D01*
X9827182Y-15872460D02*
X9846230Y-15881984D01*
X9846230Y-15881984D02*
X9884325Y-15881984D01*
X9884325Y-15881984D02*
X9903373Y-15872460D01*
X9903373Y-15872460D02*
X9912896Y-15853412D01*
X9912896Y-15853412D02*
X9912896Y-15843888D01*
X9912896Y-15843888D02*
X9903373Y-15824841D01*
X9903373Y-15824841D02*
X9884325Y-15815317D01*
X9884325Y-15815317D02*
X9855753Y-15815317D01*
X9855753Y-15815317D02*
X9836706Y-15805793D01*
X9836706Y-15805793D02*
X9827182Y-15786746D01*
X9827182Y-15786746D02*
X9827182Y-15777222D01*
X9827182Y-15777222D02*
X9836706Y-15758174D01*
X9836706Y-15758174D02*
X9855753Y-15748650D01*
X9855753Y-15748650D02*
X9884325Y-15748650D01*
X9884325Y-15748650D02*
X9903373Y-15758174D01*
X9979563Y-15958174D02*
X9989087Y-15948650D01*
X9989087Y-15948650D02*
X10008134Y-15920079D01*
X10008134Y-15920079D02*
X10017658Y-15901031D01*
X10017658Y-15901031D02*
X10027182Y-15872460D01*
X10027182Y-15872460D02*
X10036706Y-15824841D01*
X10036706Y-15824841D02*
X10036706Y-15786746D01*
X10036706Y-15786746D02*
X10027182Y-15739127D01*
X10027182Y-15739127D02*
X10017658Y-15710555D01*
X10017658Y-15710555D02*
X10008134Y-15691508D01*
X10008134Y-15691508D02*
X9989087Y-15662936D01*
X9989087Y-15662936D02*
X9979563Y-15653412D01*
M02*
