G04 #@! TF.GenerationSoftware,KiCad,Pcbnew,8.0.1*
G04 #@! TF.CreationDate,2024-04-15T20:06:31-07:00*
G04 #@! TF.ProjectId,Control,436f6e74-726f-46c2-9e6b-696361645f70,2.0*
G04 #@! TF.SameCoordinates,Original*
G04 #@! TF.FileFunction,Soldermask,Top*
G04 #@! TF.FilePolarity,Negative*
%FSLAX46Y46*%
G04 Gerber Fmt 4.6, Leading zero omitted, Abs format (unit mm)*
G04 Created by KiCad (PCBNEW 8.0.1) date 2024-04-15 20:06:31*
%MOMM*%
%LPD*%
G01*
G04 APERTURE LIST*
G04 Aperture macros list*
%AMRoundRect*
0 Rectangle with rounded corners*
0 $1 Rounding radius*
0 $2 $3 $4 $5 $6 $7 $8 $9 X,Y pos of 4 corners*
0 Add a 4 corners polygon primitive as box body*
4,1,4,$2,$3,$4,$5,$6,$7,$8,$9,$2,$3,0*
0 Add four circle primitives for the rounded corners*
1,1,$1+$1,$2,$3*
1,1,$1+$1,$4,$5*
1,1,$1+$1,$6,$7*
1,1,$1+$1,$8,$9*
0 Add four rect primitives between the rounded corners*
20,1,$1+$1,$2,$3,$4,$5,0*
20,1,$1+$1,$4,$5,$6,$7,0*
20,1,$1+$1,$6,$7,$8,$9,0*
20,1,$1+$1,$8,$9,$2,$3,0*%
G04 Aperture macros list end*
%ADD10RoundRect,0.250000X-0.600000X0.600000X-0.600000X-0.600000X0.600000X-0.600000X0.600000X0.600000X0*%
%ADD11C,1.700000*%
%ADD12R,1.700000X1.700000*%
%ADD13O,1.700000X1.700000*%
%ADD14RoundRect,0.250000X-0.650000X0.325000X-0.650000X-0.325000X0.650000X-0.325000X0.650000X0.325000X0*%
%ADD15RoundRect,0.375000X-0.625000X0.375000X-0.625000X-0.375000X0.625000X-0.375000X0.625000X0.375000X0*%
%ADD16C,4.000000*%
%ADD17RoundRect,0.250000X-0.262500X-0.450000X0.262500X-0.450000X0.262500X0.450000X-0.262500X0.450000X0*%
%ADD18R,0.400000X1.200000*%
%ADD19RoundRect,0.150000X0.512500X0.150000X-0.512500X0.150000X-0.512500X-0.150000X0.512500X-0.150000X0*%
%ADD20RoundRect,0.250000X0.250000X0.475000X-0.250000X0.475000X-0.250000X-0.475000X0.250000X-0.475000X0*%
%ADD21C,0.800000*%
%ADD22C,6.000000*%
%ADD23RoundRect,0.250000X-0.250000X-0.475000X0.250000X-0.475000X0.250000X0.475000X-0.250000X0.475000X0*%
%ADD24RoundRect,0.250000X-0.325000X-0.650000X0.325000X-0.650000X0.325000X0.650000X-0.325000X0.650000X0*%
%ADD25RoundRect,0.250000X0.262500X0.450000X-0.262500X0.450000X-0.262500X-0.450000X0.262500X-0.450000X0*%
%ADD26RoundRect,0.250000X0.475000X-0.250000X0.475000X0.250000X-0.475000X0.250000X-0.475000X-0.250000X0*%
%ADD27RoundRect,0.075000X-0.075000X0.662500X-0.075000X-0.662500X0.075000X-0.662500X0.075000X0.662500X0*%
%ADD28RoundRect,0.075000X-0.662500X0.075000X-0.662500X-0.075000X0.662500X-0.075000X0.662500X0.075000X0*%
%ADD29RoundRect,0.250000X-0.475000X0.250000X-0.475000X-0.250000X0.475000X-0.250000X0.475000X0.250000X0*%
%ADD30O,4.000000X7.000000*%
%ADD31C,3.000000*%
%ADD32C,2.000000*%
%ADD33R,2.000000X2.000000*%
G04 APERTURE END LIST*
D10*
G04 #@! TO.C,MCU1*
X205740000Y-68580000D03*
D11*
X205740000Y-71120000D03*
X203200000Y-68580000D03*
X203200000Y-71120000D03*
X200660000Y-68580000D03*
X200660000Y-71120000D03*
X198120000Y-68580000D03*
X198120000Y-71120000D03*
X195580000Y-68580000D03*
X195580000Y-71120000D03*
X193040000Y-68580000D03*
X193040000Y-71120000D03*
X190500000Y-68580000D03*
X190500000Y-71120000D03*
G04 #@! TD*
D12*
G04 #@! TO.C,SW2*
X229870000Y-99060000D03*
D13*
X229870000Y-101600000D03*
G04 #@! TD*
D14*
G04 #@! TO.C,C10*
X214884000Y-69137000D03*
X214884000Y-72087000D03*
G04 #@! TD*
D15*
G04 #@! TO.C,USB1*
X135844000Y-122013000D03*
X135844000Y-124513000D03*
X135844000Y-126513000D03*
X135844000Y-129013000D03*
D16*
X133134000Y-118943000D03*
X133134000Y-132083000D03*
G04 #@! TD*
D17*
G04 #@! TO.C,R2*
X144837500Y-132879000D03*
X146662500Y-132879000D03*
G04 #@! TD*
G04 #@! TO.C,R3*
X140773500Y-119798000D03*
X142598500Y-119798000D03*
G04 #@! TD*
D18*
G04 #@! TO.C,U3*
X149369500Y-120373000D03*
X148734500Y-120373000D03*
X148099500Y-120373000D03*
X147464500Y-120373000D03*
X146829500Y-120373000D03*
X146194500Y-120373000D03*
X145559500Y-120373000D03*
X144924500Y-120373000D03*
X144924500Y-125573000D03*
X145559500Y-125573000D03*
X146194500Y-125573000D03*
X146829500Y-125573000D03*
X147464500Y-125573000D03*
X148099500Y-125573000D03*
X148734500Y-125573000D03*
X149369500Y-125573000D03*
G04 #@! TD*
D19*
G04 #@! TO.C,U2*
X142823500Y-123923000D03*
X142823500Y-122973000D03*
X142823500Y-122023000D03*
X140548500Y-122023000D03*
X140548500Y-122973000D03*
X140548500Y-123923000D03*
G04 #@! TD*
D17*
G04 #@! TO.C,R4*
X140773500Y-126148000D03*
X142598500Y-126148000D03*
G04 #@! TD*
D20*
G04 #@! TO.C,C5*
X146700000Y-130593000D03*
X144800000Y-130593000D03*
G04 #@! TD*
G04 #@! TO.C,C6*
X142636000Y-117258000D03*
X140736000Y-117258000D03*
G04 #@! TD*
G04 #@! TO.C,C2*
X146700000Y-128053000D03*
X144800000Y-128053000D03*
G04 #@! TD*
G04 #@! TO.C,C4*
X142636000Y-128561000D03*
X140736000Y-128561000D03*
G04 #@! TD*
D21*
G04 #@! TO.C,H1*
X57440000Y-68580000D03*
X58099010Y-66989010D03*
X58099010Y-70170990D03*
X59690000Y-66330000D03*
D22*
X59690000Y-68580000D03*
D21*
X59690000Y-70830000D03*
X61280990Y-66989010D03*
X61280990Y-70170990D03*
X61940000Y-68580000D03*
G04 #@! TD*
G04 #@! TO.C,H2*
X226350000Y-68580000D03*
X227009010Y-66989010D03*
X227009010Y-70170990D03*
X228600000Y-66330000D03*
D22*
X228600000Y-68580000D03*
D21*
X228600000Y-70830000D03*
X230190990Y-66989010D03*
X230190990Y-70170990D03*
X230850000Y-68580000D03*
G04 #@! TD*
G04 #@! TO.C,H3*
X57440000Y-130810000D03*
X58099010Y-129219010D03*
X58099010Y-132400990D03*
X59690000Y-128560000D03*
D22*
X59690000Y-130810000D03*
D21*
X59690000Y-133060000D03*
X61280990Y-129219010D03*
X61280990Y-132400990D03*
X61940000Y-130810000D03*
G04 #@! TD*
G04 #@! TO.C,H4*
X226350000Y-129540000D03*
X227009010Y-127949010D03*
X227009010Y-131130990D03*
X228600000Y-127290000D03*
D22*
X228600000Y-129540000D03*
D21*
X228600000Y-131790000D03*
X230190990Y-127949010D03*
X230190990Y-131130990D03*
X230850000Y-129540000D03*
G04 #@! TD*
D17*
G04 #@! TO.C,R1*
X166473500Y-123698000D03*
X168298500Y-123698000D03*
G04 #@! TD*
D20*
G04 #@! TO.C,C9*
X201544000Y-103124000D03*
X199644000Y-103124000D03*
G04 #@! TD*
D23*
G04 #@! TO.C,C16*
X104518000Y-110036000D03*
X106418000Y-110036000D03*
G04 #@! TD*
D20*
G04 #@! TO.C,C1*
X206436000Y-123698000D03*
X204536000Y-123698000D03*
G04 #@! TD*
G04 #@! TO.C,C15*
X117790000Y-92202000D03*
X115890000Y-92202000D03*
G04 #@! TD*
D24*
G04 #@! TO.C,C12*
X204011000Y-129032000D03*
X206961000Y-129032000D03*
G04 #@! TD*
D25*
G04 #@! TO.C,R10*
X106412500Y-105500000D03*
X104587500Y-105500000D03*
G04 #@! TD*
D24*
G04 #@! TO.C,C11*
X204011000Y-126238000D03*
X206961000Y-126238000D03*
G04 #@! TD*
D26*
G04 #@! TO.C,C8*
X188468000Y-112456000D03*
X188468000Y-110556000D03*
G04 #@! TD*
D23*
G04 #@! TO.C,C13*
X113858000Y-112014000D03*
X115758000Y-112014000D03*
G04 #@! TD*
D25*
G04 #@! TO.C,R9*
X106412500Y-102108000D03*
X104587500Y-102108000D03*
G04 #@! TD*
D12*
G04 #@! TO.C,SW3*
X101500000Y-99340000D03*
D13*
X101500000Y-101880000D03*
X101500000Y-104420000D03*
X101500000Y-106960000D03*
X101500000Y-109500000D03*
X101500000Y-112040000D03*
G04 #@! TD*
D17*
G04 #@! TO.C,R12*
X117959500Y-115316000D03*
X119784500Y-115316000D03*
G04 #@! TD*
D20*
G04 #@! TO.C,C14*
X119822000Y-112014000D03*
X117922000Y-112014000D03*
G04 #@! TD*
D25*
G04 #@! TO.C,R11*
X115720500Y-115316000D03*
X113895500Y-115316000D03*
G04 #@! TD*
G04 #@! TO.C,R8*
X106412500Y-98806000D03*
X104587500Y-98806000D03*
G04 #@! TD*
G04 #@! TO.C,R14*
X106380500Y-112000000D03*
X104555500Y-112000000D03*
G04 #@! TD*
D27*
G04 #@! TO.C,U1*
X195520000Y-97207500D03*
X195020000Y-97207500D03*
X194520000Y-97207500D03*
X194020000Y-97207500D03*
X193520000Y-97207500D03*
X193020000Y-97207500D03*
X192520000Y-97207500D03*
X192020000Y-97207500D03*
X191520000Y-97207500D03*
X191020000Y-97207500D03*
X190520000Y-97207500D03*
X190020000Y-97207500D03*
X189520000Y-97207500D03*
X189020000Y-97207500D03*
X188520000Y-97207500D03*
X188020000Y-97207500D03*
D28*
X186107500Y-99120000D03*
X186107500Y-99620000D03*
X186107500Y-100120000D03*
X186107500Y-100620000D03*
X186107500Y-101120000D03*
X186107500Y-101620000D03*
X186107500Y-102120000D03*
X186107500Y-102620000D03*
X186107500Y-103120000D03*
X186107500Y-103620000D03*
X186107500Y-104120000D03*
X186107500Y-104620000D03*
X186107500Y-105120000D03*
X186107500Y-105620000D03*
X186107500Y-106120000D03*
X186107500Y-106620000D03*
D27*
X188020000Y-108532500D03*
X188520000Y-108532500D03*
X189020000Y-108532500D03*
X189520000Y-108532500D03*
X190020000Y-108532500D03*
X190520000Y-108532500D03*
X191020000Y-108532500D03*
X191520000Y-108532500D03*
X192020000Y-108532500D03*
X192520000Y-108532500D03*
X193020000Y-108532500D03*
X193520000Y-108532500D03*
X194020000Y-108532500D03*
X194520000Y-108532500D03*
X195020000Y-108532500D03*
X195520000Y-108532500D03*
D28*
X197432500Y-106620000D03*
X197432500Y-106120000D03*
X197432500Y-105620000D03*
X197432500Y-105120000D03*
X197432500Y-104620000D03*
X197432500Y-104120000D03*
X197432500Y-103620000D03*
X197432500Y-103120000D03*
X197432500Y-102620000D03*
X197432500Y-102120000D03*
X197432500Y-101620000D03*
X197432500Y-101120000D03*
X197432500Y-100620000D03*
X197432500Y-100120000D03*
X197432500Y-99620000D03*
X197432500Y-99120000D03*
G04 #@! TD*
D29*
G04 #@! TO.C,C3*
X193040000Y-93284000D03*
X193040000Y-95184000D03*
G04 #@! TD*
D10*
G04 #@! TO.C,ISP1*
X171045000Y-68580000D03*
D11*
X171045000Y-71120000D03*
X168505000Y-68580000D03*
X168505000Y-71120000D03*
X165965000Y-68580000D03*
X165965000Y-71120000D03*
G04 #@! TD*
D17*
G04 #@! TO.C,R13*
X115927500Y-90170000D03*
X117752500Y-90170000D03*
G04 #@! TD*
D23*
G04 #@! TO.C,C7*
X181550000Y-101000000D03*
X183450000Y-101000000D03*
G04 #@! TD*
D30*
G04 #@! TO.C,SW1*
X121390000Y-101600000D03*
D31*
X116840000Y-101600000D03*
D30*
X112290000Y-101600000D03*
D32*
X119340000Y-109100000D03*
X114340000Y-109100000D03*
X116840000Y-109100000D03*
X119340000Y-94600000D03*
X114340000Y-94600000D03*
G04 #@! TD*
D33*
G04 #@! TO.C,DISP1*
X207010000Y-120650000D03*
D32*
X204470000Y-120650000D03*
X201930000Y-120650000D03*
X199390000Y-120650000D03*
X196850000Y-120650000D03*
X194310000Y-120650000D03*
X191770000Y-120650000D03*
X189230000Y-120650000D03*
X186690000Y-120650000D03*
X184150000Y-120650000D03*
X181610000Y-120650000D03*
X179070000Y-120650000D03*
X176530000Y-120650000D03*
X173990000Y-120650000D03*
X171450000Y-120650000D03*
X168910000Y-120650000D03*
X166370000Y-120650000D03*
X163830000Y-120650000D03*
X161290000Y-120650000D03*
X158750000Y-120650000D03*
G04 #@! TD*
M02*
