M48
; DRILL file {KiCad (5.1.8-0-10_14)} date Saturday, December 04, 2021 at 07:42:58 PM
; FORMAT={-:-/ absolute / metric / decimal}
; #@! TF.CreationDate,2021-12-04T19:42:58-08:00
; #@! TF.GenerationSoftware,Kicad,Pcbnew,(5.1.8-0-10_14)
; #@! TF.FileFunction,Plated,1,4,PTH
FMAT,2
METRIC
T1C0.400
T2C0.500
T3C0.991
T4C1.000
T5C2.000
T6C2.500
T7C3.000
%
G90
G05
T1
X74.295Y-74.93
X117.54Y-84.328
X117.54Y-92.456
X125.16Y-80.264
X125.16Y-84.328
X139.065Y-121.285
X139.7Y-117.475
X139.7Y-128.905
X144.145Y-123.19
X144.8Y-129.52
X146.171Y-121.414
X146.7Y-129.525
X147.955Y-121.92
X147.955Y-124.37
X171.704Y-81.28
X173.355Y-77.47
X173.99Y-89.535
X175.895Y-84.455
X177.165Y-80.645
X177.8Y-85.852
X179.07Y-78.74
X179.9Y-82.989
X182.88Y-81.915
X185.356Y-103.569
X186.436Y-81.108
X186.436Y-99.548
X189.23Y-95.25
X189.992Y-88.9
X190.5Y-99.06
X190.5Y-101.6
X190.881Y-82.55
X191.735Y-83.728
X191.897Y-78.74
X191.897Y-81.28
X191.929Y-86.868
X193.04Y-104.902
X194.31Y-95.25
X194.532Y-99.6
X194.564Y-102.108
X194.564Y-103.632
X195.072Y-86.36
X195.58Y-77.724
X196.41Y-97.35
X196.596Y-107.696
X196.596Y-118.364
X196.85Y-88.265
X197.612Y-117.348
X198.12Y-86.995
X198.12Y-101.6
X199.39Y-85.725
X199.45Y-107.696
X200.152Y-102.87
X200.66Y-84.455
X200.66Y-99.06
X200.66Y-104.14
X200.66Y-112.268
X201.06Y-108.604
X201.85Y-107.696
X201.901Y-83.156
X201.909Y-101.875
X202.184Y-92.456
X202.184Y-99.06
X202.438Y-114.3
X202.438Y-116.84
X202.692Y-109.728
X203.2Y-80.264
X203.2Y-104.45
X203.708Y-111.252
X204.441Y-78.74
X205.232Y-89.916
X205.74Y-77.724
X206.502Y-116.84
X206.756Y-101.6
X206.756Y-103.632
X207.518Y-114.3
X207.645Y-104.775
X208.915Y-74.295
X210.185Y-75.565
X211.455Y-76.835
X211.455Y-97.155
X211.455Y-104.775
X214.884Y-68.072
X214.884Y-73.152
T2
X226.35Y-68.58
X227.009Y-66.989
X227.009Y-70.171
X228.6Y-66.33
X228.6Y-70.83
X230.191Y-66.989
X230.191Y-70.171
X230.85Y-68.58
X226.35Y-129.54
X227.009Y-127.949
X227.009Y-131.131
X228.6Y-127.29
X228.6Y-131.79
X230.191Y-127.949
X230.191Y-131.131
X230.85Y-129.54
X57.44Y-68.58
X58.099Y-66.989
X58.099Y-70.171
X59.69Y-66.33
X59.69Y-70.83
X61.281Y-66.989
X61.281Y-70.171
X61.94Y-68.58
X57.44Y-130.81
X58.099Y-129.219
X58.099Y-132.401
X59.69Y-128.56
X59.69Y-133.06
X61.281Y-129.219
X61.281Y-132.401
X61.94Y-130.81
T3
X186.436Y-84.328
X186.436Y-86.36
T4
X114.34Y-94.6
X114.34Y-109.1
X116.84Y-109.1
X119.34Y-94.6
X119.34Y-109.1
X190.5Y-68.58
X190.5Y-71.12
X193.04Y-68.58
X193.04Y-71.12
X195.58Y-68.58
X195.58Y-71.12
X198.12Y-68.58
X198.12Y-71.12
X200.66Y-68.58
X200.66Y-71.12
X203.2Y-68.58
X203.2Y-71.12
X205.74Y-68.58
X205.74Y-71.12
X229.87Y-99.06
X229.87Y-101.6
X158.75Y-120.65
X161.29Y-120.65
X163.83Y-120.65
X166.37Y-120.65
X168.91Y-120.65
X171.45Y-120.65
X173.99Y-120.65
X176.53Y-120.65
X179.07Y-120.65
X181.61Y-120.65
X184.15Y-120.65
X186.69Y-120.65
X189.23Y-120.65
X191.77Y-120.65
X194.31Y-120.65
X196.85Y-120.65
X199.39Y-120.65
X201.93Y-120.65
X204.47Y-120.65
X207.01Y-120.65
X135.844Y-122.013
X135.844Y-124.513
X135.844Y-126.513
X135.844Y-129.013
X101.6Y-99.06
X101.6Y-101.6
X101.6Y-104.14
T6
X133.134Y-118.943
X133.134Y-132.083
T7
X228.6Y-68.58
X228.6Y-129.54
X59.69Y-68.58
X59.69Y-130.81
T5
X112.29Y-103.1G85X112.29Y-100.1
G05
X121.39Y-103.1G85X121.39Y-100.1
G05
T0
M30
