%TF.GenerationSoftware,KiCad,Pcbnew,(6.0.7-1)-1*%
%TF.CreationDate,2022-12-08T22:36:41-08:00*%
%TF.ProjectId,Control,436f6e74-726f-46c2-9e6b-696361645f70,1.1*%
%TF.SameCoordinates,Original*%
%TF.FileFunction,Soldermask,Bot*%
%TF.FilePolarity,Negative*%
%FSLAX46Y46*%
G04 Gerber Fmt 4.6, Leading zero omitted, Abs format (unit mm)*
G04 Created by KiCad (PCBNEW (6.0.7-1)-1) date 2022-12-08 22:36:41*
%MOMM*%
%LPD*%
G01*
G04 APERTURE LIST*
G04 Aperture macros list*
%AMRoundRect*
0 Rectangle with rounded corners*
0 $1 Rounding radius*
0 $2 $3 $4 $5 $6 $7 $8 $9 X,Y pos of 4 corners*
0 Add a 4 corners polygon primitive as box body*
4,1,4,$2,$3,$4,$5,$6,$7,$8,$9,$2,$3,0*
0 Add four circle primitives for the rounded corners*
1,1,$1+$1,$2,$3*
1,1,$1+$1,$4,$5*
1,1,$1+$1,$6,$7*
1,1,$1+$1,$8,$9*
0 Add four rect primitives between the rounded corners*
20,1,$1+$1,$2,$3,$4,$5,0*
20,1,$1+$1,$4,$5,$6,$7,0*
20,1,$1+$1,$6,$7,$8,$9,0*
20,1,$1+$1,$8,$9,$2,$3,0*%
G04 Aperture macros list end*
%ADD10C,2.374900*%
%ADD11C,0.990600*%
%ADD12C,1.612900*%
%ADD13RoundRect,0.250000X-0.600000X0.600000X-0.600000X-0.600000X0.600000X-0.600000X0.600000X0.600000X0*%
%ADD14C,1.700000*%
%ADD15R,1.700000X1.700000*%
%ADD16O,1.700000X1.700000*%
%ADD17RoundRect,0.375000X-0.625000X0.375000X-0.625000X-0.375000X0.625000X-0.375000X0.625000X0.375000X0*%
%ADD18C,4.000000*%
%ADD19C,0.800000*%
%ADD20C,6.000000*%
%ADD21RoundRect,0.250000X-0.262500X-0.450000X0.262500X-0.450000X0.262500X0.450000X-0.262500X0.450000X0*%
%ADD22O,4.000000X7.000000*%
%ADD23C,3.000000*%
%ADD24C,2.000000*%
%ADD25R,1.100000X1.500000*%
%ADD26R,2.000000X2.000000*%
G04 APERTURE END LIST*
D10*
%TO.C,ISP1*%
X173225351Y-104241351D03*
X173225351Y-109321351D03*
D11*
X178940351Y-106781351D03*
D10*
X178940351Y-104241351D03*
X178940351Y-109321351D03*
D12*
X171320351Y-105765351D03*
X171320351Y-107797351D03*
%TD*%
D13*
%TO.C,MCU1*%
X205740000Y-68580000D03*
D14*
X205740000Y-71120000D03*
X203200000Y-68580000D03*
X203200000Y-71120000D03*
X200660000Y-68580000D03*
X200660000Y-71120000D03*
X198120000Y-68580000D03*
X198120000Y-71120000D03*
X195580000Y-68580000D03*
X195580000Y-71120000D03*
X193040000Y-68580000D03*
X193040000Y-71120000D03*
X190500000Y-68580000D03*
X190500000Y-71120000D03*
%TD*%
D15*
%TO.C,SW2*%
X229870000Y-99060000D03*
D16*
X229870000Y-101600000D03*
%TD*%
D17*
%TO.C,USB1*%
X135844000Y-122013000D03*
X135844000Y-124513000D03*
X135844000Y-126513000D03*
X135844000Y-129013000D03*
D18*
X133134000Y-132083000D03*
X133134000Y-118943000D03*
%TD*%
D19*
%TO.C,H1*%
X61940000Y-68580000D03*
X59690000Y-66330000D03*
X61280990Y-70170990D03*
X58099010Y-70170990D03*
X61280990Y-66989010D03*
D20*
X59690000Y-68580000D03*
D19*
X59690000Y-70830000D03*
X58099010Y-66989010D03*
X57440000Y-68580000D03*
%TD*%
%TO.C,H2*%
X227009010Y-70170990D03*
X230190990Y-66989010D03*
X230850000Y-68580000D03*
X228600000Y-70830000D03*
D20*
X228600000Y-68580000D03*
D19*
X227009010Y-66989010D03*
X230190990Y-70170990D03*
X226350000Y-68580000D03*
X228600000Y-66330000D03*
%TD*%
%TO.C,H3*%
X61280990Y-132400990D03*
X61940000Y-130810000D03*
X59690000Y-133060000D03*
X57440000Y-130810000D03*
X59690000Y-128560000D03*
X58099010Y-129219010D03*
X58099010Y-132400990D03*
X61280990Y-129219010D03*
D20*
X59690000Y-130810000D03*
%TD*%
D19*
%TO.C,H4*%
X230850000Y-129540000D03*
X228600000Y-127290000D03*
X230190990Y-127949010D03*
X230190990Y-131130990D03*
D20*
X228600000Y-129540000D03*
D19*
X227009010Y-127949010D03*
X228600000Y-131790000D03*
X227009010Y-131130990D03*
X226350000Y-129540000D03*
%TD*%
D15*
%TO.C,SW3*%
X101600000Y-99324000D03*
D16*
X101600000Y-101864000D03*
X101600000Y-104404000D03*
X101600000Y-106944000D03*
%TD*%
D21*
%TO.C,R8*%
X82272500Y-73660000D03*
X84097500Y-73660000D03*
%TD*%
%TO.C,R9*%
X82272500Y-76200000D03*
X84097500Y-76200000D03*
%TD*%
%TO.C,R10*%
X82272500Y-71120000D03*
X84097500Y-71120000D03*
%TD*%
D22*
%TO.C,SW1*%
X121390000Y-101600000D03*
D23*
X116840000Y-101600000D03*
D22*
X112290000Y-101600000D03*
D24*
X119340000Y-109100000D03*
X114340000Y-109100000D03*
X116840000Y-109100000D03*
X119340000Y-94600000D03*
X114340000Y-94600000D03*
%TD*%
D25*
%TO.C,D1*%
X75450000Y-72160000D03*
X75450000Y-75160000D03*
X76950000Y-75160000D03*
X76950000Y-72160000D03*
%TD*%
D26*
%TO.C,DISP1*%
X207010000Y-120650000D03*
D24*
X204470000Y-120650000D03*
X201930000Y-120650000D03*
X199390000Y-120650000D03*
X196850000Y-120650000D03*
X194310000Y-120650000D03*
X191770000Y-120650000D03*
X189230000Y-120650000D03*
X186690000Y-120650000D03*
X184150000Y-120650000D03*
X181610000Y-120650000D03*
X179070000Y-120650000D03*
X176530000Y-120650000D03*
X173990000Y-120650000D03*
X171450000Y-120650000D03*
X168910000Y-120650000D03*
X166370000Y-120650000D03*
X163830000Y-120650000D03*
X161290000Y-120650000D03*
X158750000Y-120650000D03*
%TD*%
M02*
