G04 #@! TF.GenerationSoftware,KiCad,Pcbnew,8.0.5*
G04 #@! TF.CreationDate,2025-01-18T14:25:39-08:00*
G04 #@! TF.ProjectId,Control,436f6e74-726f-46c2-9e6b-696361645f70,2.1*
G04 #@! TF.SameCoordinates,Original*
G04 #@! TF.FileFunction,Legend,Bot*
G04 #@! TF.FilePolarity,Positive*
%FSLAX46Y46*%
G04 Gerber Fmt 4.6, Leading zero omitted, Abs format (unit mm)*
G04 Created by KiCad (PCBNEW 8.0.5) date 2025-01-18 14:25:39*
%MOMM*%
%LPD*%
G01*
G04 APERTURE LIST*
G04 Aperture macros list*
%AMRoundRect*
0 Rectangle with rounded corners*
0 $1 Rounding radius*
0 $2 $3 $4 $5 $6 $7 $8 $9 X,Y pos of 4 corners*
0 Add a 4 corners polygon primitive as box body*
4,1,4,$2,$3,$4,$5,$6,$7,$8,$9,$2,$3,0*
0 Add four circle primitives for the rounded corners*
1,1,$1+$1,$2,$3*
1,1,$1+$1,$4,$5*
1,1,$1+$1,$6,$7*
1,1,$1+$1,$8,$9*
0 Add four rect primitives between the rounded corners*
20,1,$1+$1,$2,$3,$4,$5,0*
20,1,$1+$1,$4,$5,$6,$7,0*
20,1,$1+$1,$6,$7,$8,$9,0*
20,1,$1+$1,$8,$9,$2,$3,0*%
G04 Aperture macros list end*
%ADD10C,0.120000*%
%ADD11C,0.500000*%
%ADD12C,0.150000*%
%ADD13RoundRect,0.250000X-0.600000X0.600000X-0.600000X-0.600000X0.600000X-0.600000X0.600000X0.600000X0*%
%ADD14C,1.700000*%
%ADD15R,1.700000X1.700000*%
%ADD16O,1.700000X1.700000*%
%ADD17RoundRect,0.375000X-0.625000X0.375000X-0.625000X-0.375000X0.625000X-0.375000X0.625000X0.375000X0*%
%ADD18C,4.000000*%
%ADD19C,0.800000*%
%ADD20C,6.000000*%
%ADD21RoundRect,0.250000X-0.262500X-0.450000X0.262500X-0.450000X0.262500X0.450000X-0.262500X0.450000X0*%
%ADD22O,4.000000X7.000000*%
%ADD23C,3.000000*%
%ADD24C,2.000000*%
%ADD25R,2.000000X2.000000*%
%ADD26R,0.500000X0.850000*%
G04 APERTURE END LIST*
D10*
X92710000Y-82550000D02*
X59690000Y-82550000D01*
X59690000Y-82550000D02*
X59690000Y-120650000D01*
D11*
X77200000Y-70500000D02*
G75*
G02*
X76800000Y-70500000I-200000J0D01*
G01*
X76800000Y-70500000D02*
G75*
G02*
X77200000Y-70500000I200000J0D01*
G01*
D10*
X92710000Y-120650000D02*
X92710000Y-82550000D01*
X59690000Y-120650000D02*
X92710000Y-120650000D01*
D12*
X87415666Y-71574819D02*
X87748999Y-71098628D01*
X87987094Y-71574819D02*
X87987094Y-70574819D01*
X87987094Y-70574819D02*
X87606142Y-70574819D01*
X87606142Y-70574819D02*
X87510904Y-70622438D01*
X87510904Y-70622438D02*
X87463285Y-70670057D01*
X87463285Y-70670057D02*
X87415666Y-70765295D01*
X87415666Y-70765295D02*
X87415666Y-70908152D01*
X87415666Y-70908152D02*
X87463285Y-71003390D01*
X87463285Y-71003390D02*
X87510904Y-71051009D01*
X87510904Y-71051009D02*
X87606142Y-71098628D01*
X87606142Y-71098628D02*
X87987094Y-71098628D01*
X86510904Y-70574819D02*
X86987094Y-70574819D01*
X86987094Y-70574819D02*
X87034713Y-71051009D01*
X87034713Y-71051009D02*
X86987094Y-71003390D01*
X86987094Y-71003390D02*
X86891856Y-70955771D01*
X86891856Y-70955771D02*
X86653761Y-70955771D01*
X86653761Y-70955771D02*
X86558523Y-71003390D01*
X86558523Y-71003390D02*
X86510904Y-71051009D01*
X86510904Y-71051009D02*
X86463285Y-71146247D01*
X86463285Y-71146247D02*
X86463285Y-71384342D01*
X86463285Y-71384342D02*
X86510904Y-71479580D01*
X86510904Y-71479580D02*
X86558523Y-71527200D01*
X86558523Y-71527200D02*
X86653761Y-71574819D01*
X86653761Y-71574819D02*
X86891856Y-71574819D01*
X86891856Y-71574819D02*
X86987094Y-71527200D01*
X86987094Y-71527200D02*
X87034713Y-71479580D01*
X87415666Y-74114819D02*
X87748999Y-73638628D01*
X87987094Y-74114819D02*
X87987094Y-73114819D01*
X87987094Y-73114819D02*
X87606142Y-73114819D01*
X87606142Y-73114819D02*
X87510904Y-73162438D01*
X87510904Y-73162438D02*
X87463285Y-73210057D01*
X87463285Y-73210057D02*
X87415666Y-73305295D01*
X87415666Y-73305295D02*
X87415666Y-73448152D01*
X87415666Y-73448152D02*
X87463285Y-73543390D01*
X87463285Y-73543390D02*
X87510904Y-73591009D01*
X87510904Y-73591009D02*
X87606142Y-73638628D01*
X87606142Y-73638628D02*
X87987094Y-73638628D01*
X86558523Y-73114819D02*
X86748999Y-73114819D01*
X86748999Y-73114819D02*
X86844237Y-73162438D01*
X86844237Y-73162438D02*
X86891856Y-73210057D01*
X86891856Y-73210057D02*
X86987094Y-73352914D01*
X86987094Y-73352914D02*
X87034713Y-73543390D01*
X87034713Y-73543390D02*
X87034713Y-73924342D01*
X87034713Y-73924342D02*
X86987094Y-74019580D01*
X86987094Y-74019580D02*
X86939475Y-74067200D01*
X86939475Y-74067200D02*
X86844237Y-74114819D01*
X86844237Y-74114819D02*
X86653761Y-74114819D01*
X86653761Y-74114819D02*
X86558523Y-74067200D01*
X86558523Y-74067200D02*
X86510904Y-74019580D01*
X86510904Y-74019580D02*
X86463285Y-73924342D01*
X86463285Y-73924342D02*
X86463285Y-73686247D01*
X86463285Y-73686247D02*
X86510904Y-73591009D01*
X86510904Y-73591009D02*
X86558523Y-73543390D01*
X86558523Y-73543390D02*
X86653761Y-73495771D01*
X86653761Y-73495771D02*
X86844237Y-73495771D01*
X86844237Y-73495771D02*
X86939475Y-73543390D01*
X86939475Y-73543390D02*
X86987094Y-73591009D01*
X86987094Y-73591009D02*
X87034713Y-73686247D01*
X87415666Y-76654819D02*
X87748999Y-76178628D01*
X87987094Y-76654819D02*
X87987094Y-75654819D01*
X87987094Y-75654819D02*
X87606142Y-75654819D01*
X87606142Y-75654819D02*
X87510904Y-75702438D01*
X87510904Y-75702438D02*
X87463285Y-75750057D01*
X87463285Y-75750057D02*
X87415666Y-75845295D01*
X87415666Y-75845295D02*
X87415666Y-75988152D01*
X87415666Y-75988152D02*
X87463285Y-76083390D01*
X87463285Y-76083390D02*
X87510904Y-76131009D01*
X87510904Y-76131009D02*
X87606142Y-76178628D01*
X87606142Y-76178628D02*
X87987094Y-76178628D01*
X87082332Y-75654819D02*
X86415666Y-75654819D01*
X86415666Y-75654819D02*
X86844237Y-76654819D01*
X125793332Y-112167200D02*
X125650475Y-112214819D01*
X125650475Y-112214819D02*
X125412380Y-112214819D01*
X125412380Y-112214819D02*
X125317142Y-112167200D01*
X125317142Y-112167200D02*
X125269523Y-112119580D01*
X125269523Y-112119580D02*
X125221904Y-112024342D01*
X125221904Y-112024342D02*
X125221904Y-111929104D01*
X125221904Y-111929104D02*
X125269523Y-111833866D01*
X125269523Y-111833866D02*
X125317142Y-111786247D01*
X125317142Y-111786247D02*
X125412380Y-111738628D01*
X125412380Y-111738628D02*
X125602856Y-111691009D01*
X125602856Y-111691009D02*
X125698094Y-111643390D01*
X125698094Y-111643390D02*
X125745713Y-111595771D01*
X125745713Y-111595771D02*
X125793332Y-111500533D01*
X125793332Y-111500533D02*
X125793332Y-111405295D01*
X125793332Y-111405295D02*
X125745713Y-111310057D01*
X125745713Y-111310057D02*
X125698094Y-111262438D01*
X125698094Y-111262438D02*
X125602856Y-111214819D01*
X125602856Y-111214819D02*
X125364761Y-111214819D01*
X125364761Y-111214819D02*
X125221904Y-111262438D01*
X124888570Y-111214819D02*
X124650475Y-112214819D01*
X124650475Y-112214819D02*
X124459999Y-111500533D01*
X124459999Y-111500533D02*
X124269523Y-112214819D01*
X124269523Y-112214819D02*
X124031428Y-111214819D01*
X123126666Y-112214819D02*
X123698094Y-112214819D01*
X123412380Y-112214819D02*
X123412380Y-111214819D01*
X123412380Y-111214819D02*
X123507618Y-111357676D01*
X123507618Y-111357676D02*
X123602856Y-111452914D01*
X123602856Y-111452914D02*
X123698094Y-111500533D01*
X146732380Y-91894819D02*
X146732380Y-90894819D01*
X146732380Y-90894819D02*
X146494285Y-90894819D01*
X146494285Y-90894819D02*
X146351428Y-90942438D01*
X146351428Y-90942438D02*
X146256190Y-91037676D01*
X146256190Y-91037676D02*
X146208571Y-91132914D01*
X146208571Y-91132914D02*
X146160952Y-91323390D01*
X146160952Y-91323390D02*
X146160952Y-91466247D01*
X146160952Y-91466247D02*
X146208571Y-91656723D01*
X146208571Y-91656723D02*
X146256190Y-91751961D01*
X146256190Y-91751961D02*
X146351428Y-91847200D01*
X146351428Y-91847200D02*
X146494285Y-91894819D01*
X146494285Y-91894819D02*
X146732380Y-91894819D01*
X145732380Y-91894819D02*
X145732380Y-90894819D01*
X145303809Y-91847200D02*
X145160952Y-91894819D01*
X145160952Y-91894819D02*
X144922857Y-91894819D01*
X144922857Y-91894819D02*
X144827619Y-91847200D01*
X144827619Y-91847200D02*
X144780000Y-91799580D01*
X144780000Y-91799580D02*
X144732381Y-91704342D01*
X144732381Y-91704342D02*
X144732381Y-91609104D01*
X144732381Y-91609104D02*
X144780000Y-91513866D01*
X144780000Y-91513866D02*
X144827619Y-91466247D01*
X144827619Y-91466247D02*
X144922857Y-91418628D01*
X144922857Y-91418628D02*
X145113333Y-91371009D01*
X145113333Y-91371009D02*
X145208571Y-91323390D01*
X145208571Y-91323390D02*
X145256190Y-91275771D01*
X145256190Y-91275771D02*
X145303809Y-91180533D01*
X145303809Y-91180533D02*
X145303809Y-91085295D01*
X145303809Y-91085295D02*
X145256190Y-90990057D01*
X145256190Y-90990057D02*
X145208571Y-90942438D01*
X145208571Y-90942438D02*
X145113333Y-90894819D01*
X145113333Y-90894819D02*
X144875238Y-90894819D01*
X144875238Y-90894819D02*
X144732381Y-90942438D01*
X144303809Y-91894819D02*
X144303809Y-90894819D01*
X144303809Y-90894819D02*
X143922857Y-90894819D01*
X143922857Y-90894819D02*
X143827619Y-90942438D01*
X143827619Y-90942438D02*
X143780000Y-90990057D01*
X143780000Y-90990057D02*
X143732381Y-91085295D01*
X143732381Y-91085295D02*
X143732381Y-91228152D01*
X143732381Y-91228152D02*
X143780000Y-91323390D01*
X143780000Y-91323390D02*
X143827619Y-91371009D01*
X143827619Y-91371009D02*
X143922857Y-91418628D01*
X143922857Y-91418628D02*
X144303809Y-91418628D01*
X142780000Y-91894819D02*
X143351428Y-91894819D01*
X143065714Y-91894819D02*
X143065714Y-90894819D01*
X143065714Y-90894819D02*
X143160952Y-91037676D01*
X143160952Y-91037676D02*
X143256190Y-91132914D01*
X143256190Y-91132914D02*
X143351428Y-91180533D01*
X76738094Y-76954819D02*
X76738094Y-75954819D01*
X76738094Y-75954819D02*
X76499999Y-75954819D01*
X76499999Y-75954819D02*
X76357142Y-76002438D01*
X76357142Y-76002438D02*
X76261904Y-76097676D01*
X76261904Y-76097676D02*
X76214285Y-76192914D01*
X76214285Y-76192914D02*
X76166666Y-76383390D01*
X76166666Y-76383390D02*
X76166666Y-76526247D01*
X76166666Y-76526247D02*
X76214285Y-76716723D01*
X76214285Y-76716723D02*
X76261904Y-76811961D01*
X76261904Y-76811961D02*
X76357142Y-76907200D01*
X76357142Y-76907200D02*
X76499999Y-76954819D01*
X76499999Y-76954819D02*
X76738094Y-76954819D01*
X75214285Y-76954819D02*
X75785713Y-76954819D01*
X75499999Y-76954819D02*
X75499999Y-75954819D01*
X75499999Y-75954819D02*
X75595237Y-76097676D01*
X75595237Y-76097676D02*
X75690475Y-76192914D01*
X75690475Y-76192914D02*
X75785713Y-76240533D01*
D10*
G04 #@! TO.C,R5*
X84301064Y-70385000D02*
X83846936Y-70385000D01*
X84301064Y-71855000D02*
X83846936Y-71855000D01*
G04 #@! TO.C,R6*
X84301064Y-72925000D02*
X83846936Y-72925000D01*
X84301064Y-74395000D02*
X83846936Y-74395000D01*
G04 #@! TO.C,R7*
X84301064Y-75465000D02*
X83846936Y-75465000D01*
X84301064Y-76935000D02*
X83846936Y-76935000D01*
G04 #@! TO.C,SW1*
X110840000Y-94600000D02*
X110840000Y-97600000D01*
X110840000Y-94600000D02*
X112840000Y-94600000D01*
X110840000Y-108100000D02*
X110840000Y-105600000D01*
X113284000Y-108100000D02*
X110840000Y-108100000D01*
X115840000Y-94600000D02*
X117840000Y-94600000D01*
X120650000Y-108100000D02*
X122840000Y-108100000D01*
X122840000Y-94600000D02*
X120840000Y-94600000D01*
X122840000Y-97600000D02*
X122840000Y-94600000D01*
X122840000Y-105600000D02*
X122840000Y-108100000D01*
X118872000Y-101600000D02*
G75*
G02*
X114808000Y-101600000I-2032000J0D01*
G01*
X114808000Y-101600000D02*
G75*
G02*
X118872000Y-101600000I2032000J0D01*
G01*
G04 #@! TO.C,DISP1*
X138280000Y-79150000D02*
X138280000Y-123150000D01*
X141880000Y-90150000D02*
X141880000Y-112150000D01*
X223880000Y-90150000D02*
X141880000Y-90150000D01*
X223880000Y-90150000D02*
X223880000Y-112150000D01*
X223880000Y-112150000D02*
X141880000Y-112150000D01*
X227480000Y-79150000D02*
X138280000Y-79150000D01*
X227480000Y-79150000D02*
X227480000Y-123150000D01*
X227480000Y-123150000D02*
X138280000Y-123150000D01*
G04 #@! TO.C,D1*
X74600000Y-72000000D02*
X74600000Y-75500000D01*
X77400000Y-71300000D02*
X76500000Y-71300000D01*
X77400000Y-71300000D02*
X77400000Y-75500000D01*
G04 #@! TD*
%LPC*%
D13*
G04 #@! TO.C,MCU1*
X205740000Y-68580000D03*
D14*
X205740000Y-71120000D03*
X203200000Y-68580000D03*
X203200000Y-71120000D03*
X200660000Y-68580000D03*
X200660000Y-71120000D03*
X198120000Y-68580000D03*
X198120000Y-71120000D03*
X195580000Y-68580000D03*
X195580000Y-71120000D03*
X193040000Y-68580000D03*
X193040000Y-71120000D03*
X190500000Y-68580000D03*
X190500000Y-71120000D03*
G04 #@! TD*
D15*
G04 #@! TO.C,SW2*
X229870000Y-99060000D03*
D16*
X229870000Y-101600000D03*
G04 #@! TD*
D17*
G04 #@! TO.C,USB1*
X135844000Y-122013000D03*
X135844000Y-124513000D03*
X135844000Y-126513000D03*
X135844000Y-129013000D03*
D18*
X133134000Y-118943000D03*
X133134000Y-132083000D03*
G04 #@! TD*
D19*
G04 #@! TO.C,H1*
X57440000Y-68580000D03*
X58099010Y-66989010D03*
X58099010Y-70170990D03*
X59690000Y-66330000D03*
D20*
X59690000Y-68580000D03*
D19*
X59690000Y-70830000D03*
X61280990Y-66989010D03*
X61280990Y-70170990D03*
X61940000Y-68580000D03*
G04 #@! TD*
G04 #@! TO.C,H2*
X226350000Y-68580000D03*
X227009010Y-66989010D03*
X227009010Y-70170990D03*
X228600000Y-66330000D03*
D20*
X228600000Y-68580000D03*
D19*
X228600000Y-70830000D03*
X230190990Y-66989010D03*
X230190990Y-70170990D03*
X230850000Y-68580000D03*
G04 #@! TD*
G04 #@! TO.C,H3*
X57440000Y-130810000D03*
X58099010Y-129219010D03*
X58099010Y-132400990D03*
X59690000Y-128560000D03*
D20*
X59690000Y-130810000D03*
D19*
X59690000Y-133060000D03*
X61280990Y-129219010D03*
X61280990Y-132400990D03*
X61940000Y-130810000D03*
G04 #@! TD*
G04 #@! TO.C,H4*
X226350000Y-129540000D03*
X227009010Y-127949010D03*
X227009010Y-131130990D03*
X228600000Y-127290000D03*
D20*
X228600000Y-129540000D03*
D19*
X228600000Y-131790000D03*
X230190990Y-127949010D03*
X230190990Y-131130990D03*
X230850000Y-129540000D03*
G04 #@! TD*
D15*
G04 #@! TO.C,SW3*
X101500000Y-99340000D03*
D16*
X101500000Y-101880000D03*
X101500000Y-104420000D03*
X101500000Y-106960000D03*
X101500000Y-109500000D03*
X101500000Y-112040000D03*
G04 #@! TD*
D13*
G04 #@! TO.C,ISP1*
X171045000Y-68580000D03*
D14*
X171045000Y-71120000D03*
X168505000Y-68580000D03*
X168505000Y-71120000D03*
X165965000Y-68580000D03*
X165965000Y-71120000D03*
G04 #@! TD*
D21*
G04 #@! TO.C,R5*
X83161500Y-71120000D03*
X84986500Y-71120000D03*
G04 #@! TD*
G04 #@! TO.C,R6*
X83161500Y-73660000D03*
X84986500Y-73660000D03*
G04 #@! TD*
G04 #@! TO.C,R7*
X83161500Y-76200000D03*
X84986500Y-76200000D03*
G04 #@! TD*
D22*
G04 #@! TO.C,SW1*
X121390000Y-101600000D03*
D23*
X116840000Y-101600000D03*
D22*
X112290000Y-101600000D03*
D24*
X119340000Y-109100000D03*
X114340000Y-109100000D03*
X116840000Y-109100000D03*
X119340000Y-94600000D03*
X114340000Y-94600000D03*
G04 #@! TD*
D25*
G04 #@! TO.C,DISP1*
X207010000Y-120650000D03*
D24*
X204470000Y-120650000D03*
X201930000Y-120650000D03*
X199390000Y-120650000D03*
X196850000Y-120650000D03*
X194310000Y-120650000D03*
X191770000Y-120650000D03*
X189230000Y-120650000D03*
X186690000Y-120650000D03*
X184150000Y-120650000D03*
X181610000Y-120650000D03*
X179070000Y-120650000D03*
X176530000Y-120650000D03*
X173990000Y-120650000D03*
X171450000Y-120650000D03*
X168910000Y-120650000D03*
X166370000Y-120650000D03*
X163830000Y-120650000D03*
X161290000Y-120650000D03*
X158750000Y-120650000D03*
G04 #@! TD*
D26*
G04 #@! TO.C,D1*
X76500000Y-72625000D03*
X76500000Y-74375000D03*
X75500000Y-74375000D03*
X75500000Y-72625000D03*
G04 #@! TD*
%LPD*%
M02*
