M48
; DRILL file {KiCad 8.0.8} date 2025-01-21T16:04:30-0800
; FORMAT={-:-/ absolute / inch / decimal}
; #@! TF.CreationDate,2025-01-21T16:04:30-08:00
; #@! TF.GenerationSoftware,Kicad,Pcbnew,8.0.8
; #@! TF.FileFunction,Plated,1,4,PTH
FMAT,2
INCH
; #@! TA.AperFunction,Plated,PTH,ViaDrill
T1C0.0157
; #@! TA.AperFunction,Plated,PTH,ComponentDrill
T2C0.0197
; #@! TA.AperFunction,Plated,PTH,ComponentDrill
T3C0.0394
; #@! TA.AperFunction,Plated,PTH,ComponentDrill
T4C0.0787
; #@! TA.AperFunction,Plated,PTH,ComponentDrill
T5C0.0984
; #@! TA.AperFunction,Plated,PTH,ComponentDrill
T6C0.1181
%
G90
G05
T1
X2.25Y-3.25
X2.25Y-3.75
X2.25Y-4.25
X2.25Y-4.75
X2.75Y-2.5
X2.75Y-3.25
X2.75Y-4.75
X2.75Y-5.25
X3.0709Y-2.8593
X3.25Y-2.5
X3.25Y-3.25
X3.25Y-4.75
X3.25Y-5.25
X3.75Y-2.5
X3.75Y-3.25
X3.75Y-3.75
X3.75Y-4.75
X3.75Y-5.25
X4.2335Y-4.2198
X4.2335Y-4.2998
X4.25Y-2.5
X4.25Y-3.25
X4.25Y-4.75
X4.25Y-5.25
X4.52Y-3.55
X4.52Y-3.63
X4.6Y-4.41
X4.6Y-4.47
X4.6Y-4.54
X4.75Y-2.5
X4.75Y-3.25
X4.75Y-4.75
X4.75Y-5.25
X5.25Y-2.5
X5.25Y-3.25
X5.25Y-3.75
X5.25Y-4.25
X5.48Y-4.84
X5.48Y-4.88
X5.5Y-4.625
X5.5Y-5.075
X5.675Y-4.85
X5.7008Y-5.0992
X5.75Y-2.5
X5.75Y-3.25
X5.75Y-3.75
X5.75Y-4.25
X5.7547Y-4.7801
X5.7756Y-5.0994
X5.7756Y-5.1844
X5.825Y-4.8964
X5.8255Y-4.7808
X5.84Y-4.2
X5.88Y-4.17
X6.25Y-2.5
X6.25Y-3.25
X6.25Y-3.75
X6.25Y-4.25
X6.25Y-5.25
X6.68Y-4.87
X6.75Y-2.5
X6.75Y-3.25
X6.75Y-3.75
X6.75Y-4.25
X6.75Y-5.25
X6.811Y-3.07
X7.1457Y-3.8976
X7.25Y-2.5
X7.25Y-5.25
X7.28Y-3.02
X7.313Y-3.8681
X7.3425Y-3.8287
X7.3733Y-2.9724
X7.38Y-3.96
X7.38Y-3.9974
X7.4114Y-2.9134
X7.4114Y-3.8898
X7.42Y-4.21
X7.42Y-4.48
X7.46Y-4.21
X7.4606Y-3.8898
X7.54Y-4.0
X7.54Y-4.04
X7.5626Y-3.89
X7.6Y-3.63
X7.6Y-3.89
X7.6386Y-3.95
X7.678Y-3.89
X7.6969Y-3.1594
X7.71Y-4.04
X7.71Y-4.08
X7.75Y-2.5
X7.75Y-5.25
X7.8937Y-2.9626
X7.98Y-4.06
X7.98Y-4.97
X7.98Y-5.08
X8.0Y-4.87
X8.05Y-3.07
X8.18Y-4.87
X8.2Y-4.97
X8.2Y-5.08
X8.25Y-2.5
X8.25Y-3.75
X8.25Y-4.25
X8.25Y-4.75
X8.25Y-5.25
X8.46Y-2.68
X8.46Y-2.88
X8.75Y-2.5
X8.75Y-3.25
X8.75Y-3.75
X8.75Y-4.25
X8.75Y-4.75
X8.75Y-5.25
T2
X2.2614Y-2.7
X2.2614Y-5.15
X2.2874Y-2.6374
X2.2874Y-2.7626
X2.2874Y-5.0874
X2.2874Y-5.2126
X2.35Y-2.6114
X2.35Y-2.7886
X2.35Y-5.0614
X2.35Y-5.2386
X2.4126Y-2.6374
X2.4126Y-2.7626
X2.4126Y-5.0874
X2.4126Y-5.2126
X2.4386Y-2.7
X2.4386Y-5.15
X8.9114Y-2.7
X8.9114Y-5.1
X8.9374Y-2.6374
X8.9374Y-2.7626
X8.9374Y-5.0374
X8.9374Y-5.1626
X9.0Y-2.6114
X9.0Y-2.7886
X9.0Y-5.0114
X9.0Y-5.1886
X9.0626Y-2.6374
X9.0626Y-2.7626
X9.0626Y-5.0374
X9.0626Y-5.1626
X9.0886Y-2.7
X9.0886Y-5.1
T3
X3.9973Y-3.8013
X3.9973Y-3.9013
X3.9973Y-4.0013
X3.9973Y-4.1013
X3.9973Y-4.2013
X3.9973Y-4.3013
X4.5016Y-3.7244
X4.5016Y-4.2953
X4.6Y-4.2953
X4.6984Y-3.7244
X4.6984Y-4.2953
X5.3482Y-4.8037
X5.3482Y-4.9021
X5.3482Y-4.9808
X5.3482Y-5.0793
X6.25Y-4.75
X6.35Y-4.75
X6.45Y-4.75
X6.5341Y-2.7
X6.5341Y-2.8
X6.55Y-4.75
X6.6341Y-2.7
X6.6341Y-2.8
X6.65Y-4.75
X6.7341Y-2.7
X6.7341Y-2.8
X6.75Y-4.75
X6.85Y-4.75
X6.95Y-4.75
X7.05Y-4.75
X7.15Y-4.75
X7.25Y-4.75
X7.35Y-4.75
X7.45Y-4.75
X7.5Y-2.7
X7.5Y-2.8
X7.55Y-4.75
X7.6Y-2.7
X7.6Y-2.8
X7.65Y-4.75
X7.7Y-2.7
X7.7Y-2.8
X7.75Y-4.75
X7.8Y-2.7
X7.8Y-2.8
X7.85Y-4.75
X7.9Y-2.7
X7.9Y-2.8
X7.95Y-4.75
X8.0Y-2.7
X8.0Y-2.8
X8.05Y-4.75
X8.1Y-2.7
X8.1Y-2.8
X8.15Y-4.75
X9.05Y-3.9
X9.05Y-4.0
T5
X5.2415Y-4.6828
X5.2415Y-5.2001
T6
X2.35Y-2.7
X2.35Y-5.15
X9.0Y-2.7
X9.0Y-5.1
T4
G00X4.4209Y-4.0591
M15
G01X4.4209Y-3.9409
M16
G05
G00X4.7791Y-4.0591
M15
G01X4.7791Y-3.9409
M16
G05
M30
